<svg id="Слой_1" data-name="Слой 1" xmlns="http://www.w3.org/2000/svg" viewBox="0 0 204.93 204.38"><defs><style>.cls-1{fill:#c14dfc;}.cls-2{fill:#fff;}</style></defs><path class="cls-1" d="M478.31,400.63,355,393.52c-21.11-1.22-37.42-20.51-36.43-43.08L323.66,235c1-22.57,18.91-39.88,40-38.66L487,203.48c21.11,1.22,37.42,20.51,36.43,43.08L518.34,362C517.35,384.54,499.43,401.85,478.31,400.63Z" transform="translate(-318.54 -196.31)"/><path class="cls-2" d="M423.81,238.23c-39.16-2-72.11,19.31-73.6,47.71-.7,13.38,5.71,25.94,16.77,35.69,5.25,4.63-7.42,34.4-5.63,38.5,0,0,35-22.56,41-21.23a97.13,97.13,0,0,0,16.1,2.19c39.16,2.05,72.11-19.31,73.6-47.72S463,240.28,423.81,238.23Zm-35.3,62.24A9,9,0,1,1,398,292,9,9,0,0,1,388.51,300.47Zm33.95,1.78a9,9,0,1,1,9.46-8.52A9,9,0,0,1,422.46,302.25Zm35,1.83a9,9,0,1,1,9.46-8.52A9,9,0,0,1,457.41,304.08Z" transform="translate(-318.54 -196.31)"/></svg>