<?xml version="1.0" encoding="utf-8"?>
<!-- Generator: Adobe Illustrator 25.0.1, SVG Export Plug-In . SVG Version: 6.00 Build 0)  -->
<svg version="1.1" id="Слой_1" xmlns="http://www.w3.org/2000/svg" xmlns:xlink="http://www.w3.org/1999/xlink" x="0px" y="0px"
	 viewBox="0 0 841.89 595.28" style="enable-background:new 0 0 841.89 595.28;" xml:space="preserve">
<style type="text/css">
	.st0{fill:#A800FF;}
	.st1{fill:#FFFFFF;}
</style>
<path class="st0" d="M463.31,373.89l-91.02-5.25c-15.58-0.9-27.62-15.13-26.89-31.79l3.75-85.19c0.73-16.66,13.96-29.44,29.55-28.54
	l91.02,5.25c15.58,0.9,27.62,15.13,26.89,31.79l-3.75,85.19C492.12,362.01,478.89,374.79,463.31,373.89z"/>
<g>
	<path class="st1" d="M406.06,335.23c-1.4-3.09-2.38-6.09-3.13-9.17c-0.3-1.25-0.53-2.52-0.84-3.78c-0.13-0.52,0.02-0.75,0.52-0.92
		c3.92-1.32,7.32-3.5,10.28-6.39c1.21-1.18,2.27-2.48,3.18-3.89c0.41-0.65,0.85-0.88,1.63-0.83c4.77,0.29,9.55,0.53,14.33,0.77
		c1.61,0.08,1.33,0.27,1.56-1.27c0.77-5.12,1.14-10.27,1.17-15.45c0.01-1.84-0.1-3.68-0.11-5.52c-0.01-0.68-0.46-0.58-0.86-0.6
		c-3.45-0.18-6.91-0.36-10.36-0.54c-1.16-0.06-2.32-0.12-3.49-0.18c-0.33-0.02-0.61-0.05-0.76-0.45c-1.13-3.13-2.8-5.94-4.98-8.51
		c0.42-0.29,0.81-0.16,1.16-0.14c5.71,0.29,11.43,0.6,17.14,0.9c1.16,0.06,1.17,0.06,0.94-1.1c-0.83-4.32-1.86-8.58-3.76-12.57
		c-0.81-1.69-1.68-3.35-3.08-4.66c-1.79-1.68-3.48-1.67-5.3-0.01c-2.24,2.05-3.69,4.63-4.98,7.32c-1.25,2.59-2.26,5.28-3.05,8.05
		c-0.24,0.85-0.47,0.78-1.03,0.24c-1.85-1.78-3.9-3.29-6.22-4.4c-0.65-0.31-0.7-0.64-0.47-1.26c1.11-3.03,2.35-6.01,3.97-8.81
		c0.11-0.18,0.28-0.35,0.21-0.67c-2.7,0.86-5.23,2.02-7.65,3.44c-1.99,1.16-3.86,2.48-5.6,3.98c-0.32,0.28-0.62,0.5-1.11,0.48
		c-4.53-0.23-8.86,0.6-12.97,2.56c-0.08,0.04-0.18,0.03-0.47,0.09c0.68-0.94,1.25-1.78,1.87-2.57c7.17-9.07,16.36-15.04,27.63-17.6
		c10.71-2.43,21.14-1.3,31.1,3.35c10.26,4.79,17.89,12.36,22.98,22.45c3.2,6.34,4.84,13.1,5.03,20.22
		c0.21,8.25-1.55,16.04-5.33,23.35c-4.53,8.75-11.13,15.54-19.76,20.33c-8.64,4.79-17.91,6.67-27.72,5.85
		c-5.81-0.48-11.35-2.06-16.62-4.58c-0.37-0.18-0.53-0.36-0.51-0.8c0.15-2.84,0.29-5.68,0.39-8.52c0.03-0.8,0.31-0.64,0.79-0.36
		C403.09,333.83,404.4,334.58,406.06,335.23z M452.14,289.15c-2.52-0.13-5.03-0.23-7.55-0.41c-0.79-0.06-1.08,0.1-1.05,0.95
		c0.07,2,0.11,4,0.06,6c-0.12,5.01-0.45,10-1.15,14.96c-0.1,0.7,0.05,0.94,0.81,0.98c5.13,0.23,10.26,0.51,15.38,0.8
		c0.58,0.03,0.84-0.13,1.03-0.68c2.31-7,2.69-14.09,1.15-21.29c-0.13-0.62-0.33-0.9-1.04-0.93
		C457.24,289.45,454.69,289.28,452.14,289.15z M421.08,319.3c0,0,0-0.01,0-0.01c-3.23-0.17-6.45-0.34-9.68-0.51
		c-0.45-0.02-0.88-0.16-0.73,0.65c0.67,3.69,1.53,7.32,2.89,10.82c0.9,2.32,1.96,4.58,3.63,6.46c1.87,2.11,3.68,2.21,5.78,0.36
		c1.28-1.12,2.24-2.49,3.12-3.93c2.38-3.88,3.9-8.12,5.18-12.47c0.21-0.7,0.1-0.88-0.63-0.91
		C427.47,319.66,424.28,319.47,421.08,319.3z M434.45,336.6c8.57-2.83,15.36-7.96,20.51-15.4c-0.22-0.07-0.3-0.12-0.39-0.12
		c-4.42-0.24-8.83-0.47-13.25-0.73c-0.53-0.03-0.73,0.2-0.85,0.67c-0.4,1.49-0.81,2.99-1.27,4.46
		C437.97,329.32,436.45,333.04,434.45,336.6z M457.01,280.55c-1.85-5.75-13.8-16.89-18.73-17.51c0.49,1.24,1.01,2.45,1.44,3.7
		c1.37,3.9,2.33,7.91,2.86,12.01c0.11,0.82,0.42,1.1,1.27,1.12c2.19,0.05,4.38,0.22,6.58,0.33
		C452.61,280.32,454.79,280.44,457.01,280.55z"/>
	<path class="st1" d="M386.16,328.32c0.18-3.36,0.3-6.72,0.56-10.07c0.08-1.07-0.2-1.54-1.22-1.96
		c-7.17-2.95-11.67-8.31-13.46-15.79c-3.12-13.03,6.02-25.86,19.36-27.38c11.94-1.36,22.74,6.71,24.83,18.56
		c1.96,11.15-4.97,22.28-15.85,25.37c-1.02,0.29-1.33,0.69-1.37,1.74c-0.24,6.69-0.53,13.37-0.88,20.05
		c-0.26,5.11-5.33,7.89-9.52,5.25c-1.82-1.15-2.79-2.85-2.78-5.02c0.01-1.81,0.11-3.62,0.18-5.43c0.08-1.78,0.18-3.55,0.28-5.33
		C386.25,328.32,386.21,328.32,386.16,328.32z M383.81,294.95c-0.28,5.58,4.02,10.43,9.49,10.71c5.72,0.29,10.59-4.01,10.89-9.65
		c0.3-5.59-4.1-10.45-9.72-10.71C388.86,285.03,384.1,289.34,383.81,294.95z"/>
	<path class="st1" d="M377.3,317.16c1.98,1.38,4,2.63,6.22,3.53c0.29,0.12,0.37,0.31,0.36,0.6c-0.12,2.25-0.24,4.5-0.37,6.94
		C380.85,324.78,378.8,321.14,377.3,317.16z"/>
</g>
</svg>
