<?xml version="1.0" encoding="utf-8"?>
<!-- Generator: Adobe Illustrator 25.0.1, SVG Export Plug-In . SVG Version: 6.00 Build 0)  -->
<svg version="1.1" id="Слой_1" xmlns="http://www.w3.org/2000/svg" xmlns:xlink="http://www.w3.org/1999/xlink" x="0px" y="0px"
	 viewBox="0 0 841.89 595.28" style="enable-background:new 0 0 841.89 595.28;" xml:space="preserve">
<style type="text/css">
	.st0{fill:#FF00FF;}
	.st1{fill:#FFFFFF;}
</style>
<path class="st0" d="M481.51,354.91l-84.5,21.71c-14.47,3.72-29.59-5.75-33.77-21.15l-21.39-78.75c-4.18-15.4,4.16-30.9,18.63-34.62
	l84.5-21.71c14.47-3.72,29.59,5.75,33.77,21.15l21.39,78.75C504.32,335.69,495.98,351.19,481.51,354.91z"/>
<g>
	<path class="st1" d="M433.16,295.38c4.69,0.12,9.15,0.93,13.49,2.41c5.86,1.99,11.1,5.03,15.54,9.36
		c3.11,3.03,5.59,6.53,7.34,10.52c1.28,2.92,0.58,5.63-1.03,8.2c-2.13,3.4-5.14,5.92-8.31,8.27c-4.12,3.06-8.61,5.48-13.32,7.48
		c-4.43,1.89-9.01,3.37-13.68,4.56c-3.37,0.86-6.78,1.57-10.22,2.07c-6.52,0.95-13.05,1.18-19.58,0.15
		c-3.28-0.52-6.51-1.25-9.45-2.88c-1.57-0.87-2.96-1.94-3.9-3.51c-0.74-1.24-1.02-2.61-1.1-4.02c-0.44-7.64,1.47-14.68,5.42-21.2
		c3.44-5.68,7.96-10.33,13.47-14.02c0.36-0.24,0.72-0.5,1.1-0.71c0.43-0.24,0.38-0.37-0.01-0.64c-3.68-2.54-6.66-5.76-9.22-9.41
		c-2.32-3.32-4.21-6.86-5.55-10.68c-1.55-4.38-1.75-8.85-0.74-13.39c0.79-3.56,2.21-6.83,4.41-9.73c3.24-4.29,7.45-7.09,12.83-7.88
		c4.5-0.66,8.73,0.28,12.72,2.42c4.46,2.39,7.9,5.84,10.35,10.24c1.39,2.49,2.21,5.19,2.66,8.02c0.87,5.59,0.68,11.14-0.51,16.65
		c-0.54,2.48-1.34,4.88-2.45,7.17C433.34,294.97,433.27,295.14,433.16,295.38z"/>
</g>
</svg>
