<?xml version="1.0" encoding="utf-8"?>
<!-- Generator: Adobe Illustrator 25.0.1, SVG Export Plug-In . SVG Version: 6.00 Build 0)  -->
<svg version="1.1" id="Слой_1" xmlns="http://www.w3.org/2000/svg" xmlns:xlink="http://www.w3.org/1999/xlink" x="0px" y="0px"
	 viewBox="0 0 841.89 595.28" style="enable-background:new 0 0 841.89 595.28;" xml:space="preserve">
<style type="text/css">
	.st0{fill:#A800FF;}
	.st1{fill:#FFFFFF;}
</style>
<path class="st0" d="M454.45,366l-78.97-8.64c-13.52-1.48-23.36-14.4-21.98-28.87l7.07-73.97c1.38-14.47,13.47-24.99,26.99-23.51
	l78.97,8.64c13.52,1.48,23.36,14.4,21.98,28.87l-7.07,73.97C480.05,356.95,467.97,367.47,454.45,366z"/>
<g>
	<path class="st1" d="M423.59,262.87c9.66,0.94,17.36,3.16,24.66,6.83c6.64,3.33,12.48,7.71,17.67,13.01c2.02,2.06,3.8,4.3,5.6,6.54
		c2.32,2.9,1.87,6.98-0.95,9.41c-2.72,2.35-6.87,2.14-9.38-0.51c-1.88-1.98-3.44-4.25-5.38-6.19c-4.93-4.95-10.56-8.85-17.02-11.56
		c-7.9-3.31-16.1-4.52-24.6-3.81c-6.76,0.56-13.15,2.51-19.17,5.6c-4.44,2.28-8.37,5.3-12.12,8.56c-1.49,1.3-3.06,2.38-5.17,2.44
		c-2.67,0.08-5.39-1.48-6.42-3.81c-1.28-2.88-0.91-5.74,1.25-7.75c4.39-4.09,9.17-7.69,14.41-10.63c6.16-3.47,12.72-5.86,19.67-7.16
		C412.75,262.7,418.92,262.38,423.59,262.87z"/>
	<path class="st1" d="M424.39,288c5.46,0.63,10.52,2.46,15.2,5.27c5.3,3.17,9.59,7.47,13.09,12.53c2.08,2.99,1.6,6.73-1.04,9.46
		c-2.24,2.32-6.06,2.73-8.99,0.97c-1.84-1.1-2.98-2.89-4.34-4.46c-6.01-6.96-13.48-10-22.65-8.72c-5.1,0.71-9.32,3.15-13.17,6.43
		c-1.55,1.32-2.99,2.82-4.95,3.6c-3.1,1.24-6.8,0.24-8.75-2.39c-2.11-2.85-2.03-6.76,0.26-9.4c1.58-1.81,3.57-3.19,5.43-4.68
		c2.51-2.01,5.2-3.75,8.12-5.14c4.73-2.25,9.7-3.46,14.91-3.76C419.83,287.57,422.11,287.72,424.39,288z"/>
	<path class="st1" d="M430.27,328.84c-0.41,6.08-5.63,11.44-12.67,11.03c-6.21-0.37-11.55-5.59-11.15-12.66
		c0.35-6.23,5.52-11.63,12.84-11.18C425.31,316.4,430.76,321.61,430.27,328.84z"/>
</g>
</svg>
