<?xml version="1.0" encoding="utf-8"?>
<!-- Generator: Adobe Illustrator 25.0.1, SVG Export Plug-In . SVG Version: 6.00 Build 0)  -->
<svg version="1.1" id="Слой_1" xmlns="http://www.w3.org/2000/svg" xmlns:xlink="http://www.w3.org/1999/xlink" x="0px" y="0px"
	 viewBox="0 0 841.89 595.28" style="enable-background:new 0 0 841.89 595.28;" xml:space="preserve">
<style type="text/css">
	.st0{fill:#4800FF;}
	.st1{fill:#FFFFFF;}
</style>
<path class="st0" d="M481.33,386.18l-107.14,7.9c-21.02,1.55-39.32-14.23-40.87-35.26l-7.9-107.14
	c-1.55-21.02,14.23-39.32,35.26-40.87l107.14-7.9c21.02-1.55,39.32,14.23,40.87,35.26l7.9,107.14
	C518.14,366.33,502.35,384.63,481.33,386.18z"/>
<g>
	<path class="st1" d="M420.19,237.33c1.8,0.35,3.63,0.16,5.45,0.31c18.58,1.6,33.51,9.86,44.71,24.72
		c6.15,8.16,9.99,17.39,11.19,27.54c2.93,24.76-5.83,44.54-26,59.13c-7.69,5.56-16.47,8.72-25.89,10.01
		c-14.54,1.99-28.13-0.77-40.61-8.47c-13.08-8.08-21.96-19.57-26.38-34.3c-4.67-15.58-3.42-30.82,3.96-45.32
		c8.09-15.89,20.95-26.24,38.06-31.25c2.51-0.74,5.09-1.27,7.7-1.59c0.39-0.05,0.81-0.02,1.13-0.31
		C415.74,237.64,417.97,237.49,420.19,237.33z M455.23,317.03c0.08-0.01,0.15-0.01,0.23-0.02c-0.46-6.51-0.94-13.02-1.34-19.53
		c-0.07-1.05-0.43-1.72-1.25-2.35c-11.03-8.36-22.04-16.75-33.04-25.16c-0.63-0.48-0.94-0.38-1.45,0.14
		c-9.71,9.92-19.44,19.82-29.19,29.71c-0.55,0.56-0.75,1.1-0.7,1.89c0.95,13.22,1.86,26.44,2.79,39.66c0.13,1.84,0.76,2.4,2.57,2.28
		c6.27-0.43,12.54-0.9,18.82-1.29c1.05-0.07,1.2-0.46,1.12-1.39c-0.42-5.44-0.78-10.88-1.16-16.32c-0.12-1.74,0.36-2.31,2.1-2.43
		c5.32-0.38,10.64-0.76,15.96-1.12c1.73-0.12,2.3,0.39,2.42,2.12c0.38,5.44,0.79,10.88,1.12,16.32c0.06,1.08,0.41,1.29,1.43,1.21
		c6.19-0.48,12.39-0.89,18.58-1.32c1.95-0.14,2.48-0.75,2.34-2.74C456.15,330.13,455.69,323.58,455.23,317.03z M440.13,270.27
		c-0.23-0.15-0.39-0.25-0.54-0.36c-6.81-5.24-13.63-10.47-20.41-15.74c-0.9-0.7-1.44-0.75-2.28,0.12
		c-8.74,9.03-17.53,18.02-26.3,27.03c-5.19,5.33-10.36,10.68-15.56,16c-0.57,0.58-0.62,0.9,0.02,1.48c1.29,1.18,2.51,2.44,3.71,3.72
		c0.53,0.57,0.87,0.57,1.41,0.01c3.33-3.42,6.68-6.82,10.03-10.22c9.22-9.35,18.44-18.69,27.64-28.06c0.62-0.63,1-0.7,1.73-0.14
		c7.5,5.78,15.03,11.52,22.55,17.27c6.7,5.13,13.4,10.25,20.07,15.4c0.69,0.53,1.02,0.4,1.49-0.24c1.04-1.41,2.11-2.79,3.25-4.12
		c0.57-0.66,0.59-0.99-0.16-1.56c-4.39-3.36-8.73-6.79-13.11-10.17c-0.59-0.46-0.84-0.94-0.88-1.68c-0.31-4.89-0.68-9.77-0.99-14.65
		c-0.05-0.78-0.29-1-1.07-0.93c-3.37,0.28-6.75,0.51-10.12,0.71c-0.83,0.05-0.95,0.33-0.86,1.1
		C439.94,266.84,440,268.47,440.13,270.27z"/>
</g>
</svg>
