<?xml version="1.0" encoding="utf-8"?>
<!-- Generator: Adobe Illustrator 25.0.1, SVG Export Plug-In . SVG Version: 6.00 Build 0)  -->
<svg version="1.1" id="Слой_1" xmlns="http://www.w3.org/2000/svg" xmlns:xlink="http://www.w3.org/1999/xlink" x="0px" y="0px"
	 viewBox="0 0 3299 937" style="enable-background:new 0 0 3299 937;" xml:space="preserve">
<style type="text/css">
	.st0{fill:#FFFFFF;}
</style>
<g>
	<path class="st0" d="M560.53,730.58c-26.04,22.4-55.21,39.58-87.5,51.56c-32.29,11.98-65.76,17.97-100.39,17.97
		c-26.56,0-52.21-3.52-76.95-10.55c-24.48-6.77-47.53-16.41-69.14-28.91c-21.35-12.76-40.89-27.99-58.59-45.7
		s-32.94-37.24-45.7-58.59c-12.5-21.61-22.27-44.66-29.3-69.14c-6.77-24.74-10.16-50.39-10.16-76.95c0-26.56,3.39-52.21,10.16-76.95
		c7.03-24.74,16.8-47.79,29.3-69.14c12.76-21.61,27.99-41.28,45.7-58.98c17.71-17.71,37.24-32.81,58.59-45.31
		c21.61-12.76,44.66-22.53,69.14-29.3c24.74-7.03,50.39-10.55,76.95-10.55c34.64,0,68.1,5.99,100.39,17.97
		c32.29,11.72,61.46,28.91,87.5,51.56l-59.37,97.66c-16.41-17.71-35.81-31.25-58.2-40.62c-22.4-9.64-45.83-14.45-70.31-14.45
		c-24.74,0-47.92,4.69-69.53,14.06c-21.61,9.38-40.49,22.14-56.64,38.28c-16.15,15.89-28.91,34.77-38.28,56.64
		c-9.38,21.61-14.06,44.66-14.06,69.14c0,24.48,4.69,47.53,14.06,69.14c9.38,21.35,22.14,40.1,38.28,56.25
		c16.15,16.15,35.03,28.91,56.64,38.28c21.61,9.37,44.79,14.06,69.53,14.06c24.48,0,47.92-4.69,70.31-14.06
		c22.4-9.64,41.8-23.31,58.2-41.02L560.53,730.58z M684.27,788h-79.98V349.43h79.98V488c9.57-7.23,19.43-12.3,29.59-15.23
		c10.16-3.12,20.51-4.69,31.05-4.69c19.34,0,37.5,3.71,54.49,11.13c16.99,7.23,31.74,17.29,44.24,30.18
		c12.7,12.69,22.66,27.64,29.88,44.82c7.42,16.99,11.13,35.16,11.13,54.49V788h-80.57V608.7h0.59c0-8.2-1.56-15.92-4.69-23.14
		c-3.12-7.42-7.42-13.87-12.89-19.34c-5.47-5.47-11.82-9.77-19.04-12.89c-7.23-3.12-14.94-4.69-23.15-4.69
		c-8.4,0-16.31,1.56-23.73,4.69s-13.87,7.42-19.34,12.89c-5.47,5.47-9.77,11.91-12.89,19.34c-3.12,7.23-4.69,14.94-4.69,23.14V788z
		 M1245.59,788h-19.33l-31.06-43.07c-7.61,6.84-15.72,13.28-24.31,19.34c-8.4,5.86-17.29,11.03-26.66,15.53
		c-9.38,4.3-19.05,7.72-29.01,10.25c-9.76,2.54-19.72,3.81-29.88,3.81c-22.07,0-42.87-3.71-62.4-11.13
		c-19.34-7.42-36.33-18.16-50.98-32.23c-14.45-14.26-25.88-31.64-34.28-52.15c-8.4-20.51-12.6-43.85-12.6-70.02
		c0-24.41,4.2-46.78,12.6-67.09c8.4-20.51,19.82-38.09,34.28-52.73c14.65-14.65,31.64-25.98,50.98-33.98
		c19.53-8.2,40.33-12.3,62.4-12.3c10.16,0,20.21,1.27,30.18,3.81c9.96,2.54,19.62,6.05,29,10.55c9.37,4.49,18.26,9.77,26.66,15.82
		c8.59,6.05,16.6,12.6,24.02,19.63l31.06-37.21h19.33V788z M1165.03,628.33c0-10.94-2.15-21.48-6.45-31.64
		c-4.1-10.35-9.76-19.43-16.99-27.25c-7.23-8.01-15.72-14.35-25.49-19.04c-9.57-4.88-19.82-7.32-30.76-7.32
		c-10.94,0-21.29,1.86-31.05,5.57c-9.58,3.71-17.97,9.18-25.2,16.41c-7.03,7.23-12.6,16.21-16.7,26.95
		c-4.1,10.55-6.15,22.66-6.15,36.33c0,13.67,2.05,25.88,6.15,36.62c4.1,10.55,9.67,19.43,16.7,26.66
		c7.23,7.23,15.62,12.7,25.2,16.41c9.76,3.71,20.11,5.57,31.05,5.57c10.94,0,21.19-2.34,30.76-7.03
		c9.77-4.88,18.26-11.23,25.49-19.04c7.23-8.01,12.89-17.09,16.99-27.25C1162.88,649.91,1165.03,639.27,1165.03,628.33z M1386.8,788
		h-79.98V474.23h19.34l26.37,37.21c12.89-11.72,27.54-20.7,43.94-26.95c16.41-6.45,33.4-9.67,50.98-9.67h70.6v79.69h-70.6
		c-8.4,0-16.31,1.56-23.73,4.69c-7.42,3.12-13.87,7.42-19.34,12.89c-5.47,5.47-9.76,11.91-12.89,19.34
		c-3.12,7.42-4.69,15.33-4.69,23.73V788z M1628.5,907.53v-80.57l44.54,0.59c7.81,0,15.33-1.27,22.55-3.81
		c7.23-2.54,13.87-6.05,19.93-10.55c6.25-4.49,11.71-9.86,16.4-16.11c4.69-6.05,8.5-12.69,11.43-19.92
		c-8.79,3.71-17.78,7.42-26.96,11.13c-8.98,3.71-18.06,5.57-27.24,5.57c-19.34,0-37.5-3.42-54.49-10.25
		c-17-6.83-31.94-16.5-44.83-29c-12.69-12.7-22.75-28.03-30.17-46c-7.23-18.16-10.84-38.48-10.84-60.94V474.23h79.68v173.44
		c0,11.13,1.57,20.9,4.69,29.3c3.32,8.2,7.72,15.14,13.19,20.8c5.46,5.47,11.81,9.57,19.04,12.3c7.42,2.73,15.33,4.1,23.73,4.1
		c8.2,0,15.92-1.86,23.14-5.57c7.42-3.91,13.87-8.98,19.34-15.23s9.76-13.28,12.89-21.09c3.12-8.01,4.69-16.21,4.69-24.61V474.23
		h80.56v274.22c-0.19,22.07-4.49,42.77-12.89,62.11s-19.92,36.23-34.57,50.68c-14.45,14.45-31.35,25.88-50.68,34.28
		c-19.34,8.4-40.04,12.6-62.11,12.6L1628.5,907.53z M2147.64,788h-111.71V339.95h-168.36V227.84h448.04v112.11h-167.97V788z
		 M2447.84,388.98c0,7.42-1.46,14.36-4.39,20.8c-2.74,6.45-6.55,12.11-11.43,16.99c-4.88,4.69-10.64,8.5-17.29,11.43
		c-6.44,2.73-13.37,4.1-20.8,4.1c-7.42,0-14.45-1.37-21.09-4.1c-6.45-2.93-12.11-6.74-16.99-11.43c-4.69-4.88-8.5-10.55-11.43-16.99
		c-2.73-6.45-4.1-13.38-4.1-20.8c0-7.23,1.37-14.06,4.1-20.51c2.93-6.64,6.74-12.3,11.43-16.99c4.88-4.88,10.54-8.69,16.99-11.43
		c6.64-2.93,13.67-4.39,21.09-4.39c7.43,0,14.36,1.46,20.8,4.39c6.65,2.73,12.41,6.54,17.29,11.43c4.88,4.69,8.69,10.35,11.43,16.99
		C2446.38,374.91,2447.84,381.75,2447.84,388.98z M2434.07,788h-80.57V474.23h80.57V788z M2894.32,788h-79.68V588.78
		c0-5.47-1.08-10.64-3.23-15.53c-1.95-4.88-4.78-9.18-8.49-12.89s-8.01-6.54-12.89-8.5c-4.89-2.15-10.06-3.22-15.53-3.22
		s-10.64,1.07-15.53,3.22c-4.68,1.95-8.88,4.78-12.59,8.5c-3.52,3.71-6.35,8.01-8.5,12.89c-1.95,4.88-2.93,10.06-2.93,15.53V788
		h-79.98V588.78c0-5.47-1.08-10.64-3.22-15.53c-1.96-4.88-4.79-9.18-8.5-12.89s-8.01-6.54-12.89-8.5
		c-4.88-2.15-10.06-3.22-15.53-3.22s-10.64,1.07-15.53,3.22c-4.68,1.95-8.88,4.78-12.59,8.5c-3.52,3.71-6.35,8.01-8.5,12.89
		c-1.95,4.88-2.93,10.06-2.93,15.53V788h-79.98V474.23h19.34l21.68,24.02c11.13-9.38,23.34-16.6,36.62-21.68
		c13.47-5.27,27.44-7.91,41.89-7.91c14.65,0,28.91,2.73,42.78,8.2c14.06,5.47,26.36,14.94,36.91,28.42
		c4.88-6.64,10.45-12.3,16.7-16.99c6.25-4.69,12.79-8.5,19.63-11.43c7.03-2.93,14.26-4.98,21.68-6.15
		c7.42-1.37,14.74-2.05,21.97-2.05c16.6,0,32.13,3.12,46.58,9.38c14.65,6.25,27.35,14.84,38.09,25.78
		c10.94,10.74,19.53,23.44,25.78,38.09c6.25,14.65,9.37,30.27,9.37,46.88V788z M3077.72,711.24c3.13,0.98,6.25,1.66,9.38,2.05
		c3.12,0.19,6.25,0.29,9.37,0.29c7.82,0,15.33-1.07,22.56-3.22c7.23-2.15,13.97-5.17,20.22-9.08c6.44-4.1,12.11-8.98,16.99-14.65
		c5.08-5.86,9.18-12.3,12.3-19.34l58.6,58.89c-7.43,10.55-16.02,20.02-25.78,28.42c-9.57,8.4-20.02,15.53-31.35,21.39
		c-11.13,5.86-22.95,10.25-35.45,13.18c-12.31,3.12-25,4.69-38.09,4.69c-22.07,0-42.87-4.1-62.4-12.3
		c-19.34-8.2-36.33-19.63-50.98-34.28c-14.45-14.65-25.88-32.03-34.27-52.15c-8.4-20.31-12.6-42.58-12.6-66.8
		c0-24.8,4.2-47.46,12.6-67.97c8.39-20.51,19.82-37.99,34.27-52.44c14.65-14.45,31.64-25.68,50.98-33.69
		c19.53-8.01,40.33-12.01,62.4-12.01c13.09,0,25.88,1.56,38.38,4.69s24.32,7.62,35.45,13.48c11.33,5.86,21.88,13.09,31.64,21.68
		c9.77,8.4,18.36,17.87,25.78,28.42L3077.72,711.24z M3118.74,546.3c-3.71-1.37-7.42-2.25-11.13-2.64
		c-3.52-0.39-7.23-0.59-11.14-0.59c-10.93,0-21.29,2.05-31.05,6.15c-9.57,3.91-17.97,9.57-25.2,16.99
		c-7.03,7.42-12.6,16.41-16.7,26.95c-4.1,10.35-6.15,22.07-6.15,35.16c0,2.93,0.1,6.25,0.29,9.96c0.39,3.71,0.88,7.52,1.47,11.43
		c0.78,3.71,1.66,7.32,2.64,10.84c0.97,3.51,2.24,6.64,3.8,9.38L3118.74,546.3z"/>
</g>
<path class="st0" d="M560.53,730.58c-26.04,22.4-55.21,39.58-87.5,51.56c-32.29,11.98-65.76,17.97-100.39,17.97
	c-26.56,0-52.21-3.52-76.95-10.55c-24.48-6.77-47.53-16.41-69.14-28.91c-21.35-12.76-40.89-27.99-58.59-45.7
	s-32.94-37.24-45.7-58.59c-12.5-21.61-22.27-44.66-29.3-69.14c-6.77-24.74-10.16-50.39-10.16-76.95c0-26.56,3.39-52.21,10.16-76.95
	c7.03-24.74,16.8-47.79,29.3-69.14c12.76-21.61,27.99-41.28,45.7-58.98c17.71-17.71,37.24-32.81,58.59-45.31
	c21.61-12.76,44.66-22.53,69.14-29.3c24.74-7.03,50.39-10.55,76.95-10.55c34.64,0,68.1,5.99,100.39,17.97
	c32.29,11.72,61.46,28.91,87.5,51.56l-59.37,97.66c-16.41-17.71-35.81-31.25-58.2-40.62c-22.4-9.64-45.83-14.45-70.31-14.45
	c-24.74,0-47.92,4.69-69.53,14.06c-21.61,9.38-40.49,22.14-56.64,38.28c-16.15,15.89-28.91,34.77-38.28,56.64
	c-9.38,21.61-14.06,44.66-14.06,69.14c0,24.48,4.69,47.53,14.06,69.14c9.38,21.35,22.14,40.1,38.28,56.25
	c16.15,16.15,35.03,28.91,56.64,38.28c21.61,9.37,44.79,14.06,69.53,14.06c24.48,0,47.92-4.69,70.31-14.06
	c22.4-9.64,41.8-23.31,58.2-41.02L560.53,730.58z M684.27,788h-79.98V349.43h79.98V488c9.57-7.23,19.43-12.3,29.59-15.23
	c10.16-3.12,20.51-4.69,31.05-4.69c19.34,0,37.5,3.71,54.49,11.13c16.99,7.23,31.74,17.29,44.24,30.18
	c12.7,12.69,22.66,27.64,29.88,44.82c7.42,16.99,11.13,35.16,11.13,54.49V788h-80.57V608.7h0.59c0-8.2-1.56-15.92-4.69-23.14
	c-3.12-7.42-7.42-13.87-12.89-19.34c-5.47-5.47-11.82-9.77-19.04-12.89c-7.23-3.12-14.94-4.69-23.15-4.69
	c-8.4,0-16.31,1.56-23.73,4.69s-13.87,7.42-19.34,12.89c-5.47,5.47-9.77,11.91-12.89,19.34c-3.12,7.23-4.69,14.94-4.69,23.14V788z
	 M1245.59,788h-19.33l-31.06-43.07c-7.61,6.84-15.72,13.28-24.31,19.34c-8.4,5.86-17.29,11.03-26.66,15.53
	c-9.38,4.3-19.05,7.72-29.01,10.25c-9.76,2.54-19.72,3.81-29.88,3.81c-22.07,0-42.87-3.71-62.4-11.13
	c-19.34-7.42-36.33-18.16-50.98-32.23c-14.45-14.26-25.88-31.64-34.28-52.15c-8.4-20.51-12.6-43.85-12.6-70.02
	c0-24.41,4.2-46.78,12.6-67.09c8.4-20.51,19.82-38.09,34.28-52.73c14.65-14.65,31.64-25.98,50.98-33.98
	c19.53-8.2,40.33-12.3,62.4-12.3c10.16,0,20.21,1.27,30.18,3.81c9.96,2.54,19.62,6.05,29,10.55c9.37,4.49,18.26,9.77,26.66,15.82
	c8.59,6.05,16.6,12.6,24.02,19.63l31.06-37.21h19.33V788z M1165.03,628.33c0-10.94-2.15-21.48-6.45-31.64
	c-4.1-10.35-9.76-19.43-16.99-27.25c-7.23-8.01-15.72-14.35-25.49-19.04c-9.57-4.88-19.82-7.32-30.76-7.32
	c-10.94,0-21.29,1.86-31.05,5.57c-9.58,3.71-17.97,9.18-25.2,16.41c-7.03,7.23-12.6,16.21-16.7,26.95
	c-4.1,10.55-6.15,22.66-6.15,36.33c0,13.67,2.05,25.88,6.15,36.62c4.1,10.55,9.67,19.43,16.7,26.66c7.23,7.23,15.62,12.7,25.2,16.41
	c9.76,3.71,20.11,5.57,31.05,5.57c10.94,0,21.19-2.34,30.76-7.03c9.77-4.88,18.26-11.23,25.49-19.04
	c7.23-8.01,12.89-17.09,16.99-27.25C1162.88,649.91,1165.03,639.27,1165.03,628.33z M1386.8,788h-79.98V474.23h19.34l26.37,37.21
	c12.89-11.72,27.54-20.7,43.94-26.95c16.41-6.45,33.4-9.67,50.98-9.67h70.6v79.69h-70.6c-8.4,0-16.31,1.56-23.73,4.69
	c-7.42,3.12-13.87,7.42-19.34,12.89c-5.47,5.47-9.76,11.91-12.89,19.34c-3.12,7.42-4.69,15.33-4.69,23.73V788z M1628.5,907.53
	v-80.57l44.54,0.59c7.81,0,15.33-1.27,22.55-3.81c7.23-2.54,13.87-6.05,19.93-10.55c6.25-4.49,11.71-9.86,16.4-16.11
	c4.69-6.05,8.5-12.69,11.43-19.92c-8.79,3.71-17.78,7.42-26.96,11.13c-8.98,3.71-18.06,5.57-27.24,5.57
	c-19.34,0-37.5-3.42-54.49-10.25c-17-6.83-31.94-16.5-44.83-29c-12.69-12.7-22.75-28.03-30.17-46
	c-7.23-18.16-10.84-38.48-10.84-60.94V474.23h79.68v173.44c0,11.13,1.57,20.9,4.69,29.3c3.32,8.2,7.72,15.14,13.19,20.8
	c5.46,5.47,11.81,9.57,19.04,12.3c7.42,2.73,15.33,4.1,23.73,4.1c8.2,0,15.92-1.86,23.14-5.57c7.42-3.91,13.87-8.98,19.34-15.23
	s9.76-13.28,12.89-21.09c3.12-8.01,4.69-16.21,4.69-24.61V474.23h80.56v274.22c-0.19,22.07-4.49,42.77-12.89,62.11
	s-19.92,36.23-34.57,50.68c-14.45,14.45-31.35,25.88-50.68,34.28c-19.34,8.4-40.04,12.6-62.11,12.6L1628.5,907.53z M2147.64,788
	h-111.71V339.95h-168.36V227.84h448.04v112.11h-167.97V788z M2447.84,388.98c0,7.42-1.46,14.36-4.39,20.8
	c-2.74,6.45-6.55,12.11-11.43,16.99c-4.88,4.69-10.64,8.5-17.29,11.43c-6.44,2.73-13.37,4.1-20.8,4.1c-7.42,0-14.45-1.37-21.09-4.1
	c-6.45-2.93-12.11-6.74-16.99-11.43c-4.69-4.88-8.5-10.55-11.43-16.99c-2.73-6.45-4.1-13.38-4.1-20.8c0-7.23,1.37-14.06,4.1-20.51
	c2.93-6.64,6.74-12.3,11.43-16.99c4.88-4.88,10.54-8.69,16.99-11.43c6.64-2.93,13.67-4.39,21.09-4.39c7.43,0,14.36,1.46,20.8,4.39
	c6.65,2.73,12.41,6.54,17.29,11.43c4.88,4.69,8.69,10.35,11.43,16.99C2446.38,374.91,2447.84,381.75,2447.84,388.98z M2434.07,788
	h-80.57V474.23h80.57V788z M2894.32,788h-79.68V588.78c0-5.47-1.08-10.64-3.23-15.53c-1.95-4.88-4.78-9.18-8.49-12.89
	s-8.01-6.54-12.89-8.5c-4.89-2.15-10.06-3.22-15.53-3.22s-10.64,1.07-15.53,3.22c-4.68,1.95-8.88,4.78-12.59,8.5
	c-3.52,3.71-6.35,8.01-8.5,12.89c-1.95,4.88-2.93,10.06-2.93,15.53V788h-79.98V588.78c0-5.47-1.08-10.64-3.22-15.53
	c-1.96-4.88-4.79-9.18-8.5-12.89s-8.01-6.54-12.89-8.5c-4.88-2.15-10.06-3.22-15.53-3.22s-10.64,1.07-15.53,3.22
	c-4.68,1.95-8.88,4.78-12.59,8.5c-3.52,3.71-6.35,8.01-8.5,12.89c-1.95,4.88-2.93,10.06-2.93,15.53V788h-79.98V474.23h19.34
	l21.68,24.02c11.13-9.38,23.34-16.6,36.62-21.68c13.47-5.27,27.44-7.91,41.89-7.91c14.65,0,28.91,2.73,42.78,8.2
	c14.06,5.47,26.36,14.94,36.91,28.42c4.88-6.64,10.45-12.3,16.7-16.99c6.25-4.69,12.79-8.5,19.63-11.43
	c7.03-2.93,14.26-4.98,21.68-6.15c7.42-1.37,14.74-2.05,21.97-2.05c16.6,0,32.13,3.12,46.58,9.38
	c14.65,6.25,27.35,14.84,38.09,25.78c10.94,10.74,19.53,23.44,25.78,38.09c6.25,14.65,9.37,30.27,9.37,46.88V788z M3077.72,711.24
	c3.13,0.98,6.25,1.66,9.38,2.05c3.12,0.19,6.25,0.29,9.37,0.29c7.82,0,15.33-1.07,22.56-3.22c7.23-2.15,13.97-5.17,20.22-9.08
	c6.44-4.1,12.11-8.98,16.99-14.65c5.08-5.86,9.18-12.3,12.3-19.34l58.6,58.89c-7.43,10.55-16.02,20.02-25.78,28.42
	c-9.57,8.4-20.02,15.53-31.35,21.39c-11.13,5.86-22.95,10.25-35.45,13.18c-12.31,3.12-25,4.69-38.09,4.69
	c-22.07,0-42.87-4.1-62.4-12.3c-19.34-8.2-36.33-19.63-50.98-34.28c-14.45-14.65-25.88-32.03-34.27-52.15
	c-8.4-20.31-12.6-42.58-12.6-66.8c0-24.8,4.2-47.46,12.6-67.97c8.39-20.51,19.82-37.99,34.27-52.44
	c14.65-14.45,31.64-25.68,50.98-33.69c19.53-8.01,40.33-12.01,62.4-12.01c13.09,0,25.88,1.56,38.38,4.69s24.32,7.62,35.45,13.48
	c11.33,5.86,21.88,13.09,31.64,21.68c9.77,8.4,18.36,17.87,25.78,28.42L3077.72,711.24z M3118.74,546.3
	c-3.71-1.37-7.42-2.25-11.13-2.64c-3.52-0.39-7.23-0.59-11.14-0.59c-10.93,0-21.29,2.05-31.05,6.15
	c-9.57,3.91-17.97,9.57-25.2,16.99c-7.03,7.42-12.6,16.41-16.7,26.95c-4.1,10.35-6.15,22.07-6.15,35.16c0,2.93,0.1,6.25,0.29,9.96
	c0.39,3.71,0.88,7.52,1.47,11.43c0.78,3.71,1.66,7.32,2.64,10.84c0.97,3.51,2.24,6.64,3.8,9.38L3118.74,546.3z"/>
<circle class="st0" cx="365" cy="519" r="40"/>
<rect x="333.72" y="456.7" transform="matrix(0.6599 -0.7513 0.7513 0.6599 -221.3611 464.3609)" class="st0" width="137.09" height="40"/>
</svg>
