<?xml version="1.0" encoding="utf-8"?>
<!-- Generator: Adobe Illustrator 25.0.1, SVG Export Plug-In . SVG Version: 6.00 Build 0)  -->
<svg version="1.1" id="Слой_1" xmlns="http://www.w3.org/2000/svg" xmlns:xlink="http://www.w3.org/1999/xlink" x="0px" y="0px"
	 viewBox="0 0 841.89 595.28" style="enable-background:new 0 0 841.89 595.28;" xml:space="preserve">
<style type="text/css">
	.st0{fill:#FFFFFF;}
</style>
<g>
	<path class="st0" d="M388.67,311.1c-5.61,4.41-11.16,7.65-17.67,8.89c-1.58,0.3-2.08,2.05-2.93,3.24
		c-2.73,3.79-5.6,7.45-9.35,10.31c-2.98,2.27-6.25,3.8-10.1,3.75c-4.92-0.07-7.33-2.77-6.78-7.67c0.43-3.77,2.28-6.87,4.69-9.72
		c1.14-1.35,2.87-2.28,3.39-4.46c-4.54-0.3-7.74,0.75-9.88,5.29c-3.59,7.61-7.87,14.9-12.31,23.17c32.44-3.57,64.09-5.35,95.83-6.04
		c0.45,2.98-4.36,3.16-2.91,5.62c1.07,1.83,3.57,2.82,5.42,4.17c-0.25,1.37-1.25,0.9-1.94,0.87c-31.85-1.59-63.64,0.02-95.43,1.66
		c-3.61,0.19-5.95,1.37-7.25,4.74c-0.53,1.38-1.65,2.55-2.1,3.95c-2.05,6.4-6.51,8.23-12.99,6.8c1.14-3.78,3.57-6.93,5.57-10.26
		c1.82-3.03,1.41-3.86-2.25-3.72c-14.67,0.56-29.23,2.31-43.82,3.76c-10.75,1.07-21.45,2.57-32.63,3.93
		c0.68-3.25,3.01-3.07,4.94-3.41c24.28-4.23,48.56-8.53,73.18-10.27c5.08-0.36,8.36-2.15,10.18-6.88c0.7-1.83,1.94-3.45,3.71-6.5
		c-3.75,2.6-6.28,4.47-8.94,6.14c-1.54,0.96-3.24,1.73-4.95,2.33c-1.89,0.66-4.01,1.22-5.64-0.46c-1.78-1.83-1.31-4.15-0.27-6.06
		c2.02-3.72,4.36-7.26,6.18-11.18c-6.31,4.37-11.85,9.56-16.12,15.8c-2.71,3.95-5.87,4.81-10.08,4.01
		c-0.61-2.07,1.54-3.31,1.33-5.52c-3.23,2.15-6.26,4.27-9.4,6.22c-1.69,1.05-4.05,2.59-5.55,1.34c-3.91-3.26-6.49-0.62-9.43,1.24
		c-2,1.27-4.19,2.02-6.59,2.1c-4.44,0.15-6.42-1.8-6.64-6.15c-0.07-1.38,1.44-3.5-0.13-3.96c-2.27-0.67-5.01-0.75-7.15,0.91
		c-1.3,1.01-2.35,2.34-3.53,3.51c-16.49,16.35-35.18,28.92-58.39,33.67c-5.74,1.17-11.55,1.69-17.38,0.56
		c-6.04-1.17-8.01-5.39-4.98-10.66c2.22-3.85,5.71-6.45,9.38-8.79c9.04-5.78,18.9-9.78,29.1-12.96c2.62-0.82,4.26-2.18,5.53-4.52
		c6.9-12.69,13.81-25.38,20.93-37.96c1.85-3.26,0.93-3.7-2.31-3.88c-20.57-1.15-39.55,4.43-57.77,13.28
		c-4.63,2.25-9.16,4.71-15.24,7.84c4.58-8.16,8.42-15.11,12.43-21.97c0.49-0.84,1.91-1.25,2.98-1.63
		c20.96-7.45,42.42-11.38,64.76-8.89c1.14,0.13,2.71,0.78,3.32-0.24c4.14-6.91,11.16-3.97,17.95-5.94c-2.52,4.07-6,7.21-5.83,10.14
		c0.16,2.65,5.14,4.05,7.39,6.81c4.89,6,5.41,12.59,3.43,19.72c-1.61,5.81-4.52,11-8.06,16.47c3.92,0.66,6.6,0.13,8.88-2.99
		c2.87-3.93,6.7-6.94,11.15-9.02c1.49-0.7,3.5-1.88,4.66-1.39c6.15,2.6,11.79-1.12,18.59-1.27c-4.07,6.96-7.78,13.31-11.68,19.97
		c2.59,0.43,3.96-1.2,5.39-2.33c5.24-4.16,10.22-8.77,13.6-14.49c2.83-4.78,6.55-6.04,11.6-5.62c0.41,2.46-2.38,3.8-2.28,6.52
		c3.31-2.52,6.35-4.94,9.51-7.2c2-1.43,4.31-2.16,6.47-0.43c2.34,1.87,1.47,4.21,0.3,6.31c-2.4,4.3-4.92,8.52-7.03,13.14
		c7.41-3.48,13.02-8.99,18.64-15.79c-2.83,0-4.86,0-6.95,0c0.63-3.69,2.42-5.75,6.02-5.61c3.05,0.12,4.72-1.41,6.26-3.91
		c6.71-10.9,13.52-21.76,22.71-30.85c3.19-3.16,6.45-6.27,10.44-8.45c1.64-0.89,3.51-1.67,5.19-0.49c1.98,1.39,1.45,3.63,0.91,5.5
		c-1.17,4.03-3.43,7.54-5.98,10.85c-6.36,8.24-14.42,14.7-22.47,21.17c-1.36,1.09-3.15,1.87-3.79,4.53
		c6.04-0.59,11.7-1.15,18.74-1.84c-2.99,2.87-5.13,4.82-7.15,6.88c-3.07,3.12-5.67,6.55-6.52,10.98c-0.66,3.45,1.36,5.34,4.52,3.84
		c4.83-2.28,7.74-6.67,10.65-10.93c0.66-0.96,0.15-1.81-0.43-2.72c-2.6-4.09-0.3-7.25,2.18-10.26c1.23-1.5,2.94-2.33,4.89-1.42
		c1.99,0.92,2.26,2.75,1.91,4.67c-0.29,1.6-0.75,3.17-1.14,4.76c7.13-0.25,14.66-6.37,16.23-13.2c0.65-2.83,1.77-5.38,4.25-7.09
		c1.67-1.15,3.62-2.43,5.41-0.67c1.86,1.82,1.07,4.02-0.34,5.86c-1.01,1.31-2.25,2.44-3.35,3.69c-1.1,1.26-2.16,2.58-2.35,4.31
		c-0.32,2.8-0.22,5.19,3.76,3.44c3.65-1.61,7.31-3.2,11.04-4.61c2.49-0.94,3.63-2.42,3.72-5.16c0.12-3.46,1.74-6.39,4.53-8.53
		c1.35-1.04,2.91-1.77,4.6-0.69c1.75,1.11,1.64,2.88,1.06,4.45c-0.62,1.68-1.31,3.7-2.63,4.7c-4.87,3.68-4.13,8.52-3.61,13.54
		c1.02,9.86-3.08,15.88-11.87,17.82c-3.07,0.68-6.29,0.82-8.15-2.08c-1.93-3.01-0.76-6.1,1.37-8.73c2.78-3.45,6.47-5.67,10.4-7.58
		c1.18-0.57,2.48-1.1,3.38-2c0.79-0.78,1.25-2.15,0.43-3.2c-0.86-1.1-1.81,0.04-2.64,0.34c-1.56,0.57-2.99,1.5-4.57,1.98
		c-6.4,1.93-11.3,4.45-12.1,12.54c-0.63,6.36-6.17,9.5-12.54,10.27c-2.56,0.31-5.2,0.2-6.74-2.22c-1.58-2.49-0.93-5.12,0.45-7.56
		c2.54-4.48,7.02-6.39,11.35-8.57C386.35,315.86,389.25,315.62,388.67,311.1z M209.26,340.16c9.03-1.95,16.81-3.59,24.75-4.28
		c1.41-0.12,2.6-0.57,3.35-1.82c4.04-6.74,7.68-13.61,6.86-21.85c-0.44-4.42-2.45-7.84-6.57-9.85c-1.5-0.73-2.65-0.84-3.76,0.85
		C225.96,315.21,217.94,327.16,209.26,340.16z M195.57,350.4c-7.04,1.91-12.56,4.75-17.58,8.54c-2.74,2.07-6.77,4.39-5.34,8.1
		c1.56,4.02,6.31,2.94,9.79,2.5c12.46-1.59,23.58-6.66,33.75-13.84c6.07-4.29,11.72-9.08,16.94-15.67
		c-8.82,1.12-16.4,3.3-24.01,5.47c-3.24,0.93-5.46,2.63-7.27,5.46c-2.41,3.75-4.54,7.74-7.82,10.86c-0.95,0.9-2.28,1.75-3.54,0.66
		c-1.13-0.97-0.26-2.11,0.28-3.12C192.22,356.64,193.68,353.93,195.57,350.4z M259.1,338.85c-0.17,3.02,0.59,4.89,3.64,3.24
		c5.63-3.04,9.28-7.86,11.46-13.8c0.4-1.09,0.47-2.39-0.62-3.19c-1.03-0.76-2.31-0.5-3.32,0.06
		C264.63,328.29,261.19,333.2,259.1,338.85z M351.92,300.57c7.03-5.47,13.98-10.93,17.34-19.48c0.47-1.19,1.49-2.7,0.2-3.65
		c-1.3-0.96-2.49,0.45-3.41,1.3C359.51,284.82,355.33,292.45,351.92,300.57z M409.36,318.2c-3.67,1.06-6.14,2.84-8.21,5.25
		c-0.77,0.9-1.63,1.96-0.8,3.06c0.86,1.13,2.15,0.57,3.15-0.03C406.42,324.74,408.73,322.51,409.36,318.2z M386.57,318.93
		c-3.84,1.24-6.4,3.05-8.11,5.96c-0.48,0.81-1.07,1.82-0.27,2.69c0.83,0.9,1.85,0.31,2.68-0.16
		C383.84,325.72,385.92,323.34,386.57,318.93z"/>
</g>
</svg>
