<?xml version="1.0" encoding="utf-8"?>
<!-- Generator: Adobe Illustrator 25.0.1, SVG Export Plug-In . SVG Version: 6.00 Build 0)  -->
<svg version="1.1" id="Слой_1" xmlns="http://www.w3.org/2000/svg" xmlns:xlink="http://www.w3.org/1999/xlink" x="0px" y="0px"
	 viewBox="0 0 841.89 595.28" style="enable-background:new 0 0 841.89 595.28;" xml:space="preserve">
<style type="text/css">
	.st0{fill:#FFFFFF;}
</style>
<g>
	<path class="st0" d="M344.31,311.94c0,3.8-1.29,6.92-3.74,9.07c-2.39,2.08-5.64,3.12-9.8,3.12h-0.67c-6.31,0-10.78-2.51-12.62-7.11
		l5.45-2.21c0.92,2.27,3.31,3.43,7.17,3.43h0.67c2.63,0,4.66-0.55,5.94-1.65c1.16-1.04,1.72-2.57,1.72-4.66v-0.06
		c-2.08,1.1-4.66,1.65-7.66,1.65c-4.1,0-7.41-1.04-9.74-3.12c-2.45-2.14-3.74-5.27-3.74-9.07v-7.9c0-3.8,1.29-6.98,3.74-9.13
		c2.33-2.02,5.64-3.12,9.74-3.12c3,0,5.58,0.55,7.66,1.72v-1.72h5.88V311.94z M324.88,288.78c-1.16,0.98-1.71,2.57-1.71,4.66v7.9
		c0,2.08,0.55,3.68,1.71,4.66c1.23,1.1,3.31,1.65,5.88,1.65c2.63,0,4.66-0.55,5.94-1.65c1.16-0.98,1.72-2.57,1.72-4.66v-7.9
		c0-2.08-0.55-3.68-1.72-4.66c-1.29-1.1-3.31-1.71-5.94-1.71C328.19,287.07,326.11,287.68,324.88,288.78z"/>
	<path class="st0" d="M374.94,284.37c2.45,2.14,3.74,5.27,3.74,9.07v7.9c0,3.8-1.29,6.92-3.74,9.07c-2.39,2.08-5.64,3.12-9.74,3.12
		c-4.17,0-7.41-1.04-9.8-3.12c-2.45-2.14-3.74-5.27-3.74-9.07v-7.9c0-3.8,1.29-6.92,3.74-9.07c2.39-2.08,5.64-3.19,9.8-3.19
		C369.3,281.19,372.55,282.29,374.94,284.37z M359.25,288.78c-1.1,0.98-1.71,2.57-1.71,4.66v7.9c0,2.08,0.61,3.61,1.71,4.66
		c1.29,1.1,3.31,1.65,5.94,1.65c2.57,0,4.59-0.55,5.88-1.65c1.16-1.04,1.72-2.57,1.72-4.66v-7.9c0-2.08-0.55-3.68-1.72-4.66
		c-1.29-1.1-3.31-1.71-5.88-1.71C362.56,287.07,360.54,287.68,359.25,288.78z"/>
	<path class="st0" d="M426.52,284.31c2.45,2.14,3.74,5.27,3.74,9.07v7.96c0,3.8-1.29,6.92-3.74,9.07c-2.39,2.08-5.7,3.12-9.8,3.12
		c-3,0-5.58-0.55-7.66-1.65v12.25h-5.88v-42.95h5.88v1.65c2.08-1.1,4.66-1.65,7.66-1.65C420.82,281.19,424.13,282.23,426.52,284.31z
		 M410.84,288.72c-1.16,1.04-1.78,2.57-1.78,4.66v7.96c0,2.08,0.61,3.61,1.78,4.66c1.23,1.04,3.25,1.65,5.88,1.65
		c2.63,0,4.66-0.61,5.88-1.65c1.16-1.04,1.78-2.57,1.78-4.66v-7.96c0-2.08-0.61-3.61-1.78-4.66c-1.22-1.1-3.25-1.65-5.88-1.65
		C414.08,287.07,412.06,287.62,410.84,288.72z"/>
	<path class="st0" d="M451.15,287.07c-2.63,0-4.66,0.55-5.94,1.65c-1.1,1.04-1.71,2.57-1.71,4.66v20.16h-5.88v-32.35h5.88v1.65
		c2.08-1.1,4.66-1.65,7.66-1.65h2.63v5.88H451.15z"/>
	<path class="st0" d="M466.4,274.2c0,1.9-1.59,3.55-3.55,3.55c-1.9,0-3.55-1.65-3.55-3.55c0-1.96,1.65-3.55,3.55-3.55
		C464.81,270.65,466.4,272.24,466.4,274.2z M459.91,313.53v-32.35h5.88v32.35H459.91z"/>
	<path class="st0" d="M498.26,284.37c2.45,2.14,3.74,5.27,3.74,9.07v20.09h-5.88v-20.09c0-2.08-0.55-3.68-1.72-4.66
		c-1.29-1.1-3.31-1.71-5.88-1.71c-2.63,0-4.66,0.61-5.94,1.71c-1.1,0.98-1.71,2.57-1.71,4.66v20.09h-5.88v-32.35h5.88v1.72
		c2.08-1.1,4.66-1.72,7.66-1.72C492.62,281.19,495.87,282.29,498.26,284.37z"/>
	<path class="st0" d="M524.66,281.19v5.88h-7.6v14.27c0,2.08,0.55,3.61,1.72,4.66c1.29,1.1,3.31,1.65,5.88,1.65v5.88
		c-4.1,0-7.35-1.04-9.74-3.12c-2.45-2.14-3.74-5.27-3.74-9.07v-14.27h-3.68v-5.88h3.68v-10.54h5.88v10.54H524.66z"/>
</g>
</svg>
