<?xml version="1.0" encoding="utf-8"?>
<!-- Generator: Adobe Illustrator 25.0.1, SVG Export Plug-In . SVG Version: 6.00 Build 0)  -->
<svg version="1.1" id="Слой_1" xmlns="http://www.w3.org/2000/svg" xmlns:xlink="http://www.w3.org/1999/xlink" x="0px" y="0px"
	 viewBox="0 0 841.89 595.28" style="enable-background:new 0 0 841.89 595.28;" xml:space="preserve">
<style type="text/css">
	.st0{fill:#FFFFFF;}
</style>
<path class="st0" d="M276.51,404.25h-2.15v18.38h2.15V404.25L276.51,404.25z M354.71,318.5v41.53c-0.13,0-0.25,0-0.38,0h0
	c-0.13,0-0.25,0-0.38,0V318.5h-0.38V191.85h-0.37V118.1c0.38-0.01,0.75-0.01,1.13-0.01h0c0.38,0,0.75,0.01,1.13,0.01v73.75h-0.37
	V318.5H354.71L354.71,318.5z M360.12,118.35c0.76,0.07,1.51,0.15,2.26,0.24v73.63h-0.37v125.91h-0.38v41.49
	c-0.25,0.03-0.51,0.06-0.76,0.09v-41.58h-0.38V192.22h-0.37V118.35L360.12,118.35z M367.03,119.36c0.76,0.15,1.51,0.32,2.26,0.5
	v73.5h-0.37v123.63h-0.38v41.45c-0.25,0.06-0.51,0.11-0.76,0.17v-41.62h-0.38V193.36h-0.37V119.36L367.03,119.36z M373.95,121.18
	c0.76,0.25,1.51,0.5,2.26,0.77v73.24h-0.37v119.84h-0.38v41.41c-0.25,0.09-0.51,0.18-0.76,0.27v-41.68h-0.38V195.19h-0.37V121.18
	L373.95,121.18z M380.87,123.87c0.76,0.35,1.51,0.71,2.26,1.09v73.23h-0.37v113.96h-0.38v41.39c-0.25,0.12-0.51,0.25-0.76,0.37
	v-41.75h-0.38V198.19h-0.37V123.87L380.87,123.87z M387.78,127.57c0.76,0.47,1.52,0.95,2.26,1.45v73.09h-0.37v106.12h-0.38v41.36
	c-0.25,0.17-0.51,0.33-0.76,0.49v-41.86h-0.38V202.11h-0.37V127.57L387.78,127.57z M394.7,132.48c0.77,0.62,1.52,1.27,2.26,1.92
	v72.93h-0.37v95.68h-0.38v41.37c-0.25,0.22-0.51,0.43-0.76,0.64v-42.02h-0.38v-95.68h-0.37V132.48L394.7,132.48z M401.61,139.01
	c0.77,0.85,1.53,1.71,2.26,2.6v72.74h-0.37V296h-0.38v41.41c-0.25,0.29-0.5,0.59-0.76,0.88V296h-0.38v-81.65h-0.37V139.01
	L401.61,139.01z M408.53,148.04c0.8,1.25,1.55,2.53,2.26,3.84v72.46h-0.37V286h-0.38v41.58c-0.25,0.43-0.5,0.86-0.76,1.29V286h-0.38
	v-61.65h-0.37V148.04L408.53,148.04z M415.45,162.82c0.99,3.09,1.75,6.27,2.26,9.53v71.11h-0.37v23.42h-0.38v42.83
	c-0.23,1.03-0.48,2.05-0.76,3.07v-45.9h-0.38v-23.42h-0.37V162.82L415.45,162.82z M347.79,359.71c-0.25-0.03-0.51-0.06-0.76-0.09
	v-41.94h-0.38V192.22h-0.37v-73.63c0.75-0.09,1.5-0.17,2.26-0.24v73.87h-0.37v125.46h-0.38V359.71L347.79,359.71z M340.88,358.61
	c-0.25-0.05-0.51-0.11-0.76-0.17v-41.45h-0.38V193.36h-0.37v-73.5c0.75-0.18,1.5-0.35,2.26-0.5v74h-0.37v123.63h-0.38V358.61
	L340.88,358.61z M333.96,356.71c-0.25-0.09-0.51-0.18-0.76-0.27v-41.41h-0.38v-119.7h-0.37v-73.37c0.75-0.27,1.5-0.53,2.26-0.77
	v74.15h-0.37v119.7h-0.38V356.71L333.96,356.71z M327.04,353.91c-0.25-0.12-0.51-0.24-0.76-0.37v-41.39h-0.38V198.19h-0.37v-73.23
	c0.74-0.38,1.5-0.74,2.26-1.09v74.32h-0.37v113.96h-0.38V353.91L327.04,353.91z M320.13,350.09c-0.25-0.16-0.51-0.33-0.76-0.49
	v-41.37h-0.38V202.11h-0.37v-73.09c0.74-0.5,1.49-0.98,2.26-1.45v74.55h-0.37v106.12h-0.38V350.09L320.13,350.09z M313.21,345.03
	c-0.25-0.21-0.51-0.43-0.76-0.64v-41.37h-0.38v-95.68h-0.37v-72.93c0.74-0.66,1.49-1.3,2.26-1.92v74.86h-0.37v95.68h-0.38V345.03
	L313.21,345.03z M306.29,338.29c-0.26-0.29-0.51-0.58-0.76-0.88V296h-0.38v-81.65h-0.37v-72.74c0.73-0.89,1.48-1.75,2.26-2.6v75.35
	h-0.37V296h-0.38V338.29L306.29,338.29z M299.38,328.88c-0.26-0.43-0.51-0.86-0.76-1.29V286h-0.38v-61.65h-0.37v-72.46
	c0.71-1.31,1.46-2.59,2.26-3.84v76.3h-0.37V286h-0.38V328.88L299.38,328.88z M292.46,312.79c-0.28-1.01-0.53-2.04-0.76-3.07v-42.84
	h-0.38v-23.42h-0.37v-71.11c0.51-3.26,1.27-6.45,2.26-9.53v80.65h-0.37v23.42h-0.38V312.79L292.46,312.79z M299.63,404.25h-1.56
	v14.48l0.08,0.68l-9.39-15.16h-2.23v18.38h1.56v-14.79l-0.14-0.88h0.03l9.79,15.67h1.87V404.25L299.63,404.25z M370.6,404.25h-2.49
	l-6.48,15.75h-0.03l-6.48-15.75h-2.63l0.03,0.08l-0.06-0.08l-0.08,18.38h1.56l0.06-15.75l6.39,15.75h1.73l6.36-15.75h0.03
	l0.08,15.75h2.09L370.6,404.25L370.6,404.25z M392.87,413.47c0,5.29-2.01,8.09-5.63,8.09c-3.59,0-5.57-2.8-5.57-8.09
	c0-5.26,2.01-8.12,5.57-8.12C390.83,405.36,392.87,408.21,392.87,413.47L392.87,413.47z M395.16,413.47c0-5.83-2.94-9.47-7.92-9.47
	c-4.95,0-7.86,3.65-7.86,9.47c0,5.85,2.91,9.45,7.86,9.45C392.22,422.92,395.16,419.33,395.16,413.47L395.16,413.47z M408.04,405.5
	c2.6,0,3.96,1.44,3.96,4.47c0,3.48-1.39,4.58-3.71,4.58H406v-9.05H408.04L408.04,405.5z M408.29,404.25h-4.44v18.38H406v-6.82h2.8
	l4.21,6.82h2.46l-4.61-7.21c1.87-0.74,3.39-2.46,3.39-5.54C414.26,406.23,412,404.25,408.29,404.25L408.29,404.25z M434.3,421.28
	h-8.37v-7.3h7.1v-1.3h-7.1v-7.07h7.75v-1.36h-9.9v18.38h10.52V421.28L434.3,421.28z M324.82,411.16c0.89-0.64,1.56-1.25,2.01-1.84
	c0.58-0.77,0.88-1.61,0.88-2.52c0-0.68-0.21-1.24-0.62-1.7c-0.41-0.45-0.96-0.68-1.64-0.68c-0.77,0-1.37,0.25-1.78,0.76
	c-0.41,0.51-0.62,1.14-0.62,1.89c0,0.49,0.13,1.06,0.38,1.7C323.67,409.42,324.14,410.21,324.82,411.16L324.82,411.16z
	 M330.9,418.62l3.54,4.07c-0.49-0.04-0.85-0.07-1.07-0.08c-0.23-0.02-0.44-0.03-0.65-0.03l-1.61,0.09
	c-0.47-0.68-0.75-1.08-0.85-1.22c-0.23-0.32-0.54-0.71-0.93-1.16c-1.66,1.83-3.7,2.74-6.11,2.74c-1.56,0-2.85-0.43-3.86-1.29
	c-1.01-0.86-1.51-2-1.51-3.44c0-1.26,0.49-2.43,1.47-3.51c0.81-0.89,1.97-1.71,3.48-2.46l0.17-0.08c-0.64-0.96-1.07-1.65-1.27-2.06
	c-0.41-0.83-0.62-1.61-0.62-2.35c0-1.26,0.4-2.28,1.2-3.04c0.8-0.76,1.85-1.15,3.15-1.15c1.09,0,1.99,0.26,2.69,0.78
	c0.7,0.52,1.05,1.25,1.05,2.19c0,1.06-0.41,2.06-1.24,3c-0.55,0.62-1.41,1.33-2.6,2.12c1.15,1.47,2.31,2.94,3.48,4.41l1.5,1.7
	c0.53-0.76,1.11-1.67,1.74-2.74c0.63-1.07,1.17-2.02,1.63-2.86c0.11,0.19,0.26,0.38,0.44,0.58c0.18,0.2,0.39,0.39,0.64,0.58
	C333.43,415.39,332.16,417.13,330.9,418.62L330.9,418.62z M323.43,412.94l-0.23,0.14c-0.98,0.62-1.71,1.24-2.18,1.87
	c-0.6,0.79-0.91,1.7-0.91,2.72c0,1.19,0.4,2.17,1.2,2.96c0.8,0.78,1.79,1.17,2.96,1.17c0.75,0,1.53-0.19,2.32-0.57
	c0.79-0.38,1.51-0.89,2.15-1.53c-0.75-0.92-1.66-2.05-2.71-3.38C324.98,414.99,324.11,413.86,323.43,412.94L323.43,412.94z"/>
</svg>
