<?xml version="1.0" encoding="utf-8"?>
<!-- Generator: Adobe Illustrator 25.0.1, SVG Export Plug-In . SVG Version: 6.00 Build 0)  -->
<svg version="1.1" id="Слой_1" xmlns="http://www.w3.org/2000/svg" xmlns:xlink="http://www.w3.org/1999/xlink" x="0px" y="0px"
	 viewBox="0 0 841.89 595.28" style="enable-background:new 0 0 841.89 595.28;" xml:space="preserve">
<style type="text/css">
	.st0{fill:#FFFFFF;}
</style>
<g>
	<path class="st0" d="M581.31,201.48c-4.15-0.68-8.3-1.38-12.45-2.04c-6.26-1-12.51-2.06-18.79-2.93
		c-10.34-1.43-20.7-2.81-31.06-4.06c-6.42-0.78-12.87-1.35-19.31-1.92c-10.04-0.89-20.08-1.81-30.13-2.52
		c-8.32-0.59-16.65-0.91-24.98-1.35c-21.59-1.13-43.19-1.33-64.8-0.99c-15.55,0.25-31.1,0.95-46.63,2.06
		c-9.62,0.69-19.23,1.45-28.82,2.46c-12.55,1.31-25.06,2.93-37.52,4.92c-17.31,2.76-34.49,6.14-51.4,10.73
		c-15.29,4.15-30.38,8.91-44.5,16.27c-11.31,5.9-21.51,13.18-29.01,23.74c-3.2,4.51-5.4,9.35-5.01,15.06
		c0.09,1.28-0.18,2.5-1.53,3.13c-1.68,0.78-3.22,0.32-4.52-0.75c-3.77-3.11-5.55-7.24-5.86-12.04c-0.62-9.48,3.83-16.73,10.27-23.04
		c7.6-7.46,16.75-12.59,26.29-17.08c13.65-6.41,27.95-10.98,42.49-14.84c12.31-3.27,24.76-5.91,37.31-8.11
		c12.8-2.24,25.66-4.05,38.57-5.53c13.23-1.52,26.49-2.7,39.78-3.53c17.02-1.06,34.07-1.68,51.13-1.66
		c13.58,0.01,27.15-0.02,40.72,0.5c13.99,0.54,27.97,1.3,41.93,2.41c9.74,0.77,19.47,1.63,29.17,2.73
		c14.82,1.68,29.59,3.75,44.29,6.26c15.07,2.57,30.03,5.64,44.88,9.27c3.19,0.78,6.35,1.64,9.53,2.46
		C581.33,201.21,581.32,201.35,581.31,201.48z"/>
	<path class="st0" d="M221.17,310.47c5.44,0.9,10.76,1.8,16.08,2.64c6.26,0.98,12.52,2.01,18.81,2.83
		c10.97,1.45,21.95,2.89,32.95,4.08c9.89,1.07,19.82,1.87,29.74,2.68c8.37,0.68,16.75,1.33,25.14,1.78
		c9.88,0.53,19.78,0.82,29.67,1.24c15.25,0.64,30.51,0.56,45.77,0.37c14.63-0.19,29.25-0.73,43.84-1.77
		c8.75-0.62,17.52-1.16,26.25-2c10.15-0.98,20.28-2.15,30.39-3.52c12.5-1.7,24.96-3.68,37.32-6.18c21.2-4.3,42.13-9.57,62.2-17.83
		c11.51-4.73,22.29-10.68,31.49-19.2c3.98-3.69,7.56-7.73,10.32-12.45c2.11-3.61,3.46-7.4,3.26-11.66
		c-0.07-1.49-0.11-3.03,1.62-3.81c1.88-0.84,3.47-0.09,4.79,1.09c3.53,3.13,5.19,7.16,5.47,11.85c0.57,9.79-4.13,17.16-10.86,23.54
		c-8.42,7.98-18.52,13.32-29.01,17.99c-12.68,5.65-25.87,9.81-39.26,13.36c-13.82,3.67-27.81,6.55-41.91,8.89
		c-11.28,1.88-22.61,3.44-33.98,4.72c-14.41,1.62-28.85,2.84-43.33,3.69c-15.48,0.91-30.97,1.41-46.47,1.49
		c-14.08,0.07-28.15,0.01-42.22-0.51c-13.93-0.52-27.85-1.19-41.74-2.46c-7.37-0.67-14.77-1.11-22.12-1.93
		c-12.35-1.37-24.7-2.86-36.99-4.74c-11.73-1.8-23.43-3.78-35.06-6.14c-10.59-2.15-21.13-4.51-31.55-7.4
		C221.56,311.05,221.28,311.05,221.17,310.47z"/>
	<path class="st0" d="M468.13,267.35c-3.51,0-6.74,0.22-9.93-0.06c-2.82-0.25-5.07-1.95-6.25-4.51c-1.69-3.67-4.28-4.75-8.25-4.46
		c-5.39,0.39-10.82,0.13-16.24,0.08c-1.12-0.01-1.86,0.32-2.46,1.26c-0.83,1.31-1.8,2.53-2.69,3.81c-1.87,2.72-4.44,4.07-7.76,4.02
		c-1.73-0.02-3.46,0-5.19,0c-0.13-0.79,0.37-1.14,0.68-1.57c8.83-12.17,17.68-24.34,26.52-36.51c1.11-1.52,5.41-1.78,6.38-0.31
		C451.29,241.73,459.62,254.4,468.13,267.35z M437.45,253.24c0,0,0-0.01,0-0.01c2.17,0,4.35-0.03,6.52,0.01
		c1.05,0.02,1.61-0.09,0.82-1.27c-2.05-3.03-4.07-6.08-6.06-9.15c-0.53-0.81-0.9-0.85-1.47-0.06c-2.24,3.13-4.5,6.24-6.77,9.34
		c-0.68,0.92-0.33,1.15,0.63,1.14C433.23,253.23,435.34,253.24,437.45,253.24z"/>
	<path class="st0" d="M245.71,267.45c3.27-4.51,6.3-8.68,9.31-12.84c6.06-8.36,12.12-16.72,18.19-25.08
		c1.41-1.94,5.55-1.94,6.84,0.02c8.08,12.25,16.14,24.51,24.21,36.78c0.16,0.25,0.29,0.53,0.63,1.16c-4.12-0.26-8,0.62-11.79-0.73
		c-2.04-0.73-3.53-2.23-4.43-4.09c-1.66-3.42-4.05-4.66-7.94-4.37c-5.45,0.41-10.96,0.13-16.44,0.08c-1.11-0.01-1.86,0.27-2.47,1.23
		c-0.98,1.51-2.07,2.95-3.15,4.4c-1.67,2.25-3.94,3.37-6.72,3.44C250.03,267.49,248.1,267.45,245.71,267.45z M266.48,253.24
		c5.22,0,9.93-0.01,14.63,0.01c1.03,0,1.01-0.42,0.55-1.11c-2.09-3.15-4.18-6.3-6.25-9.46c-0.42-0.64-0.79-0.7-1.25-0.06
		C271.7,246.02,269.24,249.42,266.48,253.24z"/>
	<path class="st0" d="M594.47,237.14c-2.89,0.04-5.37,0.2-7.99-1.4c-4.42-2.69-9.42-3.5-14.54-1.88c-2.07,0.66-4.02,1.67-4.19,4.2
		c-0.17,2.5,1.35,4.02,3.43,5.07c3.12,1.57,6.62,1.6,9.94,2.35c3.22,0.73,6.4,1.59,9.23,3.37c6.53,4.1,6.46,11.82-0.28,15.62
		c-7,3.95-14.58,4.24-22.28,2.73c-4.45-0.87-8.55-2.63-12.03-5.63c-0.43-0.37-1.33-0.78-0.49-1.38c0.86-0.61,1.14-2.58,2.81-1.55
		c5.41,3.32,11.24,4.48,17.51,3.63c1.5-0.2,2.9-0.68,4.16-1.52c3.29-2.19,3.31-6.49,0.03-8.67c-2.34-1.55-5.02-2.1-7.72-2.57
		c-4.14-0.72-8.11-1.89-11.56-4.43c-4.8-3.54-4.98-8.54-0.36-12.34c4.52-3.72,9.94-4.71,15.58-4.62c6.58,0.1,12.45,2.18,17.23,6.87
		C593.54,235.53,594.09,236.1,594.47,237.14z"/>
	<path class="st0" d="M358.73,237.12c-2.91,0.19-5.36-0.22-8.08-1.5c-8.15-3.84-16.57-3.73-24.5,0.83
		c-5.31,3.06-7.38,9.01-5.89,15.24c1.43,6,5.72,9.88,11.79,10.56c8.09,0.9,15.84-0.5,23.32-3.58c1.04-0.43,3.36,0.71,3.38,1.76
		c0.01,0.61-0.65,0.82-1.09,1.12c-4.89,3.43-10.38,5.31-16.25,6.06c-8.85,1.13-17.25-0.14-24.79-5.23
		c-3.88-2.62-6.83-6.03-7.97-10.66c-1.56-6.32,0.68-11.53,5.31-15.75c6.64-6.05,14.74-8,23.48-7.71c7.61,0.25,14.55,2.44,20.36,7.58
		C358.16,236.15,358.61,236.41,358.73,237.12z"/>
	<path class="st0" d="M410.16,228.22c-1.46,3.66-3.76,5.71-7.45,6.01c-2.42,0.19-4.85,0.3-7.26-0.02c-1.7-0.22-2.39,0.22-2.37,2.15
		c0.1,9.45,0.05,18.9,0.04,28.36c-0.01,3.28,0.18,2.71-2.83,2.75c-2.68,0.03-5.35-0.06-8.03,0.03c-1.35,0.05-1.65-0.44-1.64-1.71
		c0.05-9.51,0.04-19.03,0.02-28.54c-0.01-3.5,0.35-2.99-2.93-3.02c-3.36-0.03-6.72-0.06-10.08,0.02c-1.23,0.03-1.57-0.36-1.59-1.58
		c-0.06-4.45-0.1-4.45,4.3-4.45c12.51,0,25.02,0,37.53,0C408.53,228.22,409.21,228.22,410.16,228.22z"/>
	<path class="st0" d="M519.67,261.46c-0.61,3.2-3.63,5.93-6.9,5.95c-10.7,0.09-21.41,0.04-32.11,0.07c-1,0-1.26-0.39-1.26-1.33
		c0.02-12.19,0.03-24.38,0-36.57c0-1.08,0.39-1.39,1.41-1.37c3.05,0.05,6.1,0.1,9.15-0.02c1.59-0.07,2.11,0.32,2.09,2.02
		c-0.09,9.7-0.01,19.4-0.08,29.1c-0.01,1.65,0.35,2.22,2.13,2.19c7.78-0.11,15.56-0.05,23.34-0.05
		C518.17,261.46,518.9,261.46,519.67,261.46z"/>
	<path class="st0" d="M200.89,247.72c0-5.98,0.03-11.95-0.03-17.93c-0.01-1.2,0.3-1.63,1.55-1.6c2.99,0.08,5.98,0.11,8.97-0.01
		c1.6-0.07,2.13,0.34,2.11,2.03c-0.08,9.71,0.01,19.42-0.08,29.13c-0.02,1.77,0.53,2.16,2.2,2.14c7.97-0.08,15.95-0.04,23.92-0.03
		c1.87,0,2.02,0.26,1.07,1.82c-1.64,2.69-3.98,4.19-7.22,4.18c-10.22-0.01-20.43-0.03-30.65,0.03c-1.42,0.01-1.91-0.33-1.88-1.84
		C200.95,259.67,200.89,253.7,200.89,247.72z"/>
	<path class="st0" d="M530.4,247.84c0-5.97,0.05-11.95-0.03-17.92c-0.02-1.58,0.48-1.77,1.83-1.29c2.6,0.93,5.05,2.12,7.11,3.99
		c2.31,2.09,3.65,4.55,3.6,7.83c-0.12,8.34-0.09,16.68,0.01,25.02c0.02,1.7-0.48,2.1-2.09,2.03c-2.86-0.13-5.73-0.12-8.59,0
		c-1.52,0.06-1.88-0.51-1.86-1.92C530.44,259.67,530.4,253.76,530.4,247.84z"/>
	<path class="st0" d="M559.31,285.34c0,2.36-0.05,4.72,0.02,7.08c0.04,1.15-0.37,1.73-1.48,1.42c-1-0.28-2.83,1.06-2.89-1.11
		c-0.12-4.6-0.04-9.21-0.03-13.81c0-0.29,0.07-0.67,0.25-0.84c0.75-0.71,4.65-0.02,5.23,0.9c1.57,2.51,3.13,5.03,5.11,7.47
		c0-2.2,0.1-4.41-0.03-6.6c-0.09-1.58,0.43-2.09,1.99-1.97c1.3,0.11,2.55-0.29,2.45,1.88c-0.18,4.1-0.12,8.21-0.04,12.31
		c0.02,1.34-0.3,1.75-1.73,1.86c-2.22,0.17-3.55-0.55-4.55-2.55c-1.09-2.18-2.54-4.19-3.83-6.27
		C559.63,285.19,559.47,285.26,559.31,285.34z"/>
	<path class="st0" d="M483.07,289.5c0,0.73,0.05,1.47-0.01,2.2c-0.06,0.71,0.4,1.83-0.39,2.03c-1.17,0.29-2.47,0.15-3.7,0.03
		c-0.48-0.05-0.35-0.72-0.35-1.14c-0.01-4.48,0.01-8.95-0.03-13.43c-0.01-0.95,0.25-1.34,1.26-1.31c2.11,0.07,4.23-0.02,6.35,0.06
		c2.28,0.09,3.8,1.3,4.4,3.35c0.62,2.12,0.07,4.33-1.75,5.45c-1.26,0.78-1.07,1.29-0.34,2.24c1.06,1.37,2.01,2.83,3,4.27
		c0.06,0.09,0.05,0.23,0.1,0.52c-1.77,0.08-3.76,0.72-5.16-0.27c-1.31-0.92-1.99-2.74-2.94-4.16
		C483.36,289.39,483.22,289.44,483.07,289.5z M484.31,281.49c-1.41-0.16-1.29,0.83-1.23,1.68c0.06,0.8-0.45,1.99,1.17,1.89
		c1.23-0.08,2.01-0.63,2.01-1.9C486.25,281.93,485.43,281.48,484.31,281.49z"/>
	<path class="st0" d="M454.56,287.85c0,1.52-0.06,3.04,0.02,4.56c0.06,1.15-0.35,1.48-1.49,1.49c-3.07,0.02-3.06,0.07-3.05-2.94
		c0.01-3.48-0.01-6.96,0-10.44c0-2.61,0.01-2.52,2.58-2.65c1.56-0.08,2.13,0.37,1.96,1.95c-0.13,1.17-0.02,2.36,0,3.54
		c0,0.12,0.06,0.24,0.14,0.57c1.31-1.07,2.14-2.42,2.9-3.74c1.06-1.83,2.43-2.65,4.53-2.3c0.65,0.11,1.33,0.02,2.46,0.02
		c-1.83,2.34-3.37,4.41-5.03,6.37c-0.83,0.98-0.89,1.65-0.04,2.68c1.75,2.13,3.34,4.39,5.23,6.91c-1.91,0-3.38-0.03-4.85,0.01
		c-0.78,0.02-1.07-0.5-1.42-1.01c-1.17-1.71-2.35-3.42-3.52-5.13C454.84,287.78,454.7,287.81,454.56,287.85z"/>
	<path class="st0" d="M420.69,283.74c0-0.93,0-1.86,0-2.8c0-3.26,0-3.22,3.19-3.08c0.98,0.04,1.29,0.36,1.28,1.32
		c-0.04,2.67-0.01,5.34-0.01,8.01c0,1.16,0.21,2.27,1.27,2.93c1.47,0.92,3.32,0.08,3.67-1.75c0.54-2.76,0.12-5.57,0.27-8.36
		c0.03-0.69-0.42-1.79,0.43-1.99c1.17-0.27,2.47-0.14,3.69,0c0.46,0.05,0.31,0.74,0.31,1.16c0.01,2.86,0.08,5.72-0.03,8.57
		c-0.17,4.5-2.66,6.65-7.46,6.57c-4.21-0.07-6.57-2.51-6.61-6.85C420.68,286.23,420.69,284.98,420.69,283.74z"/>
	<path class="st0" d="M512.75,278c2.28-0.73,3.12,0.46,3.75,2.49c1.23,3.96,2.7,7.85,4.15,11.74c0.45,1.21,0.47,1.85-1.09,1.65
		c-0.61-0.08-1.25-0.06-1.86,0c-0.94,0.09-1.58-0.16-1.7-1.19c-0.16-1.35-1-1.68-2.23-1.56c-0.86,0.08-1.74,0.03-2.61,0
		c-0.7-0.02-1.27,0.15-1.37,0.92c-0.23,1.69-1.29,1.9-2.77,1.84c-2.68-0.11-2.69-0.03-1.81-2.48c1.29-3.62,2.72-7.19,3.85-10.86
		C509.67,278.56,510.41,277.27,512.75,278z M512.76,281.92c-0.54,1.71-0.89,2.96-1.35,4.16c-0.47,1.24-0.1,1.5,1.18,1.57
		c1.73,0.1,2.04-0.46,1.45-1.95C513.61,284.62,513.29,283.49,512.76,281.92z"/>
	<path class="st0" d="M585.37,285.75c0-2.11,0.04-4.23-0.02-6.34c-0.03-1.07,0.26-1.58,1.46-1.53c2.24,0.08,4.48,0.1,6.71,0
		c1.6-0.07,1.41,0.92,1.44,1.93c0.03,1.08,0.02,2.02-1.51,1.84c-0.8-0.09-1.62,0.02-2.42-0.02c-0.92-0.05-1.15,0.41-1.16,1.24
		c-0.01,0.85,0.38,1.08,1.13,1.04c0.5-0.03,1.01,0.07,1.49-0.02c1.77-0.32,2.04,0.55,2,2.08c-0.03,1.22-0.38,1.69-1.6,1.57
		c-0.68-0.07-1.37,0.02-2.05-0.01c-0.91-0.04-0.97,0.52-0.97,1.21c-0.01,0.71,0.11,1.23,0.99,1.19c0.68-0.03,1.38,0.09,2.05-0.01
		c1.68-0.25,2.13,0.45,2.1,2.07c-0.03,1.43-0.4,1.99-1.91,1.9c-2.04-0.12-4.1-0.1-6.15-0.01c-1.25,0.05-1.63-0.43-1.6-1.61
		C585.42,290.1,585.37,287.93,585.37,285.75C585.37,285.75,585.37,285.75,585.37,285.75z"/>
	<path class="st0" d="M539.52,285.93c0,2.17-0.05,4.35,0.02,6.51c0.04,1.17-0.39,1.59-1.51,1.43c-0.3-0.04-0.63-0.05-0.93,0
		c-1.6,0.26-2.13-0.3-2.08-2c0.14-4.09,0.11-8.19,0.01-12.28c-0.04-1.43,0.42-1.78,1.78-1.74c3.2,0.11,2.65-0.21,2.7,2.67
		c0.02,0.93,0,1.86,0,2.79C539.52,284.19,539.52,285.06,539.52,285.93z"/>
</g>
</svg>
