<?xml version="1.0" encoding="utf-8"?>
<!-- Generator: Adobe Illustrator 25.0.1, SVG Export Plug-In . SVG Version: 6.00 Build 0)  -->
<svg version="1.1" id="Слой_1" xmlns="http://www.w3.org/2000/svg" xmlns:xlink="http://www.w3.org/1999/xlink" x="0px" y="0px"
	 viewBox="0 0 841.89 595.28" style="enable-background:new 0 0 841.89 595.28;" xml:space="preserve">
<style type="text/css">
	.st0{fill:#FFFFFF;}
</style>
<g>
	<path class="st0" d="M312.85,213.28c0-16.3-0.04-32.59,0.01-48.89c0.06-23.34,18.47-41.65,41.94-41.68
		c32.15-0.04,64.3-0.02,96.45,0c24.41,0.01,42.95,17.75,43.11,42.22c0.22,33.57,0.02,67.15-0.5,100.72
		c-0.32,20.9-18.9,38.24-40.9,38.42c-32.98,0.26-65.97,0.29-98.95-0.01c-23.43-0.22-41.1-18.55-41.14-41.9
		c-0.03-16.3,0-32.59,0-48.89C312.87,213.28,312.86,213.28,312.85,213.28z M368.89,186.69c-2.33,0-4.66-0.04-6.99,0.01
		c-8.07,0.17-14.3,4.59-16.72,11.86c-2.46,7.36-0.25,14.47,6.22,19.47c3.55,2.75,7.12,5.52,10.93,7.86
		c3.72,2.29,4.89,4.81,3.06,9.02c-1.72,3.94-2.8,8.16-4.08,12.29c-2.5,8.09-0.3,15.32,6.01,19.95c6.43,4.72,14.18,4.56,21.31-0.49
		c3.53-2.5,7.17-4.88,10.47-7.66c3.03-2.56,5.45-2.89,8.66-0.14c3.77,3.24,7.94,6.05,12.12,8.78c6.43,4.19,14.08,3.82,20.07-0.67
		c5.82-4.37,8.16-11.29,6.06-18.63c-1.42-4.94-3.04-9.84-4.78-14.68c-1.06-2.94-0.6-4.96,2.12-6.77c4.29-2.85,8.45-5.92,12.51-9.09
		c6.35-4.95,8.48-12.25,5.92-19.56c-2.45-6.98-8.68-11.41-16.45-11.54c-5.16-0.09-10.33-0.11-15.49,0.02
		c-2.78,0.07-4.27-1.04-5.07-3.69c-1.53-5.09-3.17-10.15-4.97-15.14c-2.58-7.16-8.52-11.34-15.92-11.46
		c-7.65-0.13-13.8,4-16.59,11.26c-0.95,2.48-1.56,5.08-2.46,7.58C379.81,189.12,383.56,186.37,368.89,186.69z"/>
	<path class="st0" d="M484.73,374.83c5.96-0.77,10.53-3.46,14.84-6.54c3.28-2.34,5.37-1.44,7.37,1.61
		c3.45,5.25,3.3,10.17-0.84,15.01c-5.52,6.46-10.82,13.06-14.69,20.69c-2.08,4.09-3.15,8.4-2.84,12.98
		c0.39,5.78,4.46,7.97,9.35,4.75c6.78-4.48,10.99-11.13,13.65-18.59c4.96-13.89,12.03-26.61,20.49-38.62c1-1.41,1.77-3.59,4.09-3.02
		c1.98,0.49,2.56,2.45,3.18,4.17c2.08,5.78-0.35,10.8-3.01,15.61c-3.86,6.97-8.3,13.63-11.61,20.91c-1.93,4.24-3.97,8.42-4.6,13.11
		c-0.28,2.09-0.14,4.02,1.74,5.34c1.83,1.29,3.59,0.33,5.16-0.54c4.18-2.31,7.08-5.99,9.9-9.72c8.57-11.34,14.17-24.42,21.54-36.46
		c1.91-3.12,3.65-6.33,5.52-9.47c0.92-1.53,1.69-3.53,4.01-3.07c2.19,0.43,2.57,2.57,2.94,4.25c1.16,5.27-0.28,10.16-2.63,14.89
		c-6.34,12.79-12.6,25.63-18.87,38.46c-0.49,1-0.8,2.08-1.48,3.87c6.04-2.55,10.51-6.11,14.78-9.9c4.23-3.76,8.22-7.78,11.63-12.33
		c0.71-0.95,1.39-2.71,3.05-1.77c1.37,0.77,1.04,2.41,0.78,3.64c-0.83,3.81-2.86,7.04-5.39,9.96c-6.59,7.61-15.14,12.41-24.21,16.3
		c-3.18,1.36-4.92,3.44-6.25,6.52c-5.1,11.9-10.16,23.85-17.52,34.62c-3.11,4.55-6.58,8.82-11.32,11.82
		c-5.77,3.65-9.24,2.8-12.99-2.78c-4.93-7.36-4.93-14.88-1.3-22.71c5.59-12.06,15.62-19.37,27.36-24.26
		c5.54-2.31,7.84-6.02,9.33-11.91c-4.54,3.34-8.65,6.51-13.88,6.78c-5.35,0.28-9.87-1.41-11.94-7.06c-2.58,1.91-4.68,3.8-7.08,5.18
		c-6.21,3.58-12.76,4.35-18.79-0.04c-5.86-4.27-6.27-10.6-4.83-17.13c2.13-9.69,7.88-17.48,13.7-25.19c1.27-1.69,2.64-3.31,4.78-6
		c-5.53,2.45-9.89,4.38-14.75,4.46c-1.45,0.02-2.38,0.7-3.23,1.93c-5.75,8.35-12.72,15.76-18.18,24.39
		c-8.65,13.67-21.08,20.96-37.76,19.51c-5.58-0.49-10.35-2.79-13.42-7.59c-1.74-2.73-2.84-2.85-5.11-0.51
		c-4.25,4.37-9.25,7.6-15.6,8.09c-7.86,0.6-12.66-2.26-15.81-9.41c-0.39-0.88-0.8-1.76-1.25-2.76
		c-13.07,16.32-40.82,17.12-50.27,0.49c-2.62,2.81-5.09,5.72-8.41,7.65c-1.72,1-3.44,2.07-5.3,2.76c-14,5.23-22.69-1.79-20.25-16.46
		c1.35-8.14,5.29-15.35,8.94-22.62c3.66-7.28,7.68-14.36,12.31-21.08c0.92-1.34,1.83-3.06,3.87-2.52c1.85,0.49,2.28,2.24,2.71,3.87
		c1.46,5.47,0.14,10.52-2.38,15.37c-4.05,7.82-8.12,15.63-12.16,23.45c-1.77,3.42-3.08,7.04-3.41,10.87
		c-0.41,4.77,2.66,7.12,6.85,4.87c7.63-4.1,14.03-9.43,15.06-18.95c0.21-1.95,0.77-3.95,1.58-5.74c0.95-2.09,2.21-4.43,4.86-4.47
		c2.59-0.04,0.99,3.25,3.12,4.41c6.38-10.31,15.24-19.11,18.63-31.36c1.39-5,4.54-8.98,9.99-10.13c3.1-0.66,5.66,0.93,3.73,4.06
		c-5.88,9.57-3.18,19.67-2.61,29.64c0.42,7.29,1.31,14.55-0.12,21.85c-0.57,2.92-2.17,5.4-3.44,8.9
		c7.33-3.76,12.09-9.03,15.45-15.35c6.86-12.91,12.36-26.5,19.57-39.23c0.98-1.73,1.05-2.71-1.24-3.02
		c-1.14-0.15-2.3-0.48-3.36-0.92c-2.36-0.99-5.13-2.49-4.66-5.12c0.42-2.33,3.49-1.31,5.29-1.16c7.23,0.6,12.23-1.84,15.1-8.9
		c1.54-3.79,4.25-7.12,6.52-10.6c0.8-1.22,1.67-2.71,3.47-2.41c2.18,0.37,2,2.4,2.36,3.94c0.89,3.87,0.2,7.63-1.22,11.23
		c-1.01,2.56-1.31,4.41,2.34,4.64c1.09,0.07,2.18,0.81,3.17,1.4c1.74,1.03,3.75,2.32,3.22,4.55c-0.59,2.52-3.02,1.46-4.66,1.32
		c-6.79-0.61-11.31,1.54-14.58,8.18c-5.5,11.15-12.3,21.66-17.33,33.08c-2.08,4.73-3.77,9.65-2.74,14.95
		c1.15,5.93,5.68,8.3,10.7,4.94c6.63-4.44,12.1-9.48,13-18.71c1.55-15.86,9.9-28.41,22.85-37.56c9.86-6.97,19.59-4.68,26.26,5.36
		c1.47,2.21,1.89,4.62,1.59,7.12c-1.28,10.76-7.12,18.51-16.59,23.36c-5.95,3.05-12.05,2.06-17.56-1.55
		c-2.03-1.33-2.94-1.08-3.33,1.19c-0.43,2.45-0.99,4.91-1.09,7.38c-0.54,13,5.94,17.73,18.26,13.22c6.71-2.46,11.99-6.8,16.37-12.55
		c6.35-8.33,13.13-16.34,18.21-25.57c0.79-1.43,1.58-2.47,0.55-4.46c-3.76-7.29,2.82-21.33,10.88-23.77
		c3.07-0.93,4.38,0.76,4.77,3.43c0.52,3.56-0.74,6.9-1.53,10.29C485.76,371.42,485.26,372.95,484.73,374.83z M346.97,383.63
		c-4.66,7.15-7.91,13.58-12.52,18.81c-4.98,5.65-3.35,10.41-0.25,15.65c1.58,2.68,3.67,4.98,7.04,4.74c3.7-0.27,4.72-3.51,5.35-6.36
		C348.93,406.02,347.65,395.55,346.97,383.63z M428.9,396.62c1.4-0.1,3.67-1.13,5.58-2.76c5.5-4.68,9.77-10.33,12.51-17.03
		c0.86-2.09,2.23-4.67-0.04-6.34c-1.9-1.39-4.14,0.14-5.93,1.32c-7.38,4.85-12.68,11.55-16.85,19.21
		C421.83,395.32,422.77,396.78,428.9,396.62z M529.02,439.05c-3.37,0.94-5.29,2.81-7.24,4.5c-8.6,7.46-15.21,16.24-17.72,27.59
		c-0.34,1.55-0.77,3.58,1.01,4.41c1.62,0.76,2.7-0.95,3.64-2.03C517.39,463.37,523.49,451.73,529.02,439.05z"/>
	<path class="st0" d="M240.7,416.6c8.12-1.64,15.34-3.43,22.75-4.15c5.51-0.53,10.78-0.19,14.33,4.85c2.48,3.52,1.86,4.68-2.38,5.09
		c-10.29,1-20.35,3.25-30.39,5.62c-3.45,0.81-7.37,2.64-10.2-1c-3.37-4.33-6.52-8.84-4.24-15c4.87-13.11,11.39-25.44,17.87-37.77
		c7.8-14.84,15.68-29.65,25.05-43.6c1.11-1.65,1.9-4.58,4.52-3.7c2.16,0.73,2.33,3.34,2.52,5.56c0.58,6.59-1.64,12.42-4.7,18.04
		c-10.48,19.23-21.61,38.12-31.26,57.8C243.35,410.85,242.21,413.38,240.7,416.6z"/>
	<path class="st0" d="M328.38,357.02c0.1,3.82-0.77,7.13-5.27,7.61c-4,0.43-7.76-4.14-7.87-9.22c-0.1-4.55,2.31-7.92,5.7-7.95
		C325,347.43,328.31,351.67,328.38,357.02z"/>
	<path class="st0" d="M371.6,200.26c2.33,0,4.67,0.05,7-0.01c7.79-0.21,13.25-4.04,15.91-11.39c1.64-4.53,2.99-9.17,4.47-13.75
		c0.74-2.3,1.62-4.46,4.59-4.46c3.06,0,3.72,2.38,4.45,4.59c1.36,4.1,2.59,8.25,3.98,12.34c2.97,8.7,8.4,12.6,17.54,12.68
		c3.66,0.03,7.33,0.04,10.99,0.01c2.64-0.02,4.54,1.1,5.39,3.6c0.87,2.55-0.22,4.53-2.29,6.04c-3.22,2.36-6.5,4.65-9.68,7.07
		c-6.35,4.81-8.49,11.33-6.22,18.98c1.09,3.66,2.29,7.29,3.51,10.92c0.88,2.6,0.87,5.03-1.59,6.68c-2.37,1.59-4.75,0.99-6.95-0.61
		c-3.1-2.25-6.16-4.56-9.33-6.7c-6.68-4.51-13.34-4.46-19.99,0.14c-3.56,2.46-7.02,5.07-10.53,7.59c-2.15,1.54-4.29,3.61-7.12,1.47
		c-2.62-1.98-1.32-4.49-0.58-6.84c1.36-4.28,2.82-8.52,4.13-12.81c2.24-7.33,0.12-13.96-5.98-18.61c-3.57-2.72-7.28-5.27-10.9-7.94
		c-2.12-1.56-4.79-2.94-3.63-6.3c1.07-3.09,3.84-2.67,6.32-2.69C367.27,200.25,369.43,200.27,371.6,200.26z"/>
</g>
</svg>
