<?xml version="1.0" encoding="utf-8"?>
<!-- Generator: Adobe Illustrator 25.0.1, SVG Export Plug-In . SVG Version: 6.00 Build 0)  -->
<svg version="1.1" id="Слой_1" xmlns="http://www.w3.org/2000/svg" xmlns:xlink="http://www.w3.org/1999/xlink" x="0px" y="0px"
	 viewBox="0 0 841.89 595.28" style="enable-background:new 0 0 841.89 595.28;" xml:space="preserve">
<style type="text/css">
	.st0{fill:#FFFFFF;}
</style>
<g>
	<path class="st0" d="M337.86,298.93c7.41,6.55,15.75,9.11,26.74,6.86c-5.22-2.47-9.36-4.16-13.24-6.31
		c-16.58-9.15-28.65-21.74-32.5-41.11c-4.26-21.38,3.1-34.13,24.11-39.68c17.14-4.54,34.16-3,51.08,1.99
		c-7.87,1.91-15.79,3.46-23.43,6.05c-11.71,3.98-23.1,8.61-32.58,16.81c-8.83,7.63-8.84,9.02-0.6,16.82
		c13.53,12.82,29.5,21.35,47.24,26.93c4.34,1.37,5.54-1.43,6.71-3.9c1.12-2.36-1.75-1.84-2.79-2.18
		c-15.75-5.1-29.74-13.22-42.21-24.01c-0.62-0.54-1.2-1.14-1.69-1.98c9.23,4.06,18.65,7.5,28.39,10.05
		c7.57,1.98,15.22,3.52,23.03,4.2c2.67,0.23,4.11-0.55,5.32-3.13c6.59-14.05,11.22-28.7,14.44-43.84c0.76-3.57,0.33-5.89-3.83-7.36
		c-20.01-7.09-40.44-11.18-61.73-9.01c-9.52,0.97-18.65,3.58-25.89,10.83c1.81-11.53,19.05-27.45,35.77-33.25
		c14.43-5.01,19.92-5.37,50.36-3.21c-8.79-9.28-19.06-9.99-30.41-7.37c3.48-3.33,9.01-5.2,16.89-5.88
		c21.31-1.82,39.49,8.94,47.88,28.54c0.79,1.85,2.17,2.85,3.43,4.11c16.97,17.06,22.23,37.22,15.77,60.31
		c-4.44,15.86-15.68,23.78-31.61,25.2c-4.92,0.44-7.36,2.8-9.52,7.14c7.48,0.57,14.33-1.15,22.34-2.82
		c-6.19,6.29-12.71,10.26-19.58,13.63c-5.53,2.72-11.35,4.8-17.5,5.65c-4.18,0.58-7.96,2.06-11.77,3.82
		c-14.22,6.57-28.71,8.17-43.38,1.38C346.01,310.93,341.45,306.39,337.86,298.93z M447.46,238.11c-1.58,7.8-3.88,15.09-6.47,22.59
		c15.84-4.68,18.04-11.58,7.52-22.15C448.41,238.44,448.22,238.42,447.46,238.11z"/>
	<path class="st0" d="M357.21,356.41c-2.16,0-4.32,0.09-6.47-0.02c-5.74-0.28-10.45-4.35-11.56-9.87
		c-1.12-5.59,1.54-11.31,6.8-13.58c6.8-2.93,13.85-3.21,20.82-0.5c6.32,2.46,9.2,7.74,8.04,14.22c-1.01,5.66-6.17,9.65-12.65,9.75
		C360.53,356.44,358.87,356.42,357.21,356.41z M356.74,351.42c6.35,0.03,9.68-2.5,9.69-7.37c0.02-4.75-3.14-7.29-9.15-7.36
		c-6.17-0.07-9.82,2.64-9.83,7.32C347.44,348.57,350.99,351.4,356.74,351.42z"/>
	<path class="st0" d="M324.18,323.64c5.17,0,10.33,0.06,15.49-0.02c2.15-0.03,3.39,0.37,3.39,2.97c0,2.58-1.21,2.93-3.37,2.99
		c-3.61,0.11-8.37-1.64-10.56,0.77c-2.51,2.77-0.66,7.62-0.83,11.56c-0.16,3.65-0.21,7.32,0.01,10.96c0.24,3.95-1.8,4.13-4.63,3.1
		c-3.64-1.33-5.67-3.84-5.61-7.9c0.08-4.98-0.13-9.97,0.07-14.94c0.12-2.87-0.9-3.89-3.71-3.62c-1.82,0.18-3.66,0.04-5.49,0.03
		c-1.96-0.01-3.93,0.45-3.99-2.8c-0.07-3.53,2.07-3.09,4.23-3.09C314.18,323.64,319.18,323.64,324.18,323.64z"/>
	<path class="st0" d="M442.3,356.35c-2.38,0.32-4.43,0.1-5.01-2.71c-0.43-2.12-1.97-2.34-3.77-2.32c-4.33,0.05-8.66,0.1-12.98-0.02
		c-2.16-0.06-3.47,0.65-4.03,2.76c-0.34,1.3-0.8,2.58-2.6,2.34c-1.91-0.26-4.41,0.96-5.62-0.68c-1.07-1.45,0.48-3.5,1.24-5.07
		c3.27-6.8,7.88-12.66,13.41-17.78c2.37-2.2,5.16-2.61,7.63-0.39c6.24,5.59,11.37,12.04,14.67,19.83
		C446.6,355.53,445.99,357.04,442.3,356.35z M420.87,345.86c4.42,0.55,8.1,0.68,12.3,0.04c-1.87-3.08-3.35-6.86-6.25-6.84
		C424.36,339.07,422.77,342.8,420.87,345.86z"/>
	<path class="st0" d="M393.1,331.39c4.15,0,8.29,0.03,12.44-0.01c1.85-0.02,3.19,0.21,3.21,2.61c0.01,2.29-1.12,2.64-3.06,2.78
		c-7.93,0.6-7.92,0.65-7.92,8.82c0,1.82-0.2,3.66,0.04,5.45c0.6,4.55-1.49,5.76-5.72,5.46c-2.81-0.19-3.84-1.2-3.75-3.9
		c0.11-3.8-0.14-7.62,0.11-11.4c0.22-3.39-0.88-4.95-4.44-4.49c-1.3,0.17-2.65-0.04-3.98,0.03c-2.01,0.1-2.52-0.96-2.53-2.75
		c-0.01-1.91,0.78-2.75,2.68-2.6c0.16,0.01,0.33,0,0.5,0C384.81,331.39,388.96,331.39,393.1,331.39z"/>
	<path class="st0" d="M468.34,356.42c-16.77,0-18.11-1.29-17.98-18.17c0.02-2.38-1.49-5.55,2.13-6.89c4.28-1.58,6.94,0.3,7.04,4.95
		c0.05,2.65,0.19,5.32,0,7.95c-0.34,4.76,2.16,6.64,6.51,6.76c3.32,0.09,6.65,0.1,9.98,0.05c1.99-0.03,3.02,0.49,3,2.78
		c-0.02,2.45-1.36,2.61-3.19,2.57C473.33,356.37,470.84,356.41,468.34,356.42z"/>
</g>
</svg>
