<?xml version="1.0" encoding="utf-8"?>
<!-- Generator: Adobe Illustrator 25.0.1, SVG Export Plug-In . SVG Version: 6.00 Build 0)  -->
<svg version="1.1" id="Слой_1" xmlns="http://www.w3.org/2000/svg" xmlns:xlink="http://www.w3.org/1999/xlink" x="0px" y="0px"
	 viewBox="0 0 841.89 595.28" style="enable-background:new 0 0 841.89 595.28;" xml:space="preserve">
<style type="text/css">
	.st0{fill:#FFFFFF;}
</style>
<g>
	<polyline class="st0" points="295.36,329.8 295.39,300.39 283.12,300.39 283.11,291.28 319.25,291.28 319.25,300.39 307.06,300.39 
		307.07,329.8 295.36,329.8 	"/>
	<path class="st0" d="M334.65,320.56c1.65,1.55,4.04,2.32,7.15,2.32c2.23,0,4.15-0.55,5.75-1.61c1.61-1.07,2.58-2.21,2.96-3.39h9.72
		c-1.55,4.62-3.94,7.91-7.15,9.9c-3.22,1.99-7.12,2.98-11.66,2.98c-3.17,0-6.02-0.48-8.55-1.45c-2.55-0.98-4.7-2.34-6.46-4.14
		c-1.77-1.78-3.11-3.92-4.09-6.41c-0.96-2.48-1.44-5.22-1.44-8.19c0-2.88,0.49-5.57,1.47-8.05c0.99-2.49,2.39-4.65,4.21-6.45
		c1.81-1.81,3.98-3.23,6.49-4.27c2.51-1.05,5.29-1.57,8.36-1.57c3.41,0,6.39,0.63,8.93,1.9c2.54,1.26,4.63,2.96,6.26,5.1
		c1.63,2.13,2.81,4.56,3.54,7.29c0.73,2.74,0.98,5.59,0.77,8.57h-28.99C332.09,316.54,332.99,319.02,334.65,320.56 M347.13,300.3
		c-1.33-1.39-3.34-2.09-6.03-2.09c-1.77,0-3.24,0.29-4.39,0.87c-1.17,0.56-2.11,1.28-2.8,2.11c-0.7,0.84-1.2,1.74-1.47,2.68
		c-0.3,0.95-0.46,1.8-0.51,2.54h17.96C349.36,303.73,348.44,301.7,347.13,300.3"/>
	<path class="st0" d="M413.1,320.56c1.66,1.55,4.05,2.32,7.16,2.32c2.23,0,4.15-0.55,5.75-1.61c1.6-1.07,2.59-2.21,2.95-3.39h9.72
		c-1.55,4.62-3.94,7.91-7.15,9.9c-3.21,1.99-7.11,2.98-11.67,2.98c-3.15,0-6-0.48-8.54-1.45c-2.54-0.98-4.69-2.34-6.45-4.14
		c-1.77-1.78-3.13-3.92-4.09-6.41c-0.96-2.48-1.44-5.22-1.44-8.19c0-2.88,0.5-5.57,1.46-8.05c1-2.49,2.4-4.65,4.21-6.45
		c1.82-1.81,3.98-3.23,6.49-4.27c2.5-1.05,5.3-1.57,8.35-1.57c3.43,0,6.41,0.63,8.95,1.9c2.54,1.26,4.62,2.96,6.26,5.1
		c1.64,2.13,2.81,4.56,3.53,7.29c0.73,2.74,0.99,5.59,0.79,8.57h-29C410.55,316.54,411.44,319.02,413.1,320.56 M425.58,300.3
		c-1.32-1.39-3.34-2.09-6.02-2.09c-1.76,0-3.24,0.29-4.4,0.87c-1.16,0.56-2.1,1.28-2.8,2.11c-0.7,0.84-1.18,1.74-1.47,2.68
		c-0.29,0.95-0.46,1.8-0.51,2.54h17.96C427.83,303.73,426.91,301.7,425.58,300.3"/>
	<polyline class="st0" points="443.93,291.28 455.28,291.28 455.28,304.94 468.96,291.28 482.4,291.28 467.42,305.24 484.92,329.8 
		471.17,329.8 459.67,312.6 455.28,316.65 455.28,329.8 443.93,329.8 443.93,291.28 	"/>
	<path class="st0" d="M371.89,329.8l8.27-27.32l8.29,27.32h10.93l-10.18-33.44c-1.07-3.54-3.87-5.61-8.11-6.04l-0.35-0.02l-0.5-0.02
		h-0.18l-0.5,0.02l-0.36,0.02c-4.28,0.43-7.03,2.5-8.11,6.04l-10.11,33.44H371.89"/>
	<path class="st0" d="M541.41,302.48l8.31,27.32h10.92l8.28-27.32l5.84,27.32h10.95l-7.74-33.44c-1.07-3.54-3.84-5.64-8.11-6.04
		l-0.35-0.02l-0.49-0.02h-0.19l-0.5,0.02l-0.36,0.02c-4.27,0.4-7.03,2.5-8.1,6.04l-4.68,17.85l-4.72-17.85
		c-1.07-3.54-3.84-5.64-8.11-6.04l-0.35-0.02l-0.5-0.02h-0.2l-0.49,0.02l-0.35,0.02c-4.27,0.42-7.04,2.5-8.1,6.04l-7.67,33.44h10.91
		L541.41,302.48"/>
	<path class="st0" d="M483.88,302.14c0.98-2.51,2.38-4.64,4.2-6.41c1.82-1.76,3.99-3.13,6.53-4.1c2.53-0.97,5.38-1.45,8.55-1.45
		c3.17,0,6.02,0.48,8.59,1.45c2.58,0.97,4.75,2.34,6.57,4.1c1.81,1.77,3.21,3.89,4.19,6.41c0.99,2.51,1.47,5.31,1.47,8.39
		c0,3.08-0.48,5.86-1.47,8.34c-0.99,2.48-2.38,4.6-4.19,6.36c-1.82,1.76-4,3.12-6.57,4.06c-2.57,0.94-5.42,1.42-8.59,1.42
		c-3.17,0-6.01-0.48-8.55-1.42c-2.54-0.94-4.71-2.3-6.53-4.06c-1.82-1.76-3.22-3.88-4.2-6.36c-0.99-2.49-1.48-5.26-1.48-8.34
		C482.4,307.45,482.89,304.66,483.88,302.14 M493.9,315.03c0.32,1.46,0.84,2.78,1.59,3.95c0.75,1.17,1.75,2.1,2.99,2.79
		c1.25,0.7,2.8,1.03,4.67,1.03c1.86,0,3.44-0.34,4.7-1.03c1.27-0.69,2.28-1.62,3.04-2.79c0.74-1.18,1.28-2.49,1.59-3.95
		c0.31-1.46,0.46-2.97,0.46-4.5c0-1.55-0.15-3.06-0.46-4.54c-0.31-1.49-0.85-2.81-1.59-3.95c-0.75-1.14-1.76-2.07-3.04-2.79
		c-1.26-0.72-2.84-1.08-4.7-1.08c-1.86,0-3.42,0.37-4.67,1.08c-1.24,0.72-2.23,1.65-2.99,2.79c-0.75,1.14-1.27,2.46-1.59,3.95
		c-0.32,1.49-0.47,3-0.47,4.54C493.43,312.06,493.59,313.57,493.9,315.03"/>
	<polyline class="st0" points="196.91,291.28 208.25,291.28 208.25,304.94 221.94,291.28 235.36,291.28 220.4,305.24 237.89,329.8 
		224.15,329.8 212.65,312.6 208.25,316.65 208.25,329.8 196.91,329.8 196.91,291.28 	"/>
	<path class="st0" d="M281.6,311.47c0-3.08-0.48-5.86-1.47-8.34c-0.98-2.49-2.39-4.61-4.19-6.37c-1.82-1.76-4.01-3.12-6.58-4.06
		c-2.56-0.94-5.42-1.42-8.58-1.42c-4.83,0-9.32,2.66-9.71,2.82v-2.82h-11.03v52.48h11.03v-14.78c0.39,0.16,4.89,2.82,9.71,2.82
		c3.16,0,6.02-0.47,8.58-1.42c2.57-0.94,4.77-2.29,6.58-4.05c1.81-1.76,3.21-3.89,4.19-6.37c0.99-2.48,1.47-5.26,1.47-8.34V311.47
		 M270.1,316.13c-0.3,1.47-0.84,2.79-1.59,3.96c-0.74,1.16-1.76,2.09-3.03,2.79c-1.27,0.69-2.83,1.04-4.7,1.04
		c-1.86,0-3.42-0.34-4.66-1.04c-1.23-0.7-2.24-1.63-3-2.79c-0.74-1.17-1.28-2.49-1.59-3.96c-0.28-1.35-0.43-2.73-0.46-4.14v-0.88
		c0.03-1.41,0.18-2.79,0.46-4.15c0.32-1.46,0.85-2.78,1.59-3.95c0.76-1.16,1.76-2.09,3-2.79c1.25-0.69,2.8-1.05,4.66-1.05
		c1.87,0,3.43,0.35,4.7,1.05c1.27,0.69,2.29,1.63,3.03,2.79c0.75,1.17,1.29,2.49,1.59,3.95c0.32,1.46,0.47,2.96,0.47,4.51
		l-0.01,0.14h0.01v0.01C270.57,313.17,270.42,314.67,270.1,316.13"/>
	<path class="st0" d="M179.18,291.28v21.65c0,2.55-0.68,4.48-1.91,5.77c-1.23,1.29-3.07,2.08-5.9,2.09c-2.23,0-4.05-0.56-5.28-1.65
		c-1.24-1.09-2.06-2.76-2.08-5.48v-22.38h-10.76c0,0-0.02,13.36-0.02,21.26c0,7.91,1.69,10.32,4.66,13.13
		c2.54,2.39,6.32,4.18,11.79,4.18c5.47,0,8.93-2.99,9.6-3.52c0.17,2.54-0.14,5.16-2.66,7.1c-1.54,1.2-6.78,3.85-15.09,0.3l-2.36,8.5
		c3.02,1.52,7.5,2.51,12.44,2.45c3.51-0.04,8.28-1.27,11.94-4.04c3.67-2.74,6.43-7.02,6.43-14.19l0.01-35.18H179.18"/>
	<path class="st0" d="M504.03,258.62h-26.44c-5.81,0-10.54-4.53-10.54-10.1v-40.98c0-5.57,4.73-10.1,10.54-10.1h38.43l15.46-13.53
		v13.53h4.78c5.82,0,10.54,4.53,10.54,10.1v10.51h-39.32c-1.9,0-3.44,1.48-3.44,3.31V258.62 M477.59,204.23
		c-1.9,0-3.45,1.48-3.45,3.3v40.98c0,1.82,1.55,3.3,3.45,3.3h19.35v-30.47c0-5.57,4.73-10.1,10.53-10.1h32.24v-3.71
		c0-1.82-1.55-3.3-3.45-3.3h-11.87v-4.92l-5.62,4.92H477.59z"/>
	<path class="st0" d="M636.62,264.71l-20.24-8.11c-4.11,1.32-8.45,2.17-12.9,2.54l-3.85,0.32v-38.1c0-1.82-1.55-3.31-3.45-3.31
		h-40.49l4.32-5.45c7.75-9.78,22.42-15.86,38.27-15.86c24.23,0,43.95,14.04,43.95,31.31c0,8.32-4.58,16.23-12.69,22.05
		L636.62,264.71 M571.49,211.24h24.68c5.81,0,10.54,4.53,10.54,10.1v30.55c2.95-0.46,5.82-1.18,8.56-2.14l1.31-0.45l5.91,2.37
		l-1.95-4.02l2.61-1.6c7.61-4.66,11.98-11.23,11.98-18.03c0-13.52-16.54-24.52-36.86-24.52
		C587.99,203.52,578.37,206.38,571.49,211.24z"/>
	<path class="st0" d="M513.75,286v-13.57h-6.27c-5.81,0-10.53-4.53-10.53-10.1v-10.52h39.32c1.9,0,3.45-1.48,3.45-3.3v-37.27h30.26
		l-4.32,5.45c-2.81,3.54-4.23,7.36-4.23,11.34c0,13.52,16.53,24.52,36.85,24.52c1.55,0,3.08-0.07,4.59-0.2l3.85-0.32v10.29
		c0,5.57-4.73,10.1-10.54,10.1h-66.91L513.75,286 M504.03,258.62v3.72c0,1.82,1.54,3.3,3.44,3.3h13.36v4.97l5.68-4.97h69.66
		c1.87,0,3.45-1.51,3.45-3.3v-3c-0.45,0.01-0.9,0.02-1.35,0.02c-24.23,0-43.95-14.05-43.95-31.32c0-3.42,0.78-6.79,2.28-10h-9.81
		v30.48c0,5.57-4.73,10.1-10.54,10.1H504.03z"/>
</g>
</svg>
