<svg width="37" height="37" viewBox="0 0 37 37" fill="none" xmlns="http://www.w3.org/2000/svg">
<g clip-path="url(#clip0)">
<path d="M0 0.359131H36.8017V36.3942H0V0.359131Z" fill="url(#paint0_linear)"/>
<path d="M13.4251 18.7037H16.6871L15.0562 12.3783L13.4251 18.7037ZM2.78424 3.18054V33.59H34.0641V3.18054H2.78424ZM18.4774 25.6392L17.2839 21.5284H12.8681L11.6746 25.6392H8.65112L12.9078 11.1054V9.51409H16.9657L21.8191 25.6392H18.4774ZM26.5136 25.6392H23.2514V13.373H26.5136V25.6392ZM24.9022 11.9011C23.9685 11.9011 23.2114 11.153 23.2114 10.2302C23.2114 9.30744 23.9683 8.55934 24.9022 8.55934C25.8362 8.55934 26.593 9.30744 26.593 10.2302C26.593 11.153 25.8361 11.9011 24.9022 11.9011Z" fill="url(#paint1_linear)"/>
</g>
<defs>
<linearGradient id="paint0_linear" x1="36.61" y1="0.167381" x2="0.543145" y2="36.2343" gradientUnits="userSpaceOnUse">
<stop stop-color="#FFAA2A"/>
<stop offset="1" stop-color="#FFC06C"/>
</linearGradient>
<linearGradient id="paint1_linear" x1="18.4242" y1="3.12948" x2="18.4242" y2="33.4365" gradientUnits="userSpaceOnUse">
<stop stop-color="#251200"/>
<stop offset="1"/>
</linearGradient>
<clipPath id="clip0">
<rect width="36.8017" height="36.0362" fill="white" transform="translate(0 0.358276)"/>
</clipPath>
</defs>
</svg>
