<svg width="38" height="37" viewBox="0 0 38 37" fill="none" xmlns="http://www.w3.org/2000/svg">
<g clip-path="url(#clip0)">
<path fill-rule="evenodd" clip-rule="evenodd" d="M1.72485 1.93018H35.7927V35.0689H1.72485V1.93018Z" fill="#1F0040"/>
<path fill-rule="evenodd" clip-rule="evenodd" d="M0.176453 0.381592V36.6174H37.3416V0.381592H0.176453ZM1.72499 1.93013H35.793V35.0689H1.72499V1.93013Z" fill="#D291FF"/>
<path fill-rule="evenodd" clip-rule="evenodd" d="M10.6809 20.8997L9.4545 25.5244C9.42879 25.652 9.37769 25.7002 9.22439 25.7002H6.95051C6.79721 25.7002 6.7715 25.6491 6.79721 25.4704L11.1918 10.0887C11.2686 9.80781 11.3197 9.58606 11.3451 8.81969C11.3451 8.71748 11.3962 8.66638 11.473 8.66638H14.718C14.8199 8.66638 14.871 8.69209 14.8967 8.81969L19.8282 25.4958C19.8536 25.6237 19.8282 25.7002 19.7003 25.7002H17.1452C17.0176 25.7002 16.9408 25.652 16.9154 25.5501L15.6378 20.8997H10.6809ZM15.0268 18.3858C14.5924 16.6739 13.5423 12.9193 13.1591 11.1052H13.1337C12.8015 12.9193 11.9628 15.9825 11.3241 18.3842L15.0268 18.3858ZM23.3277 19.9706C23.3534 22.0659 24.3501 23.471 26.7006 23.471C27.6203 23.471 28.4085 23.3495 29.2261 22.9916C29.3283 22.9405 29.4051 22.9662 29.4051 23.0938V25.0358C29.4051 25.1891 29.354 25.2656 29.2518 25.3423C28.4343 25.7513 27.416 25.93 26.1385 25.93C22.0505 25.93 20.5173 22.9151 20.5173 19.5422C20.5173 15.8886 22.4079 12.8993 25.7298 12.8993C29.1024 12.8993 30.2777 15.7353 30.2777 18.0349C30.2777 18.7759 30.2266 19.3892 30.1501 19.6701C30.1244 19.7977 30.0733 19.8428 29.9457 19.8682C29.6391 19.9193 28.7193 19.9704 27.3649 19.9704H23.3277V19.9706ZM26.4705 17.8413C27.2626 17.8413 27.5439 17.8413 27.6204 17.8159C27.6204 17.7137 27.6461 17.6259 27.6461 17.5494C27.6461 16.7062 27.2372 15.1586 25.6276 15.1586C24.1456 15.1586 23.5069 16.4616 23.3534 17.8413H26.4705Z" fill="#D291FF"/>
</g>
<defs>
<clipPath id="clip0">
<rect width="37.1726" height="36.2358" fill="white" transform="translate(0.172607 0.381592)"/>
</clipPath>
</defs>
</svg>
