<svg width="225" height="74" viewBox="0 0 225 74" fill="none" xmlns="http://www.w3.org/2000/svg">
<g filter="url(#filter0_d)">
<rect x="17.7368" y="7" width="190" height="40" rx="20" fill="#3857F9"/>
</g>
<path d="M64.8803 21.61C65.9003 21.61 66.7956 21.7857 67.5663 22.137C68.337 22.4883 68.9943 23.0097 69.5383 23.701L68.2293 25.214C67.7646 24.6247 67.2546 24.194 66.6993 23.922C66.1553 23.6387 65.5206 23.497 64.7953 23.497C64.07 23.497 63.543 23.633 63.2143 23.905C62.8856 24.1657 62.7213 24.483 62.7213 24.857C62.7213 25.163 62.8346 25.4237 63.0613 25.639C63.2993 25.843 63.713 26.013 64.3023 26.149L66.3933 26.625C67.4926 26.8743 68.286 27.2483 68.7733 27.747C69.2606 28.2343 69.5043 28.869 69.5043 29.651C69.5043 30.3877 69.3116 31.0223 68.9263 31.555C68.541 32.0763 68.0026 32.4787 67.3113 32.762C66.62 33.034 65.8266 33.17 64.9313 33.17C63.764 33.17 62.7383 32.966 61.8543 32.558C60.9703 32.15 60.2733 31.623 59.7633 30.977L61.0893 29.396C61.4746 29.94 62.0016 30.3933 62.6703 30.756C63.3503 31.1073 64.104 31.283 64.9313 31.283C65.6226 31.283 66.1553 31.1697 66.5293 30.943C66.9033 30.705 67.0903 30.3707 67.0903 29.94C67.0903 29.6567 66.9883 29.4073 66.7843 29.192C66.5916 28.9767 66.229 28.8123 65.6963 28.699L63.4183 28.189C62.421 27.9737 61.6503 27.6223 61.1063 27.135C60.5623 26.6477 60.2903 25.9847 60.2903 25.146C60.2903 24.4773 60.4716 23.8767 60.8343 23.344C61.197 22.8113 61.7183 22.392 62.3983 22.086C63.0896 21.7687 63.917 21.61 64.8803 21.61ZM77.2147 24.5V26.234H74.4947V30.229C74.4947 30.637 74.5967 30.9373 74.8007 31.13C75.0161 31.3113 75.3051 31.402 75.6677 31.402C75.9624 31.402 76.2117 31.3623 76.4157 31.283C76.6311 31.1923 76.8237 31.0733 76.9937 30.926L77.3677 32.473C77.0844 32.6883 76.7387 32.8583 76.3307 32.983C75.9341 33.1077 75.5091 33.17 75.0557 33.17C74.2057 33.17 73.5087 32.9773 72.9647 32.592C72.4321 32.1953 72.1657 31.5323 72.1657 30.603V26.234H70.6017V24.5H72.1657V22.545L74.4947 21.899V24.5H77.2147ZM83.7184 27.577C83.7184 27.0897 83.5767 26.71 83.2934 26.438C83.0214 26.166 82.6587 26.03 82.2054 26.03C81.7861 26.03 81.4177 26.1377 81.1004 26.353C80.7831 26.5683 80.5507 26.9253 80.4034 27.424L78.4144 26.812C78.6071 26.064 79.0264 25.4633 79.6724 25.01C80.3297 24.5567 81.2081 24.33 82.3074 24.33C83.4181 24.33 84.3134 24.5963 84.9934 25.129C85.6847 25.6503 86.0304 26.4323 86.0304 27.475V30.926C86.0304 31.3567 86.2344 31.572 86.6424 31.572C86.8351 31.572 87.0164 31.5437 87.1864 31.487L87.0504 32.932C86.7557 33.0793 86.3874 33.153 85.9454 33.153C85.4581 33.153 85.0331 33.051 84.6704 32.847C84.3191 32.643 84.0811 32.337 83.9564 31.929C83.6844 32.337 83.2934 32.6487 82.7834 32.864C82.2847 33.068 81.7691 33.17 81.2364 33.17C80.3751 33.17 79.6894 32.9773 79.1794 32.592C78.6807 32.1953 78.4314 31.623 78.4314 30.875C78.4314 30.2403 78.6354 29.7247 79.0434 29.328C79.4514 28.92 80.0351 28.6423 80.7944 28.495L83.7184 27.9V27.577ZM80.7604 30.654C80.7604 30.9373 80.8624 31.1527 81.0664 31.3C81.2817 31.4473 81.5367 31.521 81.8314 31.521C82.1601 31.521 82.4661 31.47 82.7494 31.368C83.0327 31.266 83.2651 31.096 83.4464 30.858C83.6277 30.6087 83.7184 30.28 83.7184 29.872V29.345L81.9334 29.702C81.5481 29.7813 81.2534 29.889 81.0494 30.025C80.8567 30.1497 80.7604 30.3593 80.7604 30.654ZM88.6351 33V24.5H90.6581L90.8111 26.166C91.0265 25.588 91.3495 25.1403 91.7801 24.823C92.2221 24.4943 92.7775 24.33 93.4461 24.33C93.8428 24.33 94.1488 24.3923 94.3641 24.517L94.0921 26.472C93.9788 26.438 93.8371 26.4097 93.6671 26.387C93.5085 26.353 93.2988 26.336 93.0381 26.336C92.6868 26.336 92.3525 26.421 92.0351 26.591C91.7291 26.7497 91.4741 26.999 91.2701 27.339C91.0661 27.6677 90.9641 28.087 90.9641 28.597V33H88.6351ZM101.221 24.5V26.234H98.5006V30.229C98.5006 30.637 98.6026 30.9373 98.8066 31.13C99.0219 31.3113 99.3109 31.402 99.6736 31.402C99.9682 31.402 100.218 31.3623 100.422 31.283C100.637 31.1923 100.83 31.0733 101 30.926L101.374 32.473C101.09 32.6883 100.745 32.8583 100.337 32.983C99.9399 33.1077 99.5149 33.17 99.0616 33.17C98.2116 33.17 97.5146 32.9773 96.9706 32.592C96.4379 32.1953 96.1716 31.5323 96.1716 30.603V26.234H94.6076V24.5H96.1716V22.545L98.5006 21.899V24.5H101.221ZM107.993 36.57V24.5H110.084L110.186 26.166C110.424 25.622 110.786 25.18 111.274 24.84C111.772 24.5 112.356 24.33 113.025 24.33C113.716 24.33 114.334 24.5057 114.878 24.857C115.422 25.2083 115.847 25.7127 116.153 26.37C116.47 27.016 116.629 27.8037 116.629 28.733C116.629 29.6623 116.47 30.4613 116.153 31.13C115.835 31.7873 115.399 32.2917 114.844 32.643C114.3 32.9943 113.676 33.17 112.974 33.17C112.35 33.17 111.812 33.0227 111.359 32.728C110.917 32.4333 110.571 32.0423 110.322 31.555V36.57H107.993ZM112.294 31.385C112.917 31.385 113.404 31.164 113.756 30.722C114.118 30.2687 114.3 29.6113 114.3 28.75C114.3 27.8887 114.124 27.237 113.773 26.795C113.433 26.3417 112.951 26.115 112.328 26.115C111.727 26.115 111.24 26.3473 110.866 26.812C110.503 27.2767 110.322 27.9227 110.322 28.75C110.322 29.566 110.497 30.212 110.849 30.688C111.211 31.1527 111.693 31.385 112.294 31.385ZM118.651 33V24.5H120.674L120.827 26.166C121.042 25.588 121.365 25.1403 121.796 24.823C122.238 24.4943 122.793 24.33 123.462 24.33C123.858 24.33 124.164 24.3923 124.38 24.517L124.108 26.472C123.994 26.438 123.853 26.4097 123.683 26.387C123.524 26.353 123.314 26.336 123.054 26.336C122.702 26.336 122.368 26.421 122.051 26.591C121.745 26.7497 121.49 26.999 121.286 27.339C121.082 27.6677 120.98 28.087 120.98 28.597V33H118.651ZM129.533 24.33C130.383 24.33 131.136 24.5057 131.794 24.857C132.451 25.2083 132.961 25.7127 133.324 26.37C133.698 27.0273 133.885 27.8207 133.885 28.75C133.885 29.6793 133.698 30.4727 133.324 31.13C132.961 31.7873 132.451 32.2917 131.794 32.643C131.136 32.9943 130.383 33.17 129.533 33.17C128.671 33.17 127.912 32.9943 127.255 32.643C126.609 32.2917 126.099 31.7873 125.725 31.13C125.362 30.4727 125.181 29.6793 125.181 28.75C125.181 27.8207 125.362 27.0273 125.725 26.37C126.099 25.7127 126.609 25.2083 127.255 24.857C127.912 24.5057 128.671 24.33 129.533 24.33ZM129.533 26.064C128.898 26.064 128.399 26.2907 128.037 26.744C127.685 27.186 127.51 27.8547 127.51 28.75C127.51 29.6453 127.685 30.3197 128.037 30.773C128.399 31.215 128.898 31.436 129.533 31.436C130.156 31.436 130.643 31.215 130.995 30.773C131.357 30.3197 131.539 29.6453 131.539 28.75C131.539 27.8547 131.357 27.186 130.995 26.744C130.643 26.2907 130.156 26.064 129.533 26.064ZM137.006 23.276C136.043 23.276 135.561 22.8623 135.561 22.035C135.561 21.1963 136.043 20.777 137.006 20.777C137.97 20.777 138.451 21.1963 138.451 22.035C138.451 22.8623 137.97 23.276 137.006 23.276ZM138.162 24.5V33.629C138.162 34.3657 138.026 34.955 137.754 35.397C137.494 35.8503 137.137 36.1733 136.683 36.366C136.23 36.5587 135.714 36.655 135.136 36.655C134.717 36.655 134.337 36.604 133.997 36.502C133.657 36.4113 133.363 36.281 133.113 36.111L133.47 34.445C133.606 34.5583 133.776 34.649 133.98 34.717C134.173 34.7963 134.4 34.836 134.66 34.836C135.012 34.836 135.295 34.7283 135.51 34.513C135.726 34.309 135.833 33.9407 135.833 33.408V24.5H138.162ZM144.575 33.17C143.238 33.17 142.167 32.7847 141.362 32.014C140.558 31.232 140.155 30.144 140.155 28.75C140.155 27.8207 140.337 27.0273 140.699 26.37C141.062 25.7127 141.566 25.2083 142.212 24.857C142.87 24.5057 143.618 24.33 144.456 24.33C145.318 24.33 146.049 24.5057 146.649 24.857C147.25 25.197 147.709 25.6673 148.026 26.268C148.344 26.8573 148.502 27.5317 148.502 28.291C148.502 28.5177 148.497 28.733 148.485 28.937C148.474 29.141 148.457 29.3223 148.434 29.481H142.433C142.524 30.1383 142.751 30.6313 143.113 30.96C143.487 31.2773 143.969 31.436 144.558 31.436C145.057 31.436 145.459 31.3397 145.765 31.147C146.071 30.9543 146.309 30.688 146.479 30.348L148.332 31.062C148.06 31.7307 147.584 32.252 146.904 32.626C146.224 32.9887 145.448 33.17 144.575 33.17ZM144.439 26.047C143.34 26.047 142.677 26.6533 142.45 27.866H146.275C146.207 27.2767 146.015 26.829 145.697 26.523C145.391 26.2057 144.972 26.047 144.439 26.047ZM154.335 24.33C155.468 24.33 156.347 24.5737 156.97 25.061C157.605 25.5483 158.024 26.1377 158.228 26.829L156.052 27.611C155.825 26.5797 155.264 26.064 154.369 26.064C153.723 26.064 153.219 26.2907 152.856 26.744C152.505 27.1973 152.329 27.8717 152.329 28.767C152.329 29.6737 152.51 30.348 152.873 30.79C153.247 31.2207 153.751 31.436 154.386 31.436C155.372 31.436 155.961 30.9317 156.154 29.923L158.262 30.603C158.069 31.3623 157.639 31.98 156.97 32.456C156.313 32.932 155.457 33.17 154.403 33.17C153.519 33.17 152.743 32.9943 152.074 32.643C151.417 32.2917 150.907 31.7873 150.544 31.13C150.181 30.4727 150 29.6793 150 28.75C150 27.8207 150.181 27.0273 150.544 26.37C150.918 25.7127 151.428 25.2083 152.074 24.857C152.731 24.5057 153.485 24.33 154.335 24.33ZM165.801 24.5V26.234H163.081V30.229C163.081 30.637 163.183 30.9373 163.387 31.13C163.602 31.3113 163.891 31.402 164.254 31.402C164.548 31.402 164.798 31.3623 165.002 31.283C165.217 31.1923 165.41 31.0733 165.58 30.926L165.954 32.473C165.67 32.6883 165.325 32.8583 164.917 32.983C164.52 33.1077 164.095 33.17 163.642 33.17C162.792 33.17 162.095 32.9773 161.551 32.592C161.018 32.1953 160.752 31.5323 160.752 30.603V26.234H159.188V24.5H160.752V22.545L163.081 21.899V24.5H165.801Z" fill="white"/>
<defs>
<filter id="filter0_d" x="0.736816" y="0" width="224" height="74" filterUnits="userSpaceOnUse" color-interpolation-filters="sRGB">
<feFlood flood-opacity="0" result="BackgroundImageFix"/>
<feColorMatrix in="SourceAlpha" type="matrix" values="0 0 0 0 0 0 0 0 0 0 0 0 0 0 0 0 0 0 127 0"/>
<feOffset dy="10"/>
<feGaussianBlur stdDeviation="8.5"/>
<feColorMatrix type="matrix" values="0 0 0 0 0 0 0 0 0 0 0 0 0 0 0 0 0 0 0.4 0"/>
<feBlend mode="normal" in2="BackgroundImageFix" result="effect1_dropShadow"/>
<feBlend mode="normal" in="SourceGraphic" in2="effect1_dropShadow" result="shape"/>
</filter>
</defs>
</svg>
