<svg width="274" height="198" viewBox="0 0 274 198" fill="none" xmlns="http://www.w3.org/2000/svg">
<path d="M183.4 186.585H138.586C133.374 186.585 129.533 181.714 130.752 176.642C135.968 155.011 147.732 104.032 147.732 84.089C147.732 72.582 144.167 43.3053 142.544 30.5715C142.135 27.3479 144.645 24.5012 147.892 24.5012H174.078C177.329 24.5012 179.839 27.3519 179.426 30.5755C177.802 43.2733 174.242 72.3935 174.242 83.8444C174.242 103.843 186.014 154.987 191.23 176.654C192.453 181.714 188.612 186.585 183.4 186.585Z" fill="#A800FF"/>
<path d="M160.991 24.1245C167.592 24.1245 172.943 18.7734 172.943 12.1725C172.943 5.57157 167.592 0.220459 160.991 0.220459C154.39 0.220459 149.039 5.57157 149.039 12.1725C149.039 18.7734 154.39 24.1245 160.991 24.1245Z" fill="#4800FF"/>
<path d="M179.502 59.9765H142.484C141.156 59.9765 140.078 58.898 140.078 57.5709V53.4171C140.078 52.09 141.156 51.0115 142.484 51.0115H179.502C180.829 51.0115 181.908 52.09 181.908 53.4171V57.5709C181.908 58.902 180.829 59.9765 179.502 59.9765Z" fill="#4800FF"/>
<path d="M176.912 88.359H145.07C143.963 88.359 143.065 87.4609 143.065 86.3543V82.8942C143.065 81.7876 143.963 80.8895 145.07 80.8895H176.912C178.019 80.8895 178.917 81.7876 178.917 82.8942V86.3543C178.917 87.4649 178.023 88.359 176.912 88.359Z" fill="#4800FF"/>
<path d="M193.463 177.993H128.519C126.859 177.993 125.512 176.646 125.512 174.986V169.798C125.512 168.138 126.859 166.791 128.519 166.791H193.463C195.123 166.791 196.47 168.138 196.47 169.798V174.986C196.47 176.646 195.127 177.993 193.463 177.993Z" fill="#4800FF"/>
<path d="M191.106 160.067H130.88C129.774 160.067 128.876 159.169 128.876 158.062V154.602C128.876 153.496 129.774 152.598 130.88 152.598H191.11C192.216 152.598 193.114 153.496 193.114 154.602V158.062C193.11 159.169 192.212 160.067 191.106 160.067Z" fill="#4800FF"/>
</svg>
