<svg width="274" height="198" viewBox="0 0 274 198" fill="none" xmlns="http://www.w3.org/2000/svg">
<path d="M120.5 186.209H96.5999V79.7268C96.5999 77.0686 98.7529 74.9155 101.411 74.9155H119.032C119.846 74.9155 120.504 75.5731 120.504 76.387V186.209H120.5Z" fill="#FF00FF"/>
<path d="M77.9242 186.208H54.0242V113.342C54.0242 110.683 56.1772 108.53 58.8355 108.53H76.4568C77.2707 108.53 77.9282 109.188 77.9282 110.002V186.208H77.9242Z" fill="#A800FF"/>
<path d="M40.5806 186.209H16.6765V146.203C16.6765 143.545 18.8296 141.392 21.4878 141.392H39.1091C39.923 141.392 40.5806 142.049 40.5806 142.863V186.209Z" fill="#4800FF"/>
<path d="M267.986 197.483H5.88307C2.76776 197.483 0.24585 194.957 0.24585 191.846C0.24585 188.73 2.77177 186.208 5.88307 186.208H267.986C271.101 186.208 273.623 188.734 273.623 191.846C273.623 194.961 271.101 197.483 267.986 197.483Z" fill="#1E0E00"/>
</svg>
