<svg width="274" height="198" viewBox="0 0 274 198" fill="none" xmlns="http://www.w3.org/2000/svg">
<path d="M248.925 159.322H218.213C217.584 159.322 217.034 158.901 216.866 158.295L212.684 143.244C212.512 142.622 212.78 141.961 213.346 141.648C215.872 140.241 222.744 135.662 226.569 125.711C229.612 117.8 229.68 104.934 229.6 100.435C229.584 99.5815 228.814 98.944 227.972 99.0843L221.765 100.119C221.092 100.231 220.595 100.816 220.595 101.498C220.595 102.123 220.182 102.673 219.58 102.845L210.976 105.303C210.463 105.451 209.91 105.291 209.553 104.894L204.2 98.948C203.743 98.4428 203.719 97.681 204.14 97.1478L219.424 77.6942C219.689 77.3574 220.093 77.1609 220.522 77.1609H222.924C223.698 77.1609 224.323 76.5354 224.323 75.7616V71.0065C224.323 69.6513 226.055 69.086 226.853 70.1845L230.041 76.0583C230.201 76.2829 230.422 76.4513 230.682 76.5475C233.272 77.4977 248.288 83.8606 254.201 105.543C262.208 134.896 252.337 154.715 250.136 158.616C249.891 159.053 249.426 159.322 248.925 159.322Z" fill="#1E0E00"/>
<path d="M251.952 186.209H214.131C212.199 186.209 210.635 184.641 210.635 182.712V161.326C210.635 160.22 211.533 159.322 212.64 159.322H253.448C254.554 159.322 255.452 160.22 255.452 161.326V182.712C255.448 184.645 253.881 186.209 251.952 186.209Z" fill="#1E0E00"/>
<path d="M258.127 169.778H207.953C206.955 169.778 206.149 168.972 206.149 167.974V164.858C206.149 163.86 206.955 163.054 207.953 163.054H258.123C259.121 163.054 259.927 163.86 259.927 164.858V167.974C259.931 168.968 259.121 169.778 258.127 169.778Z" fill="#A800FF"/>
<path d="M259.566 182.476H206.518C205.078 182.476 203.912 181.309 203.912 179.87V175.371C203.912 173.932 205.078 172.765 206.518 172.765H259.566C261.006 172.765 262.172 173.932 262.172 175.371V179.87C262.172 181.309 261.006 182.476 259.566 182.476Z" fill="#A800FF"/>
</svg>
