<svg width="274" height="198" viewBox="0 0 274 198" fill="none" xmlns="http://www.w3.org/2000/svg">
<path d="M183.4 186.585H138.586C133.374 186.585 129.533 181.714 130.752 176.642C135.968 155.011 147.732 104.032 147.732 84.089C147.732 72.582 144.167 43.3053 142.544 30.5715C142.135 27.3479 144.645 24.5012 147.892 24.5012H174.078C177.329 24.5012 179.839 27.3519 179.426 30.5755C177.802 43.2733 174.242 72.3935 174.242 83.8444C174.242 103.843 186.014 154.987 191.23 176.654C192.453 181.714 188.612 186.585 183.4 186.585Z" fill="#A800FF"/>
<path d="M160.991 24.1245C167.592 24.1245 172.943 18.7734 172.943 12.1725C172.943 5.57157 167.592 0.220459 160.991 0.220459C154.39 0.220459 149.039 5.57157 149.039 12.1725C149.039 18.7734 154.39 24.1245 160.991 24.1245Z" fill="#4800FF"/>
<path d="M179.502 59.9765H142.484C141.156 59.9765 140.078 58.898 140.078 57.5709V53.4171C140.078 52.09 141.156 51.0115 142.484 51.0115H179.502C180.829 51.0115 181.908 52.09 181.908 53.4171V57.5709C181.908 58.902 180.829 59.9765 179.502 59.9765Z" fill="#4800FF"/>
<path d="M176.912 88.359H145.07C143.963 88.359 143.065 87.4609 143.065 86.3543V82.8942C143.065 81.7876 143.963 80.8895 145.07 80.8895H176.912C178.019 80.8895 178.917 81.7876 178.917 82.8942V86.3543C178.917 87.4649 178.023 88.359 176.912 88.359Z" fill="#4800FF"/>
<path d="M193.463 177.993H128.519C126.859 177.993 125.512 176.646 125.512 174.986V169.798C125.512 168.138 126.859 166.791 128.519 166.791H193.463C195.123 166.791 196.47 168.138 196.47 169.798V174.986C196.47 176.646 195.127 177.993 193.463 177.993Z" fill="#4800FF"/>
<path d="M191.106 160.067H130.88C129.774 160.067 128.876 159.169 128.876 158.062V154.602C128.876 153.496 129.774 152.598 130.88 152.598H191.11C192.216 152.598 193.114 153.496 193.114 154.602V158.062C193.11 159.169 192.212 160.067 191.106 160.067Z" fill="#4800FF"/>
<path d="M248.925 159.322H218.213C217.584 159.322 217.034 158.901 216.866 158.295L212.684 143.244C212.512 142.622 212.78 141.961 213.346 141.648C215.872 140.241 222.744 135.662 226.569 125.711C229.612 117.8 229.68 104.934 229.6 100.435C229.584 99.5815 228.814 98.944 227.972 99.0843L221.765 100.119C221.092 100.231 220.595 100.816 220.595 101.498C220.595 102.123 220.182 102.673 219.58 102.845L210.976 105.303C210.463 105.451 209.91 105.291 209.553 104.894L204.2 98.948C203.743 98.4428 203.719 97.681 204.14 97.1478L219.424 77.6942C219.689 77.3574 220.093 77.1609 220.522 77.1609H222.924C223.698 77.1609 224.323 76.5354 224.323 75.7616V71.0065C224.323 69.6513 226.055 69.086 226.853 70.1845L230.041 76.0583C230.201 76.2829 230.422 76.4513 230.682 76.5475C233.272 77.4977 248.288 83.8606 254.201 105.543C262.208 134.896 252.337 154.715 250.136 158.616C249.891 159.053 249.426 159.322 248.925 159.322Z" fill="#1E0E00"/>
<path d="M251.952 186.209H214.131C212.199 186.209 210.635 184.641 210.635 182.712V161.326C210.635 160.22 211.533 159.322 212.64 159.322H253.448C254.554 159.322 255.452 160.22 255.452 161.326V182.712C255.448 184.645 253.881 186.209 251.952 186.209Z" fill="#1E0E00"/>
<path d="M258.127 169.778H207.953C206.955 169.778 206.149 168.972 206.149 167.974V164.858C206.149 163.86 206.955 163.054 207.953 163.054H258.123C259.121 163.054 259.927 163.86 259.927 164.858V167.974C259.931 168.968 259.121 169.778 258.127 169.778Z" fill="#A800FF"/>
<path d="M259.566 182.476H206.518C205.078 182.476 203.912 181.309 203.912 179.87V175.371C203.912 173.932 205.078 172.765 206.518 172.765H259.566C261.006 172.765 262.172 173.932 262.172 175.371V179.87C262.172 181.309 261.006 182.476 259.566 182.476Z" fill="#A800FF"/>
<path d="M120.5 186.209H96.5999V79.7268C96.5999 77.0686 98.7529 74.9155 101.411 74.9155H119.032C119.846 74.9155 120.504 75.5731 120.504 76.387V186.209H120.5Z" fill="#FF00FF"/>
<path d="M77.9242 186.208H54.0242V113.342C54.0242 110.683 56.1772 108.53 58.8355 108.53H76.4568C77.2707 108.53 77.9282 109.188 77.9282 110.002V186.208H77.9242Z" fill="#A800FF"/>
<path d="M40.5806 186.209H16.6765V146.203C16.6765 143.545 18.8296 141.392 21.4878 141.392H39.1091C39.923 141.392 40.5806 142.049 40.5806 142.863V186.209Z" fill="#4800FF"/>
<path d="M267.986 197.483H5.88307C2.76776 197.483 0.24585 194.957 0.24585 191.846C0.24585 188.73 2.77177 186.208 5.88307 186.208H267.986C271.101 186.208 273.623 188.734 273.623 191.846C273.623 194.961 271.101 197.483 267.986 197.483Z" fill="#1E0E00"/>
</svg>
