<svg width="46" height="45" viewBox="0 0 46 45" fill="none" xmlns="http://www.w3.org/2000/svg">
<g clip-path="url(#clip0)">
<path d="M31.1136 7.23958C28.1058 5.37722 25.3779 3.09698 23.0117 0.467109C22.8033 0.232773 22.4932 0.11565 22.1819 0.153846C21.8707 0.198423 21.6029 0.396834 21.4697 0.681515C20.271 3.18858 18.4544 5.34969 16.1908 6.96172C8.265 9.61073 2.87223 16.9712 2.73535 25.3267C3.0112 36.3892 12.1833 45.1444 23.2466 44.9057C34.3099 45.1444 43.4821 36.3892 43.7579 25.3267C43.6798 17.266 38.6573 10.0815 31.1136 7.23958Z" fill="#03A9F4"/>
<path d="M36.2991 22.5299C34.4539 22.6835 32.7358 23.5319 31.4921 24.9036C30.8022 25.463 29.9631 26.138 28.9133 26.9136C24.1938 22.4496 21.2477 20.6652 18.5849 20.6652C12.8194 20.6652 10.194 24.5306 10.194 28.1238C10.194 32.243 13.5333 35.5824 17.6526 35.5824C21.1208 35.5824 26.6439 31.2116 28.7081 29.47C30.0936 31.1948 33.146 34.65 35.3668 34.65C38.2551 34.65 40.0284 30.8499 40.0284 28.1237C40.0285 23.0744 37.4179 22.5299 36.2991 22.5299Z" fill="#FAFAFA"/>
<path d="M29.6628 37.4471C29.7001 37.4498 29.7375 37.4498 29.7747 37.4471C30.2496 37.4504 30.651 37.0963 30.7071 36.6248C30.8278 35.8922 30.6235 35.1435 30.1477 34.5736C29.5653 33.97 28.7447 33.6564 27.9082 33.7177C26.1207 33.6059 24.4111 34.4642 23.4331 35.9647C23.1399 36.388 23.2453 36.9688 23.6686 37.262C24.0767 37.5446 24.6347 37.4579 24.9378 37.0648C25.5623 36.0425 26.7159 35.4667 27.9082 35.5824C28.2032 35.5493 28.4995 35.6307 28.7362 35.8099C28.8479 35.9866 28.8879 36.1995 28.848 36.4047C28.7837 36.9156 29.1457 37.3819 29.6565 37.4462C29.6585 37.4466 29.6607 37.4468 29.6628 37.4471Z" fill="#FAFAFA"/>
<path d="M30.0452 38.6517C28.5534 40.1435 22.3702 39.916 21.1078 38.6517C20.7375 38.294 20.1472 38.3043 19.7895 38.6746C19.4405 39.036 19.4405 39.6087 19.7895 39.9701C21.5371 41.1472 23.6287 41.7046 25.7303 41.5532C27.7362 41.7094 29.7325 41.1483 31.3634 39.9701C31.7212 39.5997 31.7108 39.0095 31.3405 38.6517C30.9793 38.3028 30.4065 38.3028 30.0452 38.6517Z" fill="#FAFAFA"/>
</g>
<defs>
<clipPath id="clip0">
<rect width="44.7637" height="44.7637" fill="white" transform="translate(0.864746 0.146729)"/>
</clipPath>
</defs>
</svg>
