<svg width="40" height="40" viewBox="0 0 40 40" fill="none" xmlns="http://www.w3.org/2000/svg">
<path d="M8.41825 0.835687C8.48603 0.827432 8.55424 0.820915 8.62288 0.819612C16.0526 0.819177 23.4823 0.820046 30.9124 0.819177C31.2174 0.803537 31.5198 0.859148 31.8247 0.860451C33.5713 1.02337 35.25 1.79584 36.5273 2.99538C38.0114 4.39217 38.9525 6.37243 39.0324 8.41439C39.0667 8.65291 39.0494 8.89403 39.0528 9.13342C39.0528 16.1282 39.0528 23.123 39.0528 30.1178C39.042 30.5601 39.0754 31.0045 39.0333 31.4455C38.9759 33.2146 38.2678 34.942 37.1225 36.2849C35.9812 37.6218 34.3841 38.5602 32.6637 38.9182C31.8021 39.0989 30.9193 39.0911 30.043 39.0846C23.0196 39.0846 15.9957 39.0846 8.97176 39.0846C8.78711 39.0837 8.6016 39.0937 8.41782 39.0681C5.96139 38.9782 3.5875 37.6518 2.20853 35.618C1.37133 34.4076 0.867788 32.9605 0.807833 31.4881C0.778724 31.2934 0.786979 31.0958 0.787414 30.8998C0.787414 23.7169 0.787414 16.5336 0.787414 9.35065C0.794365 9.04175 0.768297 8.73068 0.810005 8.42352C0.871699 6.65527 1.58812 4.93133 2.739 3.59537C4.15013 1.95485 6.25161 0.916496 8.41825 0.835687ZM12.9805 6.27338C12.1107 6.74998 11.3934 7.5042 10.9777 8.40614C10.528 9.35543 10.415 10.4603 10.6627 11.4808C10.9325 12.6343 11.6632 13.6696 12.6542 14.3174C13.3428 14.7723 14.1522 15.0325 14.9755 15.082C14.4876 15.125 14.0006 15.2167 13.544 15.397C12.6429 15.742 11.8566 16.375 11.3209 17.1774C10.7782 17.9903 10.4989 18.9752 10.5384 19.9523C10.5801 21.4164 11.3665 22.8271 12.5756 23.6491C13.2807 24.1353 14.1205 24.416 14.9747 24.4655C14.1431 24.5294 13.3211 24.787 12.6282 25.2571C11.4251 26.0465 10.6288 27.4172 10.5462 28.8553C10.4285 30.3937 11.1471 31.9543 12.3731 32.8862C13.6109 33.8511 15.3474 34.1196 16.8194 33.577C18.284 33.0578 19.4457 31.7657 19.7924 30.249C19.9618 29.5956 19.9132 28.917 19.9197 28.2496C19.9193 26.9897 19.921 25.7298 19.9193 24.4698C19.9262 23.0183 19.9093 21.5668 19.9279 20.1152C19.9388 20.2199 19.9531 20.3247 19.9657 20.4294C20.1604 21.9113 21.1214 23.2646 22.4517 23.9428C23.3089 24.3929 24.3086 24.5598 25.2661 24.4259C26.6712 24.2357 27.9598 23.3659 28.6688 22.1394C29.4635 20.7973 29.5143 19.0552 28.8044 17.6675C28.3977 16.8611 27.7543 16.176 26.974 15.7211C26.3466 15.3497 25.6311 15.1524 24.9082 15.082C25.5468 15.029 26.1802 14.87 26.7498 14.5724C27.4041 14.2348 27.9772 13.7443 28.4112 13.1496C28.989 12.3558 29.3097 11.3761 29.3049 10.3934C29.3092 9.56831 29.0833 8.74501 28.6684 8.0325C27.9967 6.87076 26.8063 6.02269 25.4847 5.78244C24.9837 5.676 24.4693 5.70337 23.9606 5.70033C22.6138 5.70119 21.2669 5.69815 19.9201 5.70163C18.3704 5.69859 16.8211 5.70163 15.2714 5.70033C14.4759 5.69164 13.6774 5.88888 12.9805 6.27338Z" fill="#2D2F38"/>
<path d="M19.9206 15.0854C21.3722 15.0902 22.8237 15.0776 24.2748 15.092C23.398 15.1636 22.54 15.4717 21.8322 15.9974C20.7122 16.8111 19.9914 18.1414 19.9267 19.5256C19.9124 18.0454 19.9241 16.5652 19.9206 15.0854Z" fill="#2D2F38"/>
<path d="M12.9805 6.2734C13.6774 5.8889 14.4759 5.69166 15.2714 5.70035C16.8211 5.70165 18.3704 5.69861 19.9201 5.70165C19.9205 8.82976 19.9197 11.9574 19.9205 15.0855C18.2722 15.0834 16.6239 15.0899 14.9755 15.0821C14.1522 15.0325 13.3428 14.7723 12.6542 14.3174C11.6632 13.6696 10.9325 12.6343 10.6627 11.4808C10.415 10.4603 10.528 9.35545 10.9776 8.40616C11.3934 7.50422 12.1107 6.75 12.9805 6.2734Z" fill="#F24E1E"/>
<path d="M19.9202 5.70157C21.267 5.69809 22.6138 5.70113 23.9606 5.70027C24.4694 5.70331 24.9838 5.67594 25.4847 5.78238C26.8063 6.02263 27.9968 6.8707 28.6684 8.03244C29.0833 8.74496 29.3093 9.56826 29.3049 10.3933C29.3097 11.376 28.9891 12.3557 28.4112 13.1495C27.9772 13.7443 27.4042 14.2348 26.7499 14.5724C26.1803 14.87 25.5468 15.029 24.9082 15.082C24.697 15.0855 24.4859 15.0846 24.2747 15.092C22.8237 15.0776 21.3721 15.0902 19.9206 15.0855C19.9197 11.9573 19.9206 8.82967 19.9202 5.70157Z" fill="#FF7262"/>
<path d="M13.544 15.397C14.0006 15.2167 14.4877 15.125 14.9756 15.082C16.6239 15.0899 18.2722 15.0833 19.9206 15.0855C19.924 16.5653 19.9123 18.0455 19.9266 19.5257C19.918 19.7221 19.9188 19.9189 19.9279 20.1152C19.9093 21.5668 19.9262 23.0183 19.9193 24.4698C18.2714 24.4668 16.623 24.4755 14.9747 24.4655C14.1205 24.416 13.2807 24.1353 12.5756 23.6491C11.3665 22.8271 10.5801 21.4164 10.5384 19.9523C10.4989 18.9752 10.7782 17.9903 11.3209 17.1774C11.8566 16.375 12.6429 15.742 13.544 15.397Z" fill="#A259FF"/>
<path d="M24.2747 15.092C24.4858 15.0846 24.6969 15.0855 24.9081 15.082C25.631 15.1524 26.3466 15.3497 26.9739 15.7211C27.7542 16.176 28.3977 16.8611 28.8043 17.6675C29.5142 19.0552 29.4634 20.7973 28.6688 22.1394C27.9597 23.3659 26.6711 24.2356 25.2661 24.4259C24.3085 24.5598 23.3088 24.3929 22.4517 23.9428C21.1213 23.2646 20.1603 21.9113 19.9657 20.4294C19.9531 20.3246 19.9387 20.2199 19.9279 20.1152C19.9188 19.9189 19.9179 19.7221 19.9266 19.5257C19.9913 18.1415 20.7121 16.8112 21.8321 15.9974C22.5399 15.4717 23.3979 15.1637 24.2747 15.092Z" fill="#1ABCFE"/>
<path d="M12.6282 25.257C13.3212 24.787 14.1432 24.5293 14.9747 24.4655C16.6231 24.4754 18.2714 24.4668 19.9193 24.4698C19.9211 25.7297 19.9193 26.9897 19.9198 28.2496C19.9132 28.9169 19.9619 29.5955 19.7925 30.249C19.4458 31.7657 18.284 33.0577 16.8195 33.5769C15.3475 34.1196 13.611 33.8511 12.3732 32.8861C11.1472 31.9542 10.4286 30.3936 10.5463 28.8552C10.6288 27.4172 11.4252 26.0464 12.6282 25.257Z" fill="#0ACF83"/>
</svg>
