<svg width="53" height="53" viewBox="0 0 53 53" fill="none" xmlns="http://www.w3.org/2000/svg">
<path d="M50.9265 7.76034L31.205 0.722172C30.1505 0.34614 28.9968 1.15858 28.9968 2.27885V10.2132H23.488V2.27885C23.488 1.15913 22.3348 0.34581 21.2799 0.722172L1.55832 7.76034C0.900454 7.99513 0.461182 8.61829 0.461182 9.31703V50.5404C0.461182 51.4531 1.20113 52.1916 2.11383 52.1916H50.371C51.2837 52.1916 52.0237 51.4531 52.0237 50.5403V9.31703C52.0237 8.61829 51.5844 7.99513 50.9265 7.76034ZM48.7184 48.8862H3.76647V10.482L20.1827 4.62351V45.0299H23.488V13.5186H28.9968V45.1401H32.3021V4.62351L48.7184 10.482V48.8862Z" fill="url(#paint0_linear)"/>
<path d="M35.2769 10.6543H38.5821V15.1716H35.2769V10.6543Z" fill="url(#paint1_linear)"/>
<path d="M35.2769 20.901H38.5821V25.3082H35.2769V20.901Z" fill="url(#paint2_linear)"/>
<path d="M35.2769 30.9272H38.5821V35.3344H35.2769V30.9272Z" fill="url(#paint3_linear)"/>
<path d="M42.3281 20.901H45.6334V25.3082H42.3281V20.901Z" fill="url(#paint4_linear)"/>
<path d="M42.3281 30.9272H45.6334V35.3344H42.3281V30.9272Z" fill="url(#paint5_linear)"/>
<path d="M35.2769 41.0638H38.5821V45.471H35.2769V41.0638Z" fill="url(#paint6_linear)"/>
<path d="M42.3281 41.0638H45.6334V45.471H42.3281V41.0638Z" fill="url(#paint7_linear)"/>
<path d="M13.9027 10.6543H17.208V15.1716H13.9027V10.6543Z" fill="url(#paint8_linear)"/>
<path d="M13.9027 20.901H17.208V25.3082H13.9027V20.901Z" fill="url(#paint9_linear)"/>
<path d="M13.9027 30.9272H17.208V35.3344H13.9027V30.9272Z" fill="url(#paint10_linear)"/>
<path d="M6.85144 20.901H10.1567V25.3082H6.85144V20.901Z" fill="url(#paint11_linear)"/>
<path d="M6.85144 30.9272H10.1567V35.3344H6.85144V30.9272Z" fill="url(#paint12_linear)"/>
<path d="M13.9027 41.0638H17.208V45.471H13.9027V41.0638Z" fill="url(#paint13_linear)"/>
<path d="M6.85144 41.0638H10.1567V45.471H6.85144V41.0638Z" fill="url(#paint14_linear)"/>
<defs>
<linearGradient id="paint0_linear" x1="26.2424" y1="0.629028" x2="26.2424" y2="52.1916" gradientUnits="userSpaceOnUse">
<stop stop-color="#8200FF"/>
<stop offset="1" stop-color="#B338DE"/>
<stop offset="1" stop-color="#B338DE"/>
</linearGradient>
<linearGradient id="paint1_linear" x1="36.9295" y1="10.6543" x2="36.9295" y2="15.1716" gradientUnits="userSpaceOnUse">
<stop stop-color="#8200FF"/>
<stop offset="1" stop-color="#B338DE"/>
<stop offset="1" stop-color="#B338DE"/>
</linearGradient>
<linearGradient id="paint2_linear" x1="36.9295" y1="20.901" x2="36.9295" y2="25.3082" gradientUnits="userSpaceOnUse">
<stop stop-color="#8200FF"/>
<stop offset="1" stop-color="#B338DE"/>
<stop offset="1" stop-color="#B338DE"/>
</linearGradient>
<linearGradient id="paint3_linear" x1="36.9295" y1="30.9272" x2="36.9295" y2="35.3344" gradientUnits="userSpaceOnUse">
<stop stop-color="#8200FF"/>
<stop offset="1" stop-color="#B338DE"/>
<stop offset="1" stop-color="#B338DE"/>
</linearGradient>
<linearGradient id="paint4_linear" x1="43.9808" y1="20.901" x2="43.9808" y2="25.3082" gradientUnits="userSpaceOnUse">
<stop stop-color="#8200FF"/>
<stop offset="1" stop-color="#B338DE"/>
<stop offset="1" stop-color="#B338DE"/>
</linearGradient>
<linearGradient id="paint5_linear" x1="43.9808" y1="30.9272" x2="43.9808" y2="35.3344" gradientUnits="userSpaceOnUse">
<stop stop-color="#8200FF"/>
<stop offset="1" stop-color="#B338DE"/>
<stop offset="1" stop-color="#B338DE"/>
</linearGradient>
<linearGradient id="paint6_linear" x1="36.9295" y1="41.0638" x2="36.9295" y2="45.471" gradientUnits="userSpaceOnUse">
<stop stop-color="#8200FF"/>
<stop offset="1" stop-color="#B338DE"/>
<stop offset="1" stop-color="#B338DE"/>
</linearGradient>
<linearGradient id="paint7_linear" x1="43.9808" y1="41.0638" x2="43.9808" y2="45.471" gradientUnits="userSpaceOnUse">
<stop stop-color="#8200FF"/>
<stop offset="1" stop-color="#B338DE"/>
<stop offset="1" stop-color="#B338DE"/>
</linearGradient>
<linearGradient id="paint8_linear" x1="15.5554" y1="10.6543" x2="15.5554" y2="15.1716" gradientUnits="userSpaceOnUse">
<stop stop-color="#8200FF"/>
<stop offset="1" stop-color="#B338DE"/>
<stop offset="1" stop-color="#B338DE"/>
</linearGradient>
<linearGradient id="paint9_linear" x1="15.5554" y1="20.901" x2="15.5554" y2="25.3082" gradientUnits="userSpaceOnUse">
<stop stop-color="#8200FF"/>
<stop offset="1" stop-color="#B338DE"/>
<stop offset="1" stop-color="#B338DE"/>
</linearGradient>
<linearGradient id="paint10_linear" x1="15.5554" y1="30.9272" x2="15.5554" y2="35.3344" gradientUnits="userSpaceOnUse">
<stop stop-color="#8200FF"/>
<stop offset="1" stop-color="#B338DE"/>
<stop offset="1" stop-color="#B338DE"/>
</linearGradient>
<linearGradient id="paint11_linear" x1="8.50408" y1="20.901" x2="8.50408" y2="25.3082" gradientUnits="userSpaceOnUse">
<stop stop-color="#8200FF"/>
<stop offset="1" stop-color="#B338DE"/>
<stop offset="1" stop-color="#B338DE"/>
</linearGradient>
<linearGradient id="paint12_linear" x1="8.50408" y1="30.9272" x2="8.50408" y2="35.3344" gradientUnits="userSpaceOnUse">
<stop stop-color="#8200FF"/>
<stop offset="1" stop-color="#B338DE"/>
<stop offset="1" stop-color="#B338DE"/>
</linearGradient>
<linearGradient id="paint13_linear" x1="15.5554" y1="41.0638" x2="15.5554" y2="45.471" gradientUnits="userSpaceOnUse">
<stop stop-color="#8200FF"/>
<stop offset="1" stop-color="#B338DE"/>
<stop offset="1" stop-color="#B338DE"/>
</linearGradient>
<linearGradient id="paint14_linear" x1="8.50408" y1="41.0638" x2="8.50408" y2="45.471" gradientUnits="userSpaceOnUse">
<stop stop-color="#8200FF"/>
<stop offset="1" stop-color="#B338DE"/>
<stop offset="1" stop-color="#B338DE"/>
</linearGradient>
</defs>
</svg>
