<svg width="38" height="37" viewBox="0 0 38 37" fill="none" xmlns="http://www.w3.org/2000/svg">
<g clip-path="url(#clip0)">
<path d="M2.31036 1.90198H36.1838V34.8516H2.31036V1.90198Z" fill="url(#paint0_radial)"/>
<path d="M2.31 1.90162H36.1834V34.8512H2.31V1.90162ZM0.770325 36.391H37.7231V0.361938H0.770325V36.391ZM24.143 15.3278C23.912 15.22 23.604 15.1738 23.2345 15.1738C21.2483 15.1738 19.8626 16.6982 19.8626 19.2387C19.8626 22.1333 21.2791 23.3034 23.0498 23.3034C23.4347 23.3034 23.835 23.2572 24.143 23.1187V15.3278ZM23.3269 12.8181C23.6502 12.8181 23.835 12.8181 24.1429 12.8489V8.75329C24.1429 8.64552 24.2199 8.59934 24.2968 8.59934H26.7912C26.9143 8.59934 26.9451 8.64552 26.9451 8.7225V23.1187C26.9451 23.5498 26.9451 24.0887 27.0221 24.6738C27.0221 24.7816 26.9913 24.797 26.8835 24.8586C25.5594 25.4899 24.1583 25.767 22.8496 25.767C19.4468 25.767 17.0141 23.6577 17.0141 19.3619C16.9987 15.6819 19.4315 12.8181 23.3269 12.8181ZM14.2889 25.3359C14.2889 25.4898 14.2581 25.536 14.0887 25.536H11.7176C11.5637 25.536 11.5174 25.4591 11.5174 25.3359V8.79947C11.5174 8.64552 11.5944 8.59928 11.7176 8.59928H14.1041C14.2273 8.59928 14.2889 8.64546 14.2889 8.78408V25.3359Z" fill="#FF408C"/>
</g>
<defs>
<radialGradient id="paint0_radial" cx="0" cy="0" r="1" gradientUnits="userSpaceOnUse" gradientTransform="translate(13.4666 9.28601) scale(25.7438 24.9247)">
<stop stop-color="#4B2B36" stop-opacity="0.98"/>
<stop offset="1" stop-color="#250012"/>
</radialGradient>
<clipPath id="clip0">
<rect width="36.9527" height="36.0363" fill="white" transform="translate(0.770264 0.358276)"/>
</clipPath>
</defs>
</svg>
