<svg width="37" height="37" viewBox="0 0 37 37" fill="none" xmlns="http://www.w3.org/2000/svg">
<g clip-path="url(#clip0)">
<path d="M33.6812 0.0704346H4.20819C2.4058 0.0704346 0.944702 1.53153 0.944702 3.33392V32.8069C0.944702 34.6093 2.4058 36.0704 4.20819 36.0704H33.6812C35.4836 36.0704 36.9447 34.6093 36.9447 32.8069V3.33392C36.9447 1.53153 35.4836 0.0704346 33.6812 0.0704346Z" fill="#DC395F"/>
<path d="M12.9758 11.3971C14.1725 11.3971 15.1751 10.4592 15.1751 9.22981C15.1751 8.00131 14.1725 7.06348 12.9758 7.06348C11.7791 7.06348 10.7769 8.00131 10.7769 9.22981C10.7769 10.459 11.7791 11.3971 12.9758 11.3971ZM8.41592 23.0015C8.28669 23.5514 8.22186 24.1451 8.22186 24.6294C8.22186 26.5378 9.25672 27.8047 11.456 27.8047C13.2799 27.8047 14.7585 26.7216 15.8232 24.9727L15.1731 27.5817H18.7949L20.8649 19.2793C21.3824 17.1772 22.3849 16.0861 23.9051 16.0861C25.1016 16.0861 25.8454 16.8303 25.8454 18.0588C25.8454 18.4147 25.8131 18.8024 25.6837 19.2231L24.6163 23.0392C24.4546 23.589 24.3902 24.1392 24.3902 24.6562C24.3902 26.4679 25.4571 27.793 27.6887 27.793C29.5969 27.793 31.1167 26.5647 31.9577 23.6215L30.5348 23.0722C29.8233 25.044 29.2087 25.4004 28.7236 25.4004C28.2384 25.4004 27.9797 25.0773 27.9797 24.4308C27.9797 24.1397 28.0446 23.8167 28.1414 23.4277L29.1765 19.7099C29.4351 18.8369 29.5323 18.0628 29.5323 17.3515C29.5323 14.5702 27.8504 13.1187 25.8131 13.1187C23.9051 13.1187 21.9644 14.8398 20.9944 16.6512L21.7057 13.3999H16.1757L15.3995 16.2636H17.9869L16.3936 22.6424C15.1424 25.4236 12.8442 25.4688 12.5558 25.4042C12.0822 25.2974 11.7792 25.1175 11.7792 24.5021C11.7792 24.147 11.8439 23.637 12.0057 23.022L14.4314 13.3999H8.28669L7.51044 16.2636H10.0652L8.41606 23.0015" fill="white"/>
</g>
<defs>
<clipPath id="clip0">
<rect width="36" height="36" fill="white" transform="translate(0.944702 0.0704346)"/>
</clipPath>
</defs>
</svg>
