<svg width="299" height="190" viewBox="0 0 299 190" fill="none" xmlns="http://www.w3.org/2000/svg">
<g filter="url(#filter0_d)">
<path d="M157.017 44.3479C154.02 46.6622 151.054 48.3625 147.576 49.0132C146.732 49.1706 146.465 50.089 146.011 50.7135C144.552 52.7024 143.019 54.6231 141.015 56.124C139.423 57.3153 137.676 58.1182 135.619 58.092C132.99 58.0552 131.702 56.6383 131.996 54.0669C132.226 52.0884 133.214 50.4616 134.502 48.966C135.111 48.2575 136.035 47.7695 136.313 46.6254C133.887 46.468 132.178 47.019 131.034 49.4015C129.116 53.3951 126.829 57.2208 124.457 61.5608C141.79 59.6873 158.7 58.7532 175.659 58.3911C175.899 59.9549 173.329 60.0494 174.104 61.3404C174.676 62.3007 176.012 62.8203 177 63.5287C176.866 64.2477 176.332 64.001 175.963 63.9853C158.946 63.1509 141.961 63.9958 124.975 64.8564C123.046 64.9561 121.796 65.5754 121.102 67.3439C120.818 68.0681 120.22 68.6821 119.98 69.4168C118.884 72.7754 116.501 73.7358 113.039 72.9853C113.648 71.0016 114.946 69.3486 116.015 67.601C116.988 66.0109 116.768 65.5754 114.813 65.6488C106.975 65.9427 99.1954 66.8611 91.3999 67.622C85.6562 68.1836 79.9392 68.9707 73.9658 69.6844C74.3291 67.9789 75.574 68.0733 76.6052 67.8949C89.578 65.6751 102.551 63.4185 115.705 62.5054C118.419 62.3165 120.172 61.3771 121.144 58.8949C121.518 57.9345 122.181 57.0844 123.127 55.4838C121.123 56.8482 119.771 57.8296 118.35 58.7059C117.527 59.2097 116.619 59.6138 115.705 59.9287C114.695 60.2751 113.563 60.5689 112.692 59.6873C111.741 58.7269 111.992 57.5094 112.548 56.5071C113.627 54.5549 114.877 52.6972 115.849 50.64C112.478 52.9333 109.518 55.657 107.237 58.9316C105.789 61.0045 104.1 61.4558 101.851 61.036C101.525 59.9497 102.674 59.299 102.561 58.1392C100.836 59.2675 99.2167 60.38 97.539 61.4033C96.6361 61.9544 95.3751 62.7625 94.5737 62.1065C92.4846 60.3958 91.1061 61.7812 89.5352 62.7573C88.4666 63.4238 87.2965 63.8173 86.0142 63.8593C83.6419 63.938 82.584 62.9147 82.4665 60.6319C82.4291 59.9077 83.2358 58.7952 82.397 58.5538C81.1841 58.2022 79.7202 58.1602 78.5768 59.0313C77.8822 59.5613 77.3212 60.2593 76.6907 60.8733C67.8801 69.4535 57.894 76.0501 45.493 78.5428C42.4261 79.1568 39.3218 79.4297 36.2068 78.8367C32.9797 78.2227 31.9271 76.0081 33.546 73.2425C34.7322 71.222 36.5969 69.8576 38.5578 68.6296C43.3878 65.5964 48.656 63.4972 54.1059 61.8284C55.5057 61.3981 56.382 60.6844 57.0605 59.4564C60.7472 52.7969 64.4392 46.1374 68.2434 39.5356C69.2319 37.8248 68.7403 37.5939 67.0092 37.4994C56.0187 36.8959 45.8777 39.8242 36.1427 44.4686C33.6689 45.6493 31.2485 46.9403 28 48.5829C30.4471 44.3006 32.4988 40.6534 34.6413 37.0534C34.9031 36.6126 35.6619 36.3974 36.2336 36.198C47.4325 32.2883 58.8985 30.2259 70.8348 31.5326C71.4439 31.6009 72.2827 31.942 72.6086 31.4067C74.8206 27.7804 78.5714 29.3233 82.1993 28.2895C80.8529 30.4254 78.9935 32.0732 79.0843 33.6108C79.1698 35.0015 81.8306 35.7362 83.0328 37.1846C85.6455 40.3333 85.9234 43.7916 84.8655 47.5333C84.0052 50.5823 82.4504 53.3059 80.559 56.1765C82.6535 56.5229 84.0854 56.2447 85.3036 54.6074C86.837 52.545 88.8834 50.9654 91.261 49.8738C92.0571 49.5065 93.1311 48.8872 93.7509 49.1444C97.0368 50.5088 100.05 48.5566 103.683 48.4779C101.509 52.1304 99.5266 55.4628 97.4429 58.9578C98.8267 59.1835 99.5587 58.3281 100.323 57.7351C103.122 55.552 105.783 53.1327 107.589 50.131C109.101 47.6225 111.089 46.9613 113.787 47.1817C114.006 48.4727 112.515 49.1759 112.569 50.6033C114.337 49.2808 115.962 48.0109 117.65 46.8248C118.719 46.0744 119.953 45.6913 121.107 46.5992C122.357 47.5805 121.892 48.8085 121.267 49.9106C119.985 52.1672 118.639 54.3817 117.511 56.8062C121.47 54.98 124.468 52.0884 127.47 48.5199C125.958 48.5199 124.874 48.5199 123.757 48.5199C124.094 46.5834 125.05 45.5024 126.974 45.5759C128.603 45.6388 129.495 44.8359 130.318 43.524C133.903 37.8038 137.542 32.1047 142.452 27.3344C144.157 25.6761 145.898 24.044 148.03 22.9C148.907 22.4329 149.906 22.0236 150.803 22.6428C151.861 23.3723 151.578 24.5478 151.29 25.5291C150.664 27.644 149.457 29.486 148.094 31.223C144.696 35.5472 140.39 38.9373 136.089 42.3327C135.362 42.9047 134.406 43.314 134.064 44.71C137.291 44.4003 140.315 44.1065 144.076 43.7444C142.479 45.2505 141.336 46.2738 140.256 47.3549C138.616 48.9922 137.227 50.7922 136.773 53.117C136.42 54.9275 137.499 55.9193 139.188 55.1322C141.768 53.9357 143.323 51.6319 144.878 49.3963C145.231 48.8925 144.958 48.4464 144.648 47.9689C143.259 45.8225 144.488 44.1642 145.813 42.5846C146.47 41.7974 147.384 41.3618 148.426 41.8394C149.489 42.3222 149.633 43.2825 149.446 44.2901C149.291 45.1298 149.045 45.9537 148.837 46.7881C152.647 46.6569 156.67 43.4452 157.509 39.861C157.856 38.3758 158.454 37.0376 159.78 36.1402C160.672 35.5367 161.714 34.865 162.67 35.7886C163.664 36.7438 163.242 37.8983 162.488 38.8639C161.949 39.5513 161.286 40.1443 160.699 40.8003C160.111 41.4616 159.544 42.1543 159.443 43.0621C159.272 44.5315 159.325 45.7858 161.452 44.8674C163.402 44.0225 165.358 43.1881 167.351 42.4482C168.681 41.9549 169.29 41.1782 169.338 39.7403C169.402 37.9245 170.268 36.3869 171.759 35.2639C172.48 34.7181 173.313 34.335 174.216 34.9018C175.151 35.4843 175.093 36.4131 174.783 37.237C174.451 38.1187 174.083 39.1787 173.377 39.7035C170.775 41.6347 171.171 44.1747 171.449 46.8091C171.994 51.9835 169.803 55.1427 165.106 56.1607C163.466 56.5176 161.746 56.5911 160.752 55.0692C159.721 53.4896 160.346 51.868 161.484 50.4878C162.969 48.6773 164.941 47.5123 167.041 46.51C167.671 46.2108 168.366 45.9327 168.847 45.4604C169.269 45.0511 169.514 44.3321 169.076 43.7811C168.617 43.2038 168.109 43.8021 167.666 43.9595C166.832 44.2586 166.068 44.7467 165.224 44.9986C161.805 46.0114 159.186 47.3339 158.759 51.5794C158.422 54.917 155.462 56.5648 152.059 56.9689C150.691 57.1316 149.281 57.0739 148.458 55.8039C147.614 54.4972 147.961 53.117 148.698 51.8365C150.055 49.4855 152.449 48.4832 154.762 47.3391C155.778 46.8458 157.327 46.7199 157.017 44.3479ZM61.1586 59.5981C65.9833 58.5748 70.1402 57.7141 74.3825 57.352C75.1359 57.289 75.7717 57.0529 76.1724 56.3969C78.331 52.8599 80.2758 49.2546 79.8377 44.9304C79.6026 42.6108 78.5287 40.8161 76.3274 39.7612C75.5259 39.3782 74.9115 39.3204 74.3184 40.2073C70.0814 46.5047 65.7963 52.7759 61.1586 59.5981ZM53.8441 64.9719C50.0826 65.9742 47.1333 67.4646 44.4511 69.4535C42.9871 70.5398 40.8339 71.7573 41.5979 73.7043C42.4314 75.8139 44.9693 75.2471 46.8287 75.0162C53.4861 74.1818 59.4275 71.5212 64.8613 67.7532C68.1045 65.5019 71.1233 62.9882 73.9123 59.5299C69.1998 60.1176 65.1498 61.2616 61.0838 62.4004C59.3527 62.8885 58.1665 63.7806 57.1995 65.2657C55.9118 67.2337 54.7737 69.3276 53.0212 70.9649C52.5136 71.4372 51.803 71.8833 51.1298 71.3113C50.5261 70.8022 50.9909 70.204 51.2794 69.6739C52.0542 68.2465 52.8342 66.8244 53.8441 64.9719ZM87.7881 58.9106C87.6972 60.4955 88.1033 61.4768 89.7329 60.6109C92.741 59.0156 94.6912 56.4861 95.856 53.3689C96.0697 52.7969 96.1071 52.1147 95.5247 51.6948C94.9744 51.296 94.2905 51.4324 93.7509 51.7263C90.7428 53.3689 88.9048 55.9456 87.7881 58.9106ZM137.382 38.8219C141.138 35.9513 144.851 33.086 146.646 28.5991C146.898 27.9746 147.443 27.1822 146.753 26.6836C146.059 26.1799 145.423 26.9198 144.931 27.3659C141.437 30.5565 139.204 34.5607 137.382 38.8219ZM168.072 48.0738C166.111 48.6301 164.791 49.5642 163.685 50.829C163.274 51.3013 162.814 51.8575 163.258 52.4348C163.717 53.0278 164.407 52.7339 164.941 52.419C166.501 51.5059 167.735 50.3357 168.072 48.0738ZM155.895 48.4569C153.843 49.1077 152.476 50.0575 151.562 51.5846C151.306 52.0097 150.99 52.5397 151.418 52.9963C151.861 53.4686 152.406 53.159 152.85 52.9123C154.437 52.0202 155.548 50.7712 155.895 48.4569Z" fill="white"/>
</g>
<g filter="url(#filter1_d)">
<path d="M217.944 109.921C219.334 109.66 220.811 109.853 222.073 110.489C223.8 111.34 225.112 112.979 225.531 114.847C225.917 116.493 225.605 118.285 224.683 119.708C223.813 121.08 222.408 122.112 220.823 122.521C219.255 122.935 217.531 122.741 216.104 121.974C214.426 121.094 213.169 119.462 212.779 117.618C212.438 116.067 212.707 114.393 213.523 113.028C214.459 111.429 216.109 110.26 217.944 109.921Z" fill="white"/>
<path d="M247.444 109.947C249.047 109.606 250.779 109.896 252.177 110.751C253.773 111.709 254.928 113.367 255.23 115.195C255.539 116.945 255.067 118.81 253.961 120.207C252.707 121.837 250.639 122.82 248.569 122.729C246.054 122.675 243.687 121.019 242.751 118.713C242.03 116.999 242.116 114.976 242.985 113.33C243.866 111.622 245.544 110.338 247.444 109.947Z" fill="white"/>
<path d="M127.068 113.684C130.798 113.684 134.529 113.682 138.261 113.685C143.182 126.63 148.11 139.574 153.031 152.52C149.369 152.522 145.705 152.518 142.043 152.522C141.195 150.283 140.349 148.042 139.504 145.802C134.875 145.8 130.245 145.802 125.616 145.802C124.714 148.039 123.82 150.281 122.919 152.52C119.28 152.52 115.641 152.522 112 152.518C116.986 139.56 122.051 126.63 127.068 113.684ZM128.464 137.961C131.211 137.961 133.958 137.963 136.706 137.961C135.347 133.908 133.965 129.864 132.621 125.807C131.209 129.85 129.852 133.912 128.464 137.961Z" fill="white"/>
<path d="M159.28 127.454C162.142 125.513 165.792 124.786 169.197 125.393C171.392 125.784 173.444 126.991 174.74 128.804C174.734 127.889 174.738 126.972 174.736 126.057C177.929 126.054 181.121 126.059 184.314 126.055C184.318 132.93 184.314 139.807 184.316 146.684C184.3 149.237 184.421 151.814 183.965 154.341C183.489 157.196 182.334 160.049 180.171 162.062C177.982 164.135 174.982 165.136 172.022 165.478C167.379 166.056 162.438 165.303 158.476 162.735C155.938 161.121 153.942 158.49 153.631 155.456C157.198 155.451 160.765 155.46 164.334 155.453C164.575 156.246 165.121 156.935 165.855 157.337C167.449 158.229 169.411 158.242 171.139 157.751C172.403 157.393 173.476 156.464 173.995 155.265C174.785 153.472 174.74 151.469 174.738 149.552C173.082 151.186 171 152.468 168.669 152.845C165.149 153.426 161.357 152.687 158.467 150.566C156.045 148.818 154.352 146.167 153.64 143.295C152.853 140.127 153.074 136.711 154.298 133.68C155.307 131.187 157.031 128.966 159.28 127.454ZM167.38 133.433C166.548 133.644 165.749 134.012 165.091 134.562C163.062 136.213 162.591 139.229 163.543 141.574C164.12 143.031 165.405 144.16 166.91 144.615C168.579 145.122 170.46 145.045 172.04 144.283C173.328 143.664 174.32 142.493 174.738 141.138C175.445 138.913 174.961 136.206 173.126 134.644C171.578 133.306 169.339 132.962 167.38 133.433Z" fill="white"/>
<path d="M203.596 126.149C205.288 125.622 207.077 125.692 208.829 125.697C208.831 128.754 208.825 131.808 208.831 134.865C207.105 133.879 205.018 133.811 203.092 134.086C201.563 134.313 200.111 135.194 199.375 136.564C198.317 138.48 198.303 140.738 198.306 142.865C198.304 146.084 198.31 149.302 198.304 152.522C195.111 152.518 191.919 152.522 188.726 152.52C188.728 143.699 188.724 134.877 188.728 126.056C191.921 126.057 195.113 126.054 198.306 126.057C198.304 127.485 198.308 128.914 198.306 130.342C199.43 128.329 201.355 126.774 203.596 126.149Z" fill="white"/>
<path d="M213.402 126.057C218.911 126.054 224.418 126.057 229.927 126.055C229.929 129.18 229.927 132.304 229.929 135.428C227.587 135.43 225.247 135.428 222.907 135.428C222.905 137.987 222.905 140.545 222.907 143.103C225.247 143.105 227.587 143.103 229.927 143.103C229.929 146.257 229.929 149.41 229.927 152.563C222.09 152.563 214.252 152.563 206.415 152.563C206.413 149.411 206.415 146.259 206.413 143.107C208.743 143.1 211.073 143.105 213.402 143.105C213.406 137.422 213.402 131.74 213.402 126.057Z" fill="white"/>
<path d="M237.651 126.059C243.181 126.054 248.711 126.055 254.243 126.057C254.243 131.74 254.24 137.422 254.243 143.105C256.592 143.103 258.939 143.102 261.286 143.105C261.285 146.259 261.288 149.411 261.285 152.565C253.404 152.553 245.522 152.586 237.641 152.548C237.665 149.401 237.646 146.254 237.651 143.105C239.992 143.102 242.333 143.105 244.674 143.103C244.674 140.545 244.674 137.987 244.674 135.428C242.333 135.428 239.993 135.43 237.651 135.428C237.65 132.304 237.653 129.181 237.651 126.059Z" fill="white"/>
<path d="M263.447 149.258C264.211 149.257 264.976 149.258 265.742 149.258C265.738 149.5 265.738 149.744 265.74 149.987C265.563 149.987 265.206 149.987 265.027 149.987C265.026 150.84 265.027 151.69 265.027 152.543C264.736 152.541 264.448 152.541 264.16 152.541C264.16 151.69 264.16 150.84 264.16 149.989C263.92 149.987 263.683 149.987 263.447 149.987C263.446 149.744 263.446 149.5 263.447 149.258Z" fill="white"/>
<path d="M265.837 152.543C266.025 151.447 266.211 150.353 266.402 149.258C266.685 149.258 266.967 149.257 267.253 149.257C267.485 149.827 267.676 150.413 267.929 150.975C267.97 150.956 268.054 150.916 268.094 150.895L268.008 150.763C268.217 150.264 268.426 149.763 268.626 149.258C268.912 149.258 269.2 149.258 269.492 149.258C269.655 150.354 269.838 151.447 269.985 152.544C269.695 152.543 269.407 152.541 269.121 152.541C269.042 151.916 268.96 151.292 268.881 150.667C268.617 151.288 268.356 151.909 268.096 152.532C268.01 152.537 267.838 152.551 267.752 152.557C267.478 151.934 267.241 151.297 266.98 150.671C266.886 151.294 266.795 151.916 266.706 152.541C266.414 152.541 266.125 152.541 265.837 152.543Z" fill="white"/>
</g>
<defs>
<filter id="filter0_d" x="24" y="22.3286" width="157" height="64.8379" filterUnits="userSpaceOnUse" color-interpolation-filters="sRGB">
<feFlood flood-opacity="0" result="BackgroundImageFix"/>
<feColorMatrix in="SourceAlpha" type="matrix" values="0 0 0 0 0 0 0 0 0 0 0 0 0 0 0 0 0 0 127 0"/>
<feOffset dy="4"/>
<feGaussianBlur stdDeviation="2"/>
<feColorMatrix type="matrix" values="0 0 0 0 0 0 0 0 0 0 0 0 0 0 0 0 0 0 0.25 0"/>
<feBlend mode="normal" in2="BackgroundImageFix" result="effect1_dropShadow"/>
<feBlend mode="normal" in="SourceGraphic" in2="effect1_dropShadow" result="shape"/>
</filter>
<filter id="filter1_d" x="108" y="109.807" width="165.985" height="63.8542" filterUnits="userSpaceOnUse" color-interpolation-filters="sRGB">
<feFlood flood-opacity="0" result="BackgroundImageFix"/>
<feColorMatrix in="SourceAlpha" type="matrix" values="0 0 0 0 0 0 0 0 0 0 0 0 0 0 0 0 0 0 127 0"/>
<feOffset dy="4"/>
<feGaussianBlur stdDeviation="2"/>
<feColorMatrix type="matrix" values="0 0 0 0 0 0 0 0 0 0 0 0 0 0 0 0 0 0 0.25 0"/>
<feBlend mode="normal" in2="BackgroundImageFix" result="effect1_dropShadow"/>
<feBlend mode="normal" in="SourceGraphic" in2="effect1_dropShadow" result="shape"/>
</filter>
</defs>
</svg>
