<svg width="299" height="190" viewBox="0 0 299 190" fill="none" xmlns="http://www.w3.org/2000/svg">
<g clip-path="url(#clip0)" filter="url(#filter0_d)">
<path d="M206.06 149.677H205.152V157.545H206.06V149.677ZM239.075 112.967V130.746C239.02 130.746 238.969 130.746 238.914 130.746C238.859 130.746 238.809 130.746 238.754 130.746V112.967H238.593V58.7472H238.437V27.1744C238.598 27.1702 238.754 27.1702 238.914 27.1702C239.075 27.1702 239.231 27.1744 239.391 27.1744V58.7472H239.235V112.967H239.075ZM241.359 27.2815C241.68 27.3114 241.996 27.3457 242.313 27.3842V58.9056H242.157V112.808H241.996V130.57C241.891 130.583 241.781 130.596 241.675 130.609V112.808H241.515V58.9056H241.359V27.2815ZM244.276 27.7139C244.597 27.7781 244.913 27.8509 245.23 27.9279V59.3936H245.074V112.32H244.913V130.065C244.808 130.091 244.698 130.112 244.593 130.138V112.32H244.432V59.3936H244.276V27.7139ZM247.197 28.493C247.518 28.6 247.835 28.7071 248.152 28.8227V60.177H247.995V111.481H247.835V129.209C247.729 129.247 247.62 129.286 247.514 129.324V111.481H247.354V60.177H247.197V28.493ZM250.119 29.6446C250.44 29.7945 250.756 29.9486 251.073 30.1112V61.4613H250.917V110.248H250.756V127.967C250.651 128.019 250.541 128.074 250.436 128.126V110.252H250.275V61.4613H250.119V29.6446ZM253.036 31.2286C253.357 31.4298 253.678 31.6353 253.99 31.8494V63.1395H253.834V108.57H253.674V126.276C253.568 126.349 253.458 126.418 253.353 126.486V108.566H253.192V63.1395H253.036V31.2286ZM255.958 33.3306C256.283 33.596 256.599 33.8743 256.912 34.1526V65.3742H256.756V106.335H256.595V124.046C256.49 124.14 256.38 124.23 256.274 124.32V106.331H256.114V65.3699H255.958V33.3306ZM258.875 36.1261C259.2 36.49 259.521 36.8582 259.829 37.2392V68.3795H259.673V103.334H259.513V121.062C259.407 121.186 259.301 121.315 259.192 121.439V103.334H259.031V68.3795H258.875V36.1261ZM261.797 39.9919C262.134 40.527 262.451 41.075 262.751 41.6358V72.6563H262.595V99.0532H262.434V116.854C262.329 117.038 262.223 117.222 262.113 117.406V99.0532H261.953V72.6606H261.797V39.9919ZM264.718 46.3193C265.136 47.6421 265.457 49.0035 265.672 50.3991V80.8416H265.516V90.8679H265.356V109.204C265.258 109.645 265.153 110.081 265.035 110.518V90.8679H264.874V80.8416H264.718V46.3193ZM236.153 130.609C236.048 130.596 235.938 130.583 235.832 130.57V112.616H235.672V58.9056H235.516V27.3842C235.832 27.3457 236.149 27.3114 236.47 27.2815V58.9056H236.314V112.616H236.153V130.609ZM233.236 130.138C233.13 130.116 233.02 130.091 232.915 130.065V112.32H232.755V59.3936H232.598V27.9279C232.915 27.8509 233.232 27.7781 233.552 27.7139V59.3936H233.396V112.32H233.236V130.138ZM230.314 129.324C230.209 129.286 230.099 129.247 229.993 129.209V111.481H229.833V60.237H229.677V28.8269C229.993 28.7113 230.31 28.6 230.631 28.4973V60.2412H230.475V111.485H230.314V129.324ZM227.393 128.126C227.287 128.074 227.177 128.023 227.072 127.967V110.248H226.911V61.4613H226.755V30.1112C227.068 29.9486 227.389 29.7945 227.709 29.6446V61.4613H227.553V110.248H227.393V128.126ZM224.475 126.49C224.37 126.422 224.26 126.349 224.155 126.281V108.57H223.994V63.1395H223.838V31.8494C224.15 31.6353 224.467 31.4298 224.792 31.2286V63.1438H224.636V108.574H224.475V126.49ZM221.554 124.324C221.448 124.234 221.339 124.14 221.233 124.05V106.34H221.073V65.3785H220.916V34.1568C221.229 33.8743 221.546 33.6003 221.871 33.3349V65.3828H221.714V106.344H221.554V124.324ZM218.632 121.439C218.523 121.315 218.417 121.191 218.312 121.062V103.334H218.151V68.3795H217.995V37.2392C218.303 36.8582 218.62 36.49 218.949 36.1261V68.3838H218.793V103.334H218.632V121.439ZM215.715 117.41C215.605 117.226 215.5 117.042 215.394 116.858V99.0532H215.234V72.6606H215.078V41.6401C215.377 41.0793 215.694 40.5313 216.032 39.9962V72.6606H215.876V99.0532H215.715V117.41ZM212.794 110.522C212.675 110.09 212.57 109.649 212.473 109.208V90.8679H212.312V80.8416H212.156V50.3991C212.371 49.0035 212.692 47.6379 213.11 46.3193V80.8459H212.954V90.8721H212.794V110.522ZM215.821 149.677H215.162V155.876L215.196 156.167L211.232 149.677H210.29V157.545H210.949V151.213L210.89 150.837H210.902L215.035 157.545H215.825V149.677H215.821ZM245.783 149.677H244.732L241.996 156.419H241.983L239.248 149.677H238.137L238.15 149.711L238.125 149.677L238.091 157.545H238.75L238.775 150.802L241.473 157.545H242.203L244.888 150.802H244.901L244.935 157.545H245.817L245.783 149.677ZM255.185 153.624C255.185 155.888 254.337 157.087 252.808 157.087C251.293 157.087 250.457 155.888 250.457 153.624C250.457 151.372 251.305 150.147 252.808 150.147C254.324 150.152 255.185 151.372 255.185 153.624ZM256.152 153.624C256.152 151.128 254.911 149.57 252.808 149.57C250.718 149.57 249.49 151.132 249.49 153.624C249.49 156.128 250.718 157.669 252.808 157.669C254.911 157.669 256.152 156.132 256.152 153.624ZM261.59 150.212C262.687 150.212 263.262 150.828 263.262 152.125C263.262 153.615 262.675 154.086 261.695 154.086H260.728V150.212H261.59ZM261.695 149.677H259.821V157.545H260.728V154.625H261.911L263.688 157.545H264.727L262.78 154.459C263.57 154.142 264.211 153.405 264.211 152.087C264.216 150.524 263.262 149.677 261.695 149.677ZM272.676 156.967H269.143V153.842H272.14V153.285H269.143V150.259H272.415V149.677H268.235V157.545H272.676V156.967ZM226.456 152.635C226.831 152.361 227.114 152.1 227.304 151.847C227.549 151.517 227.676 151.158 227.676 150.768C227.676 150.477 227.587 150.237 227.414 150.04C227.241 149.848 227.009 149.749 226.722 149.749C226.396 149.749 226.143 149.856 225.97 150.075C225.797 150.293 225.708 150.563 225.708 150.884C225.708 151.094 225.763 151.338 225.869 151.612C225.97 151.89 226.168 152.228 226.456 152.635ZM229.022 155.828L230.517 157.571C230.31 157.554 230.158 157.541 230.065 157.537C229.968 157.528 229.879 157.524 229.791 157.524L229.111 157.562C228.913 157.271 228.794 157.1 228.752 157.04C228.655 156.903 228.524 156.736 228.36 156.543C227.659 157.327 226.798 157.716 225.78 157.716C225.121 157.716 224.577 157.532 224.15 157.164C223.724 156.796 223.513 156.308 223.513 155.691C223.513 155.152 223.72 154.651 224.134 154.189C224.475 153.808 224.965 153.457 225.603 153.136L225.674 153.101C225.404 152.69 225.223 152.395 225.138 152.22C224.965 151.864 224.877 151.53 224.877 151.213C224.877 150.674 225.045 150.237 225.383 149.912C225.721 149.587 226.164 149.42 226.713 149.42C227.173 149.42 227.553 149.531 227.849 149.754C228.144 149.976 228.292 150.289 228.292 150.691C228.292 151.145 228.119 151.573 227.769 151.976C227.536 152.241 227.173 152.545 226.671 152.883C227.156 153.512 227.646 154.142 228.14 154.771L228.773 155.499C228.997 155.173 229.242 154.784 229.508 154.326C229.774 153.868 230.002 153.461 230.196 153.101C230.243 153.183 230.306 153.264 230.382 153.35C230.458 153.435 230.547 153.517 230.652 153.598C230.091 154.446 229.554 155.191 229.022 155.828ZM225.869 153.397L225.772 153.457C225.358 153.722 225.05 153.988 224.851 154.257C224.598 154.596 224.467 154.985 224.467 155.422C224.467 155.931 224.636 156.351 224.974 156.689C225.311 157.023 225.729 157.19 226.223 157.19C226.54 157.19 226.869 157.108 227.203 156.946C227.536 156.783 227.84 156.565 228.11 156.291C227.794 155.897 227.41 155.413 226.966 154.844C226.523 154.274 226.156 153.791 225.869 153.397Z" fill="white"/>
</g>
<g clip-path="url(#clip1)" filter="url(#filter1_d)">
<path fill-rule="evenodd" clip-rule="evenodd" d="M30.6464 20.594H46.7931L46.791 14.6525H54.4415L54.4374 32.2405H46.7931V25.2763H30.6464V32.2405H23.0101L23 14.6525L30.6464 14.6504V20.594Z" fill="white"/>
<path fill-rule="evenodd" clip-rule="evenodd" d="M159.506 18.4116C158.203 15.6918 155.441 14.6545 152.853 14.6545H126.954V31.5974L114.921 14.6545L101.781 14.6649L89.7617 31.5891V28.2242H66.0516V25.4588H89.7678V21.4466H66.0516V18.673H89.7617V14.6608H58.3992V32.2405H98.005L100.028 29.3901H116.681L118.704 32.2405H152.867C155.455 32.2405 158.215 31.2033 159.52 28.4897C161.009 25.3779 161.111 21.3657 159.506 18.4074V18.4116ZM102.851 25.4049L107.303 19.1314H109.405L113.856 25.4028L102.851 25.4049ZM152.96 25.714C152.541 26.5293 151.684 26.7513 150.937 26.7513H134.626V20.1874H150.921C151.663 20.1874 152.523 20.4114 152.944 21.2247C153.285 21.9209 153.462 22.6892 153.462 23.4683C153.462 24.2473 153.285 25.0156 152.944 25.7119L152.96 25.714Z" fill="white"/>
<path fill-rule="evenodd" clip-rule="evenodd" d="M162.363 11.3601C162.687 11.3629 163 11.4809 163.249 11.6939C163.498 11.9069 163.668 12.2018 163.728 12.5284C163.789 12.855 163.738 13.193 163.582 13.485C163.427 13.777 163.179 14.0049 162.878 14.1299C162.578 14.2549 162.244 14.2692 161.935 14.1705C161.625 14.0718 161.358 13.8661 161.18 13.5884C161.002 13.3108 160.923 12.9783 160.956 12.6477C160.99 12.317 161.135 12.0086 161.365 11.775C161.495 11.6399 161.651 11.5335 161.822 11.4622C161.994 11.3908 162.178 11.3561 162.363 11.3601ZM163.998 12.7998C163.983 12.3663 163.805 11.9556 163.5 11.6543C163.196 11.353 162.789 11.1846 162.366 11.1846C161.943 11.1846 161.536 11.353 161.232 11.6543C160.927 11.9556 160.749 12.3663 160.734 12.7998C160.73 13.0202 160.77 13.239 160.852 13.4431C160.933 13.6471 161.054 13.8319 161.208 13.9865C161.436 14.2207 161.728 14.3802 162.045 14.4447C162.362 14.5092 162.691 14.4758 162.989 14.3488C163.288 14.2218 163.543 14.0068 163.723 13.7311C163.902 13.4554 163.998 13.1313 163.998 12.7998ZM162.8 12.4368C162.804 12.4986 162.787 12.5599 162.753 12.611C162.719 12.6621 162.669 12.7001 162.612 12.7189C162.511 12.7516 162.406 12.7663 162.3 12.7625H162.003V12.1028H162.282C162.415 12.0935 162.548 12.1148 162.673 12.165C162.716 12.1928 162.751 12.2328 162.773 12.2802C162.794 12.3277 162.803 12.3806 162.796 12.4326L162.8 12.4368ZM161.697 11.8704V13.7126H161.999V12.9948H162.268C162.391 12.9851 162.514 13.0057 162.628 13.055C162.69 13.1024 162.738 13.1658 162.769 13.2386C162.799 13.3115 162.81 13.3913 162.8 13.4699V13.6151V13.6773V13.696V13.7147H163.095L163.083 13.6919L163.067 13.5944V13.4574V13.3205C163.064 13.2181 163.031 13.1191 162.972 13.0363C162.937 12.9852 162.892 12.9425 162.84 12.9109C162.787 12.8794 162.729 12.8599 162.668 12.8537C162.76 12.8429 162.848 12.8132 162.927 12.7666C162.984 12.7264 163.03 12.6719 163.061 12.6083C163.091 12.5448 163.105 12.4743 163.101 12.4036C163.11 12.3053 163.088 12.2066 163.038 12.1225C162.987 12.0383 162.912 11.9732 162.822 11.9368C162.663 11.8859 162.496 11.8641 162.329 11.8725L161.697 11.8704Z" fill="white"/>
<path d="M137.55 36.5991H138.702V43.0759H137.55V36.5991ZM138.277 42.2647H139.725C139.937 42.2775 140.147 42.2286 140.332 42.1236C140.4 42.082 140.456 42.0226 140.494 41.9515C140.532 41.8804 140.551 41.8002 140.549 41.7191V40.8727C140.553 40.7264 140.515 40.5822 140.44 40.4578C140.365 40.3406 140.259 40.2483 140.134 40.1922C139.988 40.1288 139.83 40.0977 139.671 40.101H138.283V39.3002H139.671C139.874 39.3141 140.075 39.2489 140.233 39.1176C140.302 39.0525 140.356 38.9726 140.391 38.8836C140.426 38.7947 140.441 38.6989 140.436 38.6031V37.9434C140.438 37.8648 140.421 37.7868 140.386 37.717C140.35 37.6472 140.298 37.588 140.233 37.5451C140.068 37.4411 139.876 37.3911 139.683 37.402H138.283V36.6012H139.665C140.016 36.5931 140.367 36.6443 140.703 36.7526C140.958 36.8318 141.186 36.9853 141.358 37.1945C141.51 37.3947 141.589 37.6424 141.583 37.8957V38.5803C141.587 38.7685 141.541 38.9543 141.449 39.1176C141.356 39.2792 141.224 39.4129 141.065 39.5056C140.878 39.6142 140.671 39.6846 140.458 39.713C140.691 39.7371 140.917 39.8076 141.124 39.9205C141.297 40.0133 141.443 40.1523 141.546 40.3229C141.646 40.4976 141.697 40.6973 141.692 40.8997V41.7523C141.7 42.0105 141.623 42.2639 141.474 42.4722C141.309 42.6828 141.087 42.8393 140.836 42.9224C140.51 43.0331 140.168 43.0857 139.825 43.0779H138.281L138.277 42.2647Z" fill="white"/>
<path d="M143.89 43.0759H142.74V36.5991H143.89V43.0759Z" fill="white"/>
<path d="M145.089 36.5991H146.239V43.0759H145.089V36.5991ZM145.99 40.2026L148.307 36.5991H149.565L145.903 41.856L145.99 40.2026ZM146.874 39.6093L147.655 38.9475L149.836 43.0759H148.527L146.874 39.6093Z" fill="white"/>
<path d="M150.502 36.5991H151.651V43.0759H150.502V36.5991ZM151.109 36.5991H154.288V37.3999H151.101L151.109 36.5991ZM151.109 39.4537H153.972V40.2545H151.101L151.109 39.4537ZM151.109 42.2647H154.288V43.0759H151.101L151.109 42.2647Z" fill="white"/>
<path d="M156.103 42.9575C155.816 42.8626 155.562 42.6829 155.374 42.4409C155.206 42.1995 155.119 41.908 155.128 41.6111V41.2916H156.277V41.58C156.271 41.6851 156.292 41.79 156.337 41.8847C156.382 41.9794 156.45 42.0608 156.534 42.1214C156.755 42.2602 157.012 42.3261 157.27 42.3102C157.522 42.3268 157.772 42.2614 157.985 42.1235C158.067 42.0618 158.134 41.9796 158.177 41.8845C158.221 41.7895 158.24 41.6847 158.233 41.58V41.0157C158.235 40.9415 158.222 40.8677 158.194 40.7989C158.167 40.7301 158.127 40.6677 158.076 40.6153C157.963 40.5006 157.829 40.4091 157.683 40.3456C157.525 40.2765 157.307 40.1955 157.027 40.1029H157.003H156.979L156.896 40.0759C156.584 39.9754 156.279 39.8534 155.983 39.7108C155.748 39.595 155.54 39.4263 155.376 39.2171C155.206 38.9875 155.119 38.7045 155.13 38.4163V38.0428C155.121 37.7508 155.207 37.464 155.374 37.2275C155.561 36.9871 155.813 36.8093 156.099 36.7172C156.474 36.5939 156.866 36.5358 157.26 36.545C157.644 36.535 158.026 36.5947 158.389 36.7214C158.669 36.816 158.914 36.9954 159.091 37.2358C159.256 37.4789 159.34 37.7699 159.33 38.0657V38.4038H158.181V38.1009C158.187 37.9978 158.168 37.8947 158.127 37.8004C158.086 37.7062 158.023 37.6235 157.944 37.5595C157.743 37.4201 157.502 37.3537 157.26 37.3707C157.005 37.3543 156.75 37.4164 156.53 37.5491C156.449 37.6049 156.384 37.6809 156.34 37.7698C156.296 37.8588 156.275 37.9578 156.279 38.0574V38.4619C156.277 38.5384 156.29 38.6145 156.317 38.6858C156.344 38.7571 156.385 38.822 156.437 38.8768C156.549 38.9934 156.683 39.0851 156.831 39.1465C156.987 39.215 157.204 39.2917 157.479 39.3809L157.558 39.4079L157.637 39.4349L157.699 39.4556L157.762 39.4743C158.051 39.5656 158.335 39.6765 158.61 39.8062C158.825 39.9119 159.012 40.0683 159.156 40.2626C159.313 40.4892 159.391 40.7631 159.379 41.0406V41.6318C159.388 41.9285 159.302 42.22 159.134 42.4616C158.95 42.7024 158.701 42.8822 158.418 42.9782C158.046 43.1032 157.657 43.1621 157.266 43.1525C156.87 43.1553 156.477 43.0894 156.103 42.9575Z" fill="white"/>
</g>
<g clip-path="url(#clip2)" filter="url(#filter2_d)">
<path d="M37.1802 99.2458C37.1802 101.249 36.5104 102.895 35.2383 104.028C33.9974 105.125 32.3099 105.673 30.1499 105.673H29.802C26.5256 105.673 24.2047 104.35 23.2493 101.924L26.0791 100.759C26.5568 101.956 27.7977 102.568 29.802 102.568H30.1499C31.5154 102.568 32.5695 102.278 33.2341 101.698C33.8364 101.149 34.1272 100.342 34.1272 99.2405V99.2089C33.0472 99.7889 31.7075 100.079 30.1499 100.079C28.021 100.079 26.3024 99.5305 25.0926 98.4338C23.8204 97.3054 23.1506 95.655 23.1506 93.6514V89.4859C23.1506 87.4823 23.8204 85.8056 25.0926 84.6719C26.3024 83.6069 28.021 83.0269 30.1499 83.0269C31.7075 83.0269 33.0472 83.3169 34.1272 83.9338V83.0269H37.1802V99.2458ZM27.0916 87.0341C26.4893 87.5509 26.2037 88.3892 26.2037 89.4912V93.6567C26.2037 94.7534 26.4893 95.597 27.0916 96.1138C27.7302 96.6938 28.8103 96.9838 30.1447 96.9838C31.5103 96.9838 32.5643 96.6938 33.2289 96.1138C33.8312 95.597 34.122 94.7587 34.122 93.6567V89.4912C34.122 88.3945 33.8364 87.5509 33.2289 87.0341C32.5591 86.4541 31.5103 86.1325 30.1447 86.1325C28.8103 86.1325 27.7302 86.4541 27.0916 87.0341Z" fill="white"/>
<path d="M53.0843 84.7089C54.3564 85.8372 55.0262 87.4876 55.0262 89.4912V93.6567C55.0262 95.6603 54.3564 97.3054 53.0843 98.439C51.8433 99.5358 50.1558 100.084 48.027 100.084C45.8618 100.084 44.1795 99.5358 42.9385 98.439C41.6664 97.3107 40.9966 95.6603 40.9966 93.6567V89.4912C40.9966 87.4876 41.6664 85.8425 42.9385 84.7089C44.1795 83.6121 45.867 83.0269 48.027 83.0269C50.1558 83.0321 51.8433 83.6121 53.0843 84.7089ZM44.9375 87.0341C44.3664 87.5509 44.0497 88.3892 44.0497 89.4912V93.6567C44.0497 94.7534 44.3664 95.5601 44.9375 96.1138C45.6073 96.6938 46.6562 96.9838 48.0218 96.9838C49.3562 96.9838 50.405 96.6938 51.0749 96.1138C51.6772 95.5654 51.9679 94.7587 51.9679 93.6567V89.4912C51.9679 88.3945 51.6824 87.5509 51.0749 87.0341C50.405 86.4541 49.3562 86.1325 48.0218 86.1325C46.6562 86.1325 45.6073 86.4541 44.9375 87.0341Z" fill="white"/>
<path d="M79.8662 84.6772C81.1383 85.8056 81.8081 87.456 81.8081 89.4596V93.6567C81.8081 95.6603 81.1383 97.3054 79.8662 98.439C78.6252 99.5358 76.9066 100.084 74.7777 100.084C73.22 100.084 71.8804 99.7941 70.8004 99.2141V105.673H67.7473V83.0269H70.8004V83.8969C71.8804 83.3169 73.22 83.0269 74.7777 83.0269C76.9066 83.0321 78.6252 83.5805 79.8662 84.6772ZM71.7246 87.0025C71.1223 87.5509 70.8004 88.3576 70.8004 89.4596V93.6567C70.8004 94.7534 71.1171 95.5601 71.7246 96.1138C72.3633 96.6621 73.4121 96.9838 74.7777 96.9838C76.1433 96.9838 77.1973 96.6621 77.8308 96.1138C78.4331 95.5654 78.755 94.7587 78.755 93.6567V89.4596C78.755 88.3629 78.4383 87.5561 77.8308 87.0025C77.1973 86.4225 76.1433 86.1325 74.7777 86.1325C73.4069 86.1325 72.3581 86.4225 71.7246 87.0025Z" fill="white"/>
<path d="M92.6548 86.1323C91.2893 86.1323 90.2352 86.4223 89.5706 87.0023C88.9994 87.5507 88.6827 88.3574 88.6827 89.4594V100.089H85.6296V83.032H88.6827V83.902C89.7627 83.322 91.1023 83.032 92.66 83.032H94.0256V86.1323H92.6548Z" fill="white"/>
<path d="M100.573 79.3464C100.573 80.3483 99.7474 81.2182 98.7298 81.2182C97.7432 81.2182 96.8865 80.3483 96.8865 79.3464C96.8865 78.313 97.7432 77.4746 98.7298 77.4746C99.7474 77.4746 100.573 78.313 100.573 79.3464ZM97.2032 100.084V83.0268H100.256V100.084H97.2032Z" fill="white"/>
<path d="M117.116 84.7089C118.388 85.8372 119.058 87.4876 119.058 89.4912V100.084H116.005V89.4912C116.005 88.3945 115.719 87.5509 115.112 87.0341C114.442 86.4541 113.393 86.1325 112.059 86.1325C110.693 86.1325 109.639 86.4541 108.974 87.0341C108.403 87.5509 108.087 88.3892 108.087 89.4912V100.084H105.033V83.0269H108.087V83.9338C109.167 83.3538 110.506 83.0269 112.064 83.0269C114.187 83.0321 115.875 83.6121 117.116 84.7089Z" fill="white"/>
<path d="M130.824 83.0321V86.1324H126.877V93.6566C126.877 94.7533 127.163 95.5601 127.771 96.1137C128.44 96.6937 129.489 96.9837 130.824 96.9837V100.084C128.695 100.084 127.007 99.5357 125.766 98.439C124.494 97.3106 123.824 95.6602 123.824 93.6566V86.1324H121.914V83.0321H123.824V77.4746H126.877V83.0321H130.824Z" fill="white"/>
</g>
<g filter="url(#filter3_d)">
<path d="M41.5453 164.617C40.2619 165.691 38.8242 166.515 37.2328 167.09C35.6414 167.664 33.9918 167.952 32.285 167.952C30.976 167.952 29.7118 167.783 28.4925 167.446C27.2859 167.121 26.1499 166.659 25.0848 166.059C24.0326 165.447 23.0695 164.717 22.1972 163.867C21.3248 163.018 20.5737 162.081 19.9448 161.058C19.3287 160.021 18.8472 158.916 18.5007 157.742C18.1671 156.555 18 155.325 18 154.051C18 152.777 18.1671 151.547 18.5007 150.361C18.8472 149.174 19.3287 148.069 19.9448 147.045C20.5737 146.008 21.3243 145.065 22.1972 144.216C23.07 143.367 24.0326 142.643 25.0848 142.043C26.1499 141.431 27.2859 140.962 28.4925 140.638C29.7118 140.301 30.976 140.132 32.285 140.132C33.9923 140.132 35.6414 140.419 37.2328 140.994C38.8242 141.556 40.2619 142.38 41.5453 143.466L38.6192 148.15C37.8104 147.301 36.8543 146.651 35.7508 146.202C34.6468 145.74 33.492 145.509 32.2855 145.509C31.0662 145.509 29.9237 145.734 28.8587 146.183C27.7936 146.633 26.8631 147.245 26.0671 148.019C25.2711 148.781 24.6423 149.687 24.1804 150.736C23.7181 151.772 23.4875 152.878 23.4875 154.052C23.4875 155.226 23.7186 156.331 24.1804 157.368C24.6427 158.391 25.2716 159.291 26.0671 160.065C26.8631 160.84 27.7936 161.452 28.8587 161.901C29.9237 162.351 31.0662 162.575 32.2855 162.575C33.492 162.575 34.6473 162.351 35.7508 161.901C36.8548 161.439 37.8109 160.783 38.6192 159.934L41.5453 164.617ZM47.644 167.371H43.7021V146.337H47.644V152.983C48.1156 152.636 48.6016 152.393 49.1023 152.253C49.6031 152.103 50.1132 152.028 50.6326 152.028C51.5858 152.028 52.4809 152.206 53.3182 152.562C54.1556 152.908 54.8826 153.391 55.4986 154.009C56.1246 154.618 56.6155 155.335 56.9713 156.158C57.337 156.973 57.5198 157.845 57.5198 158.772V167.371H53.5489V158.772H53.578C53.578 158.379 53.5011 158.008 53.3468 157.662C53.193 157.306 52.9811 156.997 52.7115 156.734C52.4419 156.472 52.129 156.266 51.7731 156.116C51.4168 155.967 51.0368 155.891 50.6322 155.891C50.2182 155.891 49.8283 155.966 49.4626 156.116C49.0969 156.266 48.779 156.472 48.5094 156.734C48.2398 156.997 48.0279 157.306 47.8741 157.662C47.7203 158.009 47.643 158.379 47.643 158.772V167.371H47.644ZM75.3091 167.371H74.3564L72.8256 165.305C72.4505 165.633 72.0508 165.942 71.6274 166.233C71.2134 166.514 70.7753 166.762 70.3135 166.978C69.8512 167.184 69.3746 167.348 68.8837 167.469C68.4026 167.591 67.9118 167.652 67.411 167.652C66.3233 167.652 65.2981 167.474 64.3356 167.118C63.3824 166.762 62.545 166.247 61.823 165.572C61.1108 164.889 60.5475 164.055 60.1335 163.071C59.7195 162.088 59.5125 160.968 59.5125 159.713C59.5125 158.543 59.7195 157.47 60.1335 156.496C60.5475 155.512 61.1103 154.669 61.823 153.967C62.545 153.264 63.3824 152.721 64.3356 152.337C65.2981 151.944 66.3233 151.747 67.411 151.747C67.9118 151.747 68.4071 151.808 68.8985 151.93C69.3894 152.052 69.8655 152.22 70.3278 152.436C70.7896 152.651 71.2277 152.904 71.6417 153.195C72.0651 153.485 72.4599 153.799 72.8256 154.136L74.3564 152.351H75.3091V167.371ZM71.3386 159.713C71.3386 159.189 71.2326 158.683 71.0207 158.196C70.8186 157.699 70.5397 157.264 70.1833 156.889C69.827 156.505 69.4086 156.201 68.927 155.976C68.4554 155.742 67.9502 155.625 67.411 155.625C66.8718 155.625 66.3617 155.714 65.8807 155.892C65.4085 156.07 64.995 156.332 64.6387 156.679C64.2922 157.026 64.0177 157.456 63.8156 157.971C63.6135 158.477 63.5125 159.058 63.5125 159.714C63.5125 160.369 63.6135 160.955 63.8156 161.47C64.0177 161.976 64.2922 162.402 64.6387 162.749C64.995 163.095 65.4085 163.358 65.8807 163.536C66.3617 163.714 66.8718 163.803 67.411 163.803C67.9502 163.803 68.4554 163.691 68.927 163.466C69.4086 163.232 69.827 162.927 70.1833 162.552C70.5397 162.168 70.8186 161.733 71.0207 161.246C71.2326 160.748 71.3386 160.238 71.3386 159.713ZM82.2687 167.371H78.3268V152.323H79.28L80.5797 154.107C81.215 153.545 81.937 153.114 82.7453 152.815C83.5541 152.505 84.3915 152.351 85.2579 152.351H88.7375V156.173H85.2579C84.8439 156.173 84.4541 156.248 84.0884 156.398C83.7227 156.547 83.4048 156.754 83.1352 157.016C82.8656 157.278 82.6541 157.587 82.4999 157.944C82.3461 158.299 82.2687 158.679 82.2687 159.082V167.371ZM94.1811 173.104V169.239L96.3763 169.268C96.7612 169.268 97.1319 169.207 97.4877 169.085C97.844 168.963 98.1713 168.795 98.47 168.579C98.778 168.364 99.0471 168.106 99.2783 167.806C99.5094 167.516 99.6972 167.198 99.8416 166.851C99.4084 167.029 98.9653 167.207 98.5128 167.385C98.0703 167.563 97.6227 167.652 97.1703 167.652C96.2171 167.652 95.3221 167.488 94.4847 167.16C93.6469 166.833 92.9105 166.369 92.2752 165.77C91.6498 165.16 91.154 164.425 90.7883 163.563C90.4319 162.692 90.254 161.718 90.254 160.641V152.323H94.1811V160.641C94.1811 161.175 94.2585 161.643 94.4123 162.046C94.5759 162.439 94.7927 162.772 95.0623 163.044C95.3314 163.306 95.6444 163.503 96.0007 163.633C96.3664 163.764 96.7563 163.83 97.1703 163.83C97.5744 163.83 97.9549 163.741 98.3108 163.563C98.6765 163.375 98.9944 163.132 99.264 162.833C99.5336 162.533 99.745 162.196 99.8993 161.821C100.053 161.437 100.13 161.044 100.13 160.641V152.323H104.101V165.474C104.092 166.533 103.88 167.525 103.466 168.453C103.052 169.38 102.484 170.19 101.762 170.883C101.05 171.577 100.217 172.125 99.264 172.528C98.3108 172.93 97.2906 173.132 96.2028 173.132L94.1811 173.104ZM119.767 167.371H114.262V145.883H105.964V140.506H128.046V145.883H119.767V167.371ZM134.563 148.234C134.563 148.59 134.491 148.923 134.347 149.232C134.212 149.541 134.024 149.812 133.783 150.047C133.543 150.271 133.259 150.454 132.931 150.595C132.614 150.726 132.272 150.791 131.906 150.791C131.54 150.791 131.194 150.726 130.867 150.595C130.549 150.454 130.27 150.271 130.029 150.047C129.798 149.812 129.61 149.541 129.466 149.232C129.331 148.922 129.264 148.59 129.264 148.234C129.264 147.887 129.331 147.56 129.466 147.25C129.61 146.932 129.798 146.661 130.029 146.436C130.27 146.202 130.549 146.019 130.867 145.887C131.194 145.747 131.54 145.677 131.906 145.677C132.272 145.677 132.614 145.747 132.931 145.887C133.259 146.018 133.543 146.201 133.783 146.436C134.024 146.661 134.212 146.932 134.347 147.25C134.491 147.559 134.563 147.887 134.563 148.234ZM133.884 167.371H129.913V152.323H133.884V167.371ZM156.568 167.371H152.641V157.816C152.641 157.554 152.588 157.306 152.482 157.072C152.386 156.838 152.246 156.631 152.063 156.453C151.881 156.275 151.669 156.14 151.428 156.046C151.187 155.943 150.932 155.891 150.663 155.891C150.393 155.891 150.138 155.943 149.897 156.046C149.667 156.139 149.46 156.275 149.277 156.453C149.103 156.631 148.964 156.838 148.858 157.072C148.762 157.306 148.713 157.554 148.713 157.816V167.371H144.772V157.816C144.772 157.554 144.718 157.306 144.613 157.072C144.516 156.838 144.377 156.631 144.194 156.453C144.011 156.275 143.799 156.14 143.559 156.046C143.318 155.943 143.063 155.891 142.793 155.891C142.524 155.891 142.269 155.943 142.028 156.046C141.797 156.139 141.59 156.275 141.407 156.453C141.234 156.631 141.094 156.838 140.988 157.072C140.892 157.306 140.844 157.554 140.844 157.816V167.371H136.902V152.323H137.855L138.924 153.475C139.472 153.025 140.074 152.679 140.729 152.435C141.393 152.182 142.081 152.056 142.793 152.056C143.515 152.056 144.218 152.186 144.902 152.449C145.595 152.711 146.201 153.165 146.721 153.812C146.961 153.493 147.236 153.222 147.544 152.997C147.852 152.772 148.174 152.589 148.511 152.449C148.858 152.308 149.214 152.21 149.58 152.154C149.946 152.088 150.306 152.056 150.663 152.056C151.481 152.056 152.246 152.205 152.958 152.505C153.68 152.805 154.306 153.217 154.836 153.742C155.375 154.257 155.798 154.866 156.106 155.569C156.414 156.271 156.568 157.02 156.568 157.817V167.371ZM165.607 163.69C165.761 163.737 165.915 163.769 166.069 163.788C166.223 163.797 166.377 163.802 166.531 163.802C166.917 163.802 167.287 163.75 167.643 163.647C167.999 163.544 168.332 163.399 168.64 163.212C168.957 163.015 169.237 162.781 169.477 162.509C169.727 162.228 169.929 161.919 170.083 161.582L172.971 164.406C172.605 164.912 172.182 165.366 171.701 165.769C171.229 166.172 170.714 166.514 170.156 166.795C169.607 167.076 169.025 167.287 168.409 167.427C167.802 167.577 167.176 167.652 166.531 167.652C165.443 167.652 164.418 167.455 163.456 167.062C162.503 166.669 161.665 166.121 160.943 165.418C160.231 164.715 159.668 163.882 159.254 162.917C158.84 161.943 158.633 160.875 158.633 159.713C158.633 158.524 158.84 157.437 159.254 156.453C159.668 155.47 160.231 154.631 160.943 153.938C161.665 153.245 162.503 152.707 163.456 152.323C164.418 151.939 165.443 151.747 166.531 151.747C167.176 151.747 167.807 151.821 168.423 151.972C169.039 152.122 169.621 152.337 170.17 152.618C170.728 152.899 171.248 153.246 171.729 153.658C172.211 154.061 172.634 154.515 173 155.021L165.607 163.69ZM167.629 155.779C167.446 155.713 167.263 155.671 167.08 155.653C166.907 155.634 166.724 155.624 166.531 155.624C165.993 155.624 165.482 155.723 165.001 155.919C164.529 156.107 164.115 156.378 163.759 156.734C163.412 157.09 163.138 157.521 162.936 158.026C162.734 158.523 162.633 159.085 162.633 159.713C162.633 159.853 162.638 160.013 162.647 160.19C162.666 160.368 162.69 160.551 162.719 160.739C162.758 160.917 162.801 161.09 162.85 161.258C162.897 161.427 162.96 161.577 163.037 161.708L167.629 155.779Z" fill="white"/>
</g>
<defs>
<filter id="filter0_d" x="201" y="27.1318" width="75.9717" height="139" filterUnits="userSpaceOnUse" color-interpolation-filters="sRGB">
<feFlood flood-opacity="0" result="BackgroundImageFix"/>
<feColorMatrix in="SourceAlpha" type="matrix" values="0 0 0 0 0 0 0 0 0 0 0 0 0 0 0 0 0 0 127 0"/>
<feOffset dy="4"/>
<feGaussianBlur stdDeviation="2"/>
<feColorMatrix type="matrix" values="0 0 0 0 0 0 0 0 0 0 0 0 0 0 0 0 0 0 0.25 0"/>
<feBlend mode="normal" in2="BackgroundImageFix" result="effect1_dropShadow"/>
<feBlend mode="normal" in="SourceGraphic" in2="effect1_dropShadow" result="shape"/>
</filter>
<filter id="filter1_d" x="19" y="11.1318" width="149" height="40" filterUnits="userSpaceOnUse" color-interpolation-filters="sRGB">
<feFlood flood-opacity="0" result="BackgroundImageFix"/>
<feColorMatrix in="SourceAlpha" type="matrix" values="0 0 0 0 0 0 0 0 0 0 0 0 0 0 0 0 0 0 127 0"/>
<feOffset dy="4"/>
<feGaussianBlur stdDeviation="2"/>
<feColorMatrix type="matrix" values="0 0 0 0 0 0 0 0 0 0 0 0 0 0 0 0 0 0 0.25 0"/>
<feBlend mode="normal" in2="BackgroundImageFix" result="effect1_dropShadow"/>
<feBlend mode="normal" in="SourceGraphic" in2="effect1_dropShadow" result="shape"/>
</filter>
<filter id="filter2_d" x="19" y="77.1318" width="116" height="37" filterUnits="userSpaceOnUse" color-interpolation-filters="sRGB">
<feFlood flood-opacity="0" result="BackgroundImageFix"/>
<feColorMatrix in="SourceAlpha" type="matrix" values="0 0 0 0 0 0 0 0 0 0 0 0 0 0 0 0 0 0 127 0"/>
<feOffset dy="4"/>
<feGaussianBlur stdDeviation="2"/>
<feColorMatrix type="matrix" values="0 0 0 0 0 0 0 0 0 0 0 0 0 0 0 0 0 0 0.25 0"/>
<feBlend mode="normal" in2="BackgroundImageFix" result="effect1_dropShadow"/>
<feBlend mode="normal" in="SourceGraphic" in2="effect1_dropShadow" result="shape"/>
</filter>
<filter id="filter3_d" x="14" y="140.132" width="163" height="41" filterUnits="userSpaceOnUse" color-interpolation-filters="sRGB">
<feFlood flood-opacity="0" result="BackgroundImageFix"/>
<feColorMatrix in="SourceAlpha" type="matrix" values="0 0 0 0 0 0 0 0 0 0 0 0 0 0 0 0 0 0 127 0"/>
<feOffset dy="4"/>
<feGaussianBlur stdDeviation="2"/>
<feColorMatrix type="matrix" values="0 0 0 0 0 0 0 0 0 0 0 0 0 0 0 0 0 0 0.25 0"/>
<feBlend mode="normal" in2="BackgroundImageFix" result="effect1_dropShadow"/>
<feBlend mode="normal" in="SourceGraphic" in2="effect1_dropShadow" result="shape"/>
</filter>
<clipPath id="clip0">
<rect width="67.9717" height="131" fill="white" transform="translate(205 27.1318)"/>
</clipPath>
<clipPath id="clip1">
<rect width="141" height="32" fill="white" transform="translate(23 11.1318)"/>
</clipPath>
<clipPath id="clip2">
<rect width="108" height="29" fill="white" transform="translate(23 77.1318)"/>
</clipPath>
</defs>
</svg>
