<svg width="300" height="198" viewBox="0 0 300 198" fill="none" xmlns="http://www.w3.org/2000/svg">
<g filter="url(#filter0_d)">
<path d="M73.2015 46.5663L73.2086 39.6677H70.3039L70.3015 37.5308H78.8571V39.6677H75.9713L75.9737 46.5663H73.2015Z" fill="white"/>
<path d="M82.5027 44.3989C82.8934 44.7624 83.4592 44.9431 84.1954 44.9431C84.7233 44.9431 85.1778 44.814 85.5566 44.5654C85.9378 44.3144 86.1674 44.047 86.2574 43.7702H88.5584C88.1915 44.8539 87.6257 45.6257 86.8658 46.0924C86.1035 46.5592 85.1802 46.7915 84.1054 46.7915C83.355 46.7915 82.6803 46.6789 82.0814 46.4513C81.4777 46.2215 80.9687 45.9025 80.5521 45.4802C80.133 45.0627 79.8158 44.5607 79.5838 43.9766C79.3566 43.3949 79.2429 42.7522 79.2429 42.0555C79.2429 41.38 79.3589 40.749 79.5909 40.1673C79.8253 39.5832 80.1567 39.0765 80.5876 38.6543C81.0161 38.2297 81.5298 37.8966 82.124 37.6527C82.7182 37.4064 83.3763 37.2844 84.1031 37.2844C84.9103 37.2844 85.6158 37.4322 86.2171 37.7301C86.8184 38.0257 87.3132 38.4244 87.6991 38.9264C88.0849 39.426 88.3643 39.996 88.5371 40.6364C88.7099 41.2791 88.7691 41.9476 88.7194 42.6466H81.8565C81.8967 43.4559 82.1098 44.0376 82.5027 44.3989ZM85.4572 39.6465C85.1423 39.3205 84.6665 39.1563 84.0297 39.1563C83.6107 39.1563 83.2627 39.2243 82.9904 39.3603C82.7134 39.4917 82.4909 39.6606 82.3276 39.8553C82.1619 40.0523 82.0435 40.2634 81.9796 40.4839C81.9085 40.7068 81.8707 40.9062 81.8588 41.0797H86.1106C85.9851 40.4511 85.7673 39.9749 85.4572 39.6465Z" fill="white"/>
<path d="M101.075 44.3989C101.468 44.7624 102.033 44.9431 102.77 44.9431C103.298 44.9431 103.752 44.814 104.131 44.5654C104.51 44.3144 104.744 44.047 104.829 43.7702H107.13C106.763 44.8539 106.198 45.6257 105.438 46.0924C104.678 46.5592 103.754 46.7915 102.675 46.7915C101.929 46.7915 101.255 46.6789 100.653 46.4513C100.052 46.2215 99.5429 45.9025 99.1263 45.4802C98.7073 45.0627 98.3853 44.5607 98.158 43.9766C97.9308 43.3949 97.8171 42.7522 97.8171 42.0555C97.8171 41.38 97.9355 40.749 98.1628 40.1673C98.3995 39.5832 98.7309 39.0765 99.1594 38.6543C99.5903 38.2297 100.102 37.8966 100.696 37.6527C101.288 37.4064 101.951 37.2844 102.673 37.2844C103.485 37.2844 104.19 37.4322 104.791 37.7301C105.393 38.0257 105.885 38.4244 106.273 38.9264C106.662 39.426 106.939 39.996 107.109 40.6364C107.282 41.2791 107.343 41.9476 107.296 42.6466H100.431C100.471 43.4559 100.682 44.0376 101.075 44.3989ZM104.029 39.6465C103.717 39.3205 103.238 39.1563 102.604 39.1563C102.187 39.1563 101.837 39.2243 101.562 39.3603C101.288 39.4917 101.065 39.6606 100.899 39.8553C100.734 40.0523 100.62 40.2634 100.551 40.4839C100.483 40.7068 100.443 40.9062 100.431 41.0797H104.682C104.562 40.4511 104.344 39.9749 104.029 39.6465Z" fill="white"/>
<path d="M108.373 37.5308H111.06V40.735L114.299 37.5308H117.48L113.934 40.8053L118.077 46.5663H114.822L112.099 42.5318L111.06 43.4817V46.5663H108.373V37.5308Z" fill="white"/>
<path d="M91.3189 46.5665L93.2767 40.1581L95.2392 46.5665H97.8267L95.4167 38.7226C95.1634 37.8922 94.5006 37.4066 93.4968 37.3058L93.414 37.3011L93.2956 37.2964H93.253L93.1346 37.3011L93.0494 37.3058C92.0362 37.4066 91.3851 37.8922 91.1295 38.7226L88.7361 46.5665H91.3189Z" fill="white"/>
<path d="M131.45 40.1581L133.417 46.5665H136.003L137.963 40.1581L139.345 46.5665H141.938L140.105 38.7226C139.852 37.8922 139.196 37.3996 138.185 37.3058L138.102 37.3011L137.986 37.2964H137.941L137.823 37.3011L137.738 37.3058C136.727 37.3996 136.074 37.8922 135.82 38.7226L134.712 42.9096L133.595 38.7226C133.342 37.8922 132.686 37.3996 131.675 37.3058L131.592 37.3011L131.474 37.2964H131.427L131.311 37.3011L131.228 37.3058C130.217 37.4043 129.561 37.8922 129.31 38.7226L127.494 46.5665H130.077L131.45 40.1581Z" fill="white"/>
<path d="M117.831 40.0781C118.063 39.4894 118.394 38.9897 118.825 38.5746C119.256 38.1617 119.77 37.8404 120.371 37.6128C120.97 37.3853 121.645 37.2727 122.395 37.2727C123.146 37.2727 123.82 37.3853 124.429 37.6128C125.039 37.8404 125.553 38.1617 125.984 38.5746C126.412 38.9897 126.744 39.487 126.976 40.0781C127.21 40.6669 127.324 41.3237 127.324 42.0462C127.324 42.7686 127.21 43.4207 126.976 44.0025C126.742 44.5842 126.412 45.0815 125.984 45.4943C125.553 45.9072 125.037 46.2262 124.429 46.4467C123.82 46.6672 123.146 46.7797 122.395 46.7797C121.645 46.7797 120.972 46.6672 120.371 46.4467C119.77 46.2262 119.256 45.9072 118.825 45.4943C118.394 45.0815 118.063 44.5842 117.831 44.0025C117.596 43.4184 117.48 42.7686 117.48 42.0462C117.48 41.3237 117.596 40.6693 117.831 40.0781ZM120.203 43.1017C120.279 43.4442 120.402 43.7538 120.579 44.0283C120.757 44.3027 120.994 44.5209 121.287 44.6827C121.583 44.8469 121.95 44.9243 122.393 44.9243C122.833 44.9243 123.207 44.8446 123.505 44.6827C123.806 44.5209 124.045 44.3027 124.225 44.0283C124.4 43.7515 124.528 43.4442 124.601 43.1017C124.675 42.7593 124.71 42.4051 124.71 42.0462C124.71 41.6826 124.675 41.3284 124.601 40.9812C124.528 40.6317 124.4 40.3221 124.225 40.0547C124.047 39.7873 123.808 39.5691 123.505 39.4002C123.207 39.2313 122.833 39.1469 122.393 39.1469C121.952 39.1469 121.583 39.2337 121.287 39.4002C120.994 39.5691 120.759 39.7873 120.579 40.0547C120.402 40.3221 120.279 40.6317 120.203 40.9812C120.127 41.3307 120.092 41.6849 120.092 42.0462C120.092 42.4051 120.13 42.7593 120.203 43.1017Z" fill="white"/>
<path d="M49.895 37.5308H52.5796V40.735L55.8205 37.5308H58.9975L55.4559 40.8053L59.5964 46.5663H56.3437L53.6212 42.5318L52.5796 43.4817V46.5663H49.895V37.5308Z" fill="white"/>
<path d="M69.9442 42.2667C69.9442 41.5442 69.8305 40.8921 69.5962 40.3104C69.3642 39.7263 69.0304 39.229 68.6042 38.8162C68.1734 38.4034 67.6549 38.0843 67.0465 37.8639C66.4405 37.6434 65.7634 37.5308 65.0153 37.5308C63.8719 37.5308 62.809 38.1547 62.7167 38.1922V37.5308H60.1055V49.8409H62.7167V46.374C62.809 46.4115 63.8743 47.0355 65.0153 47.0355C65.7634 47.0355 66.4405 46.9252 67.0465 46.7024C67.6549 46.4819 68.1758 46.1652 68.6042 45.7524C69.0327 45.3395 69.3642 44.8399 69.5962 44.2582C69.8305 43.6764 69.9442 43.0243 69.9442 42.3019V42.2667ZM67.2217 43.3598C67.1507 43.7046 67.0229 44.0142 66.8453 44.2887C66.6701 44.5608 66.4287 44.7789 66.128 44.9431C65.8274 45.105 65.458 45.1871 65.0153 45.1871C64.575 45.1871 64.2057 45.1073 63.9122 44.9431C63.621 44.7789 63.3819 44.5608 63.202 44.2887C63.0268 44.0142 62.8989 43.7046 62.8256 43.3598C62.7593 43.0431 62.7238 42.7194 62.7167 42.3887V42.1822C62.7238 41.8515 62.7593 41.5278 62.8256 41.2088C62.9013 40.8663 63.0268 40.5567 63.202 40.2822C63.3819 40.0101 63.6186 39.792 63.9122 39.6278C64.2081 39.4659 64.575 39.3815 65.0153 39.3815C65.458 39.3815 65.8274 39.4636 66.128 39.6278C66.4287 39.7897 66.6701 40.0101 66.8453 40.2822C67.0229 40.5567 67.1507 40.8663 67.2217 41.2088C67.2975 41.5513 67.333 41.9031 67.333 42.2667L67.3306 42.2995H67.333V42.3019C67.333 42.6655 67.2975 43.0173 67.2217 43.3598Z" fill="white"/>
<path d="M45.6977 37.5307V42.6091C45.6977 43.2072 45.5367 43.6599 45.2455 43.9625C44.9544 44.2651 44.5188 44.4504 43.8488 44.4528C43.3209 44.4528 42.89 44.3214 42.5989 44.0657C42.3053 43.8101 42.1112 43.4183 42.1064 42.7803V37.5307H39.5592C39.5592 37.5307 39.5544 40.6645 39.5544 42.5176C39.5544 44.373 39.9545 44.9383 40.6576 45.5975C41.2589 46.1581 42.1538 46.578 43.4487 46.578C44.7437 46.578 45.5628 45.8766 45.7214 45.7523C45.7616 46.3481 45.6882 46.9626 45.0917 47.4177C44.7271 47.6992 43.4866 48.3208 41.5193 47.4881L40.9606 49.4819C41.6756 49.8385 42.7362 50.0707 43.9056 50.0566C44.7366 50.0472 45.8658 49.7587 46.7322 49.1089C47.6011 48.4662 48.2544 47.4623 48.2544 45.7804L48.2568 37.5283H45.6977" fill="white"/>
<path d="M122.601 29.8698H116.342C114.966 29.8698 113.846 28.8072 113.846 27.5006V17.8881C113.846 16.5815 114.966 15.5189 116.342 15.5189H125.439L129.099 12.3452V15.5189H130.231C131.609 15.5189 132.726 16.5815 132.726 17.8881V20.3534H123.418C122.968 20.3534 122.603 20.7005 122.603 21.1298V29.8698H122.601ZM116.342 17.1116C115.892 17.1116 115.525 17.4588 115.525 17.8857V27.4983C115.525 27.9252 115.892 28.2724 116.342 28.2724H120.922V21.1251C120.922 19.8185 122.042 18.756 123.415 18.756H131.048V17.8857C131.048 17.4588 130.681 17.1116 130.231 17.1116H127.421V15.9576L126.09 17.1116H116.342Z" fill="white"/>
<path d="M153.99 31.2983L149.198 29.396C148.225 29.7056 147.198 29.905 146.144 29.9918L145.233 30.0668V21.1298C145.233 20.7029 144.866 20.3534 144.416 20.3534H134.831L135.854 19.075C137.688 16.7809 141.161 15.3547 144.913 15.3547C150.649 15.3547 155.318 18.6481 155.318 22.6991C155.318 24.6507 154.234 26.5061 152.314 27.8713L153.99 31.2983ZM138.571 18.756H144.414C145.789 18.756 146.909 19.8186 146.909 21.1251V28.2912C147.607 28.1833 148.287 28.0144 148.935 27.7892L149.246 27.6836L150.645 28.2395L150.183 27.2966L150.801 26.9213C152.602 25.8282 153.637 24.2871 153.637 22.692C153.637 19.5207 149.721 16.9404 144.911 16.9404C142.477 16.9451 140.2 17.616 138.571 18.756Z" fill="white"/>
<path d="M124.902 36.2922V33.1091H123.418C122.042 33.1091 120.925 32.0465 120.925 30.7399V28.2723H130.233C130.683 28.2723 131.05 27.9251 131.05 27.4982V18.7559H138.214L137.191 20.0343C136.526 20.8646 136.189 21.7607 136.189 22.6943C136.189 25.8656 140.103 28.4459 144.913 28.4459C145.28 28.4459 145.642 28.4294 146 28.3989L146.911 28.3239V30.7376C146.911 32.0441 145.791 33.1067 144.416 33.1067H128.576L124.902 36.2922ZM122.601 29.8697V30.7423C122.601 31.1692 122.965 31.5164 123.415 31.5164H126.578V32.6821L127.923 31.5164H144.414C144.856 31.5164 145.23 31.1622 145.23 30.7423V30.0386C145.124 30.0409 145.017 30.0433 144.911 30.0433C139.175 30.0433 134.506 26.7476 134.506 22.6966C134.506 21.8944 134.691 21.1039 135.046 20.3509H132.724V27.5005C132.724 28.8071 131.604 29.8697 130.228 29.8697H122.601Z" fill="white"/>
</g>
<g filter="url(#filter1_d)">
<path d="M201.658 43.1826C204.1 45.32 206.849 46.1553 210.471 45.4211C208.75 44.6151 207.386 44.0637 206.107 43.3621C200.643 40.3763 196.666 36.268 195.397 29.9472C193.993 22.9706 196.419 18.8101 203.342 16.999C208.991 15.5176 214.6 16.0201 220.176 17.6484C217.582 18.2717 214.972 18.7774 212.454 19.6226C208.595 20.9213 204.842 22.4322 201.718 25.108C198.808 27.5978 198.805 28.0513 201.52 30.5966C205.979 34.78 211.242 37.5634 217.088 39.3843C218.518 39.8313 218.913 38.9177 219.299 38.1117C219.668 37.3416 218.722 37.5112 218.38 37.4003C213.189 35.7361 208.579 33.0864 204.47 29.5655C204.265 29.3892 204.074 29.1934 203.913 28.9193C206.954 30.2442 210.059 31.3667 213.268 32.1988C215.763 32.8449 218.284 33.3474 220.858 33.5693C221.738 33.6444 222.212 33.3899 222.611 32.548C224.783 27.9632 226.308 23.1827 227.37 18.2423C227.62 17.0773 227.478 16.3203 226.107 15.8406C219.513 13.527 212.781 12.1924 205.765 12.9005C202.627 13.217 199.619 14.0687 197.233 16.4345C197.829 12.6721 203.511 7.47714 209.021 5.58451C213.776 3.94967 215.585 3.83219 225.616 4.53703C222.72 1.50882 219.335 1.27714 215.595 2.13209C216.742 1.04545 218.564 0.435243 221.161 0.213348C228.184 -0.380547 234.175 3.13061 236.94 9.5264C237.2 10.1301 237.655 10.4564 238.07 10.8676C243.662 16.4345 245.396 23.013 243.267 30.5477C241.804 35.723 238.1 38.3074 232.85 38.7708C231.229 38.9144 230.425 39.6845 229.713 41.1007C232.178 41.2867 234.435 40.7254 237.075 40.1805C235.035 42.233 232.886 43.5285 230.622 44.6282C228.8 45.5158 226.882 46.1945 224.855 46.4719C223.478 46.6611 222.232 47.1441 220.976 47.7184C216.29 49.8623 211.515 50.3844 206.681 48.1687C204.344 47.0984 202.842 45.6169 201.658 43.1826ZM237.777 23.3361C237.256 25.8813 236.498 28.2602 235.645 30.7076C240.865 29.1804 241.59 26.9288 238.123 23.4797C238.09 23.4438 238.027 23.4372 237.777 23.3361Z" fill="white"/>
<path d="M208.035 61.9393C207.323 61.9393 206.611 61.9687 205.903 61.9328C204.011 61.8414 202.459 60.5133 202.093 58.712C201.724 56.8879 202.601 55.0214 204.334 54.2806C206.575 53.3245 208.898 53.2332 211.195 54.1175C213.278 54.9202 214.227 56.6432 213.845 58.7577C213.512 60.6047 211.812 61.9067 209.676 61.9393C209.129 61.9491 208.582 61.9425 208.035 61.9393ZM207.88 60.311C209.973 60.3208 211.07 59.4952 211.073 57.906C211.08 56.356 210.039 55.5272 208.058 55.5043C206.025 55.4815 204.822 56.3658 204.819 57.893C204.815 59.381 205.985 60.3044 207.88 60.311Z" fill="white"/>
<path d="M197.15 51.2458C198.854 51.2458 200.554 51.2654 202.255 51.2393C202.963 51.2295 203.372 51.36 203.372 52.2084C203.372 53.0503 202.973 53.1645 202.261 53.1841C201.072 53.22 199.503 52.6489 198.781 53.4354C197.954 54.3393 198.564 55.9219 198.508 57.2076C198.455 58.3986 198.439 59.5962 198.511 60.784C198.59 62.073 197.918 62.1317 196.985 61.7956C195.786 61.3616 195.117 60.5425 195.137 59.2177C195.163 57.5926 195.094 55.9643 195.16 54.3425C195.199 53.406 194.863 53.0732 193.937 53.1613C193.337 53.22 192.731 53.1743 192.128 53.1711C191.482 53.1678 190.833 53.3179 190.813 52.2574C190.79 51.1055 191.495 51.249 192.207 51.249C193.855 51.2458 195.502 51.2458 197.15 51.2458Z" fill="white"/>
<path d="M236.076 61.9197C235.292 62.0241 234.616 61.9524 234.425 61.0354C234.283 60.3436 233.776 60.2718 233.183 60.2784C231.756 60.2947 230.329 60.311 228.905 60.2718C228.193 60.2522 227.762 60.4839 227.577 61.1725C227.465 61.5967 227.314 62.0144 226.72 61.936C226.091 61.8512 225.267 62.2493 224.868 61.7141C224.516 61.241 225.026 60.572 225.277 60.0597C226.355 57.8408 227.874 55.9286 229.696 54.2578C230.477 53.5399 231.397 53.4061 232.211 54.1306C234.267 55.9547 235.957 58.0594 237.045 60.6014C237.493 61.6521 237.292 62.1449 236.076 61.9197ZM229.014 58.4967C230.471 58.6761 231.683 58.7186 233.067 58.5097C232.451 57.5047 231.963 56.2712 231.008 56.2777C230.164 56.281 229.64 57.4981 229.014 58.4967Z" fill="white"/>
<path d="M219.862 53.7748C221.23 53.7748 222.594 53.7846 223.962 53.7716C224.572 53.765 225.013 53.8401 225.02 54.6233C225.023 55.3705 224.651 55.4847 224.011 55.5304C221.398 55.7262 221.401 55.7425 221.401 58.4085C221.401 59.0024 221.335 59.6028 221.415 60.1869C221.612 61.6717 220.924 62.0665 219.53 61.9686C218.604 61.9066 218.264 61.577 218.294 60.696C218.33 59.456 218.248 58.2095 218.33 56.976C218.402 55.8698 218.04 55.3607 216.867 55.5108C216.438 55.5663 215.994 55.4978 215.555 55.5206C214.893 55.5533 214.725 55.2074 214.721 54.6233C214.718 54 214.979 53.7259 215.605 53.7748C215.657 53.7781 215.713 53.7748 215.769 53.7748C217.13 53.7748 218.498 53.7748 219.862 53.7748Z" fill="white"/>
<path d="M244.657 61.9425C239.131 61.9425 238.689 61.5216 238.732 56.0134C238.739 55.2367 238.241 54.2023 239.434 53.765C240.845 53.2495 241.721 53.8629 241.754 55.3803C241.771 56.2451 241.817 57.1163 241.754 57.9745C241.642 59.5278 242.466 60.1413 243.899 60.1804C244.994 60.2098 246.091 60.2131 247.188 60.1967C247.844 60.1869 248.184 60.3566 248.177 61.1039C248.17 61.9034 247.729 61.9556 247.126 61.9425C246.302 61.9262 245.481 61.9393 244.657 61.9425Z" fill="white"/>
</g>
<g clip-path="url(#clip0)" filter="url(#filter2_d)">
<path d="M59.1447 126.196C59.1447 122.435 59.1353 118.676 59.147 114.914C59.1611 109.528 63.4743 105.303 68.9729 105.296C76.5052 105.286 84.0375 105.291 91.5698 105.296C97.2887 105.298 101.632 109.392 101.67 115.039C101.721 122.786 101.675 130.535 101.553 138.282C101.478 143.105 97.1247 147.106 91.9704 147.148C84.2437 147.208 76.5146 147.215 68.7879 147.146C63.2986 147.095 59.1587 142.865 59.1493 137.476C59.1423 133.715 59.1493 129.956 59.1493 126.194C59.1493 126.196 59.147 126.196 59.1447 126.196ZM72.274 120.06C71.7281 120.06 71.1823 120.051 70.6364 120.063C68.7457 120.102 67.2861 121.122 66.7191 122.799C66.1428 124.498 66.6605 126.139 68.1764 127.293C69.0081 127.927 69.8445 128.566 70.7371 129.106C71.6087 129.635 71.8828 130.216 71.454 131.188C71.0511 132.097 70.798 133.071 70.4981 134.024C69.9124 135.891 70.4279 137.559 71.9062 138.628C73.4127 139.717 75.2284 139.68 76.8988 138.515C77.7259 137.938 78.5787 137.389 79.3518 136.747C80.0617 136.156 80.6287 136.08 81.3807 136.715C82.264 137.463 83.2409 138.111 84.2203 138.741C85.7267 139.708 87.519 139.623 88.9224 138.586C90.2859 137.578 90.8341 135.981 90.3421 134.287C90.0095 133.147 89.6299 132.016 89.2223 130.899C88.9739 130.221 89.0817 129.755 89.7189 129.337C90.724 128.679 91.6987 127.971 92.6499 127.239C94.1376 126.097 94.6366 124.413 94.0368 122.726C93.4628 121.115 92.0032 120.093 90.1828 120.063C88.9739 120.042 87.7627 120.037 86.5537 120.067C85.9024 120.083 85.5533 119.827 85.3659 119.216C85.0075 118.041 84.6232 116.873 84.2015 115.722C83.5971 114.069 82.2054 113.105 80.4717 113.077C78.6794 113.047 77.2385 114 76.5849 115.676C76.3623 116.248 76.2194 116.848 76.0085 117.425C74.8324 120.621 75.711 119.986 72.274 120.06Z" fill="white"/>
<path d="M99.4139 163.477C100.81 163.299 101.881 162.679 102.891 161.968C103.659 161.428 104.149 161.636 104.617 162.339C105.426 163.551 105.39 164.686 104.421 165.803C103.127 167.294 101.886 168.817 100.979 170.578C100.492 171.522 100.241 172.516 100.314 173.573C100.405 174.907 101.358 175.413 102.504 174.669C104.093 173.636 105.079 172.101 105.702 170.379C106.864 167.174 108.521 164.239 110.503 161.467C110.737 161.142 110.917 160.639 111.461 160.77C111.925 160.883 112.061 161.336 112.206 161.733C112.693 163.066 112.124 164.225 111.501 165.335C110.596 166.943 109.556 168.48 108.781 170.16C108.328 171.139 107.85 172.103 107.703 173.186C107.637 173.668 107.67 174.113 108.111 174.418C108.539 174.716 108.952 174.494 109.319 174.293C110.299 173.76 110.978 172.911 111.639 172.05C113.647 169.433 114.959 166.415 116.685 163.636C117.133 162.916 117.541 162.176 117.979 161.451C118.194 161.098 118.375 160.636 118.918 160.743C119.431 160.842 119.52 161.336 119.607 161.723C119.879 162.939 119.541 164.068 118.991 165.159C117.505 168.111 116.039 171.074 114.57 174.035C114.455 174.266 114.382 174.515 114.223 174.928C115.638 174.339 116.685 173.518 117.686 172.643C118.677 171.776 119.612 170.848 120.411 169.798C120.577 169.579 120.736 169.173 121.125 169.389C121.446 169.567 121.369 169.946 121.308 170.229C121.113 171.109 120.638 171.854 120.045 172.528C118.501 174.284 116.498 175.392 114.373 176.289C113.628 176.603 113.22 177.083 112.909 177.794C111.714 180.54 110.528 183.298 108.804 185.783C108.075 186.833 107.262 187.819 106.152 188.511C104.8 189.353 103.987 189.157 103.109 187.869C101.954 186.171 101.954 184.436 102.804 182.629C104.114 179.846 106.464 178.159 109.214 177.03C110.512 176.497 111.051 175.641 111.4 174.282C110.336 175.053 109.373 175.784 108.148 175.846C106.895 175.911 105.836 175.521 105.351 174.217C104.746 174.658 104.254 175.094 103.692 175.413C102.237 176.239 100.702 176.416 99.2897 175.403C97.9168 174.418 97.8207 172.957 98.1581 171.45C98.6571 169.214 100.004 167.416 101.368 165.637C101.665 165.247 101.986 164.873 102.488 164.253C101.192 164.818 100.171 165.263 99.032 165.282C98.6923 165.286 98.4744 165.443 98.2752 165.727C96.9281 167.654 95.2951 169.364 94.0159 171.356C91.9893 174.51 89.0772 176.193 85.1693 175.858C83.862 175.745 82.7444 175.214 82.0252 174.106C81.6175 173.476 81.3598 173.449 80.828 173.989C79.8322 174.997 78.6608 175.743 77.1731 175.856C75.3316 175.994 74.207 175.334 73.469 173.684C73.3777 173.481 73.2816 173.278 73.1762 173.047C70.1141 176.813 63.6126 176.998 61.3986 173.16C60.7848 173.809 60.2061 174.48 59.4283 174.926C59.0253 175.156 58.6224 175.403 58.1866 175.563C54.9066 176.769 52.8706 175.149 53.4423 171.764C53.7586 169.886 54.6817 168.222 55.5368 166.544C56.3943 164.864 57.3361 163.23 58.4209 161.679C58.6364 161.37 58.8496 160.973 59.3276 161.098C59.761 161.211 59.8617 161.615 59.9625 161.991C60.3045 163.253 59.9953 164.419 59.4049 165.538C58.456 167.343 57.5025 169.145 56.556 170.949C56.1413 171.739 55.8344 172.574 55.757 173.458C55.661 174.559 56.3802 175.101 57.3619 174.582C59.1495 173.636 60.6489 172.406 60.8902 170.209C60.9394 169.759 61.0706 169.297 61.2604 168.884C61.483 168.402 61.7782 167.862 62.399 167.853C63.0058 167.843 62.631 168.603 63.13 168.87C64.6248 166.491 66.7005 164.46 67.4948 161.633C67.8204 160.479 68.5584 159.561 69.8353 159.296C70.5616 159.143 71.1613 159.51 70.7092 160.233C69.3316 162.441 69.9641 164.772 70.0977 167.073C70.1961 168.755 70.4046 170.43 70.0696 172.115C69.936 172.789 69.5612 173.361 69.2636 174.169C70.9809 173.301 72.0961 172.085 72.8833 170.626C74.4905 167.647 75.7791 164.511 77.4683 161.573C77.6979 161.174 77.7143 160.948 77.1778 160.876C76.9107 160.842 76.6389 160.766 76.3906 160.664C75.8377 160.436 75.1887 160.089 75.2988 159.483C75.3972 158.945 76.1165 159.18 76.5382 159.215C78.2321 159.353 79.4035 158.79 80.0759 157.161C80.4367 156.286 81.0716 155.518 81.6034 154.715C81.7909 154.433 81.9947 154.089 82.4164 154.159C82.9272 154.244 82.885 154.713 82.9693 155.068C83.1779 155.961 83.0162 156.829 82.6835 157.659C82.4469 158.25 82.3766 158.677 83.2317 158.73C83.4871 158.746 83.7425 158.917 83.9744 159.053C84.3821 159.291 84.853 159.589 84.7288 160.103C84.5906 160.685 84.0213 160.44 83.6371 160.408C82.0463 160.267 80.9873 160.763 80.2212 162.296C78.9326 164.869 77.3395 167.294 76.161 169.929C75.6737 171.021 75.2777 172.156 75.519 173.379C75.7885 174.748 76.8498 175.295 78.0259 174.519C79.5792 173.495 80.8608 172.332 81.0716 170.202C81.4348 166.542 83.3911 163.646 86.425 161.534C88.7351 159.926 91.0147 160.454 92.5774 162.771C92.9218 163.281 93.0202 163.837 92.9499 164.414C92.65 166.897 91.2818 168.686 89.0631 169.805C87.6691 170.509 86.24 170.28 84.949 169.447C84.4734 169.14 84.2603 169.198 84.1689 169.722C84.0681 170.287 83.9369 170.855 83.9135 171.425C83.787 174.425 85.3052 175.516 88.1916 174.476C89.7636 173.908 91.0007 172.906 92.0268 171.579C93.5145 169.657 95.103 167.809 96.2932 165.679C96.4783 165.349 96.6633 165.109 96.422 164.649C95.5411 162.967 97.0827 159.727 98.9711 159.164C99.6903 158.949 99.9972 159.339 100.089 159.956C100.21 160.777 99.9152 161.548 99.7301 162.33C99.6552 162.69 99.538 163.043 99.4139 163.477ZM67.1386 165.508C66.0469 167.158 65.2855 168.642 64.2054 169.849C63.0387 171.153 63.4205 172.251 64.1468 173.46C64.517 174.079 65.0066 174.609 65.7962 174.554C66.663 174.492 66.902 173.744 67.0496 173.086C67.5978 170.675 67.298 168.259 67.1386 165.508ZM86.3337 168.506C86.6617 168.483 87.1935 168.245 87.641 167.869C88.9296 166.789 89.93 165.485 90.5719 163.939C90.7734 163.456 91.0944 162.861 90.5625 162.476C90.1174 162.155 89.5926 162.508 89.1732 162.78C87.4442 163.899 86.2025 165.446 85.2255 167.213C84.6773 168.206 84.8975 168.543 86.3337 168.506ZM109.79 178.297C109.001 178.514 108.551 178.946 108.094 179.336C106.079 181.057 104.531 183.083 103.943 185.703C103.863 186.06 103.762 186.529 104.179 186.72C104.559 186.896 104.812 186.501 105.032 186.252C107.066 183.909 108.495 181.223 109.79 178.297Z" fill="white"/>
<path d="M42.241 173.116C44.1434 172.738 45.835 172.325 47.571 172.159C48.8619 172.036 50.0966 172.115 50.9283 173.278C51.5094 174.09 51.3641 174.358 50.3707 174.453C47.9599 174.683 45.603 175.203 43.2508 175.75C42.4425 175.936 41.5241 176.359 40.8611 175.519C40.0715 174.52 39.3335 173.479 39.8677 172.057C41.0087 169.032 42.5362 166.186 44.0544 163.341C45.8818 159.916 47.728 156.499 49.9232 153.28C50.1833 152.899 50.3684 152.223 50.9822 152.426C51.4883 152.594 51.5281 153.196 51.5726 153.709C51.7085 155.23 51.1884 156.575 50.4715 157.872C48.0162 162.31 45.4086 166.669 43.1477 171.21C42.8619 171.79 42.5948 172.373 42.241 173.116Z" fill="white"/>
<path d="M62.7833 159.367C62.8067 160.249 62.6029 161.012 61.5486 161.123C60.6115 161.222 59.7306 160.168 59.7048 158.996C59.6814 157.946 60.246 157.168 61.0402 157.161C61.9914 157.154 62.7669 158.132 62.7833 159.367Z" fill="white"/>
<path d="M72.9089 123.192C73.4548 123.192 74.003 123.203 74.5489 123.189C76.374 123.141 77.6532 122.257 78.2764 120.561C78.6606 119.516 78.9769 118.445 79.3237 117.388C79.497 116.857 79.7032 116.359 80.399 116.359C81.1159 116.359 81.2706 116.908 81.4416 117.418C81.7602 118.364 82.0484 119.322 82.3741 120.266C83.0699 122.273 84.3421 123.173 86.4834 123.192C87.3409 123.199 88.2007 123.201 89.0582 123.194C89.6767 123.189 90.1219 123.448 90.321 124.025C90.5249 124.613 90.2695 125.07 89.7845 125.419C89.0301 125.963 88.2617 126.492 87.5166 127.05C86.0289 128.16 85.5275 129.665 86.0594 131.43C86.3147 132.275 86.5959 133.112 86.8817 133.95C87.0879 134.55 87.0855 135.111 86.5092 135.492C85.9539 135.859 85.3963 135.72 84.8809 135.351C84.1546 134.832 83.4377 134.299 82.695 133.805C81.13 132.764 79.5697 132.776 78.0117 133.837C77.1776 134.405 76.367 135.007 75.5446 135.589C75.0409 135.944 74.5395 136.422 73.8765 135.928C73.2627 135.471 73.5673 134.892 73.7406 134.349C74.0593 133.362 74.4013 132.383 74.7082 131.393C75.233 129.702 74.7363 128.172 73.3072 127.099C72.4708 126.471 71.6016 125.882 70.7535 125.266C70.2568 124.906 69.6312 124.588 69.903 123.812C70.1537 123.099 70.8027 123.196 71.3837 123.192C71.8945 123.189 72.4005 123.194 72.9089 123.192Z" fill="white"/>
</g>
<g clip-path="url(#clip1)" filter="url(#filter3_d)">
<path d="M254.947 155.09C254.099 154.952 253.251 154.81 252.403 154.677C251.123 154.474 249.846 154.259 248.563 154.083C246.45 153.794 244.333 153.514 242.216 153.261C240.904 153.103 239.586 152.987 238.27 152.872C236.219 152.692 234.167 152.505 232.114 152.362C230.414 152.242 228.711 152.177 227.009 152.088C222.598 151.859 218.184 151.819 213.768 151.888C210.591 151.938 207.413 152.08 204.24 152.305C202.274 152.445 200.31 152.599 198.351 152.803C195.786 153.068 193.23 153.397 190.684 153.8C187.147 154.359 183.636 155.043 180.181 155.973C177.056 156.813 173.973 157.777 171.088 159.268C168.776 160.463 166.692 161.937 165.16 164.076C164.506 164.99 164.056 165.97 164.136 167.126C164.154 167.385 164.099 167.633 163.823 167.76C163.48 167.918 163.165 167.825 162.9 167.608C162.129 166.978 161.766 166.142 161.702 165.17C161.576 163.25 162.485 161.781 163.801 160.503C165.354 158.993 167.223 157.954 169.173 157.044C171.962 155.746 174.884 154.82 177.855 154.039C180.371 153.376 182.915 152.842 185.479 152.396C188.095 151.942 190.723 151.576 193.361 151.276C196.064 150.968 198.774 150.729 201.489 150.561C204.967 150.346 208.451 150.221 211.937 150.225C214.712 150.227 217.485 150.221 220.258 150.326C223.117 150.436 225.973 150.59 228.826 150.814C230.816 150.97 232.804 151.144 234.786 151.367C237.815 151.707 240.833 152.127 243.837 152.635C246.916 153.156 249.973 153.777 253.007 154.513C253.659 154.671 254.305 154.845 254.955 155.011C254.951 155.035 254.949 155.063 254.947 155.09Z" fill="white"/>
<path d="M181.356 177.164C182.467 177.346 183.554 177.528 184.642 177.699C185.921 177.897 187.2 178.106 188.485 178.272C190.727 178.565 192.97 178.857 195.218 179.098C197.239 179.315 199.268 179.477 201.295 179.641C203.006 179.779 204.718 179.91 206.432 180.001C208.451 180.109 210.474 180.167 212.495 180.252C215.611 180.382 218.729 180.366 221.848 180.327C224.837 180.289 227.825 180.18 230.806 179.969C232.594 179.843 234.386 179.734 236.17 179.564C238.244 179.365 240.314 179.128 242.38 178.851C244.934 178.507 247.48 178.106 250.006 177.599C254.338 176.728 258.615 175.661 262.716 173.988C265.068 173.03 267.27 171.825 269.15 170.1C269.964 169.352 270.695 168.534 271.259 167.578C271.69 166.847 271.966 166.079 271.925 165.216C271.911 164.915 271.903 164.603 272.256 164.445C272.641 164.275 272.965 164.427 273.235 164.666C273.956 165.3 274.296 166.116 274.353 167.066C274.469 169.048 273.509 170.541 272.134 171.833C270.413 173.449 268.349 174.531 266.206 175.477C263.615 176.621 260.92 177.464 258.183 178.183C255.359 178.926 252.501 179.509 249.62 179.983C247.315 180.364 244.999 180.68 242.676 180.939C239.732 181.267 236.781 181.514 233.822 181.686C230.659 181.871 227.494 181.972 224.326 181.988C221.449 182.002 218.574 181.99 215.699 181.885C212.853 181.78 210.008 181.644 207.17 181.387C205.664 181.251 204.152 181.162 202.65 180.996C200.126 180.718 197.603 180.416 195.091 180.036C192.695 179.671 190.304 179.27 187.927 178.792C185.763 178.357 183.61 177.879 181.48 177.293C181.435 177.281 181.378 177.281 181.356 177.164Z" fill="white"/>
<path d="M231.819 168.43C231.102 168.43 230.442 168.475 229.79 168.418C229.214 168.368 228.754 168.023 228.513 167.505C228.168 166.762 227.638 166.543 226.827 166.602C225.726 166.681 224.616 166.628 223.509 166.618C223.28 166.616 223.129 166.683 223.006 166.873C222.837 167.138 222.638 167.385 222.456 167.645C222.074 168.195 221.549 168.469 220.871 168.459C220.517 168.455 220.164 168.459 219.81 168.459C219.784 168.299 219.886 168.228 219.949 168.141C221.754 165.676 223.562 163.211 225.368 160.746C225.595 160.439 226.474 160.386 226.672 160.684C228.378 163.242 230.08 165.808 231.819 168.43ZM225.55 165.573V165.571C225.994 165.571 226.439 165.565 226.882 165.573C227.097 165.577 227.211 165.554 227.05 165.315C226.631 164.702 226.218 164.084 225.812 163.462C225.703 163.298 225.628 163.29 225.511 163.45C225.054 164.084 224.592 164.714 224.128 165.342C223.989 165.528 224.06 165.575 224.257 165.573C224.688 165.571 225.119 165.573 225.55 165.573Z" fill="white"/>
<path d="M186.37 168.451C187.038 167.537 187.657 166.693 188.273 165.85C189.511 164.157 190.749 162.464 191.989 160.771C192.278 160.378 193.124 160.378 193.387 160.775C195.038 163.256 196.685 165.739 198.334 168.224C198.367 168.275 198.393 168.331 198.463 168.459C197.621 168.406 196.828 168.584 196.054 168.311C195.637 168.163 195.332 167.859 195.149 167.483C194.809 166.79 194.321 166.539 193.526 166.598C192.412 166.681 191.287 166.624 190.167 166.614C189.94 166.612 189.787 166.668 189.662 166.863C189.462 167.169 189.239 167.46 189.018 167.754C188.677 168.21 188.213 168.437 187.645 168.451C187.253 168.459 186.858 168.451 186.37 168.451ZM190.614 165.573C191.681 165.573 192.643 165.571 193.604 165.575C193.814 165.575 193.81 165.49 193.716 165.35C193.289 164.712 192.862 164.074 192.439 163.434C192.353 163.304 192.278 163.292 192.184 163.422C191.681 164.11 191.178 164.799 190.614 165.573Z" fill="white"/>
<path d="M257.636 162.312C257.045 162.32 256.538 162.353 256.003 162.029C255.1 161.484 254.078 161.32 253.032 161.648C252.609 161.781 252.211 161.986 252.176 162.498C252.141 163.005 252.452 163.313 252.877 163.525C253.514 163.843 254.229 163.849 254.908 164.001C255.566 164.149 256.216 164.323 256.794 164.684C258.128 165.514 258.114 167.078 256.737 167.847C255.306 168.647 253.757 168.706 252.184 168.4C251.275 168.224 250.437 167.868 249.726 167.26C249.638 167.185 249.454 167.102 249.626 166.98C249.801 166.857 249.859 166.458 250.2 166.667C251.305 167.339 252.497 167.574 253.778 167.402C254.084 167.361 254.37 167.264 254.628 167.094C255.3 166.65 255.304 165.779 254.634 165.338C254.156 165.024 253.608 164.913 253.056 164.817C252.211 164.672 251.399 164.435 250.694 163.92C249.713 163.203 249.677 162.191 250.621 161.421C251.544 160.668 252.652 160.467 253.804 160.485C255.149 160.506 256.348 160.927 257.325 161.877C257.446 161.986 257.558 162.101 257.636 162.312Z" fill="white"/>
<path d="M209.465 162.308C208.87 162.347 208.369 162.264 207.813 162.004C206.148 161.227 204.428 161.249 202.807 162.172C201.722 162.792 201.299 163.997 201.604 165.259C201.896 166.474 202.772 167.26 204.013 167.398C205.666 167.58 207.249 167.296 208.778 166.673C208.99 166.586 209.465 166.816 209.469 167.029C209.471 167.153 209.336 167.195 209.246 167.256C208.247 167.951 207.125 168.331 205.925 168.483C204.117 168.712 202.4 168.455 200.86 167.424C200.067 166.893 199.464 166.203 199.231 165.265C198.912 163.985 199.37 162.93 200.316 162.075C201.673 160.85 203.328 160.455 205.114 160.514C206.669 160.564 208.087 161.008 209.274 162.049C209.348 162.112 209.44 162.164 209.465 162.308Z" fill="white"/>
<path d="M219.974 160.505C219.675 161.247 219.205 161.662 218.451 161.723C217.957 161.761 217.46 161.783 216.968 161.719C216.621 161.674 216.48 161.763 216.484 162.154C216.504 164.068 216.494 165.982 216.492 167.898C216.49 168.562 216.529 168.447 215.914 168.455C215.366 168.461 214.82 168.443 214.273 168.461C213.997 168.471 213.935 168.372 213.938 168.114C213.948 166.188 213.946 164.26 213.942 162.334C213.94 161.625 214.013 161.729 213.343 161.723C212.656 161.717 211.97 161.71 211.283 161.727C211.032 161.733 210.962 161.654 210.958 161.407C210.946 160.505 210.938 160.505 211.837 160.505C214.393 160.505 216.95 160.505 219.506 160.505C219.641 160.505 219.78 160.505 219.974 160.505Z" fill="white"/>
<path d="M242.351 167.238C242.226 167.886 241.609 168.439 240.941 168.443C238.755 168.461 236.566 168.451 234.38 168.457C234.175 168.457 234.122 168.378 234.122 168.187C234.126 165.719 234.128 163.25 234.122 160.781C234.122 160.562 234.202 160.499 234.41 160.503C235.034 160.514 235.657 160.524 236.28 160.499C236.605 160.485 236.711 160.564 236.707 160.908C236.689 162.873 236.705 164.838 236.691 166.802C236.689 167.136 236.762 167.252 237.126 167.246C238.716 167.223 240.306 167.236 241.895 167.236C242.045 167.238 242.194 167.238 242.351 167.238Z" fill="white"/>
<path d="M177.212 164.455C177.212 163.244 177.218 162.035 177.205 160.823C177.203 160.58 177.267 160.493 177.522 160.499C178.133 160.516 178.744 160.522 179.355 160.497C179.682 160.483 179.79 160.566 179.786 160.908C179.77 162.875 179.788 164.842 179.77 166.808C179.766 167.167 179.878 167.246 180.219 167.242C181.848 167.225 183.479 167.234 185.107 167.236C185.489 167.236 185.52 167.288 185.326 167.604C184.991 168.149 184.513 168.453 183.851 168.451C181.762 168.449 179.676 168.445 177.588 168.457C177.297 168.459 177.197 168.39 177.203 168.084C177.224 166.875 177.212 165.666 177.212 164.455Z" fill="white"/>
<path d="M244.544 164.479C244.544 163.27 244.554 162.059 244.537 160.85C244.533 160.53 244.636 160.491 244.911 160.588C245.443 160.777 245.943 161.018 246.364 161.397C246.836 161.82 247.11 162.318 247.1 162.982C247.075 164.671 247.081 166.361 247.102 168.05C247.106 168.394 247.004 168.475 246.675 168.461C246.09 168.435 245.504 168.437 244.92 168.461C244.609 168.473 244.535 168.358 244.54 168.072C244.552 166.875 244.544 165.678 244.544 164.479Z" fill="white"/>
<path d="M250.451 172.074C250.451 172.552 250.441 173.03 250.455 173.508C250.463 173.741 250.38 173.858 250.153 173.795C249.948 173.739 249.574 174.01 249.562 173.571C249.538 172.639 249.554 171.705 249.556 170.774C249.556 170.715 249.57 170.638 249.607 170.604C249.76 170.46 250.557 170.599 250.676 170.786C250.997 171.294 251.315 171.805 251.72 172.299C251.72 171.853 251.74 171.406 251.714 170.962C251.695 170.642 251.802 170.539 252.121 170.563C252.386 170.585 252.642 170.504 252.621 170.944C252.584 171.774 252.597 172.607 252.613 173.437C252.617 173.708 252.552 173.791 252.259 173.814C251.806 173.848 251.534 173.702 251.33 173.297C251.107 172.856 250.811 172.449 250.547 172.027C250.516 172.044 250.484 172.058 250.451 172.074Z" fill="white"/>
<path d="M234.872 172.916C234.872 173.064 234.883 173.214 234.87 173.362C234.858 173.506 234.952 173.733 234.791 173.773C234.551 173.832 234.286 173.804 234.034 173.779C233.936 173.769 233.963 173.633 233.963 173.548C233.961 172.641 233.965 171.736 233.957 170.828C233.955 170.636 234.008 170.557 234.214 170.563C234.645 170.577 235.079 170.559 235.512 170.575C235.978 170.593 236.288 170.839 236.411 171.254C236.538 171.683 236.425 172.131 236.053 172.357C235.796 172.515 235.835 172.619 235.984 172.811C236.201 173.089 236.395 173.384 236.597 173.676C236.609 173.694 236.607 173.723 236.617 173.781C236.256 173.797 235.849 173.927 235.563 173.727C235.295 173.54 235.156 173.172 234.962 172.884C234.932 172.894 234.903 172.904 234.872 172.916ZM235.126 171.294C234.838 171.262 234.862 171.462 234.874 171.634C234.887 171.796 234.782 172.037 235.113 172.017C235.365 172.001 235.524 171.89 235.524 171.632C235.522 171.383 235.355 171.292 235.126 171.294Z" fill="white"/>
<path d="M229.047 172.583C229.047 172.89 229.034 173.198 229.051 173.506C229.063 173.739 228.979 173.806 228.746 173.808C228.119 173.812 228.121 173.822 228.123 173.212C228.125 172.508 228.121 171.803 228.123 171.098C228.123 170.569 228.125 170.588 228.65 170.561C228.969 170.545 229.085 170.636 229.051 170.956C229.024 171.193 229.047 171.434 229.051 171.673C229.051 171.697 229.063 171.722 229.079 171.789C229.347 171.572 229.516 171.298 229.672 171.031C229.888 170.661 230.168 170.494 230.597 170.565C230.73 170.588 230.869 170.569 231.1 170.569C230.726 171.043 230.412 171.463 230.072 171.86C229.903 172.058 229.89 172.194 230.064 172.402C230.422 172.834 230.747 173.291 231.133 173.802C230.743 173.802 230.442 173.796 230.142 173.804C229.982 173.808 229.923 173.703 229.852 173.599C229.613 173.253 229.371 172.907 229.132 172.56C229.104 172.568 229.075 172.574 229.047 172.583Z" fill="white"/>
<path d="M222.125 171.75C222.125 171.562 222.125 171.373 222.125 171.183C222.125 170.523 222.125 170.531 222.777 170.559C222.978 170.567 223.041 170.632 223.039 170.826C223.031 171.367 223.037 171.908 223.037 172.449C223.037 172.684 223.08 172.908 223.296 173.042C223.597 173.228 223.975 173.058 224.046 172.688C224.157 172.129 224.071 171.56 224.101 170.995C224.108 170.855 224.016 170.632 224.189 170.592C224.428 170.537 224.694 170.563 224.943 170.592C225.037 170.602 225.007 170.741 225.007 170.826C225.009 171.406 225.023 171.985 225 172.562C224.966 173.474 224.457 173.909 223.476 173.893C222.616 173.879 222.134 173.384 222.125 172.505C222.123 172.254 222.125 172.001 222.125 171.75Z" fill="white"/>
<path d="M240.937 170.587C241.403 170.44 241.575 170.681 241.703 171.092C241.955 171.894 242.255 172.682 242.551 173.47C242.643 173.715 242.647 173.844 242.329 173.804C242.204 173.788 242.073 173.792 241.949 173.804C241.756 173.822 241.626 173.771 241.601 173.563C241.568 173.289 241.397 173.222 241.145 173.247C240.97 173.263 240.79 173.253 240.612 173.247C240.469 173.243 240.353 173.277 240.332 173.433C240.285 173.775 240.069 173.818 239.766 173.806C239.219 173.783 239.217 173.8 239.396 173.303C239.66 172.57 239.952 171.847 240.183 171.104C240.308 170.701 240.459 170.44 240.937 170.587ZM240.939 171.381C240.829 171.728 240.757 171.981 240.663 172.224C240.567 172.475 240.643 172.528 240.904 172.542C241.258 172.562 241.321 172.449 241.201 172.147C241.113 171.928 241.047 171.699 240.939 171.381Z" fill="white"/>
<path d="M255.776 172.157C255.776 171.73 255.784 171.3 255.772 170.873C255.766 170.656 255.825 170.553 256.07 170.563C256.528 170.579 256.986 170.583 257.442 170.563C257.769 170.549 257.73 170.75 257.736 170.954C257.742 171.173 257.74 171.363 257.427 171.327C257.264 171.309 257.096 171.331 256.933 171.323C256.745 171.313 256.698 171.406 256.696 171.574C256.694 171.746 256.773 171.793 256.927 171.784C257.029 171.778 257.133 171.799 257.231 171.78C257.593 171.716 257.648 171.892 257.64 172.202C257.634 172.449 257.562 172.544 257.313 172.52C257.174 172.505 257.033 172.524 256.894 172.518C256.708 172.51 256.696 172.623 256.696 172.763C256.694 172.906 256.718 173.012 256.898 173.004C257.037 172.998 257.18 173.022 257.317 173.002C257.66 172.951 257.752 173.093 257.746 173.421C257.74 173.711 257.664 173.824 257.356 173.806C256.939 173.781 256.518 173.785 256.099 173.804C255.844 173.814 255.766 173.717 255.772 173.478C255.786 173.038 255.776 172.599 255.776 172.157Z" fill="white"/>
<path d="M246.407 172.193C246.407 172.633 246.397 173.074 246.411 173.512C246.42 173.749 246.332 173.834 246.103 173.802C246.041 173.793 245.974 173.791 245.913 173.802C245.586 173.854 245.477 173.741 245.488 173.396C245.516 172.568 245.51 171.738 245.49 170.909C245.482 170.62 245.576 170.549 245.853 170.557C246.507 170.579 246.395 170.514 246.405 171.098C246.409 171.286 246.405 171.474 246.405 171.663C246.407 171.841 246.407 172.017 246.407 172.193Z" fill="white"/>
</g>
<defs>
<filter id="filter0_d" x="35.5" y="12.1318" width="124" height="46" filterUnits="userSpaceOnUse" color-interpolation-filters="sRGB">
<feFlood flood-opacity="0" result="BackgroundImageFix"/>
<feColorMatrix in="SourceAlpha" type="matrix" values="0 0 0 0 0 0 0 0 0 0 0 0 0 0 0 0 0 0 127 0"/>
<feOffset dy="4"/>
<feGaussianBlur stdDeviation="2"/>
<feColorMatrix type="matrix" values="0 0 0 0 0 0 0 0 0 0 0 0 0 0 0 0 0 0 0.25 0"/>
<feBlend mode="normal" in2="BackgroundImageFix" result="effect1_dropShadow"/>
<feBlend mode="normal" in="SourceGraphic" in2="effect1_dropShadow" result="shape"/>
</filter>
<filter id="filter1_d" x="186.5" y="0.131836" width="66" height="70" filterUnits="userSpaceOnUse" color-interpolation-filters="sRGB">
<feFlood flood-opacity="0" result="BackgroundImageFix"/>
<feColorMatrix in="SourceAlpha" type="matrix" values="0 0 0 0 0 0 0 0 0 0 0 0 0 0 0 0 0 0 127 0"/>
<feOffset dy="4"/>
<feGaussianBlur stdDeviation="2"/>
<feColorMatrix type="matrix" values="0 0 0 0 0 0 0 0 0 0 0 0 0 0 0 0 0 0 0.25 0"/>
<feBlend mode="normal" in2="BackgroundImageFix" result="effect1_dropShadow"/>
<feBlend mode="normal" in="SourceGraphic" in2="effect1_dropShadow" result="shape"/>
</filter>
<filter id="filter2_d" x="35.5" y="105.132" width="90" height="92" filterUnits="userSpaceOnUse" color-interpolation-filters="sRGB">
<feFlood flood-opacity="0" result="BackgroundImageFix"/>
<feColorMatrix in="SourceAlpha" type="matrix" values="0 0 0 0 0 0 0 0 0 0 0 0 0 0 0 0 0 0 127 0"/>
<feOffset dy="4"/>
<feGaussianBlur stdDeviation="2"/>
<feColorMatrix type="matrix" values="0 0 0 0 0 0 0 0 0 0 0 0 0 0 0 0 0 0 0.25 0"/>
<feBlend mode="normal" in2="BackgroundImageFix" result="effect1_dropShadow"/>
<feBlend mode="normal" in="SourceGraphic" in2="effect1_dropShadow" result="shape"/>
</filter>
<filter id="filter3_d" x="157.5" y="150.132" width="121" height="40" filterUnits="userSpaceOnUse" color-interpolation-filters="sRGB">
<feFlood flood-opacity="0" result="BackgroundImageFix"/>
<feColorMatrix in="SourceAlpha" type="matrix" values="0 0 0 0 0 0 0 0 0 0 0 0 0 0 0 0 0 0 127 0"/>
<feOffset dy="4"/>
<feGaussianBlur stdDeviation="2"/>
<feColorMatrix type="matrix" values="0 0 0 0 0 0 0 0 0 0 0 0 0 0 0 0 0 0 0.25 0"/>
<feBlend mode="normal" in2="BackgroundImageFix" result="effect1_dropShadow"/>
<feBlend mode="normal" in="SourceGraphic" in2="effect1_dropShadow" result="shape"/>
</filter>
<clipPath id="clip0">
<rect width="82" height="84" fill="white" transform="translate(39.5 105.132)"/>
</clipPath>
<clipPath id="clip1">
<rect width="113" height="32" fill="white" transform="translate(161.5 150.132)"/>
</clipPath>
</defs>
</svg>
