<svg width="122" height="24" viewBox="0 0 122 24" fill="none" xmlns="http://www.w3.org/2000/svg">
<path d="M50.6537 1.61391C53.2806 0.535462 56.248 0.831981 58.9364 1.51507C59.6766 1.71055 60.7023 1.96754 60.7814 2.89223C60.8473 4.28258 60.7858 5.67511 60.8012 7.06765C58.6662 6.14735 56.3776 4.8822 53.979 5.44449C52.5536 5.77395 52.4877 7.88253 53.6496 8.56342C54.974 9.33218 56.5269 9.5628 57.8865 10.2547C59.4284 11.0103 61.0208 12.1151 61.4667 13.8744C62.0246 16.1038 61.8489 18.7197 60.3311 20.5472C59.1407 21.9529 57.2759 22.5701 55.4968 22.7546C53.1246 22.9523 50.6866 22.7326 48.444 21.9089C47.8927 21.7442 47.4337 21.2566 47.4556 20.6548C47.4139 19.2622 47.46 17.8675 47.4469 16.475C49.7641 17.5227 52.2527 18.8647 54.8796 18.3156C56.114 18.1069 56.6279 16.3476 55.6769 15.5305C54.7434 14.8035 53.5354 14.619 52.4503 14.2105C50.6295 13.602 48.8196 12.5587 47.8686 10.8236C47.0229 9.16305 46.9856 7.18846 47.359 5.39397C47.7214 3.67197 49.0349 2.25527 50.6537 1.61391Z" fill="black"/>
<path d="M0.856128 2.19374C0.825378 1.82474 0.943986 1.36349 1.39425 1.36788C2.56495 1.30858 3.74005 1.33933 4.91074 1.35031C5.57846 1.32176 6.19346 1.71492 6.51634 2.28599C8.51948 5.68827 10.4106 9.15863 12.4357 12.5477C12.506 9.03124 12.4006 5.51255 12.4511 1.99387C12.4182 1.6666 12.6685 1.35031 13.0134 1.36569C14.2588 1.31078 15.5107 1.34153 16.7583 1.34812C17.09 1.31078 17.3513 1.51724 17.6149 1.67538C17.5776 8.53045 17.5864 15.3877 17.6391 22.2428C16.8418 22.7348 15.8709 22.4734 14.988 22.5349C13.9535 22.5261 12.5873 22.737 11.9745 21.6673C10.5248 19.0931 9.08836 16.5079 7.65848 13.9227C7.10937 13.0046 6.66569 12.0206 6.02653 11.1574C6.01775 14.6936 6.06167 18.2277 6.03532 21.7618C6.08583 22.0978 5.88596 22.4822 5.52135 22.5042C4.43412 22.5766 3.34469 22.5107 2.25526 22.5393C1.80938 22.4976 1.20316 22.6601 0.933004 22.1879C0.831968 21.5355 0.884682 20.8722 0.875896 20.2155C0.878093 14.2082 0.860521 8.20099 0.856128 2.19374Z" fill="black"/>
<path d="M21.1292 1.67529C21.687 1.20086 22.447 1.359 23.1191 1.33704C24.6632 1.37877 26.2095 1.27993 27.7514 1.38097C28.5904 1.47102 29.1154 2.24636 29.3482 2.99095C30.5365 6.22849 31.6764 9.48361 32.9723 12.6794C34.2353 9.33645 35.5224 6.00446 36.7612 2.6527C37.0006 1.92129 37.6968 1.35241 38.4832 1.35461C40.0997 1.32606 41.7185 1.33923 43.3351 1.34802C43.6624 1.31068 43.9149 1.52154 44.1763 1.67968C44.1016 8.43591 44.1829 15.1943 44.1368 21.9484C44.1566 22.5107 43.5196 22.5568 43.1067 22.537C41.9425 22.5172 40.7762 22.5678 39.6143 22.5107C39.2146 22.5107 38.9949 22.0999 39.0498 21.7397C39.0037 17.617 39.0367 13.4943 38.984 9.37379C38.7995 9.68568 38.6369 10.0108 38.5007 10.349C37.5519 12.8881 36.5042 15.3898 35.5619 17.9311C35.3708 18.4626 35.0765 19.093 34.4461 19.1809C33.4511 19.2841 32.4452 19.2138 31.4458 19.2292C30.9011 19.2621 30.2751 19.1128 30.0071 18.5834C28.6959 15.5304 27.6767 12.35 26.3501 9.3035C26.1919 13.5163 26.3589 17.7422 26.2754 21.9571C26.3061 22.3503 25.8778 22.5502 25.544 22.526C24.2986 22.537 23.051 22.5546 21.8057 22.515C21.485 22.537 21.1841 22.291 21.1972 21.955C21.1401 15.1965 21.2236 8.43371 21.1292 1.67529Z" fill="black"/>
<path d="M69.9735 2.26631C70.773 1.61397 71.858 1.5942 72.8376 1.50195C72.9409 2.05326 73.0463 2.60676 73.1539 3.15806C72.4027 3.31181 71.2474 3.20419 70.9553 4.10253C70.7181 6.0881 71.0783 8.11102 70.7752 10.0922C70.5709 11.331 69.409 12.0426 68.2954 12.3633C69.3673 12.6752 70.5116 13.3254 70.7532 14.5114C71.0981 16.486 70.7159 18.5111 70.9509 20.4945C71.232 21.406 72.4005 21.2918 73.1561 21.4456C73.0485 21.9859 72.9453 22.524 72.842 23.0643H72.0777C71.2936 22.9457 70.4391 22.803 69.8439 22.2319C69.2882 21.7157 69.0993 20.9338 69.0795 20.2024C69.029 18.5924 69.1323 16.9824 69.051 15.3746C69.0137 14.7486 68.8643 14.0502 68.3306 13.657C67.7617 13.2617 67.0413 13.2441 66.3845 13.1365C66.3823 12.6093 66.3845 12.0844 66.3845 11.5594C67.0522 11.4408 67.8012 11.443 68.3613 11.0103C68.9016 10.5864 69.0202 9.86377 69.0554 9.22022C69.1279 7.61023 69.029 5.99585 69.0817 4.38367C69.1037 3.60394 69.3431 2.77149 69.9735 2.26631Z" fill="black"/>
<path d="M115.903 3.15318C116.009 2.60188 116.114 2.05057 116.219 1.49707C117.091 1.58493 118.023 1.6047 118.8 2.06595C119.468 2.45471 119.861 3.2015 119.938 3.95708C120.129 5.94704 119.824 7.96337 120.089 9.94675C120.188 10.9286 121.17 11.2822 121.954 11.5897V13.1535C121.172 13.3864 120.239 13.7312 120.107 14.6625C119.76 16.8018 120.239 19.007 119.846 21.142C119.573 22.3983 118.253 22.9299 117.105 23.0638H116.213C116.11 22.5257 116.006 21.9854 115.903 21.4473C116.645 21.2957 117.741 21.4011 118.089 20.5621C118.376 18.5655 117.966 16.5185 118.297 14.5241C118.541 13.3293 119.688 12.6681 120.773 12.3628C119.633 12.0487 118.46 11.3041 118.269 10.0412C118.02 8.11931 118.313 6.17108 118.132 4.24481C117.959 3.22347 116.683 3.30254 115.903 3.15318Z" fill="black"/>
<path d="M84.863 3.73535C85.6142 3.73535 86.3654 3.73535 87.1187 3.73535C87.1187 8.78934 87.1187 13.8411 87.1187 18.8929C86.4554 18.8907 85.7943 18.8907 85.131 18.8776C85.0958 18.2845 85.0585 17.6915 85.0387 17.0984C83.7187 19.5167 80.0484 19.7671 78.2034 17.8386C77.0635 16.6833 76.7538 14.9745 76.7933 13.4106C76.8131 11.928 77.2172 10.3576 78.3198 9.30551C80.1077 7.55495 83.5254 7.7087 84.8762 9.92929C84.8476 7.86465 84.8718 5.8 84.863 3.73535ZM81.1796 9.9886C79.9518 10.2873 79.2379 11.5349 79.1215 12.721C78.9832 13.9576 79.0556 15.3479 79.8485 16.367C80.8106 17.6432 82.9301 17.6827 83.98 16.4988C84.6565 15.7938 84.8366 14.7768 84.8674 13.8345C84.8938 12.8066 84.7664 11.6864 84.0943 10.8584C83.4287 9.99518 82.2031 9.70086 81.1796 9.9886Z" fill="black"/>
<path d="M92.7527 8.55656C94.6658 7.80098 97.1434 7.94595 98.6304 9.49224C99.8933 10.8079 100.084 12.7605 99.9021 14.4913C97.3081 14.5133 94.7141 14.4781 92.1224 14.5111C92.3266 15.5061 92.7681 16.5669 93.7477 17.026C95.1381 17.6783 97.1632 17.4148 97.9253 15.9432C98.5425 16.2023 99.1641 16.4549 99.7791 16.7273C99.219 17.6674 98.4085 18.4998 97.3323 18.8073C95.283 19.4289 92.7264 19.2049 91.2196 17.5378C89.9962 16.1892 89.8007 14.2409 89.9962 12.5035C90.1763 10.843 91.1427 9.18034 92.7527 8.55656ZM92.8604 10.876C92.4364 11.4075 92.2981 12.0884 92.1224 12.7254C94.0442 12.7539 95.9661 12.7408 97.8902 12.7342C97.6991 11.961 97.508 11.1198 96.8864 10.5663C95.7728 9.52299 93.8114 9.7009 92.8604 10.876Z" fill="black"/>
<path d="M100.811 8.35229C101.642 8.3479 102.474 8.3479 103.306 8.3479C104.295 11.2516 105.274 14.1597 106.276 17.059C107.302 14.1663 108.319 11.2714 109.314 8.36767C110.109 8.3457 110.902 8.3457 111.697 8.3457C110.291 11.86 108.905 15.3809 107.497 18.893C106.676 18.8908 105.852 18.8908 105.033 18.8908C103.627 15.3765 102.232 11.86 100.811 8.35229Z" fill="black"/>
</svg>
