<svg width="176" height="46" viewBox="0 0 176 46" fill="none" xmlns="http://www.w3.org/2000/svg">
<g clip-path="url(#clip0)">
<path d="M159.043 45.7079C158.607 45.6772 158.171 45.6431 157.735 45.6152C154.762 45.4332 151.831 44.8202 149.029 43.7947C147.719 43.314 147.048 42.3599 147.048 40.9502C147.048 38.3811 147.048 35.8117 147.048 33.2422C147.048 33.2046 147.048 33.1665 147.048 33.1284C147.052 32.6966 147.182 32.6124 147.558 32.7962C148.348 33.183 149.132 33.5824 149.93 33.951C152.114 34.9597 154.349 35.8381 156.713 36.3233C158.465 36.6835 160.223 36.8052 161.98 36.358C162.862 36.1305 163.64 35.7283 164.152 34.9199C165.19 33.2826 164.585 31.1082 162.914 30.1934C161.304 29.3116 159.554 28.848 157.842 28.2563C155.796 27.5475 153.811 26.7203 151.994 25.5051C148.879 23.4192 147.078 20.4988 146.592 16.7441C146.3 14.4685 146.355 12.2082 146.865 9.96677C147.602 6.72746 149.425 4.33466 152.301 2.75596C154.197 1.71431 156.221 1.10615 158.356 0.857546C158.827 0.800656 159.299 0.75685 159.77 0.706787H162.738C162.791 0.723292 162.846 0.734907 162.901 0.74149C163.934 0.77969 164.965 0.876173 165.988 1.03049C168.123 1.32569 170.221 1.8507 172.247 2.59667C173.393 3.02221 174.059 4.02234 174.062 5.26652C174.066 6.97322 174.062 8.67992 174.062 10.3866C174.062 11.2206 174.062 12.0552 174.062 12.8898C174.062 13.2601 173.918 13.3489 173.588 13.1964C173.476 13.1452 173.37 13.0889 173.26 13.0366C171.072 11.9926 168.852 11.03 166.516 10.3752C164.75 9.88087 162.966 9.5822 161.13 9.88485C160.705 9.94816 160.289 10.0627 159.891 10.2262C158.663 10.7507 157.991 11.6905 157.999 13.0422C158.007 14.5248 158.469 15.8043 159.859 16.5495C160.511 16.8988 161.173 17.2282 161.868 17.4791C163.203 17.9615 164.553 18.403 165.881 18.9042C168.041 19.7194 170.093 20.7491 171.917 22.2038C173.361 23.3553 174.507 24.7366 175.151 26.5081C175.581 27.6886 175.817 28.9083 175.923 30.1622C176.08 32.0054 176.009 33.8344 175.622 35.6429C174.923 38.909 173.256 41.5055 170.428 43.2764C168.255 44.6372 165.85 45.2676 163.342 45.552C162.732 45.6214 162.119 45.6584 161.506 45.7102L159.043 45.7079Z" fill="white"/>
<path d="M0 35.9799C0.105838 35.51 0.194317 35.0344 0.421673 34.6026C1.14966 33.2219 2.27972 32.4772 3.82474 32.4556C5.54951 32.4322 7.2754 32.4493 9.00073 32.4504C9.87991 32.4504 10.4141 32.992 10.4153 33.8829C10.4186 36.319 10.4108 38.7544 10.4276 41.1905C10.4332 41.9761 10.4769 42.7618 10.4634 43.548C10.4522 44.1675 10.2501 44.6824 9.65424 44.9566C9.44677 45.0445 9.22317 45.0862 8.99849 45.0789C6.48973 45.0789 3.98097 45.0789 1.47222 45.0789C0.57231 45.0789 0.0537591 44.5356 0.0442393 43.6259C0.0414393 43.3898 0.0867985 43.1481 0 42.9205V35.9799Z" fill="white"/>
<path d="M140.46 23.3428C140.46 30.0179 140.46 36.693 140.46 43.3681C140.463 43.5391 140.455 43.7102 140.436 43.8801C140.333 44.6515 139.839 45.0953 139.069 45.0981C137.586 45.1032 136.101 45.0981 134.619 45.0981C133.602 45.0981 132.585 45.0981 131.568 45.0981C130.607 45.0981 130.09 44.5662 130.088 43.5814C130.085 42.2252 130.1 40.8695 130.076 39.5138C130.002 35.3716 130.067 31.2283 130.016 27.0862C129.983 24.3463 130.001 21.6071 129.983 18.8678C129.983 18.7137 130.071 18.4759 129.842 18.4355C129.613 18.3951 129.613 18.6465 129.557 18.7922C127.299 24.6515 125.044 30.5111 122.791 36.3712C122.297 37.6558 121.347 38.314 119.992 38.3151C118.107 38.3151 116.222 38.3151 114.336 38.3151C112.957 38.3151 112.004 37.6324 111.509 36.324C109.282 30.4324 107.053 24.5415 104.822 18.6511C104.806 18.6073 104.791 18.5618 104.771 18.5191C104.728 18.4292 104.671 18.3484 104.558 18.3786C104.516 18.39 104.48 18.4155 104.456 18.4509C104.431 18.4863 104.419 18.5293 104.423 18.5726C104.418 18.7051 104.416 18.8383 104.417 18.9708C104.417 27.163 104.418 35.3551 104.42 43.5473C104.42 44.5998 103.931 45.0981 102.896 45.0987C100.424 45.0987 97.9512 45.0987 95.479 45.0987C94.5097 45.0987 93.9855 44.5764 93.985 43.5939C93.979 35.9328 93.9745 28.2716 93.9715 20.6104C93.9715 19.2171 93.9855 17.8228 93.9659 16.4295C93.9038 11.9745 93.9486 7.51885 93.925 3.06322C93.925 2.67068 93.9978 2.30772 94.261 2.00677C94.3875 1.85943 94.5444 1.74224 94.7206 1.66357C94.8968 1.5849 95.0878 1.54669 95.2802 1.55165C99.096 1.55165 102.912 1.51525 106.727 1.56872C108.33 1.59148 109.539 2.43516 110.127 3.96777C111.195 6.74799 112.187 9.55836 113.207 12.3568C114.653 16.3103 116.098 20.2637 117.542 24.2172C117.558 24.2616 117.573 24.3071 117.592 24.3503C117.638 24.4533 117.674 24.5779 117.816 24.5705C117.939 24.5642 117.974 24.4505 118.01 24.3537C118.272 23.654 118.533 22.9542 118.794 22.2545C121.041 16.2287 123.288 10.2033 125.536 4.17827C126.169 2.48294 127.514 1.55109 129.307 1.55052C132.498 1.55052 135.688 1.55052 138.879 1.55052C139.963 1.55052 140.459 2.04944 140.459 3.14856C140.46 9.87978 140.46 16.6112 140.46 23.3428Z" fill="white"/>
<path d="M58.2799 45.0962C57.0203 45.0962 55.7609 45.0962 54.5017 45.0962C53.5844 45.0962 53.0575 44.5597 53.0569 43.6313C53.0536 38.5112 53.072 33.3911 53.0435 28.271C52.997 19.8808 53.0155 11.4884 52.9976 3.10054C52.9976 2.83259 53.0054 2.56805 53.1224 2.32285C53.3672 1.81084 53.7883 1.55598 54.3348 1.55427C56.6481 1.54574 58.9626 1.51957 61.2753 1.56394C62.658 1.59068 63.7578 2.25174 64.4527 3.47715C67.6148 9.05237 70.7664 14.635 73.9076 20.225C74.6083 21.4663 75.3095 22.7077 76.0109 23.949C76.0479 24.0144 76.0854 24.081 76.1285 24.1424C76.1462 24.1764 76.175 24.2031 76.21 24.218C76.2449 24.2328 76.2838 24.2349 76.32 24.2238C76.3562 24.2126 76.388 24.19 76.4108 24.1594C76.4336 24.1287 76.4463 24.0915 76.4472 24.0531C76.4539 23.9496 76.4556 23.8449 76.4544 23.7408C76.3811 16.8679 76.4018 9.99447 76.3984 3.12102C76.3984 2.05661 76.8935 1.55029 77.9373 1.55029C80.4386 1.55029 82.9388 1.55029 85.4378 1.55029C86.1378 1.55029 86.6435 1.92178 86.8087 2.5379C86.839 2.67676 86.851 2.81908 86.8445 2.96116C86.8445 4.13708 86.8412 5.31299 86.8484 6.48834C86.9207 18.8983 86.8843 31.3083 86.9 43.7183C86.9 44.554 86.3618 45.0928 85.5196 45.0939C83.2432 45.0979 80.9669 45.1104 78.6877 45.0899C77.1858 45.0757 76.0339 44.3919 75.2958 43.055C73.5569 39.9071 71.8257 36.7533 70.1025 33.5936C68.0271 29.8104 65.9511 26.0274 63.8743 22.2446C63.8132 22.1308 63.7723 21.9727 63.5999 22.017C63.4173 22.062 63.4408 22.2287 63.4436 22.3686C63.5136 25.5061 63.4901 28.6436 63.4963 31.7816C63.5034 35.7347 63.5034 39.6882 63.4963 43.6421C63.4963 44.5802 62.985 45.0956 62.052 45.0967C60.7969 45.0979 59.5396 45.0977 58.2799 45.0962Z" fill="white"/>
<path d="M45.8564 23.3502C45.8564 30.1011 45.8564 36.8521 45.8564 43.603C45.8564 44.1719 45.6677 44.6196 45.1749 44.9115C44.9509 45.044 44.7 45.0821 44.4469 45.0821C41.927 45.0821 39.407 45.0878 36.8871 45.0821C35.9575 45.0821 35.4311 44.5058 35.4311 43.5148C35.4289 37.9115 35.4277 32.3082 35.4277 26.705C35.4277 19.6506 35.4277 12.5962 35.4277 5.54187C35.4277 4.01153 36.0997 2.85154 37.3877 2.06191C37.951 1.71488 38.5782 1.56811 39.2329 1.56583C40.9587 1.55976 42.6846 1.55976 44.4105 1.56583C45.3065 1.56583 45.8407 2.10572 45.843 3.01823C45.8486 5.26539 45.8499 7.51235 45.8469 9.75913V23.3502H45.8564Z" fill="white"/>
<path d="M28.0511 31.7129C28.0511 35.6467 28.0511 39.5804 28.0511 43.5142C28.0511 44.5706 27.5471 45.0821 26.5011 45.0821C24.0573 45.0821 21.6135 45.0821 19.1697 45.0821C18.1679 45.0821 17.6331 44.5382 17.6325 43.5176C17.6303 36.3612 17.6292 29.2046 17.6292 22.0479C17.6275 21.1628 17.9256 20.3042 18.4734 19.6159C19.0211 18.9277 19.7852 18.4518 20.6374 18.2681C20.9291 18.2043 21.2267 18.1725 21.525 18.1731C23.1852 18.1758 24.8454 18.1758 26.5056 18.1731C27.5018 18.1731 28.0315 18.6976 28.0394 19.7091C28.0489 20.9038 28.0439 22.0985 28.0444 23.2932V31.7129H28.0511Z" fill="white"/>
</g>
<defs>
<clipPath id="clip0">
<rect width="176" height="45" fill="white" transform="translate(0 0.707764)"/>
</clipPath>
</defs>
</svg>
