<svg width="88" height="91" viewBox="0 0 88 91" fill="none" xmlns="http://www.w3.org/2000/svg">
<g filter="url(#filter0_d)">
<path d="M44.0457 60.6273C57.7956 60.6273 68.9421 49.4808 68.9421 35.731C68.9421 21.9811 57.7956 10.8346 44.0457 10.8346C30.2959 10.8346 19.1494 21.9811 19.1494 35.731C19.1494 49.4808 30.2959 60.6273 44.0457 60.6273Z" fill="#47BC61"/>
<path d="M58.4609 23.8093C62.8136 23.8093 66.3422 20.2807 66.3422 15.928C66.3422 11.5753 62.8136 8.04675 58.4609 8.04675C54.1082 8.04675 50.5796 11.5753 50.5796 15.928C50.5796 20.2807 54.1082 23.8093 58.4609 23.8093Z" fill="#FF4343"/>
<path d="M59.5877 25.1759H28.4424L39.7254 36.9244L42.9814 40.2212C41.2099 39.8163 41.1003 39.5639 40.3153 38.923C39.9035 38.5868 39.108 37.6731 37.8997 36.4392C34.1282 32.588 27.7285 26.0529 27.7285 26.0529V45.3886L28.5323 46.1924L28.4423 46.286L42.7502 60.5939C43.1793 60.6159 43.6111 60.6273 44.0456 60.6273C57.7955 60.6273 68.942 49.4808 68.942 35.7309C68.942 35.318 68.9313 34.9076 68.9115 34.4996L59.5877 25.1759Z" fill="#50A554"/>
<path d="M27.7285 26.0529V45.3886L37.1578 35.6816L27.7285 26.0529Z" fill="white"/>
<path d="M60.3626 26.0529V45.3886L50.9802 35.7207L60.3626 26.0529Z" fill="white"/>
<path d="M28.4424 25.1759H59.5876L47.3471 37.9214C46.4759 38.8285 45.2726 39.3412 44.015 39.3412C42.7575 39.3412 41.5542 38.8285 40.683 37.9214L28.4424 25.1759Z" fill="white"/>
<path d="M48.0532 38.5995C47.003 39.693 45.5312 40.3202 44.015 40.3202C42.499 40.3202 41.0271 39.6932 39.977 38.5996L37.9008 36.4377L28.4424 46.286H59.5876L50.1293 36.4377L48.0532 38.5995Z" fill="white"/>
<path d="M59.7928 20.2009H58.3772V13.3631L56.2891 14.0767V12.8776L59.6114 11.6552H59.7928V20.2009Z" fill="white"/>
</g>
<defs>
<filter id="filter0_d" x="0.319078" y="0.106563" width="87.5638" height="90.5382" filterUnits="userSpaceOnUse" color-interpolation-filters="sRGB">
<feFlood flood-opacity="0" result="BackgroundImageFix"/>
<feColorMatrix in="SourceAlpha" type="matrix" values="0 0 0 0 0 0 0 0 0 0 0 0 0 0 0 0 0 0 127 0"/>
<feOffset dy="11.0767"/>
<feGaussianBlur stdDeviation="9.41517"/>
<feColorMatrix type="matrix" values="0 0 0 0 0 0 0 0 0 0 0 0 0 0 0 0 0 0 0.15 0"/>
<feBlend mode="normal" in2="BackgroundImageFix" result="effect1_dropShadow"/>
<feBlend mode="normal" in="SourceGraphic" in2="effect1_dropShadow" result="shape"/>
</filter>
</defs>
</svg>
