<svg width="332" height="313" viewBox="0 0 332 313" fill="none" xmlns="http://www.w3.org/2000/svg">
<rect x="166.857" y="4.73254" width="246.909" height="122.129" stroke="#B7A5FF" stroke-width="9"/>
<path d="M206.181 59.1871C207.948 59.1871 209.291 59.5835 210.209 60.3764C211.126 61.1693 211.585 62.3378 211.585 63.8819C211.585 65.3425 211.119 66.4623 210.188 67.2413C209.271 68.0064 207.935 68.3889 206.181 68.3889H203.671V72.9586H199.542V59.1871H206.181ZM205.513 65.3842C206.174 65.3842 206.66 65.259 206.97 65.0087C207.28 64.7583 207.436 64.3688 207.436 63.8402C207.436 63.3116 207.28 62.9221 206.97 62.6717C206.66 62.4213 206.174 62.2961 205.513 62.2961H203.671V65.3842H205.513Z" fill="#EED8FF"/>
<path d="M228.557 69.7661V72.9586H217.525V59.1871H228.293V62.3795H221.654V64.6122H226.958V67.5752H221.654V69.7661H228.557Z" fill="#EED8FF"/>
<path d="M240.012 68.1803H238.332V72.9586H234.283V59.1871H241.125C242.825 59.1871 244.12 59.5696 245.011 60.3347C245.902 61.0998 246.347 62.2196 246.347 63.6941C246.347 65.6972 245.517 67.0396 243.857 67.7212L247.116 72.9586H242.602L240.012 68.1803ZM238.332 65.2799H240.335C241.01 65.2799 241.489 65.1686 241.773 64.9461C242.056 64.7096 242.198 64.327 242.198 63.7984C242.198 63.2698 242.049 62.8873 241.752 62.6508C241.469 62.4143 240.997 62.2961 240.335 62.2961H238.332V65.2799Z" fill="#EED8FF"/>
<path d="M256.594 62.3795V64.7791H261.897V67.9716H256.594V72.9586H252.465V59.1871H263.213V62.3795H256.594Z" fill="#EED8FF"/>
<path d="M279.958 69.7661V72.9586H268.926V59.1871H279.695V62.3795H273.055V64.6122H278.359V67.5752H273.055V69.7661H279.958Z" fill="#EED8FF"/>
<path d="M297.831 68.8689C297.466 70.3434 296.758 71.4284 295.705 72.1239C294.666 72.8195 293.371 73.1672 291.819 73.1672C290.443 73.1672 289.248 72.889 288.236 72.3326C287.238 71.7762 286.469 70.9624 285.929 69.8913C285.389 68.8202 285.119 67.5473 285.119 66.0728C285.119 64.5983 285.389 63.3324 285.929 62.2752C286.469 61.2041 287.238 60.3903 288.236 59.8339C289.235 59.2636 290.422 58.9784 291.799 58.9784C293.31 58.9784 294.599 59.3122 295.665 59.98C296.731 60.6338 297.412 61.6284 297.709 62.9638L294.126 64.4453C293.978 63.5967 293.735 63.0194 293.398 62.7134C293.06 62.3935 292.568 62.2335 291.92 62.2335C291.097 62.2335 290.463 62.5534 290.017 63.1933C289.586 63.8332 289.37 64.793 289.37 66.0728C289.37 68.6324 290.206 69.9122 291.88 69.9122C292.554 69.9122 293.067 69.7522 293.418 69.4322C293.782 69.0984 294.025 68.5698 294.147 67.8464L297.831 68.8689Z" fill="#EED8FF"/>
<path d="M315.293 62.3795H311.042V72.9586H306.913V62.3795H302.622V59.1871H315.293V62.3795Z" fill="#EED8FF"/>
<path d="M227.751 154.398C224.782 149.434 218.534 143.018 214.842 138.567C212.38 135.598 210.403 133.597 207.941 130.628C203.992 125.868 197.541 119.09 192.442 115.59C190.401 114.184 188.138 112.988 185.676 112.685C183.214 112.382 180.525 113.105 178.933 115.001C177.399 116.827 179.049 121.336 179.184 123.71C179.808 135.032 188.295 144.231 196.823 151.709C204.645 158.575 212.934 164.909 221.614 170.661C222.81 171.454 224.087 172.265 225.522 172.364C226.957 172.463 228.567 171.588 228.76 170.165C228.754 170.165 233.292 163.667 227.751 154.398Z" fill="#FF9AA4"/>
<path d="M281.731 140.999C274.212 143.245 255.009 161.042 239.563 168.304C234.523 170.673 227.978 174.692 223.498 171.384C218.54 167.721 218.295 166.473 218.213 165.901C217.642 161.865 221.41 158.289 224.187 155.302C228.491 150.665 230.008 151.627 235.433 149.93C243.518 147.398 259.016 141.612 261.898 140.364C265.713 138.719 274.235 136.747 276.679 134.822C277.974 133.801 280.121 135.621 281.194 136.875C281.69 137.459 281.731 140.999 281.731 140.999Z" fill="#FF9AA4"/>
<path d="M292.125 121.592C293.123 123.943 293.805 126.434 294.138 128.971C294.301 130.214 294.377 131.515 293.916 132.681C293.426 133.935 292.382 134.875 291.355 135.744C290.014 136.875 288.643 137.972 287.243 139.034C286.193 139.827 285.096 140.609 283.836 140.97C282.046 141.484 280.138 141.087 278.318 140.684C277.712 140.55 277.07 140.399 276.65 139.944C276.16 139.407 276.119 138.614 276.113 137.89C276.084 135.236 276.23 132.413 277.741 130.237C278.633 128.954 279.928 128.015 281.2 127.099C284.151 124.97 287.103 122.788 290.393 121.237C291.734 120.601 292.125 121.592 292.125 121.592Z" fill="#FF9AA4"/>
<path d="M289.792 133.825C290.171 134.688 291.175 135.079 292.038 134.7L305.851 128.645C306.714 128.266 307.105 127.262 306.726 126.399C306.347 125.536 305.344 125.145 304.48 125.524L290.667 131.579C289.804 131.958 289.413 132.967 289.792 133.825Z" fill="#FF9AA4"/>
<path d="M290.609 129.199C291.14 129.975 292.195 130.179 292.977 129.648L307.642 119.65C308.417 119.119 308.622 118.063 308.091 117.282C307.56 116.506 306.504 116.302 305.723 116.833L291.058 126.831C290.276 127.361 290.078 128.417 290.609 129.199Z" fill="#FF9AA4"/>
<path d="M289.442 125.728C290.084 126.416 291.163 126.457 291.851 125.816C291.851 125.816 297.883 120.577 299.93 118.676C301.558 117.165 306.551 112.148 306.551 112.148C307.239 111.507 307.28 110.428 306.638 109.739C305.997 109.051 304.918 109.01 304.229 109.652C304.229 109.652 299.434 114.482 297.871 115.934C295.759 117.9 289.524 123.325 289.524 123.325C288.841 123.966 288.8 125.04 289.442 125.728Z" fill="#FF9AA4"/>
<path d="M288.281 124.859C289.18 125.139 290.86 125.104 291.145 124.206L293.356 114.727C293.636 113.828 293.158 112.51 292.259 112.23C291.361 111.95 290.405 112.446 290.125 113.344L286.187 124.048C285.901 124.946 287.383 124.579 288.281 124.859Z" fill="#FF9AA4"/>
<path d="M282.512 114.791C282.576 115.73 283.393 116.436 284.326 116.372L291.939 115.841C292.878 115.777 293.584 114.96 293.52 114.027C293.455 113.088 292.639 112.382 291.705 112.446L284.093 112.977C283.154 113.041 282.442 113.852 282.512 114.791Z" fill="#FF9AA4"/>
<path d="M278.213 133.41C279.135 133.591 281.602 132.43 281.935 131.55C284.542 124.661 282.629 115.963 282.629 115.963C282.81 115.042 282.209 114.143 281.287 113.963C280.366 113.782 279.467 114.383 279.287 115.304L276.872 131.41C276.691 132.337 277.292 133.23 278.213 133.41Z" fill="#FF9AA4"/>
<path d="M289.074 133.794C291.632 131.416 292.297 127.974 290.56 126.105C288.822 124.237 285.341 124.649 282.783 127.027C280.225 129.405 279.56 132.847 281.298 134.716C283.035 136.585 286.517 136.172 289.074 133.794Z" fill="#F17D86"/>
<path d="M192.308 226.274C178.565 244.521 130.873 243.045 115.363 226.274C96.586 205.981 115.812 120.087 115.812 120.087C116.185 115.293 119.802 112.708 124.988 111.594L152.911 107.155L182.549 111.594C188.243 112.703 191.433 115.374 191.737 120.227C191.737 120.227 208.904 204.243 192.308 226.274Z" fill="#FF9AA4"/>
<path d="M191.999 118.133C192.711 121.441 192.775 124.853 192.682 128.231C191.859 158.645 178.997 187.274 166.374 214.958C166.106 215.541 165.826 216.148 165.324 216.545C164.729 217.017 163.936 217.122 163.183 217.204C156.312 217.968 149.405 218.394 142.493 218.464C150.52 203.677 157.409 188.306 164.28 172.953C166.514 167.96 168.754 162.961 170.702 157.851C172.289 153.681 173.683 149.434 175.305 145.269C179.376 134.799 186.434 127.758 192.128 118.069L191.999 118.133Z" fill="#F17D86"/>
<path d="M106.351 214.019C93.6576 226.992 73.8131 229.903 59.1835 240.642C55.2053 243.558 51.3963 247.577 51.2388 252.506C64.8126 251.923 78.4213 252.15 91.9718 253.171C104.466 254.116 116.92 255.738 129.444 256.117C159.024 257.015 188.452 250.949 218.038 251.334C227.383 251.456 236.71 252.22 246.055 252.069C246.895 252.057 247.77 252.028 248.517 251.631C250.109 250.791 250.471 248.528 249.765 246.871C249.059 245.215 247.583 244.025 246.148 242.934C236.71 235.73 226.578 229.436 215.938 224.157C210.898 221.655 205.654 219.327 201.478 215.553C199.5 213.762 200.877 210 198.229 210.356C192.681 211.097 187.181 212.654 184.912 212.946C157.904 216.44 133.469 215.693 106.298 213.873L106.351 214.019Z" fill="#4800FF"/>
<path d="M155.028 253.107C150.07 250.412 144.902 248.102 139.588 246.195C136.887 245.226 133.988 244.352 131.182 244.976C129.129 245.431 127.344 246.65 125.594 247.816C119.784 251.678 113.659 255.271 106.893 256.986C103.399 257.873 99.7649 258.246 96.3816 259.5C93.0042 260.754 89.7726 263.123 88.6877 266.558C88.0693 268.518 88.466 271.091 90.3385 271.937C92.2109 272.782 94.2758 270.729 96.1075 269.807C97.9799 268.868 100.027 268.297 102.116 268.092C103.801 267.929 114.033 268.6 115.724 268.635C130.896 268.95 137.593 266.43 151.756 260.982C153.471 260.323 155.285 259.529 156.259 257.972C157.239 256.415 156.825 253.889 155.069 253.352L155.028 253.107Z" fill="#F17D86"/>
<path d="M251.439 252.524C252.763 254.863 252.571 257.855 251.392 260.27C248.592 265.993 241.528 268.011 235.217 268.874C206.553 272.806 177.644 265.596 148.74 264.383C144.044 264.184 139.279 264.138 134.776 262.796C133.492 262.417 131.958 261.384 132.407 260.124C132.588 259.611 133.066 259.267 133.521 258.969C136.502 257.033 139.786 255.621 143.053 254.215C149.236 251.555 155.419 248.89 161.602 246.23C164.881 244.818 168.165 243.401 171.56 242.287C180.56 239.317 190.115 238.501 199.57 237.842C203.21 237.591 206.856 237.358 210.508 237.41C225.516 237.632 247.058 244.585 251.497 252.355L251.439 252.524Z" fill="#F17D86"/>
<path d="M152.911 109.191C175.106 109.191 190.733 96.5448 188.505 75.6154C188.254 73.2705 188.038 70.9197 187.513 68.6214C185.069 57.9351 176.454 48.1003 164.834 45.3296C164.834 45.3296 156.93 44.0638 152.783 44.1046C148.781 44.1396 145.462 44.1338 140.195 45.6796C136.666 46.712 124.054 50.0019 119.417 68.6273C118.845 70.9139 118.618 73.2705 118.425 75.6212C117.025 92.5433 131.083 109.191 152.911 109.191Z" fill="#1E0E00"/>
<path d="M181.394 75.5454C180.187 75.5338 179.102 76.0996 178.402 76.9804V59.9242C178.402 55.946 176.261 52.4402 173.076 50.5036C170.714 49.0687 167.832 48.777 165.178 49.547L157.863 51.6644C154.906 52.5219 151.768 52.5161 148.816 51.6528L141.659 49.5586C138.999 48.7828 136.1 49.0687 133.737 50.5095C130.558 52.4461 128.423 55.946 128.423 59.9242V77.2079C127.659 76.1112 126.329 75.4346 124.865 75.6154C122.946 75.8487 121.546 77.5462 121.546 79.477V86.6576C121.546 88.5884 122.946 90.2917 124.865 90.5192C126.329 90.6942 127.659 90.0175 128.423 88.9267V97.4081C128.423 109.261 138.118 118.956 149.971 118.956H156.86C168.713 118.956 178.408 109.261 178.408 97.4081V89.0725C179.108 89.9534 180.193 90.5192 181.4 90.5075C183.494 90.49 185.145 88.6934 185.145 86.5993V79.4536C185.145 77.3595 183.494 75.5629 181.394 75.5454Z" fill="#FF9AA4"/>
<path d="M165.167 93.7974C165.167 96.1131 159.718 101.69 152.999 101.69C146.279 101.69 140.831 96.1131 140.831 93.7974C140.831 91.4816 146.279 93.3016 152.999 93.3016C159.718 93.3016 165.167 91.4816 165.167 93.7974Z" fill="white"/>
<path d="M136.456 80.1069C139.868 80.6728 143.473 81.2269 146.81 79.9961C147.253 79.8328 147.556 79.4011 147.422 78.917C147.305 78.4912 146.792 78.1412 146.343 78.3045C143.304 79.4245 140.031 78.9286 136.922 78.4153C136.456 78.3395 135.983 78.5378 135.843 79.0278C135.726 79.4478 135.983 80.0253 136.456 80.1069Z" fill="#1E0E00"/>
<path d="M160.64 80.3519C164.041 81.396 167.663 81.501 171.122 80.6902C172.219 80.4336 171.752 78.7478 170.656 79.0044C167.494 79.7453 164.204 79.6169 161.107 78.6661C160.028 78.3336 159.567 80.0194 160.64 80.3519Z" fill="#1E0E00"/>
<path d="M151.797 87.935C152.613 88.8567 153.984 89.23 155.163 88.8917C155.6 88.7692 155.921 88.2675 155.775 87.8126C155.629 87.3634 155.168 87.0659 154.696 87.2001C154.585 87.2292 154.48 87.2526 154.369 87.2701C154.445 87.2584 154.527 87.2467 154.603 87.2409C154.381 87.2701 154.153 87.2701 153.932 87.2409C154.008 87.2526 154.089 87.2642 154.165 87.2701C153.943 87.2351 153.728 87.1767 153.518 87.0892C153.588 87.1184 153.658 87.1476 153.728 87.1767C153.535 87.0951 153.348 86.9842 153.179 86.8559C153.238 86.9026 153.296 86.9492 153.354 86.9901C153.238 86.8967 153.127 86.7976 153.028 86.6867C152.724 86.3426 152.094 86.3543 151.791 86.6867C151.464 87.0601 151.476 87.5676 151.797 87.935Z" fill="#1E0E00"/>
<path d="M160.699 70.2022C163.049 70.5872 165.429 70.7856 167.803 70.803C169.477 70.8147 171.717 70.4181 173.345 70.8672C174.978 71.3164 175.976 72.7105 176.769 74.4546L176.687 74.6996C173.508 73.9063 170.218 74.5188 166.969 74.6004C165.581 74.6354 164.152 74.5654 162.886 73.8888C161.62 73.2121 160.553 71.8064 160.494 70.1672L160.699 70.2022Z" fill="#1E0E00"/>
<path d="M146.232 70.2022C143.881 70.5872 141.501 70.7856 139.127 70.803C137.453 70.8147 135.213 70.4181 133.586 70.8672C131.952 71.3164 130.955 72.7105 130.162 74.4546L130.243 74.6996C133.422 73.9063 136.712 74.5188 139.961 74.6004C141.35 74.6354 142.779 74.5654 144.045 73.8888C145.31 73.2121 146.378 71.8064 146.436 70.1672L146.232 70.2022Z" fill="#1E0E00"/>
<path d="M153.833 64.6082C155.263 64.6082 156.423 63.036 156.423 61.0967C156.423 59.1573 155.263 57.5851 153.833 57.5851C152.402 57.5851 151.243 59.1573 151.243 61.0967C151.243 63.036 152.402 64.6082 153.833 64.6082Z" fill="#FF00FF"/>
<path d="M168.696 40.6864C168.696 46.537 161.877 47.972 153.465 47.972C145.054 47.972 138.235 46.537 138.235 40.6864C138.235 34.8357 145.054 30.0933 153.465 30.0933C161.877 30.0933 168.696 34.8357 168.696 40.6864Z" fill="#1E0E00"/>
<path d="M128.313 89.3992C128.178 93.2141 130.803 97.0581 133.755 99.4847C136.707 101.905 140.44 103.206 144.196 103.9C146.53 104.332 149.061 104.519 151.167 103.416C152.106 102.92 153.034 102.162 154.089 102.29C154.556 102.349 154.976 102.576 155.402 102.786C159.701 104.869 164.986 104.414 169.192 102.145C173.397 99.8755 176.565 95.9557 178.501 91.5924C179.149 92.0124 179.289 92.8816 179.341 93.6515C179.866 101.287 177.749 109.08 173.432 115.403C167.634 123.908 158.044 129.817 154.259 139.389C153.576 136.397 151.622 133.848 149.394 131.742C147.165 129.636 144.628 127.875 142.365 125.81C138.818 122.572 136.001 118.629 133.207 114.721C132.069 113.128 130.932 111.53 130.127 109.745C129.421 108.176 128.989 106.496 128.657 104.805C127.741 100.126 127.566 95.3082 128.138 90.5775C128.161 90.3383 128.313 89.3992 128.313 89.3992Z" fill="#1E0E00"/>
<path d="M165.301 46.4029C169.477 46.2162 173.496 44.3205 176.255 41.1647C176.99 40.3189 175.76 39.0764 175.019 39.9281C172.563 42.7397 169.04 44.4838 165.301 44.6529C164.181 44.6996 164.175 46.4496 165.301 46.4029Z" fill="#1E0E00"/>
<path d="M80.7722 154.398C83.7413 149.434 89.9887 143.018 93.6811 138.567C96.1427 135.598 98.1201 133.597 100.582 130.628C104.531 125.868 110.982 119.09 116.08 115.59C118.122 114.184 120.385 112.988 122.847 112.685C125.309 112.382 127.998 113.105 129.59 115.001C131.124 116.827 129.473 121.336 129.339 123.71C128.715 135.032 120.228 144.231 111.7 151.709C103.877 158.575 95.5885 164.909 86.9088 170.661C85.713 171.454 84.4355 172.265 83.0005 172.364C81.5656 172.463 79.9556 171.588 79.7631 170.165C79.7631 170.165 75.2249 163.667 80.7722 154.398Z" fill="#FF9AA4"/>
<path d="M26.792 140.999C34.3109 143.245 53.5137 161.042 68.96 168.304C73.9998 170.673 80.5447 174.692 85.0245 171.384C89.9827 167.721 90.2277 166.473 90.3094 165.901C90.881 161.865 87.1128 158.289 84.3362 155.302C80.0313 150.665 78.5147 151.627 73.0899 149.93C65.0051 147.398 49.5064 141.612 46.6248 140.364C42.8099 138.719 34.2876 136.747 31.8435 134.822C30.5486 133.801 28.402 135.621 27.3287 136.875C26.827 137.459 26.792 140.999 26.792 140.999Z" fill="#FF9AA4"/>
<path d="M16.3917 121.592C15.3942 123.943 14.7117 126.434 14.3792 128.971C14.2159 130.214 14.14 131.515 14.6009 132.681C15.0908 133.935 16.135 134.875 17.1616 135.744C18.5033 136.875 19.8741 137.972 21.274 139.034C22.324 139.827 23.4206 140.609 24.6806 140.97C26.4714 141.484 28.3788 141.087 30.1988 140.684C30.8054 140.55 31.4471 140.399 31.8671 139.944C32.357 139.407 32.3979 138.614 32.4037 137.89C32.4329 135.236 32.287 132.413 30.7762 130.237C29.8838 128.954 28.5888 128.015 27.3172 127.099C24.3656 124.97 21.414 122.788 18.1241 121.237C16.7825 120.601 16.3917 121.592 16.3917 121.592Z" fill="#FF9AA4"/>
<path d="M18.7306 133.825C18.3515 134.688 17.3481 135.079 16.4848 134.7L2.6719 128.645C1.80859 128.266 1.41776 127.262 1.79692 126.399C2.17608 125.536 3.17938 125.145 4.04269 125.524L17.8556 131.579C18.7131 131.958 19.1039 132.967 18.7306 133.825Z" fill="#FF9AA4"/>
<path d="M17.9081 129.199C17.3773 129.975 16.3215 130.179 15.5398 129.648L0.875249 119.65C0.0994369 119.119 -0.104727 118.063 0.426092 117.282C0.956911 116.506 2.01271 116.302 2.79436 116.833L17.459 126.831C18.2406 127.361 18.4389 128.417 17.9081 129.199Z" fill="#FF9AA4"/>
<path d="M19.0747 125.728C18.4331 126.416 17.3539 126.457 16.6656 125.816C16.6656 125.816 10.6341 120.577 8.58666 118.676C6.9592 117.165 1.96601 112.148 1.96601 112.148C1.27769 111.507 1.23686 110.428 1.87851 109.739C2.52016 109.051 3.5993 109.01 4.28762 109.652C4.28762 109.652 9.08248 114.482 10.6458 115.934C12.7574 117.9 18.993 123.325 18.993 123.325C19.6755 123.966 19.7163 125.04 19.0747 125.728Z" fill="#FF9AA4"/>
<path d="M20.2416 124.859C19.3433 125.139 17.6633 125.104 17.3775 124.206L15.1667 114.727C14.8867 113.828 15.3651 112.51 16.2634 112.23C17.1617 111.95 18.1183 112.446 18.3983 113.344L22.3357 124.048C22.6157 124.946 21.1341 124.579 20.2416 124.859Z" fill="#FF9AA4"/>
<path d="M26.0105 114.791C25.9463 115.73 25.1297 116.436 24.1964 116.372L16.5841 115.841C15.645 115.777 14.9392 114.96 15.0033 114.027C15.0675 113.088 15.8841 112.382 16.8174 112.446L24.4297 112.977C25.363 113.041 26.0747 113.852 26.0105 114.791Z" fill="#FF9AA4"/>
<path d="M30.3037 133.41C29.382 133.591 26.9146 132.43 26.5821 131.55C23.9747 124.661 25.8879 115.963 25.8879 115.963C25.7071 115.042 26.3079 114.143 27.2296 113.963C28.1512 113.782 29.0495 114.383 29.2304 115.304L31.6453 131.41C31.8261 132.337 31.2253 133.23 30.3037 133.41Z" fill="#FF9AA4"/>
<path d="M27.2196 134.745C28.9569 132.876 28.2919 129.434 25.7342 127.056C23.1765 124.678 19.6947 124.265 17.9574 126.134C16.2201 128.003 16.8852 131.445 19.4428 133.823C22.0005 136.201 25.4823 136.614 27.2196 134.745Z" fill="#F17D86"/>
<path d="M153.337 312.594C178.855 312.594 199.541 308.397 199.541 303.22C199.541 298.043 178.855 293.846 153.337 293.846C127.819 293.846 107.132 298.043 107.132 303.22C107.132 308.397 127.819 312.594 153.337 312.594Z" fill="#DBDBDB" stroke="white" stroke-width="0.583317" stroke-miterlimit="10"/>
<path d="M181.155 111.029C176.769 120.846 167.891 131.573 162.343 136.753C141.099 156.58 110.626 153.442 109.442 160.056C105.744 180.776 107.22 186.691 104.262 199.64C102.751 206.261 99.8524 215.04 99.8816 221.83C102.687 223.486 106.094 223.655 109.349 223.784C123.955 224.344 136.94 250.348 151.546 250.908C149.487 244.194 140.83 223.405 157.688 205.45C179.849 181.849 186.761 155.25 193.101 124.76C193.661 122.065 193.37 119.347 192.664 116.687C191.556 112.528 187.502 112.335 182.433 110.848C181.919 110.696 181.155 110.579 181.085 111.104L181.155 111.029Z" fill="#A800FF"/>
<path d="M106.351 214.019C93.6576 226.992 73.8131 229.903 59.1835 240.642C55.2053 243.558 51.3963 247.577 51.2388 252.506C64.8126 251.923 78.4213 252.15 91.9718 253.171C104.466 254.116 117.212 258.841 129.444 256.117C139.693 253.836 140.37 244.894 142.493 239.405C146.028 230.264 146.249 223.055 147.754 215.991C154.078 186.282 123.786 215.051 106.298 213.873L106.351 214.019Z" fill="#A800FF"/>
<path d="M147.27 253.107C152.228 250.412 157.397 248.102 162.711 246.195C165.411 245.226 168.31 244.352 171.116 244.976C173.17 245.431 174.954 246.65 176.704 247.816C182.514 251.678 188.639 255.271 195.406 256.986C198.9 257.873 202.534 258.246 205.917 259.5C209.294 260.754 212.526 263.123 213.611 266.558C214.229 268.518 213.833 271.091 211.96 271.937C210.088 272.782 208.023 270.729 206.191 269.807C204.319 268.868 202.271 268.297 200.183 268.092C198.497 267.929 188.266 268.6 186.574 268.635C171.402 268.95 164.706 266.43 150.543 260.982C148.828 260.323 147.014 259.529 146.039 257.972C145.059 256.415 145.474 253.889 147.229 253.352L147.27 253.107Z" fill="#FF9AA4"/>
<path d="M50.8596 252.524C49.5355 254.863 49.728 257.855 50.9063 260.27C53.7062 265.993 60.7701 268.011 67.0816 268.874C95.7458 272.806 124.655 265.596 153.558 264.383C158.254 264.184 163.02 264.138 167.523 262.796C168.806 262.417 170.34 261.384 169.891 260.124C169.71 259.611 169.232 259.267 168.777 258.969C165.796 257.033 162.512 255.621 159.246 254.215C153.063 251.555 146.879 248.89 140.696 246.23C137.418 244.818 134.134 243.401 130.739 242.287C121.738 239.317 112.184 238.501 102.728 237.842C99.0883 237.591 95.4425 237.358 91.791 237.41C76.7822 237.632 55.2403 244.585 50.8013 252.355L50.8596 252.524Z" fill="#FF9AA4"/>
</svg>
