<svg width="38" height="37" viewBox="0 0 38 37" fill="none" xmlns="http://www.w3.org/2000/svg">
<g clip-path="url(#clip0)">
<path d="M2.42761 1.89807H36.3079V34.8543H2.42761V1.89807Z" fill="url(#paint0_radial)"/>
<path d="M2.42762 1.89827H36.3079V34.8545H2.42762V1.89827ZM0.887634 36.3946H37.8479V0.358276H0.887634V36.3946ZM25.805 15.1424C24.5884 15.1424 24.1726 15.7584 24.1726 16.2666C24.1726 16.8209 24.4498 17.206 26.0822 18.053C28.5 19.2234 29.2547 20.3476 29.2547 21.9954C29.2547 24.4594 27.3759 25.7838 24.8348 25.7838C23.495 25.7838 22.3399 25.5066 21.6778 25.1217C21.57 25.0755 21.5546 24.9985 21.5546 24.8752V22.6114C21.5546 22.4574 21.6316 22.4112 21.7394 22.4882C22.7096 23.1197 23.8184 23.3968 24.8348 23.3968C26.0514 23.3968 26.5596 22.8886 26.5596 22.1956C26.5596 21.6412 26.2054 21.1484 24.65 20.3476C22.4631 19.3004 21.5546 18.2378 21.5546 16.4668C21.5546 14.4801 23.11 12.8324 25.805 12.8324C27.1294 12.8324 28.0534 13.0326 28.5616 13.2636C28.6848 13.3406 28.7156 13.4637 28.7156 13.5715V15.6813C28.7156 15.8045 28.6386 15.8815 28.4846 15.8353C27.807 15.4042 26.806 15.1424 25.805 15.1424ZM12.5609 16.975C12.9151 17.0058 13.1923 17.0058 13.8083 17.0058C15.6102 17.0058 17.3042 16.3744 17.3042 13.9258C17.3042 11.97 16.0875 10.9843 14.0394 10.9843C13.4234 10.9843 12.8381 11.0151 12.5609 11.0305V16.975ZM9.81973 8.79752C9.81973 8.68973 10.0354 8.61268 10.1585 8.61268C11.1442 8.56648 12.6072 8.53569 14.1317 8.53569C18.3976 8.53569 20.0607 10.8765 20.0607 13.8642C20.0607 17.7757 17.2271 19.4544 13.7467 19.4544C13.1615 19.4544 12.9614 19.4236 12.5455 19.4236V25.3372C12.5455 25.4604 12.4993 25.522 12.3607 25.522H10.0045C9.88133 25.522 9.81967 25.4758 9.81967 25.3372V8.79752H9.81973Z" fill="#31C5F0"/>
</g>
<defs>
<radialGradient id="paint0_radial" cx="0" cy="0" r="1" gradientUnits="userSpaceOnUse" gradientTransform="translate(13.5861 9.2836) scale(25.749 24.9297)">
<stop stop-color="#34364E" stop-opacity="0.98"/>
<stop offset="1" stop-color="#0C0824"/>
</radialGradient>
<clipPath id="clip0">
<rect width="36.9602" height="36.0436" fill="white" transform="translate(0.887573 0.35437)"/>
</clipPath>
</defs>
</svg>
