<svg width="39" height="37" viewBox="0 0 39 37" fill="none" xmlns="http://www.w3.org/2000/svg">
<g clip-path="url(#clip0)">
<path d="M2.43585 1.93347H36.4969V35.0656H2.43585V1.93347Z" fill="url(#paint0_radial)"/>
<path d="M2.43578 1.93383H36.4968V35.0659H2.43578V1.93383ZM0.887573 36.6142H38.045V0.38562H0.887573V36.6142ZM23.182 15.6821C23.182 15.4963 23.182 15.0474 23.1046 14.1803C23.1046 14.0564 23.1201 14.0255 23.2285 13.979C24.1729 13.592 26.3869 12.9108 28.895 12.9108C29.0188 12.9108 29.0807 12.9417 29.0807 13.0656V15.3105C29.0807 15.4344 29.0343 15.4653 28.9105 15.4653C27.935 15.4189 26.5262 15.5427 25.9843 15.7749V25.5288C25.9843 25.6526 25.9378 25.7146 25.7984 25.7146H23.3678C23.244 25.7146 23.182 25.6681 23.182 25.5288V15.6821H23.182ZM13.2734 17.091C13.6295 17.1219 13.9082 17.1219 14.5275 17.1219C16.3389 17.1219 18.042 16.4872 18.042 14.0255C18.042 12.0593 16.8343 11.0684 14.7597 11.0684C14.1404 11.0684 13.5521 11.0993 13.2734 11.1148V17.091ZM10.533 8.86989C10.533 8.76152 10.564 8.68406 10.6878 8.68406C11.6787 8.63762 13.134 8.60666 14.6668 8.60666C18.9554 8.60666 20.8287 10.96 20.8287 13.979C20.8287 17.9115 17.98 19.5991 14.481 19.5991C13.8927 19.5991 13.6914 19.5681 13.2734 19.5681V25.5133C13.2734 25.6372 13.227 25.6991 13.0876 25.6991H10.7033C10.5795 25.6991 10.5175 25.6527 10.5175 25.5133V8.86989H10.533Z" fill="#E579FF"/>
</g>
<defs>
<radialGradient id="paint0_radial" cx="0" cy="0" r="1" gradientUnits="userSpaceOnUse" gradientTransform="translate(13.6539 9.3584) scale(25.8864 25.0627)">
<stop stop-color="#4B2D4F" stop-opacity="0.98"/>
<stop offset="1" stop-color="#180024"/>
</radialGradient>
<clipPath id="clip0">
<rect width="37.1574" height="36.2359" fill="white" transform="translate(0.887573 0.381592)"/>
</clipPath>
</defs>
</svg>
