<svg width="220" height="231" viewBox="0 0 220 231" fill="none" xmlns="http://www.w3.org/2000/svg">
<path d="M40.727 187.448C59.0231 187.448 73.8549 172.616 73.8549 154.32C73.8549 136.024 59.0231 121.192 40.727 121.192C22.431 121.192 7.59912 136.024 7.59912 154.32C7.59912 172.616 22.431 187.448 40.727 187.448Z" fill="#1E0E00"/>
<path d="M40.7271 158.124C25.555 158.124 13.2151 145.784 13.2151 130.612C13.2151 115.44 25.555 103.1 40.7271 103.1C55.8992 103.1 68.2392 115.44 68.2392 130.612C68.2392 145.784 55.8992 158.124 40.7271 158.124ZM40.7271 110.717C29.7548 110.717 20.8319 119.644 20.8319 130.612C20.8319 141.584 29.7592 150.507 40.7271 150.507C51.6994 150.507 60.6223 141.58 60.6223 130.612C60.6223 119.644 51.6994 110.717 40.7271 110.717Z" fill="#1E0E00"/>
<path d="M16.6856 149.909C18.134 149.951 18.2809 150.748 18.2809 151.336C18.2809 151.861 18.2179 152.406 18.155 152.973C18.092 153.54 18.05 154.107 18.05 154.631C18.05 156.731 19.3514 157.486 21.2196 157.486H21.9752V155.723H21.5974C20.6318 155.723 20.317 155.135 20.317 154.212C20.317 153.855 20.38 153.456 20.4219 153.036C20.4639 152.595 20.5269 152.113 20.5269 151.567C20.5479 149.972 19.8972 149.363 18.7427 149.111V149.069C19.8972 148.817 20.5479 148.229 20.5269 146.634C20.5269 146.109 20.4639 145.627 20.4219 145.207C20.38 144.766 20.317 144.388 20.317 144.01C20.317 143.087 20.6528 142.52 21.5974 142.52H21.9752V140.736H21.2406C19.2884 140.736 18.05 141.596 18.05 143.569C18.05 144.094 18.092 144.661 18.155 145.228C18.2179 145.794 18.2809 146.34 18.2809 146.865C18.2809 147.495 18.134 148.25 16.6856 148.292V149.909ZM30.6958 140.232V145.794H30.6538C30.192 145.081 29.2055 144.64 27.946 144.64C25.4902 144.64 23.3281 146.634 23.3491 150.098C23.3491 153.288 25.3012 155.366 27.7361 155.366C29.0585 155.366 30.297 154.778 30.9477 153.624H30.9897L31.1366 155.135H33.9703C33.9283 154.443 33.8864 153.225 33.8864 152.071V140.232H30.6958ZM30.6958 150.559C30.6958 150.832 30.6748 151.063 30.6118 151.294C30.4229 152.197 29.6883 152.826 28.7647 152.826C27.4423 152.826 26.5817 151.735 26.5817 149.993C26.5817 148.376 27.3373 147.075 28.7857 147.075C29.7722 147.075 30.4649 147.789 30.6538 148.649C30.6748 148.817 30.6958 149.048 30.6958 149.216V150.559ZM45.5089 151.021C45.5509 150.79 45.6138 150.307 45.6138 149.762C45.6138 147.222 44.3544 144.64 41.0379 144.64C37.4695 144.64 35.8532 147.516 35.8532 150.119C35.8532 153.33 37.8473 155.345 41.3318 155.345C42.7171 155.345 43.9976 155.135 45.0471 154.715L44.6273 152.553C43.7667 152.826 42.8851 152.973 41.7936 152.973C40.3032 152.973 39.0018 152.344 38.8969 151.021H45.5089ZM38.8759 148.838C38.9598 147.977 39.5056 146.76 40.849 146.76C42.3183 146.76 42.6542 148.061 42.6542 148.838H38.8759ZM46.3162 144.871L50.0525 155.135H53.2431L57.0633 144.871H53.7048L52.3824 149.636C52.1515 150.517 51.9836 151.294 51.8157 152.134H51.7527C51.6058 151.315 51.4169 150.496 51.165 149.636L49.7796 144.871H46.3162ZM63.2193 148.292C61.7919 148.25 61.624 147.495 61.624 146.865C61.624 146.34 61.687 145.794 61.7499 145.228C61.8129 144.661 61.8759 144.094 61.8759 143.569C61.8759 141.596 60.6375 140.736 58.6643 140.736H57.9297V142.52H58.3075C59.2521 142.541 59.5879 143.087 59.5879 144.01C59.5879 144.388 59.5459 144.766 59.483 145.207C59.441 145.627 59.378 146.109 59.378 146.634C59.357 148.229 60.0077 148.817 61.1832 149.069V149.111C60.0077 149.363 59.357 149.972 59.378 151.567C59.378 152.113 59.441 152.595 59.483 153.036C59.5459 153.456 59.5879 153.855 59.5879 154.212C59.5879 155.135 59.2731 155.702 58.3075 155.723H57.9297V157.486H58.6853C60.5745 157.486 61.8759 156.731 61.8759 154.631C61.8759 154.107 61.8129 153.54 61.7499 152.973C61.687 152.406 61.624 151.861 61.624 151.336C61.624 150.748 61.7919 149.951 63.2193 149.909V148.292Z" fill="#A800FF"/>
<path d="M0.343018 176.027C0.343018 176.071 0.343018 176.115 0.343018 176.159C0.343018 198.398 18.3736 216.429 40.6128 216.429C62.852 216.429 80.8826 198.398 80.8826 176.159C80.8826 176.115 80.8826 176.071 80.8826 176.027H0.343018Z" fill="#A800FF"/>
</svg>
