<svg width="220" height="231" viewBox="0 0 220 231" fill="none" xmlns="http://www.w3.org/2000/svg">
<path d="M97.5234 225.607C97.5234 225.585 97.5234 225.567 97.5234 225.545C97.5234 215.294 105.835 206.978 116.091 206.978C126.346 206.978 134.658 215.29 134.658 225.545C134.658 225.567 134.658 225.585 134.658 225.607H97.5234Z" fill="#1E0E00"/>
<path d="M179.286 229.807C189.771 229.807 198.271 228.082 198.271 225.955C198.271 223.827 189.771 222.102 179.286 222.102C168.801 222.102 160.301 223.827 160.301 225.955C160.301 228.082 168.801 229.807 179.286 229.807Z" fill="#DBDBDB"/>
<path d="M179.286 229.934C168.569 229.934 160.173 228.184 160.173 225.954C160.173 223.72 168.569 221.974 179.286 221.974C190.003 221.974 198.398 223.725 198.398 225.954C198.398 228.188 190.003 229.934 179.286 229.934ZM179.286 222.234C168.01 222.234 160.433 224.156 160.433 225.954C160.433 227.749 168.01 229.675 179.286 229.675C190.561 229.675 198.139 227.753 198.139 225.954C198.139 224.156 190.561 222.234 179.286 222.234Z" fill="white"/>
</svg>
