<svg width="220" height="231" viewBox="0 0 220 231" fill="none" xmlns="http://www.w3.org/2000/svg">
<path d="M189.686 114.596C189.686 120.906 176.141 112.788 178.261 130.018C179.031 136.281 166.836 120.906 166.836 114.596C166.836 108.285 171.95 103.17 178.261 103.17C184.572 103.17 189.686 108.289 189.686 114.596Z" fill="#FF00FF"/>
<path d="M196.054 99.8414C200.846 99.8414 204.731 88.3016 204.731 74.0664C204.731 59.8313 200.846 48.2915 196.054 48.2915C191.262 48.2915 187.377 59.8313 187.377 74.0664C187.377 88.3016 191.262 99.8414 196.054 99.8414Z" fill="#1E0E00"/>
<path d="M160.644 99.8414C165.436 99.8414 169.32 88.3016 169.32 74.0664C169.32 59.8313 165.436 48.2915 160.644 48.2915C155.852 48.2915 151.967 59.8313 151.967 74.0664C151.967 88.3016 155.852 99.8414 160.644 99.8414Z" fill="#1E0E00"/>
<path d="M178.265 112.788C188.729 112.788 197.211 87.5998 197.211 56.5284C197.211 25.4569 188.729 0.268555 178.265 0.268555C167.802 0.268555 159.32 25.4569 159.32 56.5284C159.32 87.5998 167.802 112.788 178.265 112.788Z" fill="#A800FF"/>
<path d="M178.265 99.8414C183.057 99.8414 186.942 88.3016 186.942 74.0664C186.942 59.8313 183.057 48.2915 178.265 48.2915C173.473 48.2915 169.589 59.8313 169.589 74.0664C169.589 88.3016 173.473 99.8414 178.265 99.8414Z" fill="#1E0E00"/>
</svg>
