<svg width="52" height="52" viewBox="0 0 52 52" fill="none" xmlns="http://www.w3.org/2000/svg">
<g clip-path="url(#clip0)">
<path d="M51.8674 3.97127C51.755 1.90952 50.1153 0.269996 48.0535 0.157471C43.8933 -0.0698098 35.7526 0.151287 27.9683 4.17756C24 6.23019 19.8031 9.71026 16.4538 13.7255C16.4125 13.775 16.3724 13.8247 16.3314 13.8743L8.73039 14.4615C7.47923 14.5582 6.36482 15.214 5.67284 16.2605L0.487152 24.1041C-0.0376616 24.8978 -0.121092 25.8912 0.263825 26.7613C0.648844 27.6315 1.43997 28.2379 2.38021 28.3836L8.78412 29.3754C8.76151 29.4999 8.7388 29.6243 8.71802 29.7488C8.50483 31.0241 8.92736 32.3352 9.84844 33.2562L18.7686 42.1764C19.5322 42.9401 20.5641 43.3611 21.6214 43.3611C21.8392 43.3611 22.0581 43.3432 22.2761 43.3068C22.4006 43.286 22.525 43.2633 22.6495 43.2407L23.6413 49.6447C23.787 50.5849 24.3934 51.3761 25.2634 51.7611C25.6254 51.9212 26.0085 52.0003 26.3899 52.0003C26.9254 52.0002 27.4572 51.8443 27.9207 51.5378L35.7642 46.352C36.8109 45.66 37.4666 44.5455 37.5631 43.2945L38.1503 35.6936C38.1998 35.6526 38.2497 35.6125 38.2992 35.5712C42.3145 32.2219 45.7947 28.025 47.8472 24.0566C51.8737 16.272 52.0944 8.13115 51.8674 3.97127ZM34.087 43.815L26.5842 48.7756L25.6175 42.5345C28.7885 41.6022 31.9253 40.1089 34.9137 38.1085L34.5312 43.0601C34.5074 43.369 34.3454 43.6442 34.087 43.815ZM20.919 40.026L11.9988 31.1058C11.7712 30.8781 11.666 30.5583 11.7176 30.2502C11.9828 28.6644 12.3949 27.1548 12.905 25.7327L26.2892 39.117C24.5812 39.7288 23.0514 40.0937 21.7746 40.3072C21.466 40.3585 21.1466 40.2536 20.919 40.026ZM8.96467 17.4937L13.9162 17.1112C11.9157 20.0996 10.4224 23.2364 9.49009 26.4074L3.24909 25.4408L8.20973 17.9379C8.38065 17.6794 8.65588 17.5175 8.96467 17.4937ZM36.3514 33.2356C33.8948 35.2847 31.5102 36.7668 29.3122 37.8392L14.185 22.7121C15.5899 19.8428 17.3044 17.4535 18.7891 15.6736C21.8886 11.9577 25.7436 8.75217 29.3656 6.87878C36.5098 3.18339 44.037 2.98439 47.888 3.19403C48.3977 3.22181 48.8031 3.6272 48.8308 4.13701C49.0408 7.98801 48.8414 15.515 45.146 22.6594C43.2727 26.2813 40.0672 30.1361 36.3514 33.2356Z" fill="url(#paint0_linear)"/>
<path d="M35.5789 24.0454C37.5255 24.0452 39.4729 23.3041 40.9549 21.8222C42.391 20.3862 43.1817 18.4769 43.1817 16.4462C43.1817 14.4155 42.3909 12.5062 40.9549 11.0702C37.9905 8.10573 33.1671 8.10593 30.203 11.0702C28.7669 12.5062 27.9761 14.4155 27.9761 16.4462C27.9761 18.4769 28.767 20.3862 30.203 21.8222C31.6853 23.3044 33.6316 24.0456 35.5789 24.0454ZM32.3532 13.2206C33.2425 12.3312 34.4106 11.8866 35.5787 11.8866C36.747 11.8866 37.9151 12.3312 38.8044 13.2206C39.6659 14.0821 40.1404 15.2277 40.1404 16.4461C40.1404 17.6645 39.6659 18.8101 38.8044 19.6717C37.0258 21.4503 34.1317 21.4502 32.3531 19.6717C31.4915 18.8101 31.017 17.6646 31.017 16.4462C31.017 15.2278 31.4916 14.0821 32.3532 13.2206Z" fill="url(#paint1_linear)"/>
<path d="M1.57598 42.87C1.96516 42.87 2.35433 42.7216 2.65115 42.4246L7.61575 37.46C8.2096 36.8661 8.2096 35.9034 7.61575 35.3095C7.022 34.7157 6.05915 34.7157 5.4653 35.3095L0.500807 40.2741C-0.0930425 40.868 -0.0930425 41.8307 0.500807 42.4246C0.797631 42.7215 1.18681 42.87 1.57598 42.87Z" fill="url(#paint2_linear)"/>
<path d="M12.1655 39.8593C11.5718 39.2655 10.6089 39.2655 10.0151 39.8593L0.47029 49.4042C-0.12356 49.9981 -0.12356 50.9608 0.47029 51.5547C0.767214 51.8516 1.15629 52 1.54546 52C1.93464 52 2.32381 51.8516 2.62064 51.5546L12.1654 42.0098C12.7594 41.4159 12.7594 40.4532 12.1655 39.8593Z" fill="url(#paint3_linear)"/>
<path d="M14.5649 44.4091L9.60029 49.3737C9.00644 49.9675 9.00644 50.9303 9.60029 51.5241C9.89722 51.821 10.2864 51.9696 10.6755 51.9696C11.0645 51.9696 11.4538 51.8211 11.7506 51.5241L16.7152 46.5595C17.3091 45.9657 17.3091 45.0029 16.7152 44.4091C16.1215 43.8152 15.1586 43.8152 14.5649 44.4091Z" fill="url(#paint4_linear)"/>
</g>
<defs>
<linearGradient id="paint0_linear" x1="25.9764" y1="0.0965576" x2="25.9764" y2="52.0003" gradientUnits="userSpaceOnUse">
<stop stop-color="#8200FF"/>
<stop offset="1" stop-color="#B338DE"/>
<stop offset="1" stop-color="#B338DE"/>
</linearGradient>
<linearGradient id="paint1_linear" x1="35.5789" y1="8.84692" x2="35.5789" y2="24.0454" gradientUnits="userSpaceOnUse">
<stop stop-color="#8200FF"/>
<stop offset="1" stop-color="#B338DE"/>
<stop offset="1" stop-color="#B338DE"/>
</linearGradient>
<linearGradient id="paint2_linear" x1="4.05828" y1="34.8641" x2="4.05828" y2="42.87" gradientUnits="userSpaceOnUse">
<stop stop-color="#8200FF"/>
<stop offset="1" stop-color="#B338DE"/>
<stop offset="1" stop-color="#B338DE"/>
</linearGradient>
<linearGradient id="paint3_linear" x1="6.3179" y1="39.4139" x2="6.3179" y2="52" gradientUnits="userSpaceOnUse">
<stop stop-color="#8200FF"/>
<stop offset="1" stop-color="#B338DE"/>
<stop offset="1" stop-color="#B338DE"/>
</linearGradient>
<linearGradient id="paint4_linear" x1="13.1578" y1="43.9637" x2="13.1578" y2="51.9696" gradientUnits="userSpaceOnUse">
<stop stop-color="#8200FF"/>
<stop offset="1" stop-color="#B338DE"/>
<stop offset="1" stop-color="#B338DE"/>
</linearGradient>
<clipPath id="clip0">
<rect width="51.9035" height="51.9035" fill="white" transform="translate(0.0249023 0.0964355)"/>
</clipPath>
</defs>
</svg>
