<svg width="61" height="60" viewBox="0 0 61 60" fill="none" xmlns="http://www.w3.org/2000/svg">
<path d="M55.5772 6.40232C47.9423 -1.69761 35.0772 -2.17585 26.8423 5.33393L28.5706 7.16638C35.3939 0.94471 45.9384 0.94471 52.7616 7.16638C59.9675 13.737 60.3938 24.8094 53.7136 31.8972C47.0335 38.985 35.7766 39.4043 28.5706 32.8336L26.8423 34.6661C30.598 38.1006 35.5382 40.0066 40.6663 39.9998C45.7934 39.9999 50.7312 38.0948 54.491 34.6661C62.726 27.1564 63.2123 14.5023 55.5772 6.40232Z" fill="url(#paint0_linear)"/>
<path d="M40.6663 5.00024V7.50019C47.6848 7.50019 53.3745 13.0965 53.3745 20.0001C53.3745 26.9036 47.6849 32.5001 40.6663 32.5001V35C49.0885 35 55.9161 28.2843 55.9161 20.0001C55.9161 11.716 49.0886 5.00024 40.6663 5.00024Z" fill="url(#paint1_linear)"/>
<path d="M45.7497 44.9999H35.5831C34.8813 44.9999 34.3123 45.5596 34.3123 46.2499V53.7498C34.3164 57.1999 37.1589 59.9957 40.6663 59.9998C44.1739 59.9957 47.0162 57.1998 47.0204 53.7498V46.2499C47.0205 45.5596 46.4515 44.9999 45.7497 44.9999ZM44.4788 53.7498C44.4788 55.8209 42.7719 57.4998 40.6663 57.4998C38.5608 57.4998 36.8539 55.8209 36.8539 53.7498V47.4999H44.4788V53.7498Z" fill="url(#paint2_linear)"/>
<path d="M39.3955 38.75H36.8539V46.2499H39.3955V38.75Z" fill="url(#paint3_linear)"/>
<path d="M44.4787 38.75H41.9371V46.2499H44.4787V38.75Z" fill="url(#paint4_linear)"/>
<path d="M40.6662 5.00024H7.62488V7.50019H40.6662V5.00024Z" fill="url(#paint5_linear)"/>
<path d="M40.6662 32.5001H7.62488V35H40.6662V32.5001Z" fill="url(#paint6_linear)"/>
<path d="M5.08333 5.00024H0V7.50019H5.08333V5.00024Z" fill="url(#paint7_linear)"/>
<path d="M5.08333 32.5001H0V35H5.08333V32.5001Z" fill="url(#paint8_linear)"/>
<path d="M7.62494 18.7501H5.08333C3.67963 18.7501 2.54173 17.6308 2.54173 16.2501C2.54173 14.8694 3.67963 13.7502 5.08333 13.7502H7.62494C9.02864 13.7502 10.1665 14.8694 10.1665 16.2501H12.7082C12.7082 13.4887 10.4322 11.2501 7.62482 11.2501H5.08333C2.27593 11.2501 0 13.4887 0 16.2501C0 19.0115 2.27593 21.2501 5.08333 21.2501H7.62494C9.02864 21.2501 10.1665 22.3694 10.1665 23.7501C10.1665 25.1308 9.02864 26.25 7.62494 26.25H5.08333C3.67963 26.25 2.54173 25.1308 2.54173 23.7501H0C0 26.5114 2.27593 28.7501 5.08333 28.7501H7.62494C10.4323 28.7501 12.7083 26.5116 12.7083 23.7501C12.7083 20.9886 10.4323 18.7501 7.62494 18.7501Z" fill="url(#paint9_linear)"/>
<path d="M29.2289 13.7502V11.2501H17.7915C17.0896 11.2501 16.5206 11.8098 16.5206 12.5002V27.5C16.5206 28.1904 17.0896 28.7501 17.7915 28.7501H29.2289V26.2501H19.0624V13.7502H29.2289Z" fill="url(#paint10_linear)"/>
<path d="M27.9581 18.7501H17.7915V21.25H27.9581V18.7501Z" fill="url(#paint11_linear)"/>
<path d="M36.8538 11.2501C33.3446 11.2501 30.4998 14.0483 30.4998 17.5V22.5C30.5039 25.9501 33.3464 28.7458 36.8538 28.7499C40.3614 28.7458 43.2037 25.95 43.2079 22.5V17.5C43.208 14.0483 40.3632 11.2501 36.8538 11.2501ZM40.6663 22.5C40.6663 24.5711 38.9594 26.25 36.8538 26.25C34.7483 26.25 33.0414 24.5711 33.0414 22.5V17.5C33.0414 15.429 34.7483 13.7501 36.8538 13.7501C38.9594 13.7501 40.6663 15.429 40.6663 17.5V22.5Z" fill="url(#paint12_linear)"/>
<path d="M49.5621 16.2501H47.0205V23.7501H49.5621V16.2501Z" fill="url(#paint13_linear)"/>
<defs>
<linearGradient id="paint0_linear" x1="43.9211" y1="0.00012207" x2="43.9211" y2="39.9999" gradientUnits="userSpaceOnUse">
<stop stop-color="#8200FF"/>
<stop offset="1" stop-color="#B338DE"/>
<stop offset="1" stop-color="#B338DE"/>
</linearGradient>
<linearGradient id="paint1_linear" x1="48.2912" y1="5.00024" x2="48.2912" y2="35" gradientUnits="userSpaceOnUse">
<stop stop-color="#8200FF"/>
<stop offset="1" stop-color="#B338DE"/>
<stop offset="1" stop-color="#B338DE"/>
</linearGradient>
<linearGradient id="paint2_linear" x1="40.6663" y1="44.9999" x2="40.6663" y2="59.9998" gradientUnits="userSpaceOnUse">
<stop stop-color="#8200FF"/>
<stop offset="1" stop-color="#B338DE"/>
<stop offset="1" stop-color="#B338DE"/>
</linearGradient>
<linearGradient id="paint3_linear" x1="38.1247" y1="38.75" x2="38.1247" y2="46.2499" gradientUnits="userSpaceOnUse">
<stop stop-color="#8200FF"/>
<stop offset="1" stop-color="#B338DE"/>
<stop offset="1" stop-color="#B338DE"/>
</linearGradient>
<linearGradient id="paint4_linear" x1="43.2079" y1="38.75" x2="43.2079" y2="46.2499" gradientUnits="userSpaceOnUse">
<stop stop-color="#8200FF"/>
<stop offset="1" stop-color="#B338DE"/>
<stop offset="1" stop-color="#B338DE"/>
</linearGradient>
<linearGradient id="paint5_linear" x1="24.1456" y1="5.00024" x2="24.1456" y2="7.50019" gradientUnits="userSpaceOnUse">
<stop stop-color="#8200FF"/>
<stop offset="1" stop-color="#B338DE"/>
<stop offset="1" stop-color="#B338DE"/>
</linearGradient>
<linearGradient id="paint6_linear" x1="24.1456" y1="32.5001" x2="24.1456" y2="35" gradientUnits="userSpaceOnUse">
<stop stop-color="#8200FF"/>
<stop offset="1" stop-color="#B338DE"/>
<stop offset="1" stop-color="#B338DE"/>
</linearGradient>
<linearGradient id="paint7_linear" x1="2.54167" y1="5.00024" x2="2.54167" y2="7.50019" gradientUnits="userSpaceOnUse">
<stop stop-color="#8200FF"/>
<stop offset="1" stop-color="#B338DE"/>
<stop offset="1" stop-color="#B338DE"/>
</linearGradient>
<linearGradient id="paint8_linear" x1="2.54167" y1="32.5001" x2="2.54167" y2="35" gradientUnits="userSpaceOnUse">
<stop stop-color="#8200FF"/>
<stop offset="1" stop-color="#B338DE"/>
<stop offset="1" stop-color="#B338DE"/>
</linearGradient>
<linearGradient id="paint9_linear" x1="6.35414" y1="11.2501" x2="6.35414" y2="28.7501" gradientUnits="userSpaceOnUse">
<stop stop-color="#8200FF"/>
<stop offset="1" stop-color="#B338DE"/>
<stop offset="1" stop-color="#B338DE"/>
</linearGradient>
<linearGradient id="paint10_linear" x1="22.8748" y1="11.2501" x2="22.8748" y2="28.7501" gradientUnits="userSpaceOnUse">
<stop stop-color="#8200FF"/>
<stop offset="1" stop-color="#B338DE"/>
<stop offset="1" stop-color="#B338DE"/>
</linearGradient>
<linearGradient id="paint11_linear" x1="22.8748" y1="18.7501" x2="22.8748" y2="21.25" gradientUnits="userSpaceOnUse">
<stop stop-color="#8200FF"/>
<stop offset="1" stop-color="#B338DE"/>
<stop offset="1" stop-color="#B338DE"/>
</linearGradient>
<linearGradient id="paint12_linear" x1="36.8538" y1="11.2501" x2="36.8538" y2="28.7499" gradientUnits="userSpaceOnUse">
<stop stop-color="#8200FF"/>
<stop offset="1" stop-color="#B338DE"/>
<stop offset="1" stop-color="#B338DE"/>
</linearGradient>
<linearGradient id="paint13_linear" x1="48.2913" y1="16.2501" x2="48.2913" y2="23.7501" gradientUnits="userSpaceOnUse">
<stop stop-color="#8200FF"/>
<stop offset="1" stop-color="#B338DE"/>
<stop offset="1" stop-color="#B338DE"/>
</linearGradient>
</defs>
</svg>
