<svg width="41" height="40" viewBox="0 0 41 40" fill="none" xmlns="http://www.w3.org/2000/svg">
<g clip-path="url(#clip0)">
<path d="M40.237 19.7594C40.237 23.2953 39.3039 26.613 37.6687 29.4798C37.5484 29.6916 37.4135 29.9179 37.2651 30.1561C35.1814 33.4939 32.1236 36.1617 28.489 37.7608C27.8904 38.0239 27.2758 38.259 26.6476 38.462C26.277 38.5823 25.9014 38.6923 25.5219 38.7902C25.1857 38.8776 24.8456 38.9563 24.503 39.0253C23.2352 39.2822 21.9234 39.4169 20.5794 39.4169C16.6816 39.4169 13.0502 38.2832 9.99483 36.3263C7.9946 35.0466 6.24224 33.4138 4.82367 31.517C2.37331 28.2378 0.921875 24.1675 0.921875 19.7594C0.921875 9.31521 9.06732 0.773389 19.3518 0.139509C19.607 0.123461 19.8629 0.113018 20.1205 0.107412H20.1237C20.2754 0.103419 20.427 0.101807 20.5794 0.101807C31.436 0.101807 40.237 8.90279 40.237 19.7594Z" fill="#5C5560"/>
<path d="M37.6687 29.4798C37.5484 29.6917 37.4136 29.9179 37.2651 30.1562C35.1814 33.494 32.1237 36.1618 28.489 37.7608C27.8905 38.024 27.2759 38.2591 26.6477 38.462C26.277 38.5824 25.9015 38.6923 25.522 38.7902L27.9924 4.63745L31.0638 7.32455L34.3655 7.40156L37.6687 29.4798Z" fill="#3E8E33"/>
<path d="M26.6075 5.08684C25.7699 2.90447 24.4412 0.957985 22.262 1.30537C21.7621 0.64262 21.0737 0.164465 20.1237 0.107489H20.1205C20.058 0.103419 19.9946 0.101807 19.9296 0.101807C19.7354 0.101807 19.5429 0.11463 19.3519 0.139509C15.9643 0.583186 13.1906 4.87498 12.1492 9.78054L7.41377 11.3178L4.82373 31.517C6.2423 33.4137 7.99459 35.0465 9.99489 36.3262L24.5029 39.0253C25.2331 38.8776 25.9488 38.6891 26.6476 38.4621L27.9923 4.6374L26.6075 5.08684ZM13.6504 9.29356C13.6504 9.29356 14.3244 7.17131 15.2455 5.25132C16.1674 3.3321 19.1618 0.567215 20.8515 1.60384C20.9021 1.63517 20.9511 1.66881 20.9976 1.70497C19.0575 2.60039 17.5339 4.69369 16.7572 8.28503L13.6504 9.29356ZM22.1721 6.52699L18.3618 7.76341C18.3618 7.76341 19.0887 3.80941 21.7814 2.83858C22.3768 4.36788 22.1721 6.52699 22.1721 6.52699ZM23.577 6.07049C23.577 6.07049 23.577 4.28203 22.9785 2.66289C24.3593 2.80733 25.0678 4.28602 25.4168 5.47354L23.577 6.07049Z" fill="#7FC029"/>
<path d="M10.4562 27.8358C11.1465 28.3346 11.837 28.8413 12.6365 29.1684C12.9804 29.3092 13.3314 29.4185 13.6998 29.478C14.3613 29.5847 14.9612 29.4964 15.3821 28.9179C15.8233 28.3116 15.745 27.6648 15.4516 27.0275C15.2499 26.5896 14.912 26.2529 14.5543 25.9399C14.0923 25.5358 13.6254 25.1373 13.1562 24.7414C11.6334 23.4569 11.162 21.7906 11.4302 19.8807C11.8978 16.551 14.3738 14.1718 17.7227 13.7639C19.1623 13.5885 20.5745 13.6026 21.9657 14.0724C22.278 14.1778 22.3091 14.305 22.2093 14.5922C21.7737 15.8465 21.3517 17.1058 20.9435 18.3694C20.8611 18.6245 20.7932 18.6666 20.5323 18.5597C19.4671 18.1231 18.3655 17.8626 17.2032 18.0574C16.3951 18.1929 15.746 18.5471 15.5186 19.4062C15.3586 20.011 15.5706 20.5137 16.0007 20.9365C16.5957 21.5216 17.2891 21.985 17.9464 22.4929C18.7405 23.1069 19.4754 23.7786 19.9891 24.6543C20.9042 26.2144 20.9142 27.8796 20.4392 29.5528C19.6357 32.3831 17.205 33.9104 14.2811 33.5413C12.5818 33.3268 11.0816 32.7088 9.78056 31.5932C9.488 31.3424 9.37796 31.1166 9.52224 30.7125C9.82686 29.8598 10.0594 28.9812 10.3207 28.1131C10.3495 28.0175 10.3535 27.9112 10.4562 27.8358Z" fill="#FDFEFD"/>
</g>
<defs>
<clipPath id="clip0">
<rect width="39.3151" height="39.3151" fill="white" transform="translate(0.921875 0.101807)"/>
</clipPath>
</defs>
</svg>
