<svg width="61" height="60" viewBox="0 0 61 60" fill="none" xmlns="http://www.w3.org/2000/svg">
<path d="M56.5893 18.4262C56.1618 17.485 55.0593 17.065 54.1068 17.4944C53.1636 17.9237 52.7474 19.0337 53.1768 19.9769C54.6074 23.1269 55.333 26.4981 55.333 30.0006C55.333 43.4406 44.398 54.3756 30.958 54.3756C17.518 54.3756 6.58301 43.4406 6.58301 30.0006C6.58301 16.5606 17.518 5.62561 30.958 5.62561C34.4549 5.62561 37.813 6.35124 40.9405 7.77999C41.8855 8.21499 42.9955 7.79686 43.4249 6.85561C43.8543 5.91436 43.4418 4.80061 42.5005 4.37124C38.8818 2.71561 34.9968 1.87561 30.958 1.87561C15.4499 1.87561 2.83301 14.4925 2.83301 30.0006C2.83301 45.5087 15.4499 58.1256 30.958 58.1256C46.4661 58.1256 59.083 45.5087 59.083 30.0006C59.083 25.96 58.2449 22.0656 56.5893 18.4262Z" fill="url(#paint0_linear)"/>
<path d="M36.538 16.0819C37.4924 16.4662 38.5911 16.005 38.9793 15.045C39.3655 14.085 38.9024 12.9919 37.9405 12.6038C35.713 11.7056 33.3636 11.25 30.958 11.25C20.6193 11.25 12.208 19.6613 12.208 30C12.208 40.3387 20.6193 48.75 30.958 48.75C41.2968 48.75 49.708 40.3387 49.708 30C49.708 27.5944 49.2524 25.245 48.3524 23.0156C47.9643 22.0556 46.8655 21.5944 45.9111 21.9788C44.9493 22.3669 44.4861 23.46 44.8724 24.42C45.5943 26.2013 45.958 28.0781 45.958 30C45.958 38.2706 39.2286 45 30.958 45C22.6874 45 15.958 38.2706 15.958 30C15.958 21.7294 22.6874 15 30.958 15C32.8799 15 34.7568 15.3637 36.538 16.0819Z" fill="url(#paint1_linear)"/>
<path d="M29.2855 24.6281C30.2736 24.3187 30.8249 23.2668 30.5155 22.2787C30.2061 21.2906 29.1524 20.7468 28.1661 21.0487C24.2286 22.2806 21.583 25.8768 21.583 30C21.583 35.1693 25.7886 39.375 30.958 39.375C35.0774 39.375 38.6755 36.7293 39.9093 32.7918C39.9655 32.61 39.9955 32.4037 39.9955 32.2125C39.9955 31.1775 39.1574 30.3468 38.1205 30.3468C37.2655 30.3468 36.5418 30.9262 36.3186 31.7118C35.5649 34.0537 33.418 35.625 30.958 35.625C27.8568 35.625 25.333 33.1012 25.333 30C25.333 27.5268 26.9211 25.3668 29.2855 24.6281Z" fill="url(#paint2_linear)"/>
<path d="M29.6324 28.6744C28.8992 29.4075 28.8992 30.5925 29.6324 31.3256C29.998 31.6912 30.478 31.875 30.958 31.875C31.438 31.875 31.918 31.6912 32.2836 31.3256L46.7342 16.875H51.583C52.0817 16.875 52.558 16.6781 52.9086 16.3256L58.5336 10.7006C59.0699 10.1644 59.2311 9.35811 58.9405 8.65686C58.6517 7.95749 57.9655 7.49999 57.208 7.49999H53.458V3.74999C53.458 2.99249 53.0024 2.30811 52.3011 2.01749C51.598 1.72686 50.7936 1.88811 50.2574 2.42436L44.6324 8.04936C44.2799 8.39999 44.083 8.87811 44.083 9.37499V14.2237L29.6324 28.6744ZM47.833 10.1512L49.708 8.27624V9.37499C49.708 10.41 50.5461 11.25 51.583 11.25H52.6817L50.8067 13.125H47.833V10.1512Z" fill="url(#paint3_linear)"/>
<defs>
<linearGradient id="paint0_linear" x1="30.958" y1="1.87561" x2="30.958" y2="58.1256" gradientUnits="userSpaceOnUse">
<stop stop-color="#8200FF"/>
<stop offset="1" stop-color="#B338DE"/>
<stop offset="1" stop-color="#B338DE"/>
</linearGradient>
<linearGradient id="paint1_linear" x1="30.958" y1="11.25" x2="30.958" y2="48.75" gradientUnits="userSpaceOnUse">
<stop stop-color="#8200FF"/>
<stop offset="1" stop-color="#B338DE"/>
<stop offset="1" stop-color="#B338DE"/>
</linearGradient>
<linearGradient id="paint2_linear" x1="30.7893" y1="20.9655" x2="30.7893" y2="39.375" gradientUnits="userSpaceOnUse">
<stop stop-color="#8200FF"/>
<stop offset="1" stop-color="#B338DE"/>
<stop offset="1" stop-color="#B338DE"/>
</linearGradient>
<linearGradient id="paint3_linear" x1="44.0829" y1="1.87463" x2="44.0829" y2="31.875" gradientUnits="userSpaceOnUse">
<stop stop-color="#8200FF"/>
<stop offset="1" stop-color="#B338DE"/>
<stop offset="1" stop-color="#B338DE"/>
</linearGradient>
</defs>
</svg>
