<svg width="40" height="40" viewBox="0 0 40 40" fill="none" xmlns="http://www.w3.org/2000/svg">
<g clip-path="url(#clip0)">
<path d="M20.0323 0.237061H20.6757C23.7202 0.295066 26.751 1.06364 29.4422 2.49317C33.0019 4.3692 35.9525 7.37404 37.7637 10.9673C38.4819 12.3847 39.0207 13.8913 39.3756 15.4399C39.0543 15.2101 38.7864 14.9186 38.517 14.6331C37.0737 13.1998 35.6724 11.726 34.2253 10.2949C34.0956 10.1568 33.9498 10.037 33.7941 9.93011C33.5186 9.50346 33.0538 9.17909 32.5317 9.18519C24.3652 9.18061 16.1993 9.18443 8.03275 9.18367C7.36416 9.15085 6.72762 9.63321 6.56658 10.2804C6.47194 10.5621 6.51315 10.8635 6.50171 11.1559C6.51239 16.0581 6.49026 20.9603 6.51239 25.8626C6.53834 26.5541 6.50094 27.2471 6.52689 27.9393C6.54368 28.3019 6.71312 28.6468 6.97262 28.8979C7.05657 28.9666 7.14664 29.0269 7.23288 29.0933L7.26723 29.1193C7.58244 29.62 8.08007 29.9649 8.46932 30.4038C11.1254 33.0637 13.7868 35.7182 16.4413 38.3788C16.6397 38.5887 16.9107 38.7551 17.0145 39.0352C13.5402 38.4483 10.24 36.889 7.57481 34.5856C5.62551 32.908 4.00975 30.8442 2.85498 28.5453C1.5407 25.9465 0.83776 23.0485 0.780518 20.1383V19.4904C0.815626 17.3678 1.18503 15.2498 1.89713 13.2494C3.26789 9.35158 5.92394 5.92696 9.34246 3.60902C12.4725 1.46663 16.2413 0.286671 20.0323 0.237061Z" fill="#4BAAF4"/>
<path d="M6.56649 10.2805C6.72753 9.63325 7.36407 9.15089 8.03266 9.18371C16.1992 9.18447 24.3651 9.18066 32.5316 9.18523C33.0537 9.17913 33.5185 9.5035 33.794 9.93015C33.836 10.0446 33.8803 10.1599 33.9154 10.2774C33.9551 12.4259 33.9223 14.5759 33.9329 16.7244C33.9299 19.7552 33.939 22.7853 33.9284 25.8153C32.6996 25.8557 31.4692 25.8183 30.2397 25.8321C23.8033 25.829 17.367 25.8313 10.9307 25.8329C9.47288 25.8145 8.01434 25.855 6.55657 25.8191C6.54359 21.5923 6.55428 17.3656 6.55123 13.1388C6.55657 12.1855 6.53596 11.233 6.56649 10.2805ZM20.194 9.51648C19.9261 9.65004 20.1467 10.0866 20.4108 9.95839C20.7336 9.85001 20.4825 9.32872 20.194 9.51648ZM7.74721 10.3392C7.73042 15.1163 7.74645 19.8934 7.73958 24.6704C7.93649 24.7086 8.13799 24.6857 8.33719 24.6903C16.4297 24.6895 24.5223 24.6903 32.6156 24.6895C32.6477 24.6834 32.7125 24.6704 32.7446 24.6643C32.7385 19.8888 32.753 15.1133 32.737 10.3385C24.407 10.3446 16.0771 10.3423 7.74721 10.3392Z" fill="#333333"/>
<path d="M19.5178 27.5393C19.5354 27.1631 19.8468 26.8456 20.2223 26.8204C20.6543 26.8028 21.0527 27.2043 20.9863 27.6409C20.9527 28.0301 20.5772 28.3209 20.1948 28.2995C20.0986 28.2736 20.0032 28.2461 19.9101 28.2133C19.672 28.0736 19.5201 27.8156 19.5178 27.5393Z" fill="#333333"/>
<path d="M20.1941 9.51649C20.4826 9.32874 20.7337 9.85002 20.4108 9.9584C20.1468 10.0866 19.9262 9.65006 20.1941 9.51649Z" fill="#18BBE8"/>
<path d="M33.7941 9.92993C33.9498 10.0368 34.0955 10.1566 34.2253 10.2948C35.6724 11.7258 37.0737 13.1996 38.5169 14.633C38.7864 14.9184 39.0543 15.21 39.3756 15.4397C39.6633 16.6716 39.8076 17.9339 39.8579 19.1971V20.3534C39.7549 23.6582 38.8161 26.937 37.1126 29.7732C35.5274 32.4376 33.2957 34.7105 30.6686 36.3561C30.2389 35.8989 29.7726 35.4768 29.3101 35.0532C28.6545 34.3847 27.979 33.7367 27.3203 33.0711C26.9402 32.717 26.5975 32.3216 26.1762 32.0133C26.1488 32.0224 26.093 32.0392 26.0656 32.0476C26.0579 31.9003 25.9824 31.782 25.8519 31.7149C25.6061 31.4058 25.313 31.1409 25.0383 30.8585C24.5078 30.3639 24.027 29.8167 23.4729 29.3473L23.4614 29.2908C26.4342 29.3122 29.407 29.2908 32.3798 29.3015C32.7477 29.3122 33.1293 29.2199 33.4201 28.9855C33.7582 28.7222 33.9521 28.2994 33.9627 27.8743C33.9757 27.2042 33.9498 26.5333 33.9711 25.8632C33.9971 20.935 33.9704 16.006 33.9849 11.0778C33.9749 10.8099 34.0108 10.5329 33.9154 10.2772C33.8803 10.1597 33.836 10.0444 33.7941 9.92993Z" fill="#3492DA"/>
<path d="M7.26709 29.1191C7.48003 29.2207 7.70976 29.2985 7.94789 29.2985C10.9649 29.3023 13.982 29.2962 16.9991 29.3016C16.8861 29.8396 16.7815 30.38 16.6426 30.912C16.5449 31.2577 16.2488 31.4928 15.9366 31.6409C15.7855 31.6668 15.6344 31.6912 15.4825 31.7118C15.1482 31.7263 14.8116 31.6935 14.4781 31.7248C14.1995 31.8011 14.2209 32.2041 14.4613 32.3186C16.4572 34.377 18.5156 36.3744 20.5298 38.4153C20.8061 38.703 21.1274 38.9534 21.3457 39.2938C21.1724 39.2976 20.9999 39.3052 20.8274 39.3144H19.7429C18.8293 39.2747 17.9149 39.1984 17.0143 39.0351C16.9105 38.7549 16.6396 38.5886 16.4411 38.3787C13.7866 35.718 11.1252 33.0635 8.46918 30.4037C8.07993 29.9648 7.5823 29.6198 7.26709 29.1191Z" fill="#3492DA"/>
<path d="M6.50171 11.1558C6.51316 10.8635 6.47194 10.562 6.56658 10.2804C6.53605 11.2329 6.55666 12.1854 6.55132 13.1387C6.55437 17.3655 6.54369 21.5923 6.55666 25.819C8.01444 25.8549 9.47297 25.8145 10.9307 25.8328C17.3671 25.8312 23.8034 25.829 30.2398 25.832C31.4693 25.8183 32.6996 25.8557 33.9285 25.8152C33.9391 22.7852 33.93 19.7552 33.933 16.7244C33.9223 14.5759 33.9552 12.4258 33.9155 10.2773C34.0109 10.533 33.975 10.8101 33.9849 11.078C33.9704 16.0062 33.9971 20.9351 33.9712 25.8633C31.2068 25.8549 28.4423 25.8595 25.6779 25.861C25.5527 25.8603 25.4276 25.8603 25.3024 25.8603C24.9208 25.8572 24.5392 25.8572 24.1576 25.8618C24.0301 25.861 23.9026 25.8603 23.7752 25.8603C22.8845 25.858 21.993 25.8572 21.1016 25.8603C20.9749 25.8603 20.8489 25.8595 20.723 25.8603C17.2869 25.8595 13.8501 25.8549 10.414 25.8618C10.2881 25.8618 10.1622 25.861 10.0362 25.861C8.86162 25.8572 7.68701 25.8564 6.51239 25.8625C6.49026 20.9603 6.51239 16.0581 6.50171 11.1558Z" fill="#65686A"/>
<path d="M7.74724 10.3391C16.0772 10.3422 24.4071 10.3445 32.737 10.3384C32.753 15.1132 32.7385 19.8887 32.7446 24.6642C32.7126 24.6703 32.6477 24.6833 32.6156 24.6894C24.5223 24.6902 16.4298 24.6894 8.33722 24.6902C8.13802 24.6856 7.93652 24.7085 7.73961 24.6704C7.74648 19.8933 7.73045 15.1162 7.74724 10.3391ZM10.72 13.6928C10.4346 13.8042 10.5277 14.3087 10.8467 14.2782C12.6052 14.2767 14.3637 14.2858 16.1214 14.2736C16.4634 14.2179 16.3962 13.6447 16.0489 13.6722C14.3958 13.6676 12.7418 13.6768 11.0887 13.6684C10.9658 13.6745 10.8383 13.6554 10.72 13.6928ZM10.7223 15.2192C10.4331 15.3284 10.5277 15.8359 10.8475 15.8046C13.2952 15.8062 15.7429 15.8062 18.1905 15.8046C18.5378 15.8344 18.5989 15.2597 18.2615 15.2025C15.868 15.1895 13.4738 15.2047 11.0803 15.1948C10.9612 15.2017 10.8368 15.1803 10.7223 15.2192ZM19.5773 15.2185C19.2881 15.3322 19.3804 15.8359 19.704 15.8046C20.4444 15.7917 21.1855 15.8291 21.9258 15.7909C22.2532 15.7405 22.1983 15.1651 21.8563 15.1986C21.0977 15.2131 20.3322 15.1681 19.5773 15.2185ZM12.8594 16.7465C12.6632 16.8197 12.6281 17.1113 12.7769 17.2472C12.8922 17.3693 13.0761 17.3242 13.2257 17.3342C13.8882 17.3242 14.5515 17.3418 15.2132 17.325C15.5093 17.2685 15.5063 16.7793 15.2078 16.7289C14.4263 16.7335 13.6363 16.6976 12.8594 16.7465ZM16.5259 16.7442C16.2924 16.8381 16.2878 17.2197 16.5252 17.3097C16.6923 17.3548 16.8686 17.3281 17.0404 17.3311C19.5598 17.3319 22.08 17.3326 24.5994 17.3311C24.9474 17.3601 25.0123 16.7778 24.6673 16.7304C22.1502 16.7152 19.6323 16.7312 17.1152 16.7228C16.919 16.7297 16.7183 16.7014 16.5259 16.7442ZM25.9854 16.7465C25.7305 16.8449 25.7664 17.2815 26.0412 17.3265C26.8059 17.3349 27.5714 17.3365 28.3362 17.3265C28.6735 17.2662 28.6079 16.6984 28.2629 16.7251C27.505 16.735 26.7395 16.6976 25.9854 16.7465ZM12.8563 18.2745C12.6006 18.3737 12.6457 18.8003 12.9136 18.8507C13.576 18.8767 14.2408 18.8431 14.9041 18.8614C15.0689 18.8545 15.2849 18.8973 15.3872 18.7301C15.5192 18.5408 15.3796 18.2271 15.1346 18.2508C14.3767 18.2653 13.6089 18.2203 12.8563 18.2745ZM16.5236 18.2729C16.2351 18.3836 16.3267 18.8866 16.6473 18.8583C19.2965 18.8583 21.9464 18.8583 24.5964 18.8583C24.8398 18.8782 24.9856 18.5653 24.8497 18.3752C24.7253 18.1905 24.475 18.2623 24.288 18.2493C21.8197 18.2508 19.3507 18.2531 16.8824 18.2485C16.7633 18.2546 16.6381 18.2317 16.5236 18.2729ZM25.9839 18.2722C25.732 18.3737 25.7656 18.8057 26.0396 18.8522C26.8036 18.8614 27.5691 18.8629 28.3339 18.8522C28.6735 18.7965 28.6079 18.2279 28.2637 18.2523C27.5043 18.2607 26.7395 18.2264 25.9839 18.2722ZM12.8548 19.8017C12.5678 19.9154 12.6747 20.4092 12.9884 20.384C13.7279 20.3848 14.4683 20.3901 15.2078 20.3787C15.5063 20.3291 15.5093 19.8391 15.2132 19.7826C14.4286 19.7857 13.634 19.749 12.8548 19.8017ZM16.5191 19.8009C16.2359 19.9185 16.329 20.413 16.6488 20.384C19.298 20.3848 21.9479 20.3848 24.5971 20.384C24.8391 20.4031 24.9848 20.0932 24.8513 19.904C24.7276 19.717 24.4758 19.788 24.2888 19.7757C22.2273 19.7796 20.1658 19.775 18.1043 19.778C17.5769 19.7994 17.0419 19.7376 16.5191 19.8009ZM25.9847 19.7986C25.732 19.8986 25.7656 20.3306 26.0381 20.3787C26.8029 20.3886 27.5684 20.3886 28.3339 20.3787C28.6728 20.3245 28.6094 19.7551 28.2652 19.7788C27.5058 19.7872 26.7403 19.7521 25.9847 19.7986ZM10.7185 21.3274C10.4636 21.4274 10.504 21.867 10.7811 21.9067C13.2517 21.9174 15.7223 21.909 18.1928 21.9105C18.5386 21.938 18.5973 21.3663 18.2623 21.3091C15.8711 21.2946 13.4791 21.3106 11.0879 21.3007C10.965 21.3076 10.836 21.2847 10.7185 21.3274ZM19.5758 21.3259C19.2873 21.4396 19.382 21.9433 19.7048 21.9105C20.4428 21.8991 21.1832 21.9334 21.9212 21.8975C22.2548 21.854 22.1998 21.2663 21.8533 21.3045C21.0946 21.3198 20.3299 21.2724 19.5758 21.3259ZM10.72 22.8516C10.4338 22.963 10.5277 23.4683 10.8483 23.4362C12.606 23.4354 14.3637 23.4446 16.1214 23.4316C16.4618 23.3774 16.3969 22.8081 16.052 22.8317C14.524 22.8287 12.996 22.831 11.468 22.831C11.2192 22.8371 10.965 22.8027 10.72 22.8516ZM25.99 23.7697C25.7053 23.8766 25.7939 24.388 26.1144 24.3528C26.8326 24.3513 27.5508 24.3567 28.269 24.3528C28.5087 24.3666 28.6453 24.0582 28.514 23.872C28.4102 23.7056 28.1927 23.7491 28.0278 23.7438C27.3486 23.769 26.6662 23.7079 25.99 23.7697Z" fill="#646464"/>
<path d="M10.72 13.6926C10.8383 13.6552 10.9658 13.6743 11.0887 13.6682C12.7418 13.6766 14.3958 13.6674 16.0489 13.672C16.3962 13.6446 16.4634 14.2177 16.1214 14.2735C14.3637 14.2857 12.6052 14.2765 10.8467 14.278C10.5277 14.3086 10.4346 13.8041 10.72 13.6926Z" fill="#90D1C4"/>
<path d="M25.9847 19.7986C26.7403 19.7521 27.5058 19.7872 28.2652 19.7788C28.6094 19.7551 28.6728 20.3245 28.3339 20.3787C27.5684 20.3886 26.8028 20.3886 26.0381 20.3787C25.7656 20.3306 25.732 19.8986 25.9847 19.7986Z" fill="#90D1C4"/>
<path d="M19.5759 21.3258C20.33 21.2724 21.0947 21.3197 21.8534 21.3044C22.1999 21.2663 22.2548 21.8539 21.9213 21.8974C21.1832 21.9333 20.4429 21.899 19.7049 21.9104C19.382 21.9432 19.2874 21.4395 19.5759 21.3258Z" fill="#90D1C4"/>
<path d="M10.7223 15.2192C10.8368 15.1803 10.9612 15.2017 11.0803 15.1948C13.4738 15.2047 15.868 15.1895 18.2615 15.2025C18.5989 15.2597 18.5378 15.8344 18.1906 15.8046C15.7429 15.8062 13.2952 15.8062 10.8475 15.8046C10.5277 15.8359 10.4331 15.3284 10.7223 15.2192Z" fill="#CFC5FF"/>
<path d="M16.5236 18.273C16.6381 18.2318 16.7632 18.2547 16.8823 18.2486C19.3506 18.2532 21.8196 18.2509 24.2879 18.2494C24.4749 18.2623 24.7253 18.1906 24.8497 18.3753C24.9855 18.5653 24.8398 18.8783 24.5963 18.8584C21.9463 18.8584 19.2964 18.8584 16.6472 18.8584C16.3267 18.8867 16.2351 18.3837 16.5236 18.273Z" fill="#CFC5FF"/>
<path d="M19.5773 15.2184C20.3321 15.1681 21.0976 15.2131 21.8563 15.1986C22.1982 15.165 22.2532 15.7405 21.9257 15.7909C21.1854 15.829 20.4443 15.7916 19.704 15.8046C19.3804 15.8359 19.288 15.3322 19.5773 15.2184Z" fill="#B7ACAB"/>
<path d="M16.5259 16.7442C16.7182 16.7015 16.9189 16.7297 17.1151 16.7229C19.6322 16.7312 22.1501 16.7152 24.6673 16.7305C25.0122 16.7778 24.9474 17.3601 24.5993 17.3311C22.0799 17.3327 19.5597 17.3319 17.0403 17.3311C16.8685 17.3281 16.6922 17.3548 16.5251 17.3098C16.2877 17.2197 16.2923 16.8381 16.5259 16.7442Z" fill="#B7ACAB"/>
<path d="M25.9839 18.2722C26.7395 18.2264 27.5042 18.2607 28.2636 18.2524C28.6079 18.2279 28.6735 18.7965 28.3339 18.8523C27.5691 18.8629 26.8036 18.8614 26.0396 18.8523C25.7656 18.8057 25.732 18.3737 25.9839 18.2722Z" fill="#B7ACAB"/>
<path d="M16.5189 19.801C17.0418 19.7376 17.5768 19.7994 18.1042 19.7781C20.1657 19.775 22.2272 19.7796 24.2886 19.7758C24.4756 19.788 24.7275 19.717 24.8511 19.904C24.9847 20.0933 24.8389 20.4031 24.597 20.3841C21.9478 20.3848 19.2979 20.3848 16.6487 20.3841C16.3289 20.4131 16.2358 19.9185 16.5189 19.801Z" fill="#B7ACAB"/>
<path d="M10.72 22.8516C10.965 22.8028 11.2192 22.8371 11.468 22.831C12.996 22.831 14.524 22.8288 16.0519 22.8318C16.3969 22.8081 16.4618 23.3775 16.1214 23.4317C14.3637 23.4447 12.606 23.4355 10.8482 23.4363C10.5277 23.4683 10.4338 22.9631 10.72 22.8516Z" fill="#B7ACAB"/>
<path d="M12.8594 16.7464C13.6364 16.6976 14.4263 16.7335 15.2078 16.7289C15.5063 16.7793 15.5093 17.2685 15.2132 17.325C14.5515 17.3418 13.8882 17.3242 13.2257 17.3341C13.0761 17.3242 12.8922 17.3692 12.777 17.2471C12.6281 17.1113 12.6632 16.8197 12.8594 16.7464Z" fill="#E8DBB3"/>
<path d="M12.8564 18.2744C13.6089 18.2202 14.3767 18.2652 15.1346 18.2507C15.3796 18.2271 15.5193 18.5408 15.3872 18.73C15.285 18.8972 15.069 18.8544 14.9041 18.8613C14.2409 18.843 13.5761 18.8766 12.9136 18.8506C12.6457 18.8003 12.6007 18.3736 12.8564 18.2744Z" fill="#E8DBB3"/>
<path d="M12.8548 19.8016C13.6341 19.7489 14.4286 19.7856 15.2132 19.7825C15.5093 19.839 15.5063 20.329 15.2079 20.3786C14.4683 20.3901 13.7279 20.3847 12.9884 20.384C12.6747 20.4091 12.5678 19.9153 12.8548 19.8016Z" fill="#E8DBB3"/>
<path d="M25.9855 16.7465C26.7396 16.6977 27.5051 16.7351 28.263 16.7251C28.608 16.6984 28.6736 17.2663 28.3362 17.3266C27.5715 17.3365 26.806 17.335 26.0412 17.3266C25.7664 17.2815 25.7306 16.845 25.9855 16.7465Z" fill="#FFA441"/>
<path d="M10.7185 21.3274C10.8361 21.2846 10.965 21.3075 11.0879 21.3007C13.4791 21.3106 15.8711 21.2946 18.2623 21.3091C18.5974 21.3663 18.5386 21.938 18.1929 21.9105C15.7223 21.909 13.2517 21.9174 10.7811 21.9067C10.5041 21.867 10.4636 21.4274 10.7185 21.3274Z" fill="#FFA441"/>
<path d="M25.9901 23.7697C26.6663 23.7079 27.3486 23.769 28.0279 23.7438C28.1927 23.7491 28.4103 23.7056 28.5141 23.872C28.6453 24.0582 28.5087 24.3666 28.2691 24.3528C27.5509 24.3566 26.8327 24.3513 26.1145 24.3528C25.7939 24.3879 25.7054 23.8766 25.9901 23.7697Z" fill="#E095C0"/>
<path d="M6.51233 25.8626C7.68694 25.8565 8.86156 25.8573 10.0362 25.8611C9.19738 26.7884 8.27005 27.6341 7.40531 28.5378C7.27785 28.6767 7.12978 28.7942 6.97256 28.898C6.71306 28.6469 6.54362 28.3019 6.52683 27.9394C6.50088 27.2471 6.53828 26.5541 6.51233 25.8626Z" fill="#ECEFF0"/>
<path d="M10.4139 25.8619C13.85 25.855 17.2868 25.8596 20.7229 25.8604C20.4199 26.2328 20.0566 26.5503 19.7254 26.8968C18.9988 27.6188 18.2752 28.3439 17.5555 29.0728C17.425 29.2201 17.2281 29.2697 17.0411 29.3018H16.9991C13.982 29.2964 10.965 29.3025 7.94794 29.2987C7.70981 29.2987 7.48008 29.2209 7.26713 29.1194L7.23279 29.0934C8.08303 28.2264 8.94472 27.3708 9.80412 26.5122C10.0178 26.3053 10.2262 26.0924 10.4139 25.8619Z" fill="#ECEFF0"/>
<path d="M21.1015 25.8602C21.993 25.8571 22.8844 25.8579 23.7751 25.8602C23.5133 26.1952 23.1935 26.4776 22.8959 26.7806C22.1288 27.54 21.3679 28.3063 20.6069 29.0718C20.5245 29.1466 20.4406 29.242 20.3192 29.2413C19.9895 29.268 19.6575 29.2535 19.3278 29.2337C19.5873 28.8948 19.9361 28.6391 20.1948 28.2995C20.5772 28.3208 20.9527 28.03 20.9863 27.6408C21.0527 27.2042 20.6543 26.8028 20.2223 26.8203C20.481 26.4692 20.839 26.209 21.1015 25.8602Z" fill="#ECEFF0"/>
<path d="M24.1575 25.8618C24.5391 25.8572 24.9207 25.8572 25.3023 25.8603C24.5635 26.6846 23.7415 27.4318 22.9722 28.2286C22.6287 28.5453 22.3364 28.9193 21.9662 29.2048C21.6052 29.3017 21.2213 29.2475 20.8527 29.2315C20.9641 29.091 21.0839 28.9567 21.2137 28.8331C21.9227 28.1446 22.6089 27.4333 23.3148 26.7418C23.598 26.451 23.9002 26.177 24.1575 25.8618Z" fill="#ECEFF0"/>
<path d="M25.6779 25.861C28.4423 25.8595 31.2067 25.8549 33.9712 25.8633C33.9498 26.5334 33.9758 27.2043 33.9628 27.8744C33.9521 28.2995 33.7582 28.7224 33.4201 28.9857C33.1293 29.22 32.7477 29.3124 32.3798 29.3017C29.407 29.291 26.4343 29.3124 23.4615 29.291H23.4508C23.0989 29.2253 22.7402 29.2673 22.3868 29.2322C22.5326 29.0055 22.7486 28.8399 22.9341 28.6483C23.5531 28.0233 24.1827 27.4081 24.8002 26.78C25.0956 26.4762 25.4161 26.1961 25.6779 25.861Z" fill="#ECEFF0"/>
<path d="M18.5844 28.4193C18.892 28.1217 19.169 27.7904 19.5178 27.5393C19.5201 27.8156 19.672 28.0736 19.9101 28.2132C19.6567 28.4964 19.3827 28.759 19.1209 29.0337C19.0255 29.1207 18.937 29.2451 18.7935 29.2421C18.463 29.2711 18.1303 29.2581 17.8005 29.2314C18.0348 28.9353 18.3234 28.6903 18.5844 28.4193Z" fill="#ECEFF0"/>
<path d="M14.4782 31.725C14.8117 31.6937 15.1483 31.7265 15.4826 31.712C15.7696 31.7525 16.0588 31.77 16.3481 31.7777C16.187 31.9578 16.0237 32.1356 15.8703 32.3219C15.4009 32.3234 14.9308 32.3249 14.4614 32.3188C14.221 32.2043 14.1996 31.8013 14.4782 31.725Z" fill="#ECEFF0"/>
<path d="M24.9253 31.7058C25.2344 31.7157 25.5428 31.7104 25.8519 31.715C25.9824 31.7821 26.0579 31.9004 26.0656 32.0477C26.0182 32.1889 25.9038 32.3324 25.7389 32.321C25.1199 32.3225 24.5009 32.3225 23.882 32.3225C24.0277 32.1477 24.1598 31.9531 24.3513 31.8241C24.5338 31.7516 24.733 31.7363 24.9253 31.7058Z" fill="#ECEFF0"/>
<path d="M16.7611 31.7936C17.1259 31.7257 17.5014 31.7654 17.87 31.7738C17.7136 31.9585 17.5502 32.1371 17.3945 32.3218C17.0122 32.3233 16.6305 32.3226 16.2482 32.3226C16.4031 32.1333 16.5458 31.9196 16.7611 31.7936Z" fill="#ECEFF0"/>
<path d="M18.2912 31.7952C18.6553 31.7212 19.0331 31.7624 19.4017 31.7784C19.2399 31.9578 19.0743 32.1348 18.9201 32.3218C18.5393 32.3233 18.1584 32.3226 17.7776 32.3226C17.9333 32.1341 18.0783 31.9242 18.2912 31.7952Z" fill="#ECEFF0"/>
<path d="M19.8139 31.7928C20.1788 31.7256 20.555 31.7623 20.9237 31.7737C20.7619 31.9538 20.5985 32.1324 20.4474 32.3217C20.0673 32.3232 19.6865 32.3225 19.3064 32.3225C19.4583 32.1317 19.6018 31.9218 19.8139 31.7928Z" fill="#ECEFF0"/>
<path d="M21.3427 31.796C21.7068 31.7181 22.0853 31.7662 22.4547 31.7769C22.2937 31.9578 22.1288 32.1356 21.9739 32.3219C21.593 32.3234 21.2114 32.3226 20.8306 32.3226C20.9847 32.1333 21.1298 31.9242 21.3427 31.796Z" fill="#ECEFF0"/>
<path d="M22.3555 32.3225C22.5264 32.1279 22.673 31.8806 22.9203 31.7768C23.2713 31.7386 23.6263 31.7646 23.9796 31.7699C23.8216 31.9539 23.6598 32.134 23.5064 32.3217C23.1225 32.3233 22.7394 32.3225 22.3555 32.3225Z" fill="#ECEFF0"/>
<path d="M10.0361 25.8618C10.1621 25.8618 10.288 25.8626 10.4139 25.8626C10.2262 26.0931 10.0178 26.306 9.80413 26.5129C8.94473 27.3715 8.08304 28.2271 7.2328 29.0941C7.14655 29.0277 7.05649 28.9674 6.97253 28.8987C7.12976 28.7949 7.27783 28.6774 7.40529 28.5385C8.27003 27.6348 9.19736 26.7891 10.0361 25.8618Z" fill="#E2E5E5"/>
<path d="M20.723 25.8602C20.8489 25.8594 20.9748 25.8602 21.1015 25.8602C20.839 26.209 20.481 26.4693 20.2223 26.8203C19.8468 26.8455 19.5354 27.163 19.5178 27.5393C19.169 27.7904 18.892 28.1217 18.5844 28.4193C18.3234 28.6903 18.0349 28.9353 17.8006 29.2314C18.1303 29.2581 18.463 29.2711 18.7935 29.2421C18.937 29.2451 19.0255 29.1207 19.1209 29.0337C19.3827 28.759 19.6567 28.4964 19.9101 28.2132C20.0032 28.2461 20.0986 28.2735 20.1948 28.2995C19.9361 28.6391 19.5873 28.8948 19.3278 29.2337C19.6575 29.2535 19.9895 29.268 20.3192 29.2413C20.4406 29.2421 20.5245 29.1467 20.607 29.0719C21.3679 28.3064 22.1288 27.5401 22.8959 26.7807C23.1936 26.4777 23.5133 26.1953 23.7751 25.8602C23.9026 25.8602 24.0301 25.861 24.1575 25.8617C23.9003 26.1769 23.5981 26.4509 23.3149 26.7417C22.6089 27.4332 21.9228 28.1446 21.2137 28.833C21.084 28.9566 20.9641 29.091 20.8527 29.2314C21.2214 29.2474 21.6053 29.3016 21.9663 29.2047C22.3364 28.9192 22.6288 28.5453 22.9722 28.2285C23.7416 27.4317 24.5636 26.6845 25.3024 25.8602C25.4275 25.8602 25.5527 25.8602 25.6779 25.861C25.4161 26.196 25.0955 26.4761 24.8002 26.7799C24.1827 27.408 23.553 28.0232 22.9341 28.6483C22.7486 28.8399 22.5326 29.0055 22.3868 29.2322C22.7402 29.2673 23.0989 29.2253 23.4508 29.2909C23.1203 29.3291 22.7883 29.3321 22.457 29.3131C21.9983 29.2833 21.5412 29.3398 21.0825 29.3199C20.4215 29.2802 19.759 29.3528 19.098 29.3047C18.4119 29.3398 17.7265 29.3016 17.0411 29.3016C17.2281 29.2696 17.425 29.2199 17.5556 29.0726C18.2753 28.3438 18.9988 27.6187 19.7254 26.8967C20.0567 26.5502 20.42 26.2327 20.723 25.8602Z" fill="#E2E5E5"/>
<path d="M15.4827 31.7119C15.6345 31.6912 15.7857 31.6668 15.9368 31.6409C16.4764 31.7607 17.0267 31.6767 17.5724 31.6912C18.283 31.7256 18.9935 31.6638 19.7041 31.7065C20.3925 31.6661 21.0817 31.7225 21.7702 31.6928C22.2533 31.6783 22.7364 31.7248 23.2195 31.6912C23.6836 31.6577 24.153 31.763 24.6117 31.6561C24.7155 31.6729 24.8208 31.6897 24.9254 31.7057C24.733 31.7363 24.5338 31.7515 24.3514 31.824C24.1599 31.953 24.0278 32.1477 23.882 32.3224C23.7569 32.3224 23.6309 32.3217 23.5065 32.3217C23.6599 32.1339 23.8217 31.9538 23.9797 31.7699C23.6264 31.7645 23.2714 31.7386 22.9204 31.7767C22.6731 31.8805 22.5265 32.1278 22.3556 32.3224C22.2281 32.3224 22.1007 32.3217 21.974 32.3217C22.1289 32.1354 22.2937 31.9576 22.4548 31.7767C22.0854 31.766 21.7068 31.718 21.3428 31.7958C21.1298 31.924 20.9848 32.1332 20.8306 32.3224C20.7024 32.3224 20.5749 32.3217 20.4475 32.3217C20.5986 32.1324 20.7619 31.9538 20.9237 31.7737C20.5551 31.7622 20.1788 31.7256 19.814 31.7928C19.6018 31.9217 19.4583 32.1316 19.3065 32.3224C19.1775 32.3224 19.0485 32.3217 18.9203 32.3217C19.0744 32.1347 19.2401 31.9576 19.4019 31.7783C19.0332 31.7622 18.6554 31.721 18.2914 31.795C18.0784 31.924 17.9334 32.1339 17.7777 32.3224C17.6495 32.3224 17.522 32.3217 17.3946 32.3217C17.5503 32.137 17.7136 31.9584 17.8701 31.7737C17.5014 31.7653 17.1259 31.7256 16.7611 31.7935C16.5458 31.9194 16.4031 32.1332 16.2482 32.3224C16.1223 32.3224 15.9963 32.3217 15.8704 32.3217C16.0238 32.1354 16.1871 31.9576 16.3482 31.7775C16.0589 31.7699 15.7696 31.7523 15.4827 31.7119Z" fill="#E2E5E5"/>
<path d="M16.9992 29.3017H17.0412C17.7265 29.3017 18.4119 29.3399 19.0981 29.3048C19.759 29.3528 20.4215 29.2803 21.0825 29.32C21.5412 29.3399 21.9984 29.2834 22.4571 29.3131C22.7883 29.3322 23.1203 29.3292 23.4508 29.291H23.4615L23.4729 29.3475C23.5691 29.8436 23.6798 30.3374 23.7897 30.8305C23.8813 31.238 24.2293 31.5273 24.6117 31.6563C24.153 31.7631 23.6836 31.6578 23.2195 31.6914C22.7364 31.725 22.2533 31.6784 21.7702 31.6929C21.0817 31.7227 20.3925 31.6662 19.7041 31.7066C18.9935 31.6639 18.2829 31.7257 17.5724 31.6914C17.0267 31.6769 16.4764 31.7608 15.9368 31.641C16.2489 31.4929 16.5451 31.2579 16.6428 30.9121C16.7817 30.3801 16.8862 29.8398 16.9992 29.3017Z" fill="#C8CCD5"/>
<path d="M23.4729 29.3474C24.027 29.8168 24.5078 30.364 25.0383 30.8586C25.3131 31.141 25.6061 31.4058 25.8519 31.715C25.5428 31.7104 25.2344 31.7157 24.9253 31.7058C24.8208 31.6898 24.7154 31.673 24.6116 31.6562C24.2293 31.5272 23.8812 31.2379 23.7896 30.8304C23.6797 30.3373 23.5691 29.8435 23.4729 29.3474Z" fill="#2481C8"/>
<path d="M26.0656 32.0478C26.0931 32.0394 26.1488 32.0226 26.1763 32.0134C26.5976 32.3218 26.9403 32.7171 27.3204 33.0713C27.979 33.7368 28.6545 34.3848 29.3101 35.0534C29.7726 35.477 30.239 35.899 30.6687 36.3562C27.8813 38.1132 24.6353 39.129 21.3458 39.2939C21.1275 38.9535 20.8062 38.7032 20.5299 38.4154C18.5157 36.3745 16.4573 34.3772 14.4614 32.3187C14.9308 32.3248 15.401 32.3233 15.8704 32.3218C15.9963 32.3218 16.1222 32.3225 16.2482 32.3225C16.6305 32.3225 17.0121 32.3233 17.3945 32.3218C17.522 32.3218 17.6494 32.3225 17.7777 32.3225C18.1585 32.3225 18.5394 32.3233 18.9202 32.3218C19.0484 32.3218 19.1774 32.3225 19.3064 32.3225C19.6865 32.3225 20.0674 32.3233 20.4475 32.3218C20.5749 32.3218 20.7024 32.3225 20.8306 32.3225C21.2115 32.3225 21.5931 32.3233 21.9739 32.3218C22.1006 32.3218 22.2281 32.3225 22.3555 32.3225C22.7394 32.3225 23.1226 32.3233 23.5065 32.3218C23.6309 32.3218 23.7568 32.3225 23.882 32.3225C24.501 32.3225 25.12 32.3225 25.7389 32.321C25.9038 32.3325 26.0183 32.189 26.0656 32.0478Z" fill="#2481C8"/>
</g>
<defs>
<clipPath id="clip0">
<rect width="39.0775" height="39.0775" fill="white" transform="translate(0.780518 0.237061)"/>
</clipPath>
</defs>
</svg>
