<svg width="41" height="41" viewBox="0 0 41 41" fill="none" xmlns="http://www.w3.org/2000/svg">
<g clip-path="url(#clip0)">
<path d="M40.6617 20.3147C40.6617 22.3441 40.3597 24.3033 39.7973 26.149C39.7973 26.1498 39.7973 26.1498 39.7965 26.1506C39.1475 28.2804 38.1541 30.2592 36.8789 32.0217V32.0224C35.061 34.5359 32.6724 36.6102 29.9042 38.0551C29.0887 38.4812 28.2406 38.8527 27.3646 39.1637C26.6544 39.4167 25.9254 39.6298 25.1802 39.802H25.1794C23.7271 40.1376 22.216 40.3147 20.6617 40.3147C17.4168 40.3147 14.3532 39.5424 11.6438 38.171C9.11073 36.8894 6.88706 35.0845 5.11643 32.8984C3.50667 30.9131 2.27073 28.6134 1.51315 26.1057C0.959712 24.2731 0.661743 22.3286 0.661743 20.3147C0.661743 9.26899 9.61604 0.314697 20.6617 0.314697C31.7074 0.314697 40.6617 9.26899 40.6617 20.3147Z" fill="#264D6F"/>
<path d="M29.7336 9.04769V18.9139C29.7336 21.2363 27.8512 23.1188 25.5287 23.1188H15.4217C12.5001 23.1188 10.1319 25.4878 10.1319 28.4094V33.2551H6.82741C6.22905 33.2551 5.65436 33.1367 5.11639 32.8984C3.50663 30.9131 2.27069 28.6135 1.51311 26.1057C1.4535 25.487 1.42249 24.8265 1.42249 24.1245C1.42249 17.9947 3.84288 14.9939 6.82741 14.9939H20.7172V13.5702H11.4731V9.04776C11.4731 6.75144 15.5612 4.8894 20.6037 4.8894C25.6462 4.8894 29.7336 6.75136 29.7336 9.04769Z" fill="#3876AC"/>
<path d="M15.4527 11.1059C16.3807 11.1059 17.1329 10.3537 17.1329 9.42576C17.1329 8.49784 16.3807 7.74561 15.4527 7.74561C14.5248 7.74561 13.7726 8.49784 13.7726 9.42576C13.7726 10.3537 14.5248 11.1059 15.4527 11.1059Z" fill="#F2F2F2"/>
<path d="M39.9548 23.5981C39.9548 24.5189 39.9001 25.3695 39.7972 26.1491C39.7972 26.1499 39.7972 26.1499 39.7965 26.1507C39.1475 28.2805 38.154 30.2593 36.8789 32.0217V32.0225C36.1736 32.4935 35.3842 32.7278 34.5507 32.7278H20.661V34.1523H29.9043V38.0552C29.0887 38.4813 28.2406 38.8528 27.3647 39.1638C26.6544 39.4168 25.9254 39.6299 25.1802 39.8021H25.1794C23.7271 40.1377 22.2161 40.3148 20.6618 40.3148C17.4168 40.3148 14.3532 39.5425 11.6438 38.1711V28.8087C11.6438 26.4863 13.5271 24.603 15.8495 24.603H25.9565C28.8781 24.603 31.2462 22.2348 31.2462 19.3132V14.4675H34.5507C37.5352 14.4675 39.9548 17.4062 39.9548 23.5981Z" fill="#F7CD00"/>
<path d="M27.6054 38.2967C27.6054 38.6143 27.5173 38.9114 27.3646 39.1637C26.6544 39.4167 25.9254 39.6297 25.1802 39.802H25.1794C24.626 39.5277 24.2455 38.9563 24.2455 38.2967C24.2455 37.3686 24.9974 36.6167 25.9255 36.6167C26.8535 36.6167 27.6054 37.3686 27.6054 38.2967Z" fill="#F2F2F2"/>
</g>
<defs>
<clipPath id="clip0">
<rect width="40" height="40" fill="white" transform="translate(0.661743 0.314697)"/>
</clipPath>
</defs>
</svg>
