<svg width="42" height="41" viewBox="0 0 42 41" fill="none" xmlns="http://www.w3.org/2000/svg">
<g clip-path="url(#clip0)">
<path d="M41.8939 20.5C41.8939 22.0622 41.719 23.5825 41.3885 25.0435C40.8748 27.3135 39.9845 29.4405 38.7863 31.355C38.7353 31.437 38.6834 31.519 38.6307 31.601C34.9817 37.2564 28.625 41 21.3939 41C14.1629 41 7.80618 37.2564 4.15718 31.601C2.56988 29.1427 1.49467 26.3229 1.08218 23.2914C0.986812 22.5919 0.927394 21.8806 0.904812 21.1594C0.897284 20.9401 0.893921 20.7209 0.893921 20.5C0.893921 18.5061 1.17844 16.5791 1.70888 14.7566C1.9214 14.0278 2.17325 13.3158 2.46281 12.623C2.93223 11.4934 3.50118 10.4157 4.15718 9.39901C7.80618 3.74357 14.1629 0 21.3939 0C28.625 0 34.9817 3.74357 38.6307 9.39901C39.4607 10.6851 40.151 12.0699 40.6799 13.5325C40.93 14.227 41.1451 14.9391 41.3208 15.6662C41.4898 16.364 41.6229 17.0761 41.7174 17.7998C41.8103 18.5002 41.8664 19.2123 41.8865 19.9335C41.8914 20.1218 41.8939 20.3101 41.8939 20.5Z" fill="#5C5E70"/>
<path d="M38.6307 10.2308V31.601C34.9817 37.2564 28.625 41 21.394 41C14.1629 41 7.80623 37.2564 4.15723 31.601V1.82578C4.15723 0.817518 4.97474 0 5.98301 0H28.4L38.6307 10.2308Z" fill="#F9EED7"/>
<path d="M28.3999 8.40484V0L38.6307 10.2308H30.2258C29.2174 10.2308 28.3999 9.41326 28.3999 8.40484Z" fill="#E8DBC4"/>
<path d="M38.6307 26.5028V31.6011C34.9817 37.2565 28.625 41.0001 21.394 41.0001C14.1629 41.0001 7.80623 37.2565 4.15723 31.6011V26.5028H38.6307Z" fill="#34ABE0"/>
<path d="M15.2248 30.163C14.6213 30.163 14.272 30.5018 14.272 31.2216V34.0271C14.272 34.747 14.6213 35.0858 15.2354 35.0858C16.0823 35.0858 16.1354 34.44 16.1671 34.0271C16.1989 33.6354 16.5588 33.5295 16.9823 33.5295C17.5539 33.5295 17.8186 33.6777 17.8186 34.3129C17.8186 35.721 16.6752 36.5255 15.1613 36.5255C13.7744 36.5255 12.6205 35.8479 12.6205 34.027V31.2215C12.6205 29.4006 13.7744 28.723 15.1613 28.723C16.6752 28.723 17.8186 29.4853 17.8186 30.8298C17.8186 31.465 17.5539 31.6132 16.9928 31.6132C16.5482 31.6132 16.1882 31.4968 16.1671 31.1156C16.1565 30.8406 16.1247 30.163 15.2248 30.163Z" fill="#F9EED7"/>
<path d="M22.8892 34.3872C22.8892 33.1062 19.5332 33.3285 19.5332 30.8512C19.5332 29.2631 20.92 28.6597 22.2434 28.6597C22.8045 28.6597 24.3503 28.7655 24.3503 29.5913C24.3503 29.8771 24.1598 30.4594 23.6939 30.4594C23.3128 30.4594 23.1116 30.0571 22.2435 30.0571C21.4919 30.0571 21.1849 30.3641 21.1849 30.6924C21.1849 31.751 24.5409 31.5499 24.5409 34.2178C24.5409 35.7423 23.4293 36.568 21.8941 36.568C20.5073 36.568 19.3428 35.8904 19.3428 35.1918C19.3428 34.8318 19.6604 34.3025 20.0627 34.3025C20.5602 34.3025 20.8778 35.0859 21.8625 35.0859C22.3493 35.0859 22.8892 34.8954 22.8892 34.3872Z" fill="#F9EED7"/>
<path d="M29.5902 34.3872C29.5902 33.1062 26.2343 33.3285 26.2343 30.8512C26.2343 29.2631 27.621 28.6597 28.9445 28.6597C29.5056 28.6597 31.0513 28.7655 31.0513 29.5913C31.0513 29.8771 30.8608 30.4594 30.3949 30.4594C30.0139 30.4594 29.8127 30.0571 28.9446 30.0571C28.193 30.0571 27.8859 30.3641 27.8859 30.6924C27.8859 31.751 31.2419 31.5499 31.2419 34.2178C31.2419 35.7423 30.1304 36.568 28.5952 36.568C27.2084 36.568 26.0438 35.8904 26.0438 35.1918C26.0438 34.8318 26.3614 34.3025 26.7637 34.3025C27.2613 34.3025 27.5788 35.0859 28.5636 35.0859C29.0503 35.0859 29.5902 34.8954 29.5902 34.3872Z" fill="#F9EED7"/>
<path d="M15.7024 13.9905C15.7024 13.6938 15.4905 12.7052 15.4905 12.2391C15.4905 10.9538 17.0864 9.76746 18.5836 9.76746C19.558 9.76746 19.8124 10.276 19.8124 10.7278C19.8124 11.1374 19.6005 11.6176 19.1485 11.6176C18.7249 11.6176 17.6937 11.7729 17.6937 12.5357C17.6937 12.8746 17.9056 13.9338 17.9056 14.2728C17.9056 14.6965 17.5666 15.1343 17.3971 15.1909C17.5949 15.2474 17.9056 15.657 17.9056 16.0948C17.9056 16.4479 17.6937 18.0157 17.6937 18.2981C17.6937 18.9054 18.6541 19.0467 19.1485 19.0467C19.671 19.0467 19.8124 19.6115 19.8124 19.9647C19.8124 20.6003 19.3745 20.8969 18.5554 20.8969C17.0724 20.8969 15.4906 19.9365 15.4906 18.5806C15.4906 18.0863 15.7024 16.674 15.7024 16.3633C15.7024 15.7559 14.855 16.1514 14.855 15.1486C14.8549 14.1599 15.7024 14.5695 15.7024 13.9905Z" fill="#34ABE0"/>
<path d="M27.0856 16.3623C27.0856 16.673 27.2974 18.0854 27.2974 18.5796C27.2974 19.9355 25.7156 20.8959 24.2326 20.8959C23.4134 20.8959 22.9757 20.5993 22.9757 19.9637C22.9757 19.6106 23.117 19.0457 23.6396 19.0457C24.1338 19.0457 25.0943 18.9044 25.0943 18.2971C25.0943 18.0147 24.8824 16.4469 24.8824 16.0939C24.8824 15.6561 25.1932 15.2465 25.3909 15.1899C25.2214 15.1335 24.8824 14.6956 24.8824 14.2718C24.8824 13.9329 25.0943 12.8737 25.0943 12.5347C25.0943 11.772 24.0633 11.6166 23.6396 11.6166C23.1877 11.6166 22.9757 11.1364 22.9757 10.7269C22.9757 10.275 23.2299 9.76648 24.2045 9.76648C25.7016 9.76648 27.2975 10.9529 27.2975 12.2381C27.2975 12.7041 27.0857 13.6929 27.0857 13.9895C27.0857 14.5685 27.9331 14.1589 27.9331 15.1476C27.9329 16.1504 27.0856 15.755 27.0856 16.3623Z" fill="#34ABE0"/>
</g>
<defs>
<clipPath id="clip0">
<rect width="41" height="41" fill="white" transform="translate(0.893921)"/>
</clipPath>
</defs>
</svg>
