<svg width="39" height="43" viewBox="0 0 39 43" fill="none" xmlns="http://www.w3.org/2000/svg">
<g clip-path="url(#clip0)">
<path d="M18.6869 0.217529H19.6964C20.7531 0.552318 21.6938 1.15001 22.6468 1.70046C26.3778 3.85605 30.0913 6.03937 33.8448 8.15388C34.7752 8.68995 35.6862 9.25889 36.6115 9.80318C36.975 10.0075 37.1506 10.4081 37.4125 10.7151C37.052 10.3249 36.7296 9.87815 36.2407 9.63681C31.4582 6.84964 26.6469 4.11176 21.8581 1.33486C21.2163 0.990831 20.6165 0.53486 19.8925 0.375681C19.4602 0.256554 19.0073 0.269904 18.5626 0.264769L18.6869 0.217529Z" fill="white"/>
<path d="M17.4683 0.574666C17.7743 0.361058 18.1512 0.337438 18.5086 0.281982C18.0609 0.427811 17.6059 0.562343 17.2054 0.818056C12.0798 3.77057 6.95016 6.71897 1.82871 9.6797C1.01433 10.15 0.5522 11.0096 0.247192 11.8671C0.292379 11.5693 0.335511 11.2602 0.520364 11.0106C0.860288 10.4931 1.18481 9.90666 1.77017 9.63246C6.99638 6.60087 12.2072 3.54258 17.4683 0.574666Z" fill="white"/>
<path d="M22.1262 9.97683C22.2731 9.7396 22.5699 9.81457 22.7609 9.9491C22.5493 9.96245 22.3378 9.98402 22.1262 9.97683Z" fill="white"/>
<path d="M24.6207 9.94814C24.8097 9.82285 25.1116 9.73864 25.2461 9.98511C25.0366 9.99127 24.8292 9.96662 24.6207 9.94814Z" fill="white"/>
<path d="M21.5121 10.1208C21.3137 9.85655 21.8134 9.96861 21.9285 10.057C21.7928 10.0981 21.655 10.1197 21.5121 10.1208Z" fill="white"/>
<path d="M25.4371 10.0601C25.5255 9.91926 25.9758 9.91926 25.7425 10.1249C25.6664 10.1084 25.5142 10.0766 25.4371 10.0601Z" fill="white"/>
<path d="M11.2969 10.17C11.2486 10.0199 11.6002 10.0188 11.557 10.1689C11.4923 10.1689 11.3617 10.1689 11.2969 10.17Z" fill="white"/>
<path d="M17.4956 10.0928C18.3418 10.1667 19.1891 10.102 20.0353 10.1092C19.9151 10.1451 19.796 10.1821 19.6769 10.2181C19.034 10.1657 18.388 10.1544 17.7452 10.217C17.6825 10.1862 17.5583 10.1236 17.4956 10.0928Z" fill="white"/>
<path d="M25.9619 10.1846C26.0349 10.0643 26.1295 10.0396 26.2436 10.1085C26.22 10.1393 26.1716 10.202 26.148 10.2329C26.1017 10.2206 26.0082 10.1959 25.9619 10.1846Z" fill="white"/>
<path d="M10.1272 10.2108C10.3162 10.0763 10.5452 10.1893 10.7198 10.2899C10.6458 10.2992 10.4969 10.3197 10.423 10.3289C10.3131 10.3125 10.2145 10.2735 10.1272 10.2108Z" fill="white"/>
<path d="M12.0651 10.2809C12.3567 10.2439 12.6484 10.1998 12.9431 10.2203C12.7449 10.2758 12.5385 10.2994 12.3321 10.3045C12.2653 10.2994 12.1318 10.2871 12.0651 10.2809Z" fill="white"/>
<path d="M16.9894 10.2152C17.1148 10.0959 17.3029 10.1812 17.3924 10.2995L17.3214 10.321C17.1847 10.3354 17.0737 10.3005 16.9894 10.2152Z" fill="white"/>
<path d="M26.2751 10.2603C26.3594 10.2459 26.4436 10.2305 26.5278 10.2141C26.728 10.2983 26.9293 10.3774 27.1296 10.4596C27.1388 10.4976 27.1563 10.5725 27.1655 10.6095C27.0289 10.5304 26.8903 10.4544 26.7517 10.3784C26.5925 10.3384 26.4343 10.2993 26.2751 10.2603Z" fill="white"/>
<path d="M13.1558 10.3578C13.2586 10.1923 13.676 10.2128 13.5135 10.4637C13.4642 10.4627 13.3655 10.4616 13.3151 10.4616C13.276 10.4349 13.1959 10.3835 13.1558 10.3578Z" fill="white"/>
<path d="M6.56775 12.4847C6.94772 11.4947 7.99009 11.0007 8.88046 10.553C8.92154 10.5643 9.0037 10.5869 9.04581 10.5982C8.03322 10.9278 7.17571 11.619 6.56775 12.4847Z" fill="white"/>
<path d="M15.4335 10.9032C15.6522 10.7841 15.873 10.6701 16.0876 10.5417C16.1185 10.5582 16.1811 10.5931 16.2119 10.6106C15.9932 10.6958 15.7878 10.8088 15.5742 10.9063L15.4335 10.9032Z" fill="white"/>
<path d="M20.5056 11.0532C21.7431 10.7143 23.0289 10.4914 24.3157 10.5715C25.3858 10.7061 26.4785 10.9176 27.412 11.4886C28.3075 12.0206 29.1742 12.7251 29.6374 13.6781C29.9516 14.5643 29.8253 15.5328 29.7719 16.4519C29.2625 19.6478 27.9788 22.6845 26.2597 25.4142C27.0032 25.7418 27.8474 25.6278 28.6156 25.4666C29.0315 25.4399 29.5943 25.2406 29.8982 25.6268C30.1827 26.1177 29.6692 26.5952 29.3077 26.8684C28.1113 27.8717 26.4548 28.0175 24.9596 27.8522C24.8939 28.1901 24.8836 28.5361 24.8425 28.8781C24.7306 29.482 24.7141 30.1064 24.5919 30.7071C24.4009 31.8717 24.4102 33.178 23.6338 34.1423C22.7947 35.1015 21.4176 35.4127 20.1914 35.3582C19.8597 35.2617 19.5095 35.195 19.2189 34.9957C18.578 34.5757 18.195 33.862 17.9958 33.14C17.8869 32.7857 17.9136 32.4109 17.8201 32.0545C17.7719 31.3356 17.7698 30.6147 17.7575 29.8948C17.7308 29.3351 17.6045 28.7446 17.7667 28.2003C17.7205 28.2014 17.6281 28.2034 17.5819 28.2044C16.7326 28.9644 15.5033 29.063 14.4271 28.8566C14.0543 28.7703 13.6753 28.644 13.3796 28.3913C13.166 28.2014 13.0725 27.883 13.1844 27.615C13.3169 27.3592 13.5891 27.2391 13.8376 27.1272C13.9762 27.0933 14.1138 27.0594 14.2525 27.0245C14.652 26.9238 15.0761 26.8745 15.4397 26.6671C15.7067 26.4699 15.8823 26.1772 16.1041 25.9338C15.5999 25.8496 15.1008 25.7408 14.6325 25.5272C13.93 26.2738 13.2666 27.0573 12.6032 27.8388C12.2294 28.2938 11.6851 28.684 11.0658 28.606C10.4199 28.5536 9.95466 28.0494 9.56338 27.5842C8.74079 26.4566 8.25196 25.1338 7.80009 23.8244C7.44066 22.8262 7.21678 21.788 6.93334 20.7672C6.91383 20.6583 6.89329 20.5484 6.87172 20.4396C6.41986 18.6116 6.0481 16.6963 6.40137 14.8159C6.62217 13.5322 7.31742 12.264 8.47686 11.6077C9.83142 10.7851 11.5043 10.818 13.0212 11.0347C13.4669 11.1004 13.9074 11.1969 14.3398 11.3181C14.6551 11.4105 14.9693 11.503 15.2774 11.6139C15.4427 11.6889 15.6225 11.7361 15.7693 11.5964C17.167 10.6917 18.9334 10.7328 20.5056 11.0532ZM21.8294 11.4999C22.1365 11.731 22.5082 11.8532 22.8204 12.077C24.405 13.1492 25.6292 14.7543 26.2423 16.5659C26.4487 17.4008 26.2433 18.2676 26.1406 19.1035C25.9352 20.5793 26.5473 22.0663 26.1457 23.5287C26.081 23.9333 25.7842 24.2609 25.7596 24.6717C25.8582 24.6388 25.9311 24.5772 25.9794 24.4868C27.2939 22.282 28.3106 19.8891 28.8692 17.3792C29.0664 16.4303 29.1876 15.4547 29.0921 14.4873C29.0561 14.1043 28.9195 13.7253 28.6382 13.4542C27.5208 12.0822 25.7503 11.3243 23.9953 11.3304C23.2713 11.3304 22.5339 11.3037 21.8294 11.4999ZM15.0381 13.2313C14.1036 14.4308 13.7719 15.9692 13.5798 17.445C14.348 17.1246 15.1295 16.7251 15.9891 16.7846C16.7963 16.7538 17.549 17.3258 17.778 18.094C18.0851 19.2586 18.2073 20.4766 18.0902 21.6771C17.9598 22.971 17.1865 24.0648 16.8825 25.3115C17.8263 25.1718 18.5811 26.1331 18.4682 27.0234C18.4024 28.0791 18.4137 29.14 18.4723 30.1957C18.4651 31.0686 18.5226 31.9415 18.651 32.8042C18.7875 33.3362 19.034 33.8671 19.4407 34.245C19.9573 34.7051 20.6997 34.6394 21.3354 34.55C22.0019 34.3867 22.7485 34.1731 23.1521 33.5703C23.6102 32.874 23.6861 32.0217 23.8084 31.2196C23.9757 29.9975 24.1216 28.7723 24.2499 27.5462C24.3064 27.0666 24.2469 26.5664 24.4122 26.1053C24.5632 25.6997 24.9431 25.4327 25.3396 25.2961C24.9935 24.7456 24.5467 24.2537 24.3198 23.6314C23.5804 22.2193 22.728 20.8113 22.4713 19.2134C22.3326 18.4699 22.501 17.5959 23.1398 17.1256C23.8084 16.6029 24.7049 16.645 25.5049 16.683C24.8281 14.7677 23.4048 13.0937 21.5634 12.2126C20.4071 11.6878 19.0977 11.4752 17.8376 11.6303C16.7357 11.7536 15.6984 12.3399 15.0381 13.2313ZM9.82115 11.8295C8.7182 12.0904 7.78058 12.9284 7.38931 13.9903C6.97031 15.1004 6.94669 16.3112 7.03603 17.4809C7.22705 18.6825 7.44579 19.883 7.76312 21.0588C8.10099 22.3271 8.43065 23.6037 8.93694 24.8185C9.31486 25.7551 9.7277 26.7092 10.424 27.4589C10.6704 27.7084 11.0093 27.9498 11.3811 27.8604C11.7847 27.7218 12.0579 27.3736 12.3146 27.0522C12.8589 26.3703 13.4833 25.7531 14.0194 25.0691C12.9986 24.1685 12.5467 22.6989 12.8353 21.3751C12.8774 20.6491 12.9945 19.9199 12.899 19.1918C12.8404 18.4011 12.8199 17.598 12.9554 16.8134C13.1341 15.3715 13.5757 13.9266 14.4712 12.762C14.6037 12.5823 14.8091 12.4406 14.8461 12.2054C13.2245 11.7515 11.4879 11.4177 9.82115 11.8295ZM23.8689 17.5456C23.4191 17.6832 23.1757 18.1505 23.1645 18.5982C23.1542 19.4773 23.4777 20.3205 23.8422 21.1071C24.2438 22.054 24.823 22.9094 25.2379 23.8491C25.8869 22.5829 25.3498 21.1687 25.3611 19.8347C25.3354 19.0255 25.5983 18.2429 25.5942 17.4368C25.0202 17.3936 24.4194 17.3382 23.8689 17.5456ZM13.5655 18.362C13.5675 18.9217 13.6568 19.4773 13.6538 20.037C13.586 20.685 13.5726 21.3372 13.4771 21.9821C13.3272 23.5174 14.5493 25.1718 16.1626 25.1533C16.4502 23.92 17.2379 22.8499 17.359 21.5723C17.4679 20.5104 17.3508 19.4342 17.1095 18.398C17.0058 17.9266 16.5857 17.5374 16.0949 17.521C15.1809 17.4614 14.3049 17.8578 13.5655 18.362ZM17.0499 26.0396C16.5703 26.3272 16.3608 26.9094 15.9069 27.235C15.3821 27.617 14.7085 27.6396 14.1087 27.8224C13.928 27.9035 14.121 28.0257 14.2268 28.0391C14.7886 28.2578 15.4078 28.2496 15.9973 28.1839C16.7264 28.0145 17.432 27.5472 17.7513 26.855C17.7606 26.4884 17.4617 26.0088 17.0499 26.0396ZM25.1239 26.3159C25.0294 26.5459 25.0202 26.7975 25.0007 27.0429C25.4669 27.2216 25.9742 27.1919 26.4641 27.1713C27.3462 27.0809 28.2684 26.8478 28.9267 26.2193C28.6299 26.2214 28.3342 26.2522 28.0425 26.3087C27.2651 26.4155 26.4179 26.3847 25.7462 25.9318C25.5152 26.0108 25.2451 26.0786 25.1239 26.3159Z" fill="white"/>
<path d="M27.4355 10.7214C27.6563 10.7718 27.871 10.8426 28.0836 10.9196C28.1154 10.9628 28.1791 11.048 28.2099 11.0911L28.1575 11.1168C27.9295 10.9617 27.6861 10.8323 27.4355 10.7214Z" fill="white"/>
<path d="M15.1521 10.888C15.1871 10.8654 15.2559 10.8222 15.2909 10.7996L15.3598 10.8489L15.3341 10.9342C15.2888 10.9229 15.1973 10.8993 15.1521 10.888Z" fill="white"/>
<path d="M28.2284 11.1631C28.2633 11.159 28.3321 11.1518 28.366 11.1477C28.4872 11.2463 28.6145 11.3367 28.7511 11.4116C29.1711 11.7803 29.51 12.2291 29.9321 12.5957L29.9054 12.7015C29.3971 12.1377 28.8754 11.5718 28.2284 11.1631Z" fill="white"/>
<path d="M6.39012 12.8023C6.20198 12.7159 6.41377 12.5401 6.5433 12.5576C6.50527 12.6193 6.42816 12.7416 6.39012 12.8023Z" fill="white"/>
<path d="M29.9321 12.7312C30.2053 12.8976 30.3614 13.18 30.3439 13.5014C30.2412 13.2283 30.1057 12.9674 29.9321 12.7312Z" fill="white"/>
<path d="M6.28533 12.9056L6.36441 12.8286C6.2155 13.1624 6.06454 13.4951 5.94336 13.8412C5.92487 13.7991 5.88585 13.7159 5.86633 13.6738C6.04092 13.4376 6.15285 13.1655 6.28533 12.9056Z" fill="white"/>
<path d="M30.4395 16.802C30.4652 16.9622 30.496 17.1214 30.5145 17.2836C30.4775 17.3134 30.4035 17.373 30.3666 17.4038C30.3964 17.2035 30.419 17.0023 30.4395 16.802Z" fill="white"/>
<path d="M30.3595 17.4397C30.3677 17.6186 30.3842 17.7975 30.3903 17.9774C30.3544 17.9548 30.2824 17.9095 30.2474 17.8869C30.2844 17.7378 30.3215 17.5888 30.3595 17.4397Z" fill="white"/>
<path d="M24.1739 17.7601C24.406 17.72 24.7511 17.6687 24.899 17.8895C24.9852 18.4995 23.9562 18.7254 23.7262 18.177C23.6625 17.911 23.986 17.8268 24.1739 17.7601Z" fill="white"/>
<path d="M15.4089 18.1843C15.5342 18.0457 15.6688 17.8906 15.8783 17.9307C16.2541 17.8886 16.896 18.0272 16.7758 18.5314C16.5961 18.6547 16.4143 18.7964 16.1946 18.8375C15.8279 18.7985 15.524 18.5294 15.4089 18.1843Z" fill="white"/>
<path d="M30.1982 18.0745C30.3123 18.1598 30.337 18.3911 30.1478 18.3921C30.1602 18.313 30.1848 18.1536 30.1982 18.0745Z" fill="white"/>
<path d="M30.0986 18.5027C30.147 18.5973 30.2919 18.8913 30.0914 18.8738C30.0729 18.8265 30.038 18.7319 30.0205 18.6847C30.04 18.6394 30.0791 18.5479 30.0986 18.5027Z" fill="white"/>
<path d="M29.9619 19.0481C30.3014 19.0563 29.8105 19.356 29.9619 19.0481V19.0481Z" fill="white"/>
<path d="M29.4269 20.6439C29.6045 20.1982 29.8048 19.7536 29.8623 19.2729C29.8828 19.3777 29.9044 19.4824 29.9291 19.5862C29.851 19.7587 29.7709 19.9312 29.7031 20.1079C29.6836 20.1767 29.6436 20.3153 29.6241 20.3851C29.5573 20.4704 29.4916 20.5577 29.4269 20.6439Z" fill="white"/>
<path d="M6.1397 20.3763C5.88679 20.4514 5.8724 20.0967 6.07082 20.0237C6.0883 20.1121 6.12222 20.2879 6.1397 20.3763Z" fill="white"/>
<path d="M6.27011 20.9399C6.02235 21.089 5.95038 20.5595 6.21151 20.6037C6.2259 20.688 6.25469 20.8556 6.27011 20.9399Z" fill="white"/>
<path d="M6.27619 21.3816C6.19086 21.2798 6.18984 21.1719 6.27414 21.0598C6.2947 21.139 6.33582 21.2983 6.35638 21.3775L6.27619 21.3816Z" fill="white"/>
<path d="M29.2676 21.0793C29.4128 21.1642 29.3974 21.2225 29.2195 21.2532C29.2307 21.2092 29.2553 21.1223 29.2676 21.0793Z" fill="white"/>
<path d="M29.2133 21.3074C29.2431 21.6288 29.0736 21.9133 28.9042 22.1721C28.9247 22.0899 28.9637 21.9266 28.9843 21.8455C29.0613 21.6668 29.1342 21.485 29.2133 21.3074Z" fill="white"/>
<path d="M6.35933 21.8541C6.29148 21.7441 6.3141 21.6495 6.42719 21.5693C6.44158 21.6135 6.47139 21.703 6.48682 21.7482C6.45495 21.7749 6.3912 21.8274 6.35933 21.8541Z" fill="white"/>
<path d="M28.7738 22.2654C28.82 22.2552 28.9124 22.2346 28.9596 22.2244C28.8456 22.4636 28.7204 22.6978 28.5797 22.9217C28.2634 23.5522 28.0302 24.229 27.5763 24.7805C27.6328 24.8103 27.7478 24.8678 27.8043 24.8965C27.7273 24.9006 27.5732 24.9088 27.4962 24.9129C27.5085 24.8657 27.5342 24.7712 27.5476 24.724C28.0395 24.0061 28.3445 23.1835 28.745 22.4154L28.7738 22.2654Z" fill="white"/>
<path d="M6.64893 22.8425C6.6859 22.8538 6.75881 22.8754 6.79578 22.8867C6.84918 23.2163 6.95804 23.5347 7.07511 23.8479L6.9488 23.7709C6.90772 23.6497 6.87691 23.5142 6.83994 23.3889C6.77113 23.2081 6.72492 23.0202 6.64893 22.8425Z" fill="white"/>
<path d="M7.18105 24.1347C7.04329 24.3002 6.86851 23.9877 7.03917 23.9116L7.11422 23.9219C7.13067 23.9754 7.1646 24.0813 7.18105 24.1347Z" fill="white"/>
<path d="M7.28586 24.4449C7.15941 24.6865 7.02678 24.339 7.20156 24.2527C7.22212 24.301 7.2653 24.3966 7.28586 24.4449Z" fill="white"/>
<path d="M28.7326 24.6418C29.0489 24.6377 29.3652 24.6418 29.6815 24.6397C29.9835 24.6264 30.233 24.8503 30.3686 25.1029C29.9352 24.5956 29.2071 24.6551 28.6166 24.7712C28.6453 24.7383 28.7039 24.6736 28.7326 24.6418Z" fill="white"/>
<path d="M7.28359 24.6859L7.3607 24.6592L7.38845 24.7425C7.35864 24.7712 7.29696 24.8278 7.26611 24.8566C7.27125 24.8144 7.27948 24.7291 7.28359 24.6859Z" fill="white"/>
<path d="M27.9768 24.8876C28.0704 24.6511 28.3449 24.7118 28.5268 24.794C28.3479 24.8475 28.1629 24.8824 27.9768 24.8876Z" fill="white"/>
<path d="M7.60528 25.3027C7.52817 25.7027 7.28246 25.0467 7.44078 24.908C7.49733 25.0385 7.55182 25.1701 7.60528 25.3027Z" fill="white"/>
<path d="M30.4446 25.1985C30.5073 25.216 30.6327 25.2499 30.6954 25.2674C30.717 25.3722 30.7386 25.4771 30.7602 25.583C30.7211 25.5552 30.6451 25.4997 30.606 25.473L30.5947 25.3733C30.5577 25.3301 30.4826 25.2417 30.4446 25.1985Z" fill="white"/>
<path d="M7.55054 25.5364C7.60189 25.5836 7.70561 25.6791 7.75696 25.7264C7.86171 25.9975 7.98289 26.2614 8.10407 26.5253C7.96543 26.3446 7.8463 26.1495 7.74052 25.9492C7.67685 25.8106 7.61113 25.674 7.55054 25.5364Z" fill="white"/>
<path d="M30.6161 26.3693C30.6531 26.3611 30.7291 26.3446 30.766 26.3364C30.7362 26.4422 30.7065 26.547 30.6756 26.6527C30.2536 27.1118 29.8798 27.6725 29.2677 27.8882C29.1629 27.9765 29.0469 28.0494 28.9411 28.1357C28.7696 28.2117 28.5991 28.2907 28.4297 28.3719C28.4533 28.3298 28.4995 28.2455 28.5231 28.2034L28.6464 28.1747C29.4145 27.7844 30.1909 27.3048 30.611 26.5203L30.6161 26.3693Z" fill="white"/>
<path d="M8.12769 26.6412C8.13382 26.634 8.14405 26.6197 8.14916 26.6125L8.16655 26.6473L8.12769 26.6412Z" fill="white"/>
<path d="M8.22632 26.8548C8.23348 26.8466 8.24575 26.8292 8.25189 26.821L8.27132 26.862L8.22632 26.8548Z" fill="white"/>
<path d="M8.57134 27.5657C8.42654 27.387 8.3372 27.1765 8.31152 26.9485C8.39676 27.0933 8.47378 27.2442 8.55799 27.3901L8.57134 27.5657Z" fill="white"/>
<path d="M28.1504 28.3575C28.4562 28.1989 28.1678 28.694 28.1504 28.3575V28.3575Z" fill="white"/>
<path d="M26.9037 28.6061C27.1594 28.5681 27.4182 28.5475 27.6708 28.4931C27.7971 28.4695 27.9235 28.4674 28.0498 28.488C27.678 28.5958 27.2909 28.6677 26.9037 28.6061Z" fill="white"/>
<path d="M25.4906 28.681C25.9055 28.6933 26.3234 28.7077 26.7342 28.6296C26.7229 28.6635 26.7003 28.7323 26.689 28.7662C26.3203 28.8063 25.9476 28.7734 25.5768 28.7827C25.5768 28.872 25.5758 29.0507 25.5748 29.14C25.5327 29.1298 25.4474 29.1082 25.4043 29.0979C25.4331 28.9583 25.4618 28.8196 25.4906 28.681Z" fill="white"/>
<path d="M12.1133 29.222C12.3166 29.0844 12.5179 28.9416 12.7131 28.7927C13.1125 29.1501 13.5634 29.4592 14.1025 29.5516C13.8016 29.564 13.5161 29.4561 13.2389 29.3555C13.2029 29.3052 13.13 29.2045 13.0941 29.1542C12.9246 29.1183 12.8055 28.992 12.6843 28.879C12.5785 28.9837 12.4758 29.0967 12.3382 29.1614C12.2263 29.224 12.1154 29.2877 12.0024 29.3493C11.8309 29.335 11.6686 29.3843 11.5187 29.4654C11.1356 29.5034 10.7505 29.4572 10.4014 29.2898C10.4989 29.3021 10.6951 29.3267 10.7937 29.3391C11.2373 29.4099 11.6871 29.3565 12.1133 29.222Z" fill="white"/>
<path d="M16.0887 29.6751C16.4585 29.6155 16.8169 29.5118 17.1753 29.406C17.2112 30.0674 17.1866 30.7318 17.241 31.3921L17.1496 31.2658C17.1126 30.6661 17.1671 30.0643 17.1486 29.4645C16.937 29.5436 16.7234 29.6176 16.5129 29.6987C16.3712 29.6884 16.2305 29.6771 16.0887 29.6751Z" fill="white"/>
<path d="M25.3734 29.4531C25.4258 29.8126 25.4823 30.1741 25.4515 30.5386C25.4217 30.5746 25.3632 30.6475 25.3334 30.6834C25.3991 30.2757 25.3909 29.8639 25.3734 29.4531Z" fill="white"/>
<path d="M14.0625 29.6349L14.2494 29.5876C14.3983 29.6113 14.5483 29.6359 14.6982 29.6606C14.4866 29.6749 14.2638 29.7355 14.0625 29.6349Z" fill="white"/>
<path d="M14.8738 29.6893C15.2517 29.7437 15.6368 29.7355 16.0147 29.6873C15.9829 29.7181 15.9192 29.7797 15.8874 29.8105C15.5978 29.829 15.3082 29.8208 15.0186 29.8208C14.9826 29.7879 14.9107 29.7222 14.8738 29.6893Z" fill="white"/>
<path d="M25.2986 30.9014C25.3088 31.1181 25.3325 31.3337 25.3468 31.5504C25.1907 31.7753 25.2 32.0485 25.1918 32.3093C25.1723 32.2426 25.1343 32.1101 25.1147 32.0433C25.2339 31.6736 25.2678 31.2865 25.2986 30.9014Z" fill="white"/>
<path d="M17.2174 32.5843C17.2431 32.2905 17.2749 31.9979 17.2903 31.7031C17.3119 31.9106 17.3222 32.119 17.3386 32.3265C17.3406 32.3963 17.3447 32.535 17.3468 32.6048L17.2174 32.5843Z" fill="white"/>
<path d="M24.3096 34.2234C24.6577 33.6268 24.9802 32.9983 25.0593 32.302C25.1619 32.6655 24.9483 32.9983 24.8559 33.3392C24.7275 33.5693 24.6105 33.8055 24.5057 34.0478C24.44 34.1053 24.3743 34.1639 24.3096 34.2234Z" fill="white"/>
<path d="M17.7102 34.1433C17.5079 33.6729 17.2902 33.1635 17.3939 32.6418C17.4555 32.916 17.4258 33.218 17.5829 33.4634C17.6681 33.6154 17.7308 33.7736 17.6733 33.9594C17.7225 33.9461 17.8211 33.9184 17.8704 33.905C17.6702 34.0611 17.8776 34.2439 17.9269 34.4062C18.1806 34.9689 18.5873 35.5112 19.1849 35.7309C19.1849 35.7628 19.1849 35.8275 19.186 35.8603C18.8717 35.619 18.4681 35.4742 18.2617 35.1168C18.0255 34.8231 17.9208 34.4524 17.7102 34.1433Z" fill="white"/>
<path d="M24.2942 34.25C24.2141 34.5858 23.9009 34.7799 23.6852 35.0243C23.4079 35.3417 22.991 35.4587 22.648 35.6826C22.5247 35.6939 22.4097 35.7288 22.3009 35.7863C22.0297 35.8736 21.7535 35.9476 21.4824 36.0349C21.2862 36.0266 21.0901 36.0153 20.8939 36.0143C21.5255 35.964 22.1345 35.7894 22.725 35.5645C23.3391 35.2492 23.9091 34.8343 24.2942 34.25Z" fill="white"/>
<path d="M19.223 35.8491C19.298 35.8625 19.4459 35.8912 19.5208 35.9046C19.7129 35.9436 19.9049 35.9795 20.1 36.0073C19.9255 36.0114 19.7519 36.0309 19.5794 36.0494C19.4603 35.9837 19.3411 35.9169 19.223 35.8491Z" fill="white"/>
<path d="M18.5087 0.282107C18.5221 0.277999 18.5488 0.268756 18.5621 0.264648C19.0068 0.269783 19.4597 0.256433 19.8921 0.37556C20.6161 0.534739 21.2158 0.99071 21.8577 1.33474C26.6464 4.11164 31.4577 6.84952 36.2402 9.63669C36.7291 9.87803 37.0515 10.3248 37.412 10.715C37.2949 10.8598 37.1748 11.0036 37.0433 11.1361L37.0053 11.1566C36.991 11.1638 36.9632 11.1782 36.9488 11.1853L36.8636 11.2295C36.8482 11.2367 36.8164 11.249 36.801 11.2562L36.6418 11.2993C36.5083 11.3199 36.42 11.3959 36.3748 11.5273L36.2967 11.5643C36.2762 11.5735 36.2351 11.5931 36.2146 11.6023L36.1242 11.6444C36.1037 11.6526 36.0616 11.6701 36.041 11.6783L35.9527 11.707C35.8079 11.7214 35.7093 11.7974 35.6559 11.9371L35.5758 11.9741C35.5553 11.9843 35.5132 12.0049 35.4926 12.0151L35.4094 12.0593C35.393 12.0685 35.3612 12.087 35.3458 12.0952C35.2728 12.1414 35.127 12.2318 35.0541 12.278C35.0408 12.2863 35.0151 12.3027 35.0017 12.3109L34.9237 12.3571L34.8682 12.3684L34.8302 12.3961L34.6875 12.4269C34.556 12.4475 34.4687 12.5235 34.4266 12.656L34.3445 12.694C34.325 12.7032 34.2859 12.7217 34.2664 12.7309L34.173 12.773C34.1524 12.7823 34.1114 12.7997 34.0908 12.8079L34.0045 12.8377C33.8567 12.8542 33.7529 12.9312 33.6913 13.0667L33.6287 13.1006C33.6122 13.1099 33.5804 13.1263 33.565 13.1355L33.4808 13.1797L33.4305 13.1931L33.3935 13.2146L33.2477 13.2485C33.1183 13.2701 33.031 13.3471 32.9858 13.4775L32.9047 13.5145C32.8852 13.5248 32.8441 13.5443 32.8235 13.5545L32.7383 13.5997C32.7219 13.609 32.689 13.6275 32.6726 13.6377C32.6007 13.6819 32.4549 13.7723 32.383 13.8174C32.3686 13.8257 32.3409 13.8431 32.3265 13.8513L32.2433 13.9017C32.2115 13.9171 32.1478 13.9489 32.116 13.9643L32.0122 14.0136L31.9712 14.0321L31.9404 14.0536C31.8715 14.0978 31.735 14.1861 31.6662 14.2313C31.6528 14.2395 31.6261 14.256 31.6128 14.2642L31.5327 14.3114L31.4793 14.3237L31.4423 14.3494L31.2965 14.3792C31.1671 14.3987 31.0808 14.4737 31.0377 14.6041L30.9596 14.637C30.9411 14.6462 30.9031 14.6626 30.8836 14.6719L30.7819 14.7201C30.7665 14.7304 30.7337 14.753 30.7172 14.7633C30.5026 14.9153 30.5837 15.2008 30.5991 15.4195C30.668 15.8282 30.7357 16.24 30.6977 16.657C30.6351 16.6621 30.5077 16.6724 30.4451 16.6775C30.4944 15.7122 30.6135 14.7304 30.3763 13.7784C30.6577 13.8976 30.6002 13.4241 30.3506 13.5915C30.3486 13.5689 30.3455 13.5237 30.3434 13.5011C30.3609 13.1797 30.2048 12.8973 29.9316 12.7309C29.9244 12.7237 29.9111 12.7094 29.9049 12.7011L29.9316 12.5954C29.5095 12.2287 29.1706 11.78 28.7506 11.4113C28.614 11.3363 28.4867 11.2459 28.3655 11.1474C28.3316 11.1515 28.2628 11.1586 28.2279 11.1628C28.2104 11.1515 28.1745 11.1278 28.157 11.1165L28.2094 11.0909C28.1786 11.0477 28.1149 10.9625 28.0831 10.9194C27.8705 10.8423 27.6559 10.7715 27.4351 10.7212C27.4145 10.715 27.3735 10.7027 27.3529 10.6955C27.5398 10.5322 27.1547 10.4367 27.2697 10.6688C27.243 10.6544 27.1907 10.6246 27.165 10.6092C27.1557 10.5723 27.1383 10.4973 27.129 10.4593C26.9288 10.3771 26.7275 10.2981 26.5272 10.2138C26.443 10.2303 26.3588 10.2457 26.2746 10.2601C26.2428 10.2539 26.1791 10.2395 26.1473 10.2323C26.1709 10.2015 26.2192 10.1389 26.2428 10.1081C26.1288 10.0393 26.0343 10.0639 25.9614 10.1841C25.9059 10.1687 25.7971 10.1389 25.7416 10.1245C25.9747 9.91911 25.5249 9.9191 25.4366 10.0598C25.3894 10.0413 25.2939 10.0033 25.2456 9.98483C25.1111 9.73836 24.8091 9.82257 24.6202 9.94786C23.9999 9.915 23.3806 9.91397 22.7604 9.94889C22.5693 9.81436 22.2726 9.73939 22.1257 9.97661C22.0764 9.99715 21.9768 10.0362 21.9275 10.0567C21.8125 9.9684 21.3134 9.85646 21.5116 10.1204C21.2138 10.2046 20.9262 10.334 20.6181 10.3771C20.2957 10.3936 19.9876 10.2837 19.6764 10.218C19.7955 10.182 19.9146 10.145 20.0348 10.1091C19.1886 10.1019 18.3413 10.1666 17.4951 10.0927C17.5578 10.1235 17.682 10.1861 17.7447 10.2169C17.6266 10.2426 17.5085 10.2703 17.3914 10.2991C17.3021 10.181 17.1141 10.0957 16.9888 10.2149C17.073 10.3001 17.184 10.335 17.3205 10.3206C17.0135 10.4079 16.7075 10.4983 16.4024 10.5928C16.5668 10.5373 16.4548 10.2426 16.3264 10.4244C16.3275 10.4675 16.3275 10.5558 16.3285 10.6C16.2987 10.6031 16.2412 10.6072 16.2114 10.6102C16.1806 10.5928 16.118 10.5579 16.0872 10.5414C15.8725 10.6698 15.6517 10.7838 15.433 10.9029L15.5737 10.906C15.4967 10.9409 15.4166 10.9502 15.3334 10.9337L15.3591 10.8485L15.2902 10.7992C15.2553 10.8218 15.1865 10.8649 15.1516 10.8875C15.0972 10.8701 14.9873 10.8362 14.9318 10.8197C14.8805 10.6534 14.8199 10.6431 14.7511 10.7889C14.6987 10.7705 14.5919 10.7345 14.5395 10.716C14.6813 10.4613 14.2335 10.411 14.3444 10.6852C14.2869 10.6667 14.1739 10.6298 14.1164 10.6113C14.2243 10.2693 13.565 10.2939 13.8289 10.5825C13.7231 10.5435 13.6173 10.5034 13.5126 10.4634C13.6748 10.2128 13.2579 10.1923 13.1552 10.3576C13.1952 10.3833 13.2753 10.4346 13.3144 10.4613C12.9816 10.4439 12.6581 10.3607 12.3316 10.3042C12.538 10.2991 12.7444 10.2755 12.9426 10.22C12.6479 10.1995 12.3562 10.2436 12.0646 10.2806C11.6158 10.2785 11.168 10.2652 10.7192 10.2898C10.5447 10.1892 10.3156 10.0762 10.1267 10.2108C10.214 10.2734 10.3126 10.3124 10.4225 10.3289C10.404 10.3453 10.367 10.3761 10.3485 10.3925C9.99318 10.3946 9.6471 10.4778 9.30923 10.5825C9.43143 10.3042 8.96314 10.3525 9.12232 10.6041C9.10281 10.602 9.06378 10.6 9.0453 10.5979C9.00319 10.5866 8.92103 10.564 8.87996 10.5527C7.98958 11.0005 6.94722 11.4945 6.56724 12.4845C6.56108 12.5029 6.54876 12.5399 6.54259 12.5574C6.4132 12.5399 6.20164 12.7155 6.38958 12.8018C6.38341 12.8079 6.37006 12.8213 6.3639 12.8285L6.28483 12.9055C6.15235 13.1653 6.04041 13.4375 5.86583 13.6737C5.88534 13.7158 5.92436 13.799 5.94285 13.8411C5.9449 13.8585 5.94798 13.8945 5.94901 13.913C5.61525 13.7661 5.66043 14.3669 5.93566 14.0824C5.72719 14.8526 5.63887 15.6495 5.58444 16.4424C5.60292 17.3502 5.78983 18.2447 5.92744 19.1392C5.90588 19.0519 5.76108 18.8393 5.6974 19.02C5.62757 19.1874 5.79291 19.3117 5.94593 19.3076C5.97468 19.4123 6.00241 19.5161 6.02911 19.6218C5.73643 19.3497 5.72411 20.0542 6.063 19.9012C6.06506 19.932 6.06814 19.9936 6.07019 20.0234C5.87199 20.0963 5.88637 20.4506 6.139 20.3756C6.16159 20.4516 6.18624 20.5276 6.21089 20.6036C5.95004 20.5594 6.02192 21.0883 6.26942 20.9394C6.27045 20.9692 6.2725 21.0288 6.27353 21.0596C6.18932 21.1715 6.19035 21.2793 6.27558 21.381L6.35569 21.3769C6.37315 21.4252 6.40909 21.5207 6.42655 21.5689C6.31358 21.649 6.29099 21.7435 6.35877 21.8534C6.3906 21.8267 6.45428 21.7743 6.48611 21.7476C6.62475 22.1163 6.75004 22.4922 6.79523 22.8865C6.75826 22.8752 6.68534 22.8537 6.64837 22.8424C6.72437 23.02 6.77058 23.208 6.83939 23.3887C6.87636 23.514 6.90716 23.6496 6.94824 23.7708L7.07456 23.8478C7.0838 23.8663 7.10331 23.9032 7.11358 23.9217L7.03862 23.9114C6.86814 23.9874 7.04272 24.2996 7.18034 24.1343C7.18547 24.163 7.19574 24.2226 7.20088 24.2524C7.02629 24.3387 7.15877 24.6858 7.28509 24.4444C7.3046 24.4978 7.34157 24.6057 7.36005 24.6591L7.28303 24.6858C7.27892 24.7289 7.27071 24.8141 7.26557 24.8562C7.29638 24.8275 7.358 24.771 7.38778 24.7423C7.40113 24.7833 7.42783 24.8665 7.44016 24.9076C7.28201 25.0462 7.52745 25.7014 7.60447 25.3019C7.65993 25.4416 7.70717 25.5844 7.75646 25.7261C7.70511 25.6788 7.60139 25.5833 7.55004 25.5361C7.61063 25.6737 7.67636 25.8103 7.74003 25.9489C7.84581 26.1492 7.96493 26.3443 8.10357 26.5251C8.11487 26.5466 8.13746 26.5908 8.14876 26.6124C8.14363 26.6195 8.13336 26.6339 8.12719 26.6411L8.16622 26.6473C8.18778 26.6904 8.22989 26.7777 8.25146 26.8208C8.24529 26.829 8.23297 26.8465 8.22578 26.8547L8.27097 26.8619C8.28124 26.8835 8.30178 26.9266 8.31102 26.9482C8.33669 27.1762 8.42604 27.3867 8.57084 27.5654L8.55749 27.3898C9.08638 27.9813 9.47662 28.7453 10.254 29.0586C10.2879 29.1222 10.3536 29.2496 10.3865 29.3133C10.1873 29.266 9.98599 29.2044 9.83606 29.0586C9.35338 28.618 8.88098 28.1579 8.51641 27.6116C8.34902 27.7112 8.18162 27.8088 8.01012 27.9002C7.99677 27.9073 7.9711 27.9217 7.95775 27.9279L7.86532 27.9772C7.84581 27.9885 7.80781 28.01 7.7883 28.0203L7.69895 28.0727C7.68663 28.0799 7.66301 28.0943 7.65068 28.1025C7.47713 28.2052 7.3046 28.3099 7.12693 28.4034L7.09613 28.4188L7.06326 28.4352L6.96776 28.4794C6.95235 28.4855 6.92154 28.4979 6.90614 28.503L6.75107 28.5461C6.61962 28.5656 6.5313 28.6396 6.48611 28.77L6.40703 28.81C6.38855 28.8193 6.35055 28.8378 6.33104 28.847L6.23964 28.8902C6.21807 28.8984 6.17597 28.9158 6.15543 28.924L6.06814 28.9528C5.92231 28.9651 5.82269 29.0411 5.76724 29.1798L5.68816 29.2198C5.66865 29.2301 5.63065 29.2496 5.61217 29.2588L5.52282 29.304L5.47969 29.3246L5.44785 29.3471C5.37699 29.3913 5.23527 29.4796 5.16441 29.5238C5.15003 29.533 5.12333 29.5495 5.10896 29.5577L5.02372 29.608L4.9354 29.6162L4.87378 29.6778L4.78957 29.7261C4.77622 29.7343 4.74849 29.7507 4.73514 29.759C4.66326 29.8031 4.52051 29.8914 4.44965 29.9356C4.43424 29.9438 4.40549 29.9623 4.39111 29.9705L4.30485 30.0229L4.27198 30.0424L4.24939 30.0568C4.08302 30.1626 3.91255 30.2652 3.73591 30.3556L3.70613 30.37L3.67224 30.3864L3.57262 30.4316L3.53565 30.447L3.51306 30.4532L3.36004 30.4922C3.22859 30.5076 3.14952 30.5816 3.12281 30.713L2.98007 30.7808C2.96672 30.788 2.94002 30.8013 2.92667 30.8075L2.83937 30.8516C2.82602 30.8599 2.79727 30.8753 2.78392 30.8835C2.711 30.9287 2.56415 31.019 2.49123 31.0642C2.47788 31.0724 2.45324 31.0868 2.44091 31.095L2.36594 31.1382C2.33308 31.1546 2.26736 31.1875 2.23449 31.2039L2.12666 31.2593L2.08353 31.2778L2.05375 31.3004C1.98392 31.3446 1.84425 31.4329 1.77442 31.4771C1.76106 31.4853 1.73539 31.5017 1.72204 31.5099L1.64194 31.5572L1.61216 31.5757L1.59059 31.589C1.42525 31.6999 1.25272 31.8016 1.07197 31.8878C1.05554 31.895 1.02371 31.9074 1.0083 31.9145L0.927173 31.9423C0.86042 31.968 0.727942 32.0203 0.662217 32.046C0.538981 31.8314 0.435258 31.6065 0.350021 31.3744C0.295592 31.0899 0.262729 30.8013 0.257594 30.5127C0.295592 24.9333 0.277106 19.3538 0.27916 13.7753C0.261702 13.1664 0.335643 12.5512 0.224731 11.9474C0.230893 11.9278 0.24219 11.8878 0.247325 11.8672C0.552332 11.0097 1.01446 10.1502 1.82884 9.67982C6.9503 6.7191 12.08 3.77069 17.2055 0.81818C17.606 0.562467 18.061 0.427935 18.5087 0.282107ZM11.2964 10.1697C11.3611 10.1687 11.4915 10.1687 11.5562 10.1687C11.5993 10.0187 11.2481 10.0197 11.2964 10.1697ZM9.56289 10.3176C9.5865 10.4572 9.65942 10.4778 9.77855 10.3802C9.7539 10.2416 9.68201 10.22 9.56289 10.3176ZM16.6417 10.3052C16.6499 10.6493 16.9488 10.1553 16.6417 10.3052V10.3052ZM32.5391 13.2732C32.4816 13.4385 32.5381 13.497 32.7065 13.4477C32.763 13.2824 32.7065 13.2239 32.5391 13.2732ZM5.65222 14.7561C5.79291 14.753 5.79394 14.5004 5.71178 14.4192C5.56287 14.4182 5.58033 14.6719 5.65222 14.7561Z" fill="#5A4E4A"/>
<path d="M29.3685 20.7526C29.6656 20.656 29.534 21.1207 29.3079 20.9315C29.3223 20.8873 29.3531 20.7979 29.3685 20.7526Z" fill="#5A4E4A"/>
<path d="M3.76428 34.4186C3.91747 34.2922 4.10869 34.433 4.10766 34.6109C3.97709 34.58 3.85784 34.5153 3.76428 34.4186Z" fill="#5A4E4A"/>
<path d="M9.57275 37.7551C9.57674 37.7581 9.5867 37.7641 9.59168 37.7671C9.5867 37.7641 9.57674 37.7581 9.57275 37.7551Z" fill="#5A4E4A"/>
<path d="M10.2732 38.1609C10.2803 38.1649 10.2924 38.172 10.2995 38.1761C10.2924 38.172 10.2803 38.1649 10.2732 38.1609Z" fill="#5A4E4A"/>
<path d="M10.9941 38.5684C11.0002 38.5714 11.0124 38.5775 11.0184 38.5815C11.0124 38.5775 11.0002 38.5714 10.9941 38.5684Z" fill="#5A4E4A"/>
<path d="M18.0781 42.5552C18.1285 42.5428 18.2293 42.5192 18.2786 42.5068L18.367 42.5706V42.6312H18.1151L18.0781 42.5552Z" fill="#5A4E4A"/>
<path d="M22.761 9.94903C23.3813 9.91411 24.0005 9.91514 24.6208 9.948C24.8293 9.96648 25.0367 9.99113 25.2462 9.98497C25.2945 10.0035 25.39 10.0415 25.4373 10.0599C25.5143 10.0764 25.6663 10.1082 25.7423 10.1246C25.7977 10.139 25.9066 10.1688 25.962 10.1842C26.0082 10.1955 26.1017 10.2201 26.1479 10.2325C26.1798 10.2397 26.2434 10.254 26.2753 10.2602C26.4344 10.2992 26.5926 10.3382 26.7518 10.3783C26.8904 10.4543 27.029 10.5303 27.1656 10.6094C27.1913 10.6248 27.2437 10.6545 27.2704 10.6689L27.3536 10.6956C27.3741 10.7028 27.4152 10.7151 27.4357 10.7213C27.6863 10.8322 27.9297 10.9616 28.1577 11.1167C28.1751 11.128 28.2111 11.1516 28.2285 11.1629C28.8755 11.5716 29.3972 12.1375 29.9056 12.7013C29.9117 12.7095 29.9251 12.7239 29.9323 12.7311C30.1058 12.9673 30.2414 13.2281 30.3441 13.5013C30.3461 13.5239 30.3492 13.5691 30.3513 13.5917C30.3574 13.6389 30.3708 13.7323 30.3769 13.7786C30.6142 14.7306 30.495 15.7123 30.4457 16.6777C30.4437 16.7085 30.4416 16.7711 30.4396 16.8019C30.419 17.0022 30.3965 17.2035 30.3667 17.4037C30.3646 17.412 30.3615 17.4304 30.3595 17.4397C30.3215 17.5886 30.2845 17.7375 30.2475 17.8864C30.2352 17.9336 30.2106 18.0271 30.1982 18.0743C30.1849 18.1534 30.1602 18.3126 30.1479 18.3917C30.1356 18.4194 30.111 18.4749 30.0986 18.5026C30.0791 18.5478 30.0401 18.6392 30.0206 18.6844C29.9446 18.8733 29.8922 19.0715 29.8624 19.2728C29.8049 19.7534 29.6047 20.1981 29.427 20.6438C29.4116 20.6715 29.3828 20.726 29.3685 20.7527C29.3531 20.7978 29.3223 20.8872 29.3079 20.9313C29.2976 20.9683 29.2771 21.0423 29.2678 21.0792C29.2555 21.1224 29.2309 21.2097 29.2196 21.2538C29.2175 21.2672 29.2144 21.2939 29.2134 21.3072C29.1343 21.4849 29.0614 21.6666 28.9844 21.8453C28.8889 21.9717 28.7893 22.1021 28.7739 22.2654L28.7451 22.4153C28.3446 23.1835 28.0396 24.0061 27.5477 24.7239C27.5343 24.7711 27.5086 24.8656 27.4963 24.9129C27.5733 24.9088 27.7274 24.9005 27.8044 24.8964C27.8475 24.8944 27.9338 24.8892 27.9769 24.8872C28.1628 24.8821 28.3477 24.8471 28.5264 24.7937C28.5489 24.7876 28.5941 24.7763 28.6167 24.7711C29.2072 24.6551 29.9353 24.5955 30.3687 25.1029C30.3882 25.1265 30.4262 25.1747 30.4447 25.1984C30.4827 25.2415 30.5577 25.3298 30.5947 25.3729L30.6059 25.4726C30.6172 25.7714 30.6183 26.0703 30.6162 26.3691L30.6111 26.5201C30.1911 27.3047 29.4147 27.7843 28.6465 28.1745L28.5233 28.2033C28.2203 28.2351 27.9369 28.347 27.6709 28.4929C27.4183 28.5473 27.1595 28.5678 26.9038 28.6058C26.8462 28.613 26.7898 28.6202 26.7343 28.6294C26.3235 28.7075 25.9056 28.6931 25.4907 28.6808C25.4619 28.8194 25.4331 28.9581 25.4044 29.0977C25.3839 29.2148 25.3705 29.3339 25.3736 29.4531C25.391 29.8638 25.3993 30.2757 25.3335 30.6834C25.3192 30.7552 25.3079 30.8282 25.2986 30.9011C25.2678 31.2862 25.2339 31.6734 25.1148 32.0431C25.0932 32.1283 25.0747 32.2146 25.0593 32.3019C24.9803 32.9981 24.6578 33.6266 24.3097 34.2233C24.3055 34.2305 24.2984 34.2438 24.2943 34.25C23.9091 34.8343 23.3392 35.2492 22.7251 35.5645C22.1346 35.7894 21.5256 35.964 20.894 36.0143C20.629 36.0349 20.3641 36.0318 20.1001 36.0071C19.905 35.9794 19.713 35.9435 19.5209 35.9044C19.4131 35.8356 19.3032 35.775 19.1851 35.7309C18.5874 35.5111 18.1808 34.9689 17.9271 34.4061C17.8778 34.2438 17.6704 34.061 17.8706 33.9049C17.8213 33.9183 17.7227 33.946 17.6734 33.9594C17.7309 33.7735 17.6683 33.6153 17.5831 33.4633C17.4259 33.2179 17.4557 32.916 17.3941 32.6418C17.3766 32.537 17.3582 32.4312 17.3386 32.3265C17.3222 32.1191 17.3119 31.9106 17.2904 31.7031C17.2801 31.5984 17.2606 31.4947 17.2411 31.392C17.1867 30.7316 17.2113 30.0672 17.1754 29.4058C16.817 29.5116 16.4585 29.6153 16.0888 29.6749C16.0704 29.678 16.0334 29.6841 16.0149 29.6872C15.637 29.7355 15.2519 29.7437 14.8739 29.6893C14.8308 29.6821 14.7425 29.6677 14.6983 29.6605C14.5484 29.6359 14.3985 29.6112 14.2495 29.5876C14.2126 29.5794 14.1397 29.5609 14.1027 29.5517C13.5635 29.4592 13.1127 29.1501 12.7132 28.7927C12.5181 28.9416 12.3168 29.0844 12.1135 29.222C11.6873 29.3565 11.2375 29.4099 10.7938 29.3391C10.6203 29.2343 10.4385 29.1439 10.2547 29.0587C9.47726 28.7455 9.08702 27.9814 8.55813 27.3899C8.47392 27.2441 8.3969 27.0931 8.31166 26.9483C8.30242 26.9267 8.28188 26.8836 8.27161 26.862L8.2521 26.821C8.23053 26.7778 8.18843 26.6905 8.16686 26.6474L8.1494 26.6125C8.13811 26.5909 8.11551 26.5468 8.10422 26.5252C7.98304 26.2613 7.86185 25.9973 7.7571 25.7262C7.70781 25.5845 7.66057 25.4418 7.60511 25.3021C7.55171 25.1696 7.49728 25.0382 7.4408 24.9077C7.42848 24.8667 7.40178 24.7835 7.38843 24.7424L7.3607 24.6592C7.34221 24.6058 7.30524 24.498 7.28573 24.4446C7.26519 24.3963 7.22206 24.3008 7.20152 24.2525C7.19638 24.2228 7.18612 24.1632 7.18098 24.1344C7.16455 24.081 7.13066 23.9753 7.11423 23.9219C7.10396 23.9034 7.08445 23.8664 7.0752 23.8479C6.95813 23.5347 6.84927 23.2163 6.79587 22.8867C6.75068 22.4923 6.62539 22.1165 6.48675 21.7478C6.47135 21.7026 6.44157 21.6132 6.42719 21.5691C6.40973 21.5208 6.37379 21.4253 6.35633 21.377C6.33579 21.298 6.29471 21.1388 6.27417 21.0597C6.27315 21.0289 6.27109 20.9693 6.27007 20.9396C6.25466 20.8553 6.22591 20.688 6.21153 20.6037C6.18688 20.5277 6.16224 20.4518 6.13964 20.3758C6.12218 20.2874 6.08829 20.1118 6.07084 20.0235C6.06878 19.9937 6.0657 19.9321 6.06365 19.9013C6.05543 19.8315 6.03797 19.6918 6.02976 19.622C6.00306 19.5162 5.97533 19.4125 5.94657 19.3077C5.94144 19.2656 5.93322 19.1814 5.92809 19.1393C5.79048 18.2448 5.60357 17.3503 5.58508 16.4425C5.63951 15.6497 5.72783 14.8528 5.9363 14.0825C5.94041 14.0404 5.94657 13.9552 5.94965 13.9131C5.94863 13.8946 5.94555 13.8587 5.94349 13.8412C6.06467 13.4951 6.21564 13.1624 6.36455 12.8286C6.37071 12.8214 6.38406 12.8081 6.39022 12.8019C6.42822 12.7413 6.50524 12.6191 6.54324 12.5575C6.5494 12.54 6.56172 12.5031 6.56788 12.4846C7.17585 11.6189 8.03336 10.9277 9.04594 10.5981C9.06443 10.6001 9.10345 10.6022 9.12296 10.6042C9.16918 10.5981 9.26366 10.5878 9.30987 10.5827C9.64774 10.4779 9.99383 10.3947 10.3492 10.3927C10.3676 10.3762 10.4046 10.3454 10.4231 10.329C10.497 10.3198 10.6459 10.2992 10.7199 10.29C11.1687 10.2653 11.6164 10.2787 12.0652 10.2807C12.132 10.2869 12.2655 10.2992 12.3322 10.3044C12.6588 10.3608 12.9823 10.444 13.315 10.4615C13.3653 10.4615 13.4639 10.4625 13.5132 10.4635C13.618 10.5036 13.7237 10.5436 13.8295 10.5827C13.9014 10.5898 14.0452 10.6042 14.1171 10.6114C14.1746 10.6299 14.2875 10.6669 14.3451 10.6854C14.3933 10.6925 14.4909 10.708 14.5402 10.7162C14.5926 10.7347 14.6994 10.7706 14.7517 10.7891C14.7969 10.7973 14.8873 10.8127 14.9325 10.8199C14.9879 10.8363 15.0978 10.8702 15.1522 10.8877C15.1974 10.899 15.2888 10.9226 15.334 10.9339C15.4172 10.9503 15.4973 10.9411 15.5743 10.9062C15.7879 10.8086 15.9933 10.6956 16.2121 10.6104C16.2419 10.6073 16.2994 10.6032 16.3291 10.6001L16.4031 10.5929C16.7081 10.4985 17.0141 10.4081 17.3212 10.3208L17.392 10.2992C17.5091 10.2705 17.6272 10.2427 17.7453 10.2171C18.3882 10.1544 19.0342 10.1657 19.677 10.2181C19.9882 10.2838 20.2963 10.3937 20.6188 10.3773C20.9268 10.3341 21.2144 10.2047 21.5122 10.1205C21.655 10.1195 21.7926 10.0979 21.9281 10.0569C21.9774 10.0363 22.077 9.99729 22.1263 9.97675C22.3379 9.98394 22.5494 9.96238 22.761 9.94903ZM20.5058 11.053C18.9335 10.7326 17.1671 10.6915 15.7695 11.5963C15.6226 11.7359 15.4429 11.6887 15.2775 11.6137C14.9694 11.5028 14.6552 11.4104 14.3399 11.318C13.9076 11.1968 13.467 11.1002 13.0213 11.0345C11.5045 10.8178 9.83156 10.785 8.477 11.6076C7.31757 12.2638 6.62231 13.5321 6.40152 14.8158C6.04824 16.6962 6.42 18.6114 6.87186 20.4394C6.89343 20.5483 6.91397 20.6582 6.93348 20.767C7.21692 21.7878 7.4408 22.8261 7.80024 23.8243C8.2521 25.1337 8.74093 26.4564 9.56353 27.584C9.9548 28.0492 10.42 28.5534 11.066 28.6058C11.6852 28.6839 12.2295 28.2936 12.6033 27.8387C13.2667 27.0572 13.9302 26.2736 14.6326 25.527C15.1009 25.7406 15.6 25.8495 16.1042 25.9337C15.8824 26.1771 15.7068 26.4697 15.4398 26.6669C15.0763 26.8744 14.6521 26.9237 14.2526 27.0243C14.114 27.0592 13.9764 27.0931 13.8377 27.127C13.5892 27.2389 13.3171 27.3591 13.1846 27.6148C13.0727 27.8828 13.1661 28.2012 13.3797 28.3912C13.6755 28.6438 14.0544 28.7701 14.4272 28.8564C15.5035 29.0628 16.7327 28.9642 17.582 28.2043C17.6282 28.2033 17.7207 28.2012 17.7669 28.2002C17.6046 28.7445 17.7309 29.335 17.7576 29.8947C17.77 30.6146 17.772 31.3355 17.8203 32.0544C17.9137 32.4107 17.887 32.7855 17.9959 33.1399C18.1951 33.8618 18.5782 34.5755 19.219 34.9956C19.5096 35.1948 19.8598 35.2616 20.1915 35.3581C21.4177 35.4125 22.7949 35.1013 23.6339 34.1422C24.4103 33.1778 24.4011 31.8716 24.5921 30.707C24.7143 30.1062 24.7307 29.4818 24.8426 28.878C24.8837 28.536 24.894 28.1899 24.9597 27.852C26.455 28.0174 28.1115 27.8715 29.3079 26.8682C29.6694 26.595 30.1828 26.1175 29.8984 25.6266C29.5944 25.2405 29.0316 25.4397 28.6157 25.4664C27.8475 25.6276 27.0034 25.7416 26.2599 25.414C27.979 22.6844 29.2627 19.6476 29.7721 16.4517C29.8255 15.5326 29.9518 14.5642 29.6375 13.6779C29.1744 12.7249 28.3076 12.0204 27.4121 11.4884C26.4786 10.9175 25.3859 10.7059 24.3158 10.5714C23.029 10.4913 21.7433 10.7141 20.5058 11.053Z" fill="black"/>
<path d="M9.5636 10.3177C9.68286 10.22 9.75482 10.2416 9.77949 10.3804C9.66024 10.4781 9.58724 10.4575 9.5636 10.3177Z" fill="#326690"/>
<path d="M16.6423 10.3052C16.9481 10.1559 16.6505 10.6478 16.6423 10.3052V10.3052Z" fill="#326690"/>
<path d="M9.12303 10.6044C8.96368 10.3525 9.43248 10.3042 9.31014 10.5828C9.26387 10.5879 9.16929 10.5982 9.12303 10.6044Z" fill="#326690"/>
<path d="M13.8297 10.5827C13.5654 10.2938 14.2255 10.2691 14.1175 10.6115C14.0456 10.6043 13.9016 10.5899 13.8297 10.5827Z" fill="#326690"/>
<path d="M16.3271 10.4243C16.4557 10.2423 16.5677 10.5374 16.4032 10.5929L16.3292 10.6001C16.3282 10.5559 16.3282 10.4675 16.3271 10.4243Z" fill="#326690"/>
<path d="M14.3451 10.6855C14.2341 10.411 14.6824 10.4614 14.5405 10.7164C14.4911 10.7081 14.3935 10.6927 14.3451 10.6855Z" fill="#326690"/>
<path d="M27.2703 10.6683C27.1558 10.4372 27.5393 10.5323 27.3532 10.6949L27.2703 10.6683Z" fill="#326690"/>
<path d="M14.7517 10.7885C14.8202 10.6433 14.8806 10.6535 14.9317 10.8192C14.8867 10.8121 14.7967 10.7967 14.7517 10.7885Z" fill="#326690"/>
<path d="M37.4126 10.7151C37.7371 11.2532 38.0935 11.856 37.9929 12.5102C37.7669 12.0265 37.7525 11.4699 37.4917 10.9954C37.3418 11.0396 37.1908 11.0858 37.0439 11.1361C37.1754 11.0037 37.2956 10.8599 37.4126 10.7151Z" fill="#326690"/>
<path d="M36.9496 11.1854C36.9639 11.1782 36.9915 11.1639 37.0058 11.1567C36.9915 11.1639 36.9639 11.1782 36.9496 11.1854Z" fill="#326690"/>
<path d="M36.8016 11.2561C36.817 11.2489 36.8487 11.2367 36.864 11.2295C36.8487 11.2367 36.817 11.2489 36.8016 11.2561Z" fill="#326690"/>
<path d="M36.3755 11.5275C36.4207 11.396 36.5091 11.3199 36.6428 11.2993C36.6315 11.4525 36.5431 11.5286 36.3755 11.5275Z" fill="#326690"/>
<path d="M21.8296 11.4995C22.5341 11.3034 23.2714 11.3301 23.9955 11.3301C25.7505 11.3239 27.521 12.0818 28.6383 13.4538C28.9197 13.725 29.0563 14.1039 29.0923 14.487C29.1878 15.4544 29.0666 16.43 28.8694 17.3789C28.3107 19.8888 27.294 22.2816 25.9795 24.4865C25.9313 24.5768 25.8584 24.6385 25.7598 24.6713C25.7844 24.2605 26.0812 23.9329 26.1459 23.5283C26.5474 22.0659 25.9354 20.5789 26.1408 19.1031C26.2435 18.2672 26.4489 17.4004 26.2424 16.5655C25.6293 14.754 24.4052 13.1488 22.8206 12.0767C22.5084 11.8528 22.1367 11.7306 21.8296 11.4995Z" fill="#326690"/>
<path d="M36.2152 11.6021C36.2357 11.5928 36.2766 11.5734 36.297 11.5642C36.2766 11.5734 36.2357 11.5928 36.2152 11.6021Z" fill="#326690"/>
<path d="M15.0382 13.2309C15.6986 12.3395 16.7358 11.7531 17.8377 11.6299C19.0978 11.4748 20.4072 11.6874 21.5635 12.2122C23.4049 13.0933 24.8283 14.7673 25.505 16.6826C24.705 16.6446 23.8085 16.6025 23.1399 17.1252C22.5012 17.5955 22.3327 18.4695 22.4714 19.213C22.7281 20.8109 23.5805 22.2189 24.3199 23.631C24.5469 24.2533 24.9936 24.7452 25.3397 25.2957C24.9433 25.4323 24.5633 25.6993 24.4123 26.1049C24.247 26.566 24.3066 27.0662 24.2501 27.5457C24.1217 28.7719 23.9759 29.9971 23.8085 31.2192C23.6863 32.0212 23.6103 32.8736 23.1523 33.5699C22.7487 34.1727 22.0021 34.3863 21.3356 34.5496C20.6999 34.639 19.9574 34.7047 19.4408 34.2446C19.0341 33.8667 18.7877 33.3357 18.6511 32.8038C18.5227 31.9411 18.4652 31.0682 18.4724 30.1953C18.4139 29.1396 18.4026 28.0787 18.4683 27.023C18.5813 26.1326 17.8264 25.1714 16.8827 25.3111C17.1866 24.0644 17.9599 22.9706 18.0904 21.6767C18.2074 20.4762 18.0852 19.2582 17.7782 18.0936C17.5492 17.3254 16.7964 16.7534 15.9892 16.7842C15.1296 16.7247 14.3481 17.1242 13.58 17.4446C13.772 15.9688 14.1037 14.4304 15.0382 13.2309Z" fill="#326690"/>
<path d="M36.0417 11.678C36.0622 11.6699 36.1041 11.6525 36.1246 11.6443C36.1041 11.6525 36.0622 11.6699 36.0417 11.678Z" fill="#326690"/>
<path d="M9.82136 11.8294C11.4881 11.4176 13.2247 11.7513 14.8463 12.2052C14.8093 12.4404 14.6039 12.5821 14.4714 12.7619C13.5759 13.9264 13.1343 15.3714 12.9556 16.8132C12.8201 17.5978 12.8406 18.4009 12.8992 19.1917C12.9947 19.9198 12.8776 20.6489 12.8355 21.375C12.5469 22.6987 12.9988 24.1683 14.0196 25.0689C13.4835 25.7529 12.8591 26.3701 12.3148 27.052C12.0581 27.3734 11.7849 27.7216 11.3813 27.8602C11.0095 27.9496 10.6707 27.7082 10.4242 27.4587C9.7279 26.709 9.31506 25.755 8.93714 24.8184C8.43085 23.6035 8.1012 22.327 7.76333 21.0587C7.446 19.8828 7.22725 18.6823 7.03624 17.4807C6.94689 16.311 6.97051 15.1002 7.38951 13.9901C7.78078 12.9282 8.7184 12.0902 9.82136 11.8294Z" fill="#326690"/>
<path d="M35.6566 11.9373C35.7101 11.7975 35.8088 11.7214 35.9537 11.707C35.9147 11.8551 35.816 11.9312 35.6566 11.9373Z" fill="#326690"/>
<path d="M35.4933 12.015C35.5137 12.0048 35.5557 11.9843 35.5761 11.9741C35.5557 11.9843 35.5137 12.0048 35.4933 12.015Z" fill="#326690"/>
<path d="M0.225377 11.9473C0.336289 12.5511 0.262347 13.1663 0.279806 13.7753C0.277752 19.3537 0.296237 24.9332 0.25824 30.5127C0.263374 30.8012 0.296237 31.0898 0.350666 31.3743C0.282887 31.1976 0.227431 31.0128 0.226404 30.8228C0.201757 29.7938 0.188406 28.7658 0.183271 27.7368C0.173002 22.7037 0.169921 17.6715 0.124735 12.6384C0.114465 12.4043 0.151436 12.1701 0.225377 11.9473Z" fill="#326690"/>
<path d="M35.3464 12.0951C35.3618 12.0869 35.3935 12.0685 35.4098 12.0593C35.3935 12.0685 35.3618 12.0869 35.3464 12.0951Z" fill="#326690"/>
<path d="M35.0024 12.3106C35.0157 12.3024 35.0413 12.286 35.0546 12.2778C35.0413 12.286 35.0157 12.3024 35.0024 12.3106Z" fill="#326690"/>
<path d="M34.8688 12.3684L34.924 12.3572C34.9005 12.3664 34.8545 12.3868 34.8309 12.396L34.8688 12.3684Z" fill="#326690"/>
<path d="M34.4274 12.6563C34.4695 12.5236 34.5569 12.4476 34.6885 12.427C34.6823 12.5802 34.5949 12.6563 34.4274 12.6563Z" fill="#326690"/>
<path d="M34.2671 12.7309C34.2865 12.7217 34.3254 12.7033 34.3448 12.6941C34.3254 12.7033 34.2865 12.7217 34.2671 12.7309Z" fill="#326690"/>
<path d="M34.0916 12.8077C34.112 12.7995 34.1529 12.7822 34.1734 12.7729C34.1529 12.7822 34.112 12.7995 34.0916 12.8077Z" fill="#326690"/>
<path d="M33.692 13.0669C33.7537 12.9312 33.8575 12.8541 34.0056 12.8376C33.9583 12.9867 33.8534 13.0628 33.692 13.0669Z" fill="#326690"/>
<path d="M33.5657 13.1354C33.581 13.1262 33.6127 13.1098 33.6291 13.1006C33.6127 13.1098 33.581 13.1262 33.5657 13.1354Z" fill="#326690"/>
<path d="M33.431 13.193L33.4811 13.1797C33.4586 13.1879 33.4156 13.2053 33.3942 13.2145L33.431 13.193Z" fill="#326690"/>
<path d="M32.5398 13.2733C32.7073 13.2239 32.7639 13.2825 32.7073 13.4481C32.5387 13.4974 32.4822 13.4388 32.5398 13.2733Z" fill="#326690"/>
<path d="M32.9865 13.4778C33.0317 13.3472 33.1191 13.2701 33.2486 13.2485C33.2445 13.4017 33.1571 13.4788 32.9865 13.4778Z" fill="#326690"/>
<path d="M32.8242 13.5543C32.8447 13.5441 32.8856 13.5246 32.905 13.5144C32.8856 13.5246 32.8447 13.5441 32.8242 13.5543Z" fill="#326690"/>
<path d="M30.3513 13.5917C30.6011 13.4241 30.6587 13.8981 30.377 13.7788C30.3709 13.7326 30.3575 13.639 30.3513 13.5917Z" fill="#326690"/>
<path d="M32.6733 13.6377C32.6897 13.6275 32.7224 13.6091 32.7388 13.5999C32.7224 13.6091 32.6897 13.6275 32.6733 13.6377Z" fill="#326690"/>
<path d="M32.3271 13.8511C32.3415 13.843 32.3691 13.8256 32.3834 13.8174C32.3691 13.8256 32.3415 13.843 32.3271 13.8511Z" fill="#326690"/>
<path d="M5.93657 14.0826C5.66104 14.3673 5.61581 13.7659 5.94993 13.9129C5.94685 13.9551 5.94068 14.0404 5.93657 14.0826Z" fill="#326690"/>
<path d="M32.1167 13.964C32.1484 13.9487 32.2118 13.917 32.2435 13.9016L32.1914 13.9538L32.1167 13.964Z" fill="#326690"/>
<path d="M31.9717 14.0321L32.0126 14.0137C31.9942 14.0239 31.9595 14.0433 31.941 14.0536L31.9717 14.0321Z" fill="#326690"/>
<path d="M31.6134 14.2639C31.6267 14.2557 31.6533 14.2394 31.6666 14.2312C31.6533 14.2394 31.6267 14.2557 31.6134 14.2639Z" fill="#326690"/>
<path d="M31.4798 14.3238L31.533 14.3115C31.5105 14.3207 31.4655 14.3391 31.443 14.3494L31.4798 14.3238Z" fill="#326690"/>
<path d="M5.65296 14.7564C5.581 14.6721 5.56352 14.4182 5.71259 14.4192C5.79484 14.5004 5.79381 14.7533 5.65296 14.7564Z" fill="#326690"/>
<path d="M31.0383 14.6043C31.0815 14.4737 31.1679 14.3987 31.2974 14.3792C31.2933 14.5323 31.2059 14.6074 31.0383 14.6043Z" fill="#326690"/>
<path d="M30.8843 14.6717C30.9037 14.6625 30.9416 14.6462 30.96 14.637C30.9416 14.6462 30.9037 14.6625 30.8843 14.6717Z" fill="#326690"/>
<path d="M30.7179 14.7632C30.7343 14.7529 30.767 14.7304 30.7823 14.7202C30.767 14.7304 30.7343 14.7529 30.7179 14.7632Z" fill="#326690"/>
<path d="M23.8692 17.5453C24.4196 17.3378 25.0204 17.3933 25.5945 17.4364C25.5986 18.2426 25.3357 19.0251 25.3613 19.8344C25.35 21.1684 25.8871 22.5825 25.2381 23.8487C24.8232 22.9091 24.244 22.0536 23.8425 21.1068C23.4779 20.3201 23.1544 19.477 23.1647 18.5979C23.176 18.1501 23.4194 17.6829 23.8692 17.5453ZM24.1742 17.7599C23.9862 17.8266 23.6627 17.9109 23.7264 18.1768C23.9565 18.7252 24.9855 18.4993 24.8992 17.8893C24.7513 17.6685 24.4063 17.7198 24.1742 17.7599Z" fill="#326690"/>
<path d="M13.5656 18.3617C14.305 17.8574 15.181 17.461 16.095 17.5206C16.5859 17.537 17.0059 17.9262 17.1097 18.3976C17.351 19.4338 17.4681 20.5101 17.3592 21.5719C17.238 22.8495 16.4503 23.9196 16.1628 25.153C14.5494 25.1714 13.3274 23.517 13.4773 21.9817C13.5728 21.3368 13.5862 20.6847 13.6539 20.0366C13.657 19.4769 13.5677 18.9214 13.5656 18.3617ZM15.409 18.184C15.524 18.5291 15.828 18.7981 16.1946 18.8371C16.4144 18.7961 16.5962 18.6543 16.7759 18.5311C16.8961 18.0269 16.2542 17.8882 15.8783 17.9303C15.6688 17.8903 15.5343 18.0454 15.409 18.184Z" fill="#326690"/>
<path d="M5.69813 19.02C5.76187 18.8391 5.90683 19.0519 5.92842 19.1393C5.93356 19.1814 5.94179 19.2657 5.94693 19.3079C5.79374 19.312 5.62823 19.1876 5.69813 19.02Z" fill="#326690"/>
<path d="M6.06395 19.9015C5.72468 20.0547 5.73702 19.3494 6.03002 19.6218C6.03824 19.6918 6.05572 19.8316 6.06395 19.9015Z" fill="#326690"/>
<path d="M17.0501 26.0393C17.4619 26.0084 17.7607 26.488 17.7515 26.8547C17.4321 27.5468 16.7266 28.0141 15.9975 28.1835C15.408 28.2493 14.7887 28.2575 14.227 28.0387C14.1212 28.0254 13.9281 27.9032 14.1089 27.8221C14.7086 27.6393 15.3823 27.6167 15.9071 27.2346C16.361 26.9091 16.5705 26.3268 17.0501 26.0393Z" fill="#326690"/>
<path d="M25.1241 26.3157C25.2453 26.0785 25.5154 26.0107 25.7464 25.9316C26.4181 26.3845 27.2653 26.4153 28.0427 26.3085C28.3344 26.2521 28.6301 26.2212 28.9269 26.2192C28.2686 26.8477 27.3464 27.0808 26.4643 27.1712C25.9744 27.1917 25.4671 27.2215 25.0009 27.0428C25.0204 26.7974 25.0296 26.5458 25.1241 26.3157Z" fill="#326690"/>
<path d="M7.95837 27.9278C7.97167 27.9216 7.99724 27.9073 8.01054 27.9001C7.99724 27.9073 7.97167 27.9216 7.95837 27.9278Z" fill="#326690"/>
<path d="M7.78894 28.0203C7.80837 28.01 7.84622 27.9885 7.86565 27.9773C7.84622 27.9885 7.80837 28.01 7.78894 28.0203Z" fill="#326690"/>
<path d="M7.65137 28.1022C7.66364 28.094 7.68717 28.0797 7.69944 28.0725C7.68717 28.0797 7.66364 28.094 7.65137 28.1022Z" fill="#326690"/>
<path d="M7.09669 28.4187L7.12738 28.4033C7.11101 28.4115 7.07931 28.4279 7.06396 28.435L7.09669 28.4187Z" fill="#326690"/>
<path d="M6.90686 28.5028C6.9222 28.4977 6.95289 28.4854 6.96823 28.4792C6.95289 28.4854 6.9222 28.4977 6.90686 28.5028Z" fill="#326690"/>
<path d="M6.48682 28.7703C6.53205 28.6397 6.62047 28.5657 6.75206 28.5461C6.74384 28.6983 6.65542 28.7733 6.48682 28.7703Z" fill="#326690"/>
<path d="M6.33167 28.8469C6.3511 28.8377 6.38894 28.8193 6.40735 28.8101C6.38894 28.8193 6.3511 28.8377 6.33167 28.8469Z" fill="#326690"/>
<path d="M6.15613 28.9239C6.17658 28.9157 6.21852 28.8983 6.24 28.8901C6.21852 28.8983 6.17658 28.9157 6.15613 28.9239Z" fill="#326690"/>
<path d="M5.76794 29.1798C5.82346 29.0411 5.92318 28.965 6.06917 28.9526C6.02805 29.0997 5.9273 29.1757 5.76794 29.1798Z" fill="#326690"/>
<path d="M5.61292 29.2586C5.63133 29.2494 5.66917 29.23 5.6886 29.2197C5.66917 29.23 5.63133 29.2494 5.61292 29.2586Z" fill="#326690"/>
<path d="M5.48019 29.3244L5.52315 29.304C5.50372 29.3152 5.4669 29.3367 5.44849 29.3469L5.48019 29.3244Z" fill="#326690"/>
<path d="M5.10962 29.5574C5.12394 29.5493 5.15053 29.5329 5.16485 29.5237C5.15053 29.5329 5.12394 29.5493 5.10962 29.5574Z" fill="#326690"/>
<path d="M4.93588 29.6161L5.02384 29.6079L4.96145 29.6693L4.87451 29.6775L4.93588 29.6161Z" fill="#326690"/>
<path d="M4.73584 29.7588C4.74914 29.7506 4.77675 29.7343 4.79005 29.7261C4.77675 29.7343 4.74914 29.7506 4.73584 29.7588Z" fill="#326690"/>
<path d="M4.39185 29.9703C4.40616 29.9621 4.4348 29.9437 4.45014 29.9355C4.4348 29.9437 4.40616 29.9621 4.39185 29.9703Z" fill="#326690"/>
<path d="M4.27262 30.0421L4.30535 30.0227C4.29103 30.0309 4.26444 30.0483 4.25012 30.0565L4.27262 30.0421Z" fill="#326690"/>
<path d="M3.70673 30.37L3.73639 30.3557C3.72104 30.3629 3.68934 30.3782 3.67297 30.3864L3.70673 30.37Z" fill="#326690"/>
<path d="M3.53617 30.447L3.57299 30.4316C3.55765 30.4368 3.52901 30.448 3.51367 30.4531L3.53617 30.447Z" fill="#326690"/>
<path d="M3.12354 30.7132C3.15027 30.5816 3.22943 30.5076 3.36102 30.4922C3.36616 30.6433 3.287 30.7163 3.12354 30.7132Z" fill="#326690"/>
<path d="M37.4414 32.1281C37.6211 31.5838 37.8378 31.0508 37.9395 30.4839C37.9189 31.0641 37.7895 31.6515 37.4414 32.1281Z" fill="#326690"/>
<path d="M2.92737 30.8074C2.94066 30.8012 2.96726 30.7879 2.98055 30.7808C2.96726 30.7879 2.94066 30.8012 2.92737 30.8074Z" fill="#326690"/>
<path d="M2.78455 30.8833C2.79784 30.8751 2.82648 30.8597 2.83978 30.8516C2.82648 30.8597 2.79784 30.8751 2.78455 30.8833Z" fill="#326690"/>
<path d="M2.44165 31.0949C2.45392 31.0867 2.47847 31.0724 2.49177 31.0642C2.47847 31.0724 2.45392 31.0867 2.44165 31.0949Z" fill="#326690"/>
<path d="M2.23523 31.2036C2.26796 31.1873 2.33342 31.1545 2.36615 31.1382L2.31398 31.1924L2.23523 31.2036Z" fill="#326690"/>
<path d="M2.0841 31.2777L2.12706 31.2593C2.10865 31.2695 2.07183 31.29 2.05444 31.3002L2.0841 31.2777Z" fill="#326690"/>
<path d="M1.72266 31.5098C1.73595 31.5016 1.76152 31.4852 1.77482 31.4771C1.76152 31.4852 1.73595 31.5016 1.72266 31.5098Z" fill="#326690"/>
<path d="M1.61279 31.5755L1.64245 31.5571C1.63017 31.5653 1.6046 31.5807 1.59131 31.5888L1.61279 31.5755Z" fill="#326690"/>
<path d="M1.00891 31.9145C1.02425 31.9074 1.05596 31.8951 1.07232 31.8879C1.05596 31.8951 1.02425 31.9074 1.00891 31.9145Z" fill="#326690"/>
<path d="M0.662842 32.0462C0.728639 32.0205 0.86126 31.9681 0.928085 31.9424C0.881822 31.9989 0.790323 32.112 0.74406 32.1686C0.723498 32.1377 0.683403 32.0771 0.662842 32.0462Z" fill="#326690"/>
<path d="M4.13098 34.6238C4.35178 34.7193 4.57566 34.8107 4.78516 34.9329C5.99697 35.6466 7.22727 36.3285 8.43908 37.0412C8.81803 37.2497 9.21136 37.4397 9.5369 37.7303C7.94614 36.8471 6.37694 35.9249 4.78926 35.0335C4.5623 34.9093 4.34254 34.7717 4.13098 34.6238Z" fill="#326690"/>
<path d="M18.3667 42.5703C18.379 42.5846 18.4045 42.6153 18.4168 42.6307H18.3667V42.5703Z" fill="#326690"/>
<path d="M37.044 11.1361C37.1909 11.0857 37.3418 11.0395 37.4918 10.9954C37.7526 11.4698 37.767 12.0264 37.9929 12.5101C37.9765 13.1366 37.96 13.763 37.9662 14.3895C37.9662 19.3179 37.9662 24.2462 37.9662 29.1736C37.9631 29.6101 37.9857 30.0486 37.9395 30.484C37.8378 31.0509 37.6212 31.5839 37.4414 32.1282C37.1755 32.5081 36.8982 32.9066 36.4864 33.1428C31.7562 35.8714 27.025 38.6001 22.303 41.3451C21.4691 41.8114 20.6712 42.3741 19.7387 42.6309H18.417C18.4047 42.6155 18.379 42.5847 18.3667 42.5703L18.2783 42.5066C18.229 42.5189 18.1284 42.5426 18.0781 42.5549C17.1887 42.1575 16.3631 41.6358 15.5138 41.1593C14.0185 40.2946 12.5099 39.4535 11.0188 38.5816C11.0126 38.5775 11.0003 38.5713 10.9941 38.5682C10.7579 38.444 10.532 38.3043 10.2999 38.1759C10.2927 38.1718 10.2804 38.1646 10.2732 38.1605C10.0421 38.0363 9.81003 37.9141 9.59231 37.7672C9.58718 37.7641 9.57691 37.758 9.5728 37.7549L9.53686 37.7302C9.21131 37.4396 8.81798 37.2496 8.43903 37.0411C7.22722 36.3284 5.99692 35.6465 4.78511 34.9328C4.57561 34.8106 4.35173 34.7192 4.13093 34.6237L4.10731 34.6103C4.10834 34.4327 3.91733 34.292 3.76431 34.4183C3.00333 33.9449 2.24338 33.4714 1.4824 33C1.15583 32.8029 0.967896 32.464 0.744019 32.1682C0.790232 32.1117 0.881631 31.9988 0.927845 31.9423L1.00897 31.9146C1.02438 31.9074 1.05621 31.895 1.07265 31.8879C1.25339 31.8016 1.42592 31.6999 1.59126 31.589C1.60461 31.5808 1.63029 31.5654 1.64261 31.5572L1.72271 31.5099C1.73606 31.5017 1.76174 31.4853 1.77509 31.4771C1.84492 31.4329 1.98459 31.3446 2.05442 31.3004C2.07188 31.2902 2.10885 31.2696 2.12733 31.2593L2.23517 31.2039L2.31424 31.1926L2.36662 31.1382L2.44158 31.095C2.45391 31.0868 2.47856 31.0724 2.49191 31.0642C2.56482 31.019 2.71168 30.9287 2.78459 30.8835C2.79794 30.8753 2.82669 30.8599 2.84005 30.8516L2.92734 30.8075C2.94069 30.8013 2.96739 30.788 2.98074 30.7808L3.12349 30.713C3.28677 30.7161 3.36585 30.6432 3.36071 30.4922L3.51373 30.4532C3.52914 30.4481 3.55789 30.4368 3.5733 30.4316L3.67291 30.3864C3.68934 30.3782 3.72118 30.3628 3.73658 30.3556C3.91322 30.2653 4.08369 30.1626 4.25006 30.0568C4.26444 30.0486 4.29114 30.0311 4.30552 30.0229L4.39178 29.9705C4.40616 29.9623 4.43492 29.9438 4.45032 29.9356C4.52118 29.8914 4.66393 29.8031 4.73581 29.759C4.74917 29.7507 4.77689 29.7343 4.79024 29.7261L4.87445 29.6778L4.96175 29.6696L5.02439 29.608L5.10963 29.5577C5.12401 29.5495 5.15071 29.533 5.16508 29.5238C5.23594 29.4796 5.37767 29.3913 5.44853 29.3471C5.46701 29.3369 5.50398 29.3153 5.52349 29.304L5.61284 29.2588C5.63132 29.2496 5.66932 29.2301 5.68883 29.2198L5.76791 29.1798C5.92709 29.1756 6.02773 29.0997 6.06881 28.9528L6.1561 28.924C6.17664 28.9158 6.21875 28.8984 6.24031 28.8902L6.33171 28.847C6.35122 28.8378 6.38922 28.8193 6.40771 28.8101L6.48678 28.77C6.6552 28.7731 6.74352 28.6981 6.75174 28.5461L6.90681 28.503C6.92221 28.4979 6.95302 28.4855 6.96843 28.4794L7.06393 28.4352C7.07934 28.428 7.11117 28.4116 7.12761 28.4034C7.30527 28.3099 7.4778 28.2052 7.65136 28.1025C7.66368 28.0943 7.6873 28.0799 7.69962 28.0727L7.78897 28.0203C7.80848 28.01 7.84648 27.9885 7.86599 27.9772L7.95842 27.9279C7.97177 27.9217 7.99744 27.9074 8.01079 27.9002C8.18229 27.8088 8.34969 27.7112 8.51708 27.6116C8.88165 28.1579 9.35406 28.618 9.83673 29.0586C9.98666 29.2044 10.1879 29.266 10.3872 29.3133C10.3543 29.2496 10.2886 29.1222 10.2547 29.0586C10.4385 29.1438 10.6203 29.2342 10.7939 29.3389C10.6953 29.3266 10.4991 29.302 10.4016 29.2896C10.7507 29.457 11.1358 29.5032 11.5189 29.4652C11.6688 29.3841 11.8311 29.3348 12.0026 29.3492C12.1156 29.2876 12.2265 29.2239 12.3384 29.1613C12.476 29.0966 12.5787 28.9836 12.6845 28.8789C12.8057 28.9918 12.9248 29.1181 13.0942 29.1541C13.1302 29.2044 13.2031 29.305 13.239 29.3554C13.5163 29.456 13.8018 29.5638 14.1027 29.5515C14.1397 29.5608 14.2126 29.5792 14.2496 29.5875L14.0627 29.6347C14.264 29.7353 14.4868 29.6748 14.6984 29.6604C14.7425 29.6676 14.8308 29.6819 14.874 29.6891C14.9109 29.722 14.9828 29.7877 15.0188 29.8206C15.3084 29.8206 15.598 29.8288 15.8876 29.8103C15.9194 29.7795 15.9831 29.7179 16.0149 29.6871C16.0334 29.684 16.0704 29.6778 16.0889 29.6747C16.2306 29.6768 16.3713 29.6881 16.513 29.6984C16.7235 29.6172 16.9371 29.5433 17.1487 29.4642C17.1672 30.064 17.1127 30.6658 17.1497 31.2655L17.2411 31.3918C17.2606 31.4945 17.2801 31.5982 17.2904 31.703C17.275 31.9977 17.2432 32.2904 17.2175 32.5841L17.3469 32.6047C17.3448 32.5348 17.3407 32.3962 17.3387 32.3264C17.3582 32.4311 17.3767 32.5369 17.3941 32.6416C17.2904 33.1633 17.5081 33.6727 17.7104 34.1431C17.921 34.4522 18.0257 34.8229 18.2619 35.1166C18.4683 35.474 18.8719 35.6188 19.1862 35.8601C19.1852 35.8273 19.1852 35.7626 19.1852 35.7307C19.3033 35.7749 19.4131 35.8355 19.521 35.9043C19.446 35.8909 19.2981 35.8622 19.2232 35.8488C19.3412 35.9166 19.4604 35.9834 19.5795 36.0491C19.752 36.0306 19.9256 36.0111 20.1002 36.007C20.3641 36.0316 20.6291 36.0347 20.894 36.0142C21.0902 36.0152 21.2863 36.0265 21.4825 36.0347C21.7536 35.9474 22.0298 35.8735 22.301 35.7862C22.4098 35.7287 22.5248 35.6938 22.6481 35.6825C22.9911 35.4586 23.408 35.3415 23.6853 35.0242C23.901 34.7798 24.2142 34.5857 24.2943 34.2499C24.2984 34.2437 24.3056 34.2303 24.3097 34.2232C24.3744 34.1636 24.4401 34.1051 24.5058 34.0476C24.6106 33.8052 24.7277 33.569 24.856 33.3389C24.9485 32.998 25.1621 32.6653 25.0594 32.3017C25.0748 32.2144 25.0933 32.1282 25.1148 32.0429C25.1343 32.1097 25.1723 32.2421 25.1918 32.3089C25.2001 32.0481 25.1908 31.7749 25.3469 31.55C25.3325 31.3333 25.3089 31.1176 25.2986 30.9009C25.3079 30.828 25.3192 30.7551 25.3336 30.6832C25.3633 30.6473 25.4219 30.5744 25.4517 30.5384C25.4825 30.1739 25.426 29.8124 25.3736 29.4529C25.3705 29.3338 25.3839 29.2147 25.4044 29.0976C25.4476 29.1079 25.5328 29.1294 25.5749 29.1397C25.5759 29.0504 25.577 28.8717 25.577 28.7823C25.9477 28.7731 26.3205 28.8059 26.6892 28.7659C26.7004 28.732 26.723 28.6632 26.7343 28.6293C26.7898 28.6201 26.8463 28.6129 26.9038 28.6057C27.291 28.6673 27.6781 28.5954 28.0499 28.4876C27.9236 28.467 27.7972 28.4691 27.6709 28.4927C27.9369 28.3469 28.2204 28.235 28.5233 28.2031C28.4997 28.2452 28.4535 28.3294 28.4299 28.3715C28.5993 28.2904 28.7698 28.2113 28.9413 28.1353C29.0471 28.0491 29.1631 27.9762 29.2679 27.8878C29.8799 27.6722 30.2537 27.1115 30.6758 26.6524C30.7066 26.5466 30.7364 26.4419 30.7662 26.3361C30.7292 26.3443 30.6532 26.3607 30.6163 26.369C30.6183 26.0701 30.6173 25.7713 30.606 25.4724C30.645 25.4991 30.721 25.5546 30.76 25.5823C30.7385 25.4765 30.7169 25.3718 30.6953 25.267C30.6327 25.2496 30.5074 25.2157 30.4448 25.1982C30.4263 25.1746 30.3883 25.1263 30.3688 25.1027C30.2332 24.8501 29.9836 24.6262 29.6817 24.6396C29.3654 24.6416 29.0491 24.6375 28.7328 24.6416C28.7041 24.6735 28.6455 24.7381 28.6168 24.771C28.5942 24.7761 28.549 24.7874 28.5264 24.7936C28.3446 24.7114 28.0704 24.6509 27.977 24.8871C27.9338 24.8891 27.8476 24.8942 27.8044 24.8963C27.7479 24.8675 27.6329 24.81 27.5764 24.7803C28.0304 24.2288 28.2635 23.552 28.5798 22.9215C28.7205 22.6976 28.8458 22.4634 28.9598 22.2241C28.9125 22.2344 28.8201 22.255 28.7739 22.2652C28.7893 22.1019 28.8889 21.9715 28.9844 21.8452C28.9639 21.9263 28.9248 22.0896 28.9043 22.1718C29.0738 21.913 29.2432 21.6285 29.2134 21.3071C29.2144 21.2937 29.2175 21.267 29.2196 21.2537C29.3983 21.2229 29.4137 21.1643 29.2679 21.0791C29.2771 21.0421 29.2976 20.9682 29.3079 20.9312C29.5338 21.1202 29.6653 20.656 29.3685 20.7525C29.3829 20.7258 29.4116 20.6714 29.427 20.6437C29.4917 20.5574 29.5575 20.4701 29.6242 20.3849C29.6437 20.315 29.6838 20.1764 29.7033 20.1076C29.7711 19.9309 29.8512 19.7584 29.9292 19.5859C29.9046 19.4822 29.883 19.3774 29.8625 19.2727C29.8922 19.0714 29.9446 18.8732 30.0206 18.6842C30.0381 18.7315 30.073 18.8259 30.0915 18.8732C30.2917 18.8906 30.1469 18.5969 30.0987 18.5024C30.111 18.4747 30.1356 18.4193 30.148 18.3915C30.3369 18.3905 30.3123 18.1594 30.1983 18.0742C30.2106 18.027 30.2352 17.9335 30.2476 17.8863C30.2825 17.9089 30.3544 17.954 30.3903 17.9766C30.3842 17.7969 30.3677 17.6182 30.3595 17.4395C30.3616 17.4303 30.3646 17.4118 30.3667 17.4036C30.4037 17.3728 30.4776 17.3132 30.5146 17.2834C30.4961 17.1212 30.4653 16.962 30.4396 16.8018C30.4417 16.771 30.4437 16.7083 30.4458 16.6775C30.5084 16.6724 30.6358 16.6621 30.6984 16.657C30.7364 16.24 30.6686 15.8282 30.5998 15.4195C30.5844 15.2008 30.5033 14.9153 30.7179 14.7633C30.7344 14.753 30.7672 14.7304 30.7826 14.7201L30.8843 14.6719C30.9038 14.6626 30.9418 14.6462 30.9603 14.637L31.0383 14.6041C31.2057 14.6072 31.293 14.5322 31.2971 14.3792L31.443 14.3494C31.4655 14.3391 31.5107 14.3207 31.5333 14.3114L31.6134 14.2642C31.6268 14.256 31.6535 14.2395 31.6668 14.2313C31.7356 14.1861 31.8722 14.0978 31.941 14.0537C31.9595 14.0434 31.9944 14.0239 32.0129 14.0136L32.1166 13.9643L32.1916 13.954L32.244 13.9017L32.3272 13.8513C32.3415 13.8431 32.3693 13.8257 32.3837 13.8174C32.4555 13.7723 32.6014 13.6819 32.6733 13.6377C32.6897 13.6275 32.7225 13.609 32.739 13.5997L32.8242 13.5545C32.8448 13.5443 32.8858 13.5248 32.9053 13.5145L32.9865 13.4775C33.157 13.4786 33.2442 13.4015 33.2484 13.2485L33.3942 13.2146C33.4157 13.2054 33.4589 13.1879 33.4815 13.1797L33.5657 13.1355C33.5811 13.1263 33.6129 13.1099 33.6294 13.1006L33.692 13.0667C33.8532 13.0626 33.958 12.9866 34.0052 12.8377L34.0915 12.8079C34.112 12.7997 34.1531 12.7823 34.1736 12.773L34.2671 12.7309C34.2866 12.7217 34.3256 12.7032 34.3451 12.694L34.4273 12.656C34.5947 12.656 34.682 12.58 34.6881 12.4269L34.8309 12.3961C34.8545 12.3869 34.9007 12.3664 34.9244 12.3571L35.0024 12.3109C35.0158 12.3027 35.0414 12.2863 35.0548 12.278C35.1277 12.2318 35.2735 12.1415 35.3464 12.0952C35.3618 12.087 35.3937 12.0685 35.4101 12.0593L35.4933 12.0151C35.5138 12.0049 35.5559 11.9843 35.5765 11.9741L35.6566 11.9371C35.8158 11.9309 35.9143 11.8549 35.9534 11.707L36.0417 11.6783C36.0622 11.6701 36.1043 11.6526 36.1249 11.6444L36.2152 11.6023C36.2358 11.5931 36.2769 11.5735 36.2974 11.5643L36.3755 11.5273C36.5428 11.5284 36.6312 11.4524 36.6425 11.2993L36.8016 11.2562C36.817 11.249 36.8489 11.2367 36.8643 11.2295L36.9495 11.1853C36.9639 11.1782 36.9916 11.1638 37.006 11.1566L37.044 11.1361ZM29.9621 19.0478C29.8101 19.3569 30.303 19.056 29.9621 19.0478V19.0478ZM28.1505 28.3572C28.168 28.695 28.4576 28.198 28.1505 28.3572V28.3572Z" fill="#3A302C"/>
</g>
<defs>
<clipPath id="clip0">
<rect width="37.9975" height="42.4135" fill="white" transform="translate(0.0712891 0.217529)"/>
</clipPath>
</defs>
</svg>
