<svg width="52" height="27" viewBox="0 0 52 27" fill="none" xmlns="http://www.w3.org/2000/svg">
<rect x="0.579377" y="0.746369" width="50.551" height="24.9604" rx="1.95328" fill="#C4C4C4" stroke="black" stroke-width="0.781313"/>
<g clip-path="url(#clip0)">
<path d="M31.8499 8.41018C33.2098 6.66949 34.5673 4.92739 35.9297 3.18896C35.3317 4.0764 34.7196 4.95451 34.1163 5.83828C32.4723 8.2336 30.8286 10.6295 29.1843 13.0248C30.3515 14.6505 31.5201 16.2751 32.6876 17.9002C32.455 17.901 32.2226 17.9005 31.9899 17.9005C30.9272 16.422 29.8655 14.9426 28.8022 13.4644C27.7347 14.9426 26.6688 16.422 25.6016 17.9005C25.3731 17.9005 25.1449 17.9008 24.9167 17.9005C26.0932 16.2751 27.2707 14.6505 28.4463 13.0245C27.3483 11.4884 26.2508 9.95168 25.1533 8.41498C25.377 8.4147 25.6007 8.41498 25.8244 8.41498C26.8177 9.80505 27.8094 11.1962 28.8022 12.5869C29.8188 11.1948 30.8328 9.80165 31.8499 8.41018Z" fill="black"/>
<path d="M10.3533 8.41512C10.594 8.41455 10.8348 8.41596 11.0759 8.41455C14.2225 13.1396 17.3651 17.8675 20.51 22.5938C20.6649 22.828 20.8228 23.0597 20.9751 23.2953C20.6763 22.9232 20.4014 22.5316 20.1119 22.1516C19.1287 20.8339 18.1451 19.5164 17.1622 18.1987C16.8584 17.8034 16.5913 17.3819 16.3068 16.973C14.5243 14.3602 12.7428 11.7465 10.9594 9.13388C10.9499 12.0561 10.9418 14.9784 10.9328 17.9006C10.7396 17.9006 10.5465 17.9009 10.3533 17.9006C10.3533 14.7388 10.353 11.5769 10.3533 8.41512Z" fill="black"/>
<path d="M18.2638 8.41499C20.3714 8.41499 22.479 8.41471 24.5866 8.41527C24.5866 8.58338 24.5866 8.75148 24.5866 8.91959C22.6719 8.92044 20.7575 8.91903 18.843 8.92016C18.8436 10.1865 18.843 11.4525 18.8433 12.7188C20.6435 12.7191 22.4437 12.7185 24.2439 12.7191C24.2442 12.8878 24.2442 13.0567 24.2442 13.2254C22.4437 13.226 20.6435 13.2254 18.8433 13.2257C18.843 14.6157 18.8433 16.0055 18.8433 17.3956C20.7796 17.3962 22.7161 17.3956 24.6524 17.3959C24.6527 17.564 24.6527 17.7324 24.6524 17.9005C22.523 17.9005 20.3932 17.9008 18.2638 17.9005C18.2635 14.7386 18.2635 11.5768 18.2638 8.41499Z" fill="black"/>
<path d="M32.9388 8.41504C35.3407 8.41504 37.7423 8.41504 40.1441 8.41504C40.1441 8.58343 40.1444 8.75154 40.1441 8.91964C39.0377 8.92021 37.9312 8.91964 36.8248 8.91993C36.8245 11.9134 36.8245 14.9068 36.8248 17.9002C36.6313 17.9008 36.4381 17.9005 36.2452 17.9005C36.2447 14.9071 36.2452 11.9134 36.245 8.91993C35.1427 8.91964 34.0408 8.92021 32.9388 8.91964C32.9385 8.75154 32.9382 8.58343 32.9388 8.41504Z" fill="black"/>
<path d="M42.5387 15.3247C42.7016 15.1668 42.939 15.1165 43.1591 15.1255C43.382 15.1337 43.6152 15.2258 43.7459 15.416C43.8084 15.5021 43.8347 15.6072 43.8484 15.7115C43.7462 15.7121 43.644 15.7121 43.5421 15.7118C43.5141 15.588 43.4296 15.4781 43.3075 15.4389C43.1356 15.3826 42.9225 15.3894 42.7797 15.512C42.6647 15.6087 42.6596 15.82 42.7974 15.8994C42.9648 16.0014 43.1655 16.0172 43.3503 16.0734C43.541 16.1248 43.754 16.2113 43.8366 16.4082C43.9195 16.6213 43.8786 16.8877 43.716 17.0524C43.5642 17.2064 43.3416 17.2629 43.1325 17.2685C42.9032 17.2753 42.6563 17.2222 42.4875 17.0558C42.383 16.9555 42.3293 16.8137 42.3156 16.671C42.4191 16.6707 42.5227 16.6704 42.6266 16.671C42.6829 16.9439 43.0065 17.0219 43.2431 16.975C43.3649 16.9527 43.4928 16.8854 43.5407 16.7634C43.5866 16.6549 43.5382 16.5212 43.4377 16.4636C43.2784 16.3653 43.0874 16.3478 42.911 16.2972C42.7296 16.2523 42.5331 16.1774 42.4365 16.0045C42.3239 15.7883 42.3595 15.4945 42.5387 15.3247Z" fill="black"/>
<path d="M41.589 15.1732C41.6937 15.1732 41.799 15.1732 41.904 15.1732C41.9048 15.6501 41.9043 16.1273 41.9045 16.6042C41.9062 16.7786 41.8653 16.9642 41.7424 17.093C41.5983 17.2456 41.374 17.2868 41.1738 17.2628C40.9972 17.2433 40.8222 17.1498 40.7326 16.991C40.6769 16.9001 40.6601 16.7927 40.6531 16.6882C40.7558 16.6873 40.8586 16.6873 40.9619 16.6879C40.9745 16.769 40.9991 16.8554 41.0697 16.9054C41.1948 16.9973 41.3925 16.995 41.5039 16.8814C41.5871 16.7919 41.5899 16.661 41.589 16.5458C41.5882 16.0883 41.5885 15.6306 41.589 15.1732Z" fill="black"/>
<path d="M40.0044 16.8374C40.1436 16.7718 40.3163 16.9001 40.2917 17.0544C40.2864 17.2047 40.1016 17.2939 39.979 17.2145C39.8359 17.1363 39.851 16.8944 40.0044 16.8374Z" fill="black"/>
</g>
<defs>
<clipPath id="clip0">
<rect width="33.5965" height="20.3141" fill="white" transform="translate(10.3203 3.06946)"/>
</clipPath>
</defs>
</svg>
