<svg width="41" height="41" viewBox="0 0 41 41" fill="none" xmlns="http://www.w3.org/2000/svg">
<g clip-path="url(#clip0)">
<path d="M40.1524 18.5018L30.5932 35.067C30.4097 35.3851 30.0716 35.58 29.7042 35.58H10.5852C10.2188 35.58 9.88039 35.3851 9.69688 35.067L8.9364 33.7486C10.3777 33.5715 11.7788 33.2669 13.1295 32.8461H28.487C28.6302 32.8461 28.7627 32.7695 28.8343 32.6451L37.1769 18.1888C37.2485 18.0653 37.2485 17.9122 37.1769 17.7877L29.407 4.32467C29.0894 2.96724 28.6563 1.65377 28.1196 0.39624H29.7042C30.0713 0.39624 30.4097 0.592355 30.5932 0.910195L40.1524 17.4754C40.3359 17.7926 40.3359 18.1839 40.1524 18.5018Z" fill="#5B5C6C"/>
<path d="M30.0418 9.84231C30.0418 20.6495 22.9282 29.7949 13.1296 32.8461C11.7786 33.2669 10.3778 33.5715 8.93646 33.7486L0.137756 18.5018C-0.0457558 18.1839 -0.0457558 17.7926 0.137756 17.4757L9.69694 0.910195C9.88046 0.592355 10.2189 0.39624 10.5853 0.39624H28.1197C28.6564 1.65377 29.0895 2.96755 29.407 4.32467C29.822 6.09677 30.0418 7.94387 30.0418 9.84231Z" fill="#707384"/>
<path d="M37.1769 18.1889L28.8343 32.6451C28.7627 32.7696 28.6302 32.8461 28.487 32.8461H13.1295C22.9282 29.795 30.0418 20.6495 30.0418 9.84234C30.0418 7.94391 29.822 6.09681 29.407 4.32471L37.1769 17.7877C37.2485 17.9122 37.2485 18.0653 37.1769 18.1889Z" fill="#464655"/>
<path d="M30.0417 9.84233C30.0417 20.6495 22.9281 29.795 13.1295 32.8461H11.8025C11.6593 32.8461 11.5268 32.7696 11.4552 32.6451L3.11353 18.1889C3.04191 18.0653 3.04191 17.9122 3.11353 17.7877L11.4552 3.33214C11.5268 3.20795 11.6593 3.1311 11.8025 3.1311H28.487C28.6302 3.1311 28.7627 3.20764 28.8343 3.33214L29.407 4.3247C29.822 6.09679 30.0417 7.9439 30.0417 9.84233Z" fill="#5B5C6C"/>
<path d="M31.4785 40.0307H8.81129C8.00562 40.0307 7.35242 39.3775 7.35242 38.5718V29.8073C7.35242 29.0016 8.00562 28.3484 8.81129 28.3484H31.4785C32.2844 28.3484 32.9376 29.0016 32.9376 29.8073V38.5715C32.9376 39.3775 32.2844 40.0307 31.4785 40.0307Z" fill="#C3B4FA"/>
<path d="M31.4788 28.3484H29.1454C29.9511 28.3484 30.6039 29.0016 30.6039 29.8076V38.5712C30.6039 39.3772 29.9511 40.0307 29.1454 40.0307H31.4788C32.2844 40.0307 32.9376 39.3772 32.9376 38.5712V29.8079C32.9376 29.0016 32.2844 28.3484 31.4788 28.3484Z" fill="#A09BFF"/>
<path d="M10.1187 37.2639V31.2658C10.1187 31.1674 10.1555 31.081 10.2293 31.0073C10.3034 30.9335 10.3956 30.8966 10.5063 30.8966H12.3325C13.7898 30.8966 14.5186 31.5394 14.5186 32.8252C14.5186 33.3299 14.4095 33.736 14.1913 34.0433C13.973 34.351 13.6791 34.5601 13.3103 34.671L14.5186 36.9134C14.5494 36.9503 14.5647 36.9995 14.5647 37.061C14.5647 37.215 14.4848 37.3579 14.325 37.4901C14.1648 37.6223 13.9958 37.6884 13.8175 37.6884C13.6392 37.6884 13.5009 37.5931 13.4025 37.4025L12.0927 34.8555H11.3178V37.2639C11.3178 37.381 11.2594 37.4732 11.1426 37.5408C11.0258 37.6088 10.8844 37.6423 10.7184 37.6423C10.5582 37.6423 10.4187 37.6088 10.2985 37.5408C10.1789 37.4732 10.1187 37.381 10.1187 37.2639ZM11.3178 33.9142H12.3325C12.9906 33.9142 13.3195 33.5881 13.3195 32.9358C13.3195 32.2777 12.9906 31.9485 12.3325 31.9485H11.3178V33.9142Z" fill="#8080E5"/>
<path d="M15.0073 35.8336V35.0492C15.0073 34.5451 15.2041 34.111 15.5978 33.748C15.9913 33.3853 16.4677 33.2036 17.0275 33.2036C17.55 33.2036 17.9973 33.369 18.3695 33.6997C18.7415 34.0302 18.9275 34.4458 18.9275 34.9465C18.9275 35.1294 18.9044 35.28 18.8583 35.3987C18.8122 35.5176 18.7415 35.6012 18.6462 35.6501C18.5509 35.699 18.463 35.7294 18.3834 35.7417C18.3035 35.7537 18.1989 35.7599 18.0698 35.7599H16.1972V35.8985C16.1972 36.1628 16.2956 36.3768 16.4923 36.5397C16.6891 36.7026 16.9506 36.7841 17.2765 36.7841C17.5101 36.7841 17.7406 36.7257 17.9681 36.6089C18.1956 36.4921 18.3431 36.4337 18.411 36.4337C18.5401 36.4337 18.6477 36.4936 18.7338 36.6135C18.8199 36.7334 18.8629 36.8486 18.8629 36.9596C18.8629 37.1317 18.7077 37.3026 18.3972 37.4717C18.0864 37.6411 17.7007 37.7253 17.2396 37.7253C16.5815 37.7253 16.0451 37.5516 15.6301 37.204C15.2148 36.8566 15.0073 36.3998 15.0073 35.8336ZM16.1972 35.0584H17.5439C17.6423 35.0584 17.7114 35.0427 17.7517 35.0111C17.7913 34.9794 17.8116 34.9176 17.8116 34.8257C17.8116 34.6247 17.7333 34.4608 17.5765 34.3345C17.4197 34.2082 17.2273 34.1448 16.9998 34.1448C16.7846 34.1448 16.5971 34.2069 16.4373 34.3302C16.2771 34.4538 16.1972 34.6161 16.1972 34.8171V35.0584Z" fill="#8080E5"/>
<path d="M19.3796 36.4601C19.3796 35.9756 19.5641 35.6351 19.9329 35.4374C20.3018 35.2404 20.8336 35.1417 21.5286 35.1417H21.907V35.0181C21.907 34.7842 21.8406 34.5801 21.7084 34.4061C21.5762 34.2318 21.3718 34.1448 21.0952 34.1448C20.8185 34.1448 20.5815 34.1974 20.3848 34.3019C20.1881 34.4064 20.0743 34.4587 20.0436 34.4587C19.9206 34.4587 19.8223 34.3972 19.7485 34.2739C19.6747 34.151 19.6378 34.0157 19.6378 33.8682C19.6378 33.6896 19.7958 33.5344 20.1128 33.4019C20.4294 33.2697 20.7629 33.2036 21.1136 33.2036C21.7837 33.2036 22.2817 33.3745 22.6078 33.7157C22.9337 34.0572 23.0966 34.4863 23.0966 35.0031V37.2639C23.0966 37.3687 23.0413 37.4579 22.9306 37.5317C22.8199 37.6054 22.6816 37.6423 22.5153 37.6423C22.3616 37.6423 22.2341 37.603 22.1326 37.524C22.0312 37.445 21.9805 37.3497 21.9805 37.2381V36.9519C21.5563 37.4677 21.0887 37.7256 20.5785 37.7256C20.228 37.7256 19.9403 37.6177 19.7159 37.4022C19.4915 37.1865 19.3796 36.8726 19.3796 36.4601ZM20.5692 36.3113C20.5692 36.4693 20.6138 36.5874 20.7029 36.666C20.7921 36.745 20.9107 36.7841 21.0583 36.7841C21.255 36.7841 21.4456 36.6968 21.63 36.5216C21.8145 36.3467 21.907 36.1539 21.907 35.9437V35.7599H21.7684C21.3933 35.7599 21.0998 35.7964 20.8877 35.8693C20.6753 35.9425 20.5692 36.0897 20.5692 36.3113Z" fill="#8080E5"/>
<path d="M23.8347 35.8336V35.0956C23.8347 34.5294 24.0007 34.0726 24.3327 33.7249C24.6647 33.3776 25.1629 33.2036 25.8269 33.2036C26.245 33.2036 26.5957 33.2774 26.8785 33.4252C27.1613 33.5728 27.3027 33.7388 27.3027 33.9235C27.3027 34.0526 27.2566 34.1817 27.1644 34.3108C27.0721 34.4402 26.9615 34.5048 26.8324 34.5048C26.7955 34.5048 26.6864 34.4633 26.505 34.3803C26.3236 34.297 26.1281 34.2558 25.9191 34.2558C25.3228 34.2558 25.0246 34.5365 25.0246 35.0981V35.8309C25.0246 36.3928 25.3259 36.6734 25.9283 36.6734C26.1374 36.6734 26.331 36.6289 26.5096 36.5397C26.6879 36.4506 26.8016 36.4057 26.8508 36.4057C26.9984 36.4057 27.1198 36.4675 27.2154 36.5904C27.3107 36.7134 27.3583 36.8394 27.3583 36.9688C27.3583 37.1594 27.2089 37.3334 26.9108 37.4902C26.6126 37.6469 26.2545 37.7253 25.8361 37.7253C25.166 37.7253 24.665 37.5532 24.3327 37.2086C24.0007 36.8643 23.8347 36.406 23.8347 35.8336Z" fill="#8080E5"/>
<path d="M27.9761 36.165V31.7413C27.9761 31.6381 28.0372 31.5514 28.1605 31.4813C28.2832 31.4115 28.4187 31.3765 28.5663 31.3765C28.7261 31.3765 28.866 31.4106 28.9858 31.4785C29.1057 31.5468 29.1657 31.631 29.1657 31.7315V33.2589H30.2541C30.3464 33.2589 30.4201 33.3059 30.4755 33.3994C30.5308 33.4928 30.5585 33.6029 30.5585 33.7295C30.5585 33.8565 30.5308 33.9665 30.4755 34.06C30.4201 34.1534 30.3464 34.2001 30.2541 34.2001H29.1657V36.1247C29.1657 36.2944 29.2041 36.4146 29.2812 36.485C29.3578 36.5554 29.4918 36.5904 29.6824 36.5904H30.042C30.2019 36.5904 30.3264 36.6417 30.4158 36.7447C30.5047 36.8477 30.5492 36.97 30.5492 37.1117C30.5492 37.2596 30.5047 37.385 30.4158 37.488C30.3264 37.591 30.2019 37.6423 30.042 37.6423H29.6824C28.5447 37.6423 27.9761 37.1498 27.9761 36.165Z" fill="#8080E5"/>
<path d="M21.4751 16.1282C21.4751 15.3935 20.8794 14.7975 20.145 14.7975C19.4104 14.7975 18.8149 15.3935 18.8149 16.1282C18.8149 16.8631 19.4104 17.4589 20.145 17.4589C20.8794 17.4589 21.4751 16.8631 21.4751 16.1282Z" fill="#A0DCF0"/>
<path d="M23.973 25.2868C23.0102 25.2868 21.8846 24.8226 20.6873 23.9146C19.0588 22.6801 17.4354 20.7414 16.1164 18.4554C14.7971 16.1693 13.9306 13.7932 13.6761 11.7651C13.3988 9.55462 13.886 7.96726 15.0482 7.29592C16.2102 6.62458 17.8277 6.99622 19.6025 8.34166C21.2311 9.57644 22.8544 11.5151 24.1734 13.8012C25.4927 16.0872 26.3592 18.4631 26.6138 20.4912C26.8913 22.702 26.4038 24.2893 25.2419 24.9603C24.8638 25.1789 24.4371 25.2868 23.973 25.2868ZM16.3282 8.20364C16.0768 8.20364 15.8539 8.25713 15.6655 8.36594C14.9711 8.76678 14.6926 9.94961 14.901 11.6114C15.1355 13.4797 15.9467 15.691 17.1855 17.8375C18.4243 19.9843 19.933 21.7927 21.433 22.93C22.7671 23.9413 23.9303 24.2915 24.6243 23.8906C25.3187 23.4895 25.5972 22.3067 25.3888 20.6452C25.1543 18.7766 24.3431 16.5655 23.1043 14.4187C21.8655 12.2722 20.3572 10.4636 18.8568 9.32623C17.8848 8.58941 17.0035 8.20364 16.3282 8.20364Z" fill="#54A1FF"/>
<path d="M16.3168 25.2868C15.8527 25.2868 15.4263 25.1789 15.0482 24.9603C13.886 24.2893 13.3988 22.702 13.6761 20.4912C13.9306 18.4631 14.7971 16.0872 16.1164 13.8012C17.4354 11.5151 19.0588 9.57644 20.6873 8.34166C22.4622 6.99622 24.0796 6.62458 25.2419 7.29592C26.4038 7.96726 26.8913 9.55462 26.6138 11.7651C26.3592 13.7932 25.4927 16.1693 24.1734 18.4554C22.8544 20.7411 21.2311 22.6801 19.6025 23.9146C18.4052 24.8223 17.2796 25.2868 16.3168 25.2868ZM23.9616 8.20364C23.2863 8.20364 22.4053 8.58941 21.433 9.32623C19.933 10.4636 18.4243 12.2722 17.1858 14.4187C15.9471 16.5655 15.1355 18.7766 14.9013 20.6452C14.6926 22.3067 14.9714 23.4895 15.6655 23.8906C16.3599 24.2918 17.523 23.9413 18.8571 22.93C20.3572 21.7927 21.8655 19.9843 23.1043 17.8375C24.3431 15.691 25.1543 13.48 25.3888 11.6114C25.5972 9.94961 25.3187 8.76678 24.6243 8.36594C24.4362 8.25713 24.2131 8.20364 23.9616 8.20364Z" fill="#54A1FF"/>
<path d="M20.1451 20.7823C17.5068 20.7823 15.0166 20.3452 13.1339 19.5515C11.0814 18.6865 9.95117 17.4708 9.95117 16.1281C9.95117 14.7854 11.0814 13.57 13.1339 12.7047C15.0166 11.9114 17.5068 11.4742 20.1451 11.4742C22.7834 11.4742 25.2733 11.9114 27.1564 12.7047C29.2085 13.57 30.3388 14.7854 30.3388 16.1281C30.3388 17.4708 29.2085 18.6865 27.1564 19.5515C25.2733 20.3452 22.7834 20.7823 20.1451 20.7823ZM20.1451 12.7096C14.8654 12.7096 11.186 14.5112 11.186 16.1281C11.186 17.7453 14.8654 19.5469 20.1451 19.5469C25.4245 19.5469 29.104 17.7453 29.104 16.1281C29.104 14.5112 25.4245 12.7096 20.1451 12.7096Z" fill="#54A1FF"/>
</g>
<defs>
<clipPath id="clip0">
<rect width="40.2902" height="40.2901" fill="white" transform="translate(0 0.081543)"/>
</clipPath>
</defs>
</svg>
