<svg width="43" height="43" viewBox="0 0 43 43" fill="none" xmlns="http://www.w3.org/2000/svg">
<g clip-path="url(#clip0)">
<path d="M33.1571 34.3732C28.4442 34.3732 22.1896 32.2292 16.7602 29.1581C9.4204 25.0053 3.92608 19.5198 2.76365 15.1826C2.21931 13.1528 2.69342 11.7269 3.18859 10.8894C6.20528 5.76555 17.2115 8.30463 26.0333 13.2967C33.3731 17.4495 38.8674 22.9351 40.0298 27.2722C40.5742 29.3021 40.1001 30.7279 39.6049 31.5655C38.4442 33.5357 36.1036 34.3732 33.1571 34.3732ZM9.63111 11.5654C6.19124 11.5654 5.75401 12.77 6.15612 14.273C6.89361 17.0264 11.0675 21.9026 18.488 26.1028C27.7646 31.3513 35.3994 31.7885 36.5777 29.7832C36.7989 29.4074 36.82 28.8684 36.6356 28.1818C35.8981 25.4285 31.7243 20.5523 24.3037 16.3521C18.2844 12.9456 12.9533 11.5654 9.63111 11.5654Z" fill="#0097A7"/>
<path d="M24.9095 21.2266C24.9095 23.1651 23.3362 24.7385 21.3976 24.7385C19.4591 24.7385 17.8857 23.1651 17.8857 21.2266C17.8857 19.288 19.4591 17.7147 21.3976 17.7147C23.3362 17.7147 24.9095 19.288 24.9095 21.2266Z" fill="#607D8B"/>
<path d="M21.3976 42.2978C15.6329 42.2978 12.6179 31.6972 12.6179 21.2266C12.6179 10.756 15.6329 0.155396 21.3976 0.155396C27.1623 0.155396 30.1773 10.756 30.1773 21.2266C30.1773 31.6972 27.1623 42.2978 21.3976 42.2978ZM21.3976 3.66726C19.301 3.66726 16.1298 10.6699 16.1298 21.2266C16.1298 31.7833 19.301 38.7859 21.3976 38.7859C23.4942 38.7859 26.6654 31.7833 26.6654 21.2266C26.6654 10.6699 23.4942 3.66726 21.3976 3.66726Z" fill="#00BCD4"/>
<path d="M25.1553 9.56711C23.9086 9.95342 22.6444 10.4451 21.3976 10.9894C22.8375 11.604 24.2598 12.3064 25.647 13.079L25.9631 12.9736C25.7348 11.7269 25.4538 10.5856 25.1553 9.56711ZM39.6067 10.8841C37.8859 7.96921 33.5838 7.53023 28.5618 8.63647C28.8779 9.70759 29.1413 10.8489 29.352 12.0254C30.8094 11.7094 32.0913 11.5689 33.1624 11.5689C36.6989 11.5689 37.0026 12.8542 36.6391 14.273C36.3231 15.4495 35.3749 17.0298 33.8121 18.7858C30.6444 22.2625 25.7576 25.6005 21.3976 27.6181C22.8902 28.3381 24.3125 28.9175 25.647 29.3741C28.5443 27.7164 32.6725 25.2055 36.3055 21.2265C38.2195 19.137 39.5364 17.065 40.0281 15.1861C40.4337 13.6883 40.367 12.2063 39.6067 10.8841ZM25.9631 12.9736C25.7348 11.7269 25.4538 10.5856 25.1553 9.56711C23.9086 9.95342 22.6444 10.4451 21.3976 10.9894C22.8375 11.604 24.2598 12.3064 25.647 13.079L25.9631 12.9736ZM16.8322 29.4794C17.0605 30.7261 17.3414 31.885 17.6399 32.9035C18.8867 32.4996 20.1509 32.0255 21.3976 31.4812C19.9578 30.849 18.5179 30.1467 17.1483 29.3741L16.8322 29.4794ZM11.4942 21.2265C14.5811 18.5803 18.107 16.3591 21.3976 14.8349C19.9051 14.115 18.4828 13.5355 17.1483 13.079C14.251 14.7366 11.6575 16.3924 8.98318 18.7858C6.58458 20.8683 3.57666 24.1712 2.76718 27.2669C1.75576 31.0475 3.88395 34.3785 9.63288 34.3785C11.0552 34.3785 12.6004 34.1853 14.2334 33.8166C13.9174 32.7454 13.654 31.6041 13.4433 30.4276C10.1421 31.13 5.31328 31.4689 6.15613 28.18C6.8269 25.6813 9.57142 22.935 11.4942 21.2265Z" fill="#4DD0E1"/>
<path d="M16.251 24.7542C16.3616 26.3363 16.5442 27.813 16.7795 29.1686C16.9024 29.2371 17.0254 29.3073 17.1483 29.3741H17.15C18.5302 30.1379 19.9578 30.8403 21.3976 31.4636V27.6199C20.4512 27.1668 19.4802 26.6611 18.4898 26.101C17.7084 25.6585 16.9621 25.209 16.251 24.7542ZM11.5012 21.2212C11.4977 21.223 11.4959 21.2248 11.4942 21.2265C10.7286 21.9078 9.8313 22.7542 8.98669 23.6831C10.1667 24.7243 11.4801 25.7516 12.8989 26.7366C12.7426 25.2388 12.6513 23.7024 12.625 22.1607C12.2334 21.8464 11.8576 21.532 11.5012 21.2212ZM17.6364 9.55833C17.3344 10.5803 17.064 11.7199 16.8375 12.9648C17.4924 13.1861 18.1667 13.4354 18.8603 13.7146C19.4714 13.9587 20.0982 14.2291 20.7392 14.5241C20.9569 14.6242 21.1764 14.7278 21.3976 14.8332V10.9894C20.1439 10.4468 18.8814 9.96571 17.6364 9.55833ZM9.63639 8.07983C6.69169 8.07983 4.34927 8.91741 3.1886 10.8876C2.69518 11.7252 2.22108 13.151 2.76542 15.1808C3.26586 17.0491 4.57052 19.1317 6.48098 21.2283C7.31329 20.3134 8.18248 19.4811 8.98494 18.7858C8.98845 18.7823 8.99372 18.7787 8.99723 18.7752C7.42567 17.0298 6.47395 15.4548 6.15788 14.273C5.75402 12.7717 6.193 11.5654 9.63288 11.5654C10.7058 11.5654 11.9876 11.7094 13.4327 12.0184C13.654 10.8331 13.9209 9.69705 14.2317 8.62593C12.6039 8.27299 11.0517 8.07983 9.63639 8.07983Z" fill="#008391"/>
<path d="M21.3976 17.7147C19.4591 17.7147 17.8857 19.288 17.8857 21.2266C17.8857 23.1651 19.4591 24.7385 21.3976 24.7385V17.7147Z" fill="#546D79"/>
<path d="M16.2527 17.6849C15.0183 18.4821 13.7979 19.3548 12.6267 20.2907C12.6214 20.6033 12.6179 20.9141 12.6179 21.2266C12.6179 21.5374 12.6214 21.85 12.6267 22.1608C12.653 23.7007 12.7443 25.2372 12.9006 26.7367C13.0323 28.0028 13.2097 29.2407 13.4327 30.4312C13.4362 30.4312 13.4397 30.4295 13.4432 30.4295C13.6539 31.6059 13.9191 32.7473 14.2334 33.8184C14.2316 33.8184 14.2316 33.8184 14.2299 33.8184C15.675 38.7912 18.0824 42.2978 21.3976 42.2978V38.7859C20.0473 38.7859 18.251 35.8816 17.1447 30.9949C17.0323 30.5085 16.927 30.001 16.8322 29.4795H16.8357C16.8164 29.3759 16.7988 29.2741 16.7812 29.1687C16.5459 27.8131 16.3633 26.3364 16.2527 24.7543C16.1719 23.6305 16.1298 22.4522 16.1298 21.2266C16.1298 19.9957 16.1737 18.814 16.2527 17.6849ZM21.3976 0.155396C18.0841 0.155396 15.6785 3.65848 14.2316 8.62602C13.9208 9.69714 13.6539 10.8332 13.4327 12.0185C13.2097 13.209 13.0323 14.4469 12.9006 15.713C14.1561 14.8491 15.4362 14.0659 16.7795 13.2915C16.797 13.1809 16.8164 13.0738 16.8374 12.9649C17.0639 11.72 17.3361 10.5804 17.6364 9.55842C18.7356 5.82882 20.2334 3.66726 21.3976 3.66726V0.155396Z" fill="#00A4B9"/>
<path d="M17.1483 29.3742L16.8357 29.4795H16.8322C16.9288 30.001 17.0324 30.5085 17.1448 30.9949C17.2993 31.6709 17.4661 32.3101 17.6399 32.9036C18.8867 32.4997 20.1509 32.0256 21.3976 31.4813C19.9578 30.8492 18.5179 30.1468 17.1483 29.3742ZM17.1483 13.0791C17.0254 13.1493 16.9007 13.2196 16.7795 13.2916C15.4362 14.0659 14.1562 14.8491 12.9007 15.713C11.589 16.6156 10.3019 17.6077 8.99723 18.7754C8.99372 18.7789 8.98845 18.7824 8.98494 18.7859C8.18423 19.4812 7.31505 20.3136 6.48098 21.2284C4.81986 23.0528 3.30625 25.2056 2.76718 27.2671C1.75576 31.0476 3.88395 34.3786 9.63288 34.3786C11.0534 34.3786 12.5987 34.1854 14.2299 33.8167H14.2334C13.9174 32.7456 13.654 31.6042 13.4433 30.4277C13.4397 30.4277 13.4362 30.4295 13.4327 30.4295C12.2282 30.6859 10.8199 30.8931 9.56089 30.8931C7.36948 30.8931 5.62232 30.2662 6.15788 28.1801C6.56175 26.6771 7.7154 25.0862 8.98845 23.6832C9.8313 22.7543 10.7268 21.9079 11.4942 21.2266C11.4959 21.2249 11.4977 21.2231 11.5012 21.2214C11.8699 20.9053 12.2457 20.5945 12.6267 20.2907C13.798 19.3566 15.0183 18.4821 16.2528 17.6849C17.9683 16.5769 19.7137 15.6147 21.3976 14.835C21.1764 14.7279 20.9569 14.6243 20.7392 14.5242C20.0982 14.2292 19.4714 13.9606 18.8603 13.7147C18.2756 13.4812 17.7049 13.2687 17.1483 13.0791Z" fill="#43B5C4"/>
</g>
<defs>
<clipPath id="clip0">
<rect width="42.1424" height="42.1424" fill="white" transform="translate(0.326416 0.155396)"/>
</clipPath>
</defs>
</svg>
