<svg width="41" height="41" viewBox="0 0 41 41" fill="none" xmlns="http://www.w3.org/2000/svg">
<g clip-path="url(#clip0)">
<path d="M40.2151 20.27C40.2151 21.477 40.1076 22.6589 39.9023 23.8065C38.2334 33.1407 30.0738 40.2252 20.2598 40.2252C12.8658 40.2252 6.41087 36.204 2.96392 30.2289C2.12252 28.7717 1.46119 27.1989 1.0083 25.5398C0.548939 23.8611 0.304565 22.0936 0.304565 20.27C0.304565 9.24896 9.23883 0.314697 20.2598 0.314697C29.3561 0.314697 37.0303 6.40066 39.4339 14.7232C39.9422 16.4841 40.2151 18.3453 40.2151 20.27Z" fill="#8F9ED1"/>
<path d="M10.4516 14.2085H3.10236L1.0083 25.5398C1.46119 27.199 2.12252 28.7718 2.96392 30.2289H3.64567L4.4569 25.8404H8.49518C13.4123 25.8404 14.7342 21.4258 15.0511 19.2576C15.3688 17.0902 13.7829 14.2085 10.4516 14.2085ZM11.5178 19.6232C11.3378 20.8523 10.4296 23.3553 7.64241 23.3553H4.91626L6.13477 16.7603H8.9098C11.6148 16.7603 11.6978 18.3942 11.5178 19.6232Z" fill="#F2F2F2"/>
<path d="M39.434 14.723C38.8093 14.4005 38.0648 14.2083 37.2047 14.2083H29.8555L26.8948 30.2287H30.3987L31.2099 25.8402H35.2482C37.4352 25.8402 38.911 24.9671 39.9022 23.8064C40.1076 22.6588 40.2151 21.4769 40.2151 20.2698C40.2151 18.3451 39.9423 16.484 39.434 14.723ZM38.2709 19.6231C38.0909 20.8522 37.1827 23.3551 34.3947 23.3551H31.6694L32.8879 16.7601H35.6629C38.3679 16.7601 38.4509 18.394 38.2709 19.6231Z" fill="#F2F2F2"/>
<path d="M24.4098 14.2614C22.9837 14.2614 21.081 14.2614 20.1539 14.2614L20.9527 9.93896H17.4632L14.5024 25.959H17.992L19.6946 16.7464C20.3237 16.7464 21.1593 16.7464 21.9248 16.7464C23.4051 16.7464 24.4098 17.0636 24.1982 18.4383C23.9867 19.8129 22.7707 25.8931 22.7707 25.8931H26.3131C26.3131 25.8931 27.6877 19.1256 27.8992 17.2222C28.1108 15.3188 26.366 14.2614 24.4098 14.2614Z" fill="#F2F2F2"/>
</g>
<defs>
<clipPath id="clip0">
<rect width="39.9105" height="39.9105" fill="white" transform="translate(0.304565 0.314697)"/>
</clipPath>
</defs>
</svg>
