<svg width="39" height="39" viewBox="0 0 39 39" fill="none" xmlns="http://www.w3.org/2000/svg">
<g clip-path="url(#clip0)">
<path d="M38.0846 19.2266C38.0846 20.9305 37.8586 22.582 37.4341 24.1521C36.4423 27.8236 34.3685 31.0507 31.5751 33.4704C28.2712 36.3331 23.9615 38.0646 19.2466 38.0646C8.84264 38.0646 0.408569 29.6306 0.408569 19.2266C0.408569 8.82262 8.84264 0.38855 19.2466 0.38855C29.6506 0.38855 38.0846 8.82262 38.0846 19.2266Z" fill="#0078CF"/>
<path d="M37.4342 24.1521C36.4423 27.8236 34.3686 31.0507 31.5752 33.4704C31.3022 33.485 31.0169 33.492 30.7209 33.492C26.8095 33.492 24.6359 31.0477 23.5555 29.2138L27.1017 27.0832C27.1017 27.0832 28.3081 29.6467 30.5695 29.6467C32.8316 29.6467 33.7365 28.8925 33.7365 27.1586C33.7365 25.0472 26.4227 24.2936 25.2917 20.6744C24.1607 17.0553 25.6685 11.9274 30.947 12.305C34.2455 12.5402 36.1009 14.1603 37.0289 15.3421L33.5104 17.8841C32.7562 15.6981 29.6652 15.6981 29.0615 17.5073C28.4587 19.3173 30.494 20.3722 33.6611 21.4279C35.2882 21.97 36.5968 22.9703 37.4342 24.1521Z" fill="#F2F2F2"/>
<path d="M22.5538 12.8823H6.52405V16.6658H12.3983V33.0938H16.6796V16.6658H22.5538V12.8823Z" fill="#F2F2F2"/>
</g>
<defs>
<clipPath id="clip0">
<rect width="37.6761" height="37.6761" fill="white" transform="translate(0.408569 0.38855)"/>
</clipPath>
</defs>
</svg>
