<svg width="44" height="44" viewBox="0 0 44 44" fill="none" xmlns="http://www.w3.org/2000/svg">
<g clip-path="url(#clip0)">
<path d="M22.6289 4.81675C22.6289 2.84999 17.8454 1.25537 11.9448 1.25537C6.04413 1.25537 1.26062 2.84999 1.26062 4.81675C1.26062 6.78351 6.04413 8.37813 11.9448 8.37813C17.8454 8.37813 22.6289 6.78351 22.6289 4.81675Z" fill="#78B9EB"/>
<path d="M38.299 34.02H35.7952L36.0547 33.7609C37.4779 32.3422 37.7189 30.1226 36.6327 28.432C35.5466 26.7411 33.4278 26.0371 31.5459 26.7421C29.6988 23.7014 25.8832 22.5025 22.6289 23.94C21.2962 24.5249 20.1732 25.5026 19.4101 26.7421C17.5282 26.0371 15.4095 26.7411 14.3233 28.432C13.2372 30.1226 13.4782 32.3422 14.9014 33.7609L15.1608 34.02H12.6571C10.297 34.02 8.38342 35.9335 8.38342 38.2936C8.38342 40.6537 10.297 42.5673 12.6571 42.5673H38.299C40.6591 42.5673 42.5727 40.6537 42.5727 38.2936C42.5727 35.9335 40.6591 34.02 38.299 34.02ZM21.9167 32.5954V31.8831H16.9307V35.4445H21.9167V39.0059H16.9307H21.9167V35.4445H16.9307V31.8831H21.9167V32.5954ZM28.3271 39.0059H24.0535V31.8831H29.0394V39.0059H28.3271L29.7517 40.4305L28.3271 39.0059ZM36.1622 39.0059H31.1762V31.8831V39.0059H36.1622Z" fill="#78B9EB"/>
<path d="M29.0394 31.8833H24.0535V39.0061H28.3271L26.9026 37.5815L28.3271 39.0061H29.0394V31.8833Z" fill="#78B9EB"/>
<path d="M31.8885 31.1709H31.1763C30.7829 31.1709 30.464 31.4898 30.464 31.8832V39.0059C30.464 39.3993 30.7829 39.7182 31.1763 39.7182H36.1622C36.5555 39.7182 36.8745 39.3993 36.8745 39.0059V38.2937H31.8885V31.1709Z" fill="#1A6FB0"/>
<path d="M29.7517 39.0059V31.8832C29.7517 31.4898 29.4327 31.1709 29.0394 31.1709H24.0535C23.6601 31.1709 23.3412 31.4898 23.3412 31.8832V39.0059C23.3412 39.3993 23.6601 39.7182 24.0535 39.7182H28.0322L29.2481 40.9341L30.2553 39.9269L29.6619 39.3335C29.7186 39.2334 29.7492 39.121 29.7517 39.0059ZM24.7657 38.2937V32.5954H28.3271V37.9987L27.4062 37.0778L26.399 38.085L26.6076 38.2937H24.7657Z" fill="#1A6FB0"/>
<path d="M21.9166 31.1709H16.9307C16.5373 31.1709 16.2184 31.4898 16.2184 31.8832V36.1568H21.2043V38.2937H16.2184V39.0059C16.2184 39.3993 16.5373 39.7182 16.9307 39.7182H21.9166C22.3099 39.7182 22.6289 39.3993 22.6289 39.0059V34.7323H17.6429V32.5954H22.6289V31.8832C22.6289 31.4898 22.3099 31.1709 21.9166 31.1709Z" fill="#1A6FB0"/>
<path d="M38.2989 33.3079H37.3088C38.3504 31.5835 38.2492 29.4012 37.0528 27.7801C35.8561 26.1594 33.8006 25.42 31.8457 25.9072C30.3843 23.8417 28.0085 22.6168 25.478 22.6238C24.7549 22.6276 24.036 22.7309 23.3412 22.9302V4.81687C23.3412 2.01054 17.6075 0.543213 11.9447 0.543213C6.28202 0.543213 0.54834 2.01054 0.54834 4.81687V26.1851C0.54834 28.9915 6.28202 30.4588 11.9447 30.4588C12.2797 30.4588 12.6142 30.4518 12.9634 30.4376C12.897 31.4413 13.1352 32.4419 13.6472 33.3079H12.657C9.90322 33.3079 7.6711 35.54 7.6711 38.2938C7.6711 41.0476 9.90322 43.2797 12.657 43.2797H38.2989C41.0528 43.2797 43.2849 41.0476 43.2849 38.2938C43.2849 35.54 41.0528 33.3079 38.2989 33.3079ZM11.9447 1.96776C18.0346 1.96776 21.9166 3.65594 21.9166 4.81687C21.9166 5.97779 18.0346 7.66597 11.9447 7.66597C5.85493 7.66597 1.97289 5.97779 1.97289 4.81687C1.97289 3.65594 5.85493 1.96776 11.9447 1.96776ZM1.97289 6.99647C4.02416 8.37824 7.99871 9.09052 11.9447 9.09052C15.8908 9.09052 19.8653 8.37824 21.9166 6.99647V11.9396C21.9166 13.1005 18.0346 14.7887 11.9447 14.7887C5.85493 14.7887 1.97289 13.1005 1.97289 11.9396V6.99647ZM1.97289 14.1192C4.02416 15.501 7.99871 16.2133 11.9447 16.2133C15.8908 16.2133 19.8653 15.501 21.9166 14.1192V19.0624C21.9166 20.2233 18.0346 21.9115 11.9447 21.9115C5.85493 21.9115 1.97289 20.2233 1.97289 19.0624V14.1192ZM13.2695 28.9988C12.8139 29.02 12.3722 29.0342 11.9447 29.0342C5.85493 29.0342 1.97289 27.3461 1.97289 26.1851V21.242C4.02416 22.6238 7.99871 23.336 11.9447 23.336C15.8908 23.336 19.8653 22.6238 21.9166 21.242V23.4786C20.8002 24.0518 19.8379 24.8847 19.1103 25.9072C16.657 25.2743 14.1257 26.6143 13.2695 28.9988ZM38.2989 41.8552H12.657C10.6903 41.8552 9.09565 40.2606 9.09565 38.2938C9.09565 36.3271 10.6903 34.7324 12.657 34.7324H15.1569C15.4467 34.7342 15.7082 34.5606 15.8191 34.2932C15.9301 34.0261 15.8682 33.7183 15.663 33.5145L15.4063 33.2582C14.2214 32.0764 14.0207 30.2285 14.9246 28.8203C15.8289 27.4121 17.5925 26.8247 19.16 27.4104C19.4782 27.529 19.8361 27.4069 20.0149 27.1183C21.1755 25.212 23.2462 24.0487 25.478 24.0487C27.7098 24.0487 29.7805 25.212 30.9411 27.1183C31.1198 27.4069 31.4777 27.529 31.796 27.4104C33.3634 26.8247 35.1271 27.4121 36.0313 28.8203C36.9353 30.2285 36.7346 32.0764 35.5497 33.2582L35.293 33.5145C35.0878 33.7183 35.0259 34.0261 35.1368 34.2932C35.2478 34.5606 35.5093 34.7342 35.799 34.7324H38.2989C40.2657 34.7324 41.8603 36.3271 41.8603 38.2938C41.8603 40.2606 40.2657 41.8552 38.2989 41.8552Z" fill="#1A6FB0"/>
</g>
<defs>
<clipPath id="clip0">
<rect width="42.7365" height="42.7365" fill="white" transform="translate(0.54834 0.543213)"/>
</clipPath>
</defs>
</svg>
