<svg width="41" height="41" viewBox="0 0 41 41" fill="none" xmlns="http://www.w3.org/2000/svg">
<g clip-path="url(#clip0)">
<path d="M40.3339 20.3169C40.3339 31.3614 31.3805 40.3147 20.3361 40.3147C10.1462 40.3147 1.73646 32.6935 0.496599 22.8399C0.392157 22.0138 0.338257 21.1715 0.338257 20.3169C0.338257 18.7514 0.517846 17.2275 0.8582 15.7655C2.91836 6.9143 10.8571 0.319092 20.3361 0.319092C29.7913 0.319092 37.7145 6.88165 39.7976 15.7003C40.071 16.8536 40.2432 18.0453 40.3061 19.2656C40.3249 19.6141 40.3339 19.9643 40.3339 20.3169Z" fill="#F2F2F2"/>
<path d="M19.3358 21.9228V16.7234L14.833 14.1238L10.3303 16.7234V21.9228L14.833 24.5224L19.3358 21.9228Z" fill="#3B8739"/>
<path d="M37.0689 21.1339L40.0033 22.8284L37.0689 24.5229L32.5665 21.9232V16.7237L37.0689 14.124L39.7976 15.7002C40.071 16.8535 40.2433 18.0452 40.3061 19.2655L38.6377 20.2287V18.4175L37.0689 17.5122L35.5001 18.4175V20.2287L37.0689 21.1339Z" fill="#333333"/>
<path d="M37.9429 19.8279V18.8186L37.0688 18.314L36.1947 18.8186V19.8279L37.0688 20.3326L37.9429 19.8279Z" fill="#66A060"/>
<path d="M8.20349 16.7238V23.5802L5.20053 21.8669V18.3522L3.70117 17.4862L2.20172 18.3522V21.8668L0.496599 22.8399C0.392157 22.0138 0.338257 21.1715 0.338257 20.3169C0.338257 18.7513 0.517846 17.2274 0.8582 15.7655L3.70117 14.124L8.20349 16.7238Z" fill="#333333"/>
<path d="M19.3353 21.9222L14.8326 14.1235L10.3301 16.7231L14.8328 24.5218L19.3353 21.9222Z" fill="#6DA75D"/>
<path d="M10.3303 21.923L11.8764 19.4017L10.3303 16.7236V21.923Z" fill="#55A344"/>
<path d="M17.8347 19.3229L19.3358 16.7234L14.833 14.1238L17.8347 19.3229Z" fill="#639D57"/>
<path d="M27.4096 8.0979V14.9959L25.9004 14.1241L21.3972 16.7238V21.9233L25.9004 24.523L30.4028 21.9233V9.70015L27.4096 8.0979ZM27.4014 20.1896L25.9003 21.0565L24.3992 20.1896V18.4568L25.9003 17.5899L27.4014 18.4568V20.1896Z" fill="#333333"/>
<path d="M22.3787 28.3408C22.3787 28.3408 22.2902 27.5808 21.4773 27.5808C20.6642 27.5808 20.1076 27.6868 20.1076 28.1375C20.1076 28.5882 21.6894 28.5883 22.2904 28.7649C22.8913 28.9416 23.4215 29.4012 23.1564 30.2142C22.8913 31.0273 22.0782 31.1156 20.8234 31.1156C19.5685 31.1156 19.2856 30.0728 19.2856 29.6663H19.9926C19.9926 29.6663 19.9042 30.3026 20.7349 30.4086C21.5655 30.5146 22.3598 30.5743 22.4669 29.9315C22.6083 29.083 19.7804 29.5073 19.533 28.6766C19.3239 27.9747 19.4445 27.0506 20.8585 26.9091C22.2725 26.7677 23.0502 27.392 23.0502 28.3231L22.3787 28.3408Z" fill="#66A060"/>
<path d="M15.5493 31.6539L17.1122 32.5562C17.8975 33.0096 18.8791 32.4429 18.8791 31.5361V29.9549V27.0448H18.2421V31.3589C18.2421 31.8541 17.7061 32.1637 17.2771 31.916L16.1862 31.2862V26.682L20.1735 24.3802L24.1608 26.682V31.2862L20.1735 33.588L19.0249 32.9249L18.2748 33.2274L20.1735 34.3236L24.7978 31.6537V26.3143L20.1735 23.6445L15.5492 26.3145V31.6539H15.5493Z" fill="#66A060"/>
</g>
<defs>
<clipPath id="clip0">
<rect width="39.9956" height="39.9956" fill="white" transform="translate(0.338257 0.319092)"/>
</clipPath>
</defs>
</svg>
