<svg width="39" height="38" viewBox="0 0 39 38" fill="none" xmlns="http://www.w3.org/2000/svg">
<g clip-path="url(#clip0)">
<path d="M38.1736 19C38.1736 21.4754 37.7005 23.84 36.8389 26.0091C36.3782 27.1693 35.8067 28.2736 35.1366 29.3081C34.3022 30.5985 33.3149 31.7812 32.2014 32.8297C31.5491 33.4447 30.8543 34.0131 30.1206 34.5312C27.0264 36.7165 23.2504 38 19.1736 38C15.0967 38 11.3208 36.7165 8.22647 34.5312C7.30823 33.8829 6.45056 33.1562 5.6634 32.3589C2.269 28.9273 0.173584 24.2076 0.173584 19C0.173584 13.7924 2.269 9.07272 5.6634 5.64107C6.4971 4.79735 7.40984 4.03186 8.3893 3.35565C11.4526 1.23923 15.1681 0 19.1736 0C23.1791 0 26.8946 1.23923 29.9579 3.35565C30.7062 3.8714 31.4151 4.44058 32.0796 5.05712C33.2437 6.13351 34.272 7.35493 35.1367 8.69191C35.8067 9.72644 36.3783 10.8307 36.839 11.9909C37.7005 14.16 38.1736 16.5246 38.1736 19Z" fill="#E4BA42"/>
<path d="M29.1968 17.2907C28.6679 15.757 26.4996 15.757 26.0766 17.0262C25.6536 18.2954 27.0814 19.0358 29.3026 19.7763C31.5237 20.5167 32.8988 22.4734 32.6343 24.2185C32.3699 25.9636 31.6295 28.2378 27.2401 28.2378C24.4968 28.2378 22.9722 26.5231 22.2145 25.2372L24.7016 23.7426C24.7016 23.7426 25.5478 25.5407 27.1343 25.5407C28.7209 25.5407 29.3554 25.0119 29.3554 23.7955C29.3554 22.3148 24.2256 21.7859 23.4323 19.2474C22.6391 16.7089 23.6968 13.1128 27.3987 13.3772C29.7124 13.5425 31.0138 14.6786 31.6646 15.5075L29.1968 17.2907Z" fill="#F2F2F2"/>
<path d="M17.6679 13.6417C17.6679 13.6417 17.6679 22.5792 17.6679 23.7956C17.6679 25.0119 16.6102 25.6466 15.5525 25.435C14.4948 25.2235 14.0188 23.9543 14.0188 23.9543L11.5862 25.5937C11.5862 25.5937 12.115 28.0264 15.4467 28.238C18.7785 28.4495 20.6823 26.4399 20.6823 24.7475C20.6823 23.0552 20.6823 13.6417 20.6823 13.6417H17.6679Z" fill="#F2F2F2"/>
<path d="M5.66333 3.35559V32.3589C6.45049 33.1561 7.30817 33.8827 8.2264 34.5311H30.1206C30.8543 34.0131 31.5491 33.4446 32.2014 32.8296H7.36479V5.05706H35.1366V29.308C35.8066 28.2735 36.3782 27.1692 36.8388 26.009V3.35559H5.66333Z" fill="#F2F2F2"/>
<path d="M6.69408 28.1852C8.35889 28.1852 9.70848 26.8356 9.70848 25.1708C9.70848 23.506 8.35889 22.1564 6.69408 22.1564C5.02928 22.1564 3.67969 23.506 3.67969 25.1708C3.67969 26.8356 5.02928 28.1852 6.69408 28.1852Z" fill="#3F4A43"/>
</g>
<defs>
<clipPath id="clip0">
<rect width="38" height="38" fill="white" transform="translate(0.173584)"/>
</clipPath>
</defs>
</svg>
