<svg width="38" height="41" viewBox="0 0 38 41" fill="none" xmlns="http://www.w3.org/2000/svg">
<path d="M14.4209 0.742321C16.6376 0.579327 18.8625 0.668974 21.0819 0.655391C23.0922 0.614643 25.0753 1.00311 27.0421 1.36985C29.2099 1.81808 31.3777 2.42388 33.3255 3.49964C34.1513 3.99134 35.0397 4.52922 35.4825 5.42025C36.0964 6.70518 36.4414 8.10422 36.618 9.51412C37.4167 15.189 36.7212 21.1329 34.3551 26.3731C31.864 31.3662 27.7756 35.4437 23.1031 38.4293C21.8752 39.2225 20.6174 39.9886 19.2537 40.5237C18.7864 40.7166 18.2459 40.7112 17.7949 40.4748C15.2739 39.2198 12.8643 37.7229 10.6992 35.9164C9.91957 35.2563 9.02854 34.7184 8.37113 33.9252C6.71131 31.9339 4.88034 30.0405 3.67418 27.7178C0.800056 22.6297 -0.00404581 16.6071 0.493086 10.8452C0.563717 9.31852 0.903287 7.81354 1.39227 6.36833C1.73184 5.3958 2.25886 4.40154 3.20694 3.90169C6.60265 1.91588 10.5362 1.07374 14.4209 0.742321ZM5.51059 5.90108C4.86404 6.21349 4.25281 6.69975 4.05451 7.42236C3.16075 10.3535 3.14174 13.4613 3.30202 16.4957C3.65245 19.8968 4.41581 23.336 6.18429 26.2998C9.0883 31.1869 13.4837 35.1993 18.637 37.6061C20.3648 36.8564 21.9404 35.8023 23.4807 34.7239C27.4306 31.6596 30.9295 27.7477 32.6138 22.9693C34.1513 18.3294 34.4936 13.2766 33.5021 8.48725C33.3119 7.76736 33.2223 6.90621 32.5785 6.43353C31.6412 5.74895 30.5519 5.30887 29.4653 4.93398C25.6322 3.67621 21.5546 3.44802 17.5477 3.51322C13.4511 3.65448 9.22957 4.04567 5.51059 5.90108Z" fill="#80C265"/>
<path d="M15.4424 9.57653C16.3633 8.24541 17.6999 7.28103 18.6534 5.97437C18.7512 6.24059 18.8381 6.50953 18.9169 6.78119C18.9087 8.55239 18.7376 10.3209 18.8028 12.0948C18.9169 15.0368 18.7566 17.9789 18.8327 20.9209C18.7974 21.8907 19.0147 23.1675 17.9797 23.7C17.8683 22.7329 17.8384 21.7169 17.3467 20.8476C16.6757 19.5762 16.1433 18.2397 15.5864 16.9167C15.092 15.7622 15.1653 14.4799 14.9969 13.2602C14.4997 13.1651 14.0108 13.032 13.5381 12.8581C14.0597 11.7036 14.6682 10.5844 15.4424 9.57653Z" fill="#80C265"/>
<path d="M18.5773 29.2661C18.9658 29.9018 19.3325 30.551 19.6857 31.2057C19.2456 32.4526 19.3814 33.7865 19.3679 35.0796C19.05 34.9465 18.466 34.9302 18.4986 34.4548C18.4442 33.3817 18.2921 32.3223 18.0585 31.2737C18.178 30.5918 18.3709 29.9262 18.5773 29.2661Z" fill="#80C265"/>
<path d="M5.51056 5.90106C9.22954 4.04564 13.4511 3.65446 17.5477 3.5132C21.5546 3.448 25.6322 3.67619 29.4652 4.93396C30.5519 5.30885 31.6412 5.74893 32.5784 6.43351C33.2223 6.90619 33.3119 7.76734 33.5021 8.48723C34.4936 13.2765 34.1513 18.3294 32.6137 22.9692C30.9295 27.7477 27.4305 31.6595 23.4806 34.7238C21.9404 35.8023 20.3647 36.8563 18.637 37.6061C13.4837 35.1992 9.08827 31.1869 6.18426 26.2998C4.41578 23.336 3.65242 19.8968 3.30199 16.4957C3.14171 13.4613 3.16072 10.3535 4.05448 7.42234C4.25278 6.69973 4.86401 6.21346 5.51056 5.90106ZM15.4423 9.57657C14.6681 10.5844 14.0596 11.7036 13.538 12.8582C12.3971 15.2759 11.9706 17.9898 12.0548 20.6493C12.2585 24.5639 14.3964 28.128 17.2162 30.7495C17.4743 30.956 17.7704 31.1108 18.0584 31.2738C18.292 32.3224 18.4441 33.3818 18.4985 34.4549C18.4659 34.9303 19.0499 34.9466 19.3678 35.0797C19.3813 33.7866 19.2455 32.4528 19.6856 31.2059C22.5135 29.0299 24.5727 25.8135 25.0916 22.2548C25.6294 18.7694 24.8036 15.17 23.1058 12.1084C22.0381 10.0954 20.3892 8.48995 18.9168 6.78123C18.838 6.50957 18.7511 6.24063 18.6533 5.97441C17.6998 7.28108 16.3632 8.24546 15.4423 9.57657Z" fill="#402F1D"/>
<path d="M18.9168 6.78125C20.3892 8.48997 22.0381 10.0955 23.1057 12.1084C24.8036 15.17 25.6294 18.7695 25.0915 22.2548C24.5727 25.8135 22.5135 29.0299 19.6856 31.2059C19.3324 30.5512 18.9657 29.902 18.5772 29.2663C18.3708 29.9264 18.1779 30.592 18.0584 31.2738C17.7704 31.1108 17.4743 30.956 17.2162 30.7495C14.3964 28.128 12.2585 24.5639 12.0547 20.6493C11.9705 17.9898 12.397 15.276 13.538 12.8582C14.0107 13.0321 14.4996 13.1652 14.9968 13.2603C15.1652 14.48 15.0919 15.7622 15.5863 16.9168C16.1432 18.2397 16.6756 19.5763 17.3466 20.8476C17.8383 21.7169 17.8682 22.7329 17.9796 23.7C19.0146 23.1676 18.7973 21.8908 18.8326 20.921C18.7565 17.9789 18.9168 15.0369 18.8027 12.0949C18.7375 10.3209 18.9086 8.55245 18.9168 6.78125Z" fill="#589D4B"/>
</svg>
