<svg width="32" height="32" viewBox="0 0 32 32" fill="none" xmlns="http://www.w3.org/2000/svg">
<g clip-path="url(#clip0)">
<path d="M22.3809 10.9845L14.5182 17.4113L14.1483 17.7143C14.067 17.7788 14.0139 17.8723 14.0003 17.9751L13.9175 18.6586L13.6902 20.5789C13.6923 20.6023 13.685 20.6255 13.67 20.6435C13.655 20.6616 13.6334 20.6729 13.61 20.675C13.5867 20.6771 13.5634 20.6698 13.5454 20.6548C13.5274 20.6397 13.5161 20.6182 13.514 20.5948L12.8745 18.6745L12.2139 16.7101C12.1857 16.6221 12.1893 16.527 12.2241 16.4413C12.2588 16.3557 12.3226 16.285 12.4041 16.2415L20.5857 11.5518L22.1254 10.6709C22.3492 10.5405 22.5782 10.8224 22.3809 10.9845Z" fill="black"/>
<path d="M16.1567 0C13.0904 0 10.093 0.909256 7.54348 2.61279C4.99397 4.31632 3.00686 6.73761 1.83345 9.57048C0.660038 12.4033 0.353019 15.5206 0.95122 18.5279C1.54942 21.5353 3.02597 24.2977 5.19416 26.4659C7.36234 28.6341 10.1248 30.1106 13.1321 30.7088C16.1395 31.307 19.2567 31 22.0896 29.8266C24.9224 28.6532 27.3437 26.6661 29.0473 24.1166C30.7508 21.5671 31.66 18.5696 31.66 15.5034C31.66 11.3916 30.0267 7.44827 27.1192 4.54083C24.2118 1.63339 20.2684 0 16.1567 0V0ZM25.8269 8.97433L22.8002 22.3477C22.6575 22.9749 21.8612 23.2586 21.3027 22.8763L16.7328 19.7756L14.4055 21.976C14.3106 22.0651 14.1954 22.1296 14.0699 22.1641C13.9444 22.1985 13.8124 22.2018 13.6854 22.1737C13.5583 22.1456 13.44 22.0869 13.3408 22.0027C13.2416 21.9185 13.1644 21.8114 13.1159 21.6906L12.2756 19.2242L11.4352 16.7577L6.93043 15.5245C6.80447 15.497 6.69113 15.4287 6.60803 15.3301C6.52492 15.2315 6.47671 15.1083 6.47088 14.9795C6.46505 14.8507 6.50194 14.7236 6.57581 14.6179C6.64967 14.5123 6.75638 14.434 6.87934 14.3952L24.2819 8.12517L24.6025 8.01066C25.2772 7.77458 25.9749 8.32072 25.8269 8.97433Z" fill="black"/>
</g>
<defs>
<clipPath id="clip0">
<rect width="31.0067" height="31.0067" fill="white" transform="translate(0.65332)"/>
</clipPath>
</defs>
</svg>
