<svg width="32" height="32" viewBox="0 0 32 32" fill="none" xmlns="http://www.w3.org/2000/svg">
<g clip-path="url(#clip0)">
<path d="M22.1126 11.3807L14.2499 17.8076L13.88 18.1106C13.7987 18.175 13.7456 18.2685 13.732 18.3713L13.6492 19.0549L13.4219 20.9752C13.424 20.9985 13.4167 21.0218 13.4017 21.0398C13.3867 21.0578 13.3651 21.0691 13.3417 21.0712C13.3184 21.0733 13.2951 21.066 13.2771 21.051C13.2591 21.036 13.2478 21.0144 13.2457 20.991L12.6062 19.0707L11.9456 17.1064C11.9174 17.0184 11.921 16.9232 11.9557 16.8376C11.9905 16.7519 12.0542 16.6812 12.1358 16.6378L20.3174 11.948L21.8571 11.0671C22.0809 10.9368 22.3099 11.2186 22.1126 11.3807Z" fill="url(#paint0_linear)"/>
<path d="M15.8884 0.395996C12.8221 0.395996 9.82469 1.30525 7.27517 3.00878C4.72566 4.71231 2.73855 7.13361 1.56514 9.96648C0.391727 12.7993 0.0847089 15.9166 0.682909 18.9239C1.28111 21.9313 2.75766 24.6937 4.92585 26.8619C7.09403 29.0301 9.85646 30.5066 12.8638 31.1048C15.8712 31.703 18.9884 31.396 21.8213 30.2226C24.6541 29.0492 27.0754 27.0621 28.7789 24.5126C30.4825 21.963 31.3917 18.9656 31.3917 15.8994C31.3917 11.7876 29.7584 7.84427 26.8509 4.93683C23.9435 2.02938 20.0001 0.395996 15.8884 0.395996V0.395996ZM25.5586 9.37033L22.5319 22.7437C22.3892 23.3709 21.5929 23.6546 21.0344 23.2723L16.4645 20.1716L14.1372 22.372C14.0423 22.4611 13.9271 22.5256 13.8016 22.56C13.6761 22.5945 13.5441 22.5978 13.4171 22.5697C13.29 22.5416 13.1717 22.4829 13.0725 22.3987C12.9733 22.3145 12.8961 22.2074 12.8476 22.0866L12.0073 19.6202L11.1669 17.1537L6.66212 15.9205C6.53616 15.893 6.42282 15.8247 6.33972 15.7261C6.25661 15.6275 6.2084 15.5043 6.20257 15.3755C6.19674 15.2467 6.23363 15.1196 6.3075 15.0139C6.38136 14.9083 6.48807 14.83 6.61102 14.7912L24.0135 8.52117L24.3342 8.40665C25.0089 8.17058 25.7066 8.71672 25.5586 9.37033Z" fill="url(#paint1_linear)"/>
</g>
<defs>
<linearGradient id="paint0_linear" x1="17.0572" y1="11.0337" x2="17.0572" y2="21.0716" gradientUnits="userSpaceOnUse">
<stop stop-color="#8200FF"/>
<stop offset="1" stop-color="#B338DE"/>
<stop offset="1" stop-color="#B338DE"/>
</linearGradient>
<linearGradient id="paint1_linear" x1="15.8884" y1="0.395996" x2="15.8884" y2="31.4027" gradientUnits="userSpaceOnUse">
<stop stop-color="#8200FF"/>
<stop offset="1" stop-color="#B338DE"/>
<stop offset="1" stop-color="#B338DE"/>
</linearGradient>
<clipPath id="clip0">
<rect width="31.0067" height="31.0067" fill="white" transform="translate(0.38501 0.395996)"/>
</clipPath>
</defs>
</svg>
