<svg width="42" height="41" viewBox="0 0 42 41" fill="none" xmlns="http://www.w3.org/2000/svg">
<g clip-path="url(#clip0)">
<path d="M18.4858 1.25077C22.2923 0.791128 26.243 1.3923 29.6883 3.09471C33.6228 4.98583 36.8901 8.23025 38.8096 12.1513C40.4891 15.5252 41.1051 19.395 40.6603 23.1314C40.2141 26.9406 38.5872 30.5962 36.0827 33.4996C33.6403 36.3531 30.3716 38.4828 26.7754 39.5679C23.2668 40.626 19.4684 40.6934 15.9207 39.7795C12.4107 38.8669 9.15281 36.9745 6.64435 34.3501C3.60211 31.2337 1.65708 27.066 1.24192 22.7297C0.82272 18.5917 1.74065 14.3255 3.89057 10.7576C6.95302 5.56948 12.4997 1.94898 18.4858 1.25077ZM19.157 2.18891C16.2482 2.46658 13.4068 3.42495 10.9348 4.98448C7.48545 7.13305 4.76806 10.4327 3.34062 14.2392C1.86466 18.1334 1.76626 22.5316 3.06295 26.4891C4.40008 30.6231 7.24687 34.2369 10.9334 36.5337C14.2614 38.6338 18.2634 39.6379 22.1885 39.3751C26.4007 39.1203 30.5064 37.3937 33.6295 34.5536C36.3968 32.0735 38.3958 28.7455 39.2679 25.1317C40.2707 21.0138 39.8205 16.5442 37.9536 12.7323C36.2876 9.2358 33.4826 6.30409 30.0899 4.44127C26.7835 2.61081 22.9163 1.82093 19.157 2.18891Z" fill="black"/>
<path d="M11.827 13.2891C12.598 12.2445 13.892 11.673 15.1753 11.6608C16.9976 11.6029 18.6744 12.4278 20.2919 13.1624C21.7787 13.8323 23.229 14.6761 24.86 14.9376C25.5151 15.0468 26.2847 15.0077 26.7633 14.4861C27.4453 13.7663 27.5113 12.7014 27.5545 11.7633C28.3147 11.7606 29.0763 11.7633 29.8378 11.7606C29.9228 13.1948 29.7394 14.7381 28.8983 15.9432C28.1583 17.0174 26.836 17.5795 25.5542 17.5728C23.5579 17.6173 21.7221 16.7155 19.9428 15.9243C18.6151 15.3043 17.3292 14.5117 15.8654 14.261C15.1672 14.1437 14.3584 14.23 13.8543 14.7799C13.1871 15.493 13.0968 16.5282 13.0442 17.4569C12.2719 17.4569 11.5008 17.4569 10.7285 17.4569C10.6746 16.0065 10.9253 14.4672 11.827 13.2891Z" fill="black"/>
<path d="M19.2864 17.349C20.265 17.69 21.2408 18.0351 22.2194 18.3775C22.2194 23.1477 22.2194 27.918 22.2194 32.6882C21.2422 32.6882 20.265 32.6882 19.2877 32.6882C19.2864 27.5756 19.2891 22.4616 19.2864 17.349Z" fill="black"/>
</g>
<defs>
<clipPath id="clip0">
<rect width="40.4374" height="40.4374" fill="white" transform="translate(0.754028 0.473145)"/>
</clipPath>
</defs>
</svg>
