<svg width="360" height="148" viewBox="0 0 360 148" fill="none" xmlns="http://www.w3.org/2000/svg">
<path d="M351.867 129.455H11.1859V130.712H351.867V129.455Z" fill="url(#paint0_linear)"/>
<path d="M303.543 39.6431V116.647C303.543 123.719 296.501 129.376 287.917 129.376H75.136C66.455 129.376 59.5102 123.64 59.5102 116.647V39.6431C59.5102 32.5713 66.5515 26.9139 75.136 26.9139H287.82C296.598 26.9139 303.543 32.6499 303.543 39.6431Z" fill="#6514FD"/>
<path d="M301.035 40.4289V115.94C301.035 122.226 294.765 127.412 286.952 127.412H76.1005C68.3841 127.412 62.018 122.305 62.018 115.94V40.4289C62.018 34.1429 68.2876 28.9569 76.1005 28.9569H287.049C294.765 28.9569 301.035 34.0643 301.035 40.4289Z" fill="url(#paint1_radial)"/>
<path d="M68.577 70.9162V85.5313C68.577 86.0028 68.0947 86.3171 67.6124 86.3171C67.0337 86.3171 66.6479 85.9242 66.6479 85.5313V70.9162C66.6479 70.4448 67.1302 70.1305 67.6124 70.1305C68.1912 70.0519 68.577 70.4448 68.577 70.9162Z" fill="#320C54"/>
<path opacity="0.21" d="M247.309 110.44H318.976V51.6652L233.516 51.9795V110.44H247.309Z" fill="#EC35FB"/>
<path opacity="0.21" d="M112.561 110.125H40.7979V51.3508L126.354 51.6651V110.125H112.561Z" fill="#EC35FB"/>
<path d="M191.944 80.1095C191.558 77.1237 188.568 74.6878 184.902 74.3735C183.166 74.2164 181.623 74.4521 180.273 75.0021C177.765 76.0236 174.967 76.7308 172.074 76.7308C171.109 76.7308 170.338 76.1022 170.338 75.3164V51.6652H141.208C140.243 51.6652 139.472 52.2938 139.472 53.0795C139.472 55.4368 140.34 57.6369 141.594 59.7585C142.269 60.8585 142.655 62.1943 142.365 63.5301C141.883 66.516 138.893 68.8732 135.324 69.2661C130.405 69.7376 126.354 66.5945 126.354 62.7443C126.354 61.6443 126.74 60.5442 127.318 59.6013C128.669 57.6369 129.344 55.3582 129.344 53.0795C129.344 52.2938 128.572 51.6652 127.608 51.6652H98.4782V106.747C98.4782 108.632 100.311 110.125 102.626 110.125H170.338V86.3956C170.338 85.6098 171.109 84.9812 172.074 84.9812C174.871 84.9812 177.572 85.5312 180.08 86.6313C181.237 87.1028 182.491 87.4171 183.938 87.4171C188.664 87.4956 192.522 84.1169 191.944 80.1095Z" fill="url(#paint2_radial)"/>
<path d="M238.628 51.9794C237.664 51.9794 236.892 51.3508 236.892 50.5651C236.892 48.2864 237.567 46.0863 238.918 44.0433C239.496 43.1004 239.882 42.0789 239.882 40.9003C239.882 37.0501 235.735 33.9071 230.912 34.3785C227.246 34.6928 224.256 37.1287 223.87 40.1145C223.678 41.5289 223.967 42.7861 224.642 43.8862C225.896 45.9291 226.764 48.2078 226.764 50.5651C226.764 51.3508 225.993 51.9794 225.028 51.9794H195.898V75.7093C195.898 76.495 196.67 77.1236 197.635 77.1236C200.528 77.1236 203.229 76.4165 205.833 75.395C207.184 74.8449 208.823 74.5306 210.463 74.7664C214.128 75.1592 217.022 77.5951 217.504 80.5024C218.083 84.5097 214.225 87.8099 209.499 87.8099C208.148 87.8099 206.798 87.4956 205.64 87.0242C203.229 85.9241 200.432 85.3741 197.635 85.3741C196.67 85.3741 195.898 86.0027 195.898 86.7884V110.518H263.514C265.829 110.518 267.661 109.025 267.661 107.139V51.9794H238.628Z" fill="url(#paint3_radial)"/>
<path d="M122.399 13.9489C123.171 13.7132 127.222 11.7488 125.968 8.37003C124.811 4.99128 119.988 6.40564 118.541 6.95567C117.191 7.5057 117.577 7.66285 114.586 8.29146C111.5 8.92006 110.632 8.52718 106.388 9.23436C102.144 9.94154 99.5394 9.78439 99.5394 9.78439C103.301 7.58428 105.52 3.57692 104.748 1.69111C103.976 -0.194705 99.8288 0.119597 98.189 1.37681C96.5493 2.63402 92.7875 5.30559 90.9549 5.61989C89.1222 5.93419 85.1675 7.26998 85.1675 7.26998C85.1675 7.26998 84.8782 5.46274 82.5632 5.06986C80.3448 4.75556 78.4157 6.01277 77.644 7.03425C76.8724 8.05573 73.8822 8.92006 73.8822 8.92006C72.4354 10.0987 71.8567 10.963 69.3488 11.7488C68.0949 12.1417 66.1658 12.1417 63.7544 12.9274C56.5202 15.2061 58.2565 17.1705 55.9415 18.2706C53.723 19.3706 50.1542 21.335 50.1542 21.335C41.859 30.8426 28.934 40.4289 18.9026 47.2649C30.0914 53.4724 39.6405 67.1446 41.1838 79.8738C41.2803 80.6596 41.3767 81.4453 41.3767 82.1525C50.3471 79.4809 58.6423 79.9524 64.719 78.6166C73.3035 76.7308 85.264 67.3017 85.264 67.3017C90.6655 66.2017 91.2442 65.8874 94.1379 64.6301C96.9351 63.3729 109.474 60.7014 112.85 60.4656C116.226 60.2299 119.892 59.6799 121.145 57.9512C122.978 55.2797 120.76 52.2152 120.76 52.2152C120.76 52.2152 121.821 52.3724 123.653 50.958C125.486 49.5436 123.943 46.4792 120.47 41.9218C116.901 37.2858 115.455 28.7997 112.657 27.2282C109.86 25.6567 101.565 21.4136 101.565 21.4136C106.291 20.7064 114.104 17.7205 116.419 17.0133C118.638 16.149 121.628 14.1846 122.399 13.9489ZM103.108 37.3644C103.783 40.586 107.352 44.0433 108.124 44.7505C108.896 45.4577 110.15 47.5792 110.15 47.5792C109.474 47.5007 106.87 47.8936 106.87 47.8936C100.504 49.2293 97.8032 48.915 95.006 48.365C92.2088 47.8936 86.9038 43.729 88.9293 41.6075C90.9549 39.486 91.4372 34.3786 91.4372 34.3786C92.1123 34.85 95.6812 34.3786 95.6812 34.3786C96.6458 36.1858 103.108 37.3644 103.108 37.3644Z" fill="url(#paint4_radial)"/>
<path d="M64.4295 76.1807C69.6381 74.6878 80.8269 67.9303 85.2639 67.3017C85.2639 67.3017 73.3034 76.7308 64.7189 78.6166C60.089 79.6381 54.3017 79.6381 47.7427 80.6595L50.4434 77.2808C50.4434 77.2808 59.2209 77.6737 64.4295 76.1807Z" fill="#B14BFA"/>
<path d="M96.6456 35.3215C96.1633 35.0072 95.7775 34.7715 95.5846 34.4572C95.5846 34.4572 95.3917 34.4572 95.0059 34.5357C98.3818 33.75 100.214 30.4498 100.214 30.4498C100.504 32.8856 96.6456 35.3215 96.6456 35.3215Z" fill="#9B67E8"/>
<path d="M91.3406 34.4571C91.3406 34.4571 91.2442 35.1642 91.0512 36.1071C90.1831 33.4356 91.3406 29.7425 91.3406 29.7425C91.1477 31.3926 92.3052 34.6142 92.3052 34.6142C91.9193 34.6142 91.5335 34.5356 91.3406 34.4571Z" fill="#9B67E8"/>
<path d="M103.398 38.386C103.301 38.0717 103.205 37.6788 103.108 37.3645C103.108 37.3645 102.53 37.2859 101.758 37.0502C101.758 37.0502 107.256 36.9716 111.018 34.3786C111.018 34.3786 108.799 37.0502 103.398 38.386Z" fill="#9B67E8"/>
<g opacity="0.52">
<g opacity="0.52">
<g opacity="0.52">
<path opacity="0.52" d="M109.185 47.5793C108.606 47.6583 108.124 47.7374 107.738 47.7374C108.22 47.7374 108.703 47.6583 109.185 47.5793Z" fill="#A261E2"/>
</g>
</g>
</g>
<path d="M108.799 45.5362C108.799 45.5362 119.216 48.365 120.663 52.058C118.252 49.465 114.586 47.7364 110.535 47.5006H110.149C109.957 47.2649 109.378 46.322 108.799 45.5362Z" fill="#9B67E8"/>
<path d="M104.362 20.6278C104.362 20.6278 88.0611 15.5204 86.2285 15.0489L101.468 21.1778L104.362 20.6278Z" fill="#9B67E8"/>
<path d="M102.915 7.1129C102.047 8.13438 100.986 9.07729 99.7322 9.78447C99.7322 9.78447 100.89 9.86304 102.915 9.70589L96.6456 10.3345C100.407 9.54874 102.337 7.66293 102.915 7.1129Z" fill="#9B67E8"/>
<path d="M84.3957 7.74134C85.3602 7.34846 84.878 6.40556 84.7815 6.16984C85.1673 6.71986 85.2638 7.26989 85.2638 7.26989C85.2638 7.26989 86.1319 6.95559 87.1929 6.64129C86.3248 6.95559 84.3957 7.74134 84.3957 7.74134Z" fill="#9B67E8"/>
<path d="M120.663 52.1366C120.663 52.1366 115.358 46.5577 106.484 47.9721C106.484 47.9721 110.246 47.1077 111.693 47.1863C112.464 47.1863 114.683 48.0506 116.515 48.915C118.059 49.7007 119.216 50.4865 119.216 50.4865L120.663 52.1366Z" fill="#9B67E8"/>
<path d="M44.7524 51.9794C44.7524 51.9794 58.9314 64.9444 54.0122 77.6736L47.839 77.5951L44.7524 51.9794Z" fill="#B14BFA"/>
<path d="M29.609 39.8788C24.7862 38.0716 20.5422 38.3073 17.4556 40.0359L10.5108 44.0433C11.8612 44.279 13.2116 44.6719 14.6584 45.1434C27.5834 49.9365 39.4475 65.4159 41.1837 79.7166C41.6659 83.4097 41.3766 86.6313 40.5085 89.3814L47.5497 85.2955C51.6973 82.7811 53.9158 77.5165 53.0477 70.3661C51.5044 57.794 40.9908 44.1219 29.609 39.8788Z" fill="white"/>
<path d="M-44.2759 72.4091C-44.1795 72.4091 -44.1795 72.3306 -44.1795 72.3306L0.865276 45.3791C4.43413 43.4147 9.16045 43.179 14.6584 45.1434C27.5835 49.9365 39.4475 65.4159 41.1837 79.7167C42.1482 87.81 39.6404 93.7817 35.0105 96.6104L-9.64838 123.326L-9.74483 123.405L-10.1307 123.64C-13.6995 125.605 -18.4258 125.762 -23.8273 123.798C-36.7524 119.004 -48.6164 103.525 -50.3526 89.2243C-51.3172 81.2096 -48.9058 75.3164 -44.2759 72.4091Z" fill="url(#paint5_linear)"/>
<path d="M249.817 13.9489C249.045 13.7131 244.994 11.7488 246.248 8.37001C247.406 4.99126 252.228 6.40562 253.675 6.95565C255.026 7.50568 254.64 7.66283 257.63 8.29143C260.716 8.92004 261.585 8.52716 265.829 9.23434C270.073 9.94152 272.677 9.78437 272.677 9.78437C268.915 7.58425 266.697 3.5769 267.468 1.69109C268.24 -0.194728 272.388 0.119574 274.027 1.37678C275.667 2.63399 279.429 5.30556 281.261 5.61986C283.094 5.93416 287.049 7.26995 287.049 7.26995C287.049 7.26995 287.338 5.46271 289.653 5.06983C291.872 4.75553 293.801 6.01274 294.572 7.03422C295.344 8.0557 298.334 8.92004 298.334 8.92004C299.781 10.0987 300.36 10.963 302.867 11.7488C304.121 12.1416 306.051 12.1416 308.462 12.9274C315.696 15.2061 313.96 17.1705 316.275 18.2705C318.493 19.3706 322.062 21.335 322.062 21.335C330.357 30.8426 343.282 40.4288 353.314 47.2649C342.125 53.4724 332.576 67.1445 331.032 79.8737C330.936 80.6595 330.84 81.4453 330.84 82.1524C321.869 79.4809 313.574 79.9523 307.497 78.6165C298.913 76.7307 286.952 67.3017 286.952 67.3017C281.551 66.2016 280.972 65.8873 278.078 64.6301C275.281 63.3729 262.742 60.7013 259.366 60.4656C255.99 60.2299 252.325 59.6798 251.071 57.9512C249.238 55.2796 251.457 52.2152 251.457 52.2152C251.457 52.2152 250.396 52.3723 248.563 50.958C246.73 49.5436 248.274 46.4791 251.746 41.9218C255.315 37.2858 256.762 28.7996 259.559 27.2281C262.356 25.6566 270.651 21.4135 270.651 21.4135C265.925 20.7064 258.112 17.7205 255.797 17.0133C253.579 16.149 250.685 14.1846 249.817 13.9489ZM269.108 37.3644C268.433 40.586 264.864 44.0433 264.092 44.7505C263.321 45.4577 262.067 47.5792 262.067 47.5792C262.742 47.5006 265.346 47.8935 265.346 47.8935C271.712 49.2293 274.413 48.915 277.21 48.365C280.007 47.8935 285.313 43.729 283.287 41.6075C281.261 39.4859 280.779 34.3785 280.779 34.3785C280.104 34.85 276.535 34.3785 276.535 34.3785C275.667 36.1857 269.108 37.3644 269.108 37.3644Z" fill="url(#paint6_radial)"/>
<path d="M307.883 76.1807C302.675 74.6877 291.486 67.9302 287.049 67.3016C287.049 67.3016 299.009 76.7307 307.594 78.6165C312.224 79.638 318.011 79.638 324.57 80.6595L321.869 77.2807C321.869 77.2807 312.995 77.6736 307.883 76.1807Z" fill="#B14BFA"/>
<path d="M275.571 35.3215C276.053 35.0072 276.439 34.7714 276.632 34.4571C276.632 34.4571 276.825 34.4571 277.21 34.5357C273.834 33.75 272.002 30.4498 272.002 30.4498C271.809 32.8856 275.571 35.3215 275.571 35.3215Z" fill="#9B67E8"/>
<path d="M280.972 34.457C280.972 34.457 281.069 35.1642 281.261 36.1071C282.13 33.4356 280.972 29.7425 280.972 29.7425C281.165 31.3926 280.008 34.6142 280.008 34.6142C280.393 34.6142 280.779 34.5356 280.972 34.457Z" fill="#9B67E8"/>
<path d="M268.819 38.3859C268.915 38.0716 269.012 37.6787 269.108 37.3644C269.108 37.3644 269.687 37.2859 270.459 37.0501C270.459 37.0501 264.961 36.9716 261.199 34.3786C261.199 34.3786 263.514 37.0501 268.819 38.3859Z" fill="#9B67E8"/>
<g opacity="0.52">
<g opacity="0.52">
<g opacity="0.52">
<path opacity="0.52" d="M263.031 47.5792C263.61 47.6583 264.092 47.7373 264.478 47.7373C264.092 47.7373 263.514 47.6583 263.031 47.5792Z" fill="#A261E2"/>
</g>
</g>
</g>
<path d="M263.417 45.5362C263.417 45.5362 253 48.3649 251.553 52.058C253.965 49.465 257.63 47.7363 261.681 47.5006H262.067C262.26 47.2649 262.838 46.322 263.417 45.5362Z" fill="#9B67E8"/>
<path d="M267.854 20.6278C267.854 20.6278 284.155 15.5204 285.988 15.0489L270.748 21.1778L267.854 20.6278Z" fill="#9B67E8"/>
<path d="M269.397 7.11289C270.265 8.13436 271.326 9.07726 272.58 9.78443C272.58 9.78443 271.423 9.86301 269.397 9.70586L275.667 10.3345C271.905 9.54871 269.88 7.66292 269.397 7.11289Z" fill="#9B67E8"/>
<path d="M287.917 7.74132C286.952 7.34844 287.435 6.40553 287.531 6.1698C287.145 6.71983 287.049 7.26986 287.049 7.26986C287.049 7.26986 286.181 6.95556 285.12 6.64125C285.891 6.95556 287.917 7.74132 287.917 7.74132Z" fill="#9B67E8"/>
<path d="M251.553 52.1365C251.553 52.1365 256.858 46.5577 265.732 47.9721C265.732 47.9721 261.97 47.1077 260.524 47.1863C259.752 47.1863 257.533 48.0506 255.701 48.915C254.157 49.7007 253 50.4865 253 50.4865L251.553 52.1365Z" fill="#9B67E8"/>
<path d="M327.464 51.9794C327.464 51.9794 313.285 64.9444 318.204 77.6737L324.377 77.5951L327.464 51.9794Z" fill="#B14BFA"/>
<path d="M342.704 39.8788C347.526 38.0715 351.77 38.3073 354.857 40.0359L361.802 44.0433C360.451 44.279 359.101 44.6719 357.654 45.1433C344.729 49.9365 332.865 65.4159 331.129 79.7166C330.647 83.4097 330.936 86.6313 331.804 89.3814L324.763 85.2955C320.615 82.7811 318.397 77.5165 319.265 70.3661C320.808 57.794 331.225 44.1219 342.704 39.8788Z" fill="white"/>
<path d="M416.589 72.4092C416.492 72.4092 416.492 72.3306 416.492 72.3306L371.447 45.3792C367.879 43.4148 363.152 43.179 357.654 45.1434C344.729 49.9365 332.865 65.4159 331.129 79.7167C330.164 87.81 332.672 93.7817 337.302 96.6104L381.961 123.326L382.057 123.405L382.443 123.64C386.012 125.605 390.738 125.762 396.14 123.798C409.065 119.004 420.929 103.525 422.665 89.2243C423.533 81.2096 421.122 75.3165 416.589 72.4092Z" fill="url(#paint7_linear)"/>
<path d="M33.4419 4.68793L31.3958 6.35476L33.4419 8.02158L35.488 6.35476L33.4419 4.68793Z" fill="#E044E0"/>
<path d="M37.4275 1.50944L35.3813 3.17625L37.4275 4.84307L39.4736 3.17625L37.4275 1.50944Z" fill="#E044E0"/>
<path d="M37.0316 7.55529L34.9855 9.22211L37.0316 10.8889L39.0777 9.22211L37.0316 7.55529Z" fill="#E044E0"/>
<path d="M40.879 4.37505L38.8329 6.04186L40.879 7.70868L42.9251 6.04186L40.879 4.37505Z" fill="#E044E0"/>
<path d="M257.051 138.491H248.467V140.22H257.051V138.491Z" fill="#EC35FB"/>
<path opacity="0.6" d="M270.362 138.491H261.777V140.22H270.362V138.491Z" fill="#EC35FB"/>
<path opacity="0.4" d="M283.673 138.491H275.088V140.22H283.673V138.491Z" fill="#EC35FB"/>
<path opacity="0.2" d="M296.984 138.491H288.399V140.22H296.984V138.491Z" fill="#EC35FB"/>
<path opacity="0.9" d="M122.11 19.8422H118.734V22.5924H122.11V19.8422Z" fill="#FC2FFD"/>
<path d="M132.238 19.8421H128.862V22.5922H132.238V19.8421Z" fill="#FC2FFD"/>
<path opacity="0.8" d="M139.086 19.8421H135.71V22.5922H139.086V19.8421Z" fill="#FC2FFD"/>
<path opacity="0.7" d="M128.862 19.8421H125.486V22.5922H128.862V19.8421Z" fill="#FC2FFD"/>
<path opacity="0.6" d="M145.838 19.8421H142.462V22.5922H145.838V19.8421Z" fill="#FC2FFD"/>
<path opacity="0.4" d="M135.71 19.8421H132.334V22.5922H135.71V19.8421Z" fill="#FC2FFD"/>
<path opacity="0.3" d="M152.59 19.8421H149.214V22.5922H152.59V19.8421Z" fill="#FC2FFD"/>
<path opacity="0.2" d="M142.462 19.8421H139.086V22.5922H142.462V19.8421Z" fill="#FC2FFD"/>
<path opacity="0.1" d="M159.438 19.8421H156.062V22.5922H159.438V19.8421Z" fill="#FC2FFD"/>
<path d="M176.8 14.7346V10.0986L181.623 12.4559L176.8 14.7346Z" fill="#F953FC"/>
<path d="M188.568 10.0986V14.7346L183.745 12.4559L188.568 10.0986Z" fill="#F953FC"/>
<path opacity="0.3" d="M185.095 138.884C185.095 137.863 186.06 137.077 187.314 137.077C188.568 137.077 189.532 137.863 189.532 138.884C189.532 139.906 188.568 140.691 187.314 140.691C186.06 140.691 185.095 139.906 185.095 138.884Z" fill="#FC2FFD"/>
<path d="M175.064 138.884C175.064 137.863 176.028 137.077 177.282 137.077C178.536 137.077 179.501 137.863 179.501 138.884C179.501 139.906 178.536 140.691 177.282 140.691C176.028 140.691 175.064 139.906 175.064 138.884Z" fill="#FC2FFD"/>
<path opacity="0.3" d="M180.08 145.249C180.08 144.227 181.044 143.442 182.298 143.442C183.552 143.442 184.517 144.227 184.517 145.249C184.517 146.27 183.552 147.056 182.298 147.056C181.044 147.056 180.08 146.192 180.08 145.249Z" fill="#FC2FFD"/>
<defs>
<linearGradient id="paint0_linear" x1="11.2088" y1="130.058" x2="351.862" y2="130.058" gradientUnits="userSpaceOnUse">
<stop stop-color="#2D0244"/>
<stop offset="0.3433" stop-color="#53A5F8"/>
<stop offset="0.3807" stop-color="#6ABDFA"/>
<stop offset="0.4236" stop-color="#7DD2FC"/>
<stop offset="0.4663" stop-color="#88DEFE"/>
<stop offset="0.5079" stop-color="#8CE2FE"/>
<stop offset="0.5578" stop-color="#79CEFC"/>
<stop offset="0.6687" stop-color="#53A5F8"/>
<stop offset="0.7337" stop-color="#497CCA"/>
<stop offset="0.8246" stop-color="#3D4891"/>
<stop offset="0.9025" stop-color="#342267"/>
<stop offset="0.9635" stop-color="#2F0B4E"/>
<stop offset="1" stop-color="#2D0244"/>
</linearGradient>
<radialGradient id="paint1_radial" cx="0" cy="0" r="1" gradientUnits="userSpaceOnUse" gradientTransform="translate(101.601 45.1804) rotate(-90) scale(159.647 195.975)">
<stop stop-color="#3E068D"/>
<stop offset="1" stop-color="#F953FC"/>
</radialGradient>
<radialGradient id="paint2_radial" cx="0" cy="0" r="1" gradientUnits="userSpaceOnUse" gradientTransform="translate(177.215 26.9361) scale(98.274 80.0569)">
<stop stop-color="#86E1FE"/>
<stop offset="0.2434" stop-color="#AFAFFD"/>
<stop offset="0.4738" stop-color="#CF87FD"/>
<stop offset="0.6837" stop-color="#E66BFC"/>
<stop offset="0.8659" stop-color="#F459FC"/>
<stop offset="1" stop-color="#F953FC"/>
</radialGradient>
<radialGradient id="paint3_radial" cx="0" cy="0" r="1" gradientUnits="userSpaceOnUse" gradientTransform="translate(205.763 47.7585) scale(84.6384 68.949)">
<stop stop-color="#417EE6"/>
<stop offset="1" stop-color="#FE4DFE"/>
</radialGradient>
<radialGradient id="paint4_radial" cx="0" cy="0" r="1" gradientUnits="userSpaceOnUse" gradientTransform="translate(113.431 32.0625) scale(87.6424 71.3961)">
<stop stop-color="#E0DBFF"/>
<stop offset="0.2033" stop-color="#DFD8FF"/>
<stop offset="0.3558" stop-color="#DCCEFF"/>
<stop offset="0.4917" stop-color="#D7BEFE"/>
<stop offset="0.618" stop-color="#D0A7FD"/>
<stop offset="0.7376" stop-color="#C78AFC"/>
<stop offset="0.8507" stop-color="#BC66FB"/>
<stop offset="0.9411" stop-color="#B144FA"/>
</radialGradient>
<linearGradient id="paint5_linear" x1="53.033" y1="48.3608" x2="4.81076" y2="93.9997" gradientUnits="userSpaceOnUse">
<stop stop-color="#3874DA"/>
<stop offset="1" stop-color="#C819D3"/>
</linearGradient>
<radialGradient id="paint6_radial" cx="0" cy="0" r="1" gradientUnits="userSpaceOnUse" gradientTransform="translate(258.84 32.0624) rotate(180) scale(87.6424 71.3961)">
<stop stop-color="#E0DBFF"/>
<stop offset="0.2033" stop-color="#DFD8FF"/>
<stop offset="0.3558" stop-color="#DCCEFF"/>
<stop offset="0.4917" stop-color="#D7BEFE"/>
<stop offset="0.618" stop-color="#D0A7FD"/>
<stop offset="0.7376" stop-color="#C78AFC"/>
<stop offset="0.8507" stop-color="#BC66FB"/>
<stop offset="0.9411" stop-color="#B144FA"/>
</radialGradient>
<linearGradient id="paint7_linear" x1="319.238" y1="48.3608" x2="367.46" y2="93.9997" gradientUnits="userSpaceOnUse">
<stop stop-color="#3874DA"/>
<stop offset="1" stop-color="#C819D3"/>
</linearGradient>
</defs>
</svg>
