<svg width="59" height="61" viewBox="0 0 59 61" fill="none" xmlns="http://www.w3.org/2000/svg">
<g clip-path="url(#clip0)">
<path d="M26.2568 4.09143H55.6314V5.82378H26.2568V4.09143Z" fill="url(#paint0_linear)"/>
<path d="M11.5113 56.5468C12.9442 56.5468 14.1101 55.3809 14.1101 53.9481C14.1101 52.5152 12.9442 51.3493 11.5113 51.3493C10.0785 51.3493 8.9126 52.5152 8.9126 53.9481C8.9126 55.3809 10.0785 56.5468 11.5113 56.5468ZM11.5113 53.0817C11.989 53.0817 12.3777 53.4704 12.3777 53.9481C12.3777 54.4257 11.989 54.8145 11.5113 54.8145C11.0337 54.8145 10.6454 54.4257 10.6454 53.9481C10.6454 53.4704 11.0337 53.0817 11.5113 53.0817Z" fill="url(#paint1_linear)"/>
<path d="M55.689 28.1342H36.6318V40.2615H55.689V28.1342ZM53.9567 38.5291H38.3646V29.8665H53.9567V38.5291Z" fill="url(#paint2_linear)"/>
<path d="M59.1542 49.0008V0.876587H11.2226V20.0492H2.65649C1.22361 20.0492 0.0577393 21.2151 0.0577393 22.648V57.2977C0.0577393 58.7305 1.22361 59.896 2.65649 59.896H19.9813C21.4142 59.896 22.5801 58.7305 22.5801 57.2977V40.2615H33.745V28.1341H22.5801V26.4018H55.6891V10.8093H14.6873V20.0492H12.955V9.03861H57.4219V47.2684H36.2927L24.6475 51.9076L36.2927 56.5467H57.4219V59.992H59.1542V54.8144H38.4157L41.0555 51.9076L38.4157 49.0008H59.1542ZM20.8473 57.2977C20.8473 57.7753 20.459 58.1636 19.9813 58.1636H2.65649C2.17886 58.1636 1.79009 57.7753 1.79009 57.2977V49.7323H20.8473V57.2977ZM11.5113 38.6351C13.783 38.6351 15.6308 40.4829 15.6308 42.7542V48H7.3917V42.7542C7.3917 40.4829 9.23995 38.6351 11.5113 38.6351ZM8.88365 34.3036C8.88365 32.8707 10.0495 31.7048 11.4824 31.7048C12.9153 31.7048 14.0812 32.8707 14.0812 34.3036C14.0812 35.7364 12.9153 36.9023 11.4824 36.9023C10.0495 36.9023 8.88365 35.7364 8.88365 34.3036ZM20.8473 48H17.3632V42.7542C17.3632 40.5303 16.1161 38.5923 14.2846 37.6027C15.2191 36.8076 15.8135 35.6241 15.8135 34.3036C15.8135 31.9154 13.8705 29.9725 11.4824 29.9725C9.09428 29.9725 7.1513 31.9154 7.1513 34.3036C7.1513 35.6345 7.75521 36.827 8.7028 37.6221C6.89062 38.6175 5.65935 40.5447 5.65935 42.7542V48H1.79009V28.596H20.8473V48ZM32.0122 29.8665V38.5291H22.5796V29.8665H32.0122ZM16.4197 12.5421H53.9563V24.6694H22.5801V22.648C22.5801 21.2151 21.4142 20.0492 19.9813 20.0492H16.4197V12.5421ZM19.9813 21.7816C20.459 21.7816 20.8473 22.1704 20.8473 22.648V26.8636H1.79009V22.648C1.79009 22.1704 2.17886 21.7816 2.65649 21.7816H19.9813ZM32.1276 53.0225L29.3286 51.9076L32.1276 50.7927V53.0225ZM38.7151 51.9076L36.2215 54.6534L33.86 53.7126V50.1022L36.2215 49.1618L38.7151 51.9076ZM57.4219 7.30581H12.955V2.60894H57.4219V7.30581Z" fill="url(#paint3_linear)"/>
<path d="M5.15912 23.4567H6.89147V25.189H5.15912V23.4567Z" fill="url(#paint4_linear)"/>
<path d="M8.62396 23.4567H17.8639V25.189H8.62396V23.4567Z" fill="url(#paint5_linear)"/>
<path d="M18.3834 4.09143H20.1162V5.82378H18.3834V4.09143Z" fill="url(#paint6_linear)"/>
<path d="M21.8485 4.09143H23.5809V5.82378H21.8485V4.09143Z" fill="url(#paint7_linear)"/>
<path d="M14.9186 4.09143H16.651V5.82378H14.9186V4.09143Z" fill="url(#paint8_linear)"/>
<path d="M40.6937 14.4283H52.0511V16.1611H40.6937V14.4283Z" fill="url(#paint9_linear)"/>
<path d="M35.1881 17.8547H48.586V19.5875H35.1881V17.8547Z" fill="url(#paint10_linear)"/>
<path d="M50.3184 17.8547H52.0512V19.5875H50.3184V17.8547Z" fill="url(#paint11_linear)"/>
<path d="M37.4984 21.3198H52.0513V23.0522H37.4984V21.3198Z" fill="url(#paint12_linear)"/>
<path d="M30.5685 21.3198H32.3008V23.0522H30.5685V21.3198Z" fill="url(#paint13_linear)"/>
<path d="M34.0337 21.3198H35.766V23.0522H34.0337V21.3198Z" fill="url(#paint14_linear)"/>
<path d="M50.4727 42.1094H52.205V43.8422H50.4727V42.1094Z" fill="url(#paint15_linear)"/>
<path d="M40.0777 42.1094H41.81V43.8422H40.0777V42.1094Z" fill="url(#paint16_linear)"/>
<path d="M43.5428 42.1094H45.2751V43.8422H43.5428V42.1094Z" fill="url(#paint17_linear)"/>
<path d="M47.0074 42.1094H48.7402V43.8422H47.0074V42.1094Z" fill="url(#paint18_linear)"/>
</g>
<defs>
<linearGradient id="paint0_linear" x1="40.9441" y1="4.09143" x2="40.9441" y2="5.82378" gradientUnits="userSpaceOnUse">
<stop stop-color="#8200FF"/>
<stop offset="1" stop-color="#B338DE"/>
<stop offset="1" stop-color="#B338DE"/>
</linearGradient>
<linearGradient id="paint1_linear" x1="11.5113" y1="51.3493" x2="11.5113" y2="56.5468" gradientUnits="userSpaceOnUse">
<stop stop-color="#8200FF"/>
<stop offset="1" stop-color="#B338DE"/>
<stop offset="1" stop-color="#B338DE"/>
</linearGradient>
<linearGradient id="paint2_linear" x1="46.1604" y1="28.1342" x2="46.1604" y2="40.2615" gradientUnits="userSpaceOnUse">
<stop stop-color="#8200FF"/>
<stop offset="1" stop-color="#B338DE"/>
<stop offset="1" stop-color="#B338DE"/>
</linearGradient>
<linearGradient id="paint3_linear" x1="29.606" y1="0.876587" x2="29.606" y2="59.992" gradientUnits="userSpaceOnUse">
<stop stop-color="#8200FF"/>
<stop offset="1" stop-color="#B338DE"/>
<stop offset="1" stop-color="#B338DE"/>
</linearGradient>
<linearGradient id="paint4_linear" x1="6.02529" y1="23.4567" x2="6.02529" y2="25.189" gradientUnits="userSpaceOnUse">
<stop stop-color="#8200FF"/>
<stop offset="1" stop-color="#B338DE"/>
<stop offset="1" stop-color="#B338DE"/>
</linearGradient>
<linearGradient id="paint5_linear" x1="13.2439" y1="23.4567" x2="13.2439" y2="25.189" gradientUnits="userSpaceOnUse">
<stop stop-color="#8200FF"/>
<stop offset="1" stop-color="#B338DE"/>
<stop offset="1" stop-color="#B338DE"/>
</linearGradient>
<linearGradient id="paint6_linear" x1="19.2498" y1="4.09143" x2="19.2498" y2="5.82378" gradientUnits="userSpaceOnUse">
<stop stop-color="#8200FF"/>
<stop offset="1" stop-color="#B338DE"/>
<stop offset="1" stop-color="#B338DE"/>
</linearGradient>
<linearGradient id="paint7_linear" x1="22.7147" y1="4.09143" x2="22.7147" y2="5.82378" gradientUnits="userSpaceOnUse">
<stop stop-color="#8200FF"/>
<stop offset="1" stop-color="#B338DE"/>
<stop offset="1" stop-color="#B338DE"/>
</linearGradient>
<linearGradient id="paint8_linear" x1="15.7848" y1="4.09143" x2="15.7848" y2="5.82378" gradientUnits="userSpaceOnUse">
<stop stop-color="#8200FF"/>
<stop offset="1" stop-color="#B338DE"/>
<stop offset="1" stop-color="#B338DE"/>
</linearGradient>
<linearGradient id="paint9_linear" x1="46.3724" y1="14.4283" x2="46.3724" y2="16.1611" gradientUnits="userSpaceOnUse">
<stop stop-color="#8200FF"/>
<stop offset="1" stop-color="#B338DE"/>
<stop offset="1" stop-color="#B338DE"/>
</linearGradient>
<linearGradient id="paint10_linear" x1="41.887" y1="17.8547" x2="41.887" y2="19.5875" gradientUnits="userSpaceOnUse">
<stop stop-color="#8200FF"/>
<stop offset="1" stop-color="#B338DE"/>
<stop offset="1" stop-color="#B338DE"/>
</linearGradient>
<linearGradient id="paint11_linear" x1="51.1848" y1="17.8547" x2="51.1848" y2="19.5875" gradientUnits="userSpaceOnUse">
<stop stop-color="#8200FF"/>
<stop offset="1" stop-color="#B338DE"/>
<stop offset="1" stop-color="#B338DE"/>
</linearGradient>
<linearGradient id="paint12_linear" x1="44.7748" y1="21.3198" x2="44.7748" y2="23.0522" gradientUnits="userSpaceOnUse">
<stop stop-color="#8200FF"/>
<stop offset="1" stop-color="#B338DE"/>
<stop offset="1" stop-color="#B338DE"/>
</linearGradient>
<linearGradient id="paint13_linear" x1="31.4347" y1="21.3198" x2="31.4347" y2="23.0522" gradientUnits="userSpaceOnUse">
<stop stop-color="#8200FF"/>
<stop offset="1" stop-color="#B338DE"/>
<stop offset="1" stop-color="#B338DE"/>
</linearGradient>
<linearGradient id="paint14_linear" x1="34.8999" y1="21.3198" x2="34.8999" y2="23.0522" gradientUnits="userSpaceOnUse">
<stop stop-color="#8200FF"/>
<stop offset="1" stop-color="#B338DE"/>
<stop offset="1" stop-color="#B338DE"/>
</linearGradient>
<linearGradient id="paint15_linear" x1="51.3388" y1="42.1094" x2="51.3388" y2="43.8422" gradientUnits="userSpaceOnUse">
<stop stop-color="#8200FF"/>
<stop offset="1" stop-color="#B338DE"/>
<stop offset="1" stop-color="#B338DE"/>
</linearGradient>
<linearGradient id="paint16_linear" x1="40.9439" y1="42.1094" x2="40.9439" y2="43.8422" gradientUnits="userSpaceOnUse">
<stop stop-color="#8200FF"/>
<stop offset="1" stop-color="#B338DE"/>
<stop offset="1" stop-color="#B338DE"/>
</linearGradient>
<linearGradient id="paint17_linear" x1="44.409" y1="42.1094" x2="44.409" y2="43.8422" gradientUnits="userSpaceOnUse">
<stop stop-color="#8200FF"/>
<stop offset="1" stop-color="#B338DE"/>
<stop offset="1" stop-color="#B338DE"/>
</linearGradient>
<linearGradient id="paint18_linear" x1="47.8738" y1="42.1094" x2="47.8738" y2="43.8422" gradientUnits="userSpaceOnUse">
<stop stop-color="#8200FF"/>
<stop offset="1" stop-color="#B338DE"/>
<stop offset="1" stop-color="#B338DE"/>
</linearGradient>
<clipPath id="clip0">
<rect width="59" height="59.1154" fill="white" transform="translate(0 0.992188)"/>
</clipPath>
</defs>
</svg>
