<svg width="244" height="396" viewBox="0 0 244 396" fill="none" xmlns="http://www.w3.org/2000/svg">
<!--<circle cx="198" cy="198" r="165" transform="rotate(76.9592 198 198)" fill="url(#paint0_radial)"/>-->
<path d="M139.045 219.056L112.218 235.549C107.625 238.372 101.403 236.718 98.3184 231.854L82.5517 206.975C79.4673 202.11 80.6912 195.876 85.2863 193.051L112.113 176.557C116.706 173.734 122.928 175.388 126.012 180.253L141.779 205.131C144.861 209.998 143.637 216.233 139.045 219.056Z" fill="#A800FF"/>
<path d="M115.185 219.412C114.178 218.813 113.308 218.156 112.487 217.432C112.155 217.137 111.839 216.822 111.502 216.527C111.362 216.405 111.36 216.31 111.468 216.163C112.318 215.015 112.85 213.725 113.118 212.322C113.228 211.748 113.271 211.171 113.251 210.591C113.238 210.326 113.318 210.174 113.548 210.034C114.957 209.174 116.359 208.298 117.761 207.421C118.233 207.126 118.191 207.235 117.952 206.753C117.159 205.151 116.246 203.618 115.231 202.145C114.871 201.621 114.476 201.122 114.11 200.602C113.973 200.412 113.865 200.529 113.748 200.602C112.734 201.233 111.719 201.865 110.705 202.496C110.365 202.708 110.024 202.92 109.681 203.134C109.584 203.194 109.498 203.241 109.377 203.157C108.438 202.493 107.41 202.027 106.285 201.729C106.346 201.564 106.482 201.524 106.586 201.461C108.261 200.415 109.943 199.373 111.62 198.33C111.96 198.117 111.963 198.115 111.669 197.832C110.58 196.772 109.447 195.769 108.12 195.013C107.557 194.695 106.983 194.396 106.327 194.301C105.488 194.179 105.011 194.516 104.823 195.346C104.594 196.369 104.692 197.387 104.858 198.404C105.016 199.384 105.261 200.346 105.584 201.287C105.684 201.575 105.605 201.601 105.34 201.558C104.464 201.42 103.585 201.397 102.708 201.541C102.463 201.581 102.384 201.497 102.326 201.276C102.042 200.199 101.805 199.109 101.711 197.996C101.706 197.923 101.721 197.841 101.638 197.765C101.043 198.542 100.555 199.37 100.15 200.25C99.8152 200.972 99.5462 201.716 99.3495 202.484C99.3141 202.627 99.2726 202.749 99.1298 202.84C97.8008 203.669 96.7379 204.76 95.9606 206.127C95.9458 206.154 95.9155 206.171 95.8452 206.246C95.8521 205.845 95.8477 205.494 95.8673 205.148C96.1071 201.162 97.5316 197.655 100.219 194.703C102.774 191.899 105.952 190.158 109.693 189.508C113.546 188.839 117.204 189.476 120.639 191.33C122.798 192.494 124.598 194.085 126.059 196.065C127.748 198.361 128.788 200.916 129.161 203.734C129.606 207.108 129.078 210.336 127.579 213.398C126.077 216.462 123.822 218.826 120.88 220.532C119.139 221.543 117.257 222.19 115.266 222.517C115.126 222.539 115.045 222.52 114.964 222.391C114.445 221.557 113.924 220.725 113.391 219.9C113.242 219.668 113.352 219.658 113.544 219.642C114.067 219.602 114.586 219.555 115.185 219.412ZM119.138 197.252C118.399 197.713 117.668 198.18 116.918 198.627C116.683 198.766 116.632 198.869 116.808 199.104C117.223 199.657 117.63 200.216 118.011 200.792C118.966 202.235 119.859 203.714 120.64 205.258C120.75 205.476 120.84 205.515 121.063 205.376C122.562 204.427 124.071 203.493 125.579 202.564C125.749 202.458 125.791 202.361 125.737 202.168C125.008 199.728 123.715 197.644 121.857 195.908C121.697 195.758 121.585 195.719 121.378 195.85C120.643 196.329 119.887 196.785 119.138 197.252ZM116.294 211.931L116.292 211.928C115.343 212.518 114.397 213.106 113.449 213.696C113.317 213.779 113.168 213.824 113.37 214.024C114.289 214.937 115.25 215.796 116.326 216.519C117.04 216.998 117.787 217.429 118.631 217.632C119.578 217.861 120.11 217.531 120.34 216.592C120.481 216.022 120.483 215.444 120.448 214.862C120.356 213.293 119.949 211.791 119.452 210.306C119.373 210.066 119.306 210.037 119.094 210.172C118.176 210.77 117.234 211.347 116.294 211.931ZM123.5 214.191C125.369 211.696 126.28 208.901 126.269 205.776C126.193 205.8 126.16 205.801 126.135 205.819C124.835 206.624 123.54 207.43 122.236 208.23C122.08 208.326 122.069 208.431 122.128 208.588C122.309 209.089 122.489 209.595 122.649 210.102C123.059 211.433 123.363 212.787 123.5 214.191ZM118.819 193.853C117.159 192.589 111.573 191.794 110.053 192.592C110.437 192.847 110.823 193.087 111.192 193.356C112.351 194.19 113.415 195.137 114.375 196.194C114.568 196.404 114.712 196.423 114.956 196.26C115.587 195.842 116.241 195.457 116.886 195.054C117.527 194.657 118.169 194.261 118.819 193.853Z" fill="white"/>
<path d="M108.181 221.385C107.569 220.397 106.939 219.422 106.351 218.421C106.162 218.102 105.99 218.024 105.618 218.107C103.003 218.687 100.67 218.058 98.6847 216.292C95.2266 213.216 95.2818 207.775 98.7613 204.709C101.876 201.965 106.53 202.118 109.463 205.063C112.221 207.835 112.456 212.358 109.984 215.383C109.752 215.666 109.744 215.841 109.94 216.146C111.193 218.089 112.431 220.039 113.651 222.001C114.587 223.5 113.7 225.29 111.991 225.369C111.248 225.403 110.637 225.113 110.211 224.496C109.857 223.981 109.528 223.449 109.19 222.922C108.861 222.402 108.54 221.881 108.216 221.356C108.207 221.367 108.196 221.375 108.181 221.385ZM100.923 212.394C101.946 214.03 104.123 214.555 105.728 213.554C107.406 212.506 107.936 210.326 106.907 208.668C105.888 207.025 103.681 206.517 102.037 207.554C100.394 208.586 99.8971 210.747 100.923 212.394Z" fill="white"/>
<path d="M103.466 219.973C104.3 219.973 105.119 219.928 105.926 219.745C106.032 219.721 106.092 219.759 106.146 219.844C106.557 220.505 106.967 221.166 107.413 221.883C105.977 221.431 104.677 220.805 103.466 219.973Z" fill="white"/>
<path d="M145.668 137.543L134.225 142.405C132.266 143.237 129.933 142.224 129.015 140.143L124.323 129.501C123.406 127.42 124.25 125.059 126.207 124.228L137.654 119.368C139.613 118.536 141.945 119.548 142.863 121.629L147.556 132.272C148.472 134.349 147.628 136.711 145.668 137.543Z" fill="#C14DFC"/>
<path d="M133.503 125.323C129.881 126.89 127.859 130.283 128.992 132.912C129.526 134.151 130.665 134.998 132.098 135.384C132.778 135.567 132.963 138.819 133.308 139.109C133.308 139.109 135.459 135.511 136.06 135.364C136.59 135.234 137.109 135.059 137.61 134.843C141.235 133.28 143.254 129.883 142.121 127.253C140.988 124.623 137.131 123.759 133.503 125.323ZM133.096 132.514C132.931 132.584 132.749 132.604 132.573 132.571C132.397 132.538 132.234 132.453 132.106 132.328C131.978 132.202 131.89 132.042 131.854 131.866C131.817 131.691 131.833 131.508 131.9 131.342C131.967 131.176 132.082 131.033 132.23 130.932C132.378 130.831 132.553 130.776 132.732 130.775C132.911 130.773 133.087 130.824 133.237 130.923C133.387 131.021 133.504 131.161 133.574 131.326C133.668 131.547 133.67 131.796 133.581 132.019C133.491 132.242 133.317 132.42 133.096 132.514ZM136.238 131.159C136.074 131.23 135.892 131.251 135.716 131.218C135.54 131.186 135.377 131.102 135.249 130.977C135.12 130.852 135.032 130.692 134.994 130.517C134.957 130.342 134.972 130.159 135.038 129.993C135.104 129.826 135.218 129.683 135.366 129.582C135.513 129.48 135.688 129.424 135.867 129.422C136.046 129.419 136.222 129.47 136.372 129.567C136.523 129.664 136.641 129.804 136.712 129.969C136.759 130.078 136.784 130.195 136.786 130.314C136.788 130.433 136.766 130.551 136.722 130.662C136.678 130.773 136.613 130.874 136.53 130.959C136.447 131.044 136.348 131.112 136.238 131.159ZM139.478 129.763C139.313 129.834 139.132 129.854 138.955 129.822C138.779 129.789 138.617 129.705 138.488 129.58C138.36 129.455 138.271 129.295 138.234 129.12C138.196 128.945 138.211 128.763 138.278 128.596C138.344 128.43 138.458 128.286 138.605 128.185C138.753 128.083 138.927 128.027 139.106 128.025C139.286 128.022 139.461 128.073 139.612 128.17C139.762 128.268 139.88 128.407 139.951 128.572C139.999 128.681 140.024 128.799 140.025 128.919C140.027 129.038 140.005 129.157 139.961 129.268C139.916 129.379 139.85 129.48 139.767 129.565C139.683 129.65 139.583 129.718 139.473 129.765L139.478 129.763Z" fill="white"/>
<path d="M197.367 183.437L179.895 193.573C176.902 195.312 172.94 194.15 171.043 190.977L161.335 174.769C159.436 171.6 160.323 167.62 163.315 165.886L180.788 155.753C183.782 154.014 187.744 155.176 189.641 158.349L199.349 174.557C201.246 177.722 200.359 181.702 197.367 183.437Z" fill="#C917C0"/>
<path d="M165.855 173.423C165.967 173.399 166.042 173.466 166.125 173.502C169.588 175.073 173.517 175.277 177.125 174.073C178.671 173.566 180.165 172.909 181.585 172.114C181.752 172.031 181.716 171.949 181.643 171.827C180.835 170.411 180.035 168.996 179.227 167.58L179.079 167.319C179.199 167.344 179.279 167.358 179.356 167.382C183.392 168.492 187.429 169.601 191.468 170.709C191.673 170.765 191.69 170.83 191.621 171.019C190.503 175.048 189.391 179.077 188.286 183.107C188.268 183.186 188.239 183.261 188.214 183.351C188.141 183.297 188.086 183.223 188.055 183.137C187.279 181.771 186.499 180.404 185.724 179.033C185.64 178.863 185.562 178.806 185.354 178.885C183.603 179.577 181.753 179.986 179.873 180.097C177.006 180.243 174.156 179.58 171.648 178.185C169.483 176.971 167.547 175.388 165.928 173.507C165.902 173.481 165.878 173.453 165.855 173.423Z" fill="white"/>
<path d="M225.81 102.217L202.972 121.878C199.062 125.246 192.931 124.629 189.278 120.502L170.596 99.3952C166.944 95.2673 167.152 89.1912 171.063 85.8236L193.9 66.1621C197.811 62.7945 203.942 63.4111 207.595 67.539L226.277 88.6454C229.929 92.7733 229.72 98.8494 225.81 102.217Z" fill="#FF00FF"/>
<path d="M201.725 91.19C203.195 90.509 204.7 90.0768 206.27 89.8704C208.389 89.5892 210.477 89.7279 212.515 90.3886C213.942 90.8505 215.246 91.5544 216.399 92.5218C217.242 93.2298 217.44 94.176 217.335 95.2183C217.197 96.5971 216.651 97.8383 216.029 99.0513C215.222 100.63 214.202 102.066 213.05 103.407C211.968 104.671 210.777 105.83 209.513 106.914C208.602 107.696 207.654 108.438 206.666 109.12C204.793 110.412 202.806 111.483 200.627 112.164C199.532 112.506 198.42 112.774 197.26 112.72C196.641 112.691 196.046 112.572 195.515 112.23C195.096 111.96 194.799 111.578 194.559 111.154C193.253 108.856 192.766 106.384 192.99 103.76C193.186 101.475 193.873 99.3432 195.014 97.3569C195.089 97.2275 195.16 97.0919 195.246 96.9687C195.342 96.8285 195.307 96.7959 195.145 96.772C193.616 96.5492 192.201 96.0085 190.849 95.2705C189.622 94.5979 188.495 93.7912 187.495 92.8137C186.345 91.695 185.598 90.3417 185.216 88.7814C184.915 87.5582 184.854 86.3283 185.091 85.0935C185.437 83.2691 186.312 81.7575 187.857 80.6891C189.149 79.7956 190.602 79.4389 192.166 79.4905C193.912 79.5475 195.506 80.0888 196.938 81.076C197.75 81.634 198.417 82.3444 198.99 83.1517C200.115 84.7492 200.906 86.4966 201.382 88.3848C201.594 89.2354 201.714 90.1009 201.721 90.9799C201.718 91.0355 201.722 91.0989 201.725 91.19Z" fill="white"/>
<path d="M251.364 195.501L236.795 207.61C234.3 209.683 230.454 209.227 228.201 206.593L216.69 193.121C214.44 190.486 214.638 186.669 217.132 184.596L231.702 172.487C234.196 170.414 238.043 170.87 240.296 173.504L251.807 186.976C254.057 189.611 253.859 193.428 251.364 195.501Z" fill="#7A12B3"/>
<path d="M239.02 197.878C238.563 198.104 238.105 198.33 237.648 198.556C237.632 198.551 237.614 198.541 237.603 198.546C237.245 198.71 236.864 198.807 236.483 198.905C235.583 199.138 234.671 199.209 233.75 199.141C232.759 199.071 231.809 198.828 230.893 198.442C230.26 198.176 229.668 197.841 229.112 197.439C228.595 197.067 228.126 196.638 227.705 196.161C227.321 195.726 226.964 195.261 226.69 194.753C226.33 194.085 226 193.405 225.796 192.664C225.587 191.898 225.464 191.123 225.454 190.334C225.444 189.545 225.539 188.77 225.743 188.005C225.928 187.312 226.174 186.646 226.51 186.015C226.878 185.319 227.333 184.681 227.874 184.111C228.333 183.63 228.835 183.199 229.391 182.83C229.512 182.751 229.663 182.715 229.748 182.585C230.206 182.359 230.663 182.133 231.121 181.906C231.14 181.926 231.161 181.922 231.183 181.914C231.425 181.798 231.684 181.729 231.941 181.65C232.714 181.418 233.501 181.311 234.303 181.302C235.087 181.295 235.856 181.389 236.617 181.592C237.186 181.743 237.742 181.934 238.272 182.189C239.021 182.553 239.709 183.01 240.333 183.567C241.028 184.19 241.622 184.898 242.079 185.71C242.448 186.37 242.771 187.056 242.975 187.798C243.184 188.563 243.307 189.338 243.317 190.127C243.327 190.916 243.232 191.692 243.028 192.456C242.844 193.15 242.597 193.815 242.261 194.446C241.893 195.142 241.438 195.78 240.897 196.351C240.438 196.831 239.936 197.262 239.38 197.631C239.259 197.71 239.105 197.747 239.02 197.878ZM228.488 189.569C228.651 189.833 228.8 190.107 228.979 190.364C229.408 190.981 229.9 191.542 230.477 192.03C231.214 192.658 232.031 193.146 232.929 193.495C233.645 193.772 234.389 193.941 235.156 194.011C236.72 194.155 238.207 193.878 239.621 193.198C239.834 193.096 240.001 192.929 240.077 192.686C240.171 192.383 240.279 192.082 240.382 191.777C240.431 191.633 240.439 191.485 240.42 191.335C240.319 190.559 239.485 190.148 238.823 190.277C238.464 190.347 238.107 190.427 237.745 190.492C237.217 190.587 236.85 190.86 236.695 191.388C236.658 191.511 236.606 191.628 236.576 191.753C236.546 191.882 236.464 191.932 236.346 191.952C235.429 192.096 234.534 192.018 233.661 191.679C232.971 191.409 232.375 191.007 231.85 190.486C231.714 190.348 231.647 190.219 231.743 190.031C231.793 189.935 231.812 189.822 231.852 189.72C232.037 189.238 231.914 188.818 231.591 188.441C231.423 188.247 231.248 188.057 231.081 187.864C230.813 187.553 230.542 187.261 230.116 187.15C229.485 186.987 228.831 187.288 228.645 187.913C228.575 188.153 228.493 188.388 228.406 188.62C228.281 188.952 228.312 189.265 228.488 189.569Z" fill="white"/>
<path d="M259.786 259.001L229.291 310.442C224.07 319.249 212.152 321.973 202.663 316.525L154.161 288.662C144.672 283.214 141.223 271.653 146.444 262.847L176.939 211.405C182.16 202.599 194.078 199.874 203.567 205.322L252.069 233.185C261.548 238.637 265 250.191 259.786 259.001Z" fill="#A800FF"/>
<path d="M179.495 248.063C183.145 241.734 187.063 237.147 191.85 233.285C196.199 229.77 201.018 227.13 206.266 225.222C208.307 224.478 210.396 223.955 212.491 223.418C215.201 222.73 217.858 224.308 218.646 226.997C219.41 229.593 217.975 232.372 215.377 233.268C213.435 233.941 211.394 234.304 209.461 235.03C204.534 236.869 200.108 239.514 196.241 243.099C191.514 247.484 188.133 252.728 185.975 258.775C184.255 263.583 183.603 268.57 183.848 273.658C184.03 277.411 184.877 281.044 185.944 284.629C186.372 286.055 186.624 287.467 186.008 288.932C185.232 290.787 183.317 292.166 181.399 292.147C179.027 292.128 177.181 290.985 176.476 288.879C175.038 284.597 174.058 280.2 173.673 275.694C173.212 270.392 173.615 265.152 174.886 259.983C176.006 255.44 177.706 251.112 179.495 248.063Z" fill="white"/>
<path d="M196.97 255.334C199.101 251.787 201.929 248.888 205.312 246.555C209.134 243.908 213.416 242.306 217.974 241.481C220.67 240.986 223.084 242.479 224.134 245.138C225.028 247.395 224.12 250.141 222.002 251.602C220.675 252.521 219.094 252.745 217.594 253.189C210.953 255.143 206.545 259.317 204.569 266.001C203.469 269.718 203.829 273.369 204.879 277.029C205.301 278.502 205.881 279.956 205.806 281.542C205.692 284.053 203.855 286.278 201.445 286.796C198.835 287.355 196.18 286.084 195.083 283.693C194.334 282.047 194.007 280.253 193.565 278.515C192.968 276.169 192.612 273.784 192.568 271.349C192.498 267.407 193.215 263.624 194.63 259.96C195.256 258.326 196.069 256.81 196.97 255.334Z" fill="white"/>
<path d="M226.792 264.012C230.832 266.185 232.882 271.431 230.41 276.129C228.225 280.27 222.985 282.306 218.263 279.832C214.102 277.654 212.009 272.43 214.595 267.552C216.722 263.541 221.989 261.426 226.792 264.012Z" fill="white"/>
<path d="M85.402 164.165L73.9977 155.527C71.7602 153.833 71.3195 150.645 73.015 148.407L81.6526 137.003C83.3472 134.765 86.5347 134.324 88.7732 136.02L100.177 144.657C102.415 146.352 102.856 149.54 101.16 151.778L92.5225 163.182C90.8279 165.42 87.6394 165.86 85.402 164.165Z" fill="#4800FF"/>
<path d="M92.3881 143.907C92.5372 144.101 92.7369 144.243 92.9056 144.418C94.622 146.213 95.3875 148.352 95.1995 150.823C95.0962 152.179 94.6679 153.44 93.8947 154.56C92.0089 157.293 89.3929 158.499 86.093 158.183C84.8352 158.062 83.6795 157.605 82.6244 156.905C80.996 155.825 79.8804 154.353 79.3105 152.485C78.7141 150.527 78.8375 148.597 79.6918 146.736C80.5959 144.767 82.0618 143.354 84.0753 142.554C86.2821 141.678 88.4782 141.775 90.6293 142.779C90.9453 142.926 91.2498 143.1 91.5388 143.298C91.5822 143.327 91.6215 143.367 91.679 143.366C91.916 143.547 92.1521 143.728 92.3881 143.907ZM88.8777 154.957C88.8866 154.963 88.8936 154.969 88.9025 154.975C89.4293 154.284 89.9541 153.591 90.487 152.905C90.5724 152.794 90.5953 152.695 90.5688 152.56C90.2019 150.754 89.8396 148.947 89.4801 147.138C89.4594 147.035 89.4196 147.017 89.3229 147.025C87.4795 147.162 85.6358 147.295 83.791 147.426C83.6868 147.433 83.6193 147.47 83.5547 147.553C82.4865 148.958 81.4142 150.36 80.3439 151.763C80.195 151.958 80.2087 152.07 80.4002 152.217C81.0648 152.726 81.7328 153.23 82.3949 153.744C82.506 153.829 82.5553 153.803 82.6291 153.703C83.0658 153.123 83.5085 152.547 83.9492 151.97C84.0903 151.786 84.1884 151.771 84.3729 151.912C84.9381 152.342 85.5033 152.772 86.0667 153.204C86.2502 153.345 86.2623 153.446 86.1221 153.629C85.6814 154.206 85.2437 154.786 84.798 155.359C84.709 155.472 84.7255 155.524 84.8345 155.606C85.4954 156.102 86.1512 156.607 86.8078 157.109C87.015 157.266 87.1217 157.252 87.2828 157.041C87.817 156.347 88.3474 155.652 88.8777 154.957ZM91.4828 148.954C91.473 148.919 91.4658 148.895 91.4605 148.871C91.2409 147.748 91.0194 146.625 90.8054 145.502C90.777 145.352 90.7275 145.3 90.5669 145.313C88.8988 145.447 87.2292 145.572 85.5598 145.701C84.572 145.777 83.5845 145.857 82.5966 145.931C82.4886 145.939 82.4555 145.966 82.4684 146.08C82.4935 146.312 82.5046 146.545 82.5119 146.779C82.5147 146.882 82.5487 146.912 82.652 146.904C83.2857 146.855 83.9197 146.81 84.5538 146.765C86.2981 146.642 88.0415 146.519 89.7855 146.392C89.9029 146.384 89.9471 146.41 89.9708 146.53C90.2118 147.768 90.4594 149.004 90.7052 150.241C90.9235 151.343 91.1427 152.444 91.3562 153.546C91.3785 153.66 91.423 153.676 91.5263 153.653C91.7543 153.604 91.9827 153.56 92.2136 153.527C92.3287 153.511 92.3597 153.48 92.3349 153.357C92.1917 152.635 92.0597 151.91 91.9194 151.187C91.9009 151.089 91.9181 151.019 91.9792 150.942C92.3785 150.426 92.7709 149.905 93.1693 149.39C93.2329 149.308 93.2283 149.265 93.1442 149.203C92.7827 148.935 92.4246 148.66 92.0702 148.384C91.9828 148.316 91.9462 148.333 91.8874 148.418C91.7656 148.595 91.6282 148.763 91.4828 148.954Z" fill="white"/>
<!--<defs>-->
<!--<radialGradient id="paint0_radial" cx="0" cy="0" r="1" gradientUnits="userSpaceOnUse" gradientTransform="translate(231.516 52.3359) rotate(101.252) scale(251.036)">-->
<!--<stop stop-color="#B108F8"/>-->
<!--<stop offset="0.947917" stop-color="white" stop-opacity="0"/>-->
<!--</radialGradient>-->
<!--</defs>-->
</svg>
