<svg width="32" height="32" viewBox="0 0 32 32" fill="none" xmlns="http://www.w3.org/2000/svg">
<g clip-path="url(#clip0)">
<path d="M18.7993 13.9388C18.8708 13.9457 18.9422 13.9244 18.9982 13.8794C19.0542 13.8344 19.0905 13.7694 19.0992 13.698C19.1127 13.598 19.1202 13.4971 19.1216 13.3961C19.1205 12.6742 18.8328 11.9823 18.3218 11.4724C17.8108 10.9625 17.1182 10.6764 16.3963 10.6769C16.2954 10.6763 16.1946 10.6817 16.0944 10.6933C16.0589 10.6971 16.0245 10.708 15.9932 10.7251C15.9619 10.7423 15.9343 10.7655 15.9119 10.7933C15.8896 10.8212 15.8729 10.8532 15.8629 10.8874C15.8529 10.9217 15.8498 10.9576 15.8537 10.9931C15.8575 11.0286 15.8684 11.063 15.8856 11.0943C15.9027 11.1256 15.9259 11.1532 15.9537 11.1756C15.9816 11.1979 16.0136 11.2146 16.0478 11.2246C16.0821 11.2346 16.118 11.2377 16.1535 11.2338C16.2341 11.2239 16.3151 11.2192 16.3963 11.2196C16.9732 11.2206 17.5262 11.4503 17.9342 11.8582C18.3421 12.2662 18.5718 12.8192 18.5729 13.3961C18.5722 13.4772 18.5675 13.5583 18.5586 13.6389C18.5517 13.7104 18.573 13.7818 18.6179 13.8378C18.6629 13.8938 18.728 13.93 18.7993 13.9388Z" fill="black"/>
<path d="M16.3963 11.7642C16.3586 11.7609 16.3206 11.7655 16.2847 11.7777C16.2488 11.7899 16.2159 11.8095 16.188 11.8351C16.16 11.8607 16.1377 11.8918 16.1225 11.9265C16.1072 11.9612 16.0994 11.9986 16.0994 12.0365C16.0994 12.0744 16.1072 12.1119 16.1225 12.1466C16.1377 12.1812 16.16 12.2124 16.188 12.238C16.2159 12.2636 16.2488 12.2831 16.2847 12.2953C16.3206 12.3075 16.3586 12.3121 16.3963 12.3089C16.5396 12.3081 16.6816 12.3356 16.8143 12.3899C16.9469 12.4441 17.0675 12.5241 17.1691 12.6251C17.2707 12.7262 17.3513 12.8463 17.4064 12.9786C17.4614 13.1109 17.4897 13.2528 17.4897 13.3961C17.4956 13.4643 17.5269 13.5278 17.5773 13.574C17.6277 13.6202 17.6936 13.6459 17.762 13.6459C17.8304 13.6459 17.8964 13.6202 17.9468 13.574C17.9972 13.5278 18.0285 13.4643 18.0344 13.3961C18.0344 13.1813 17.9919 12.9686 17.9095 12.7702C17.8272 12.5718 17.7064 12.3916 17.5542 12.24C17.402 12.0884 17.2214 11.9683 17.0227 11.8867C16.824 11.805 16.6111 11.7634 16.3963 11.7642Z" fill="black"/>
<path d="M18.2464 15.6727C18.1522 15.5729 18.0338 15.4991 17.9027 15.4583C17.7717 15.4176 17.6323 15.4112 17.4981 15.4399C17.3639 15.4686 17.2393 15.5314 17.1363 15.6221C17.0334 15.7129 16.9555 15.8287 16.9103 15.9583C16.8402 16.1441 16.7049 16.2979 16.5295 16.3911C16.3541 16.4842 16.1508 16.5102 15.9576 16.4642C15.1009 16.2398 13.9524 15.1076 13.7464 14.2019C13.6955 14.0073 13.7218 13.8005 13.8199 13.6248C13.918 13.4491 14.0803 13.3182 14.2727 13.2595C14.403 13.2168 14.5203 13.1414 14.6132 13.0404C14.706 12.9395 14.7715 12.8164 14.8032 12.683C14.8349 12.5495 14.8319 12.4102 14.7943 12.2783C14.7568 12.1463 14.6861 12.0262 14.5889 11.9294L13.3976 10.7055C13.2407 10.5586 13.0345 10.4759 12.8196 10.4736C12.6047 10.4713 12.3968 10.5497 12.2368 10.6933L11.4209 11.5092C10.5947 12.3599 11.4719 14.6486 13.4608 16.6926C15.4497 18.7366 17.7283 19.7056 18.5973 18.8549L19.4133 18.039C19.5606 17.8823 19.6436 17.676 19.6459 17.461C19.6482 17.246 19.5695 17.038 19.4255 16.8783L18.2464 15.6727Z" fill="black"/>
<path d="M15.6537 3.05176e-05C12.5875 3.05176e-05 9.59005 0.909285 7.04054 2.61281C4.49103 4.31634 2.50393 6.73763 1.33052 9.5705C0.157108 12.4034 -0.14991 15.5206 0.44829 18.5279C1.04649 21.5353 2.52304 24.2977 4.69122 26.4659C6.8594 28.6341 9.62183 30.1106 12.6292 30.7088C15.6365 31.307 18.7537 31 21.5866 29.8266C24.4195 28.6532 26.8408 26.6661 28.5443 24.1166C30.2478 21.5671 31.1571 18.5696 31.1571 15.5034C31.1571 11.3916 29.5237 7.44829 26.6162 4.54085C23.7088 1.63341 19.7655 3.05176e-05 15.6537 3.05176e-05V3.05176e-05ZM22.9974 15.5034C22.9974 17.0182 22.3956 18.471 21.3245 19.5422C20.2533 20.6134 18.8005 21.2151 17.2857 21.2151H14.4073L12.037 23.5855C11.9987 23.6224 11.9504 23.6474 11.8981 23.6573C11.8458 23.6672 11.7918 23.6617 11.7426 23.6413C11.6935 23.6209 11.6513 23.5867 11.6213 23.5427C11.5914 23.4987 11.5749 23.447 11.5739 23.3938V20.6664C10.597 20.203 9.77162 19.4718 9.19385 18.5578C8.61607 17.6438 8.30959 16.5847 8.31005 15.5034V13.0555C8.31005 11.5406 8.91182 10.0878 9.98298 9.01665C11.0541 7.94549 12.507 7.34372 14.0218 7.34372H17.2857C18.8005 7.34372 20.2533 7.94549 21.3245 9.01665C22.3956 10.0878 22.9974 11.5406 22.9974 13.0555V15.5034Z" fill="black"/>
<path d="M16.3963 9.58765C16.2983 9.58765 16.2004 9.59173 16.1025 9.59989C16.0305 9.6053 15.9637 9.63907 15.9166 9.69377C15.8696 9.74848 15.8462 9.81964 15.8516 9.89159C15.857 9.96355 15.8908 10.0304 15.9455 10.0775C16.0002 10.1245 16.0713 10.1479 16.1433 10.1425H16.3963C17.2619 10.1425 18.0921 10.4864 18.7042 11.0985C19.3162 11.7106 19.6601 12.5407 19.6601 13.4064C19.6607 13.6599 19.6313 13.9125 19.5724 14.1591C19.561 14.1949 19.5572 14.2327 19.5611 14.27C19.565 14.3074 19.5766 14.3436 19.5951 14.3763C19.6136 14.409 19.6386 14.4375 19.6686 14.4601C19.6987 14.4827 19.733 14.4988 19.7696 14.5076C19.8061 14.5163 19.8441 14.5174 19.8811 14.5108C19.918 14.5041 19.9533 14.49 19.9845 14.4692C20.0158 14.4483 20.0424 14.4213 20.0628 14.3897C20.0831 14.3581 20.0967 14.3226 20.1028 14.2856C20.1703 13.9974 20.2046 13.7024 20.2048 13.4064C20.2059 12.395 19.8053 11.4246 19.0911 10.7085C18.3769 9.99244 17.4076 9.58927 16.3963 9.58765Z" fill="black"/>
</g>
<defs>
<clipPath id="clip0">
<rect width="31.0067" height="31.0067" fill="white" transform="translate(0.150391)"/>
</clipPath>
</defs>
</svg>
