<svg width="32" height="32" viewBox="0 0 32 32" fill="none" xmlns="http://www.w3.org/2000/svg">
<g clip-path="url(#clip0)">
<path d="M19.5307 14.3346C19.6022 14.3415 19.6736 14.3202 19.7296 14.2753C19.7857 14.2303 19.8219 14.1652 19.8306 14.0939C19.8442 13.9938 19.8517 13.893 19.853 13.792C19.852 13.0701 19.5643 12.3782 19.0533 11.8683C18.5422 11.3584 17.8496 11.0723 17.1277 11.0728C17.0269 11.0721 16.926 11.0776 16.8258 11.0891C16.7903 11.093 16.7559 11.1038 16.7246 11.121C16.6933 11.1382 16.6657 11.1614 16.6434 11.1892C16.621 11.2171 16.6044 11.249 16.5944 11.2833C16.5844 11.3176 16.5812 11.3535 16.5851 11.389C16.589 11.4245 16.5998 11.4589 16.617 11.4902C16.6342 11.5215 16.6573 11.5491 16.6852 11.5715C16.713 11.5938 16.745 11.6105 16.7793 11.6204C16.8136 11.6304 16.8495 11.6336 16.885 11.6297C16.9655 11.6198 17.0466 11.615 17.1277 11.6154C17.7047 11.6165 18.2577 11.8462 18.6656 12.2541C19.0736 12.6621 19.3032 13.2151 19.3043 13.792C19.3037 13.8731 19.2989 13.9541 19.29 14.0348C19.2831 14.1063 19.3044 14.1776 19.3494 14.2337C19.3944 14.2897 19.4594 14.3259 19.5307 14.3346Z" fill="url(#paint0_linear)"/>
<path d="M17.1278 12.1602C17.09 12.1569 17.052 12.1615 17.0161 12.1737C16.9803 12.1859 16.9473 12.2055 16.9194 12.2311C16.8915 12.2567 16.8692 12.2878 16.8539 12.3225C16.8387 12.3572 16.8308 12.3946 16.8308 12.4325C16.8308 12.4704 16.8387 12.5079 16.8539 12.5426C16.8692 12.5772 16.8915 12.6084 16.9194 12.634C16.9473 12.6596 16.9803 12.6791 17.0161 12.6913C17.052 12.7035 17.09 12.7081 17.1278 12.7049C17.271 12.7041 17.4131 12.7316 17.5457 12.7859C17.6783 12.8401 17.7989 12.9201 17.9005 13.0211C18.0021 13.1222 18.0828 13.2423 18.1378 13.3746C18.1928 13.5069 18.2211 13.6488 18.2211 13.7921C18.227 13.8603 18.2583 13.9238 18.3087 13.97C18.3591 14.0162 18.4251 14.0419 18.4935 14.0419C18.5619 14.0419 18.6278 14.0162 18.6782 13.97C18.7286 13.9238 18.7599 13.8603 18.7658 13.7921C18.7658 13.5773 18.7234 13.3646 18.641 13.1662C18.5586 12.9678 18.4378 12.7876 18.2857 12.636C18.1335 12.4844 17.9528 12.3643 17.7541 12.2827C17.5554 12.201 17.3426 12.1594 17.1278 12.1602Z" fill="url(#paint1_linear)"/>
<path d="M18.9779 16.0688C18.8836 15.969 18.7652 15.8952 18.6342 15.8544C18.5031 15.8137 18.3638 15.8073 18.2295 15.836C18.0953 15.8647 17.9707 15.9275 17.8678 16.0182C17.7648 16.109 17.687 16.2248 17.6417 16.3544C17.5717 16.5402 17.4363 16.694 17.2609 16.7872C17.0856 16.8803 16.8822 16.9063 16.6891 16.8603C15.8323 16.6359 14.6839 15.5037 14.4778 14.598C14.4269 14.4033 14.4533 14.1966 14.5514 14.0209C14.6495 13.8452 14.8117 13.7143 15.0041 13.6556C15.1345 13.6129 15.2517 13.5375 15.3446 13.4365C15.4375 13.3356 15.5029 13.2125 15.5346 13.0791C15.5664 12.9456 15.5633 12.8063 15.5258 12.6743C15.4883 12.5424 15.4175 12.4223 15.3203 12.3255L14.129 11.1016C13.9721 10.9547 13.7659 10.8719 13.551 10.8697C13.3361 10.8674 13.1282 10.9458 12.9683 11.0893L12.1523 11.9053C11.3262 12.756 12.2033 15.0447 14.1922 17.0887C16.1812 19.1327 18.4597 20.1017 19.3287 19.251L20.1447 18.4351C20.292 18.2784 20.3751 18.0721 20.3773 17.8571C20.3796 17.6421 20.3009 17.4341 20.1569 17.2744L18.9779 16.0688Z" fill="url(#paint2_linear)"/>
<path d="M16.3852 0.395996C13.3189 0.395996 10.3215 1.30525 7.77199 3.00878C5.22248 4.71231 3.23537 7.1336 2.06196 9.96646C0.888553 12.7993 0.581536 15.9165 1.17974 18.9239C1.77793 21.9312 3.25448 24.6937 5.42266 26.8618C7.59085 29.03 10.3533 30.5066 13.3606 31.1048C16.368 31.703 19.4852 31.396 22.318 30.2226C25.1509 29.0491 27.5722 27.062 29.2757 24.5125C30.9793 21.963 31.8885 18.9656 31.8885 15.8993C31.8885 11.7876 30.2551 7.84426 27.3477 4.93682C24.4403 2.02938 20.4969 0.395996 16.3852 0.395996V0.395996ZM23.7289 15.8993C23.7289 17.4142 23.1271 18.867 22.0559 19.9382C20.9848 21.0093 19.532 21.6111 18.0171 21.6111H15.1388L12.7684 23.9815C12.7301 24.0184 12.6819 24.0434 12.6296 24.0533C12.5773 24.0632 12.5232 24.0576 12.4741 24.0373C12.4249 24.0169 12.3828 23.9826 12.3528 23.9387C12.3228 23.8947 12.3063 23.8429 12.3054 23.7897V21.0624C11.3284 20.5989 10.5031 19.8678 9.92529 18.9538C9.34752 18.0398 9.04104 16.9806 9.04149 15.8993V13.4514C9.04149 11.9366 9.64327 10.4838 10.7144 9.41262C11.7856 8.34146 13.2384 7.73968 14.7532 7.73968H18.0171C19.532 7.73968 20.9848 8.34146 22.0559 9.41262C23.1271 10.4838 23.7289 11.9366 23.7289 13.4514V15.8993Z" fill="url(#paint3_linear)"/>
<path d="M17.1277 9.9834C17.0298 9.9834 16.9319 9.98748 16.834 9.99564C16.762 10.001 16.6951 10.0348 16.6481 10.0895C16.601 10.1442 16.5776 10.2154 16.583 10.2873C16.5885 10.3593 16.6222 10.4262 16.6769 10.4732C16.7316 10.5203 16.8028 10.5437 16.8747 10.5383H17.1277C17.9933 10.5383 18.8235 10.8821 19.4356 11.4942C20.0477 12.1063 20.3916 12.9365 20.3916 13.8021C20.3922 14.0556 20.3627 14.3083 20.3038 14.5548C20.2925 14.5907 20.2886 14.6284 20.2925 14.6658C20.2964 14.7032 20.308 14.7393 20.3265 14.772C20.345 14.8047 20.3701 14.8333 20.4001 14.8559C20.4301 14.8784 20.4645 14.8946 20.501 14.9033C20.5376 14.912 20.5755 14.9131 20.6125 14.9065C20.6495 14.8999 20.6847 14.8857 20.716 14.8649C20.7472 14.8441 20.7739 14.817 20.7942 14.7854C20.8146 14.7538 20.8282 14.7184 20.8342 14.6813C20.9018 14.3931 20.936 14.0981 20.9362 13.8021C20.9373 12.7908 20.5367 11.8204 19.8225 11.1043C19.1084 10.3882 18.139 9.98502 17.1277 9.9834Z" fill="url(#paint4_linear)"/>
</g>
<defs>
<linearGradient id="paint0_linear" x1="18.2183" y1="11.0728" x2="18.2183" y2="14.3359" gradientUnits="userSpaceOnUse">
<stop stop-color="#8200FF"/>
<stop offset="1" stop-color="#B338DE"/>
<stop offset="1" stop-color="#B338DE"/>
</linearGradient>
<linearGradient id="paint1_linear" x1="17.7983" y1="12.1592" x2="17.7983" y2="14.0419" gradientUnits="userSpaceOnUse">
<stop stop-color="#8200FF"/>
<stop offset="1" stop-color="#B338DE"/>
<stop offset="1" stop-color="#B338DE"/>
</linearGradient>
<linearGradient id="paint2_linear" x1="16.1101" y1="10.8696" x2="16.1101" y2="19.5596" gradientUnits="userSpaceOnUse">
<stop stop-color="#8200FF"/>
<stop offset="1" stop-color="#B338DE"/>
<stop offset="1" stop-color="#B338DE"/>
</linearGradient>
<linearGradient id="paint3_linear" x1="16.3852" y1="0.395996" x2="16.3852" y2="31.4027" gradientUnits="userSpaceOnUse">
<stop stop-color="#8200FF"/>
<stop offset="1" stop-color="#B338DE"/>
<stop offset="1" stop-color="#B338DE"/>
</linearGradient>
<linearGradient id="paint4_linear" x1="18.7592" y1="9.9834" x2="18.7592" y2="14.9108" gradientUnits="userSpaceOnUse">
<stop stop-color="#8200FF"/>
<stop offset="1" stop-color="#B338DE"/>
<stop offset="1" stop-color="#B338DE"/>
</linearGradient>
<clipPath id="clip0">
<rect width="31.0067" height="31.0067" fill="white" transform="translate(0.881836 0.395996)"/>
</clipPath>
</defs>
</svg>
