<svg width="254" height="254" viewBox="0 0 254 254" fill="none" xmlns="http://www.w3.org/2000/svg">
<path d="M220.777 216.735C215.715 222.069 210.924 225.516 207.147 228.238C162.669 260.204 110.039 250.888 98.8541 248.611C82.3344 245.255 50.409 238.76 27.3231 211.565C-7.60009 170.427 -2.16598 105.623 24.9231 62.8438C29.8772 55.0154 56.0515 11.5919 109.251 4.62532C141.449 0.407246 178.971 8.91596 206.151 31.7208C263.2 79.5891 259.133 176.296 220.777 216.735Z" fill="url(#paint0_linear)"/>
<path d="M2.71582 1.25093C2.48034 0.253107 3.88416 -0.409085 4.74456 0.289392C13.4754 7.38301 34.4601 28.6185 29.2343 65.7375C22.6771 112.309 33.8895 129.299 47.8552 139.658C47.8552 139.658 28.6818 134.787 16.6181 117.543C-13.0069 75.2078 6.88197 19.0303 2.71582 1.25093Z" fill="#B491FA"/>
<path d="M9.36343 15.801C10.4593 20.9806 11.4284 26.1874 12.1801 31.4124C12.9681 36.6283 13.5658 41.8714 13.9734 47.1145C14.3628 52.3576 14.6345 57.6098 14.6526 62.871C14.6979 68.1232 14.4805 73.3754 14.236 78.6457C14.0277 83.916 13.7832 89.2226 14.1726 94.5655C14.553 99.8993 15.6761 105.278 17.895 110.322C18.4474 111.583 19.0361 112.835 19.6973 114.041C20.3403 115.266 21.0377 116.463 21.7623 117.652C23.2295 120.019 24.8778 122.305 26.7164 124.473C30.4025 128.809 34.8585 132.655 39.7582 135.903C40.2745 136.247 41.0171 136.157 41.4066 135.712C41.796 135.277 41.7054 134.651 41.2164 134.306C40.048 133.49 38.8978 132.655 37.7838 131.784C37.2223 131.358 36.6789 130.904 36.1355 130.469C35.6102 130.015 35.0577 129.571 34.5505 129.099C32.4675 127.24 30.5383 125.262 28.7904 123.167C25.2673 119.003 22.4506 114.359 20.3222 109.542C19.2897 107.12 18.4565 104.644 17.8497 102.113C17.2429 99.5818 16.8716 97.0147 16.6542 94.4204C16.2376 89.2317 16.4278 83.9795 16.5908 78.7092C16.7448 73.4389 16.8625 68.1413 16.7176 62.8438C16.6542 60.195 16.5365 57.5553 16.3734 54.9066C16.301 53.5822 16.1923 52.2669 16.0836 50.9425C15.9659 49.6272 15.8391 48.3028 15.7032 46.9875C15.1326 41.7172 14.3809 36.474 13.439 31.2491C12.4699 26.0332 11.3378 20.8354 9.97929 15.6921C9.94306 15.547 9.77098 15.4563 9.5989 15.4835C9.43588 15.5197 9.3272 15.6558 9.36343 15.801Z" fill="white"/>
<path d="M25.3396 116.245C24.2709 117.379 22.3871 117.053 21.7441 115.629C18.1938 107.773 10.1513 84.6417 23.4286 57.9907C34.641 35.4943 38.5898 22.2233 39.9665 16.0731C40.2563 14.7759 42.0405 14.6036 42.5748 15.8191C48.4889 29.2716 64.1301 75.0081 25.3396 116.245Z" fill="#BDD0FB"/>
<path d="M23.3923 115.411C23.3561 115.42 23.3108 115.42 23.2746 115.42C22.9395 115.411 22.6678 115.139 22.6769 114.803C22.6859 114.422 23.4286 76.2237 37.6116 44.2298C37.7475 43.9214 38.1097 43.7854 38.4177 43.9214C38.7256 44.0575 38.8615 44.4203 38.7256 44.7288C24.6422 76.4868 23.8995 114.449 23.8995 114.821C23.8905 115.121 23.6731 115.366 23.3923 115.411Z" fill="white"/>
<path d="M108.454 186.256L103.029 234.996H165.984L157.778 186.256H108.454Z" fill="url(#paint1_linear)"/>
<path d="M2.70667 66.1638V177.793C2.70667 186.973 10.0155 194.484 19.1811 194.72C59.8916 195.772 202.265 198.321 241.02 197.749C247.676 197.65 253.074 192.316 253.264 185.64C254.016 159.705 255.23 97.3413 250.738 68.3953C249.796 62.2995 244.651 57.7367 238.493 57.5463C204.385 56.4577 53.4522 52.9835 14.7161 53.8543C8.04115 54.0085 2.70667 59.4693 2.70667 66.1638Z" fill="url(#paint2_linear)"/>
<path d="M9.69861 65.6195V171.679C9.69861 177.04 13.9916 181.412 19.3442 181.494L235.441 184.17C240.748 184.252 245.095 179.97 245.113 174.654L245.476 69.5473C245.494 65.7465 242.469 62.6351 238.674 62.5444L17.4332 58.0542C13.1946 57.9544 9.69861 61.3743 9.69861 65.6195Z" fill="#B491FA"/>
<path d="M246.743 188.542C246.743 188.542 246.734 188.542 246.743 188.542L9.68945 184.497C9.50831 184.497 9.3634 184.342 9.3634 184.161C9.3634 183.98 9.50831 183.834 9.69851 183.834L246.743 187.88C246.925 187.88 247.07 188.034 247.07 188.216C247.07 188.397 246.925 188.542 246.743 188.542Z" fill="#B491FA"/>
<path d="M179.542 244.965H87.4064C84.9067 244.965 83.0229 243.178 83.512 241.264L84.6984 236.583C85.0516 235.177 86.6004 234.143 88.4389 234.079L177.259 231.304C179.179 231.24 180.882 232.265 181.299 233.726L183.427 241.182C183.971 243.123 182.087 244.965 179.542 244.965Z" fill="url(#paint3_linear)"/>
<path d="M137.002 235.386C136.82 235.386 136.676 235.24 136.667 235.059C136.667 234.878 136.811 234.723 136.993 234.723L140.796 234.669H140.805C140.987 234.669 141.132 234.814 141.141 234.996C141.141 235.177 140.996 235.331 140.815 235.331L137.002 235.386C137.011 235.386 137.002 235.386 137.002 235.386Z" fill="#B491FA"/>
<path d="M86.9173 242.416C86.8992 242.416 86.8811 242.416 86.863 242.416C86.6818 242.388 86.5551 242.216 86.5913 242.035L87.1347 238.633C87.4245 236.792 89.0004 235.431 90.8661 235.404L131.233 234.814C131.405 234.805 131.568 234.959 131.568 235.141C131.568 235.322 131.423 235.476 131.242 235.476L90.8752 236.066C89.3355 236.093 88.0404 237.209 87.7958 238.742L87.2524 242.144C87.2162 242.298 87.0804 242.416 86.9173 242.416Z" fill="#B491FA"/>
<path opacity="0.44" d="M198.407 98.3119H174.388C172.885 98.3119 171.662 97.0873 171.662 95.5814C171.662 94.0756 172.885 92.851 174.388 92.851H198.407C199.911 92.851 201.133 94.0756 201.133 95.5814C201.133 97.0873 199.92 98.3119 198.407 98.3119Z" fill="white"/>
<path opacity="0.43" d="M207.247 94.0122H233.167C234.797 94.0122 236.111 98.8652 236.111 104.861V168.74C236.111 174.727 234.788 179.589 233.167 179.589H207.247C205.616 179.589 204.303 174.736 204.303 168.74V104.861C204.303 98.8652 205.625 94.0122 207.247 94.0122Z" fill="white"/>
<path opacity="0.46" d="M174.388 101.351H198.407C199.911 101.351 201.133 102.575 201.133 104.081V120.191C201.133 121.697 199.911 122.922 198.407 122.922H174.388C172.885 122.922 171.662 121.697 171.662 120.191V104.09C171.662 102.575 172.885 101.351 174.388 101.351Z" fill="white"/>
<path opacity="0.38" d="M174.388 127.748H198.407C199.911 127.748 201.133 130.696 201.133 134.333V173.14C201.133 176.777 199.911 179.725 198.407 179.725H174.388C172.885 179.725 171.662 176.777 171.662 173.14V134.342C171.662 130.696 172.885 127.748 174.388 127.748Z" fill="white"/>
<path opacity="0.42" d="M235.821 89.4584H20.6483C18.1576 89.4584 16.1379 87.4356 16.1379 84.941V66.9711C16.1379 64.4312 18.2301 62.3902 20.766 62.4537L235.93 67.9055C238.375 67.969 240.322 69.9737 240.322 72.4229V84.9501C240.331 87.4447 238.312 89.4584 235.821 89.4584Z" fill="white"/>
<path opacity="0.58" d="M163.837 163.37H91.337C89.5075 163.37 88.0312 161.891 88.0312 160.059V98.1214C88.0312 96.289 89.5075 94.8104 91.337 94.8104H163.837C165.667 94.8104 167.143 96.289 167.143 98.1214V160.059C167.143 161.882 165.667 163.37 163.837 163.37Z" fill="white"/>
<path opacity="0.28" d="M166.934 180.868L17.8587 179.616C16.0474 179.598 14.5983 178.129 14.5983 176.314V171.044C14.5983 168.522 16.6361 166.481 19.1539 166.481H166.735C167.704 166.481 168.492 167.271 168.492 168.241V179.317C168.492 180.179 167.795 180.877 166.934 180.868Z" fill="white"/>
<path opacity="0.47" d="M80.3148 161.783H17.7138C15.993 161.783 14.5983 160.386 14.5983 158.662V95.9715C14.5983 94.248 15.993 92.851 17.7138 92.851H80.3148C82.0356 92.851 83.4303 94.248 83.4303 95.9715V158.671C83.4303 160.386 82.0356 161.783 80.3148 161.783Z" fill="white"/>
<path d="M126.296 99.981L196.804 99.346C198.19 99.3369 199.313 100.453 199.304 101.841L198.996 156.031C198.987 157.428 197.837 158.535 196.451 158.499C183.699 158.118 127.103 156.44 124.612 156.539C122.139 156.639 123.48 113.116 123.851 102.376C123.887 101.051 124.965 99.99 126.296 99.981Z" fill="url(#paint4_linear)"/>
<path opacity="0.69" d="M196.523 156.458H196.505C186.38 156.158 135.381 154.634 125.979 154.507H125.853L125.835 154.38C124.947 149.382 124.965 128.999 125.88 102.448C125.889 102.212 126.079 102.031 126.315 102.031L196.822 101.396C196.976 101.396 197.076 101.469 197.139 101.523C197.221 101.605 197.266 101.714 197.266 101.831L196.958 156.022C196.949 156.258 196.759 156.458 196.523 156.458ZM126.115 154.199C135.842 154.344 186.434 155.85 196.514 156.149H196.523C196.587 156.149 196.65 156.086 196.65 156.013L196.958 101.822C196.958 101.786 196.949 101.759 196.922 101.732C196.895 101.704 196.867 101.695 196.822 101.695L126.315 102.33C126.242 102.33 126.188 102.385 126.188 102.457C125.282 128.773 125.255 149.019 126.115 154.199Z" fill="white"/>
<path d="M134.801 149.491H181.018C182.458 149.491 183.354 147.922 182.621 146.679L164.326 115.529C163.565 114.232 161.654 114.331 161.029 115.701L152.199 135.086C151.674 136.238 150.179 136.538 149.246 135.685L145.669 132.401C144.836 131.639 143.531 131.784 142.888 132.71L133.279 146.552C132.419 147.795 133.306 149.491 134.801 149.491Z" fill="white"/>
<path d="M182.943 120.737C186.335 119.33 187.946 115.435 186.54 112.038C185.135 108.64 181.247 107.027 177.855 108.434C174.463 109.841 172.852 113.736 174.257 117.134C175.662 120.531 179.551 122.144 182.943 120.737Z" fill="white"/>
<path d="M240.893 164.912C239.272 158.898 234.254 153.963 228.675 152.72C227.652 152.494 227.054 151.441 227.298 150.416C227.298 150.407 227.298 150.398 227.307 150.398C228.114 146.906 225.876 144.121 222.507 143.332C219.138 142.552 215.905 144.067 215.09 147.559C214.546 149.917 215.244 152.575 216.792 154.29C217.426 154.997 217.481 156.059 216.865 156.784C213.46 160.776 212.074 166.871 213.55 172.323C215.715 180.351 223.259 183.943 230.812 181.893C238.366 179.843 243.066 172.94 240.893 164.912Z" fill="url(#paint5_linear)"/>
<path d="M238.547 172.577L238.402 172.477C239.752 170.554 239.924 167.779 238.855 165.239C238.004 163.216 236.482 161.365 234.055 159.424C233.149 158.698 232.198 158.009 231.274 157.347C230.16 156.548 229.01 155.714 227.941 154.816C226.981 154.009 225.967 153.002 225.759 151.686C225.65 151.033 225.75 150.335 225.849 149.654C226.003 148.593 226.139 147.595 225.523 146.833L225.659 146.724C226.329 147.55 226.175 148.638 226.021 149.682C225.931 150.344 225.831 151.033 225.931 151.659C226.13 152.92 227.117 153.891 228.05 154.68C229.11 155.578 230.26 156.403 231.374 157.202C232.298 157.873 233.258 158.562 234.163 159.288C236.609 161.256 238.148 163.125 239.018 165.175C240.114 167.76 239.933 170.6 238.547 172.577Z" fill="#B491FA"/>
<path d="M234.951 173.738L234.779 173.675C235.703 171.126 235.432 167.996 234.037 165.084C232.66 162.2 230.405 159.841 228.603 158.118L228.729 157.991C230.55 159.732 232.814 162.1 234.209 165.012C235.622 167.96 235.893 171.144 234.951 173.738Z" fill="#B491FA"/>
<path d="M198.724 140.765L198.661 138.687L200.825 134.379C201.224 133.589 201.224 132.664 200.834 131.875L198.38 126.913C198.38 126.913 196.967 137.681 196.587 138.579C196.215 139.477 197.601 141.082 197.601 141.082L198.724 140.765Z" fill="url(#paint6_linear)"/>
<path d="M198.67 138.687C198.67 138.687 205.254 156.675 216.485 162.3C216.485 162.3 212.744 168.404 210.797 168.776C210.797 168.776 198.806 153.401 197.583 140.81L198.67 138.687Z" fill="url(#paint7_linear)"/>
<path d="M243.818 246.906L244.153 249.636C244.497 250.933 246.164 254.199 248.301 253.99C249.614 253.863 249.778 250.008 249.596 249.428C249.261 248.375 248.654 246.797 247.767 245.863H244.742C244.18 245.854 243.746 246.343 243.818 246.906Z" fill="url(#paint8_linear)"/>
<path d="M220.153 214.939L219.645 217.942C219.645 217.942 221.357 235.268 221.656 242.198C221.701 243.287 221.421 244.357 220.85 245.282L217.879 250.108L225.424 245.645L225.578 244.72L224.346 243.014L225.967 223.602C226.058 222.459 225.831 221.316 225.288 220.309L223.73 217.37L220.153 214.939Z" fill="url(#paint9_linear)"/>
<path d="M217.381 250.825H219.79C220.243 250.825 220.669 250.616 220.941 250.262C221.692 249.283 223.25 247.378 223.993 247.332C224.998 247.269 224.862 250.834 224.862 250.834H225.424L226.139 246.407C226.32 245.291 225.768 244.185 224.763 243.668C224.763 243.668 224.536 245.364 223.295 246.117C222.055 246.87 218.242 249.555 218.242 249.555C218.242 249.555 217.771 249.491 217.263 249.582C216.503 249.691 216.611 250.825 217.381 250.825Z" fill="url(#paint10_linear)"/>
<path d="M230.486 216.373C230.486 216.373 240.494 235.386 242.079 239.722C243.673 244.058 244.226 247.686 244.244 248.022C244.28 248.557 244.941 249.074 246.78 249.074C247.722 249.074 248.192 248.693 248.419 248.33C248.609 248.013 248.618 247.623 248.455 247.296C247.876 246.126 246.037 242.37 245.358 240.674C244.543 238.642 242.795 229.444 241.844 226.242C240.884 223.04 239.806 219.575 235.631 216.373C235.64 216.373 232.769 213.56 230.486 216.373Z" fill="url(#paint11_linear)"/>
<path d="M224.165 185.222C222.698 178.999 224.174 174.319 225.723 171.425C226.954 169.121 226.085 166.273 223.775 165.066C220.153 163.179 216.485 162.3 216.485 162.3C216.485 162.3 209.312 167.552 210.163 171.661C210.661 174.074 215.208 186.093 215.208 186.093C215.208 186.093 219.401 188.089 224.165 185.222Z" fill="url(#paint12_linear)"/>
<path d="M229.889 190.647C228.838 187.481 224.165 185.222 224.165 185.222C219.401 188.089 215.199 186.093 215.199 186.093C215.199 186.093 214.257 189.703 214.909 193.051C215.561 196.398 219.636 217.942 219.636 217.942C226.067 219.248 235.948 216.627 235.948 216.627C231.863 209.351 230.939 193.813 229.889 190.647Z" fill="url(#paint13_linear)"/>
<path d="M221.167 155.061L223.268 164.504C223.467 165.338 222.716 165.202 221.873 165.039C220.497 164.776 218.731 164.241 218.133 163.17C218.07 163.062 218.042 162.935 218.024 162.817L217.119 156.267C217.046 155.75 217.327 155.242 217.807 155.034L219.546 154.263C220.225 153.963 220.995 154.353 221.167 155.061Z" fill="url(#paint14_linear)"/>
<path d="M194.938 148.829C194.938 148.829 200.463 168.042 222.734 166.236C224.156 166.119 225.415 167.18 225.523 168.604L225.587 169.375C225.75 171.443 224.065 173.185 221.991 173.085C214.583 172.713 198.679 169.792 193.227 152.167L194.938 148.829Z" fill="url(#paint15_linear)"/>
<path d="M193.227 152.167C193.227 152.167 192.167 149.038 191.895 147.087C191.633 145.128 192.611 140.747 193.453 139.513C194.295 138.279 194.44 141.3 194.821 142.724C195.201 144.148 194.558 146.171 194.558 146.171L194.947 148.829L193.227 152.167Z" fill="url(#paint16_linear)"/>
<path d="M216.865 147.278C216.865 147.278 211.558 155.015 214.854 157.174C218.151 159.333 221.928 153.827 221.928 153.827C221.928 153.827 223.114 149.618 221.765 148.23C220.424 146.833 216.865 147.278 216.865 147.278Z" fill="url(#paint17_linear)"/>
<path d="M219.093 145.4C219.093 145.4 216.783 145.99 216.475 147.051C216.168 148.112 219.799 149.01 220.814 149.047L221.71 153.274C221.71 153.274 224.047 149.237 223.051 146.951C222.055 144.656 219.093 145.4 219.093 145.4Z" fill="url(#paint18_linear)"/>
<path d="M220.868 153.283C220.868 153.283 222.942 150.779 223.821 152.367C224.69 153.954 221.964 155.215 220.995 154.444L220.868 153.283Z" fill="url(#paint19_linear)"/>
<path d="M22.3962 227.503H106.869V213.76H22.3962C24.1986 213.76 24.1986 227.503 22.3962 227.503Z" fill="#B491FA"/>
<path d="M106.87 224.065V217.779C106.87 215.565 105.203 213.769 103.138 213.769H22.7495C21.1283 213.769 19.8151 212.699 19.8151 211.383C19.8151 210.984 20.2136 210.658 20.7026 210.658H108.563C110.574 210.658 113.78 213.234 113.78 216.409V225.19C113.78 228.183 110.673 230.614 108.771 230.614H21.1736C20.4219 230.614 19.8241 230.124 19.8241 229.517C19.8241 228.41 20.9291 227.512 22.2966 227.512H103.682C105.439 227.503 106.87 225.961 106.87 224.065Z" fill="url(#paint20_linear)"/>
<path opacity="0.76" d="M104.524 216.88H25.3216C25.1495 216.88 25.0137 216.744 25.0137 216.572C25.0137 216.4 25.1495 216.264 25.3216 216.264H104.524C104.696 216.264 104.832 216.4 104.832 216.572C104.832 216.744 104.696 216.88 104.524 216.88Z" fill="white"/>
<path opacity="0.76" d="M104.524 218.921H25.3216C25.1495 218.921 25.0137 218.785 25.0137 218.613C25.0137 218.441 25.1495 218.305 25.3216 218.305H104.524C104.696 218.305 104.832 218.441 104.832 218.613C104.832 218.785 104.696 218.921 104.524 218.921Z" fill="white"/>
<path opacity="0.76" d="M104.524 220.962H25.3216C25.1495 220.962 25.0137 220.826 25.0137 220.654C25.0137 220.482 25.1495 220.346 25.3216 220.346H104.524C104.696 220.346 104.832 220.482 104.832 220.654C104.832 220.826 104.696 220.962 104.524 220.962Z" fill="white"/>
<path opacity="0.76" d="M104.524 223.003H25.3216C25.1495 223.003 25.0137 222.867 25.0137 222.695C25.0137 222.523 25.1495 222.387 25.3216 222.387H104.524C104.696 222.387 104.832 222.523 104.832 222.695C104.832 222.867 104.696 223.003 104.524 223.003Z" fill="white"/>
<path opacity="0.76" d="M104.524 225.044H25.3216C25.1495 225.044 25.0137 224.908 25.0137 224.736C25.0137 224.564 25.1495 224.428 25.3216 224.428H104.524C104.696 224.428 104.832 224.564 104.832 224.736C104.832 224.908 104.696 225.044 104.524 225.044Z" fill="white"/>
<path d="M115.645 253.764H5.56854C4.83493 253.764 4.23718 253.165 4.23718 252.43V232.129C4.23718 231.394 4.83493 230.796 5.56854 230.796H115.645C116.379 230.796 116.977 231.394 116.977 232.129V252.43C116.977 253.165 116.379 253.764 115.645 253.764Z" fill="url(#paint21_linear)"/>
<path d="M28.0205 251.124H19.1901C17.9674 251.124 16.9802 250.135 16.9802 248.911V235.649C16.9802 234.424 17.9674 233.435 19.1901 233.435H28.0205C29.2432 233.435 30.2304 234.424 30.2304 235.649V248.911C30.2213 250.135 29.2341 251.124 28.0205 251.124Z" fill="#AD7DF4"/>
<path d="M35.3475 251.124H33.9709C32.9837 251.124 32.1776 250.317 32.1776 249.328V235.24C32.1776 234.252 32.9837 233.444 33.9709 233.444H35.3475C36.3347 233.444 37.1408 234.252 37.1408 235.24V249.328C37.1408 250.317 36.3347 251.124 35.3475 251.124Z" fill="#AD7DF4"/>
<path d="M61.2682 148.865C61.2138 148.965 57.7632 151.505 57.7632 151.505C57.7632 151.505 58.524 156.957 61.6123 159.116C65.0087 161.483 69.8088 157.165 69.8088 157.165C69.8088 157.165 73.6308 158.072 75.6595 150.117C76.1214 148.294 73.4315 148.14 70.1892 148.475C66.014 148.902 61.2682 148.865 61.2682 148.865Z" fill="url(#paint22_linear)"/>
<path d="M54.8287 167.47C56.1781 166.545 57.6635 165.837 59.2484 165.411C59.8462 165.248 63.0432 166.182 65.0267 166.137C67.7437 166.073 70.5151 164.83 72.7522 165.393C74.9802 165.946 76.8006 166.672 77.8512 167.425C81.003 169.665 82.8506 173.856 83.9736 177.993C81.8362 180.188 79.1554 181.158 79.1554 181.158L78.6572 201.305L66.7656 207.401L53.1894 200.58L53.6784 180.895C53.6784 180.895 49.3674 178.882 49.0504 178.156C48.7425 177.421 51.0248 170.092 54.8287 167.47Z" fill="url(#paint23_linear)"/>
<path d="M49.2587 178.065C49.2587 178.065 43.4804 194.103 56.6582 200.698C59.3933 200.335 58.3427 195.781 58.3427 195.781C58.3427 195.781 52.6188 194.511 54.3396 181.131C52.7547 179.825 49.2587 178.065 49.2587 178.065Z" fill="url(#paint24_linear)"/>
<path d="M83.711 178.065C83.711 178.065 87.687 194.81 76.3116 200.698C73.5764 200.335 74.627 195.781 74.627 195.781C74.627 195.781 79.237 193.504 78.6301 181.131C80.2151 179.825 83.711 178.065 83.711 178.065Z" fill="url(#paint25_linear)"/>
<path d="M78.3675 201.822H53.7963C53.3797 201.822 53.0446 201.478 53.0446 201.07V184.941C53.0446 184.524 53.3887 184.188 53.7963 184.188H78.3675C78.7841 184.188 79.1192 184.533 79.1192 184.941V201.07C79.1283 201.478 78.7841 201.822 78.3675 201.822Z" fill="url(#paint26_linear)"/>
<path d="M90.5669 207.047C87.5782 206.358 80.6859 206.73 80.6859 206.73L80.4051 207.492L79.9432 211.275C79.9432 211.275 86.5095 212.463 89.7518 212.454C90.0779 212.454 90.3858 212.399 90.6575 212.318C90.7571 212.227 90.8567 212.136 90.9473 212.037C92.3149 210.54 91.9164 208.336 90.5669 207.047Z" fill="url(#paint27_linear)"/>
<path d="M78.7025 206.521L79.8709 206.576C80.4958 206.603 81.0935 206.911 81.5102 207.428C81.9358 207.945 82.1532 208.626 82.1079 209.324C82.0807 209.878 81.8543 210.395 81.4739 210.767C81.1026 211.138 80.6045 211.32 80.1063 211.284L78.3221 211.157L78.7025 206.521Z" fill="url(#paint28_linear)"/>
<path d="M39.423 206.685C42.4208 206.086 49.3131 206.675 49.3131 206.675L49.5757 207.447L49.9471 211.238C49.9471 211.238 43.3537 212.218 40.1113 212.118C39.7853 212.109 39.4773 212.046 39.2056 211.955C39.106 211.864 39.0154 211.764 38.9249 211.665C37.5845 210.123 38.0373 207.927 39.423 206.685Z" fill="url(#paint29_linear)"/>
<path d="M51.2966 206.521L50.1282 206.539C49.5033 206.548 48.9055 206.839 48.4708 207.338C48.0361 207.846 47.8006 208.517 47.8187 209.215C47.8368 209.769 48.0451 210.295 48.4165 210.676C48.7787 211.057 49.2678 211.256 49.7659 211.238L51.5592 211.166L51.2966 206.521Z" fill="url(#paint30_linear)"/>
<path d="M91.4003 195.191C90.0508 192.071 86.736 191.563 83.9193 193.023C83.8741 193.087 66.023 202.249 50.2913 206.258C50.7441 207.701 50.9705 209.243 51.0249 210.757C51.0339 211.093 51.0249 211.429 51.0068 211.755C63.0705 211.138 76.1757 207.102 87.4244 203.564C90.9112 202.439 92.8947 198.648 91.4003 195.191Z" fill="url(#paint31_linear)"/>
<path d="M78.7841 211.002C78.7388 209.261 79.0739 207.637 79.7984 206.131C79.8165 206.059 79.8437 205.995 79.8618 205.932C78.9652 205.65 77.8059 205.279 76.2753 204.761C65.0992 200.933 56.5767 197.06 48.4436 192.615C45.2828 190.883 41.6872 192.044 40.6728 195.79C39.7672 199.137 41.7506 201.986 44.7665 202.993C53.769 205.995 49.0867 205.161 52.0211 206.113C59.9186 208.562 69.7544 210.785 78.7931 211.392C78.7931 211.256 78.7841 211.129 78.7841 211.002Z" fill="url(#paint32_linear)"/>
<path d="M59.2485 165.411C59.2485 165.411 60.4531 170.627 66.2857 170.518C72.227 170.409 72.7614 165.393 72.7614 165.393L68.876 164.558L68.5499 160.222L62.7083 160.658L62.5996 164.776L59.2485 165.411Z" fill="url(#paint33_linear)"/>
<path d="M63.5324 147.958C63.5324 147.958 56.8394 160.939 64.7822 164.096C70.3794 166.318 73.8934 155.478 72.8428 152.539C71.2216 147.994 70.162 148.539 70.162 148.539L63.5324 147.958Z" fill="url(#paint34_linear)"/>
<path d="M74.4458 146.77C77.7516 147.677 74.9258 154.861 69.9446 153.165C64.9633 151.469 63.007 151.496 62.2372 152.857C61.4583 154.226 61.2953 159.088 59.6107 156.685C57.7631 154.054 56.7397 148.765 58.9948 147.06C61.0145 145.536 61.4855 143.178 63.9127 143.259C67.1279 143.368 69.6185 141.935 71.0767 142.969C72.7522 144.148 72.0186 146.099 74.4458 146.77Z" fill="url(#paint35_linear)"/>
<path d="M61.9383 153.981C61.9383 153.981 60.5073 152.439 60.2809 154.299C60.0545 156.149 60.7881 158.544 61.6485 157.229C62.5089 155.913 61.9383 153.981 61.9383 153.981Z" fill="url(#paint36_linear)"/>
<path d="M67.6261 191.617C67.7619 192.552 67.2638 193.404 66.331 193.541C65.3981 193.677 64.5286 193.033 64.3928 192.098C64.2569 191.164 64.6826 190.23 65.6155 190.093C66.5393 189.957 67.4812 190.683 67.6261 191.617Z" fill="#B491FA"/>
<path d="M49.6845 142.298C66.5412 142.298 80.2061 128.611 80.2061 111.728C80.2061 94.8449 66.5412 81.1584 49.6845 81.1584C32.8279 81.1584 19.163 94.8449 19.163 111.728C19.163 128.611 32.8279 142.298 49.6845 142.298Z" fill="white"/>
<path d="M24.5245 110.24L30.9277 106.893V108.317C30.9277 108.426 30.9006 108.526 30.8462 108.617C30.7919 108.707 30.7013 108.78 30.5836 108.843L27.6492 110.349C27.5224 110.413 27.3956 110.467 27.2597 110.513C27.1239 110.558 26.9789 110.603 26.8159 110.64C26.9699 110.676 27.1148 110.721 27.2597 110.767C27.3956 110.812 27.5314 110.866 27.6492 110.93L30.5836 112.445C30.7104 112.508 30.8009 112.59 30.8462 112.671C30.9006 112.762 30.9277 112.862 30.9277 112.971V114.395L24.5245 111.039V110.24Z" fill="#B491FA"/>
<path d="M33.853 116.1V104.063H35.8546V108.689C36.1806 108.381 36.5339 108.136 36.9233 107.945C37.3127 107.755 37.7656 107.664 38.2909 107.664C38.7437 107.664 39.1422 107.737 39.4954 107.891C39.8487 108.045 40.1385 108.263 40.374 108.535C40.6094 108.816 40.7906 109.143 40.9083 109.533C41.0261 109.923 41.0895 110.34 41.0895 110.812V116.1H39.0879V110.812C39.0879 110.304 38.9702 109.914 38.7347 109.633C38.4992 109.351 38.146 109.215 37.675 109.215C37.3309 109.215 37.0048 109.297 36.7059 109.451C36.4071 109.605 36.1172 109.823 35.8455 110.095V116.109H33.853V116.1Z" fill="#B491FA"/>
<path d="M45.7719 116.227C45.0564 116.227 44.5039 116.028 44.1145 115.62C43.7251 115.211 43.5349 114.649 43.5349 113.932V109.288H42.6926C42.5839 109.288 42.4933 109.252 42.4118 109.179C42.3303 109.106 42.2941 109.007 42.2941 108.862V108.072L43.6254 107.855L44.042 105.587C44.0602 105.478 44.1145 105.396 44.196 105.333C44.2775 105.269 44.3681 105.242 44.4949 105.242H45.5274V107.855H47.7101V109.279H45.5274V113.778C45.5274 114.041 45.5908 114.241 45.7176 114.386C45.8444 114.531 46.0164 114.604 46.2338 114.604C46.3606 114.604 46.4602 114.585 46.5417 114.558C46.6232 114.531 46.6957 114.495 46.7591 114.468C46.8225 114.431 46.8768 114.404 46.9221 114.377C46.9674 114.35 47.0217 114.331 47.067 114.331C47.1304 114.331 47.1757 114.35 47.2119 114.377C47.2482 114.404 47.2934 114.449 47.3297 114.513L47.9274 115.483C47.6376 115.728 47.3025 115.91 46.9221 116.037C46.5689 116.173 46.1795 116.227 45.7719 116.227Z" fill="#B491FA"/>
<path d="M49.3041 116.1V107.791H50.5268C50.7894 107.791 50.9524 107.909 51.0339 108.154L51.1607 108.771C51.3056 108.608 51.4596 108.462 51.6136 108.326C51.7766 108.19 51.9396 108.072 52.1208 107.982C52.3019 107.882 52.4921 107.809 52.7004 107.755C52.9087 107.7 53.1351 107.673 53.3797 107.673C53.905 107.673 54.3306 107.818 54.6657 108.1C55.0008 108.381 55.2544 108.762 55.4175 109.233C55.5442 108.961 55.7073 108.726 55.9065 108.526C56.0967 108.326 56.3141 108.172 56.5496 108.045C56.785 107.918 57.0296 107.827 57.2922 107.773C57.5549 107.71 57.8175 107.682 58.0802 107.682C58.5421 107.682 58.9496 107.755 59.3028 107.891C59.6561 108.027 59.9549 108.236 60.1995 108.508C60.444 108.78 60.6251 109.106 60.7519 109.497C60.8787 109.887 60.9421 110.331 60.9421 110.83V116.118H58.9587V110.83C58.9587 110.304 58.8409 109.905 58.6145 109.633C58.379 109.37 58.0439 109.233 57.5911 109.233C57.3828 109.233 57.1926 109.27 57.0205 109.342C56.8484 109.415 56.6945 109.515 56.5586 109.642C56.4228 109.778 56.3231 109.941 56.2507 110.141C56.1782 110.34 56.142 110.567 56.142 110.83V116.118H54.1404V110.83C54.1404 110.277 54.0317 109.868 53.8053 109.614C53.5789 109.36 53.2529 109.233 52.8181 109.233C52.5283 109.233 52.2657 109.306 52.0121 109.451C51.7585 109.596 51.5321 109.787 51.3147 110.041V116.128H49.3041V116.1Z" fill="#B491FA"/>
<path d="M65.0539 104.063V116.1H63.0524V104.063H65.0539Z" fill="#B491FA"/>
<path d="M68.0879 114.404V112.98C68.0879 112.871 68.1151 112.771 68.1694 112.681C68.2237 112.59 68.3143 112.517 68.432 112.454L71.3665 110.939C71.6019 110.821 71.8827 110.721 72.1997 110.649C72.0457 110.612 71.9008 110.567 71.7559 110.522C71.6201 110.476 71.4842 110.422 71.3665 110.358L68.432 108.853C68.3053 108.789 68.2147 108.707 68.1694 108.626C68.1151 108.535 68.0879 108.435 68.0879 108.326V106.902L74.4911 110.249V111.057L68.0879 114.404Z" fill="#B491FA"/>
<path d="M119.703 118.912C134.554 118.912 146.593 106.854 146.593 91.9802C146.593 77.106 134.554 65.0481 119.703 65.0481C104.852 65.0481 92.8132 77.106 92.8132 91.9802C92.8132 106.854 104.852 118.912 119.703 118.912Z" fill="white"/>
<path d="M105.484 92.0256L113.255 87.9708V89.7034C113.255 89.8304 113.218 89.9574 113.155 90.0662C113.092 90.1751 112.983 90.2658 112.829 90.3474L109.27 92.1707C109.116 92.2524 108.962 92.3159 108.79 92.3703C108.626 92.4247 108.445 92.4791 108.255 92.5245C108.445 92.5698 108.626 92.6243 108.79 92.6787C108.953 92.7331 109.116 92.8057 109.27 92.8783L112.829 94.7197C112.983 94.8013 113.092 94.8921 113.155 95.0009C113.218 95.1098 113.255 95.2277 113.255 95.3547V97.0873L105.484 93.0143V92.0256Z" fill="#B491FA"/>
<path d="M117.647 99.1645C117.593 99.3188 117.511 99.4458 117.421 99.5546C117.33 99.6635 117.221 99.7632 117.104 99.8358C116.986 99.9084 116.859 99.9719 116.732 100.008C116.606 100.044 116.47 100.072 116.352 100.072H115.329L121.062 85.3946C121.17 85.1225 121.333 84.9047 121.542 84.7596C121.75 84.6145 122.004 84.5419 122.293 84.5419H123.326L117.647 99.1645Z" fill="#B491FA"/>
<path d="M125.345 97.0782V95.3456C125.345 95.2186 125.382 95.0916 125.445 94.9918C125.508 94.883 125.617 94.7923 125.771 94.7106L129.33 92.8692C129.62 92.7241 129.955 92.6061 130.345 92.5154C130.155 92.4701 129.974 92.4156 129.81 92.3612C129.647 92.3068 129.484 92.2342 129.33 92.1617L125.771 90.3384C125.617 90.2567 125.508 90.166 125.445 90.0571C125.382 89.9483 125.345 89.8304 125.345 89.6943V87.9617L133.116 92.0165V92.9962L125.345 97.0782Z" fill="#B491FA"/>
<g opacity="0.64">
<path opacity="0.64" d="M240.558 107.583C240.476 107.583 240.404 107.555 240.34 107.492C240.223 107.374 240.223 107.174 240.349 107.056C240.53 106.884 240.703 106.703 240.884 106.521C241.001 106.403 241.192 106.394 241.318 106.512C241.436 106.63 241.445 106.821 241.327 106.948C241.146 107.129 240.965 107.31 240.784 107.492C240.712 107.555 240.63 107.583 240.558 107.583Z" fill="url(#paint37_linear)"/>
<path opacity="0.64" d="M221.547 115.62C221.384 115.62 221.248 115.484 221.239 115.32C221.239 115.148 221.366 115.012 221.538 115.012C222.027 115.003 222.534 114.976 223.024 114.939C223.187 114.93 223.341 115.048 223.35 115.22C223.359 115.393 223.241 115.538 223.069 115.547C222.571 115.583 222.064 115.61 221.547 115.62C221.556 115.62 221.556 115.62 221.547 115.62ZM220.044 115.62H220.035C219.528 115.601 219.02 115.574 218.513 115.538C218.341 115.52 218.223 115.375 218.233 115.211C218.251 115.048 218.396 114.921 218.559 114.93C219.048 114.976 219.555 115.003 220.044 115.012C220.216 115.021 220.343 115.157 220.343 115.329C220.343 115.484 220.207 115.62 220.044 115.62ZM224.554 115.384C224.4 115.384 224.273 115.275 224.255 115.121C224.237 114.957 224.355 114.803 224.518 114.776C225.007 114.712 225.505 114.631 225.994 114.54C226.157 114.513 226.32 114.622 226.347 114.785C226.375 114.948 226.266 115.112 226.103 115.139C225.605 115.23 225.098 115.311 224.599 115.384C224.581 115.384 224.572 115.384 224.554 115.384ZM217.037 115.366C217.019 115.366 217.01 115.366 216.992 115.366C216.485 115.293 215.986 115.211 215.488 115.121C215.325 115.084 215.217 114.93 215.244 114.767C215.271 114.604 215.434 114.495 215.597 114.522C216.086 114.613 216.575 114.694 217.073 114.767C217.236 114.794 217.354 114.948 217.336 115.112C217.318 115.257 217.182 115.366 217.037 115.366ZM227.516 114.83C227.38 114.83 227.253 114.74 227.217 114.595C227.181 114.431 227.28 114.268 227.443 114.223C227.923 114.105 228.403 113.969 228.883 113.833C229.046 113.787 229.218 113.878 229.264 114.032C229.309 114.195 229.218 114.368 229.064 114.413C228.575 114.558 228.086 114.694 227.597 114.812C227.57 114.821 227.543 114.83 227.516 114.83ZM214.075 114.794C214.048 114.794 214.03 114.794 214.003 114.785C213.514 114.667 213.016 114.522 212.536 114.377C212.373 114.331 212.282 114.159 212.336 113.996C212.382 113.833 212.554 113.742 212.717 113.796C213.188 113.941 213.677 114.077 214.157 114.195C214.32 114.232 214.42 114.404 214.383 114.567C214.338 114.703 214.211 114.794 214.075 114.794ZM230.405 113.95C230.278 113.95 230.16 113.869 230.115 113.751C230.061 113.597 230.142 113.415 230.296 113.361C230.758 113.189 231.229 113.007 231.682 112.817C231.836 112.753 232.017 112.826 232.08 112.98C232.144 113.134 232.071 113.316 231.917 113.379C231.446 113.579 230.975 113.769 230.495 113.932C230.477 113.95 230.441 113.95 230.405 113.95ZM211.186 113.914C211.15 113.914 211.114 113.905 211.078 113.896C210.598 113.724 210.127 113.533 209.656 113.334C209.502 113.27 209.429 113.089 209.493 112.935C209.556 112.78 209.737 112.708 209.891 112.771C210.344 112.962 210.815 113.152 211.277 113.325C211.431 113.379 211.512 113.56 211.458 113.715C211.431 113.833 211.313 113.914 211.186 113.914ZM233.185 112.771C233.077 112.771 232.968 112.708 232.914 112.599C232.841 112.445 232.905 112.263 233.059 112.191C233.502 111.973 233.946 111.737 234.381 111.501C234.526 111.42 234.716 111.474 234.797 111.619C234.879 111.764 234.825 111.955 234.68 112.036C234.236 112.281 233.783 112.517 233.33 112.744C233.276 112.762 233.231 112.771 233.185 112.771ZM208.415 112.726C208.37 112.726 208.324 112.717 208.279 112.699C207.826 112.472 207.373 112.236 206.93 111.991C206.785 111.909 206.73 111.719 206.812 111.574C206.893 111.429 207.074 111.374 207.228 111.456C207.663 111.701 208.107 111.928 208.551 112.145C208.705 112.218 208.768 112.399 208.687 112.554C208.632 112.662 208.533 112.726 208.415 112.726ZM235.821 111.311C235.721 111.311 235.622 111.256 235.558 111.166C235.468 111.021 235.513 110.83 235.658 110.748C236.074 110.485 236.5 110.204 236.899 109.923C237.035 109.823 237.225 109.859 237.324 109.995C237.424 110.132 237.388 110.322 237.252 110.422C236.835 110.712 236.41 110.993 235.984 111.265C235.939 111.293 235.875 111.311 235.821 111.311ZM205.788 111.256C205.734 111.256 205.68 111.238 205.625 111.211C205.2 110.939 204.774 110.658 204.357 110.358C204.222 110.259 204.185 110.068 204.285 109.932C204.385 109.796 204.575 109.76 204.711 109.859C205.118 110.15 205.535 110.422 205.951 110.694C206.096 110.785 206.133 110.975 206.042 111.111C205.988 111.202 205.888 111.256 205.788 111.256ZM238.293 109.578C238.203 109.578 238.112 109.542 238.058 109.46C237.958 109.324 237.976 109.134 238.112 109.034C238.502 108.726 238.891 108.408 239.263 108.081C239.389 107.973 239.579 107.982 239.688 108.109C239.797 108.236 239.788 108.426 239.661 108.535C239.281 108.871 238.891 109.197 238.493 109.515C238.42 109.551 238.357 109.578 238.293 109.578ZM203.325 109.506C203.262 109.506 203.189 109.487 203.135 109.442C202.736 109.125 202.347 108.798 201.966 108.462C201.84 108.354 201.831 108.154 201.939 108.027C202.048 107.9 202.247 107.891 202.365 108C202.736 108.326 203.117 108.653 203.506 108.961C203.642 109.07 203.66 109.261 203.551 109.388C203.506 109.469 203.415 109.506 203.325 109.506ZM201.07 107.51C200.988 107.51 200.916 107.483 200.852 107.419C200.49 107.065 200.137 106.694 199.793 106.322C199.675 106.195 199.684 106.004 199.811 105.886C199.938 105.777 200.128 105.777 200.246 105.904C200.581 106.267 200.925 106.63 201.278 106.984C201.396 107.102 201.396 107.292 201.278 107.419C201.224 107.483 201.151 107.51 201.07 107.51ZM199.041 105.278C198.95 105.278 198.869 105.242 198.806 105.17C198.489 104.78 198.172 104.371 197.873 103.963C197.773 103.827 197.8 103.637 197.936 103.537C198.072 103.437 198.262 103.464 198.362 103.6C198.652 103.999 198.96 104.399 199.277 104.78C199.385 104.907 199.367 105.106 199.231 105.206C199.177 105.26 199.104 105.278 199.041 105.278ZM197.257 102.847C197.157 102.847 197.058 102.802 197.003 102.711C196.722 102.285 196.46 101.85 196.206 101.414C196.125 101.269 196.17 101.079 196.315 100.997C196.46 100.915 196.65 100.961 196.732 101.106C196.976 101.532 197.239 101.958 197.51 102.376C197.601 102.521 197.565 102.702 197.42 102.802C197.375 102.829 197.32 102.847 197.257 102.847ZM195.753 100.226C195.645 100.226 195.536 100.162 195.482 100.063C195.373 99.854 195.264 99.6363 195.165 99.4185C195.047 99.1736 194.938 98.9287 194.83 98.6838C194.757 98.5296 194.83 98.3482 194.984 98.2847C195.138 98.2121 195.319 98.2847 195.382 98.4389C195.491 98.6747 195.599 98.9196 195.717 99.1555C195.817 99.3641 195.925 99.5818 196.025 99.7905C196.098 99.9447 196.043 100.126 195.889 100.199C195.844 100.217 195.799 100.226 195.753 100.226ZM194.522 97.4683C194.395 97.4683 194.286 97.3957 194.241 97.2687C194.06 96.797 193.888 96.3072 193.734 95.8264C193.679 95.6631 193.77 95.4907 193.933 95.4454C194.096 95.391 194.268 95.4817 194.313 95.645C194.467 96.1167 194.63 96.5884 194.811 97.051C194.875 97.2052 194.793 97.3866 194.639 97.441C194.594 97.4683 194.558 97.4683 194.522 97.4683ZM193.598 94.5927C193.462 94.5927 193.344 94.502 193.308 94.3659C193.181 93.8761 193.063 93.3772 192.955 92.8783C192.919 92.715 193.027 92.5517 193.19 92.5154C193.353 92.4791 193.516 92.588 193.553 92.7513C193.652 93.2411 193.77 93.731 193.897 94.2027C193.942 94.3659 193.842 94.5292 193.679 94.5746C193.652 94.5927 193.625 94.5927 193.598 94.5927ZM192.982 91.6355C192.837 91.6355 192.701 91.5267 192.683 91.3725C192.611 90.8735 192.547 90.3656 192.493 89.8576C192.475 89.6943 192.602 89.5401 192.765 89.522C192.937 89.5038 193.082 89.6308 193.1 89.7941C193.145 90.2839 193.208 90.7828 193.281 91.2727C193.308 91.436 193.19 91.5992 193.027 91.6174C193.009 91.6355 193 91.6355 192.982 91.6355ZM192.692 88.633C192.529 88.633 192.393 88.506 192.384 88.3427C192.366 87.9345 192.357 87.5263 192.357 87.1181V86.8188C192.357 86.6464 192.511 86.5103 192.665 86.5194C192.837 86.5194 192.973 86.6555 192.964 86.8278V87.1181C192.964 87.5172 192.973 87.9254 192.991 88.3155C193 88.4878 192.864 88.6239 192.701 88.633H192.692Z" fill="url(#paint38_linear)"/>
<path opacity="0.64" d="M192.72 85.5941C192.711 85.5941 192.711 85.5941 192.702 85.5941C192.53 85.5851 192.403 85.4399 192.421 85.2676C192.439 85.0136 192.457 84.7505 192.484 84.4965C192.503 84.3333 192.647 84.2063 192.82 84.2244C192.992 84.2426 193.109 84.3877 193.091 84.56C193.064 84.814 193.046 85.059 193.028 85.3129C193.019 85.4672 192.883 85.5941 192.72 85.5941Z" fill="url(#paint39_linear)"/>
</g>
<g opacity="0.64">
<path opacity="0.64" d="M202.338 66.1094C202.256 66.1094 202.166 66.0731 202.111 66.0005C202.003 65.8735 202.012 65.683 202.139 65.5742C202.329 65.4018 202.528 65.2386 202.727 65.0753C202.854 64.9664 203.053 64.9846 203.153 65.1206C203.262 65.2476 203.243 65.4472 203.108 65.547C202.917 65.7102 202.718 65.8735 202.537 66.0368C202.483 66.0912 202.41 66.1094 202.338 66.1094Z" fill="url(#paint40_linear)"/>
<path opacity="0.64" d="M248.99 88.9323C248.981 88.9323 248.981 88.9323 248.972 88.9323C248.799 88.9232 248.673 88.7781 248.682 88.6148C248.709 88.0978 248.727 87.5807 248.727 87.0727C248.727 86.9004 248.863 86.7643 249.035 86.7643C249.207 86.7643 249.343 86.9004 249.343 87.0727C249.343 87.5898 249.325 88.1159 249.298 88.642C249.289 88.8144 249.153 88.9323 248.99 88.9323ZM248.99 85.83C248.827 85.83 248.691 85.703 248.682 85.5397C248.655 85.0317 248.609 84.5147 248.555 84.0067C248.537 83.8434 248.655 83.6892 248.827 83.6711C248.99 83.6529 249.144 83.7709 249.162 83.9432C249.216 84.4603 249.261 84.9864 249.289 85.5125C249.298 85.6849 249.171 85.8209 248.999 85.83C249.008 85.83 248.999 85.83 248.99 85.83ZM248.645 82.7367C248.501 82.7367 248.374 82.6279 248.347 82.4827C248.265 81.9838 248.165 81.4759 248.048 80.9769C248.012 80.8137 248.111 80.6504 248.274 80.6141C248.437 80.5778 248.6 80.6776 248.636 80.8409C248.754 81.3489 248.854 81.875 248.935 82.383C248.962 82.5462 248.854 82.7095 248.682 82.7367C248.682 82.7367 248.664 82.7367 248.645 82.7367ZM247.966 79.6979C247.83 79.6979 247.713 79.6072 247.676 79.4802C247.541 78.9904 247.378 78.4915 247.215 78.0107C247.16 77.8474 247.242 77.6751 247.405 77.6206C247.559 77.5662 247.74 77.6478 247.794 77.8111C247.966 78.301 248.12 78.8089 248.265 79.3079C248.31 79.4711 248.22 79.6344 248.057 79.6888C248.021 79.6979 247.993 79.6979 247.966 79.6979ZM246.952 76.7589C246.834 76.7589 246.716 76.6863 246.671 76.5684C246.481 76.0967 246.273 75.625 246.055 75.1624C245.983 75.0081 246.046 74.8267 246.2 74.7542C246.354 74.6816 246.535 74.7451 246.608 74.8993C246.834 75.371 247.042 75.8608 247.242 76.3416C247.305 76.4958 247.233 76.6772 247.079 76.7407C247.033 76.7498 246.988 76.7589 246.952 76.7589ZM245.62 73.9468C245.512 73.9468 245.403 73.8924 245.349 73.7835C245.104 73.3391 244.851 72.8855 244.579 72.4501C244.488 72.305 244.534 72.1145 244.679 72.0328C244.823 71.9421 245.014 71.9875 245.095 72.1326C245.367 72.5771 245.63 73.0397 245.883 73.4933C245.965 73.6384 245.91 73.8289 245.756 73.9105C245.72 73.9378 245.675 73.9468 245.62 73.9468ZM243.999 71.2981C243.9 71.2981 243.809 71.2527 243.746 71.162C243.456 70.7447 243.148 70.3274 242.84 69.9192C242.74 69.7832 242.759 69.5927 242.894 69.4929C243.03 69.3931 243.22 69.4113 243.32 69.5473C243.637 69.9646 243.954 70.3909 244.253 70.8173C244.353 70.9534 244.316 71.1439 244.171 71.2436C244.117 71.2799 244.063 71.2981 243.999 71.2981ZM242.097 68.8489C242.016 68.8489 241.925 68.8126 241.871 68.74C241.536 68.359 241.192 67.978 240.829 67.6061C240.712 67.4882 240.712 67.2886 240.838 67.1707C240.956 67.0528 241.155 67.0528 241.273 67.1798C241.635 67.5517 241.998 67.9417 242.333 68.3318C242.442 68.4588 242.432 68.6493 242.306 68.7581C242.233 68.8216 242.161 68.8489 242.097 68.8489ZM239.933 66.6174C239.86 66.6174 239.788 66.5901 239.724 66.5357C239.353 66.191 238.964 65.8554 238.565 65.5288C238.438 65.42 238.42 65.2295 238.52 65.1025C238.629 64.9755 238.819 64.9573 238.946 65.0571C239.353 65.3928 239.752 65.7375 240.132 66.0912C240.259 66.2092 240.268 66.3997 240.15 66.5267C240.096 66.5901 240.014 66.6174 239.933 66.6174ZM204.14 64.6671C204.05 64.6671 203.95 64.6217 203.896 64.5401C203.796 64.404 203.823 64.2135 203.959 64.1137C204.376 63.8053 204.81 63.506 205.245 63.2157C205.39 63.125 205.571 63.1613 205.671 63.3064C205.761 63.4515 205.725 63.633 205.58 63.7327C205.154 64.0139 204.729 64.3042 204.321 64.6126C204.267 64.6489 204.203 64.6671 204.14 64.6671ZM237.533 64.6489C237.469 64.6489 237.406 64.6308 237.352 64.5854C236.944 64.2861 236.518 63.9867 236.093 63.7146C235.948 63.6239 235.912 63.4334 236.002 63.2883C236.093 63.1431 236.283 63.1068 236.428 63.1976C236.863 63.4788 237.297 63.7872 237.723 64.0956C237.859 64.1954 237.886 64.3859 237.786 64.5219C237.714 64.6036 237.623 64.6489 237.533 64.6489ZM206.748 62.9617C206.64 62.9617 206.54 62.9073 206.486 62.8075C206.404 62.6624 206.45 62.4719 206.594 62.3902C207.047 62.1272 207.509 61.8732 207.971 61.6464C208.125 61.5738 208.306 61.6282 208.379 61.7825C208.451 61.9367 208.397 62.1181 208.243 62.1907C207.79 62.4174 207.337 62.6714 206.893 62.9254C206.848 62.9526 206.794 62.9617 206.748 62.9617ZM234.933 62.9526C234.879 62.9526 234.834 62.9436 234.779 62.9163C234.336 62.6624 233.883 62.4174 233.43 62.1816C233.276 62.109 233.222 61.9185 233.294 61.7734C233.367 61.6282 233.557 61.5647 233.702 61.6373C234.164 61.8732 234.635 62.1272 235.087 62.3811C235.232 62.4628 235.287 62.6533 235.196 62.7984C235.142 62.8982 235.033 62.9526 234.933 62.9526ZM209.511 61.5557C209.393 61.5557 209.284 61.4831 209.23 61.3743C209.167 61.22 209.23 61.0386 209.384 60.9751C209.864 60.7665 210.353 60.5669 210.833 60.3855C210.987 60.322 211.168 60.4036 211.223 60.5669C211.286 60.7211 211.204 60.9026 211.041 60.957C210.561 61.1384 210.081 61.3289 209.619 61.5375C209.601 61.5557 209.556 61.5557 209.511 61.5557ZM232.162 61.5466C232.117 61.5466 232.08 61.5375 232.044 61.5194C231.582 61.3198 231.102 61.1203 230.622 60.9388C230.468 60.8753 230.387 60.703 230.441 60.5488C230.505 60.3946 230.677 60.3129 230.831 60.3674C231.32 60.5488 231.809 60.7483 232.289 60.957C232.443 61.0205 232.515 61.2019 232.443 61.3561C232.388 61.4831 232.28 61.5466 232.162 61.5466ZM212.418 60.4671C212.291 60.4671 212.164 60.3855 212.128 60.2494C212.074 60.0862 212.164 59.9138 212.327 59.8684C212.826 59.7142 213.333 59.5691 213.84 59.4421C214.003 59.3967 214.166 59.4965 214.211 59.6598C214.257 59.8231 214.157 59.9864 213.994 60.0317C213.496 60.1587 212.998 60.3039 212.518 60.449C212.481 60.4581 212.454 60.4671 212.418 60.4671ZM229.246 60.4581C229.219 60.4581 229.182 60.449 229.155 60.4399C228.666 60.2857 228.177 60.1497 227.679 60.0227C227.516 59.9773 227.416 59.814 227.461 59.6507C227.507 59.4875 227.67 59.3877 227.833 59.433C228.34 59.56 228.847 59.7052 229.345 59.8594C229.508 59.9138 229.599 60.0771 229.545 60.2404C229.499 60.3764 229.382 60.4581 229.246 60.4581ZM215.434 59.6961C215.289 59.6961 215.162 59.5963 215.135 59.4512C215.099 59.2879 215.208 59.1246 215.38 59.0974C215.896 58.9976 216.412 58.9069 216.928 58.8343C217.091 58.8071 217.245 58.9251 217.273 59.0974C217.3 59.2607 217.182 59.4149 217.01 59.4421C216.503 59.5147 215.995 59.5963 215.497 59.6961C215.47 59.6961 215.452 59.6961 215.434 59.6961ZM226.239 59.6961C226.221 59.6961 226.203 59.6961 226.175 59.687C225.677 59.5872 225.161 59.5056 224.663 59.433C224.5 59.4058 224.382 59.2516 224.4 59.0883C224.427 58.9251 224.581 58.8071 224.744 58.8253C225.261 58.8978 225.777 58.9886 226.293 59.0883C226.456 59.1246 226.565 59.2788 226.538 59.4421C226.511 59.5963 226.384 59.6961 226.239 59.6961ZM223.159 59.2698C223.15 59.2698 223.141 59.2698 223.132 59.2698C222.625 59.2244 222.109 59.1972 221.602 59.1881C221.43 59.179 221.303 59.043 221.303 58.8706C221.312 58.6983 221.457 58.5713 221.62 58.5713C222.145 58.5894 222.67 58.6166 223.187 58.662C223.359 58.6801 223.476 58.8253 223.467 58.9885C223.449 59.1428 223.323 59.2698 223.159 59.2698ZM218.504 59.2698C218.35 59.2698 218.214 59.1518 218.205 58.9885C218.187 58.8162 218.314 58.6711 218.486 58.662C219.002 58.6166 219.537 58.5894 220.053 58.5713C220.216 58.5622 220.361 58.6983 220.37 58.8706C220.37 59.043 220.243 59.179 220.071 59.1881C219.564 59.2063 219.048 59.2335 218.54 59.2698C218.522 59.2698 218.513 59.2698 218.504 59.2698Z" fill="url(#paint41_linear)"/>
<path opacity="0.64" d="M248.763 91.2636C248.745 91.2636 248.736 91.2636 248.718 91.2636C248.555 91.2364 248.437 91.0822 248.455 90.9189C248.492 90.674 248.519 90.42 248.546 90.1751C248.564 90.0118 248.718 89.8848 248.881 89.9029C249.044 89.9211 249.171 90.0753 249.153 90.2386C249.126 90.4926 249.089 90.7466 249.053 91.0005C249.044 91.1548 248.917 91.2636 248.763 91.2636Z" fill="url(#paint42_linear)"/>
</g>
<path d="M245.077 93.6493C245.14 93.4951 245.095 93.3137 244.968 93.2048L241.327 90.1207C241.635 87.9073 241.599 85.6395 241.183 83.3808L244.678 80.1333C244.805 80.0154 244.842 79.8431 244.769 79.6889L242.46 74.4458C242.396 74.2915 242.233 74.2008 242.07 74.2099L237.315 74.609C235.939 72.7767 234.29 71.2074 232.452 69.9465L232.633 65.1751C232.642 65.0118 232.542 64.8576 232.379 64.7941L227.045 62.7168C226.891 62.6533 226.71 62.6986 226.601 62.8256L223.522 66.4722C221.312 66.1638 219.048 66.2001 216.792 66.6174L213.55 63.1159C213.432 62.9889 213.26 62.9526 213.106 63.0252L207.871 65.3383C207.717 65.4018 207.627 65.5651 207.636 65.7284L208.034 70.4907C206.205 71.8696 204.638 73.5205 203.379 75.3619L198.615 75.1805C198.452 75.1714 198.298 75.2712 198.235 75.4345L196.161 80.7774C196.097 80.9316 196.143 81.113 196.27 81.2219L199.91 84.3061C199.603 86.5194 199.639 88.7872 200.055 91.0459L196.559 94.2934C196.433 94.4113 196.396 94.5836 196.469 94.7379L198.778 99.981C198.842 100.135 199.005 100.226 199.168 100.217L203.923 99.8177C205.299 101.65 206.948 103.219 208.786 104.48L208.605 109.252C208.596 109.415 208.696 109.569 208.859 109.633L214.193 111.71C214.347 111.773 214.528 111.728 214.637 111.601L217.716 107.954C219.926 108.263 222.19 108.227 224.445 107.809L227.688 111.311C227.806 111.438 227.978 111.474 228.132 111.402L233.366 109.088C233.52 109.025 233.611 108.862 233.602 108.698L233.203 103.936C235.033 102.557 236.6 100.906 237.859 99.0648L242.623 99.2462C242.786 99.2553 242.94 99.1555 243.003 98.9922L245.077 93.6493Z" fill="url(#paint43_linear)"/>
<path d="M220.623 92.5971C219.02 92.5971 217.426 91.8805 216.367 90.5198C214.537 88.1704 214.963 84.7778 217.3 82.9454C218.432 82.0564 219.845 81.6664 221.276 81.8478C222.707 82.0292 223.974 82.7458 224.862 83.8888C225.75 85.0227 226.139 86.4378 225.958 87.871C225.777 89.3043 225.061 90.5742 223.92 91.4632C222.942 92.2252 221.783 92.5971 220.623 92.5971ZM220.605 82.4193C219.546 82.4193 218.522 82.773 217.68 83.4352C215.606 85.059 215.226 88.0706 216.847 90.1479C218.468 92.2252 221.475 92.5971 223.549 90.9824C224.554 90.1932 225.197 89.0684 225.351 87.7984C225.505 86.5285 225.161 85.2767 224.382 84.2698C223.594 83.2629 222.471 82.6188 221.203 82.4646C221.004 82.4283 220.805 82.4193 220.605 82.4193Z" fill="#B491FA"/>
<path d="M220.515 101.305C215.09 101.305 209.9 98.1486 207.573 92.8692C206.757 91.0187 206.377 89.0865 206.377 87.1907C206.377 81.7571 209.529 76.5593 214.8 74.2371C218.251 72.7132 222.091 72.6315 225.605 74.0013C229.119 75.371 231.89 78.0288 233.412 81.4849C233.819 82.4102 234.127 83.3717 234.327 84.3514C234.327 84.3696 234.336 84.3968 234.336 84.4149C234.336 84.56 234.236 84.687 234.091 84.7143C233.928 84.7505 233.765 84.6417 233.729 84.4784C233.539 83.5441 233.24 82.6188 232.85 81.7389C232.76 81.5394 232.669 81.3489 232.579 81.1584C232.579 81.1493 232.569 81.1402 232.569 81.1402C232.569 81.1402 232.569 81.1402 232.569 81.1312C231.066 78.1286 228.539 75.8155 225.387 74.5909C222.027 73.2846 218.35 73.3663 215.054 74.8177C210 77.0492 206.993 82.0111 206.993 87.2179C206.993 89.0321 207.364 90.8826 208.134 92.6515C211.132 99.482 219.12 102.584 225.94 99.5818C228.177 98.5931 230.106 97.0147 231.519 95.0281C231.619 94.8921 231.809 94.8558 231.945 94.9556C232.026 95.0191 232.071 95.1098 232.071 95.2095C232.071 95.273 232.053 95.3275 232.017 95.3819C230.55 97.4592 228.53 99.1101 226.193 100.144C224.346 100.924 222.417 101.305 220.515 101.305Z" fill="#B491FA"/>
<g opacity="0.64">
<path opacity="0.64" d="M199.729 72.2596C199.648 72.2596 199.566 72.2324 199.512 72.1689C199.394 72.051 199.394 71.8514 199.521 71.7335C199.702 71.5611 199.883 71.3797 200.055 71.1983C200.173 71.0804 200.363 71.0713 200.49 71.1892C200.608 71.3071 200.617 71.4976 200.499 71.6246C200.318 71.806 200.137 71.9875 199.956 72.1689C199.883 72.2324 199.811 72.2596 199.729 72.2596Z" fill="url(#paint44_linear)"/>
<path opacity="0.64" d="M184.106 78.5822C183.69 78.5822 183.273 78.5731 182.866 78.5459C182.693 78.5368 182.567 78.3917 182.576 78.2284C182.585 78.0561 182.73 77.9291 182.893 77.9381C183.4 77.9653 183.907 77.9744 184.414 77.9653C184.577 77.9653 184.713 78.1014 184.722 78.2647C184.722 78.437 184.586 78.5731 184.423 78.5731C184.315 78.5822 184.215 78.5822 184.106 78.5822ZM185.963 78.5096C185.809 78.5096 185.673 78.3917 185.664 78.2284C185.646 78.0561 185.773 77.9109 185.945 77.9018C186.452 77.8565 186.959 77.8021 187.457 77.7204C187.62 77.6932 187.783 77.8111 187.802 77.9744C187.829 78.1377 187.711 78.301 187.548 78.3191C187.032 78.4008 186.515 78.4552 185.999 78.5005C185.972 78.5096 185.963 78.5096 185.963 78.5096ZM181.344 78.4189C181.335 78.4189 181.317 78.4189 181.308 78.4189C180.792 78.3554 180.275 78.2738 179.768 78.174C179.605 78.1377 179.496 77.9835 179.524 77.8202C179.56 77.6569 179.714 77.5481 179.877 77.5753C180.375 77.6751 180.873 77.7476 181.38 77.8111C181.543 77.8293 181.67 77.9835 181.643 78.1558C181.625 78.301 181.498 78.4189 181.344 78.4189ZM189.006 78.0379C188.87 78.0379 188.743 77.9381 188.707 77.8021C188.671 77.6388 188.771 77.4755 188.934 77.4392C189.423 77.3304 189.921 77.1943 190.401 77.0582C190.564 77.0129 190.736 77.1036 190.781 77.2669C190.827 77.4301 190.736 77.6025 190.573 77.6478C190.075 77.793 189.568 77.9291 189.06 78.047C189.051 78.0379 189.024 78.0379 189.006 78.0379ZM178.319 77.8293C178.292 77.8293 178.265 77.8293 178.237 77.8202C177.739 77.6841 177.232 77.539 176.743 77.3666C176.58 77.3122 176.499 77.1399 176.553 76.9766C176.607 76.8133 176.779 76.7317 176.942 76.7861C177.422 76.9494 177.911 77.0945 178.401 77.2306C178.564 77.2759 178.663 77.4392 178.618 77.6025C178.573 77.7386 178.455 77.8293 178.319 77.8293ZM191.959 77.158C191.832 77.158 191.723 77.0854 191.669 76.9584C191.605 76.8042 191.687 76.6228 191.85 76.5684C192.321 76.396 192.792 76.1965 193.254 75.9878C193.408 75.9153 193.589 75.9878 193.661 76.142C193.734 76.2963 193.661 76.4777 193.507 76.5502C193.036 76.768 192.547 76.9675 192.067 77.1489C192.031 77.158 191.995 77.158 191.959 77.158ZM175.403 76.8405C175.366 76.8405 175.321 76.8314 175.285 76.8133C174.805 76.6137 174.334 76.396 173.863 76.1602C173.709 76.0876 173.655 75.8971 173.727 75.752C173.8 75.5978 173.99 75.5433 174.135 75.6159C174.588 75.8427 175.049 76.0604 175.52 76.2509C175.674 76.3144 175.747 76.4958 175.683 76.65C175.638 76.7679 175.52 76.8405 175.403 76.8405ZM194.766 75.888C194.658 75.888 194.549 75.8336 194.495 75.7248C194.413 75.5796 194.467 75.3891 194.621 75.3075C195.065 75.0716 195.509 74.8086 195.935 74.5455C196.079 74.4548 196.261 74.5002 196.351 74.6453C196.442 74.7904 196.396 74.9809 196.252 75.0626C195.808 75.3347 195.355 75.6068 194.902 75.8518C194.866 75.879 194.812 75.888 194.766 75.888ZM172.649 75.4526C172.595 75.4526 172.541 75.4436 172.495 75.4073C172.052 75.1442 171.608 74.863 171.173 74.5637C171.037 74.473 171.001 74.2825 171.092 74.1373C171.182 74.0013 171.372 73.965 171.517 74.0557C171.934 74.3369 172.369 74.6181 172.803 74.8721C172.948 74.9537 172.994 75.1442 172.912 75.2894C172.849 75.3982 172.749 75.4526 172.649 75.4526ZM197.375 74.2462C197.284 74.2462 197.184 74.2008 197.13 74.1192C197.03 73.9831 197.058 73.7926 197.193 73.6928C197.601 73.3935 198.009 73.076 198.389 72.7585C198.516 72.6497 198.715 72.6678 198.815 72.7948C198.923 72.9218 198.905 73.1123 198.778 73.2211C198.38 73.5568 197.963 73.8833 197.547 74.1827C197.501 74.228 197.438 74.2462 197.375 74.2462ZM170.104 73.711C170.041 73.711 169.969 73.6928 169.914 73.6475C169.507 73.3209 169.108 72.9853 168.719 72.6315C168.592 72.5227 168.583 72.3231 168.701 72.1961C168.818 72.0691 169.009 72.06 169.135 72.178C169.507 72.5136 169.896 72.8492 170.295 73.1667C170.43 73.2756 170.449 73.4661 170.349 73.5931C170.286 73.6747 170.195 73.711 170.104 73.711ZM167.822 71.6428C167.741 71.6428 167.659 71.6156 167.605 71.5521C167.242 71.1801 166.898 70.781 166.563 70.3819C166.455 70.2549 166.473 70.0644 166.599 69.9555C166.726 69.8467 166.916 69.8648 167.025 69.9918C167.351 70.3819 167.686 70.7629 168.039 71.1257C168.157 71.2436 168.148 71.4432 168.03 71.5611C167.976 71.6065 167.904 71.6428 167.822 71.6428ZM165.848 69.2661C165.757 69.2661 165.658 69.2208 165.603 69.1391C165.304 68.7219 165.005 68.2865 164.734 67.842C164.643 67.6968 164.688 67.5063 164.833 67.4247C164.978 67.334 165.159 67.3793 165.25 67.5245C165.522 67.9508 165.802 68.3772 166.101 68.7854C166.201 68.9214 166.165 69.1119 166.029 69.2117C165.974 69.248 165.911 69.2661 165.848 69.2661ZM164.217 66.6536C164.109 66.6536 164 66.5992 163.946 66.4904C163.792 66.2001 163.638 65.8917 163.493 65.5923C163.411 65.42 163.33 65.2567 163.257 65.0843C163.185 64.9301 163.257 64.7487 163.411 64.6761C163.565 64.6036 163.747 64.6761 163.81 64.8304C163.882 64.9936 163.964 65.1569 164.036 65.3202C164.181 65.6105 164.326 65.9098 164.48 66.191C164.562 66.3362 164.507 66.5266 164.353 66.6083C164.317 66.6446 164.272 66.6536 164.217 66.6536ZM162.959 63.8416C162.832 63.8416 162.714 63.769 162.669 63.642C162.488 63.1522 162.325 62.6533 162.18 62.1544C162.134 61.9911 162.225 61.8187 162.388 61.7734C162.551 61.728 162.723 61.8187 162.768 61.982C162.913 62.4628 163.076 62.9526 163.248 63.4243C163.303 63.5785 163.23 63.76 163.067 63.8144C163.031 63.8325 162.995 63.8416 162.959 63.8416ZM162.089 60.8753C161.953 60.8753 161.826 60.7756 161.79 60.6395C161.682 60.1315 161.582 59.6145 161.509 59.0974C161.482 58.9341 161.6 58.7708 161.763 58.7527C161.926 58.7255 162.089 58.8434 162.107 59.0067C162.18 59.5056 162.279 60.0136 162.388 60.5034C162.424 60.6667 162.325 60.83 162.153 60.8663C162.125 60.8753 162.107 60.8753 162.089 60.8753ZM161.627 57.8274C161.473 57.8274 161.337 57.7095 161.319 57.5462C161.274 57.0292 161.256 56.5031 161.247 55.986C161.247 55.8137 161.383 55.6776 161.546 55.6776C161.709 55.6776 161.854 55.8137 161.854 55.9769C161.863 56.4849 161.881 56.9929 161.926 57.5009C161.935 57.6732 161.817 57.8184 161.645 57.8274C161.645 57.8274 161.636 57.8274 161.627 57.8274Z" fill="url(#paint45_linear)"/>
<path opacity="0.64" d="M161.6 54.7342C161.591 54.7342 161.591 54.7342 161.582 54.7342C161.41 54.7251 161.283 54.58 161.292 54.4076C161.31 54.1536 161.328 53.8906 161.346 53.6366C161.365 53.4733 161.509 53.3463 161.682 53.3645C161.845 53.3826 161.971 53.5277 161.953 53.7001C161.926 53.9541 161.908 54.199 161.899 54.453C161.89 54.6072 161.754 54.7342 161.6 54.7342Z" fill="url(#paint46_linear)"/>
</g>
<g opacity="0.64">
<path opacity="0.64" d="M169.289 39.0049C169.208 39.0049 169.117 38.9686 169.063 38.896C168.954 38.769 168.963 38.5785 169.09 38.4697C169.28 38.2973 169.48 38.134 169.679 37.9708C169.806 37.8619 170.005 37.8891 170.105 38.0161C170.213 38.1431 170.186 38.3427 170.059 38.4425C169.86 38.5967 169.67 38.7599 169.489 38.9232C169.434 38.9777 169.362 39.0049 169.289 39.0049Z" fill="url(#paint47_linear)"/>
<path opacity="0.64" d="M206.604 56.8296H206.594C206.422 56.8206 206.296 56.6845 206.305 56.5121C206.314 56.24 206.323 55.9679 206.323 55.6957C206.323 55.469 206.323 55.2422 206.314 55.0063C206.305 54.834 206.44 54.6979 206.613 54.6888C206.785 54.6888 206.92 54.8158 206.93 54.9882C206.939 55.224 206.939 55.4599 206.939 55.6957C206.939 55.9769 206.93 56.2491 206.92 56.5303C206.902 56.6936 206.767 56.8296 206.604 56.8296ZM206.513 53.7908C206.359 53.7908 206.223 53.6729 206.214 53.5187C206.169 53.0288 206.096 52.5208 206.015 52.031C205.988 51.8677 206.096 51.7044 206.268 51.6772C206.431 51.65 206.594 51.7589 206.622 51.9312C206.703 52.4392 206.776 52.9472 206.821 53.4552C206.839 53.6184 206.712 53.7727 206.549 53.7908C206.531 53.7908 206.522 53.7908 206.513 53.7908ZM206.006 50.7973C205.87 50.7973 205.743 50.7066 205.707 50.5615C205.589 50.0807 205.462 49.5909 205.308 49.1192C205.254 48.9559 205.345 48.7835 205.508 48.7382C205.671 48.6838 205.843 48.7745 205.888 48.9377C206.042 49.4276 206.178 49.9265 206.296 50.4254C206.332 50.5887 206.232 50.752 206.069 50.7973C206.051 50.7973 206.033 50.7973 206.006 50.7973ZM205.109 47.8946C204.991 47.8946 204.874 47.822 204.828 47.695C204.647 47.2324 204.448 46.7698 204.24 46.3162C204.167 46.162 204.231 45.9806 204.385 45.908C204.539 45.8354 204.72 45.8989 204.792 46.0531C205.009 46.5158 205.209 46.9965 205.399 47.4682C205.462 47.6224 205.381 47.8039 205.227 47.8674C205.182 47.8946 205.145 47.8946 205.109 47.8946ZM203.823 45.146C203.714 45.146 203.615 45.0916 203.551 44.9918C203.307 44.5564 203.053 44.121 202.791 43.7037C202.7 43.5586 202.745 43.3772 202.881 43.2864C203.026 43.1957 203.207 43.2411 203.298 43.3772C203.569 43.8035 203.832 44.248 204.086 44.7015C204.167 44.8467 204.113 45.0372 203.968 45.1188C203.923 45.1279 203.877 45.146 203.823 45.146ZM202.193 42.588C202.102 42.588 202.012 42.5426 201.948 42.461C201.649 42.0618 201.341 41.6627 201.015 41.2908C200.907 41.1638 200.925 40.9733 201.052 40.8645C201.178 40.7556 201.369 40.7737 201.477 40.9007C201.803 41.2908 202.129 41.699 202.428 42.1072C202.528 42.2433 202.501 42.4338 202.365 42.5335C202.32 42.5698 202.256 42.588 202.193 42.588ZM200.227 40.2748C200.146 40.2748 200.064 40.2476 200.01 40.1841C199.666 39.8303 199.304 39.4766 198.932 39.15C198.806 39.0412 198.796 38.8416 198.905 38.7146C199.014 38.5876 199.213 38.5785 199.34 38.6874C199.72 39.0321 200.092 39.3859 200.445 39.7487C200.563 39.8666 200.563 40.0662 200.436 40.1841C200.381 40.2476 200.309 40.2748 200.227 40.2748ZM197.972 38.2429C197.909 38.2429 197.836 38.2248 197.782 38.1794C197.393 37.871 196.985 37.5807 196.578 37.2995C196.442 37.2088 196.406 37.0183 196.496 36.8732C196.587 36.7371 196.777 36.7008 196.922 36.7915C197.347 37.0818 197.764 37.3811 198.163 37.6986C198.298 37.7984 198.316 37.998 198.217 38.125C198.153 38.2066 198.063 38.2429 197.972 38.2429ZM171.083 37.5988C170.983 37.5988 170.892 37.5535 170.829 37.4719C170.729 37.3358 170.766 37.1453 170.901 37.0455C171.318 36.7552 171.753 36.465 172.187 36.2019C172.332 36.1112 172.523 36.1565 172.604 36.3017C172.695 36.4468 172.649 36.6373 172.504 36.7189C172.079 36.982 171.662 37.2541 171.255 37.5444C171.2 37.5807 171.146 37.5988 171.083 37.5988ZM195.464 36.5466C195.409 36.5466 195.355 36.5375 195.31 36.5012C194.884 36.2473 194.44 36.0114 193.996 35.7937C193.842 35.7211 193.788 35.5397 193.861 35.3855C193.933 35.2313 194.114 35.1769 194.268 35.2494C194.721 35.4762 195.183 35.7211 195.618 35.9842C195.762 36.0658 195.808 36.2563 195.726 36.4015C195.672 36.4922 195.572 36.5466 195.464 36.5466ZM173.673 36.0114C173.564 36.0114 173.455 35.9479 173.401 35.8481C173.32 35.703 173.383 35.5125 173.528 35.4399C173.754 35.322 173.99 35.2041 174.225 35.0952C174.452 34.9864 174.687 34.8775 174.914 34.7777C175.068 34.7052 175.249 34.7777 175.312 34.9319C175.375 35.0861 175.312 35.2676 175.158 35.3311C174.932 35.4308 174.705 35.5306 174.488 35.6395C174.261 35.7483 174.035 35.8663 173.809 35.9751C173.763 36.0023 173.718 36.0114 173.673 36.0114ZM192.747 35.195C192.71 35.195 192.665 35.1859 192.629 35.1678C192.167 34.9773 191.696 34.7959 191.225 34.6417C191.062 34.5872 190.98 34.4149 191.035 34.2516C191.089 34.0883 191.261 34.0067 191.424 34.0611C191.904 34.2244 192.393 34.4058 192.864 34.6054C193.018 34.6689 193.091 34.8503 193.027 35.0045C192.982 35.1224 192.873 35.195 192.747 35.195ZM176.444 34.7959C176.317 34.7959 176.2 34.7142 176.154 34.5963C176.1 34.4421 176.182 34.2607 176.336 34.2062C176.816 34.0339 177.305 33.8706 177.794 33.7345C177.957 33.6892 178.129 33.7799 178.174 33.9432C178.219 34.1065 178.129 34.2697 177.966 34.3242C177.486 34.4602 177.006 34.6144 176.544 34.7868C176.517 34.7868 176.48 34.7959 176.444 34.7959ZM189.876 34.2153C189.848 34.2153 189.821 34.2153 189.794 34.2062C189.314 34.0793 188.825 33.9613 188.336 33.8706C188.173 33.8343 188.064 33.6801 188.091 33.5168C188.128 33.3536 188.281 33.2447 188.445 33.2719C188.943 33.3717 189.45 33.4896 189.939 33.6166C190.102 33.662 190.202 33.8253 190.156 33.9885C190.138 34.1246 190.011 34.2153 189.876 34.2153ZM179.361 33.9523C179.216 33.9523 179.098 33.8525 179.062 33.7073C179.025 33.5441 179.134 33.3808 179.297 33.3445C179.795 33.2356 180.302 33.1449 180.81 33.0724C180.973 33.0451 181.127 33.1631 181.154 33.3263C181.181 33.4896 181.063 33.6438 180.9 33.6711C180.411 33.7436 179.913 33.8343 179.424 33.9341C179.406 33.9523 179.379 33.9523 179.361 33.9523ZM186.905 33.6348C186.896 33.6348 186.878 33.6348 186.869 33.6348C186.371 33.5713 185.872 33.5259 185.383 33.4987C185.211 33.4896 185.084 33.3445 185.093 33.1721C185.103 32.9998 185.247 32.8728 185.42 32.8819C185.927 32.9091 186.443 32.9635 186.95 33.027C187.113 33.0451 187.231 33.1994 187.213 33.3717C187.186 33.5168 187.059 33.6348 186.905 33.6348ZM182.358 33.5168C182.204 33.5168 182.068 33.3989 182.05 33.2356C182.041 33.0633 182.159 32.9181 182.331 32.9091C182.838 32.8728 183.355 32.8456 183.871 32.8456C184.034 32.8456 184.17 32.9816 184.179 33.1449C184.179 33.3173 184.043 33.4533 183.88 33.4533C183.382 33.4533 182.884 33.4806 182.385 33.5168C182.376 33.5168 182.367 33.5168 182.358 33.5168Z" fill="url(#paint48_linear)"/>
<path opacity="0.64" d="M206.404 59.1065C206.386 59.1065 206.377 59.1065 206.359 59.1065C206.196 59.0793 206.078 58.9251 206.096 58.7618C206.133 58.5169 206.16 58.2629 206.187 58.0179C206.205 57.8547 206.35 57.7277 206.522 57.7458C206.685 57.764 206.812 57.9091 206.794 58.0814C206.767 58.3354 206.739 58.5894 206.703 58.8525C206.685 58.9976 206.558 59.1065 206.404 59.1065Z" fill="url(#paint49_linear)"/>
</g>
<path d="M203.452 60.9479C203.497 60.8209 203.461 60.6848 203.361 60.5941L200.454 58.1268C200.708 56.3579 200.671 54.5437 200.336 52.7385L203.135 50.1442C203.234 50.0535 203.262 49.9084 203.207 49.7904L201.36 45.5996C201.305 45.4726 201.178 45.4 201.043 45.4091L197.248 45.7266C196.143 44.257 194.83 43.0052 193.353 41.9983L193.498 38.1794C193.507 38.0433 193.426 37.9254 193.299 37.871L189.033 36.211C188.906 36.1656 188.771 36.2019 188.68 36.3017L186.217 39.2135C184.45 38.9595 182.639 38.9958 180.837 39.3314L178.247 36.5284C178.156 36.4287 178.011 36.4015 177.893 36.4559L173.709 38.3064C173.582 38.3608 173.51 38.4878 173.519 38.6239L173.836 42.4247C172.369 43.5314 171.119 44.8467 170.113 46.3253L166.301 46.1801C166.165 46.1711 166.047 46.2527 165.993 46.3797L164.335 50.6522C164.29 50.7792 164.326 50.9152 164.426 51.006L167.333 53.4733C167.079 55.2422 167.116 57.0564 167.451 58.8616L164.652 61.4559C164.553 61.5466 164.525 61.6917 164.58 61.8097L166.427 66.0005C166.482 66.1275 166.608 66.2001 166.744 66.191L170.539 65.8735C171.644 67.3431 172.957 68.5949 174.434 69.6018L174.289 73.4207C174.28 73.5568 174.361 73.6747 174.488 73.7291L178.754 75.3891C178.88 75.4345 179.016 75.3982 179.107 75.2984L181.57 72.3866C183.336 72.6406 185.148 72.6043 186.95 72.2687L189.54 75.0716C189.631 75.1714 189.776 75.1986 189.894 75.1442L194.078 73.2937C194.205 73.2393 194.277 73.1123 194.268 72.9762L193.951 69.1754C195.418 68.0687 196.668 66.7534 197.673 65.2748L201.486 65.42C201.622 65.429 201.74 65.3474 201.794 65.2204L203.452 60.9479Z" fill="url(#paint50_linear)"/>
<path d="M183.907 60.1769C183.726 60.1769 183.545 60.1678 183.364 60.1406C182.204 59.9954 181.172 59.4058 180.456 58.4896C179.741 57.5644 179.424 56.4214 179.569 55.2603C179.714 54.0992 180.302 53.0651 181.217 52.3485C182.141 51.6319 183.282 51.3144 184.441 51.4595C185.601 51.6047 186.633 52.1943 187.349 53.1105C188.825 55.0154 188.49 57.7639 186.588 59.2516C185.809 59.8594 184.876 60.1769 183.907 60.1769ZM183.898 52.0401C183.065 52.0401 182.259 52.3122 181.598 52.8383C180.81 53.4552 180.302 54.3441 180.176 55.342C180.049 56.3398 180.32 57.3285 180.945 58.1177C181.561 58.9069 182.449 59.4149 183.445 59.5419C184.441 59.6689 185.429 59.3968 186.217 58.7708C187.004 58.154 187.512 57.265 187.638 56.2672C187.765 55.2694 187.494 54.2806 186.869 53.4915C186.253 52.7023 185.365 52.1943 184.369 52.0673C184.206 52.0491 184.052 52.0401 183.898 52.0401Z" fill="#B491FA"/>
<path d="M183.826 67.1344C179.46 67.1344 175.294 64.6036 173.428 60.3492C172.776 58.8616 172.468 57.3104 172.468 55.7864C172.468 51.4142 174.995 47.2414 179.243 45.3728C182.014 44.1482 185.103 44.0847 187.919 45.1823C190.745 46.2799 192.973 48.4207 194.196 51.1965C194.495 51.8859 194.73 52.6025 194.893 53.3282C194.902 53.3826 194.92 53.4461 194.929 53.5005C194.929 53.5187 194.938 53.5459 194.938 53.564C194.938 53.7092 194.839 53.8361 194.694 53.8634C194.531 53.8996 194.368 53.7908 194.331 53.6275C194.178 52.8837 193.942 52.1489 193.634 51.4504C192.547 48.974 190.6 47.0328 188.146 45.9443C188.001 45.8808 187.847 45.8173 187.702 45.7629C185.03 44.7197 182.114 44.7832 179.487 45.9443C175.475 47.7131 173.075 51.6682 173.075 55.7955C173.075 57.2378 173.365 58.7073 173.99 60.1134C176.372 65.5379 182.73 68.0052 188.146 65.6195C189.93 64.8304 191.46 63.5785 192.574 62.0002C192.674 61.8641 192.864 61.8278 193 61.9276C193.082 61.9911 193.127 62.0818 193.127 62.1816C193.127 62.2451 193.109 62.2995 193.073 62.3539C191.895 64.023 190.274 65.3474 188.39 66.1819C186.896 66.826 185.347 67.1344 183.826 67.1344Z" fill="#B491FA"/>
<defs>
<linearGradient id="paint0_linear" x1="281.401" y1="324.836" x2="60.6171" y2="51.0679" gradientUnits="userSpaceOnUse">
<stop stop-color="#DAE3FE"/>
<stop offset="1" stop-color="#E9EFFD"/>
</linearGradient>
<linearGradient id="paint1_linear" x1="134.504" y1="181.348" x2="134.504" y2="291.231" gradientUnits="userSpaceOnUse">
<stop stop-color="#09005D"/>
<stop offset="1" stop-color="#660F91"/>
</linearGradient>
<linearGradient id="paint2_linear" x1="126.898" y1="4.91097" x2="128.733" y2="193.543" gradientUnits="userSpaceOnUse">
<stop stop-color="#09005D"/>
<stop offset="1" stop-color="#660F91"/>
</linearGradient>
<linearGradient id="paint3_linear" x1="141.105" y1="150.14" x2="133.157" y2="245.37" gradientUnits="userSpaceOnUse">
<stop stop-color="#09005D"/>
<stop offset="1" stop-color="#660F91"/>
</linearGradient>
<linearGradient id="paint4_linear" x1="119.646" y1="158.621" x2="199.574" y2="102.577" gradientUnits="userSpaceOnUse">
<stop stop-color="#FF928E"/>
<stop offset="1" stop-color="#FE7062"/>
</linearGradient>
<linearGradient id="paint5_linear" x1="217.397" y1="187.236" x2="238.653" y2="132.755" gradientUnits="userSpaceOnUse">
<stop stop-color="#09005D"/>
<stop offset="1" stop-color="#660F91"/>
</linearGradient>
<linearGradient id="paint6_linear" x1="197.535" y1="132.962" x2="216.719" y2="176.209" gradientUnits="userSpaceOnUse">
<stop stop-color="#FEBBBA"/>
<stop offset="1" stop-color="#FF928E"/>
</linearGradient>
<linearGradient id="paint7_linear" x1="197.875" y1="132.811" x2="217.059" y2="176.058" gradientUnits="userSpaceOnUse">
<stop stop-color="#FEBBBA"/>
<stop offset="1" stop-color="#FF928E"/>
</linearGradient>
<linearGradient id="paint8_linear" x1="245.593" y1="220.325" x2="246.913" y2="252.833" gradientUnits="userSpaceOnUse">
<stop stop-color="#AA4FFF"/>
<stop offset="1" stop-color="#9C40E2"/>
</linearGradient>
<linearGradient id="paint9_linear" x1="219.194" y1="271.309" x2="227.603" y2="173.179" gradientUnits="userSpaceOnUse">
<stop stop-color="#FEBBBA"/>
<stop offset="1" stop-color="#FF928E"/>
</linearGradient>
<linearGradient id="paint10_linear" x1="223.131" y1="217.743" x2="221.151" y2="253.545" gradientUnits="userSpaceOnUse">
<stop stop-color="#AA4FFF"/>
<stop offset="1" stop-color="#9C40E2"/>
</linearGradient>
<linearGradient id="paint11_linear" x1="236.057" y1="272.769" x2="244.468" y2="174.613" gradientUnits="userSpaceOnUse">
<stop stop-color="#FEBBBA"/>
<stop offset="1" stop-color="#FF928E"/>
</linearGradient>
<linearGradient id="paint12_linear" x1="232.926" y1="155.132" x2="207.559" y2="190.524" gradientUnits="userSpaceOnUse">
<stop stop-color="#FF928E"/>
<stop offset="1" stop-color="#FE7062"/>
</linearGradient>
<linearGradient id="paint13_linear" x1="246.922" y1="172.536" x2="201.733" y2="233.377" gradientUnits="userSpaceOnUse">
<stop stop-color="#AA4FFF"/>
<stop offset="1" stop-color="#9C40E2"/>
</linearGradient>
<linearGradient id="paint14_linear" x1="218.274" y1="174.58" x2="219.854" y2="163.042" gradientUnits="userSpaceOnUse">
<stop stop-color="#FEBBBA"/>
<stop offset="1" stop-color="#FF928E"/>
</linearGradient>
<linearGradient id="paint15_linear" x1="209.95" y1="147.6" x2="208.465" y2="184.101" gradientUnits="userSpaceOnUse">
<stop stop-color="#FEBBBA"/>
<stop offset="1" stop-color="#FF928E"/>
</linearGradient>
<linearGradient id="paint16_linear" x1="193.405" y1="147.286" x2="192.022" y2="181.29" gradientUnits="userSpaceOnUse">
<stop stop-color="#FEBBBA"/>
<stop offset="1" stop-color="#FF928E"/>
</linearGradient>
<linearGradient id="paint17_linear" x1="216.305" y1="148.822" x2="223.336" y2="163.294" gradientUnits="userSpaceOnUse">
<stop stop-color="#FEBBBA"/>
<stop offset="1" stop-color="#FF928E"/>
</linearGradient>
<linearGradient id="paint18_linear" x1="206.207" y1="183.492" x2="227.653" y2="128.525" gradientUnits="userSpaceOnUse">
<stop stop-color="#09005D"/>
<stop offset="1" stop-color="#660F91"/>
</linearGradient>
<linearGradient id="paint19_linear" x1="219.447" y1="147.295" x2="226.478" y2="161.768" gradientUnits="userSpaceOnUse">
<stop stop-color="#FEBBBA"/>
<stop offset="1" stop-color="#FF928E"/>
</linearGradient>
<linearGradient id="paint20_linear" x1="65.0694" y1="133.411" x2="65.9866" y2="180.722" gradientUnits="userSpaceOnUse">
<stop stop-color="#FF928E"/>
<stop offset="1" stop-color="#FE7062"/>
</linearGradient>
<linearGradient id="paint21_linear" x1="64.0964" y1="313.508" x2="61.4185" y2="259.006" gradientUnits="userSpaceOnUse">
<stop stop-color="#AA4FFF"/>
<stop offset="1" stop-color="#9C40E2"/>
</linearGradient>
<linearGradient id="paint22_linear" x1="81.8552" y1="130.247" x2="67.6962" y2="150.337" gradientUnits="userSpaceOnUse">
<stop stop-color="#09005D"/>
<stop offset="1" stop-color="#660F91"/>
</linearGradient>
<linearGradient id="paint23_linear" x1="97.013" y1="107.619" x2="71.3447" y2="170.469" gradientUnits="userSpaceOnUse">
<stop stop-color="#FF928E"/>
<stop offset="1" stop-color="#FE7062"/>
</linearGradient>
<linearGradient id="paint24_linear" x1="46.3094" y1="173.751" x2="68.9705" y2="228.405" gradientUnits="userSpaceOnUse">
<stop stop-color="#FEBBBA"/>
<stop offset="1" stop-color="#FF928E"/>
</linearGradient>
<linearGradient id="paint25_linear" x1="86.3746" y1="173.633" x2="63.7134" y2="228.287" gradientUnits="userSpaceOnUse">
<stop stop-color="#FEBBBA"/>
<stop offset="1" stop-color="#FF928E"/>
</linearGradient>
<linearGradient id="paint26_linear" x1="66.3846" y1="180.817" x2="65.2062" y2="228.472" gradientUnits="userSpaceOnUse">
<stop stop-color="#09005D"/>
<stop offset="1" stop-color="#660F91"/>
</linearGradient>
<linearGradient id="paint27_linear" x1="79.949" y1="209.492" x2="92.2993" y2="209.587" gradientUnits="userSpaceOnUse">
<stop stop-color="#09005D"/>
<stop offset="1" stop-color="#660F91"/>
</linearGradient>
<linearGradient id="paint28_linear" x1="88.1007" y1="187.188" x2="75.0278" y2="222.542" gradientUnits="userSpaceOnUse">
<stop stop-color="#FEBBBA"/>
<stop offset="1" stop-color="#FF928E"/>
</linearGradient>
<linearGradient id="paint29_linear" x1="49.9757" y1="209.431" x2="37.6226" y2="209.184" gradientUnits="userSpaceOnUse">
<stop stop-color="#09005D"/>
<stop offset="1" stop-color="#660F91"/>
</linearGradient>
<linearGradient id="paint30_linear" x1="61.9817" y1="176.531" x2="48.9021" y2="211.903" gradientUnits="userSpaceOnUse">
<stop stop-color="#FEBBBA"/>
<stop offset="1" stop-color="#FF928E"/>
</linearGradient>
<linearGradient id="paint31_linear" x1="93.6265" y1="186.506" x2="59.6975" y2="211.953" gradientUnits="userSpaceOnUse">
<stop stop-color="#AA4FFF"/>
<stop offset="1" stop-color="#9C40E2"/>
</linearGradient>
<linearGradient id="paint32_linear" x1="62.9791" y1="209.375" x2="54.0726" y2="186.7" gradientUnits="userSpaceOnUse">
<stop stop-color="#AA4FFF"/>
<stop offset="1" stop-color="#9C40E2"/>
</linearGradient>
<linearGradient id="paint33_linear" x1="66.1494" y1="178.265" x2="65.8477" y2="152.06" gradientUnits="userSpaceOnUse">
<stop stop-color="#FEBBBA"/>
<stop offset="1" stop-color="#FF928E"/>
</linearGradient>
<linearGradient id="paint34_linear" x1="65.2774" y1="163.719" x2="69.8768" y2="141.366" gradientUnits="userSpaceOnUse">
<stop stop-color="#FEBBBA"/>
<stop offset="1" stop-color="#FF928E"/>
</linearGradient>
<linearGradient id="paint35_linear" x1="82.4325" y1="127.186" x2="66.5006" y2="149.791" gradientUnits="userSpaceOnUse">
<stop stop-color="#09005D"/>
<stop offset="1" stop-color="#660F91"/>
</linearGradient>
<linearGradient id="paint36_linear" x1="62.2384" y1="166.688" x2="58.9414" y2="131.077" gradientUnits="userSpaceOnUse">
<stop stop-color="#FEBBBA"/>
<stop offset="1" stop-color="#FF928E"/>
</linearGradient>
<linearGradient id="paint37_linear" x1="240.251" y1="107.009" x2="241.398" y2="107.009" gradientUnits="userSpaceOnUse">
<stop stop-color="#AA4FFF"/>
<stop offset="1" stop-color="#9C40E2"/>
</linearGradient>
<linearGradient id="paint38_linear" x1="192.359" y1="101.067" x2="239.755" y2="101.067" gradientUnits="userSpaceOnUse">
<stop stop-color="#AA4FFF"/>
<stop offset="1" stop-color="#9C40E2"/>
</linearGradient>
<linearGradient id="paint39_linear" x1="192.419" y1="84.9102" x2="193.088" y2="84.9102" gradientUnits="userSpaceOnUse">
<stop stop-color="#AA4FFF"/>
<stop offset="1" stop-color="#9C40E2"/>
</linearGradient>
<linearGradient id="paint40_linear" x1="202.031" y1="65.5611" x2="203.222" y2="65.5611" gradientUnits="userSpaceOnUse">
<stop stop-color="#AA4FFF"/>
<stop offset="1" stop-color="#9C40E2"/>
</linearGradient>
<linearGradient id="paint41_linear" x1="203.838" y1="73.7531" x2="249.34" y2="73.7531" gradientUnits="userSpaceOnUse">
<stop stop-color="#AA4FFF"/>
<stop offset="1" stop-color="#9C40E2"/>
</linearGradient>
<linearGradient id="paint42_linear" x1="248.462" y1="90.5795" x2="249.166" y2="90.5795" gradientUnits="userSpaceOnUse">
<stop stop-color="#AA4FFF"/>
<stop offset="1" stop-color="#9C40E2"/>
</linearGradient>
<linearGradient id="paint43_linear" x1="196.127" y1="87.2024" x2="245.103" y2="87.2024" gradientUnits="userSpaceOnUse">
<stop stop-color="#AA4FFF"/>
<stop offset="1" stop-color="#9C40E2"/>
</linearGradient>
<linearGradient id="paint44_linear" x1="199.428" y1="71.6871" x2="200.576" y2="71.6871" gradientUnits="userSpaceOnUse">
<stop stop-color="#AA4FFF"/>
<stop offset="1" stop-color="#9C40E2"/>
</linearGradient>
<linearGradient id="paint45_linear" x1="161.254" y1="67.1296" x2="198.892" y2="67.1296" gradientUnits="userSpaceOnUse">
<stop stop-color="#AA4FFF"/>
<stop offset="1" stop-color="#9C40E2"/>
</linearGradient>
<linearGradient id="paint46_linear" x1="161.291" y1="54.0448" x2="161.957" y2="54.0448" gradientUnits="userSpaceOnUse">
<stop stop-color="#AA4FFF"/>
<stop offset="1" stop-color="#9C40E2"/>
</linearGradient>
<linearGradient id="paint47_linear" x1="168.984" y1="38.4522" x2="170.177" y2="38.4522" gradientUnits="userSpaceOnUse">
<stop stop-color="#AA4FFF"/>
<stop offset="1" stop-color="#9C40E2"/>
</linearGradient>
<linearGradient id="paint48_linear" x1="170.777" y1="44.8351" x2="206.925" y2="44.8351" gradientUnits="userSpaceOnUse">
<stop stop-color="#AA4FFF"/>
<stop offset="1" stop-color="#9C40E2"/>
</linearGradient>
<linearGradient id="paint49_linear" x1="206.101" y1="58.4243" x2="206.802" y2="58.4243" gradientUnits="userSpaceOnUse">
<stop stop-color="#AA4FFF"/>
<stop offset="1" stop-color="#9C40E2"/>
</linearGradient>
<linearGradient id="paint50_linear" x1="164.326" y1="55.8006" x2="203.477" y2="55.8006" gradientUnits="userSpaceOnUse">
<stop stop-color="#AA4FFF"/>
<stop offset="1" stop-color="#9C40E2"/>
</linearGradient>
</defs>
</svg>
