<svg width="40" height="40" viewBox="0 0 40 40" fill="none" xmlns="http://www.w3.org/2000/svg">
<g clip-path="url(#clip0)">
<path d="M10.7947 13.3677C12.5229 13.3694 14.1765 14.4683 14.9322 16.0093C15.4089 16.9713 15.3915 18.0667 15.4539 19.1119C15.5025 20.5073 15.6238 21.8974 15.6689 23.2927C16.4107 21.3237 17.1873 19.3685 17.9361 17.4011C18.5029 15.9313 19.4614 14.5134 20.9191 13.8166C21.5934 13.4924 22.3387 13.3677 23.0806 13.3434C23.5521 16.6523 23.9594 19.9717 24.3615 23.291C24.7463 22.0673 25.1346 20.8435 25.5263 19.6215C25.9995 18.1985 26.3393 16.6818 27.2926 15.4806C28.2563 14.1112 29.9047 13.3122 31.5739 13.3451C30.1561 16.7979 28.7694 20.2611 27.3602 23.7174C26.9962 24.6135 26.4814 25.4542 25.8071 26.1527C24.7723 27.2135 23.2886 27.7769 21.8153 27.7613C21.3733 24.7366 20.959 21.7085 20.5187 18.6838C19.9329 20.2039 19.347 21.7223 18.7559 23.239C18.3607 24.4038 17.7315 25.5097 16.8267 26.3555C15.8561 27.2811 14.5023 27.7855 13.1642 27.7561C12.3703 22.9617 11.6007 18.1621 10.7947 13.3677Z" fill="white"/>
<path d="M19.418 0.570435H21.1947C23.5832 0.768035 25.9735 1.24817 28.161 2.2639C32.5203 4.2035 36.1118 7.79497 38.0531 12.1543C39.0723 14.3816 39.5819 16.8048 39.7466 19.2384V21.0186C39.542 23.8023 38.8591 26.5722 37.5366 29.0456C35.5173 32.9318 32.1546 36.0986 28.154 37.8804C25.9336 38.9066 23.5052 39.3954 21.0768 39.5704H19.7283C15.785 39.4404 11.8832 38.1318 8.71645 35.7658C4.91698 32.9768 2.16272 28.7787 1.19032 24.1611C0.923382 23.0934 0.876582 21.991 0.746582 20.9042V19.1154C0.906049 17.5796 1.08112 16.0335 1.55258 14.5532C2.87165 10.0535 5.89632 6.0963 9.85525 3.59337C12.7066 1.75777 16.045 0.768035 19.418 0.570435ZM10.7947 13.3676C11.6007 18.162 12.3703 22.9616 13.1642 27.756C14.5023 27.7855 15.856 27.2811 16.8267 26.3555C17.7315 25.5096 18.3607 24.4038 18.7559 23.239C19.347 21.7223 19.9328 20.2039 20.5187 18.6838C20.959 21.7084 21.3732 24.7366 21.8152 27.7612C23.2886 27.7768 24.7723 27.2135 25.8071 26.1527C26.4814 25.4542 26.9962 24.6135 27.3602 23.7174C28.7694 20.2611 30.156 16.7979 31.5739 13.3451C29.9047 13.3122 28.2563 14.1112 27.2926 15.4806C26.3392 16.6818 25.9995 18.1984 25.5263 19.6215C25.1346 20.8435 24.7463 22.0672 24.3615 23.291C23.9594 19.9716 23.552 16.6523 23.0806 13.3434C22.3387 13.3676 21.5934 13.4924 20.9191 13.8166C19.4614 14.5134 18.5028 15.9312 17.936 17.4011C17.1872 19.3684 16.4107 21.3236 15.6688 23.2927C15.6238 21.8974 15.5024 20.5072 15.4539 19.1119C15.3915 18.0667 15.4088 16.9712 14.9322 16.0092C14.1764 14.4683 12.5228 13.3694 10.7947 13.3676Z" fill="#4353FF"/>
</g>
<defs>
<clipPath id="clip0">
<rect width="39" height="39" fill="white" transform="translate(0.746582 0.570435)"/>
</clipPath>
</defs>
</svg>
