<svg width="32" height="32" viewBox="0 0 32 32" fill="none" xmlns="http://www.w3.org/2000/svg">
<g clip-path="url(#clip0)">
<path d="M15.8856 0.395996H15.8779C7.32973 0.395996 0.378418 7.34925 0.378418 15.8993C0.378418 19.2907 1.4714 22.434 3.32987 24.9863L1.39776 30.7457L7.35686 28.8408C9.80833 30.4648 12.7327 31.4027 15.8856 31.4027C24.4338 31.4027 31.3851 24.4475 31.3851 15.8993C31.3851 7.35119 24.4338 0.395996 15.8856 0.395996ZM24.9067 22.2887C24.5326 23.3448 23.0482 24.2208 21.8641 24.4766C21.0541 24.6491 19.996 24.7866 16.4341 23.31C11.878 21.4224 8.94402 16.7927 8.71535 16.4924C8.49636 16.192 6.87432 14.0409 6.87432 11.8162C6.87432 9.59142 8.00413 8.50813 8.45954 8.04303C8.83356 7.66126 9.45176 7.48684 10.0448 7.48684C10.2366 7.48684 10.4091 7.49653 10.5641 7.50428C11.0195 7.52366 11.2482 7.55079 11.5486 8.26976C11.9226 9.17089 12.8334 11.3956 12.9419 11.6243C13.0524 11.853 13.1629 12.163 13.0078 12.4634C12.8625 12.7735 12.7346 12.9111 12.5059 13.1746C12.2772 13.4382 12.0602 13.6397 11.8315 13.9227C11.6222 14.1688 11.3858 14.4323 11.6494 14.8878C11.9129 15.3335 12.8237 16.8199 14.1648 18.0136C15.8953 19.5543 17.2984 20.0465 17.8003 20.2558C18.1743 20.4108 18.6201 20.374 18.8933 20.0833C19.2402 19.7093 19.6685 19.0892 20.1045 18.4787C20.4146 18.0408 20.806 17.9865 21.2169 18.1415C21.6355 18.2869 23.8505 19.3818 24.3059 19.6085C24.7613 19.8372 25.0617 19.9457 25.1722 20.1376C25.2807 20.3294 25.2807 21.2306 24.9067 22.2887Z" fill="url(#paint0_linear)"/>
</g>
<defs>
<linearGradient id="paint0_linear" x1="15.8818" y1="0.395996" x2="15.8818" y2="31.4027" gradientUnits="userSpaceOnUse">
<stop stop-color="#8200FF"/>
<stop offset="1" stop-color="#B338DE"/>
<stop offset="1" stop-color="#B338DE"/>
</linearGradient>
<clipPath id="clip0">
<rect width="31.0067" height="31.0067" fill="white" transform="translate(0.378418 0.395996)"/>
</clipPath>
</defs>
</svg>
