<svg width="32" height="32" viewBox="0 0 32 32" fill="none" xmlns="http://www.w3.org/2000/svg">
<g clip-path="url(#clip0)">
<path d="M16.1537 0H16.146C7.5978 0 0.646484 6.95325 0.646484 15.5034C0.646484 18.8947 1.73947 22.038 3.59794 24.5903L1.66583 30.3498L7.62493 28.4448C10.0764 30.0688 13.0007 31.0067 16.1537 31.0067C24.7019 31.0067 31.6532 24.0515 31.6532 15.5034C31.6532 6.95519 24.7019 0 16.1537 0ZM25.1747 21.8927C24.8007 22.9488 23.3163 23.8248 22.1322 24.0806C21.3221 24.2531 20.264 24.3907 16.7021 22.914C12.1461 21.0264 9.21209 16.3967 8.98341 16.0964C8.76443 15.796 7.14239 13.6449 7.14239 11.4202C7.14239 9.19543 8.2722 8.11213 8.72761 7.64703C9.10163 7.26526 9.71982 7.09085 10.3128 7.09085C10.5047 7.09085 10.6772 7.10054 10.8322 7.10829C11.2876 7.12767 11.5163 7.1548 11.8167 7.87377C12.1907 8.7749 13.1015 10.9996 13.21 11.2283C13.3205 11.457 13.4309 11.767 13.2759 12.0674C13.1306 12.3775 13.0027 12.5151 12.774 12.7786C12.5453 13.0422 12.3283 13.2437 12.0996 13.5267C11.8903 13.7728 11.6539 14.0363 11.9174 14.4918C12.181 14.9375 13.0918 16.4239 14.4328 17.6176C16.1634 19.1583 17.5665 19.6505 18.0684 19.8598C18.4424 20.0148 18.8881 19.978 19.1614 19.6873C19.5083 19.3133 19.9365 18.6932 20.3726 18.0827C20.6826 17.6448 21.0741 17.5905 21.4849 17.7455C21.9035 17.8909 24.1186 18.9858 24.574 19.2125C25.0294 19.4412 25.3298 19.5497 25.4402 19.7416C25.5487 19.9334 25.5487 20.8346 25.1747 21.8927Z" fill="black"/>
</g>
<defs>
<clipPath id="clip0">
<rect width="31.0067" height="31.0067" fill="white" transform="translate(0.646484)"/>
</clipPath>
</defs>
</svg>
