<svg width="44" height="38" viewBox="0 0 44 38" fill="none" xmlns="http://www.w3.org/2000/svg">
<g clip-path="url(#clip0)">
<path d="M0.832642 0.901978H43.2779V35.1216H0.832642V0.901978Z" fill="#FF5112"/>
<path d="M3.48547 8.79914H40.6252V32.4897H3.48547V8.79914ZM14.0968 3.53455H37.9722V6.16681H14.0968V3.53455ZM8.79116 3.53455H11.444V6.16681H8.79116V3.53455ZM3.48547 3.53455H6.13832V6.16681H3.48547V3.53455Z" fill="white"/>
<path d="M19.4025 11.4315H37.9723V14.0638H19.4025V11.4315ZM19.4025 16.6961H30.0138V19.3284H19.4025V16.6961ZM19.4025 21.9606H37.9723V24.5929H19.4025V21.9606ZM19.4025 27.2252H35.3195V29.8575H19.4025V27.2252ZM6.13831 21.9606H14.0968V24.5929H6.13831V21.9606ZM6.13831 27.2252H16.7496V29.8575H6.13831V27.2252ZM6.13831 11.4315H16.7496V19.3283H6.13831V11.4315Z" fill="#FFBB94"/>
<path d="M3.48547 35.1219H40.6252V37.7543H3.48547V35.1219Z" fill="#DEC1BA"/>
</g>
<defs>
<clipPath id="clip0">
<rect width="42.4453" height="36.8604" fill="white" transform="translate(0.832642 0.898071)"/>
</clipPath>
</defs>
</svg>
