<svg width="41" height="40" viewBox="0 0 41 40" fill="none" xmlns="http://www.w3.org/2000/svg">
<g clip-path="url(#clip0)">
<path d="M0.860474 19.9546C0.860474 27.8528 5.45004 34.6792 12.1065 37.9125L2.58751 11.8337C1.48164 14.3145 0.860474 17.0612 0.860474 19.9546Z" fill="#1C769B"/>
<path d="M21.1653 21.6997L15.1776 39.0976C16.9664 39.6235 18.8557 39.9105 20.8151 39.9105C23.1382 39.9105 25.3673 39.5089 27.4413 38.7796C27.3886 38.6933 27.339 38.6038 27.2991 38.5047L21.1653 21.6997Z" fill="#1C769B"/>
<path d="M34.2864 18.9485C34.2864 16.4812 33.3994 14.7741 32.6411 13.4456C31.6285 11.7996 30.6797 10.4079 30.6797 8.76523C30.6797 6.93005 32.0708 5.22232 34.0308 5.22232C34.1197 5.22232 34.2033 5.23455 34.2883 5.23905C30.7409 1.98581 26.0097 0 20.8151 0C13.8425 0 7.71068 3.57703 4.14331 8.99374C4.61192 9.00854 5.05285 9.0182 5.42684 9.0182C7.51307 9.0182 10.7457 8.76458 10.7457 8.76458C11.8207 8.70021 11.9469 10.2818 10.8719 10.4079C10.8719 10.4079 9.79111 10.5354 8.58804 10.5991L15.8547 32.2125L20.2222 19.1159L17.1151 10.5991C16.0388 10.5354 15.0205 10.4079 15.0205 10.4079C13.9455 10.3442 14.0711 8.70086 15.148 8.76458C15.148 8.76458 18.443 9.0182 20.4037 9.0182C22.4906 9.0182 25.722 8.76458 25.722 8.76458C26.7982 8.70021 26.9244 10.2818 25.8488 10.4079C25.8488 10.4079 24.7667 10.5354 23.5656 10.5991L30.7769 32.0484L32.7692 25.3984C33.6285 22.6369 34.2864 20.6556 34.2864 18.9485Z" fill="#1C769B"/>
<path d="M38.4608 12.433C38.4608 14.4574 38.0823 16.7335 36.9423 19.5806L30.8478 37.2018C36.7801 33.7439 40.7697 27.3159 40.7697 19.9552C40.7697 16.485 39.8834 13.2234 38.3256 10.3809C38.4125 11.0168 38.4608 11.6979 38.4608 12.433Z" fill="#1C769B"/>
<path d="M30.6804 8.76458C30.6804 6.9294 32.0714 5.22167 34.0315 5.22167C34.1203 5.22167 34.204 5.2339 34.2889 5.23841C30.7409 1.98581 26.0097 0 20.8151 0C13.8425 0 7.71068 3.57703 4.14331 8.99374C4.61192 9.00854 5.05285 9.0182 5.42684 9.0182C7.51307 9.0182 10.7457 8.76458 10.7457 8.76458C11.8207 8.70021 11.9469 10.2818 10.8719 10.4079C10.8719 10.4079 9.79111 10.5354 8.58804 10.5991L11.3592 18.841C13.2445 19.5066 15.287 19.8729 17.4202 19.8729C18.3079 19.8729 19.1801 19.8091 20.033 19.6875L20.2229 19.1165L17.1157 10.5998C16.0395 10.536 15.0212 10.4086 15.0212 10.4086C13.9462 10.3449 14.0717 8.7015 15.1486 8.76523C15.1486 8.76523 18.4437 9.01884 20.4044 9.01884C22.4913 9.01884 25.7226 8.76523 25.7226 8.76523C26.7989 8.70086 26.925 10.2824 25.8494 10.4086C25.8494 10.4086 24.7674 10.536 23.5662 10.5998L25.9672 17.7422C28.4043 16.4317 30.4692 14.581 31.9749 12.3609C31.2494 11.1566 30.6804 10.0352 30.6804 8.76458Z" fill="#2795B7"/>
<path d="M20.815 0C14.5538 0 8.97677 2.8902 5.31799 7.40123C8.5294 8.06875 12.0562 8.43887 15.7575 8.43887C22.7661 8.43887 29.1515 7.11479 33.9529 4.94295C30.4434 1.86801 25.8481 0 20.815 0Z" fill="#3FB5D1"/>
</g>
<defs>
<clipPath id="clip0">
<rect width="39.9105" height="39.9105" fill="white" transform="translate(0.859741)"/>
</clipPath>
</defs>
</svg>
