<svg width="177" height="464" viewBox="0 0 177 464" fill="none" xmlns="http://www.w3.org/2000/svg">
<g filter="url(#filter0_d)">
<path d="M147.412 368.372C141.228 371.539 135.285 375.18 129.664 379.249C126.8 381.321 123.903 383.659 122.595 386.927C121.636 389.326 121.636 391.978 121.609 394.557C121.508 403.117 120.911 411.81 117.967 419.854C116.444 424.01 114.304 427.953 113.238 432.249C112.171 436.545 121.454 442.766 125.875 442.392C128.396 442.178 131.14 440.521 131.22 438.002C131.301 435.483 128.001 434.107 126.082 432.456C124.131 430.772 124.714 434.634 125.955 432.383C126.954 430.559 134.735 420.65 135.949 418.959C146.795 403.792 148.874 395.266 153.16 377.138C153.676 374.94 154.132 372.561 153.227 370.49C152.322 368.425 149.464 367.089 147.7 368.505L147.412 368.372Z" fill="#F17D86"/>
<path d="M213.714 270.217C217.014 270.491 219.925 272.756 221.561 275.622C225.445 282.417 222.594 290.97 219.1 297.973C203.217 329.751 175.817 354.079 154.522 382.55C151.061 387.174 147.707 391.971 143.22 395.613C141.939 396.649 139.832 397.497 138.86 396.168C138.464 395.626 138.444 394.905 138.464 394.237C138.565 389.873 139.403 385.57 140.235 381.281C141.818 373.169 143.394 365.064 144.977 356.952C145.815 352.649 146.654 348.34 147.868 344.13C151.094 332.952 156.889 322.702 162.778 312.659C165.045 308.79 167.339 304.935 169.928 301.273C180.566 286.213 202.593 269.174 213.579 270.043L213.714 270.217Z" fill="#F17D86"/>
<path d="M184.986 240.85C168.057 263.241 109.314 261.423 90.2048 240.85C67.078 215.947 90.7548 110.549 90.7548 110.549C91.2176 104.67 95.6713 101.489 102.063 100.133L136.458 94.687L172.966 100.133C179.976 101.496 183.913 104.77 184.282 110.73C184.282 110.717 205.423 213.809 184.986 240.85Z" fill="#FF9AA4"/>
<path d="M184.604 108.144C185.482 112.2 185.556 116.389 185.449 120.539C185.355 124.08 180.056 126.405 180.499 131.931C180.573 132.813 173.664 168.246 170.928 180.046C170.331 182.625 195.221 183.234 194.819 185.699C193.994 190.744 193.712 195.889 193.712 202.29C193.712 205.016 168.151 192.902 167.742 193.664C162.758 202.931 157.412 217.404 153.039 226.952C152.71 227.667 152.362 228.409 151.745 228.903C151.014 229.485 150.034 229.612 149.109 229.712C140.644 230.654 132.139 231.168 123.621 231.255C133.514 213.114 141.992 194.252 150.457 175.409C153.214 169.282 155.97 163.148 158.365 156.874C160.323 151.756 162.04 146.544 164.032 141.432C169.05 128.583 177.742 119.944 184.758 108.057L184.604 108.144Z" fill="#F17D86"/>
<path d="M79.1043 225.81C63.4696 241.726 39.0214 245.3 20.9989 258.477C16.1025 262.058 11.4074 266.989 11.2129 273.036C27.9342 272.321 44.6958 272.595 61.3903 273.852C76.7836 275.008 95.8056 284.449 111.232 284.91C147.667 286.006 145.413 285.799 181.86 286.273C193.37 286.42 203.733 284.91 218.771 285.819C223.52 286.106 234.265 289.453 226.518 274.473C219.67 261.236 201.909 235.432 196.274 227.707C194.343 225.061 195.53 220.892 192.277 221.326C185.442 222.235 178.668 224.146 175.871 224.507C142.603 228.79 112.507 227.881 79.0373 225.643L79.1043 225.81Z" fill="#4800FF"/>
<path d="M136.459 97.1727C163.798 97.1727 183.048 81.6576 180.304 55.973C179.996 53.0999 179.728 50.2133 179.084 47.3936C176.079 34.2774 165.461 22.2168 151.148 18.8091C151.148 18.8091 141.409 17.259 136.304 17.3057C131.375 17.3458 127.29 17.3391 120.797 19.2368C116.451 20.5063 100.917 24.5421 95.202 47.3936C94.4977 50.2 94.2227 53.0932 93.9812 55.973C92.2575 76.7466 109.569 97.1727 136.459 97.1727Z" fill="#1E0E00"/>
<path d="M171.545 55.8928C170.056 55.8795 168.721 56.5744 167.856 57.6568V36.7229C167.856 31.8385 165.22 27.5422 161.296 25.1635C158.392 23.3995 154.837 23.0454 151.57 23.9875L142.562 26.5867C138.92 27.6357 135.057 27.6357 131.415 26.5733L122.595 24.0008C119.315 23.0454 115.753 23.3995 112.836 25.1635C108.918 27.5422 106.289 31.8385 106.289 36.7162V57.9241C105.343 56.5811 103.707 55.7525 101.903 55.9663C99.5417 56.2536 97.8179 58.3384 97.8179 60.7104V69.5169C97.8179 71.8889 99.5417 73.9736 101.903 74.261C103.707 74.4748 105.343 73.6462 106.289 72.3032V82.7067C106.289 97.2462 118.235 109.146 132.83 109.146H141.322C155.917 109.146 167.862 97.2462 167.862 82.7067V72.4769C168.728 73.5594 170.056 74.2543 171.551 74.2409C174.134 74.2209 176.166 72.0159 176.166 69.4434V60.677C176.159 58.1179 174.127 55.9129 171.545 55.8928Z" fill="#FF9AA4"/>
<path d="M151.55 78.2832C151.55 81.1229 144.843 87.965 136.566 87.965C128.289 87.965 121.582 81.1229 121.582 78.2832C121.582 75.4434 128.289 77.6751 136.566 77.6751C144.843 77.6818 151.55 75.4434 151.55 78.2832Z" fill="white"/>
<path d="M116.202 61.4184C120.395 62.1066 124.821 62.7882 128.92 61.2848C130.127 60.8438 129.604 58.9061 128.383 59.3538C124.627 60.7369 120.582 60.1222 116.739 59.4874C116.203 59.4005 115.659 59.6277 115.498 60.189C115.371 60.6634 115.666 61.3249 116.202 61.4184Z" fill="#1E0E00"/>
<path d="M145.996 61.7193C150.168 62.9955 154.622 63.1224 158.868 62.1335C160.129 61.8395 159.592 59.9085 158.331 60.2025C154.427 61.1112 150.363 60.9575 146.526 59.7882C145.292 59.4074 144.762 61.3384 145.996 61.7193Z" fill="#1E0E00"/>
<path d="M135.137 71.0403C136.13 72.1495 137.787 72.6039 139.215 72.1963C139.718 72.056 140.087 71.4813 139.92 70.9601C139.752 70.4456 139.222 70.1049 138.679 70.2585C138.545 70.2986 138.41 70.3254 138.276 70.3454C138.364 70.332 138.457 70.3187 138.545 70.312C138.27 70.3454 137.995 70.3454 137.72 70.312C137.807 70.3254 137.901 70.3387 137.988 70.3454C137.713 70.3053 137.445 70.2318 137.19 70.1249C137.27 70.1583 137.351 70.1917 137.431 70.2251C137.19 70.1249 136.968 69.9913 136.761 69.8376C136.828 69.891 136.895 69.9445 136.962 69.9913C136.814 69.8777 136.68 69.7507 136.559 69.6171C136.211 69.2229 135.486 69.2362 135.137 69.6171C134.748 70.0447 134.762 70.6194 135.137 71.0403Z" fill="#1E0E00"/>
<path d="M146.05 49.3314C148.947 49.7991 151.872 50.0463 154.803 50.073C156.862 50.0864 159.619 49.6053 161.631 50.1532C163.643 50.7011 164.871 52.4183 165.85 54.5565L165.749 54.8505C161.832 53.8749 157.781 54.6233 153.777 54.7302C152.066 54.777 150.302 54.6834 148.746 53.8549C147.19 53.0263 145.869 51.3025 145.802 49.2913L146.05 49.3314Z" fill="#1E0E00"/>
<path d="M128.229 49.3314C125.331 49.7991 122.407 50.0463 119.476 50.073C117.417 50.0864 114.66 49.6053 112.648 50.1532C110.635 50.7011 109.408 52.4183 108.429 54.5565L108.529 54.8505C112.446 53.8749 116.498 54.6233 120.502 54.7302C122.212 54.777 123.976 54.6834 125.532 53.8549C127.088 53.0263 128.41 51.3025 128.477 49.2913L128.229 49.3314Z" fill="#1E0E00"/>
<path d="M137.592 42.4691C139.356 42.4691 140.785 40.5395 140.785 38.1593C140.785 35.7791 139.356 33.8496 137.592 33.8496C135.829 33.8496 134.4 35.7791 134.4 38.1593C134.4 40.5395 135.829 42.4691 137.592 42.4691Z" fill="#FF00FF"/>
<path d="M155.896 13.1162C155.896 20.2991 147.499 22.0564 137.136 22.0564C126.773 22.0564 118.376 20.2991 118.376 13.1162C118.376 5.93333 126.773 0.113525 137.136 0.113525C147.499 0.113525 155.896 5.93333 155.896 13.1162Z" fill="#1E0E00"/>
<path d="M106.155 72.8911C105.987 77.575 109.22 82.2923 112.862 85.2657C116.498 88.2391 121.092 89.836 125.72 90.6846C128.598 91.2125 131.717 91.4397 134.306 90.0899C135.466 89.4819 136.606 88.5531 137.907 88.7135C138.484 88.787 139.001 89.0676 139.524 89.3215C144.823 91.874 151.329 91.3194 156.507 88.5331C161.685 85.7468 165.589 80.9426 167.976 75.5839C168.774 76.0984 168.942 77.1674 169.009 78.1096C169.653 87.4841 167.044 97.0456 161.732 104.803C154.589 115.24 142.777 122.49 138.115 134.236C137.277 130.568 134.869 127.434 132.119 124.848C129.369 122.263 126.25 120.104 123.46 117.565C119.093 113.59 115.619 108.752 112.185 103.955C110.79 102.003 109.381 100.039 108.389 97.8541C107.517 95.9298 106.987 93.8651 106.578 91.7871C105.451 86.0475 105.236 80.1341 105.94 74.3277C105.974 74.0404 106.155 72.8911 106.155 72.8911Z" fill="#1E0E00"/>
<path d="M151.718 20.0519C156.842 19.818 161.779 17.5061 165.159 13.6441C166.004 12.6752 164.589 11.252 163.737 12.2275C160.706 15.6887 156.339 17.8402 151.718 18.0473C150.43 18.1075 150.423 20.112 151.718 20.0519Z" fill="#1E0E00"/>
<path d="M94.6721 159.173C95.9197 155.291 96.9391 151.442 97.4221 148.201C97.8715 145.168 96.2885 142.081 96.9794 139.081C97.9922 134.698 97.402 129.88 94.3434 130.161C89.3331 130.615 83.6989 133.288 81.13 134.698C72.6654 139.355 67.4203 149.123 63.7715 159.173H94.6721Z" fill="#F17D86"/>
<path d="M171.25 99.4311C165.85 111.478 154.911 124.641 148.076 130.996C121.911 155.324 84.3698 151.475 82.9143 159.594C78.36 185.018 80.1777 192.281 76.5356 208.163C74.671 216.282 71.1027 227.059 71.1362 235.391C74.5905 237.429 78.7893 237.636 82.8003 237.79C100.796 238.478 118.785 239.167 136.781 239.855C134.245 231.616 137.244 222.255 142.341 215.299C165.85 183.207 178.152 153.7 185.966 116.289C186.656 112.982 186.301 109.648 185.422 106.387C184.054 101.282 179.064 101.048 172.819 99.224C172.189 99.0369 171.243 98.8899 171.156 99.5447L171.25 99.4311Z" fill="#A800FF"/>
<path d="M77.1392 179.305C81.0429 173.338 84.7789 162.928 87.7234 156.427C89.6886 152.09 90.8356 148.809 92.7941 144.473C95.9398 137.517 99.9642 126.686 101.091 119.116C101.54 116.082 99.9575 112.995 100.648 109.995C101.661 105.612 101.071 100.794 98.0124 101.075C93.002 101.529 87.3679 104.202 84.799 105.612C72.5716 112.34 67.0581 129.733 63.3691 143.257C59.9886 155.672 57.4398 168.327 55.7563 181.102C55.5215 182.866 55.3203 184.724 55.9843 186.388C56.6484 188.045 58.4929 189.381 60.1764 188.84C60.1831 188.826 69.8551 190.45 77.1392 179.305Z" fill="#FF9AA4"/>
<path d="M132.649 180.507C132.528 180.902 132.649 182.325 130.825 183.234C129 184.142 100.36 195.662 79.6815 197.706C72.7796 198.388 63.443 200.366 59.5126 194.693C55.1595 188.419 55.5016 185.298 55.6357 184.597C56.6016 179.686 62.3699 178.67 66.8504 176.345C73.7991 172.73 75.201 174.474 82.2772 174.728C92.8278 175.102 103.405 174.741 107.302 174.48C112.46 174.133 123.299 175.342 126.961 174.113C128.9 173.465 130.53 175.443 131.288 177.334C131.542 177.988 133.025 179.298 132.649 180.507Z" fill="#FF9AA4"/>
<path d="M126.639 153.814C129.638 154.789 132.502 156.166 135.124 157.91C136.405 158.765 137.673 159.747 138.377 161.124C139.128 162.6 139.142 164.331 139.102 165.995C139.048 168.166 138.934 170.331 138.76 172.496C138.625 174.12 138.451 175.777 137.747 177.247C136.747 179.331 134.809 180.795 132.938 182.171C132.321 182.626 131.643 183.107 130.878 183.127C129.98 183.153 129.215 182.545 128.538 181.971C126.063 179.846 123.567 177.427 122.796 174.253C122.34 172.376 122.541 170.405 122.742 168.48C123.205 164.004 123.614 159.48 124.889 155.15C125.399 153.373 126.639 153.814 126.639 153.814Z" fill="#F17D86"/>
<path d="M126.995 159.159C128.162 159.119 129.081 158.144 129.061 156.981C129.061 156.981 129.181 147.105 129.108 143.658C129.047 140.911 128.524 132.192 128.524 132.192C128.497 131.029 127.531 130.12 126.371 130.16C125.204 130.201 124.285 131.176 124.305 132.339C124.305 132.339 124.822 140.724 124.882 143.357C124.963 146.925 124.849 157.128 124.849 157.128C124.862 158.291 125.828 159.199 126.995 159.159Z" fill="#F17D86"/>
<path d="M130.966 162.206C132.133 162.166 133.052 161.191 133.031 160.028C133.031 160.028 133.152 150.152 133.078 146.705C133.018 143.959 132.495 135.239 132.495 135.239C132.468 134.076 131.502 133.167 130.342 133.208C129.175 133.248 128.256 134.223 128.276 135.386C128.276 135.386 128.792 143.771 128.853 146.404C128.933 149.972 128.819 160.175 128.819 160.175C128.833 161.338 129.799 162.246 130.966 162.206Z" fill="#F17D86"/>
<path d="M134.675 165.173C135.842 165.133 136.761 164.157 136.74 162.995C136.74 162.995 136.861 153.119 136.787 149.671C136.727 146.925 136.204 138.205 136.204 138.205C136.177 137.043 135.211 136.134 134.051 136.174C132.884 136.214 131.965 137.19 131.985 138.352C131.985 138.352 132.501 146.738 132.562 149.371C132.642 152.939 132.528 163.142 132.528 163.142C132.542 164.304 133.508 165.213 134.675 165.173Z" fill="#F17D86"/>
<path d="M194.068 179.305C190.164 173.338 186.428 162.928 183.484 156.427C181.519 152.09 180.372 148.809 178.413 144.473C175.267 137.517 171.243 126.686 170.116 119.116C169.667 116.082 171.25 112.995 170.559 109.995C169.546 105.612 170.136 100.794 173.195 101.075C178.205 101.529 183.839 104.202 186.408 105.612C198.636 112.34 204.149 129.733 207.838 143.257C211.219 155.672 213.767 168.327 215.451 181.102C215.686 182.866 215.887 184.724 215.223 186.388C214.559 188.045 212.714 189.381 211.031 188.84C211.017 188.826 201.352 190.45 194.068 179.305Z" fill="#FF9AA4"/>
<path d="M138.558 180.507C138.679 180.902 138.558 182.325 140.383 183.234C142.207 184.142 170.847 195.662 191.526 197.706C198.428 198.388 207.764 200.366 211.695 194.693C216.048 188.419 215.706 185.298 215.572 184.597C214.606 179.686 208.838 178.67 204.357 176.345C197.408 172.73 196.006 174.474 188.93 174.728C178.38 175.102 167.802 174.741 163.905 174.48C158.747 174.133 147.908 175.342 144.246 174.113C142.308 173.465 140.678 175.443 139.92 177.334C139.658 177.988 138.176 179.298 138.558 180.507Z" fill="#FF9AA4"/>
<path d="M144.561 153.814C141.563 154.789 138.699 156.166 136.076 157.91C134.795 158.765 133.528 159.747 132.823 161.124C132.072 162.6 132.059 164.331 132.099 165.995C132.153 168.166 132.267 170.331 132.441 172.496C132.575 174.12 132.75 175.777 133.454 177.247C134.453 179.331 136.392 180.795 138.263 182.171C138.88 182.626 139.557 183.107 140.322 183.127C141.221 183.153 141.986 182.545 142.663 181.971C145.138 179.846 147.633 177.427 148.404 174.253C148.861 172.376 148.659 170.405 148.458 168.48C147.995 164.004 147.586 159.48 146.312 155.15C145.802 153.373 144.561 153.814 144.561 153.814Z" fill="#FF9AA4"/>
<path d="M144.212 159.159C143.045 159.119 142.126 158.144 142.147 156.981C142.147 156.981 142.026 147.105 142.1 143.658C142.16 140.911 142.683 132.192 142.683 132.192C142.71 131.029 143.676 130.12 144.836 130.16C146.003 130.201 146.922 131.176 146.902 132.339C146.902 132.339 146.386 140.724 146.325 143.357C146.245 146.925 146.359 157.128 146.359 157.128C146.339 158.291 145.379 159.199 144.212 159.159Z" fill="#FF9AA4"/>
<path d="M140.242 162.206C139.075 162.166 138.156 161.191 138.176 160.028C138.176 160.028 138.055 150.152 138.129 146.705C138.189 143.959 138.712 135.239 138.712 135.239C138.739 134.076 139.705 133.167 140.865 133.208C142.033 133.248 142.951 134.223 142.931 135.386C142.931 135.386 142.415 143.771 142.354 146.404C142.274 149.972 142.388 160.175 142.388 160.175C142.368 161.338 141.402 162.246 140.242 162.206Z" fill="#FF9AA4"/>
<path d="M136.532 165.173C135.365 165.133 134.446 164.157 134.467 162.995C134.467 162.995 134.346 153.119 134.42 149.671C134.48 146.925 135.003 138.205 135.003 138.205C135.03 137.043 135.996 136.134 137.156 136.174C138.323 136.214 139.242 137.19 139.222 138.352C139.222 138.352 138.706 146.738 138.645 149.371C138.565 152.939 138.679 163.142 138.679 163.142C138.659 164.304 137.693 165.213 136.532 165.173Z" fill="#FF9AA4"/>
<path d="M187.334 106.059C187.79 102.425 179.064 101.035 172.819 99.2106C172.189 99.0235 171.243 98.8765 171.156 99.5313L171.249 99.4311C166.642 109.701 158.016 120.786 151.335 127.768V140.417L175.489 153.727L178.232 145.976C181.257 136.542 183.785 126.719 185.965 116.282C186.65 112.968 186.911 109.414 187.334 106.059Z" fill="#A800FF"/>
<path d="M78.9435 225.549C63.3087 241.465 38.8605 245.04 20.838 258.216C15.9416 261.798 11.2465 266.729 11.052 272.776C27.7733 272.061 44.5349 272.335 61.2294 273.591C76.6227 274.747 106.645 289.62 121.709 286.273C134.339 283.473 153.73 286.647 156.339 279.919C160.692 268.707 139.021 247.686 136.291 238.612C127.082 208.023 100.42 226.819 78.8764 225.382L78.9435 225.549Z" fill="#A800FF"/>
<path d="M129.617 284.028C136.056 281.409 142.696 279.284 149.457 277.68C152.898 276.865 156.567 276.19 159.914 277.326C162.362 278.161 164.388 279.885 166.373 281.542C172.96 287.035 179.976 292.246 188.024 295.247C192.183 296.797 196.583 297.745 200.547 299.73C204.518 301.714 208.146 305.035 209.018 309.378C209.515 311.851 208.676 314.938 206.268 315.713C203.86 316.488 201.613 313.708 199.494 312.338C197.327 310.942 194.893 309.966 192.371 309.439C190.332 309.011 177.715 308.45 175.636 308.263C157.016 306.605 149.162 302.623 132.555 294.077C130.543 293.042 128.43 291.832 127.444 289.801C126.458 287.77 127.303 284.743 129.53 284.329L129.617 284.028Z" fill="#FF9AA4"/>
<path d="M11.6555 270.324C9.7171 272.996 9.54942 276.671 10.6695 279.778C13.3256 287.135 21.7031 290.549 29.3092 292.454C63.872 301.113 100.239 296.222 135.795 298.634C141.57 299.028 147.412 299.61 153.106 298.581C154.729 298.287 156.748 297.244 156.366 295.641C156.212 294.993 155.675 294.505 155.152 294.084C151.758 291.324 147.935 289.153 144.125 286.995C136.915 282.912 129.704 278.83 122.494 274.754C118.671 272.589 114.841 270.424 110.837 268.6C100.219 263.769 88.6354 261.484 77.1458 259.406C72.7256 258.604 68.2921 257.829 63.8116 257.401C45.4067 255.651 18.0945 261.23 11.6086 270.103L11.6555 270.324Z" fill="#FF9AA4"/>
</g>
<defs>
<filter id="filter0_d" x="0.710449" y="0" width="238" height="464" filterUnits="userSpaceOnUse" color-interpolation-filters="sRGB">
<feFlood flood-opacity="0" result="BackgroundImageFix"/>
<feColorMatrix in="SourceAlpha" type="matrix" values="0 0 0 0 0 0 0 0 0 0 0 0 0 0 0 0 0 0 127 0"/>
<feOffset dy="12"/>
<feGaussianBlur stdDeviation="4.5"/>
<feColorMatrix type="matrix" values="0 0 0 0 0 0 0 0 0 0 0 0 0 0 0 0 0 0 0.25 0"/>
<feBlend mode="normal" in2="BackgroundImageFix" result="effect1_dropShadow"/>
<feBlend mode="normal" in="SourceGraphic" in2="effect1_dropShadow" result="shape"/>
</filter>
</defs>
</svg>
