<?xml version="1.0" encoding="UTF-8" standalone="no"?><!-- Generator: Gravit.io --><svg xmlns="http://www.w3.org/2000/svg" xmlns:xlink="http://www.w3.org/1999/xlink" style="isolation:isolate" viewBox="0 0 833 305" width="833pt" height="305pt"><defs><clipPath id="_clipPath_yIkA3x2qlbYTUPAHgVZTH48DC0RuPf4Q"><rect width="833" height="305"/></clipPath></defs><g clip-path="url(#_clipPath_yIkA3x2qlbYTUPAHgVZTH48DC0RuPf4Q)"><clipPath id="_clipPath_A0MLL1l5XQ49eqpvFY7NmvouM4B2DebT"><rect x="0" y="0" width="833" height="305" transform="matrix(1,0,0,1,0,0)" fill="rgb(255,255,255)"/></clipPath><g clip-path="url(#_clipPath_A0MLL1l5XQ49eqpvFY7NmvouM4B2DebT)"><g><g><path d=" M 49 0 L 816 0 C 824.3 0 831 6.7 831 15 L 831 180 C 831 188.3 824.3 195 816 195 L 759.3 195 L 602.3 305 L 602.3 195 L 14 195 C 5.7 195 -1 188.3 -1 180 L -1 50 C -1 22.4 21.4 0 49 0 Z " fill="rgb(222,222,222)"/></g><g><clipPath id="_clipPath_IPKuJNgBJxjG0Dcyy2j4TTWmkxXwGTAA"><rect x="80" y="38.1" width="690" height="114.4" transform="matrix(1,0,0,1,0,0)" fill="rgb(255,255,255)"/></clipPath><g clip-path="url(#_clipPath_IPKuJNgBJxjG0Dcyy2j4TTWmkxXwGTAA)"><g><g clip-path="url(#_clipPath_RtMfmzc6mBJdMjXXLwH72kwczwrwCorz)"><text transform="matrix(1,0,0,1,154.165,78.685)" style="font-family:'Open Sans';font-weight:800;font-size:39px;font-style:normal;font-variant-ligatures:none;fill:#0000FF;stroke:none;">Start your product development</text></g><defs><clipPath id="_clipPath_RtMfmzc6mBJdMjXXLwH72kwczwrwCorz"><rect x="0" y="0" width="652" height="53.111" transform="matrix(1,0,0,1,154,37)"/></clipPath></defs><g clip-path="url(#_clipPath_P0vP6sjQ688uQceaitmyNxGsN0RKNRoP)"><text transform="matrix(1,0,0,1,387.22,141.074)" style="font-family:'Open Sans';font-weight:800;font-size:39px;font-style:normal;font-variant-ligatures:none;fill:#0000FF;stroke:none;">right now.</text></g><defs><clipPath id="_clipPath_P0vP6sjQ688uQceaitmyNxGsN0RKNRoP"><rect x="0" y="0" width="209" height="53.111" transform="matrix(1,0,0,1,387,99.389)"/></clipPath></defs></g></g></g></g></g></g></svg>