<svg id="Слой_1" data-name="Слой 1" xmlns="http://www.w3.org/2000/svg" viewBox="0 0 696.85 154.25"><defs><style>.cls-1,.cls-2{fill:#fff;}.cls-1{fill-rule:evenodd;}</style></defs><polygon class="cls-1" points="37.79 45.61 117.59 45.61 117.58 16.97 155.39 16.97 155.37 101.75 117.59 101.75 117.59 68.18 37.79 68.18 37.79 101.75 0.05 101.75 0 16.97 37.79 16.96 37.79 45.61"/><path class="cls-1" d="M681.35,441.11C674.91,428,661.26,423,648.47,423h-128l0,81.67L461,423l-64.94.05-59.4,81.58,0-16.22H219.48V475.08H336.69V455.74H219.48V442.37H336.66l0-19.34h-155v84.74H377.4l10-13.74h82.3l10,13.74H648.54c12.79,0,26.43-5,32.88-18.08,7.36-15,7.86-34.34-.07-48.6m-280,33.73,22-30.24h10.39l22,30.23ZM649,476.31c-2.07,3.93-6.31,5-10,5H558.39V449.67h80.53c3.67,0,7.92,1.08,10,5a24.11,24.11,0,0,1,0,21.63Z" transform="translate(-6.71 -406.02)"/><path class="cls-1" d="M695.47,407.12a6.93,6.93,0,1,1-4.93,2,6.73,6.73,0,0,1,4.93-2m8.08,6.94a8.07,8.07,0,0,0-16.13,0,7.83,7.83,0,0,0,2.34,5.72,8.08,8.08,0,0,0,13.79-5.72m-5.92-1.75a1.34,1.34,0,0,1-.93,1.36,4.57,4.57,0,0,1-1.54.21h-1.47V410.7h1.38A4.44,4.44,0,0,1,697,411a1.32,1.32,0,0,1,.61,1.29m-5.43-2.71v8.88h1.49V415H695a3.82,3.82,0,0,1,1.78.29,2.16,2.16,0,0,1,.85,2v.7l0,.3,0,.09v.09h1.46l-.06-.11-.08-.47,0-.66v-.66a2.46,2.46,0,0,0-.47-1.37,2.08,2.08,0,0,0-1.5-.88,3.37,3.37,0,0,0,1.28-.42,2,2,0,0,0,.86-1.75,2.2,2.2,0,0,0-1.38-2.25,7.06,7.06,0,0,0-2.44-.31Z" transform="translate(-6.71 -406.02)"/><path class="cls-2" d="M572.84,528.78h5.69V560h-5.69Zm3.59,27.31h7.16a5.53,5.53,0,0,0,3-.68,2.2,2.2,0,0,0,1.07-1.95v-4.08a3.61,3.61,0,0,0-.54-2,3.45,3.45,0,0,0-1.51-1.28,5.6,5.6,0,0,0-2.29-.44h-6.86v-3.86h6.86a4,4,0,0,0,2.78-.88,3.13,3.13,0,0,0,1-2.48v-3.18a2.2,2.2,0,0,0-1-1.92,4.7,4.7,0,0,0-2.72-.69h-6.92v-3.86h6.83a15.9,15.9,0,0,1,5.13.73,6.82,6.82,0,0,1,3.24,2.13,5.29,5.29,0,0,1,1.11,3.38v3.3a5,5,0,0,1-.66,2.59,5.17,5.17,0,0,1-1.9,1.87,8.25,8.25,0,0,1-3,1,8.89,8.89,0,0,1,3.29,1,5.39,5.39,0,0,1,2.09,1.94,5.26,5.26,0,0,1,.72,2.78v4.11a5.58,5.58,0,0,1-1.08,3.47,6.67,6.67,0,0,1-3.15,2.17,14.87,14.87,0,0,1-5,.75h-7.63Z" transform="translate(-6.71 -406.02)"/><path class="cls-2" d="M604.17,560h-5.68V528.78h5.68Z" transform="translate(-6.71 -406.02)"/><path class="cls-2" d="M610.1,528.78h5.68V560H610.1Zm4.45,17.37L626,528.78h6.22l-18.1,25.34Zm4.37-2.86,3.86-3.19L633.56,560h-6.47Z" transform="translate(-6.71 -406.02)"/><path class="cls-2" d="M636.85,528.78h5.68V560h-5.68Zm3,0h15.71v3.86H639.81Zm0,13.76H654v3.86H639.81Zm0,13.55h15.71V560H639.81Z" transform="translate(-6.71 -406.02)"/><path class="cls-2" d="M664.53,559.43a7.57,7.57,0,0,1-3.6-2.49,6.53,6.53,0,0,1-1.22-4V551.4h5.68v1.39a3,3,0,0,0,1.27,2.61,6.25,6.25,0,0,0,3.64.91,5.9,5.9,0,0,0,3.53-.9,3,3,0,0,0,1.23-2.62v-2.72a2.65,2.65,0,0,0-.78-1.93,6.17,6.17,0,0,0-1.94-1.3q-1.17-.5-3.24-1.17l-.12,0-.12,0-.41-.13a35.92,35.92,0,0,1-4.51-1.76,8.61,8.61,0,0,1-3-2.38,6,6,0,0,1-1.22-3.86v-1.8a6.36,6.36,0,0,1,1.21-3.93,7.41,7.41,0,0,1,3.58-2.46,17.49,17.49,0,0,1,5.74-.83,16.06,16.06,0,0,1,5.58.85,7.18,7.18,0,0,1,3.47,2.48,6.62,6.62,0,0,1,1.18,4v1.63h-5.68v-1.46a3.09,3.09,0,0,0-1.17-2.61,5.38,5.38,0,0,0-3.38-.91,6.35,6.35,0,0,0-3.61.86,2.82,2.82,0,0,0-1.24,2.45v1.95a2.75,2.75,0,0,0,.78,2,5.79,5.79,0,0,0,1.95,1.3c.77.33,1.84.7,3.2,1.13l.39.13.39.13.31.1.31.09a33.86,33.86,0,0,1,4.19,1.6,7.44,7.44,0,0,1,2.7,2.2,6,6,0,0,1,1.1,3.75v2.85a6.53,6.53,0,0,1-1.21,4,7.48,7.48,0,0,1-3.54,2.49,16.94,16.94,0,0,1-5.69.84A17.32,17.32,0,0,1,664.53,559.43Z" transform="translate(-6.71 -406.02)"/></svg>