<?xml version="1.0" encoding="utf-8"?>
<!-- Generator: Adobe Illustrator 25.0.1, SVG Export Plug-In . SVG Version: 6.00 Build 0)  -->
<svg version="1.1" id="Слой_1" xmlns="http://www.w3.org/2000/svg" xmlns:xlink="http://www.w3.org/1999/xlink" x="0px" y="0px"
	 viewBox="0 0 841.89 595.28" style="enable-background:new 0 0 841.89 595.28;" xml:space="preserve">
<style type="text/css">
	.st0{fill:#7A12B3;}
	.st1{fill:#FFFFFF;}
</style>
<path class="st0" d="M465.32,341.28l-63.19,15.07c-10.82,2.58-21.95-4.67-24.87-16.19l-14.9-58.91
	c-2.91-11.52,3.5-22.95,14.32-25.53l63.19-15.07c10.82-2.58,21.95,4.67,24.87,16.19l14.9,58.91
	C482.55,327.27,476.14,338.7,465.32,341.28z"/>
<g>
	<path class="st1" d="M423.77,329.82c-1.75,0-3.5,0-5.25,0c-0.04-0.04-0.08-0.1-0.12-0.1c-1.35-0.04-2.67-0.32-3.99-0.6
		c-3.12-0.65-6.03-1.82-8.76-3.43c-2.94-1.72-5.49-3.91-7.72-6.49c-1.54-1.78-2.85-3.71-3.95-5.79c-1.02-1.93-1.81-3.96-2.38-6.07
		c-0.52-1.92-0.91-3.89-0.98-5.87c-0.09-2.6-0.07-5.19,0.43-7.78c0.52-2.67,1.32-5.24,2.49-7.68c1.17-2.44,2.64-4.68,4.43-6.72
		c1.62-1.85,3.39-3.52,5.38-4.95c2.19-1.58,4.56-2.85,7.09-3.78c2.14-0.78,4.34-1.34,6.61-1.63c0.49-0.06,1.01,0.06,1.47-0.21
		c1.75,0,3.5,0,5.25,0c0.03,0.09,0.1,0.11,0.18,0.12c0.92,0.01,1.82,0.19,2.73,0.34c2.73,0.46,5.31,1.33,7.79,2.52
		c2.42,1.17,4.64,2.63,6.67,4.41c1.52,1.33,2.94,2.76,4.18,4.35c1.75,2.26,3.17,4.71,4.24,7.37c1.19,2.97,1.94,6.05,2.11,9.24
		c0.13,2.59,0.08,5.19-0.42,7.78c-0.52,2.67-1.32,5.24-2.49,7.68c-1.17,2.44-2.64,4.68-4.43,6.72c-1.62,1.85-3.39,3.52-5.38,4.95
		c-2.19,1.58-4.56,2.85-7.09,3.78c-2.14,0.78-4.34,1.34-6.61,1.63C424.76,329.67,424.23,329.55,423.77,329.82z M404.03,288.27
		c0.1,1.06,0.14,2.13,0.3,3.19c0.38,2.55,1.04,5.02,2.07,7.4c1.31,3.05,3.08,5.79,5.31,8.23c1.78,1.94,3.81,3.59,6.06,4.97
		c4.59,2.82,9.58,4.23,14.96,4.29c0.81,0.01,1.58-0.25,2.18-0.88c0.75-0.79,1.54-1.55,2.32-2.33c0.37-0.37,0.62-0.81,0.79-1.3
		c0.87-2.54-1.07-5.07-3.3-5.68c-1.21-0.33-2.43-0.63-3.64-0.98c-1.77-0.51-3.31-0.23-4.59,1.16c-0.3,0.32-0.64,0.6-0.92,0.94
		c-0.29,0.35-0.62,0.38-1.01,0.26c-3.04-0.95-5.67-2.55-7.84-4.92c-1.71-1.88-2.93-4.02-3.75-6.42c-0.21-0.63-0.22-1.13,0.36-1.56
		c0.3-0.22,0.53-0.54,0.81-0.79c1.3-1.2,1.56-2.68,1.14-4.33c-0.22-0.85-0.47-1.7-0.69-2.55c-0.35-1.36-0.74-2.67-1.88-3.66
		c-1.69-1.46-4.16-1.53-5.68,0.11c-0.58,0.63-1.19,1.23-1.81,1.81C404.33,286.06,403.95,287.07,404.03,288.27z"/>
</g>
</svg>
