<svg id="Слой_1" data-name="Слой 1" xmlns="http://www.w3.org/2000/svg" viewBox="0 0 99.05 97.1"><defs><style>.cls-1{fill:#c917c0;}.cls-2{fill:#fff;}</style></defs><path class="cls-1" d="M453.92,343.12,395.57,347c-10,.67-18.79-7.43-19.64-18.1l-4.39-54.52c-.86-10.66,6.55-19.85,16.54-20.51L446.43,250c10-.67,18.79,7.43,19.64,18.1l4.39,54.52C471.32,333.27,463.91,342.46,453.92,343.12Z" transform="translate(-371.47 -249.95)"/><path class="cls-2" d="M385,276.69c.32.08.43.35.6.55a43.63,43.63,0,0,0,27.81,15.6,72.94,72.94,0,0,0,14.09.64c.54,0,.55-.26.52-.67-.28-4.71-.54-9.41-.82-14.12l-.05-.87c.28.22.47.36.64.52q13.57,12.09,27.16,24.18c.46.41.42.6,0,1q-12.11,13.53-24.17,27.09c-.15.18-.32.34-.5.54a1.33,1.33,0,0,1-.14-.76c-.26-4.54-.53-9.09-.78-13.64,0-.55-.13-.8-.77-.86A51.52,51.52,0,0,1,412.81,312a44.34,44.34,0,0,1-18.89-15.52A61.62,61.62,0,0,1,385.08,277,2.9,2.9,0,0,1,385,276.69Z" transform="translate(-371.47 -249.95)"/></svg>