<?xml version="1.0" encoding="utf-8"?>
<!-- Generator: Adobe Illustrator 25.0.1, SVG Export Plug-In . SVG Version: 6.00 Build 0)  -->
<svg version="1.1" id="Слой_1" xmlns="http://www.w3.org/2000/svg" xmlns:xlink="http://www.w3.org/1999/xlink" x="0px" y="0px"
	 viewBox="0 0 841.89 595.28" style="enable-background:new 0 0 841.89 595.28;" xml:space="preserve">
<style type="text/css">
	.st0{fill:#C14DFC;}
	.st1{fill:#FFFFFF;}
</style>
<path class="st0" d="M456.82,347.05l-63.48,4.23c-10.87,0.72-20.44-8.09-21.37-19.69l-4.77-59.32c-0.93-11.6,7.12-21.59,17.99-22.32
	l63.48-4.23c10.87-0.72,20.44,8.09,21.37,19.69l4.77,59.32C475.74,336.33,467.69,346.32,456.82,347.05z"/>
<g>
	<path class="st1" d="M462.95,279.19c0.47,1.68,0.84,3.39,1.24,5.09c0.51,2.17-0.14,2.87-1.97,3.58c-1.02,0.39-2.04,0.78-3.01,1.27
		c-0.79,0.4-1.27,0.99-1.41,1.89c-0.18,1.14-0.37,2.3-0.68,3.41c-0.36,1.29,0.06,2.25,0.98,3.1c0.9,0.84,1.77,1.71,2.65,2.57
		c0.75,0.74,0.87,1.58,0.33,2.5c-0.94,1.61-1.96,3.18-3.03,4.7c-0.7,1-1.48,1.24-2.64,0.83c-0.7-0.25-1.39-0.54-2.08-0.82
		c-0.76-0.31-1.52-0.64-2.33-0.83c-0.55-0.12-1.06-0.07-1.55,0.24c-1.31,0.82-2.62,1.62-3.79,2.63c-0.56,0.48-0.76,1.1-0.78,1.81
		c-0.03,1.09,0.12,2.18,0.11,3.27c0,0.63,0.04,1.27-0.23,1.87c-0.2,0.45-0.52,0.77-0.98,0.9c-1.88,0.55-3.78,1.02-5.73,1.26
		c-0.17,0.02-0.35,0.03-0.52,0.04c-1.09,0.01-1.58-0.32-2.01-1.33c-0.55-1.3-1.02-2.62-1.65-3.88c-0.33-0.66-0.78-1.09-1.52-1.23
		c-1.26-0.24-2.51-0.56-3.78-0.78c-1.11-0.19-2.01,0.07-2.79,0.9c-0.84,0.9-1.66,1.82-2.57,2.66c-0.96,0.88-1.55,0.98-2.69,0.34
		c-1.63-0.92-3.19-1.93-4.68-3.05c-0.93-0.7-1.15-1.4-0.74-2.5c0.45-1.22,0.92-2.43,1.42-3.63c0.44-1.04,0.35-1.99-0.33-2.91
		c-0.75-1.01-1.44-2.05-2.19-3.06c-0.57-0.76-1.37-1.01-2.3-0.99c-1.19,0.03-2.37,0.16-3.56,0.07c-0.25-0.02-0.51-0.03-0.76-0.08
		c-0.73-0.14-1.25-0.47-1.46-1.28c-0.47-1.8-0.91-3.61-1.15-5.46c-0.03-0.22-0.04-0.44-0.04-0.66c0-1.07,0.31-1.49,1.29-1.93
		c1.3-0.58,2.66-1.02,3.91-1.71c0.66-0.36,1.13-0.81,1.3-1.58c0.27-1.24,0.48-2.49,0.71-3.74c0.21-1.12-0.25-1.91-1.02-2.64
		c-0.96-0.93-1.99-1.81-2.86-2.83c-0.59-0.7-0.73-1.34-0.29-2.14c1.03-1.85,2.21-3.61,3.53-5.27c0.49-0.63,1.16-0.76,1.97-0.5
		c1.28,0.42,2.5,1,3.75,1.51c1.02,0.42,1.93,0.33,2.83-0.28c1.14-0.77,2.29-1.54,3.38-2.4c0.42-0.33,0.66-0.73,0.71-1.28
		c0.11-1.28,0-2.56,0-3.84c0-0.51,0.02-1.01,0.12-1.51c0.13-0.68,0.52-1.11,1.18-1.29c1.99-0.56,4-1.05,6.04-1.36
		c0.85-0.13,1.46,0.32,1.89,1.01c0.58,0.95,0.87,2.03,1.33,3.04c0.24,0.53,0.48,1.07,0.73,1.6c0.22,0.46,0.65,0.66,1.09,0.77
		c1.52,0.41,3.08,0.66,4.62,0.95c0.9,0.17,1.54-0.36,2.12-0.95c0.91-0.92,1.82-1.84,2.73-2.77c0.26-0.27,0.57-0.46,0.9-0.62
		c0.33-0.17,0.71-0.22,1.05-0.05c2.08,1.05,4.08,2.21,5.8,3.81c0.51,0.48,0.63,1.06,0.41,1.74c-0.46,1.43-1.11,2.8-1.62,4.22
		c-0.29,0.79-0.26,1.48,0.24,2.2c0.85,1.24,1.59,2.56,2.58,3.71c0.38,0.43,0.83,0.6,1.37,0.64c1.28,0.09,2.56-0.03,3.84,0
		c0.19,0.01,0.38,0.03,0.57,0.02c0.64-0.02,1.21,0.14,1.71,0.55C462.75,278.86,462.85,279.03,462.95,279.19z M441.11,299.04
		c4.74-2.56,8.01-10.46,3.72-17.13c-3.22-5.01-10.83-7.43-16.84-3.68c-6.15,3.84-7.32,11.67-3.87,17.1
		C428.01,301.47,436.19,302.54,441.11,299.04z"/>
	<path class="st1" d="M412.09,320.9c-0.33,0.21-0.68,0.23-1.03,0.23c-0.79,0-1.58,0-2.37-0.01c-0.38-0.01-0.66,0.13-0.9,0.43
		c-0.57,0.72-1.09,1.47-1.55,2.27c-0.21,0.36-0.25,0.7-0.1,1.08c0.28,0.74,0.57,1.47,0.84,2.21c0.24,0.65,0.13,1.24-0.42,1.67
		c-0.94,0.73-1.92,1.4-3.01,1.89c-0.48,0.21-0.9,0.12-1.26-0.24c-0.55-0.55-1.08-1.11-1.61-1.67c-0.45-0.48-0.99-0.7-1.66-0.62
		c-0.88,0.11-1.75,0.23-2.6,0.49c-0.31,0.09-0.49,0.26-0.61,0.53c-0.38,0.8-0.75,1.6-1.13,2.4c-0.26,0.55-0.66,0.8-1.29,0.71
		c-1.2-0.16-2.38-0.37-3.51-0.82c-0.41-0.16-0.61-0.43-0.66-0.89c-0.08-0.75-0.06-1.49,0-2.23c0.07-0.96-0.28-1.65-1.08-2.14
		c-0.09-0.06-0.19-0.11-0.28-0.19c-1.24-1.07-2.54-1.22-3.96-0.36c-0.4,0.24-0.87,0.37-1.35,0.41c-0.21,0.02-0.43,0-0.56-0.18
		c-0.8-1.09-1.6-2.18-2.21-3.39c-0.26-0.52-0.21-0.97,0.21-1.38c0.53-0.51,1.05-1.04,1.6-1.55c0.5-0.46,0.67-1.01,0.58-1.67
		c-0.11-0.83-0.23-1.65-0.49-2.46c-0.1-0.31-0.27-0.52-0.56-0.65c-0.74-0.33-1.47-0.66-2.2-1.01c-0.85-0.41-1.07-0.82-0.93-1.75
		c0.18-1.16,0.51-2.29,0.9-3.4c0.12-0.36,0.43-0.46,0.75-0.47c0.84-0.03,1.68-0.06,2.51-0.02c0.77,0.03,1.31-0.27,1.74-0.9
		c0.44-0.64,0.9-1.25,1.26-1.94c0.15-0.29,0.17-0.56,0.08-0.87c-0.22-0.75-0.52-1.46-0.82-2.17c-0.36-0.87-0.25-1.26,0.51-1.83
		c0.85-0.65,1.74-1.22,2.69-1.72c0.65-0.34,1.02-0.33,1.54,0.17c0.5,0.48,0.96,1.01,1.43,1.52c0.48,0.52,1.07,0.75,1.79,0.68
		c0.66-0.06,1.31-0.19,1.96-0.33c0.63-0.14,1.06-0.52,1.33-1.11c0.35-0.78,0.69-1.56,1.13-2.3c0.24-0.39,0.53-0.55,0.98-0.5
		c1.31,0.17,2.58,0.53,3.83,0.93c0.28,0.09,0.42,0.29,0.48,0.58c0.1,0.5,0.13,1.02,0.04,1.51c-0.29,1.65,0.35,2.79,1.78,3.57
		c0.14,0.07,0.28,0.15,0.4,0.25c0.79,0.66,1.6,0.67,2.5,0.21c0.59-0.3,1.22-0.52,1.87-0.66c0.35-0.08,0.63,0,0.85,0.27
		c0.88,1.07,1.64,2.22,2.24,3.47c0.2,0.41,0.01,0.72-0.24,0.99c-0.52,0.55-1.04,1.1-1.61,1.6c-0.57,0.51-0.8,1.07-0.67,1.84
		c0.14,0.81,0.22,1.62,0.43,2.42c0.07,0.25,0.18,0.42,0.41,0.53c0.8,0.38,1.61,0.75,2.4,1.14c0.96,0.48,0.99,0.57,0.86,1.63
		c-0.12,0.98-0.33,1.94-0.64,2.88C412.59,320.37,412.43,320.72,412.09,320.9z M389.7,318.44c0.57,1.11,1.29,2.01,2.4,2.54
		c0.72,0.35,1.48,0.54,2.25,0.75c2.82,0.79,6.38-1.08,7.64-3.31c1.71-3.02,1.32-6.74-1.03-9.06c-2.26-2.24-5.79-2.67-7.98-1.56
		c-1.11,0.57-2.23,1.18-3.03,2.17c-1.04,1.29-1.47,2.82-1.57,4.46C388.29,315.96,388.74,317.31,389.7,318.44z"/>
	<path class="st1" d="M411.7,323.95c0.25-0.09,0.48-0.14,0.72-0.12c0.22,0.02,0.44,0.06,0.66,0.1c1.29,0.24,2.11-0.12,2.84-1.22
		c0.31-0.46,0.31-0.95,0.23-1.46c-0.08-0.48-0.2-0.96-0.23-1.45c-0.02-0.3,0.06-0.52,0.33-0.68c0.76-0.44,1.54-0.8,2.38-1.06
		c0.24-0.07,0.41,0.02,0.59,0.18c0.42,0.36,0.62,0.88,0.98,1.28c0.41,0.45,0.89,0.64,1.46,0.66c0.25,0.01,0.51-0.06,0.76-0.02
		c0.85,0.14,1.33-0.28,1.67-1c0.18-0.38,0.45-0.72,0.72-1.05c0.21-0.26,0.45-0.32,0.76-0.24c0.84,0.2,1.63,0.5,2.41,0.87
		c0.24,0.11,0.34,0.26,0.3,0.52c-0.08,0.6-0.14,1.2-0.22,1.79c-0.06,0.43,0.04,0.8,0.32,1.15c0.36,0.43,0.77,0.79,1.21,1.13
		c0.41,0.31,0.88,0.31,1.36,0.19c0.44-0.12,0.88-0.26,1.34-0.28c0.41-0.02,0.7,0.14,0.87,0.52c0.26,0.6,0.52,1.19,0.75,1.79
		c0.3,0.77,0.24,0.94-0.45,1.47c-0.39,0.3-0.78,0.6-1.18,0.88c-0.23,0.16-0.36,0.35-0.31,0.64c0,0.03,0,0.06,0,0.09
		c-0.01,2.3-0.11,2.1,1.7,3.24c0.66,0.42,0.7,0.58,0.5,1.35c-0.19,0.72-0.45,1.42-0.8,2.08c-0.12,0.22-0.27,0.31-0.53,0.31
		c-0.78,0-1.55-0.12-2.31-0.25c-0.23-0.04-0.37-0.01-0.53,0.18c-0.33,0.4-0.69,0.77-1.05,1.15c-0.4,0.43-0.51,0.92-0.32,1.49
		c0.15,0.47,0.24,0.94,0.27,1.44c0.02,0.34-0.11,0.56-0.38,0.71c-0.68,0.37-1.35,0.77-2.09,1.03c-0.47,0.16-0.83,0.06-1.11-0.37
		c-0.23-0.34-0.48-0.67-0.74-0.99c-0.33-0.39-0.74-0.64-1.26-0.67c-0.16-0.01-0.32,0-0.47-0.03c-1.11-0.16-1.85,0.28-2.41,1.25
		c-0.71,1.24-0.8,1.23-2.15,0.75c-0.43-0.15-0.85-0.34-1.28-0.49c-0.46-0.16-0.63-0.47-0.54-0.95c0.09-0.53,0.15-1.07,0.23-1.6
		c0.06-0.35-0.03-0.66-0.25-0.93c-0.38-0.47-0.83-0.87-1.3-1.24c-0.25-0.2-0.56-0.21-0.86-0.17c-0.42,0.06-0.84,0.17-1.24,0.31
		c-0.58,0.2-1.05,0.04-1.37-0.49c-0.41-0.68-0.68-1.42-0.93-2.18c-0.11-0.34,0.01-0.59,0.27-0.79c0.37-0.28,0.73-0.56,1.11-0.82
		c0.39-0.26,0.6-0.6,0.66-1.05c0.07-0.55,0.07-1.1-0.01-1.66c-0.08-0.53-0.39-0.88-0.83-1.14c-0.41-0.24-0.85-0.42-1.22-0.72
		c-0.17-0.13-0.27-0.28-0.23-0.48c0.16-0.98,0.46-1.91,1.03-2.74C411.59,324.08,411.65,324.01,411.7,323.95z M418.27,332.54
		c1.45,2.27,4.54,2.94,6.86,1.48c2.34-1.46,3.07-4.67,1.57-7.02c-1.41-2.2-4.61-3.06-7.04-1.47
		C417.83,326.74,416.32,329.8,418.27,332.54z"/>
</g>
</svg>
