<?xml version="1.0" encoding="utf-8"?>
<!-- Generator: Adobe Illustrator 25.0.1, SVG Export Plug-In . SVG Version: 6.00 Build 0)  -->
<svg version="1.1" id="Слой_1" xmlns="http://www.w3.org/2000/svg" xmlns:xlink="http://www.w3.org/1999/xlink" x="0px" y="0px"
	 viewBox="0 0 841.89 595.28" style="enable-background:new 0 0 841.89 595.28;" xml:space="preserve">
<style type="text/css">
	.st0{fill:#C917C0;}
	.st1{fill:#FFFFFF;}
</style>
<path class="st0" d="M453.14,363.37l-75.9-8.3c-13-1.42-22.45-13.84-21.12-27.75l6.8-71.09c1.33-13.9,12.94-24.02,25.94-22.6
	l75.9,8.3c13,1.42,22.45,13.84,21.12,27.75l-6.8,71.09C477.75,354.67,466.14,364.79,453.14,363.37z"/>
<g>
	<path class="st1" d="M423.98,262.07c20.08,2.42,34.72,19.9,32.38,40.73c-2.22,19.78-19.86,34.4-40.62,32.07
		c-19.71-2.21-34.78-20.04-32.01-41.32C386.22,274.38,403.54,260.11,423.98,262.07z M400.1,310.33c12.63,1.33,25.03,2.63,37.56,3.95
		c-1.07-1.56-2.17-2.85-3.15-4.24c-2.39-3.4-4.95-6.67-7.4-10.02c-0.49-0.67-0.89-0.79-1.58-0.28c-1.49,1.1-3.05,2.1-4.54,3.19
		c-0.71,0.52-1.19,0.67-1.88-0.16c-1.18-1.42-2.57-2.67-3.82-4.04c-0.63-0.69-1.07-0.58-1.73-0.01
		C409.15,302.58,404.7,306.38,400.1,310.33z M440.1,286.64c-12.53-1.32-24.68-2.59-37.15-3.91c5.4,5.46,10.56,10.72,15.77,15.93
		c1.71,1.7,1.74,1.6,3.7,0.17c2.07-1.51,4.22-2.92,6.33-4.37C432.43,291.93,436.11,289.4,440.1,286.64z M400.94,284.3
		c-0.86,8.18-1.68,16.02-2.54,24.16c4.7-4.04,9.16-7.89,13.65-11.71c0.9-0.76,0.1-1.15-0.28-1.55c-1.54-1.61-3.12-3.18-4.7-4.76
		C405.09,288.46,403.1,286.47,400.94,284.3z M441.68,288.67c-4.13,2.8-8.02,5.4-11.86,8.08c-0.49,0.34-1.68,0.51-0.75,1.74
		c2.77,3.65,5.43,7.39,8.14,11.08c0.58,0.8,1.23,1.54,2,2.5C440.06,304.11,440.86,296.52,441.68,288.67z"/>
</g>
</svg>
