<?xml version="1.0" encoding="utf-8"?>
<!-- Generator: Adobe Illustrator 25.0.1, SVG Export Plug-In . SVG Version: 6.00 Build 0)  -->
<svg version="1.1" id="Слой_1" xmlns="http://www.w3.org/2000/svg" xmlns:xlink="http://www.w3.org/1999/xlink" x="0px" y="0px"
	 viewBox="0 0 841.89 595.28" style="enable-background:new 0 0 841.89 595.28;" xml:space="preserve">
<style type="text/css">
	.st0{fill:#4800FF;}
	.st1{fill:#FFFFFF;}
</style>
<path class="st0" d="M465.91,378.52l-96.61-5.58c-16.54-0.95-29.32-16.06-28.54-33.75l3.98-90.43
	c0.78-17.68,14.82-31.25,31.36-30.29l96.61,5.58c16.54,0.95,29.32,16.06,28.54,33.75l-3.98,90.43
	C496.49,365.92,482.45,379.48,465.91,378.52z"/>
<g>
	<path class="st1" d="M465.08,267.84l-12.56-0.53c-2.52-0.11-4.9-1.19-6.63-3.02l-5.44-5.75c-1.73-1.83-4.11-2.92-6.63-3.02
		l-21.45-0.91c-2.52-0.11-4.98,0.77-6.86,2.45l-5.92,5.28c-1.88,1.68-4.34,2.56-6.86,2.45l-13.22-0.56
		c-5.89-0.25-10.86,4.32-11.11,10.21l-2.14,50.62c-0.25,5.89,4.32,10.86,10.21,11.11l85.59,3.62c5.89,0.25,10.86-4.32,11.11-10.21
		l2.14-50.62C475.54,273.06,470.97,268.08,465.08,267.84z M443.05,303.6c-0.52,12.3-10.95,21.89-23.26,21.37
		c-12.3-0.52-21.89-10.95-21.37-23.26c0.52-12.3,10.95-21.89,23.26-21.37C433.99,280.87,443.57,291.3,443.05,303.6z"/>
	<path class="st1" d="M421.26,290.34c-6.79-0.29-12.56,5.01-12.84,11.8c-0.29,6.79,5.01,12.56,11.8,12.84
		c6.79,0.29,12.56-5.01,12.84-11.8S428.06,290.62,421.26,290.34z"/>
</g>
</svg>
